<svg xmlns="http://www.w3.org/2000/svg" viewBox="0 0 265.04 210.36"><defs><style>.cls-1{fill:#001d2f;}.cls-2{fill:#c9caca;}.cls-3{fill:#fff;}.cls-11,.cls-4,.cls-7,.cls-8,.cls-9{fill:none;}.cls-4,.cls-9{stroke:#c9caca;}.cls-4,.cls-7,.cls-8{stroke-linecap:round;stroke-linejoin:round;}.cls-4{stroke-width:0.95px;}.cls-5{fill:#633a7c;}.cls-6{fill:#e9506c;}.cls-7,.cls-8{stroke:#001d2f;}.cls-7,.cls-9{stroke-width:1.04px;}.cls-8{stroke-width:0.52px;}.cls-11,.cls-9{stroke-miterlimit:10;}.cls-10{fill:#f5a117;}.cls-11{stroke:#fff;stroke-width:0.54px;}</style></defs><title>CTG-2_en</title><g id="Layer_2" data-name="Layer 2"><g id="圖層_1" data-name="圖層 1"><path class="cls-1" d="M205.06,51.8s0-.06-.05-.06h-1.08c-.54,0-.54,0-1.08,0,0,0-.06,0-.06.09,0,.48,0,.48,0,1s0,.49,0,1,0,.49,0,1,0,.49,0,1-.29.57,0,1,.35,0,.73,0h.78c.38,0,.56.32.8,0s0-.5,0-1,0-.48,0-1,0-.49,0-1,0-.49,0-1S205.06,52.28,205.06,51.8Z"/><path class="cls-2" d="M202.8,56.69c-.29.33-.06.41-.06.85s0,.45,0,.89,0,.44,0,.88,0,.44,0,.89,0,.44,0,.88.05.45.05.89-.07.45-.07.89-.26.56,0,.89.38,0,.76,0,.39.05.78.05.51.26.76,0,0-.44,0-.88,0-.44,0-.89V61.1c0-.44,0-.44,0-.88v-.89c0-.44-.06-.44-.06-.89s0-.44,0-.89.29-.56,0-.9-.4,0-.78,0a2.81,2.81,0,0,1-.77,0C203.16,56.57,203.06,56.39,202.8,56.69Z"/><path class="cls-1" d="M205.09,63.76c-.26-.29-.39,0-.77,0s-.39,0-.77,0-.51-.28-.77,0,0,.45,0,.9,0,.45,0,.9,0,.45,0,.9,0,.45,0,.9,0,.45,0,.9,0,.45,0,.9,0,.46,0,.91,0,.45,0,.9,0,.45,0,.9.05.45.05.9v.9c0,.45-.07.45-.07.9v.9c0,.46,0,.46,0,.91s0,.45,0,.9.05.45.05.9,0,.46,0,.91,0,.45,0,.9,0,.45,0,.91,0,.45,0,.9,0,.46,0,.91-.23.52,0,.91.4.17.78.35.36.23.75.41.41.53.77.29,0-.41,0-.84,0-.44,0-.87,0-.44,0-.88,0-.43,0-.87,0-.43,0-.87,0-.43,0-.87-.06-.43-.06-.87,0-.44,0-.87,0-.44,0-.87,0-.44,0-.87,0-.44,0-.87,0-.44,0-.87,0-.44,0-.87,0-.44,0-.88,0-.43,0-.87,0-.43,0-.87.06-.44.06-.88,0-.43,0-.87,0-.44,0-.87,0-.44,0-.87-.07-.44-.07-.88,0-.44,0-.88a2.81,2.81,0,0,1,0-.87C205.21,64.18,205.38,64.09,205.09,63.76Z"/><path class="cls-2" d="M202.75,83.59c-.36.24.06.47.06.91s0,.43,0,.87,0,.44,0,.88,0,.43,0,.87.05.44.05.88,0,.44,0,.88v.88c0,.44,0,.44,0,.87s0,.44,0,.88v1.75c0,.44,0,.44,0,.87s0,.44,0,.88,0,.44,0,.88-.07.44-.07.88,0,.44,0,.88.06.43.06.87-.06.44-.06.88.05.44.05.88,0,.44,0,.88-.05.43-.05.87,0,.44,0,.88,0,.44,0,.88,0,.44,0,.88,0,.44,0,.88v.88c0,.44,0,.44,0,.88v.88c0,.44,0,.44,0,.88s0,.44,0,.88,0,.44,0,.88,0,.44,0,.87,0,.44,0,.88,0,.44,0,.88,0,.44,0,.88,0,.44,0,.88.06.44.06.88,0,.44,0,.88,0,.44,0,.88-.07.44-.07.88v.88c0,.44.06.44.06.89s0,.44,0,.88,0,.45,0,.89,0,.44,0,.89a.08.08,0,0,0,.08.07c.54,0,.54,0,1.08,0H205s.09-.07.09-.11c0-.45,0-.45,0-.89s0-.45,0-.9,0-.44,0-.89,0-.45,0-.89,0-.45,0-.9v-.89c0-.44,0-.44,0-.89s0-.45,0-.89,0-.45,0-.89,0-.45,0-.89,0-.45,0-.89,0-.45,0-.9,0-.44,0-.89,0-.45,0-.9,0-.44,0-.89,0-.45,0-.89,0-.45,0-.9,0-.44,0-.89.05-.44.05-.89,0-.45,0-.9,0-.44,0-.89,0-.45,0-.9.06-.44.06-.89,0-.45,0-.89-.06-.45-.06-.9,0-.45,0-.9,0-.44,0-.89,0-.45,0-.9,0-.44,0-.89,0-.45,0-.9V94.58c0-.45.07-.45.07-.9s0-.45,0-.89-.05-.45-.05-.9,0-.45,0-.9,0-.44,0-.89,0-.45,0-.9,0-.45,0-.89v-.9c0-.45,0-.45,0-.9s.06-.46.06-.91.21-.52,0-.91-.41-.13-.8-.31-.44-.1-.77-.37S203.11,83.36,202.75,83.59Z"/><path class="cls-1" d="M211.13,51.8s0-.11,0-.11c-.54,0-.54.07-1.08.07s-.54,0-1.08,0a.1.1,0,0,0-.09.09v1c0,.49,0,.49,0,1s0,.49,0,1,0,.49,0,1-.33.6,0,1,.39,0,.77,0,.39-.06.77-.06.54.33.78,0,0-.48,0-1,0-.48,0-1,0-.49,0-1,0-.49,0-1S211.13,52.28,211.13,51.8Z"/><path class="cls-2" d="M208.87,56.69c-.29.33,0,.41,0,.85s0,.45,0,.89-.05.44-.05.88,0,.44,0,.89.07.44.07.88-.07.45-.07.89,0,.45,0,.89-.3.57,0,.9.4,0,.78,0,.39-.05.77-.05.55.34.8.05,0-.47,0-.91,0-.44,0-.89,0-.44,0-.88,0-.44,0-.88V58.44c0-.44,0-.44,0-.89s.29-.53,0-.87-.36,0-.74,0-.41.1-.78,0S209.13,56.4,208.87,56.69Z"/><path class="cls-1" d="M211.16,63.75c-.25-.29-.39,0-.77,0s-.39,0-.78,0-.49-.28-.74,0,0,.41,0,.84,0,.44,0,.87,0,.44,0,.88,0,.43,0,.87,0,.43,0,.87,0,.43,0,.87,0,.44,0,.87,0,.44,0,.87,0,.44,0,.88-.06.43-.06.87,0,.43,0,.87,0,.43,0,.87,0,.43,0,.87,0,.43,0,.87,0,.43,0,.87,0,.44,0,.87,0,.44,0,.87,0,.44,0,.88,0,.43,0,.87,0,.44,0,.88-.08.43-.08.87,0,.43,0,.87,0,.44,0,.88,0,.43,0,.87,0,.44,0,.88-.23.51,0,.89.39.19.77.37l.77.37c.38.18.45.59.8.35s-.06-.46-.06-.9.07-.44.07-.88,0-.43,0-.87,0-.44,0-.88v-.88c0-.44,0-.44,0-.88V80.49c0-.44,0-.44,0-.88s0-.44,0-.88-.06-.44-.06-.88.06-.44.06-.88,0-.44,0-.88v-.87c0-.44,0-.44,0-.88s.07-.44.07-.88,0-.44,0-.88,0-.44,0-.88.06-.44.06-.88-.07-.44-.07-.88.06-.44.06-.88,0-.44,0-.88,0-.44,0-.88-.05-.44-.05-.89,0-.44,0-.88a3,3,0,0,1,0-.89C211.24,64.18,211.45,64.09,211.16,63.75Z"/><path class="cls-2" d="M208.84,86.44c-.37.25,0,.45,0,.9s0,.45,0,.89,0,.45,0,.9v1.78c0,.45.08.45.08.89s-.06.45-.06.89,0,.45,0,.9,0,.44,0,.89-.08.45-.08.89.07.45.07.9,0,.45,0,.89,0,.45,0,.9,0,.45,0,.89,0,.45,0,.9,0,.44,0,.89,0,.45,0,.89-.05.45-.05.9.06.45.06.9,0,.44,0,.89,0,.45,0,.9,0,.44,0,.89.05.45.05.9,0,.45,0,.9,0,.44,0,.89v.9c0,.45,0,.45,0,.89s0,.45,0,.9v.89c0,.45,0,.45,0,.9s-.07.44-.07.89,0,.45,0,.9,0,.45,0,.9,0,.45,0,.9,0,.44,0,.89,0,.45,0,.9.08.45.08.9,0,.45,0,.9,0,.45,0,.9,0,.45,0,.9,0,.45,0,.91c0,0,.07.06.11.06h2.16s.11,0,.11-.06c0-.45-.06-.45-.06-.89s0-.45,0-.89v-.89c0-.45,0-.45,0-.89s0-.44,0-.89v-.88c0-.45,0-.45,0-.89s0-.44,0-.89,0-.44,0-.89,0-.44,0-.89v-.89c0-.45-.05-.45-.05-.89s0-.45,0-.89,0-.44,0-.89,0-.44,0-.89,0-.44,0-.89,0-.44,0-.89.05-.45.05-.89,0-.45,0-.89,0-.45,0-.89,0-.45,0-.89,0-.45,0-.9,0-.44,0-.89,0-.44,0-.89,0-.44,0-.89,0-.45,0-.89,0-.45,0-.89,0-.45,0-.89,0-.45,0-.89,0-.45,0-.89,0-.45,0-.9,0-.44,0-.89,0-.44,0-.89v-.9c0-.44,0-.44,0-.89s.06-.44.06-.89-.06-.45-.06-.89.06-.45.06-.9-.07-.45-.07-.9.27-.51,0-.89-.36-.2-.75-.38-.44-.08-.78-.35S209.19,86.2,208.84,86.44Z"/><path class="cls-1" d="M217.26,51.8s-.07-.1-.11-.1c-.54,0-.54,0-1.08,0H215c-.05,0-.06,0-.06.07,0,.48,0,.48,0,1s0,.49,0,1,.05.49.05,1,0,.49,0,1-.31.59,0,1,.38,0,.77,0h.77c.39,0,.54.3.78,0s0-.48,0-1,0-.48,0-1v-1c0-.49,0-.49,0-1S217.26,52.28,217.26,51.8Z"/><path class="cls-2" d="M214.93,56.68c-.29.33,0,.42,0,.86v.89c0,.44,0,.44,0,.88s0,.44,0,.89,0,.44,0,.88,0,.45,0,.89,0,.45,0,.89-.32.58,0,.92.41,0,.8,0,.39,0,.77,0,.49.22.75-.07.05-.42.05-.86-.07-.44-.07-.89,0-.44,0-.88,0-.44,0-.88,0-.45,0-.89,0-.44,0-.89,0-.44,0-.89.31-.54,0-.88-.37,0-.76,0a2.49,2.49,0,0,1-.77,0C215.29,56.56,215.18,56.39,214.93,56.68Z"/><path class="cls-1" d="M217.2,63.78c-.25-.29-.36,0-.75,0s-.38,0-.77,0-.55-.27-.8,0,.06.46.06.9-.05.44-.05.88.05.44.05.88-.07.43-.07.87,0,.44,0,.88.07.44.07.88,0,.44,0,.88,0,.44,0,.88,0,.44,0,.87-.06.44-.06.88,0,.44,0,.88,0,.44,0,.88v1.76c0,.44,0,.44,0,.88s0,.44,0,.88v.87c0,.44-.06.44-.06.88v.88c0,.44,0,.44,0,.88s0,.44,0,.88,0,.44,0,.88,0,.44,0,.88,0,.44,0,.88,0,.44,0,.88,0,.44,0,.88.05.45.05.89,0,.44,0,.89-.23.49,0,.87.38.16.76.34l.77.37c.38.18.43.64.78.4s0-.46,0-.91-.07-.44-.07-.88,0-.44,0-.89V86.8c0-.44,0-.44,0-.88s0-.44,0-.89v-.88c0-.44,0-.44,0-.89s0-.44,0-.88,0-.44,0-.89,0-.44,0-.88,0-.44,0-.89,0-.44,0-.88,0-.45,0-.89,0-.44,0-.88,0-.45,0-.89.06-.44.06-.88,0-.45,0-.89,0-.44,0-.88v-.89c0-.44.07-.44.07-.88s0-.45,0-.89,0-.44,0-.89,0-.44,0-.89,0-.44,0-.88,0-.44,0-.89,0-.44,0-.89-.05-.44-.05-.89a3.31,3.31,0,0,1,0-.89C217.3,64.19,217.49,64.12,217.2,63.78Z"/><path class="cls-2" d="M214.9,89.25c-.36.26,0,.46,0,.9s0,.45,0,.89,0,.44,0,.89.06.44.06.89v.88c0,.45,0,.45,0,.89s0,.45,0,.89,0,.45,0,.89,0,.45,0,.9,0,.44,0,.89,0,.44,0,.89,0,.44,0,.89,0,.44,0,.89-.06.44-.06.89,0,.45,0,.89,0,.45,0,.9,0,.44,0,.89,0,.44,0,.89,0,.44,0,.89,0,.45,0,.89,0,.45,0,.9v.89c0,.45,0,.45,0,.89s0,.45,0,.89-.06.45-.06.9.05.44.05.88,0,.45,0,.9,0,.44,0,.89,0,.45,0,.89,0,.45,0,.9,0,.44,0,.89,0,.45,0,.9,0,.44,0,.89,0,.44,0,.89v1.8c0,.45,0,.45,0,.9s0,.45,0,.9c0,0,0,.11.07.11.54,0,.54-.07,1.08-.07s.54.08,1.08.08c0,0,0-.08,0-.12v-.89c0-.44.06-.44.06-.88s-.07-.44-.07-.88.06-.44.06-.89,0-.44,0-.88v-.88c0-.45,0-.45,0-.89v-.89c0-.44.05-.44.05-.89s0-.44,0-.88,0-.44,0-.89,0-.44,0-.88,0-.44,0-.89.08-.44.08-.88,0-.45,0-.89,0-.45,0-.89,0-.44,0-.89.08-.44.08-.88,0-.45,0-.89-.06-.44-.06-.89,0-.44,0-.89,0-.44,0-.88.06-.45.06-.89,0-.44,0-.89,0-.44,0-.88,0-.44,0-.89,0-.44,0-.89,0-.44,0-.88,0-.45,0-.89.08-.45.08-.89,0-.45,0-.89,0-.45,0-.89v-.89c0-.44-.06-.44-.06-.89s.07-.44.07-.89,0-.45,0-.9.27-.53,0-.91-.42-.14-.81-.32-.44-.1-.77-.36S215.25,89,214.9,89.25Z"/><path class="cls-3" d="M226.39,53.15c-1.25,0-1.25-.25-2.51-.25s-1.26-.08-2.52-.08-1.25.39-2.51.39S217.6,53,216.34,53s-1.26-.08-2.51-.08-1.26-.16-2.52-.16-1.26,0-2.51,0-1.26.2-2.52.2-1.25,0-2.51,0-1.26-.31-2.51-.31-1.25.51-2.51.51-1.25-.38-2.51-.38-1.26.36-2.51.36-1.26-.41-2.52-.41-1.25,0-2.51,0-1.25.08-2.51.08-1.26.28-2.52.28-1.25.11-2.51.11S179.9,53,178.65,53s-1.26.09-2.52.09-1.26.05-2.52.05-1.25-.1-2.51-.1-1.26-.25-2.52-.25-1.26.16-2.52.16-1.25,0-2.51,0-1.26-.06-2.51-.06-1.26.07-2.52.07-1.26-.07-2.52-.07-1.26.35-2.52.35S152.22,53,151,53s-1.27-.14-2.53-.14c-.25,0-.68-.12-.68-.38,0-1.23.4-1.23.4-2.46s-.21-1.23-.21-2.46.12-1.23.12-2.46-.3-1.23-.3-2.46.46-1.23.46-2.46S148,39,148,37.72s-.05-1.23-.05-2.46.29-1.23.29-2.46-.33-1.24-.33-2.47.23-1.23.23-2.47.06-1.23.06-2.46-.08-1.23-.08-2.47.09-1.23.09-2.46-.1-1.24-.1-2.47-.26-1.23-.26-2.46.16-1.24.16-2.47-.06-1.23-.06-2.47.09-1.23.09-2.47.21-1.23.21-2.47-.2-1.23-.2-2.47S147.86,2,147.86.72a.64.64,0,0,1,.57-.54c1.26,0,1.26-.08,2.52-.08s1.25.23,2.51.23S154.72.21,156,.21s1.26,0,2.52,0,1.25.32,2.51.32S162.26,0,163.51,0s1.26.28,2.52.28,1.25.08,2.51.08S169.8.3,171.05.3s1.26-.22,2.51-.22,1.26.29,2.51.29,1.26-.25,2.51-.25,1.26.29,2.52.29,1.25-.23,2.51-.23,1.26-.07,2.51-.07,1.26.18,2.51.18,1.26.21,2.52.21,1.26-.37,2.51-.37S194.92,0,196.18,0s1.26.11,2.51.11,1.26.22,2.52.22,1.26,0,2.52,0,1.25-.3,2.51-.3,1.26.1,2.52.1,1.26,0,2.51,0,1.26.15,2.52.15S215.05.1,216.31.1s1.26.22,2.52.22,1.26-.16,2.51-.16,1.27.26,2.53.26,1.26-.33,2.52-.33c.26,0,.3.37.3.63,0,1.23.15,1.23.15,2.46s-.22,1.23-.22,2.46.12,1.23.12,2.46.36,1.23.36,2.46S227,11.79,227,13s-.15,1.24-.15,2.47-.27,1.23-.27,2.46,0,1.23,0,2.47.38,1.23.38,2.46,0,1.23,0,2.47-.37,1.23-.37,2.46,0,1.24,0,2.47.11,1.23.11,2.46-.18,1.24-.18,2.47.41,1.23.41,2.46-.36,1.24-.36,2.47.27,1.23.27,2.47.09,1.23.09,2.47,0,1.23,0,2.47-.33,1.23-.33,2.47.13,1.24.13,2.47C226.84,52.75,226.65,53.15,226.39,53.15Z"/><polyline class="cls-4" points="152.28 27.04 165.85 27.04 168.17 16.55 172.18 36.45 174.96 23.65 176.65 30.43 180.35 17.63 183.75 33.67 186.99 24.88 189.15 30.43 191.93 23.18 195.16 35.52 198.4 21.64 200.87 29.97 203.19 25.19 205.96 33.21 209.51 21.79 212.29 29.82 213.37 26.27 222.47 26.27"/><rect class="cls-4" x="152.02" y="4.87" width="70.38" height="42.53"/><path class="cls-5" d="M105,151.18c-1.24,0-1.24-.19-2.49-.19s-1.25.18-2.5.18-1.25.19-2.49.19-1.25.13-2.5.13h-2.5c-1.25,0-1.25-.17-2.49-.17h-2.5c-1.24,0-1.24.08-2.49.08s-1.24-.35-2.49-.35-1.25,0-2.5,0-1.25.37-2.49.37-1.25-.33-2.5-.33H72.59c-1.25,0-1.25.38-2.5.38s-1.25-.29-2.5-.29h-5c-1.25,0-1.25.28-2.5.28s-1.25-.12-2.5-.12-1.25-.27-2.5-.27-1.25.45-2.5.45-1.25-.44-2.5-.44-1.25.07-2.49.07-1.26,0-2.51,0-1.25,0-2.5,0-1.25.37-2.5.37H37.59c-1.25,0-1.25-.19-2.5-.19-.26,0-.4-.25-.4-.51,0-1.24.11-1.24.11-2.49s-.31-1.24-.31-2.48.38-1.25.38-2.49-.21-1.25-.21-2.49.06-1.25.06-2.49-.11-1.25-.11-2.49.14-1.25.14-2.49,0-1.25,0-2.49-.25-1.25-.25-2.49.09-1.25.09-2.49.23-1.25.23-2.49,0-1.25,0-2.49-.22-1.24-.22-2.48-.1-1.25-.1-2.49.11-1.24.11-2.49-.18-1.24-.18-2.49.17-1.24.17-2.49.13-1.24.13-2.49,0-1.24,0-2.49-.28-1.24-.28-2.49.06-1.24.06-2.49,0-1.24,0-2.49.19-1.25.19-2.49-.08-1.25-.08-2.49-.26-1.25-.26-2.5.46-1.24.46-2.49,0-1.25,0-2.49-.05-1.25-.05-2.49.05-1.25.05-2.5-.19-1.24-.19-2.49-.12-1.25-.12-2.5,0-1.25,0-2.5-.2-1.25-.2-2.5a1,1,0,0,1,.71-.67c1.25,0,1.25.22,2.49.22h2.5c1.25,0,1.25.24,2.5.24s1.24-.15,2.49-.15,1.25-.18,2.5-.18,1.25.25,2.5.25,1.24-.12,2.49-.12S53.8,68,55.05,68s1.25,0,2.49,0,1.25.34,2.5.34,1.25,0,2.5,0,1.24-.18,2.49-.18,1.25.11,2.5.11,1.24-.1,2.49-.1,1.25,0,2.5,0S73.77,68,75,68h2.5c1.25,0,1.25-.09,2.49-.09s1.25.21,2.5.21H85c1.25,0,1.25-.07,2.5-.07s1.25-.12,2.5-.12,1.25.25,2.5.25,1.25,0,2.5,0,1.25-.13,2.5-.13,1.25-.26,2.5-.26,1.25.26,2.51.26S103.77,68,105,68a.77.77,0,0,1,.62.61c0,1.25.09,1.25.09,2.49s-.11,1.25-.11,2.49-.23,1.24-.23,2.49.34,1.24.34,2.49-.32,1.24-.32,2.49.11,1.24.11,2.49,0,1.24,0,2.49-.12,1.24-.12,2.49,0,1.24,0,2.49.2,1.24.2,2.49.21,1.24.21,2.49-.51,1.24-.51,2.48.49,1.25.49,2.49-.1,1.24-.1,2.49,0,1.24,0,2.49-.1,1.24-.1,2.48-.34,1.25-.34,2.49.24,1.25.24,2.49-.11,1.25-.11,2.49.08,1.25.08,2.49.29,1.25.29,2.49-.29,1.25-.29,2.5.22,1.24.22,2.49.09,1.24.09,2.49-.42,1.25-.42,2.49.35,1.25.35,2.5-.31,1.24-.31,2.49.13,1.24.13,2.49-.23,1.24-.23,2.49.14,1.25.14,2.5,0,1.24,0,2.49-.06,1.25-.06,2.5.42,1.25.42,2.5C105.72,151,105.28,151.18,105,151.18Z"/><path class="cls-2" d="M222.35,80.92c-.45,0-.45.12-.9.12s-.45-.07-.9-.07-.45-.07-.9-.07h-.89c-.45,0-.45.11-.9.11H217c-.44,0-.44-.1-.89-.1s-.45,0-.9,0-.45.06-.9.06h-.9c-.45,0-.45,0-.89,0s-.45,0-.9,0-.45,0-.9,0-.45.09-.9.09-.45,0-.9,0-.45,0-.9,0-.45,0-.89,0-.45,0-.9,0h-.9c-.45,0-.45,0-.9,0s-.44,0-.89,0h-.9c-.45,0-.45.1-.9.1s-.45-.11-.9-.11-.45.12-.9.12-.45-.12-.9-.12-.45.12-.9.12-.45,0-.9,0-.45,0-.9,0-.46,0-.91,0-.45,0-.9,0-.46,0-.91,0c-.08,0-.09,0-.09-.11,0-.45,0-.45,0-.91s0-.45,0-.9,0-.45,0-.9-.08-.45-.08-.9.1-.45.1-.91,0-.45,0-.9-.06-.45-.06-.9,0-.45,0-.9,0-.45,0-.9,0-.45,0-.9,0-.46,0-.91,0-.45,0-.9-.06-.45-.06-.9V68.2c0-.45,0-.45,0-.9s.1-.45.1-.9,0-.46,0-.91-.06-.46-.06-.91,0-.45,0-.91.08-.45.08-.91c0-.08,0-.12.07-.12h.9c.44,0,.44,0,.89,0s.45-.09.9-.09.45.11.9.11.45-.13.9-.13.44.13.89.13.45-.13.9-.13.45,0,.89,0,.45,0,.9,0h1.8c.45,0,.45,0,.9,0s.45.06.9.06.44-.09.89-.09.45.06.9.06.45.07.9.07.45-.07.9-.07h.9c.45,0,.45-.05.9-.05s.44,0,.89,0,.45.07.9.07.45-.12.9-.12.45.12.9.12.45,0,.9,0,.45-.13.9-.13h.9c.45,0,.45.1.9.1s.45,0,.9,0,.45-.08.9-.08h.9c.46,0,.46,0,.91,0s.45.06.91.06c.07,0,.13,0,.13.08v.9c0,.45,0,.45,0,.9v.91c0,.45,0,.45,0,.9s0,.45,0,.9.05.45.05.91-.07.45-.07.9.05.45.05.89.07.46.07.91-.07.45-.07.9,0,.45,0,.9.06.45.06.91-.09.45-.09.9v.9c0,.46,0,.46,0,.91s.08.45.08.9,0,.45,0,.91-.09.45-.09.91v.91c0,.45,0,.45,0,.91C222.44,80.91,222.42,80.92,222.35,80.92Z"/><path class="cls-1" d="M226.51,81c-.45,0-.45,0-.89,0s-.45,0-.9,0-.45-.07-.9-.07-.45,0-.9,0-.45.09-.9.09-.44,0-.89,0-.45-.09-.9-.09-.45.09-.89.09-.45-.07-.9-.07h-.9c-.45,0-.45,0-.9,0s-.45,0-.9,0h-.89c-.45,0-.45,0-.9,0s-.45,0-.9,0-.45,0-.9,0-.45-.09-.9-.09-.45.12-.9.12-.45-.07-.9-.07-.44.06-.89.06-.45,0-.9,0-.45,0-.9,0-.45,0-.9,0-.45.08-.9.08h-.9c-.45,0-.45-.06-.9-.06s-.45-.06-.9-.06-.45.13-.9.13h-.9c-.45,0-.45-.13-.9-.13s-.46.09-.91.09-.45-.08-.91-.08c-.07,0-.2,0-.2-.08,0-.45.12-.45.12-.91s-.09-.45-.09-.9,0-.45,0-.9,0-.45,0-.9.09-.45.09-.91-.08-.45-.08-.9,0-.45,0-.9v-1.8c0-.45.12-.45.12-.9s0-.46,0-.91,0-.45,0-.9,0-.45,0-.9,0-.46,0-.91-.1-.45-.1-.9.13-.45.13-.9-.06-.46-.06-.91-.05-.46-.05-.91,0-.45,0-.91,0-.45,0-.91c0-.08.07-.08.14-.08.45,0,.45-.11.9-.11s.45.08.9.08.45-.07.9-.07.45.11.89.11.45-.12.9-.12h.9c.44,0,.44.08.89.08h.9c.45,0,.45,0,.9,0h.9c.45,0,.45-.09.9-.09h.89c.45,0,.45.11.9.11s.45-.1.9-.1.45.06.9.06h.9c.45,0,.45-.06.9-.06h1.79c.45,0,.45,0,.9,0h.89c.45,0,.45,0,.9,0s.45-.07.9-.07.45,0,.9,0,.45-.1.9-.1l.9,0c.45,0,.45.07.9.07s.45,0,.9,0,.45.08.9.08.46-.15.91-.15.45.15.9.15.46-.07.91-.07c.08,0,.11.06.11.14,0,.45,0,.45,0,.9s0,.45,0,.9,0,.46,0,.91,0,.45,0,.9-.1.45-.1.9.11.45.11.91-.12.45-.12.9,0,.45,0,.89.1.46.1.91-.09.45-.09.9,0,.45,0,.9,0,.45,0,.91,0,.45,0,.9,0,.45,0,.9-.12.46-.12.91,0,.45,0,.9.1.45.1.91-.08.45-.08.91.07.45.07.91-.08.45-.08.91C226.62,80.91,226.59,81,226.51,81Z"/><path class="cls-6" d="M155.36,93.28c-1.23,0-1.23,0-2.47,0h-2.47c-1.24,0-1.24-.15-2.47-.15s-1.24-.2-2.48-.2-1.23.26-2.47.26-1.23.15-2.46.15S139.3,93,138.07,93s-1.24.07-2.47.07-1.24.35-2.48.35-1.23-.32-2.47-.32h-2.47c-1.23,0-1.23-.1-2.47-.1s-1.24.17-2.47.17-1.24-.09-2.48-.09-1.23,0-2.47,0-1.24-.16-2.48-.16-1.23.14-2.47.14h-2.48c-1.23,0-1.23,0-2.47,0s-1.24.16-2.47.16-1.24-.18-2.48-.18S102.2,93,101,93s-1.24,0-2.48,0-1.24.39-2.48.39-1.24-.21-2.48-.21-1.24.1-2.48.1c-.26,0-.27-.26-.27-.51,0-1.27-.2-1.27-.2-2.54s.13-1.27.13-2.54-.27-1.27-.27-2.54.25-1.26.25-2.53,0-1.27,0-2.54.18-1.27.18-2.54-.29-1.27-.29-2.54.13-1.27.13-2.54-.3-1.26-.3-2.53.43-1.27.43-2.53,0-1.27,0-2.54-.35-1.27-.35-2.54.15-1.27.15-2.53-.09-1.27-.09-2.54.07-1.27.07-2.54,0-1.27,0-2.54V49.62c0-1.27,0-1.27,0-2.54s0-1.27,0-2.54-.13-1.27-.13-2.54.2-1.27.2-2.54-.21-1.27-.21-2.54.24-1.27.24-2.54-.09-1.27-.09-2.54-.13-1.27-.13-2.54.29-1.27.29-2.54-.36-1.27-.36-2.55.07-1.27.07-2.54.16-1.28.16-2.55c0-.26.2-.33.46-.33,1.23,0,1.23-.37,2.47-.37s1.23.37,2.47.37,1.24.09,2.47.09,1.24,0,2.48,0,1.23-.44,2.47-.44,1.23.11,2.46.11,1.24.34,2.47.34,1.24-.28,2.47-.28,1.24.2,2.48.2,1.23-.06,2.47-.06,1.23.1,2.47.1,1.23,0,2.47,0,1.24,0,2.47,0,1.24-.29,2.48-.29,1.23.08,2.47.08,1.24-.22,2.48-.22,1.23.14,2.47.14,1.24.28,2.48.28,1.23-.23,2.47-.23,1.24-.19,2.47-.19,1.24.46,2.48.46,1.24-.05,2.47-.05,1.24-.26,2.48-.26,1.24.28,2.48.28h2.48c1.24,0,1.24-.06,2.48-.06.26,0,.27.09.27.35,0,1.27.18,1.27.18,2.54s-.11,1.26-.11,2.53,0,1.27,0,2.54.17,1.27.17,2.54.18,1.27.18,2.54-.47,1.26-.47,2.53,0,1.27,0,2.54.19,1.27.19,2.54-.24,1.27-.24,2.53.51,1.27.51,2.54-.45,1.27-.45,2.54,0,1.26,0,2.53.26,1.27.26,2.54-.13,1.27-.13,2.54.06,1.27.06,2.54-.25,1.26-.25,2.53,0,1.27,0,2.54.22,1.27.22,2.54.18,1.27.18,2.54-.12,1.27-.12,2.54.19,1.27.19,2.54-.15,1.27-.15,2.54-.19,1.27-.19,2.54.18,1.27.18,2.54-.07,1.27-.07,2.54.07,1.28.07,2.55.16,1.27.16,2.54-.45,1.27-.45,2.55.2,1.27.2,2.55A.51.51,0,0,1,155.36,93.28Z"/><rect class="cls-4" x="107.27" y="48.15" width="40.84" height="15.52"/><polygon class="cls-2" points="117.82 106.44 117.88 110.34 129.45 110.34 128.4 100.31 117.82 106.44"/><polygon class="cls-1" points="128.05 96.96 125.75 80.26 117.42 78.56 117.76 102.48 117.82 106.44 128.4 100.31 128.05 96.96"/><rect class="cls-2" x="118.8" y="112.81" width="17.12" height="24.07"/><polygon class="cls-3" points="111.71 77.48 119.4 77.91 120.28 76.68 116.12 71.3 111.71 77.48"/><polygon class="cls-2" points="126.75 56.39 116.12 71.3 120.28 76.68 131.98 60.22 126.75 56.39"/><rect class="cls-3" x="100.78" y="88.31" width="6.99" height="13.32" transform="translate(31.65 -25.93) rotate(16.68)"/><rect class="cls-1" x="99.78" y="97.48" width="6.99" height="1.63" transform="translate(32.56 -25.51) rotate(16.68)"/><rect class="cls-2" x="109.44" y="88.55" width="6.99" height="14.25" transform="translate(1.01 -1.18) rotate(0.6)"/><rect class="cls-1" x="109.41" y="98.79" width="6.99" height="1.63" transform="translate(1.05 -1.18) rotate(0.6)"/><rect class="cls-2" x="118.11" y="88.31" width="6.99" height="13.32" transform="translate(265.35 151.05) rotate(163.32)"/><rect class="cls-1" x="119.11" y="97.48" width="6.99" height="1.63" transform="translate(268.25 157.26) rotate(163.32)"/><path class="cls-1" d="M104.95,76.56H121a5.3,5.3,0,0,1,5.3,5.3v7.79a0,0,0,0,1,0,0H99.65a0,0,0,0,1,0,0V81.86A5.3,5.3,0,0,1,104.95,76.56Z"/><rect class="cls-2" x="99.58" y="86.34" width="26.79" height="1.81"/><polygon class="cls-3" points="116.35 89.59 124 90.8 123.65 89.64 116.35 89.59"/><polygon class="cls-2" points="102.21 89.66 109.05 90.88 109.53 89.59 102.21 89.66"/><polygon class="cls-3" points="116.49 89.58 109.53 89.59 116.47 90.85 116.49 89.58"/><rect class="cls-1" x="95.51" y="109.88" width="33.32" height="4.17" rx="0.49" ry="0.49"/><circle class="cls-2" cx="113.1" cy="75.17" r="4.87"/><circle class="cls-1" cx="113.1" cy="75.17" r="2.3"/><path class="cls-1" d="M93.74,134.94h40a2.66,2.66,0,0,1,2.66,2.66v6.75a0,0,0,0,1,0,0H89.65a0,0,0,0,1,0,0V139A4.09,4.09,0,0,1,93.74,134.94Z"/><polygon class="cls-1" points="133.35 58.3 128.07 54.54 126.75 56.39 131.98 60.22 133.35 58.3"/><path class="cls-3" d="M134.54,94.3l-9.85-10.92s0,0-.06,0l-8.56-2.14a.11.11,0,0,0-.08,0l-7.43,3a.14.14,0,0,0,0,.24L113.1,88l6-.3s.77,9.1,4.94,8.33l2,.15,3.55,7.71Z"/><path class="cls-3" d="M171.25,64.06,146.57,82l9.26,36.25-9.26,27.61s78.68,1.24,78.68,0S231.42,84.73,171.25,64.06Z"/><path class="cls-3" d="M176.5,84.43l-21,29-21-19.13-13.89,25.61,28.39,29h20.05l26.54-36.1S198.1,83.5,176.5,84.43Z"/><polyline class="cls-7" points="176.5 84.43 155.52 113.43 146.8 105.72"/><polygon class="cls-1" points="169.09 148.91 195.63 112.81 176.42 148.75 169.09 148.91"/><polygon class="cls-1" points="141.71 77.48 146.57 81.96 152.3 77.81 141.96 77.32 141.71 77.48"/><polygon class="cls-3" points="168.09 59.67 141.96 77.32 152.3 77.81 171.25 64.06 168.09 59.67"/><line class="cls-8" x1="109.7" y1="85.2" x2="116.33" y2="82.88"/><line class="cls-8" x1="110.63" y1="86.43" x2="117.26" y2="84.12"/><line class="cls-8" x1="111.4" y1="87.67" x2="118.03" y2="85.35"/><polygon class="cls-3" points="167.09 61.75 147.03 39.84 126.67 43.55 134.69 56.04 132.22 63.45 137.31 60.67 142.71 68.38 147.96 64.37 151.51 71.2 165.7 62.83 167.09 61.75"/><path class="cls-1" d="M147,39.84S116.49,45.4,117,45.4s3.86,5.4,13.58,4.16l12.18-1.85A4.57,4.57,0,0,0,147.34,51s0-3.89,2.26-3.23a2.07,2.07,0,0,1,1.09.8,4.54,4.54,0,0,1,.16,5.34.5.5,0,0,0,.44.76l8.88-.48Z"/><path class="cls-1" d="M137.67,55.11c.41.71.3,1.12-.09,1.34s-.9.18-1.31-.54-.43-1.48,0-1.7S137.26,54.39,137.67,55.11Z"/><path class="cls-7" d="M140.48,61.83a4,4,0,0,0,2.93-3.55"/><polygon class="cls-6" points="147.88 64.43 148.92 66.36 152.51 61.27 147.88 64.43"/><polygon class="cls-6" points="166.3 60.88 151.35 70.97 165.08 59.52 166.3 60.88"/><path class="cls-7" d="M130.68,130.86c.46-.46,7.56-14.35,7.56-14.35"/><circle class="cls-7" cx="135.93" cy="103.55" r="1.54"/><polygon class="cls-6" points="134.54 94.3 129.49 103.71 133.21 92.76 134.54 94.3"/><rect class="cls-3" x="104.46" y="108.34" width="16.66" height="1.42"/><path class="cls-9" d="M209.9,71.78a4.16,4.16,0,0,1-.53,1.53,3.88,3.88,0,0,1-.8,1.38,4.5,4.5,0,0,1-4.51.92,3.13,3.13,0,0,1-2.21-2.26,4.15,4.15,0,0,1-.37-1.57,4.31,4.31,0,0,1,.27-1.62,4.4,4.4,0,0,1,.84-1.44,4.35,4.35,0,0,1,1.52-.67c.49-.2,1-.63,1.54-.63a4.39,4.39,0,0,1,1.6.49,4.64,4.64,0,0,1,1.47.8,4.23,4.23,0,0,1,.73,1.49A4.29,4.29,0,0,1,209.9,71.78Z"/><path class="cls-10" d="M217.22,71.78a2.49,2.49,0,0,1-.12,1,2.54,2.54,0,0,1-.64.71,2.33,2.33,0,0,1-.75.53,2.46,2.46,0,0,1-.91.31,2.4,2.4,0,0,1-.91-.31,2.6,2.6,0,0,1-.81-3.91,2.46,2.46,0,0,1,.8-.5,2.53,2.53,0,0,1,.92-.1,2.85,2.85,0,0,1,1.71.61,2.4,2.4,0,0,1,.58.76A2.46,2.46,0,0,1,217.22,71.78Z"/><path class="cls-3" d="M223.74,71.78a2.44,2.44,0,0,1-.29.9A2.32,2.32,0,0,1,222.21,74a1.87,1.87,0,0,1-1.85,0,2.5,2.5,0,0,1-.81-.5,4.29,4.29,0,0,1-.73-1.72,2.51,2.51,0,0,1,.18-1,2.64,2.64,0,0,1,.61-.73,2,2,0,0,1,1.67-.73,2.41,2.41,0,0,1,.94.13,2.3,2.3,0,0,1,.79.55,3.79,3.79,0,0,1,.73,1.73Z"/><path class="cls-3" d="M70.19,102.66V85.35H59.79v17.31a16.4,16.4,0,0,0-12.07,15.5c0,9,7.73,16.25,17.27,16.25s17.27-7.28,17.27-16.25A16.4,16.4,0,0,0,70.19,102.66Z"/><path class="cls-10" d="M64.5,115.9c-5.85-2.52-10.56-1.8-13.93-.36a13.77,13.77,0,0,0-.28,2.74c0,7.76,6.59,14.06,14.73,14.06A14.51,14.51,0,0,0,79.63,120C75.52,120.7,73.5,119.77,64.5,115.9Z"/><rect class="cls-1" x="57.21" y="91.6" width="15.55" height="4.79" rx="1.26" ry="1.26"/><rect class="cls-1" x="45.18" y="93.29" width="15" height="1.55"/><rect class="cls-1" x="57.37" y="137.56" width="15" height="1.55" transform="translate(203.2 73.47) rotate(90)"/><rect class="cls-1" x="51.45" y="129.78" width="27.07" height="2.06"/><rect class="cls-1" x="48.34" y="137.46" width="15.35" height="1.33" transform="translate(194.14 82.11) rotate(90)"/><rect class="cls-1" x="66.89" y="137.46" width="15.35" height="1.33" transform="translate(212.69 63.56) rotate(90)"/><rect class="cls-1" x="11.18" y="110.82" width="65.01" height="3.94" transform="translate(156.48 69.1) rotate(90)"/><circle class="cls-1" cx="43.7" cy="94.84" r="4.17"/><circle class="cls-2" cx="43.7" cy="94.84" r="1.85"/><path class="cls-11" d="M65.09,43.83a78.26,78.26,0,0,1-4.76,6.9A51.5,51.5,0,0,1,55,57.24c-3,2.88-5.88,4.1-7.41,3.22S46,56.59,47,52.54a48.25,48.25,0,0,1,2.69-7.89,75.39,75.39,0,0,1,3.83-7.43,78.09,78.09,0,0,1,4.58-7,49.56,49.56,0,0,1,5.48-6.33c3-2.88,5.62-4,7.15-3.1s1.87,3.65.87,7.71a50.4,50.4,0,0,1-2.83,7.85A77.38,77.38,0,0,1,65.09,43.83Z"/><path class="cls-11" d="M53.79,43.62a81.32,81.32,0,0,0,4.29,7.19A48.52,48.52,0,0,0,63.71,57c3,2.87,5.57,4.16,7.1,3.29s1.6-3.68.6-7.74a45.32,45.32,0,0,0-2.49-8A73.94,73.94,0,0,0,65,37.2a75.46,75.46,0,0,0-4.7-6.94A50.86,50.86,0,0,0,55,23.79c-3-2.88-5.8-4.06-7.33-3.19s-1.79,3.83-.79,7.89a49.73,49.73,0,0,0,3,7.8A76.35,76.35,0,0,0,53.79,43.62Z"/><path class="cls-11" d="M59.27,33.78a77,77,0,0,0-8.42.42,45.44,45.44,0,0,0-8.17,2C38.62,37.37,36,38.74,36,40.5s2.61,3.22,6.67,4.39a49,49,0,0,0,8.22,1.62,81.12,81.12,0,0,0,8.39.22,82.84,82.84,0,0,0,8.4-.09A48.26,48.26,0,0,0,75.91,45c4.06-1.17,6.57-2.74,6.57-4.49s-2.56-3.18-6.62-4.35a46.29,46.29,0,0,0-8.17-2A79.83,79.83,0,0,0,59.27,33.78Z"/><path class="cls-3" d="M63.16,40.59a3.47,3.47,0,0,1-3.69,3.33,3.6,3.6,0,0,1-3.82-3.33A3.82,3.82,0,0,1,59.47,37,3.7,3.7,0,0,1,63.16,40.59Z"/><path class="cls-1" d="M44.12,30.25a2,2,0,0,1-1.91,2,2,2,0,0,1,0-4A2,2,0,0,1,44.12,30.25Z"/><path class="cls-3" d="M73.29,52.93a1.92,1.92,0,0,1-3.83,0,1.92,1.92,0,1,1,3.83,0Z"/><path class="cls-6" d="M73.88,28.66a2,2,0,0,1-1.84,2,1.92,1.92,0,0,1-1.8-2A1.77,1.77,0,0,1,72,26.83,1.81,1.81,0,0,1,73.88,28.66Z"/><path class="cls-10" d="M49.24,51.57A2.56,2.56,0,0,1,46.61,54a2.41,2.41,0,0,1-2.47-2.42A2.52,2.52,0,0,1,46.61,49,2.67,2.67,0,0,1,49.24,51.57Z"/><rect class="cls-3" x="98.57" y="27.42" width="3.29" height="15.44" rx="0.71" ry="0.71"/><circle class="cls-2" cx="100.37" cy="51.13" r="2.54"/><circle class="cls-1" cx="100.37" cy="60.43" r="2.54"/><rect class="cls-10" x="107" y="28.51" width="6.63" height="1.08" rx="0.54" ry="0.54"/><rect class="cls-3" x="118.26" y="28.51" width="6.63" height="1.08" rx="0.54" ry="0.54"/><rect class="cls-3" x="129.52" y="28.51" width="6.63" height="1.08" rx="0.54" ry="0.54"/><rect class="cls-1" x="140.79" y="28.51" width="6.63" height="1.08" rx="0.54" ry="0.54"/><rect class="cls-3" x="107" y="32.52" width="6.63" height="1.08" rx="0.54" ry="0.54"/><rect class="cls-1" x="118.26" y="32.52" width="6.63" height="1.08" rx="0.54" ry="0.54"/><rect class="cls-3" x="129.52" y="32.52" width="6.63" height="1.08" rx="0.54" ry="0.54"/><rect class="cls-10" x="140.79" y="32.52" width="6.63" height="1.08" rx="0.54" ry="0.54"/><rect class="cls-1" x="107" y="36.84" width="6.63" height="1.08" rx="0.54" ry="0.54"/><rect class="cls-2" x="118.26" y="36.84" width="6.63" height="1.08" rx="0.54" ry="0.54"/><rect class="cls-3" x="129.52" y="36.84" width="6.63" height="1.08" rx="0.54" ry="0.54"/><rect class="cls-2" x="140.79" y="36.84" width="6.63" height="1.08" rx="0.54" ry="0.54"/><rect class="cls-3" x="50.54" y="74.24" width="9.71" height="1.27"/><rect class="cls-6" x="63.16" y="74.24" width="9.71" height="1.27"/><rect class="cls-3" x="75.77" y="74.24" width="9.71" height="1.27"/><rect class="cls-6" x="50.54" y="77.37" width="9.71" height="1.27"/><rect class="cls-3" x="63.16" y="77.37" width="9.71" height="1.27"/><rect class="cls-1" x="75.77" y="77.37" width="9.71" height="1.27"/><path class="cls-1" d="M235.92,210.25c-2.07,0-2.07-.19-4.15-.19s-2.08-.53-4.16-.53-2.08.67-4.16.67-2.07-.55-4.15-.55-2.08.23-4.15.23-2.08.1-4.15.1-2.08-.37-4.16-.37-2.07.46-4.15.46-2.07.25-4.15.25-2.08-.29-4.16-.29-2.08-.64-4.16-.64-2.07.87-4.15.87S184,210,181.92,210s-2.08.3-4.16.3-2.07-.74-4.15-.74-2.08.06-4.16.06-2.08.54-4.16.54-2.07-.4-4.15-.4-2.08.29-4.15.29-2.08.09-4.16.09-2.08-.09-4.16-.09-2.08-.48-4.16-.48-2.07,0-4.15,0-2.08.36-4.16.36-2.08-.32-4.16-.32-2.08.67-4.16.67-2.07-.25-4.15-.25-2.08.2-4.16.2-2.08-.45-4.16-.45-2.08.38-4.16.38-2.08.15-4.16.15-2.08-1-4.16-1-2.08.39-4.15.39-2.08.26-4.16.26-2.08-.52-4.16-.52-2.08.84-4.16.84-2.08-1-4.16-1-2.08.45-4.16.45-2.07-.12-4.15-.12-2.08-.18-4.16-.18-2.08.83-4.16.83H61.35c-2.08,0-2.08-.78-4.16-.78s-2.08.79-4.17.79-2.08-.1-4.16-.1-2.08-.67-4.16-.67-2.08.15-4.16.15-2.08-.32-4.16-.32-2.09.39-4.17.39-2.09.2-4.17.2a29.66,29.66,0,0,1-4.1.05c-1.36-.19-2.47-1.42-3.75-1.8a26.15,26.15,0,0,1-3.77-1.29,27.1,27.1,0,0,1-3.55-1.85c-1.12-.76-2.6-1.09-3.6-2a30.82,30.82,0,0,1-2.46-3.28,28.57,28.57,0,0,1-2.06-3.47A27.67,27.67,0,0,1,3,192.75a30.69,30.69,0,0,1-1.79-3.64A33,33,0,0,1,0,185.18c-.17-1.32.66-2.73.66-4.1H.79c0-1.38-.45-2.73-.28-4.05a29.69,29.69,0,0,1,1.25-3.84,28.46,28.46,0,0,1,1.11-3.85c.53-1.25.47-2.82,1.16-4s2-1.94,2.84-3a28.49,28.49,0,0,1,2.75-2.95,26.31,26.31,0,0,1,3.31-2.29,25.18,25.18,0,0,1,3.32-2.3,27.15,27.15,0,0,1,3.88-1.13c1.28-.38,2.45-1.42,3.8-1.62a30.81,30.81,0,0,1,4.11-.31c2.08,0,2.08.28,4.16.28s2.07.48,4.15.48,2.08-.39,4.16-.39,2.08.58,4.15.58,2.08-.67,4.16-.67,2.07.75,4.15.75,2.07-.42,4.15-.42,2.08.27,4.15.27,2.08-.16,4.16-.16,2.07-.59,4.15-.59,2.08,0,4.16,0,2.08-.15,4.15-.15,2.08.35,4.16.35H86.2c2.08,0,2.08.34,4.15.34s2.08-.32,4.16-.32,2.08.5,4.16.5,2.08-.36,4.15-.36,2.08.08,4.16.08,2.08-.42,4.15-.42,2.08.06,4.16.06,2.08.3,4.16.3,2.08.13,4.16.13,2.08-.65,4.15-.65,2.08.81,4.16.81,2.08-.29,4.16-.29,2.08.11,4.16.11,2.08-.54,4.16-.54h4.15c2.08,0,2.08.42,4.16.42s2.08-.19,4.16-.19,2.08.42,4.16.42,2.08-.66,4.16-.66,2.08.78,4.16.78,2.08-.68,4.16-.68,2.08.64,4.16.64,2.07-.25,4.15-.25,2.08.13,4.16.13,2.08.12,4.16.12,2.08-.69,4.16-.69,2.08.3,4.16.3,2.08-.12,4.16-.12,2.08,0,4.16,0,2.08.24,4.16.24,2.08-.22,4.16-.22,2.08.06,4.16.06,2.08-.15,4.16-.15,2.09.14,4.17.14,2.08-.14,4.17-.14,2.08.51,4.16.51a26.09,26.09,0,0,1,8.11.88,29.19,29.19,0,0,1,3.67,1.83,33.3,33.3,0,0,1,7,4.18,29.92,29.92,0,0,1,3.18,2.62,27.73,27.73,0,0,1,2.38,3.38,28.5,28.5,0,0,1,2.32,3.45,29.62,29.62,0,0,1,1.5,3.9,30.93,30.93,0,0,1,.7,4.11c.19,1.34-.3,2.75-.3,4.15H265a29.77,29.77,0,0,1-.3,4.14,28.26,28.26,0,0,1-1.3,3.93,30.41,30.41,0,0,1-1.09,4,29.4,29.4,0,0,1-2.2,3.5,31,31,0,0,1-2.13,3.58c-.9,1-2.52,1.35-3.56,2.25a29.74,29.74,0,0,1-3.15,2.55,28.82,28.82,0,0,1-3.37,2.37,27.14,27.14,0,0,1-3.94,1.17c-1.31.39-2.55,1.23-3.92,1.42A30.07,30.07,0,0,1,235.92,210.25Z"/><path class="cls-3" d="M230.92,202.28c-2.07,0-2.07.28-4.14.28s-2.07-.47-4.14-.47-2.06.82-4.13.82-2.07-.24-4.14-.24-2.07-.51-4.13-.51-2.07.63-4.14.63-2.06-.67-4.13-.67-2.07,0-4.14,0-2.07-.06-4.14-.06-2.07-.07-4.14-.07-2.07.61-4.13.61-2.07,0-4.14,0-2.07-.62-4.14-.62-2.07.06-4.13.06-2.07.44-4.14.44-2.07-.51-4.14-.51-2.07.85-4.14.85-2.07-.23-4.14-.23h-4.14c-2.07,0-2.07-.66-4.14-.66s-2.07.86-4.14.86S142,202,139.89,202s-2.07.93-4.14.93-2.07-.69-4.14-.69-2.07.47-4.14.47-2.07-.75-4.14-.75-2.07.88-4.14.88-2.07-.71-4.14-.71-2.07.5-4.14.5-2.07-.17-4.14-.17-2.08-.33-4.15-.33-2.07.23-4.14.23-2.07.52-4.14.52S92.27,202,90.2,202s-2.07.43-4.14.43-2.07.39-4.14.39-2.07-.58-4.14-.58-2.07-.1-4.14-.1-2.07,0-4.15,0-2.07.52-4.14.52-2.07-.38-4.14-.38-2.07,0-4.14,0-2.08.44-4.15.44-2.07.06-4.14.06-2.08-.13-4.15-.13-2.07,0-4.14,0-2.08-.11-4.15-.11-2.07-.24-4.15-.24H28c-1.32,0-2.72.4-4,.16s-2.39-1.35-3.66-1.79a28.1,28.1,0,0,1-3.75-1.28,31.42,31.42,0,0,1-3.47-2,30.88,30.88,0,0,1-3-2.66A30,30,0,0,1,7.22,192a29.89,29.89,0,0,1-2.36-3.22,30.66,30.66,0,0,1-2-3.48,30.22,30.22,0,0,1-1.08-3.84c-.38-1.27-1.36-2.42-1.56-3.75s.48-2.69.48-4H.33a30.91,30.91,0,0,1,.57-4,30.93,30.93,0,0,1,.45-4,27.8,27.8,0,0,1,1.29-3.83,29.32,29.32,0,0,1,1.73-3.67A28.57,28.57,0,0,1,6.82,155a27.05,27.05,0,0,1,2.57-3.16,26.41,26.41,0,0,1,3.45-2.17,26.07,26.07,0,0,1,3.5-2,26.5,26.5,0,0,1,3.71-1.58,28.4,28.4,0,0,1,4-.85,29.65,29.65,0,0,1,4-.2c2.08,0,2.08-.18,4.16-.18s2.07.49,4.15.49,2.08-.26,4.16-.26,2.08-.54,4.15-.54l4.16,0c2.07,0,2.07.93,4.15.93s2.07-1,4.15-1,2.08.68,4.15.68,2.08-.37,4.16-.37,2.07.12,4.15.12,2.08.5,4.16.5h4.15c2.08,0,2.08-.4,4.16-.4s2.07.29,4.15.29,2.08-.21,4.15-.21,2.08.23,4.16.23,2.08.16,4.16.16,2.08-.57,4.15-.57,2.08.31,4.16.31,2.08-.69,4.15-.69,2.08.39,4.16.39,2.08.44,4.16.44,2.08-.09,4.16-.09,2.08-.08,4.15-.08,2.08-.34,4.16-.34,2.08.55,4.16.55,2.08-.41,4.16-.41,2.08-.16,4.16-.16,2.07,0,4.15,0,2.08.65,4.16.65,2.08-.81,4.16-.81,2.08.36,4.16.36,2.08.16,4.16.16,2.08-.49,4.16-.49,2.08.13,4.16.13,2.08,0,4.16,0,2.07.72,4.15.72,2.08-.27,4.16-.27,2.08-.59,4.16-.59,2.08,0,4.16,0,2.08.72,4.16.72,2.08-.18,4.16-.18,2.08-.53,4.16-.53,2.08-.09,4.16-.09,2.08.26,4.16.26,2.08.54,4.16.54,2.08,0,4.16,0,2.09,0,4.17,0,2.08-.35,4.17-.35,2.08.52,4.16.52a30,30,0,0,1,4.1-.18,28.82,28.82,0,0,1,4.07.69,28.26,28.26,0,0,1,3.83,1.52,28.67,28.67,0,0,1,3.43,2.27c1.15.74,2.58,1.14,3.61,2a29.15,29.15,0,0,1,3,2.89,30,30,0,0,1,2.25,3.48,28.67,28.67,0,0,1,1.69,3.74,26.93,26.93,0,0,1,1.45,3.81c.39,1.3,1.35,2.52,1.54,3.89a30.19,30.19,0,0,1,.13,4.16h-.51a30,30,0,0,1,0,4.14,28.65,28.65,0,0,1-1,4,27.92,27.92,0,0,1-1.17,4,26.55,26.55,0,0,1-2.32,3.47c-.78,1.12-2.07,1.82-3,2.82A26.2,26.2,0,0,1,254,195c-1.07.84-1.86,2.14-3.07,2.84a33.28,33.28,0,0,1-3.71,1.93,37.12,37.12,0,0,1-4,1.23c-1.29.38-2.75.18-4.14.43s-2.61,1.09-4,1.21S232.34,202.28,230.92,202.28Z"/><path class="cls-1" d="M30.12,178.56v2.77H19.7a7.15,7.15,0,0,1,1-3,19.54,19.54,0,0,1,3.35-3.72,21,21,0,0,0,2.46-2.54,3.29,3.29,0,0,0,.62-1.82,2,2,0,0,0-.54-1.53,2,2,0,0,0-1.47-.54,2,2,0,0,0-1.49.56,3,3,0,0,0-.63,1.87l-3-.3a4.86,4.86,0,0,1,1.66-3.53,5.58,5.58,0,0,1,3.49-1.06A5.06,5.06,0,0,1,28.81,167a4.06,4.06,0,0,1,1.31,3.08,5.38,5.38,0,0,1-.37,2,8.18,8.18,0,0,1-1.19,2,18.77,18.77,0,0,1-1.95,2c-.94.87-1.53,1.44-1.78,1.72a4.56,4.56,0,0,0-.61.82Z"/><path class="cls-1" d="M38,181.33V178.2H31.62v-2.6l6.73-9.85h2.5v9.84h1.92v2.61H40.85v3.13Zm0-5.74v-5.3l-3.57,5.3Z"/><path class="cls-1" d="M53.07,181.33l-3.7-15.52h3.21l2.34,10.66,2.83-10.66h3.73l2.72,10.84,2.38-10.84h3.16L66,181.33H62.64l-3.09-11.6-3.08,11.6Z"/><path class="cls-1" d="M77.43,177.75l3,.5a5,5,0,0,1-1.81,2.48,5.29,5.29,0,0,1-3.09.85,5.05,5.05,0,0,1-4.34-1.91,6.47,6.47,0,0,1-1.11-3.88,6.25,6.25,0,0,1,1.46-4.38,4.85,4.85,0,0,1,3.7-1.58,5,5,0,0,1,4,1.66,7.3,7.3,0,0,1,1.38,5.07H73.1a3,3,0,0,0,.72,2.06,2.26,2.26,0,0,0,1.72.74,1.85,1.85,0,0,0,1.17-.38A2.37,2.37,0,0,0,77.43,177.75Zm.17-3a2.82,2.82,0,0,0-.67-2,2,2,0,0,0-1.54-.67,2,2,0,0,0-1.61.71,2.78,2.78,0,0,0-.63,1.92Z"/><path class="cls-1" d="M89.49,177.75l3,.5a4.89,4.89,0,0,1-1.8,2.48,5.29,5.29,0,0,1-3.09.85,5.05,5.05,0,0,1-4.34-1.91,6.47,6.47,0,0,1-1.11-3.88,6.25,6.25,0,0,1,1.46-4.38,4.85,4.85,0,0,1,3.7-1.58,5,5,0,0,1,4,1.66q1.45,1.65,1.39,5.07H85.16a3,3,0,0,0,.72,2.06,2.26,2.26,0,0,0,1.71.74,1.85,1.85,0,0,0,1.18-.38A2.37,2.37,0,0,0,89.49,177.75Zm.17-3a2.87,2.87,0,0,0-.67-2,2.14,2.14,0,0,0-3.15,0,2.68,2.68,0,0,0-.63,1.92Z"/><path class="cls-1" d="M94.93,181.33V165.81h3V174l3.49-3.95h3.66l-3.84,4.1,4.12,7.14h-3.21l-2.83-5.05-1.39,1.45v3.6Z"/><path class="cls-1" d="M106.05,178.12l3-.45a2.19,2.19,0,0,0,.77,1.31,2.61,2.61,0,0,0,1.63.45,3,3,0,0,0,1.74-.42.94.94,0,0,0,.39-.79.8.8,0,0,0-.21-.57,2.4,2.4,0,0,0-1-.39,15.93,15.93,0,0,1-4.56-1.45,2.88,2.88,0,0,1-1.33-2.53,3.1,3.1,0,0,1,1.15-2.45,5.35,5.35,0,0,1,3.58-1,6.25,6.25,0,0,1,3.43.75,3.89,3.89,0,0,1,1.55,2.23l-2.81.51a1.76,1.76,0,0,0-.68-1,2.55,2.55,0,0,0-1.44-.35,3.21,3.21,0,0,0-1.68.33.68.68,0,0,0-.34.6.66.66,0,0,0,.3.54,10.94,10.94,0,0,0,2.78.84,8.24,8.24,0,0,1,3.31,1.32,2.73,2.73,0,0,1,.94,2.21,3.38,3.38,0,0,1-1.3,2.66,5.71,5.71,0,0,1-3.82,1.11,6.25,6.25,0,0,1-3.63-.93A4.22,4.22,0,0,1,106.05,178.12Z"/><path class="cls-1" d="M125.2,181.33V165.81h5A18.75,18.75,0,0,1,134,166a4,4,0,0,1,2.23,1.52,4.82,4.82,0,0,1,.9,3,5,5,0,0,1-.52,2.41,4.2,4.2,0,0,1-1.31,1.53,4.61,4.61,0,0,1-1.63.73,17.77,17.77,0,0,1-3.25.22h-2v5.86Zm3.13-12.9v4.41H130a7.82,7.82,0,0,0,2.48-.25,2,2,0,0,0,1-.76,2,2,0,0,0,.35-1.2,2,2,0,0,0-.49-1.4,2.13,2.13,0,0,0-1.26-.69,15.08,15.08,0,0,0-2.26-.11Z"/><path class="cls-1" d="M142.48,181.33h-3V170.09h2.76v1.59a4.78,4.78,0,0,1,1.28-1.49,2.31,2.31,0,0,1,1.28-.36,3.82,3.82,0,0,1,2,.56l-.92,2.6a2.58,2.58,0,0,0-1.4-.49,1.66,1.66,0,0,0-1.06.34,2.4,2.4,0,0,0-.68,1.25,17.33,17.33,0,0,0-.25,3.77Z"/><path class="cls-1" d="M147.38,175.55a6.15,6.15,0,0,1,.73-2.87,5,5,0,0,1,2.07-2.12,6.13,6.13,0,0,1,3-.73,5.58,5.58,0,0,1,4.18,1.66,6.2,6.2,0,0,1,0,8.41,5.57,5.57,0,0,1-4.15,1.68,6.43,6.43,0,0,1-2.94-.7,4.77,4.77,0,0,1-2.14-2A6.85,6.85,0,0,1,147.38,175.55Zm3.05.16a3.72,3.72,0,0,0,.8,2.56,2.59,2.59,0,0,0,3.91,0,3.81,3.81,0,0,0,.79-2.58,3.76,3.76,0,0,0-.79-2.55,2.61,2.61,0,0,0-3.91,0A3.75,3.75,0,0,0,150.43,175.71Z"/><path class="cls-1" d="M166.47,170.09v2.37h-2V177a10.93,10.93,0,0,0,.06,1.6.62.62,0,0,0,.26.38.84.84,0,0,0,.5.15,3.87,3.87,0,0,0,1.2-.29l.25,2.31a6,6,0,0,1-2.35.44,3.75,3.75,0,0,1-1.45-.27,2.06,2.06,0,0,1-.94-.7,2.52,2.52,0,0,1-.42-1.16,13.17,13.17,0,0,1-.1-2.09v-4.9h-1.36v-2.37h1.36v-2.24l3-1.73v4Z"/><path class="cls-1" d="M167.85,175.55a6,6,0,0,1,.73-2.87,4.93,4.93,0,0,1,2.07-2.12,6.1,6.1,0,0,1,3-.73,5.6,5.6,0,0,1,4.18,1.66,6.21,6.21,0,0,1,0,8.41,5.56,5.56,0,0,1-4.14,1.68,6.47,6.47,0,0,1-2.95-.7,4.7,4.7,0,0,1-2.13-2A6.74,6.74,0,0,1,167.85,175.55Zm3,.16a3.72,3.72,0,0,0,.8,2.56,2.59,2.59,0,0,0,3.91,0,3.76,3.76,0,0,0,.79-2.58,3.71,3.71,0,0,0-.79-2.55,2.61,2.61,0,0,0-3.91,0A3.75,3.75,0,0,0,170.89,175.71Z"/><path class="cls-1" d="M186.93,170.09v2.37h-2V177a10.93,10.93,0,0,0,.06,1.6.66.66,0,0,0,.26.38.85.85,0,0,0,.51.15,3.89,3.89,0,0,0,1.19-.29l.26,2.31a6.08,6.08,0,0,1-2.35.44,3.71,3.71,0,0,1-1.45-.27,2,2,0,0,1-.95-.7,2.76,2.76,0,0,1-.42-1.16,14.57,14.57,0,0,1-.1-2.09v-4.9h-1.36v-2.37h1.36v-2.24l3-1.73v4Z"/><path class="cls-1" d="M187.59,170.09h3.16l2.69,8,2.63-8h3.08l-4,10.81-.71,2a7.79,7.79,0,0,1-.75,1.51,3.42,3.42,0,0,1-.81.84,3.79,3.79,0,0,1-1.13.5,5.92,5.92,0,0,1-1.52.18,7.88,7.88,0,0,1-1.69-.18l-.26-2.33a6.64,6.64,0,0,0,1.26.14,1.84,1.84,0,0,0,1.53-.61,4.33,4.33,0,0,0,.77-1.55Z"/><path class="cls-1" d="M201,170.09h2.77v1.65a4.14,4.14,0,0,1,3.51-1.91,4.27,4.27,0,0,1,3.32,1.54,6.21,6.21,0,0,1,1.37,4.27,6.39,6.39,0,0,1-1.38,4.38,4.3,4.3,0,0,1-3.34,1.56,3.7,3.7,0,0,1-1.68-.37,5.72,5.72,0,0,1-1.6-1.27v5.66h-3Zm2.94,5.43a4.36,4.36,0,0,0,.75,2.8,2.3,2.3,0,0,0,1.83.9,2.16,2.16,0,0,0,1.73-.83,4.27,4.27,0,0,0,.69-2.73,4.08,4.08,0,0,0-.71-2.62,2.2,2.2,0,0,0-1.76-.86,2.28,2.28,0,0,0-1.81.84A3.77,3.77,0,0,0,203.91,175.52Z"/><path class="cls-1" d="M214.3,168.56v-2.75h3v2.75Zm0,12.77V170.09h3v11.24Z"/><path class="cls-1" d="M230.55,181.33h-3v-5.74a8.83,8.83,0,0,0-.19-2.36,1.68,1.68,0,0,0-.62-.83,1.81,1.81,0,0,0-1-.29,2.4,2.4,0,0,0-1.39.42,2.13,2.13,0,0,0-.84,1.12,9.81,9.81,0,0,0-.23,2.59v5.09h-3V170.09h2.76v1.65a4.51,4.51,0,0,1,3.71-1.91,4.45,4.45,0,0,1,1.8.36,2.94,2.94,0,0,1,1.23.9,3.26,3.26,0,0,1,.58,1.25,9.19,9.19,0,0,1,.17,2Z"/><path class="cls-1" d="M233.29,182.07l3.4.41a1.12,1.12,0,0,0,.39.82,2.23,2.23,0,0,0,1.33.31,3.4,3.4,0,0,0,1.75-.35,1.38,1.38,0,0,0,.59-.75,4.49,4.49,0,0,0,.14-1.36v-1.64a4,4,0,0,1-3.37,1.82,4.15,4.15,0,0,1-3.59-1.92,6.51,6.51,0,0,1-1-3.77,6.2,6.2,0,0,1,1.36-4.32,4.39,4.39,0,0,1,3.38-1.49,4.11,4.11,0,0,1,3.44,1.83v-1.57h2.78v10.08a10,10,0,0,1-.33,3,3.54,3.54,0,0,1-.92,1.54,3.93,3.93,0,0,1-1.58.88,8.35,8.35,0,0,1-2.5.32,6.51,6.51,0,0,1-4.06-1,3.08,3.08,0,0,1-1.19-2.48C233.28,182.33,233.28,182.21,233.29,182.07Zm2.65-6.6a4,4,0,0,0,.7,2.62,2.12,2.12,0,0,0,1.71.83,2.36,2.36,0,0,0,1.84-.85,3.72,3.72,0,0,0,.75-2.52,4,4,0,0,0-.72-2.6,2.3,2.3,0,0,0-1.82-.84,2.17,2.17,0,0,0-1.76.83A3.9,3.9,0,0,0,235.94,175.47Z"/></g></g></svg>