<svg xmlns="http://www.w3.org/2000/svg" viewBox="0 0 298.62 311.01"><defs><style>.cls-1{fill:#f5a117}.cls-8{fill:#001d2f}.cls-11,.cls-13,.cls-4{stroke:#001d2f}.cls-11,.cls-13,.cls-14,.cls-15,.cls-4{stroke-linecap:round;stroke-linejoin:round}.cls-15,.cls-4{stroke-width:1.04px}.cls-3{fill:#fff}.cls-11,.cls-13,.cls-14,.cls-15,.cls-4{fill:none}.cls-6{fill:#e9506c}.cls-14,.cls-15{stroke:#fff}.cls-10{fill:#633a7c}.cls-11,.cls-14{stroke-width:2.08px}.cls-13{stroke-width:1.56px}</style></defs><g id="Layer_2" data-name="Layer 2"><g id="圖層_1" data-name="圖層 1"><path class="cls-1" d="M124.57 43.8c-1 1-1.26.41-2.7.41s-1.45-.33-2.89-.33-1.44.25-2.89.25h-2.88c-1.44 0-1.45-.1-2.89-.1s-1.44-.23-2.89-.23-1.44.13-2.88.13-1.44.18-2.88.18-1.45-.27-2.89-.27-1.44.24-2.89.24-1.44-.11-2.89-.11-1.44.29-2.88.29-1.45-.15-2.89-.15-1.45-.27-2.89-.27-1.44.16-2.89.16-1.44-.08-2.89-.08-1.44.17-2.89.17-1.44.13-2.89.13-1.44-.32-2.89-.32-1.44.21-2.89.21-1.44.16-2.89.16-1.45-.27-2.9-.27-1.73.91-2.76-.1 0-1.28 0-2.69.13-1.41.13-2.83-.18-1.41-.18-2.82-.16-1.42-.16-2.83-.08-1.41-.08-2.83-.07-1.41-.07-2.82.07-1.41.07-2.83.15-1.41.15-2.83.12-1.41.12-2.83-.17-1.41-.17-2.82.23-1.41.23-2.83v-2.83-2.83c0-1.42-.36-1.41-.36-2.83s-.88-1.95.13-2.94 1.54.26 3 .26 1.44-.16 2.88-.16 1.45-.21 2.89-.21 1.44.22 2.89.22h2.88c1.45 0 1.45.22 2.89.22s1.44-.45 2.88-.45h2.89c1.45 0 1.44.22 2.89.22s1.44.07 2.88.07h2.89c1.45 0 1.44-.16 2.89-.16h2.89c1.45 0 1.44-.09 2.88-.09s1.45.18 2.89.18 1.45-.09 2.89-.09 1.45.25 2.89.25h2.89c1.45 0 1.45.13 2.89.13s1.45-.38 2.89-.38H119c1.45 0 1.45.28 2.9.28s1.87-1.16 2.91-.15-.26 1.43-.26 2.84.45 1.31.45 2.72-.46 1.42-.46 2.83v5.65c0 1.41.35 1.42.35 2.83s.09 1.41.09 2.83-.49 1.41-.49 2.82.51 1.42.51 2.83-.07 1.42-.07 2.83-.33 1.41-.33 2.83v2.83c0 1.42.41 1.41.41 2.82s-.39 1.42-.14 2.82.71 1.68-.3 2.67z"/><path stroke-width="1.04" stroke-linecap="round" stroke-linejoin="round" stroke="#001d2f" fill="#001d2f" d="M82.05 13.37h18.75v18.75H82.05z"/><path class="cls-3" d="M84.9 16.3h5.82v5.8H84.9zM84.9 23.39h5.82v5.8H84.9zM92.12 16.3h5.82v5.8h-5.82zM92.12 23.39h5.82v5.8h-5.82z"/><path class="cls-4" d="M101.16 15.89h4.22M101.16 20.25h4.22M101.16 24.61h4.22M101.16 28.96h4.22M77.65 15.89h4.23M77.65 20.25h4.23M77.65 24.61h4.23M77.65 28.96h4.23M97.92 8.69v4.23M93.56 8.69v4.23M89.21 8.69v4.23M84.85 8.69v4.23M97.92 32.59v4.23M93.56 32.59v4.23M89.21 32.59v4.23M84.85 32.59v4.23"/><path class="cls-3" d="M235 110.77c-1 1-1.37.12-2.81.12s-1.44-.13-2.88-.13-1.45.06-2.89.06h-2.88c-1.44 0-1.44.18-2.89.18s-1.44.1-2.88.1-1.44-.11-2.88-.11-1.44-.26-2.88-.26-1.44.12-2.89.12-1.44-.16-2.88-.16-1.44.19-2.88.19-1.45.19-2.89.19-1.44-.28-2.88-.28-1.44.13-2.89.13-1.44.17-2.88.17-1.44-.49-2.89-.49-1.44.51-2.88.51-1.44-.26-2.89-.26-1.44.21-2.88.21-1.44-.37-2.88-.37-1.45.42-2.89.42-1.44-.44-2.89-.44-1.44.31-2.88.31-1.44-.19-2.89-.19-1.44.17-2.88.17-1.44-.14-2.89-.14-1.44-.14-2.88-.14-1.44.43-2.88.43-1.44-.24-2.89-.24-1.44.06-2.88.06-1.44-.26-2.89-.26-1.44.13-2.88.13h-8.66c-1.45 0-1.45-.1-2.89-.1s-1.45.22-2.89.22-1.44-.08-2.89-.08-1.44.14-2.88.14h-2.89c-1.45 0-1.45.07-2.89.07h-2.9c-1.44 0-1.75.71-2.77-.32s-.37-1.32-.37-2.77.17-1.45.17-2.9.24-1.45.24-2.9-.34-1.45-.34-2.91.07-1.45.07-2.9v-2.9c0-1.45.07-1.45.07-2.9s-.09-1.45-.09-2.9v-2.9-2.9c0-1.45.28-1.45.28-2.9s-.23-1.45-.23-2.9.28-1.45.28-2.91-.38-1.45-.38-2.9.11-1.45.11-2.9.11-1.45.11-2.9-.07-1.45-.07-2.89.2-1.45.2-2.9v-2.91c0-1.45-.37-1.45-.37-2.9s.24-1.45.24-2.9-.18-1.45-.18-2.9.37-1.45.37-2.9-.48-1.46-.48-2.91.28-1.45.28-2.9-.09-1.45-.09-2.91v-2.9c0-1.45-.15-1.45-.15-2.9s.15-1.45.15-2.91.07-1.45.07-2.9-.18-1.45-.18-2.91-.12-1.45-.12-2.91-.86-1.92.16-2.95 1.49.13 2.93.13h2.88c1.44 0 1.44.06 2.89.06s1.44-.14 2.88-.14 1.44.07 2.88.07 1.44-.11 2.88-.11 1.45-.12 2.89-.12 1.44.11 2.88.11 1.44.11 2.88.11 1.45-.16 2.89-.16 1.44.07 2.88.07 1.44.23 2.89.23 1.44-.2 2.88-.2 1.44.19 2.89.19 1.44-.29 2.88-.29h2.88c1.45 0 1.45.38 2.89.38s1.44-.41 2.88-.41 1.45-.07 2.89-.07h2.88c1.45 0 1.45.3 2.89.3s1.44.09 2.88.09 1.45-.43 2.89-.43 1.44.16 2.88.16 1.45.24 2.89.24S184.51 15 186 15s1.44.07 2.88.07 1.45-.19 2.89-.19 1.44.05 2.88.05 1.45.21 2.89.21h2.88c1.44 0 1.45-.23 2.89-.23s1.44.39 2.89.39 1.44-.16 2.88-.16 1.45.21 2.89.21h2.89c1.45 0 1.44-.12 2.89-.12s1.44-.13 2.88-.13 1.45.27 2.89.27 1.45-.35 2.89-.35 1.45.25 2.89.25 1.45-.26 2.9-.26S234 14 235.06 15s-.12 1.47-.12 2.92.1 1.45.1 2.9-.09 1.45-.09 2.9-.06 1.45-.06 2.9v2.9c0 1.45.34 1.45.34 2.9s-.09 1.45-.09 2.9.11 1.45.11 2.9-.28 1.45-.28 2.91.24 1.45.24 2.9v2.9c0 1.45-.23 1.45-.23 2.9s.29 1.45.29 2.9-.27 1.45-.27 2.9v8.7c0 1.45.34 1.45.34 2.9v2.9c0 1.45-.23 1.45-.23 2.9s-.19 1.45-.19 2.91v5.8c0 1.45.06 1.45.06 2.9s.05 1.45.05 2.91-.15 1.45-.15 2.9.07 1.45.07 2.91.32 1.45.32 2.9v2.9c0 1.45-.23 1.46-.23 2.91s.09 1.45.09 2.9a9.62 9.62 0 0 0 .11 2.89c.2 1.53.76 1.87-.24 2.91z"/><path d="M228.06 105.44c-1 1-1.42-.09-2.87-.09s-1.44.08-2.89.08-1.45.12-2.9.12-1.45-.25-2.9-.25-1.45-.07-2.9-.07-1.44.27-2.89.27-1.45.09-2.9.09-1.45-.21-2.89-.21-1.45.28-2.9.28-1.45-.37-2.9-.37-1.45.25-2.9.25-1.45.17-2.9.17-1.45-.18-2.9-.18h-2.89c-1.45 0-1.45.09-2.9.09s-1.45.07-2.9.07-1.45-.24-2.9-.24-1.45-.13-2.9-.13-1.45.19-2.9.19h-2.9c-1.45 0-1.44-.2-2.89-.2s-1.45.49-2.9.49-1.45-.06-2.89-.06-1.45-.17-2.9-.17-1.45.08-2.9.08-1.45.13-2.9.13-1.45-.18-2.9-.18-1.45-.15-2.9-.15-1.45-.07-2.9-.07-1.45.4-2.9.4h-2.9c-1.45 0-1.45-.23-2.9-.23s-1.45-.19-2.9-.19-1.45-.07-2.9-.07-1.46.31-2.91.31-1.45-.29-2.9-.29h-2.91c-1.46 0-1.7 1-2.74 0s-.14-1.25-.14-2.67v-2.83c0-1.42-.26-1.41-.26-2.83v-2.83c0-1.41.09-1.42.09-2.84s.16-1.41.16-2.83.08-1.42.08-2.83-.2-1.42-.2-2.84.33-1.41.33-2.83-.33-1.42-.33-2.83.2-1.42.2-2.84-.25-1.41-.25-2.83.12-1.42.12-2.83-.11-1.42-.11-2.83.29-1.42.29-2.83-.06-1.42-.06-2.84v-2.83c0-1.42-.1-1.42-.1-2.84s.19-1.41.19-2.83-.29-1.42-.29-2.83.32-1.42.32-2.84-.27-1.42-.27-2.83v-2.84c0-1.42-.13-1.42-.13-2.84s.08-1.42.08-2.83-.08-1.42-.08-2.84v-2.84c0-1.42.47-1.42.47-2.83s-.33-1.43-.33-2.85-1-1.91 0-2.91 1.51-.07 3-.07 1.45.37 2.89.37 1.45-.4 2.9-.4 1.45.23 2.9.23 1.45.2 2.9.2 1.45-.19 2.89-.19 1.45-.16 2.9-.16 1.45.16 2.9.16 1.45-.19 2.9-.19 1.45.2 2.89.2 1.45.16 2.9.16 1.45-.28 2.9-.28 1.45-.15 2.9-.15 1.45.32 2.9.32 1.44-.16 2.89-.16 1.45.29 2.9.29 1.45-.47 2.9-.47 1.45.24 2.9.24 1.45.08 2.9.08h2.9c1.45 0 1.45.09 2.89.09s1.45-.34 2.9-.34 1.45.17 2.9.17 1.45.24 2.9.24 1.44-.28 2.89-.28 1.45.06 2.9.06h2.9c1.45 0 1.45-.21 2.9-.21s1.45.15 2.9.15 1.45.24 2.9.24 1.45-.42 2.9-.42 1.45.09 2.91.09 1.45.12 2.89.12h2.91c1.45 0 1.45-.14 2.9-.14s1.45.38 2.9.38 1.46-.35 2.91-.35 1.95-1 3 .05-.34 1.51-.34 2.92.31 1.42.31 2.84-.14 1.41-.14 2.83.12 1.42.12 2.83-.18 1.36-.18 2.78v2.83c0 1.42.28 1.42.28 2.83s-.07 1.42-.07 2.84-.3 1.41-.3 2.83.22 1.42.22 2.83.1 1.42.1 2.84.08 1.41.08 2.83-.36 1.42-.36 2.83.23 1.42.23 2.83v2.83c0 1.41-.13 1.42-.13 2.84v2.83c0 1.42.1 1.42.1 2.83s.29 1.42.29 2.84v2.83c0 1.41-.4 1.42-.4 2.84s.34 1.42.34 2.83v2.84c0 1.42-.39 1.42-.39 2.84s.22 1.41.22 2.83v2.84c0 1.42-.14 1.42-.14 2.84s.3 1.41.3 2.83-.34 1.43 0 2.82.7 1.84-.31 2.84z" fill="#c9caca"/><path class="cls-6" d="M262.28 26.68c-1 1-1.53 0-3 0s-1.44.18-2.89.18-1.44-.05-2.89-.05-1.44-.24-2.89-.24h-2.89c-1.44 0-1.44-.05-2.89-.05s-1.44.08-2.89.08-1.44.08-2.89.08-1.44-.08-2.89-.08-1.44.21-2.89.21-1.44-.34-2.89-.34h-2.89c-1.45 0-1.44.36-2.89.36h-2.89c-1.45 0-1.45-.29-2.89-.29s-1.45.2-2.89.2-1.45-.15-2.89-.15-1.45.13-2.89.13-1.45-.27-2.89-.27-1.44.06-2.89.06h-5.76c-1.44 0-1.45.27-2.89.27s-1.45.07-2.89.07-1.45-.32-2.9-.32-1.44.15-2.89.15h-5.79c-1.44 0-1.44.08-2.89.08s-1.45-.13-2.89-.13-1.45.06-2.9.06-1.44-.15-2.89-.15-1.45.16-2.9.16-1.45-.22-2.9-.22-1.68.94-2.72-.06-.22-1.2-.22-2.58.24-1.39.24-2.77-.44-1.38-.44-2.77.3-1.38.3-2.76-.32-1.39-.32-2.77.28-1.4.28-2.77-.09-1.39-.09-2.77.07-1.39.07-2.77-.89-1.69.11-2.65 1.33-.11 2.77-.11 1.45-.19 2.89-.19 1.45.05 2.89.05 1.45.21 2.89.21 1.45.15 2.89.15 1.45-.47 2.89-.47 1.45.06 2.89.06h2.89c1.45 0 1.45.19 2.89.19h2.89c1.45 0 1.45-.08 2.89-.08h5.79c1.45 0 1.44.21 2.89.21h5.78c1.44 0 1.44-.3 2.89-.3s1.44.36 2.89.36 1.44-.44 2.89-.44 1.44.21 2.88.21 1.45.09 2.9.09h2.89c1.45 0 1.44.16 2.89.16s1.44-.41 2.89-.41 1.45.45 2.89.45h2.89c1.45 0 1.45-.24 2.9-.24s1.45-.14 2.89-.14 1.45.06 2.9.06 1.44-.1 2.89-.1 1.45.19 2.89.19h5.79c1.45 0 1.45.31 2.9.31s1.79-1.17 2.84-.17.32 1.33.32 2.71v2.64c0 1.38-.08 1.38-.08 2.77v2.76c0 1.38.05 1.39.05 2.77s-.45 1.38-.45 2.77.29 1.38.29 2.77-.29 1.4 0 2.75 1.03 1.92.03 2.88z"/><rect class="cls-6" x="33.2" y="50.83" width="71.66" height="50.22" rx="6.07" ry="6.07"/><path class="cls-3" d="M81.06 74.86L61.57 63.61a1.27 1.27 0 0 0-1.25 0 1.24 1.24 0 0 0-.62 1.07v22.51a1.25 1.25 0 0 0 .62 1.08 1.3 1.3 0 0 0 1.25 0L81.06 77a1.24 1.24 0 0 0 0-2.15zM188.32 15.11c-.18-.2-4.48-4.94-9.89-4.94s-9.71 4.74-9.89 4.94a.22.22 0 0 0 0 .3c.18.2 4.48 4.94 9.89 4.94s9.71-4.74 9.89-4.94a.22.22 0 0 0 0-.3z"/><circle cx="178.43" cy="15.26" r="3.95" stroke-miterlimit="10" fill="#2667b2" stroke="#2667b2" stroke-width=".48"/><path class="cls-8" d="M196.43 12.65h1.44l1.18 2 1.19-2h1.44l-2 3 2.1 3.15h-1.43l-1.28-2.06-1.27 2.06h-1.44l2-3.15zM207.87 11.47l-1.19.9v-1.32l1.19-.89h1.2v8.66h-1.2zM212.54 17.58h1.2v1.24l-1.2.9zM215.39 12.57a2.35 2.35 0 0 1 .75-1.84 2.28 2.28 0 0 1 1.63-.64 2.36 2.36 0 0 1 1.67.64 2.48 2.48 0 0 1 .72 1.84v3.82a2.48 2.48 0 0 1-.72 1.84 2.42 2.42 0 0 1-1.67.66 2.41 2.41 0 0 1-2.38-2.49zm3.57.08c0-.87-.42-1.31-1.19-1.33s-1.16.46-1.18 1.33v3.68c0 .87.41 1.32 1.18 1.32s1.16-.45 1.19-1.32zM221.54 12.57a2.36 2.36 0 0 1 2.37-2.48 2.34 2.34 0 0 1 1.67.64 2.48 2.48 0 0 1 .72 1.84v3.82a2.48 2.48 0 0 1-.72 1.84 2.4 2.4 0 0 1-1.67.66 2.36 2.36 0 0 1-1.63-.66 2.31 2.31 0 0 1-.74-1.83zm3.56.08c0-.87-.42-1.31-1.19-1.33s-1.16.46-1.17 1.33v3.68c0 .87.4 1.32 1.17 1.32s1.17-.45 1.19-1.32zM227.68 12.57a2.35 2.35 0 0 1 .74-1.84 2.3 2.3 0 0 1 1.64-.64 2.33 2.33 0 0 1 1.66.64 2.44 2.44 0 0 1 .72 1.84v3.82a2.44 2.44 0 0 1-.72 1.84 2.4 2.4 0 0 1-1.66.66 2.37 2.37 0 0 1-1.64-.66 2.34 2.34 0 0 1-.74-1.83zm3.56.08c0-.87-.42-1.31-1.18-1.33s-1.17.46-1.18 1.33v3.68c0 .87.41 1.32 1.18 1.32s1.16-.45 1.18-1.32zM234.19 17.58h1.2v1.24l-1.2.9zM237 12.57a2.38 2.38 0 0 1 .74-1.84 2.45 2.45 0 0 1 3.3 0 2.41 2.41 0 0 1 .72 1.84v3.82a2.41 2.41 0 0 1-.72 1.84 2.39 2.39 0 0 1-4-1.83zm3.56.08c0-.87-.41-1.31-1.18-1.33s-1.17.46-1.18 1.33v3.68c0 .87.41 1.32 1.18 1.32s1.16-.45 1.18-1.32zM243.18 12.57a2.35 2.35 0 0 1 .75-1.84 2.28 2.28 0 0 1 1.63-.64 2.36 2.36 0 0 1 1.67.64 2.48 2.48 0 0 1 .72 1.84v3.82a2.48 2.48 0 0 1-.72 1.84 2.42 2.42 0 0 1-1.67.66 2.41 2.41 0 0 1-2.38-2.49zm3.57.08c0-.87-.42-1.31-1.19-1.33s-1.16.46-1.18 1.33v3.68c0 .87.41 1.32 1.18 1.32s1.16-.45 1.19-1.32zM249.32 12.57a2.35 2.35 0 0 1 .75-1.84 2.28 2.28 0 0 1 1.63-.64 2.34 2.34 0 0 1 1.67.64 2.48 2.48 0 0 1 .72 1.84v3.82a2.48 2.48 0 0 1-.72 1.84 2.4 2.4 0 0 1-1.67.66 2.41 2.41 0 0 1-2.38-2.49zm3.57.08c0-.87-.42-1.31-1.19-1.33s-1.16.46-1.18 1.33v3.68c0 .87.41 1.32 1.18 1.32s1.16-.45 1.19-1.32z"/><path class="cls-3" d="M58.26 18.65c2.12 0 4.49-.13 6.72-.13 1.52 0 2.46.57 2.59 1.89a2.87 2.87 0 0 1-1.42 3c-.2.11-.38.51-.58.61a2.64 2.64 0 0 1-.66 4.68c1.4.73 1.38 4.06-.87 4.26 1.14 1.67 0 3.48-2.24 3.53H46.91c-.93-2.46-.16-2.63-.12-5.26s.06-2.64.1-5.27-.54-2.75.28-5.26a11.41 11.41 0 0 0 4.68-3.88 11.18 11.18 0 0 0 1.58-6c0-.49-.33-1-.37-1.47-.13-1.57.74-2.17 2.2-1.58A5.8 5.8 0 0 1 59 13.19c.05 1.71-.57 3.59-.74 5.46z"/><path d="M58.26 18.65c2.12 0 4.49-.13 6.72-.13 1.52 0 2.46.57 2.59 1.89a2.87 2.87 0 0 1-1.42 3c-.2.11-.38.51-.58.61a2.64 2.64 0 0 1-.66 4.68c1.4.73 1.38 4.06-.87 4.26 1.14 1.67 0 3.48-2.24 3.53H46.91c-.93-2.46-.16-2.63-.12-5.26s.06-2.64.1-5.27-.54-2.75.28-5.26a11.41 11.41 0 0 0 4.68-3.88 11.18 11.18 0 0 0 1.58-6c0-.49-.33-1-.37-1.47-.13-1.57.74-2.17 2.2-1.58A5.8 5.8 0 0 1 59 13.19c.05 1.71-.57 3.59-.74 5.46z" stroke-width=".52" stroke="#fff" stroke-miterlimit="10" fill="none"/><path class="cls-10" d="M47.7 38.06l-6.65-.15-.36-6.33-.6-6.45-.22-6.66 7.68.34.26 6.3-.24 6.46.13 6.49z"/><path class="cls-11" d="M188.38 38.19c2.77 0 2.77-.12 5.54-.12s2.77-.2 5.54-.2 2.77-.11 5.54-.11 2.77.55 5.54.55 2.77-.24 5.55-.24M188.38 44c2.77 0 2.77.08 5.54.08s2.77.07 5.54.07 2.77-.07 5.54-.07 2.77-.25 5.54-.25 2.77.26 5.55.26M188.38 49.7c2.77 0 2.77.34 5.54.34h5.54c2.77 0 2.77.06 5.54.06s2.77-.13 5.54-.13 2.77.17 5.55.17"/><ellipse class="cls-3" cx="151.78" cy="52.53" rx="16.83" ry="16.02"/><path d="M174.59 52.53a22.12 22.12 0 0 1-.24 5 21.65 21.65 0 0 1-2.06 4.61 22.09 22.09 0 0 1-3.11 3.87C168.1 67.3 167.37 69 166 70a23 23 0 0 1-4.46 2.39 24.07 24.07 0 0 1-4.87 1.18 24.28 24.28 0 0 1-4.92.9c-1.7 0-3.27-.84-4.87-1.18s-3.5 0-5-.72a24 24 0 0 1-4.33-2.63 22.19 22.19 0 0 1-3.41-3.7 21.34 21.34 0 0 1-2.45-4.24c-.76-1.47-2-2.78-2.41-4.41a21.3 21.3 0 0 1-.37-5 20.5 20.5 0 0 1 .9-4.89 21.62 21.62 0 0 1 1.27-4.85 22.27 22.27 0 0 1 2.83-4.18c1.08-1.26 2.67-2 4-3a22.5 22.5 0 0 1 4.17-2.69 23.49 23.49 0 0 1 4.79-1.31 23.89 23.89 0 0 1 4.9-.46 26.39 26.39 0 0 1 9.54 2.11 21.89 21.89 0 0 1 4.18 2.54 22.53 22.53 0 0 1 3.95 3 21.86 21.86 0 0 1 3.07 4c.76 1.47.77 3.26 1.17 4.89a20.84 20.84 0 0 1 .91 4.78z" stroke-width="1.56" stroke="#fff" fill="none" stroke-linecap="round" stroke-linejoin="round"/><path class="cls-8" d="M154.24 31.83c0 1.84-1.13 14.37-2.51 14.37s-2.51-12.53-2.51-14.37 1.12-3.33 2.51-3.33 2.51 1.5 2.51 3.33z"/><ellipse class="cls-8" cx="151.92" cy="51.35" rx="3.02" ry="3.14"/><path class="cls-8" d="M131.62 57c1.78-.73 14.31-4.72 14.86-3.5s-11.09 7.16-12.87 7.88-3.65.34-4.2-.87.44-2.79 2.21-3.51zM171.83 57c-1.77-.73-14.3-4.72-14.85-3.5s11.09 7.16 12.86 7.88 3.66.34 4.21-.87-.45-2.79-2.22-3.51zM153 58.14a1.2 1.2 0 0 0-1.14-.84 1.19 1.19 0 0 0-1.15.82l-11.09 35.1h2.51l9.69-30.68 9.08 30.68h2.5z"/><path class="cls-13" d="M148.07 70.65h6.95M145 80.95h12.96"/><path class="cls-8" d="M205.15 77.12a.81.81 0 0 0-.81-.81h-2.05a.81.81 0 0 0-.81.81v7.25l3.67-1.54z"/><path class="cls-1" d="M201.48 84.37v11.42a.81.81 0 0 0 .81.81h2.05a.81.81 0 0 0 .81-.81v-13zM247.31 48.35a.61.61 0 0 0-.61 0l-43.87 25.33a.6.6 0 0 0 0 1l43.87 25.33a.64.64 0 0 0 .3.08.68.68 0 0 0 .31-.08.6.6 0 0 0 .3-.53V48.87a.6.6 0 0 0-.3-.52z"/><path class="cls-1" d="M196.83 68.4a.6.6 0 0 0-.61.6v10.3a.61.61 0 0 0 .61.61h12.75V68.4z"/><path class="cls-8" d="M212.19 68.4h-2.61v11.51h2.61a.61.61 0 0 0 .61-.61V69a.6.6 0 0 0-.61-.6z"/><path class="cls-14" d="M254.93 74.73c4.86 0 4.86-.13 9.72-.13M254.94 81.33c4 2.78 4 2.76 8 5.54M262.93 62.51c-4 2.78-4 2.7-8 5.48"/><path class="cls-3" d="M130.92 77.42v-6.77h-9.23l-4.71 13.72-3.97 5.38 11.74 3.47 1.86-7.35h4.31v-5.76l2.06-.2-2.06-2.49z"/><path class="cls-8" d="M126.83 93.43l1.61-3.22-14.14-4.34-1.68 2.56C99.44 88.84 94 102.57 94 102.57l-9.86 26.7 52.71 6.32v-26c.02-12.59-9.44-15.97-10.02-16.16z"/><path class="cls-1" d="M130.92 70.65s-.14 7.29-6.26 8.24c0 0 .26 14.86-9 16.42s-11.55 26.08-26.11 17.36C76.43 104.82 84.62 93 98.3 87.49S103.2 76.55 113 73c0 0 2-6.2 12-6 .06 0 5.46.39 5.92 3.65z"/><path class="cls-3" d="M174.38 73.78l-.48-5.22 10.19-.41 4.9 14.24 4.12 5.6-12.19 3.6-2.07-7.22-3.61.23-.73-6.62-2.13.41 2-4.61z"/><path class="cls-10" d="M178.76 91.81l-1.67-3.35L191.77 84l1.75 2.66c13.69.42 19.34 14.68 19.34 14.68L223.09 129l-54.73 6.56v-27c-.03-13.05 9.8-16.56 10.4-16.75z"/><path class="cls-8" d="M183.77 67.87s-17.29-3.87-8.27 4.85a9.6 9.6 0 0 0 3 1.68 1.27 1.27 0 0 1 1.89-.59s1.74 1.62-.49 4.82l2.84 2.37 5.38-1.37-3.36-10.91a1.51 1.51 0 0 0-.99-.85z"/><path class="cls-3" d="M61.39 104.33a6.66 6.66 0 0 1-2.29-1.15 13.25 13.25 0 0 1-1.55-2 8.86 8.86 0 0 1-1.54-2 9.29 9.29 0 0 1-.62-2.53 9.29 9.29 0 0 1-.82 2.45 9.57 9.57 0 0 1-1.17 2.23 10.09 10.09 0 0 1-1.91 1.67c-1.17.9-.89 1-2 1.5 0 0 .15-.16.15-.12s-.35.22-.31.24c1.16.52 1.06.21 2.24 1.11a10.27 10.27 0 0 1 2 1.56 14.52 14.52 0 0 1 1.82 4.91 16.36 16.36 0 0 1 2-4.76 10.31 10.31 0 0 1 1.93-1.62c1.17-.89.91-.9 2.06-1.42 0 0-.13.22-.09.22s.13-.28.1-.29z"/><path class="cls-15" d="M52.1 104.6c-1.21 0-1.21-.26-2.41-.26s-1.21-.06-2.42-.06M63.51 104.36c-1.21 0-1.21-.12-2.42-.12s-1.21.08-2.42.08M55.57 100.22c0-1.52-.36-1.52-.36-3v-3M55.22 114.54v-3-3"/><path class="cls-3" d="M146.77 4.76A3 3 0 0 1 145 3.55a3.65 3.65 0 0 1-.68-1.9 3.38 3.38 0 0 1-.81 1.8c-.71.87-.76.66-1.71 1.07a2.5 2.5 0 0 1 .24.16s-.26.18-.25.19c.95.41 1 .16 1.74 1a3.5 3.5 0 0 1 .79 1.84 3.14 3.14 0 0 1 1-1.66c.72-.87.43-1.15 1.38-1.56 0 0-.17.1-.18.12s.27.15.25.15z"/><path class="cls-15" d="M143 4.68h-2M147.67 4.46c-1 0-1 .39-2 .39M144.13 3c0-1.24.38-1.24.38-2.48M144.6 8.84c0-1.24-.24-1.24-.24-2.47"/><path class="cls-3" d="M240.9 119.69c-1-.41-1.15 0-1.87-.89a3.29 3.29 0 0 1-.68-1.79 3 3 0 0 1-.82 1.67c-.71.87-.62.95-1.57 1.36 0 0-.22-.13-.22-.12s.15 0 .17 0c1 .41 1.05.26 1.77 1.13a3.87 3.87 0 0 1 .67 2 3.27 3.27 0 0 1 1-1.68c.72-.87.41-1.19 1.35-1.6v.16c0-.01.21-.23.2-.24z"/><path class="cls-15" d="M237 119.92c-1 0-1 .21-2 .21M241.67 119.68c-1 0-1 .16-2 .16M238.14 118.24c0-1.24.39-1.24.39-2.48M238.16 124.09c0-1.24.4-1.24.4-2.48"/><path class="cls-3" d="M154.25 117.77c-.95-.4-1.12-.16-1.84-1a3.63 3.63 0 0 1-.63-1.9 3.05 3.05 0 0 1-.95 1.64c-.71.87-.45 1.17-1.4 1.57a1.45 1.45 0 0 1 .09-.22s-.28.18-.27.19c.95.41 1.15 0 1.87.92a4.14 4.14 0 0 1 .66 2 3.53 3.53 0 0 1 1-1.79c.72-.87.6-.81 1.55-1.21 0 0-.17-.18-.16-.19s.09 0 .08-.01z"/><path class="cls-15" d="M150.44 117.9c-1 0-1-.22-2-.22M155.09 117.79c-1 0-1-.07-2-.07M151.93 116.14c0-1.24-.32-1.24-.32-2.48M151.85 122c0-1.24-.17-1.24-.17-2.48"/><path class="cls-3" d="M73.23 115.92c-1-.41-1.13 0-1.85-.92a3.91 3.91 0 0 1-.69-2 3.54 3.54 0 0 1-.85 1.84c-.72.87-.58 1-1.53 1.42a1 1 0 0 1 .2-.15 1.24 1.24 0 0 1-.27 0c1 .41.75.5 1.47 1.37a4 4 0 0 1 1 1.93 4.27 4.27 0 0 1 .85-2c.72-.87.59-1 1.54-1.4 0 0 .2.24.21.23a.35.35 0 0 0-.08-.32z"/><path class="cls-15" d="M69.35 116.25h-2M74 116.21h-2M70.58 114.46c0-1.24.12-1.24.12-2.48M70.52 120.3c0-1.24.26-1.24.26-2.47"/><path class="cls-1" d="M289.35 310.35c-2.46 0-2.46.12-4.91.12s-2.46.46-4.92.46-2.45-.26-4.91-.26-2.45-.79-4.91-.79-2.45.4-4.91.4-2.45-.39-4.91-.39-2.46.58-4.91.58-2.46.14-4.91.14-2.46-.11-4.92-.11-2.45.26-4.91.26-2.45.15-4.91.15-2.46-1-4.91-1-2.46.69-4.91.69-2.46-.31-4.92-.31-2.45-.22-4.91-.22-2.45-.21-4.91-.21-2.46.73-4.91.73-2.46.19-4.91.19-2.46.26-4.91.26-2.46-1.09-4.91-1.09-2.45.58-4.91.58-2.45-.11-4.91-.11-2.45-.08-4.91-.08-2.46-.49-4.91-.49S169 311 166.57 311s-2.45-.81-4.91-.81-2.45.06-4.91.06-2.46.54-4.91.54-2.46-.71-4.92-.71-2.45.17-4.91.17-2.45.65-4.91.65-2.46-.85-4.91-.85-2.46.59-4.91.59-2.46-.67-4.92-.67-2.45.79-4.91.79-2.46-.18-4.91-.18-2.46-.52-4.92-.52-2.45-.12-4.91-.12-2.46.06-4.91.06-2.46.25-4.92.25-2.46.57-4.91.57h-4.92c-2.45 0-2.45-.69-4.91-.69s-2.46.77-4.92.77-2.46-.43-4.91-.43-2.46.25-4.91.25-2.46-.21-4.92-.21-2.46-.19-4.91-.19-2.46.43-4.92.43-2.46.13-4.91.13-2.46.09-4.92.09-2.46-.73-4.92-.73-2.46.16-4.92.16-2.45.1-4.91.1-2.46-.34-4.92-.34-2.46.53-4.92.53-2.47-.19-4.93-.19a8.5 8.5 0 0 1-4.25-1.41 8.17 8.17 0 0 1-3-3.19 8.14 8.14 0 0 1-1.37-4.2v-4.91c0-2.46.32-2.46.32-4.91S.75 289.42.75 287s.22-2.45.22-4.91-.34-2.46-.34-4.92.3-2.45.3-4.91-.74-2.46-.74-4.92.83-2.45.83-4.91v-4.92C1 255 1 255 1 252.56s.13-2.46.13-4.92S0 245.18 0 242.72s.39-2.45.39-4.91.27-2.46.27-4.92.18-2.46.18-4.91-.3-2.46-.3-4.92-.36-2.46-.36-4.91.58-2.46.58-4.92.19-2.46.19-4.92-.65-2.46-.65-4.91-.3-2.46-.3-4.92.73-2.46.73-4.92.09-2.46.09-4.92-.61-2.46-.61-4.92.25-2.46.25-4.93-.07-2.46-.07-4.92a9 9 0 0 1 1.2-4.43 9 9 0 0 1 3.3-3.17 9 9 0 0 1 4.38-1.43c2.46 0 2.46.9 4.92.9s2.45-.22 4.91-.22 2.45-.94 4.91-.94 2.45.2 4.91.2 2.45.26 4.91.26 2.46-.35 4.91-.35 2.46.46 4.91.46 2.46.5 4.91.5 2.46-1.08 4.92-1.08 2.45.14 4.91.14 2.46.53 4.91.53 2.46-.54 4.91-.54 2.46.36 4.91.36 2.46-.47 4.92-.47 2.45.1 4.91.1 2.46.15 4.91.15h4.91c2.45 0 2.46.51 4.92.51s2.45-.45 4.9-.45 2.46-.06 4.91-.06 2.45.35 4.91.35 2.45.35 4.91.35 2.45-.84 4.91-.84 2.46.34 4.91.34 2.46-.44 4.91-.44 2.46.08 4.91.08 2.46.73 4.91.73 2.46.35 4.92.35 2.45-.22 4.91-.22h9.82c2.46 0 2.46-1 4.91-1s2.46.08 4.91.08 2.46 1.08 4.92 1.08 2.45-.81 4.91-.81 2.46.14 4.91.14H191c2.46 0 2.45.52 4.91.52s2.46-.86 4.91-.86 2.46.77 4.92.77 2.46.19 4.91.19 2.46-.76 4.92-.76 2.46.35 4.91.35 2.46-.76 4.92-.76h4.91c2.45 0 2.46.3 4.92.3s2.45.85 4.91.85 2.46-.31 4.91-.31 2.46-.64 4.92-.64 2.46.35 4.91.35 2.46.27 4.92.27 2.46-.41 4.92-.41 2.46-.19 4.92-.19 2.45-.11 4.91-.11 2.46.58 4.92.58 2.46-.31 4.92-.31 2.47.43 4.93.43a8.42 8.42 0 0 1 4.32 1c1.33.77 2.88 1.57 3.65 2.89a9.68 9.68 0 0 1 1.26 4.6c0 2.46-1 2.46-1 4.92v4.91c0 2.46 1 2.45 1 4.91s-.95 2.46-.95 4.92.41 2.45.41 4.91-.39 2.46-.39 4.92-.17 2.45-.17 4.91v4.92c0 2.46.44 2.45.44 4.91s-.38 2.46-.38 4.92.52 2.46.52 4.91.58 2.46.58 4.92v4.92c0 2.46-.23 2.46-.23 4.92s-.8 2.45-.8 4.91.11 2.46.11 4.91.26 2.46.26 4.92.09 2.46.09 4.91-.53 2.46-.53 4.92 1 2.46 1 4.92-.57 2.46-.57 4.92.24 2.46.24 4.92-.49 2.46-.49 4.91.56 2.47.56 4.93-.49 2.46-.49 4.92.69 2.46.69 4.92c0 1.59-.93 3-1.67 4.3a8.77 8.77 0 0 1-3.08 3.26 8.63 8.63 0 0 1-4.35 1.18z"/><path class="cls-8" d="M46 217.65a3 3 0 0 1 .9 2.17 3.07 3.07 0 0 1-3.1 3.1 2.94 2.94 0 0 1-2.18-.9 3 3 0 0 1-.9-2.2 3.07 3.07 0 0 1 3.08-3.07 3 3 0 0 1 2.2.9zM57.41 228l-.41-1.66a11 11 0 0 0 1.37.09.56.56 0 0 0 .63-.63V222c-.61.23-1.24.45-1.87.67l-.42-1.73a20.76 20.76 0 0 0 2.29-.74v-3.71h-2v-1.63h2v-3.26h1.73v3.26h1.67v1.63h-1.64v3c.47-.21.92-.45 1.37-.7v1.75c-.47.23-.92.47-1.37.68v5A1.56 1.56 0 0 1 59 228zm15.43-8.46v1.53h-4.32v1.65h3.55v1.52h-3.55v1.91a22.3 22.3 0 0 0 2.34.12c1 0 1.8 0 2.49-.11l-.47 1.66h-1.91a12.81 12.81 0 0 1-4.92-.66 4.57 4.57 0 0 1-1.71-1.73 11.37 11.37 0 0 1-1.62 2.75l-1.28-1.09a9.51 9.51 0 0 0 2.16-5.39l1.52.18a12.26 12.26 0 0 1-.26 1.86 4.05 4.05 0 0 0 1.86 2l.16.06v-4.7h-4.39v-1.53zm-1.08-7.44v6.5h-8.1v-6.5zm-1.67 2.59v-1.2h-4.77v1.2zm0 1.3h-4.77v1.22h4.77zM85 213a22.88 22.88 0 0 1-3.15 1.13v4.14h4.43v-6.52H88v6.52h4v1.66h-4v8.24h-1.73v-8.27H81.8q-.37 5.61-4.45 8.3l-1.29-1.14a8.56 8.56 0 0 0 4-7.16h-4.18v-1.66h4.23v-3.71a28 28 0 0 1-3.31.45l-.54-1.55a25.8 25.8 0 0 0 7.9-1.85zM98.07 225.84a36.1 36.1 0 0 0 4.43-1.23l.4 1.62a57.33 57.33 0 0 1-6.56 1.61l-.45-1.62a.9.9 0 0 0 .45-.81v-13.29h13.15v5.65h-4.9c.07.78.18 1.48.29 2.13h5.73v1.65h-5.35a7.16 7.16 0 0 0 .34 1 8.71 8.71 0 0 0 1.73 2.77 2.58 2.58 0 0 0 1.62.83c.16 0 .3-.16.43-.47a10.59 10.59 0 0 0 .34-2.21l1.53.82a8.94 8.94 0 0 1-.84 3 1.37 1.37 0 0 1-1.1.7 4.25 4.25 0 0 1-2.67-1.24 10.5 10.5 0 0 1-2.44-3.57 11.58 11.58 0 0 1-.56-1.57h-5.57zm0-12.08v2.39h9.74v-2.39zm0 4v2.13h5.17c-.14-.69-.25-1.39-.34-2.13zM115 227.14l-1.14-1.43a9.93 9.93 0 0 0 3.15-5.38l1.68.29a19.26 19.26 0 0 1-.61 2 22.3 22.3 0 0 1 2.48 2.68l-1.26 1.26a16.5 16.5 0 0 0-1.89-2.48 10.78 10.78 0 0 1-2.41 3.06zm-.09-7.39l-.54-1.64a89.27 89.27 0 0 0 13.34-.84l.9 1.53a54.37 54.37 0 0 1-6 .72v8.64h-1.73v-8.53c-1.88.07-3.82.12-5.94.12zm13.7-7.63v4.75h-13.73v-4.75zm-9.72 1.42h-2.4v1.91h2.4zm4.07 0h-2.47v1.91H123zm1.06 13.6l-1.15-1.43a11.37 11.37 0 0 0 2.9-5.85l1.65.29a21.49 21.49 0 0 1-.57 2.18 9 9 0 0 0 2.77 2.93l-.94 1.64a9.88 9.88 0 0 1-2.48-2.93 11.71 11.71 0 0 1-2.15 3.17zm3-13.6h-2.39v1.91H127zM135.62 224a12.1 12.1 0 0 1-1.73 3.69l-1.47-.92a9.62 9.62 0 0 0 1.54-3.11zm-2-10v-1.44h5.94a9.36 9.36 0 0 0-.43-.84l1.86-.29c.14.34.3.72.45 1.13h6.23V214h-2.87l-.52 1.08h4.23v1.48h-15.73v-1.48h4.08l-.43-1.08zm13 3.32v5.61h-12v-5.61zm-1.62 2.16v-.88h-8.65v.88zm0 1.23h-8.65v.9H145zm-6.2 7.16c-1.38 0-2.07-.63-2.07-1.85v-2.31h1.73v1.95c0 .45.27.68.83.68h3.58a1 1 0 0 0 .69-.19 2.57 2.57 0 0 0 .37-1.43l1.62.52c-.14 1.27-.39 2-.79 2.29a2.91 2.91 0 0 1-1.56.34zm3.73-12.82L143 214h-4.81l.44 1.08zm.22 9.83l-1.43 1a15.44 15.44 0 0 0-1.67-2l1.46-.91a14.22 14.22 0 0 1 1.61 1.91zm6.24 1.54l-1.42 1a24.46 24.46 0 0 0-2.23-3.19l1.38-.87a23.2 23.2 0 0 1 2.28 3.06zM155 213.61h1.7v1.55h-5.37v-1.55h2.07c-.22-.57-.45-1.15-.7-1.69l1.62-.45a21.35 21.35 0 0 1 .68 2.14zm1.43 14.25h-1.55v-.8h-1.57v.81h-1.51v-6.26h4.67zm-.2-11.46v1.43H152v-1.43zm0 2.56v1.42H152V219zm-1.35 6.63v-2.54h-1.57v2.54zm7.43.19a18.36 18.36 0 0 0 1.55-2.05 48 48 0 0 1-.38-5.53h-6.68v-1.55h1.46q-.21-1.16-.45-2.16h-.57V213h2c-.18-.45-.36-.86-.56-1.26l1.64-.25.49 1.51h1.94v1.48h-.58c-.07.77-.18 1.49-.3 2.16h1.62v-5H165v5h2.66v1.55H165c0 1.28.07 2.38.12 3.28a22.83 22.83 0 0 0 1.05-2.72l1.38.54a27.61 27.61 0 0 1-2.16 4.79c.22 1.2.44 1.85.69 2 .21 0 .39-.78.56-2.23l1.24.88c-.31 2.14-.88 3.22-1.71 3.22-.45 0-.87-.3-1.23-.92a6.57 6.57 0 0 1-.59-1.31 16.12 16.12 0 0 1-2 2.29l-1.13-1c.36-.35.72-.71 1-1.07h-3.18v.92h-1.41v-7.76h4.68zm-1.42-4v-1.38h-1.85v1.38zm0 2.76v-1.44h-1.85v1.48zm-.14-10.12h-1.57q.17 1 .36 2.16h.94q.19-1.01.31-2.12zm6.73 1.17l-1.24.31a19 19 0 0 0-1-3.1l1.24-.4a26.35 26.35 0 0 1 1.04 3.23zM174.84 211.6v3h3.62q0 9.18-.27 11.35c-.18 1.36-1.08 2.05-2.68 2.05-.29 0-.76 0-1.4-.09l-.44-1.57c.61.06 1.14.09 1.57.09a1.3 1.3 0 0 0 1.35-1.26c.11-.88.16-3.85.2-8.89h-1.95v.48q-.08 7.89-3.47 11.53l-1.37-1.21q3.08-3.18 3.13-10.3v-.48h-2.73v-1.68h2.71v-3zM186 227.89h-1.67v-1.12h-2.77v1.12h-1.68V213.6H186zm-1.67-2.77v-9.87h-2.77v9.87zM194.19 213.79v-1.65h3.93a21.72 21.72 0 0 0 7.42 14.35l-1 1.47a22.9 22.9 0 0 1-7.13-11.34 19.73 19.73 0 0 1-7.36 11.31l-1-1.46q5.94-4.38 7.7-12.68zM209.78 215.65v-3.86h1.64v3.86h1.87v1.6h-1.87V228h-1.64v-10.7h-1.94v-1.6zm8 11.14a1.74 1.74 0 0 1-1.7 1.1c-.3 0-.66 0-1.09-.07l-.38-1.42 1.13.09c.43 0 .7-.29.81-.83a31.58 31.58 0 0 0 .18-4.14h-1.06a14.1 14.1 0 0 1-.58 3 8.34 8.34 0 0 1-2.19 3.44l-1-1.34a7 7 0 0 0 1.84-2.82 12.47 12.47 0 0 0 .41-2.27h-1.45V220h1.58v-1.49h1.55l-.05 1.49h2.5c-.04 3.79-.2 6-.52 6.79zm5-9.56a2.26 2.26 0 0 1-2.08.9 9.15 9.15 0 0 1-1.19-.07l-.45-1.53a10 10 0 0 0 1.55.14.86.86 0 0 0 1-.68 9.44 9.44 0 0 0 .13-1.46h-2.88l-.08.31a4.12 4.12 0 0 1-1.29 2.1 6.73 6.73 0 0 1-2.83 1.37l-.86-1.37a6 6 0 0 0 2.41-1 2.93 2.93 0 0 0 1-1.44h-3v-1.47h3.24c0-.4.05-.82.05-1.27h1.5c0 .45 0 .87-.05 1.27h4.34c.03 2.22-.17 3.63-.55 4.2zm1.17 9.54a1.58 1.58 0 0 1-1.54 1.1c-.4 0-.87 0-1.41-.07l-.39-1.42 1.44.09c.36 0 .59-.29.68-.83a37.6 37.6 0 0 0 .16-4.12h-1.26a14.52 14.52 0 0 1-.54 2.95 8.24 8.24 0 0 1-2.23 3.44l-1-1.26a6.81 6.81 0 0 0 1.8-2.86 13.16 13.16 0 0 0 .43-2.27h-1.19V220h1.32l.05-1.53h1.53c0 .54 0 1.05-.07 1.53h2.7c-.05 3.79-.21 6-.52 6.77zM235.2 211.6v1.85l-.06 1.41H242c-.08 3.2-.18 5.81-.36 7.81a11.47 11.47 0 0 1-.94 4.12 2.44 2.44 0 0 1-2.05 1.25h-2.52l-.47-1.66c.76 0 1.48.05 2.16.05.92 0 1.53-.61 1.82-1.82a49.16 49.16 0 0 0 .59-8.12H235a22.16 22.16 0 0 1-1.62 6.56 11.34 11.34 0 0 1-5.24 5.13l-.94-1.49a10.45 10.45 0 0 0 4.85-4.94 20.06 20.06 0 0 0 1.18-5.26h-5.07v-1.63h5.2l.05-1.41v-1.85zM46 245.41a3 3 0 0 1 .9 2.18 3.07 3.07 0 0 1-3.1 3.1 3.07 3.07 0 0 1-3.08-3.1 3.07 3.07 0 0 1 3.08-3.08 3 3 0 0 1 2.2.9zM62.69 239.38c1.42.87 3 2 4.61 3.21l-1 1.31c-.64-.5-1.21-1-1.73-1.37v1.07h-4.28v-.67c-.81.67-1.71 1.33-2.7 2l-1-1.39a22.92 22.92 0 0 0 5.06-4.16zm3.63 16.48h-1.6v-.63h-3.38v.65h-1.55v-5a14.44 14.44 0 0 1-1.84 5l-1.33-1.19a12.43 12.43 0 0 0 1.78-6.87v-3.37h7.74v5.33H60c0 .36-.09.7-.14 1h6.51zm-6.26-8v.73h4.44v-.88h-4.44zm4.44-2.13h-4.44v.87h4.44zm-.19-3.36q-1.17-.9-2-1.41c-.42.47-.87.94-1.37 1.41zm.41 11.56v-1.75h-3.38v1.75zm3.53 1.85l-.4-1.66q1.31.09 2.49.09a.57.57 0 0 0 .65-.65v-14.18h1.69V254a1.57 1.57 0 0 1-1.75 1.78zm1.26-15.16v11.52h-1.64v-11.55zM80.24 243.7v1.3a23 23 0 0 1-2 2.79h2.24V249a16.11 16.11 0 0 1-1 3.33c.13.09.25.2.4.31a6.45 6.45 0 0 0 1.67 1.11 8.08 8.08 0 0 0 2.34.35h3.4c1.29 0 2.94-.05 5-.14l-.38 1.62h-4.4c-1.3 0-2.52 0-3.71-.07a8.84 8.84 0 0 1-2.83-.42 6.1 6.1 0 0 1-2.07-1.31.56.56 0 0 0-.43-.18c-.32 0-.86.77-1.6 2.32l-1.24-1.13c.79-1.59 1.56-2.52 2.32-2.78a14.83 14.83 0 0 0 1-2.73h-2.69V248a25.35 25.35 0 0 0 2.1-2.72H75.9v-1.58zm0-1.74l-1.1 1.11a20.38 20.38 0 0 0-2.76-2.59l1.14-1.1a20 20 0 0 1 2.7 2.62zm2.27 2.66l-1.41-.88a11.74 11.74 0 0 0 1.84-4l1.57.33c-.13.45-.26.88-.4 1.28h1.8v-2h1.64v2h3.54v1.58h-3.56v1.93H92v1.56H80.88v-1.56h5v-1.93h-2.44a14.3 14.3 0 0 1-.95 1.69zm8.21 2.94v5.31h-8.38v-5.31zm-1.64 1.56H84v2.18h5.08zM102.77 240.81v1.67h-2.61v3.46h1.89V247a23.15 23.15 0 0 0 2.4-7.76l1.67.18c-.14.92-.32 1.8-.52 2.63h5.29v1.66h-1.22a14.88 14.88 0 0 1-2.11 7.45 10.91 10.91 0 0 0 3.76 3.3l-1 1.44a11.07 11.07 0 0 1-3.81-3.35 13.63 13.63 0 0 1-4.6 3.37l-1-1.41a11.73 11.73 0 0 0 4.7-3.42 21.45 21.45 0 0 1-1.75-4.21c-.34.68-.72 1.31-1.11 1.93l-1-1.28h-1.6v4.17c.87-.25 1.69-.52 2.49-.79v1.59a72.09 72.09 0 0 1-7.64 2.22l-.47-1.58 1.08-.24v-8.22h1.6v7.85c.47-.11.92-.24 1.35-.35v-9.7H95v-1.67zm5.26 2.93h-2.9a26.42 26.42 0 0 1-.95 2.5l.84-.48a20.15 20.15 0 0 0 1.55 3.87 13.17 13.17 0 0 0 1.43-5.89zM115 243.94l-1.48-.92a10.8 10.8 0 0 0 2.38-3.89l1.64.36c-.14.41-.31.81-.47 1.17h4.3v1.51h-2.64c.36.56.68 1.08.93 1.57l-1.54.56a17.69 17.69 0 0 0-1.16-2.13h-.68a14.55 14.55 0 0 1-1.28 1.77zm5.87.61v-1.08h1.58l-.95-.63a11.16 11.16 0 0 0 1.67-3.69l1.66.36c-.11.39-.23.79-.36 1.15h5.17v1.51h-3.06a15.39 15.39 0 0 1 .88 1.55l-1.49.58a19 19 0 0 0-1.14-2.13h-1a16.51 16.51 0 0 1-.92 1.61l-.34-.22v1h7.13v1.55h-7.13v1h5.9v3.5c0 1-.54 1.51-1.62 1.51h-1.22l-.43-1.51 1.17.09c.27 0 .41-.17.41-.45v-1.64h-4.21v1.46a20.22 20.22 0 0 0 7.54 4l-.9 1.57a21.44 21.44 0 0 1-6.64-3.92V256h-1.73v-4.21a20.37 20.37 0 0 1-6.12 4l-1-1.53a20.94 20.94 0 0 0 7.15-4.14v-1.42H117v3.44h-1.67v-4.94h5.6v-1h-7.13v-1.55zM139.47 251l.24 1.57a51.06 51.06 0 0 1-6.43 2.52l-.49-1.48a1.06 1.06 0 0 0 .63-1.12V246h4v-3.87h-4.76v-1.64H139v7.1h-4v5.24a47.19 47.19 0 0 0 4.47-1.83zm4.7-1.39a13.8 13.8 0 0 0 1.44-6.08h-3.09a15.57 15.57 0 0 1-2.25 4.45l-1.05-1.32a17 17 0 0 0 2.52-7.31l1.68.29c-.15.81-.29 1.56-.45 2.27h5.58v1.62h-1.28a15.77 15.77 0 0 1-2.11 7.67 10.91 10.91 0 0 0 4 3.38l-1 1.44a11.33 11.33 0 0 1-4-3.44 13.15 13.15 0 0 1-4.5 3.41l-1-1.41a11.24 11.24 0 0 0 4.59-3.47 20.6 20.6 0 0 1-1.8-4.36l1.28-.74a18.52 18.52 0 0 0 1.44 3.56zM153.28 246.6a14.86 14.86 0 0 1-.54 2.54l-1.19-.41a10.43 10.43 0 0 0 .61-2.4zm3.82-.86l-1.1.26-.18-.63a33.39 33.39 0 0 1-3.8.57l-.31-1.1a1.47 1.47 0 0 0 .54-.34 11 11 0 0 0 1.55-1.5c-.56.07-1.13.12-1.71.2l-.32-1.16a1.31 1.31 0 0 0 .55-.48 11.6 11.6 0 0 0 1.41-2.09l1.28.48a13.65 13.65 0 0 1-1.68 2.09c.45 0 .9-.09 1.33-.16l.76-1 1.24.46a24.92 24.92 0 0 1-3.06 3.48c.61-.09 1.25-.22 1.86-.36-.13-.32-.25-.61-.38-.9l1.12-.36a17.14 17.14 0 0 1 .9 2.54zm2.72 7.36a8.68 8.68 0 0 0 2.88-2h-7.08a8.92 8.92 0 0 1-2.74 2.07l-1-1.21a6.81 6.81 0 0 0 3.49-3.4l1.62.29a5.68 5.68 0 0 1-.37.79h9.65v1.46h-1.82a9.55 9.55 0 0 1-2.61 2.5 48.35 48.35 0 0 0 5.69.85L167 256a37.41 37.41 0 0 1-7-1.33 19.55 19.55 0 0 1-7.48 1.28l-.55-1.49a23.37 23.37 0 0 0 5.79-.64 7.93 7.93 0 0 1-2.41-1.62l1.37-.66a8.76 8.76 0 0 0 3.1 1.56zm-4.82-4.48l-1.17.12c0-1-.07-1.71-.12-2.23l1.06-.11a13.53 13.53 0 0 1 .23 2.22zm2-.62l-1 .39c-.16-.68-.34-1.33-.54-1.94l1-.29A17.08 17.08 0 0 1 157 248zm1.8-7.48a8.53 8.53 0 0 0-.45-1l1.59-.27c.14.38.3.81.45 1.31h1.69v1.21h-5v-1.21zm2.93 5.08v3h-4.28v-3zm-.1-3.24v1h-4.09v-1zm0 1.59v1h-4.09v-1zm-1.15 2.61h-1.77v1h1.77zm3.33-.11a12.27 12.27 0 0 1-.53 2.41l-1.18-.39a10.41 10.41 0 0 0 .59-2.29zm3.78-.78l-1.14.27c0-.18-.09-.32-.12-.46-1.34.18-2.61.28-3.82.36l-.31-1.1a1.61 1.61 0 0 0 .54-.34 10 10 0 0 0 1.48-1.41l-1.8.18-.31-1.15a1.3 1.3 0 0 0 .54-.49 11.06 11.06 0 0 0 1.53-2.14l1.28.49a12.42 12.42 0 0 1-1.76 2.14l1.42-.14c.25-.33.52-.69.81-1l1.19.45a29 29 0 0 1-3 3.39l1.92-.27c-.12-.36-.25-.71-.39-1l1.11-.38a18.36 18.36 0 0 1 .8 2.61zm-2 3l-1.19.13c0-1-.07-1.8-.13-2.34l1.07-.13a21.8 21.8 0 0 1 .22 2.32zm2.07-.32l-1.08.4c-.22-.79-.45-1.55-.72-2.29l1-.31a18.14 18.14 0 0 1 .77 2.18zM46 273.18a3 3 0 0 1 .9 2.18 3.07 3.07 0 0 1-3.1 3.1 3 3 0 0 1-2.18-.9 3 3 0 0 1-.9-2.2 3.07 3.07 0 0 1 3.08-3.08 3 3 0 0 1 2.2.9zM57.37 283.53l-.37-1.65a10 10 0 0 0 1.2.09.51.51 0 0 0 .56-.58v-3.83c-.54.21-1.06.41-1.6.59l-.42-1.71c.69-.18 1.35-.38 2-.61V272H57v-1.64h1.75v-3.26h1.68v3.26h1.45V272h-1.44v3.08c.5-.25 1-.51 1.47-.79v1.74c-.48.27-1 .52-1.47.76v5a1.49 1.49 0 0 1-1.64 1.71zm6.54-7.68a14.54 14.54 0 0 1-2 7.7l-1.22-1.1a12 12 0 0 0 1.69-6.6v-7.44h4.92c-.19-.4-.38-.77-.58-1.12l1.69-.28a12.74 12.74 0 0 1 .56 1.4h4.12v1.48h-1.76v.72h1.53v1.26h-1.53v1.65h-5.58v-1.65h-1.37v-1.26h1.37v-.72h-1.84v4.23h9.33v1.29h-9.33zm8.66.18v5.09h-1.73a16.87 16.87 0 0 1 2.58 1.17l-.83 1.26a15.55 15.55 0 0 0-3.31-1.55l.61-.92H67.2l.65.74a12.14 12.14 0 0 1-3.49 1.76l-.65-1.38a11.9 11.9 0 0 0 2.69-1.12h-1.82V276zm-4.73 2.05v-.83H66v.83zm0 1H66v.81h1.81zm-.64-8.46h2.67v-.72H67.2zm0 1.92h2.67v-.66H67.2zm2 5.55h1.91v-.83h-1.89zm1.91 1h-1.89v.81h1.91zM82.88 271.67c.11-.95.18-2 .2-3v-1.57h1.73v1.17a24.8 24.8 0 0 1-.22 3.4h7.31v1.66H85a15.8 15.8 0 0 0 7.25 8.93l-1.06 1.38a16.85 16.85 0 0 1-7.19-8.91 14.33 14.33 0 0 1-7.27 9.08l-1.1-1.45a12.58 12.58 0 0 0 7-9H76v-1.66zM102.27 272.59h-1.19a13.74 13.74 0 0 1-1.78 2c.47 0 1-.09 1.53-.12l.81-1 1.13.45a18.27 18.27 0 0 1-3 2.88l1.68-.23c-.07-.27-.16-.52-.24-.76l1-.32c.24.67.45 1.44.67 2.32l-1.06.25c0-.19-.09-.37-.13-.54-1.3.19-2.5.33-3.62.44l-.25-1a7.07 7.07 0 0 0 2-1.51c-.7.05-1.35.1-1.94.16l-.23-1a6.56 6.56 0 0 0 1.92-2H96.9v11.09h-1.56v-16.05h6.93zm-1.55-3.71H96.9v.72h3.82zm-3.82 2.54h3.82v-.78H96.9zm2.87 7v1.51h1.29a1.45 1.45 0 0 0 0-.28v-1.41h1.38v1.41a4 4 0 0 1-.9 2.5 5.65 5.65 0 0 1-2.72 1.33l-.77-1.21a5.34 5.34 0 0 0 2.34-1s.09-.1.13-.16h-2.11v-2.7zm6.57-5.81a11.86 11.86 0 0 1-1.75 2l1.5-.11.82-1 1.14.45a19.94 19.94 0 0 1-3 2.87l1.69-.24c-.09-.25-.18-.5-.25-.74l1-.32a20.25 20.25 0 0 1 .75 2.4l-1.06.27c0-.24-.11-.45-.16-.65-1.33.18-2.56.32-3.67.43l-.26-1a6.77 6.77 0 0 0 2-1.51l-2 .16-.23-1a6.4 6.4 0 0 0 1.91-2h-1.5v-5h7v14.41a1.4 1.4 0 0 1-1.6 1.56h-2l-.38-1.42c.65 0 1.25.05 1.8.05.4 0 .6-.22.6-.65v-9zm-1.5 5.61v1.71h1.28v-1.47h1.35v2.66h-2.63v2.34h-1.47v-5.24zm3.93-9.32h-3.84v.72h3.84zm-3.84 2.54h3.84v-.78h-3.84zM117.78 274.17l-1.22 1.23a21.75 21.75 0 0 0-3-2.74l1.22-1.17a20.84 20.84 0 0 1 3 2.68zm.49 3a56.63 56.63 0 0 1-2.68 6.37l-1.71-.75a60.47 60.47 0 0 0 2.86-6.25zm.11-7.26l-1.23 1.23a17.07 17.07 0 0 0-3.15-2.7l1.24-1.19a25.93 25.93 0 0 1 3.14 2.67zm5.11.06a20.69 20.69 0 0 0-1.1-2.54L124 267a22 22 0 0 1 1.2 3h-.05 4.46v1.67h-4.46v3.85h4v1.64h-4v4.27H130v1.67h-11.57v-1.67h5v-4.27h-4v-1.66h4v-3.85h-4.54V270zM132.79 276l-.57-1.81a19.83 19.83 0 0 0 3.71-7.19l1.55.72a21.17 21.17 0 0 1-1.55 3.8v12.17h-1.68v-9.49c-.47.66-.95 1.27-1.46 1.8zm14.93-8.35v6.09h-3.58v2.55h4.07v1.59h-4.07v3.76c.57.07 1.26.13 2 .16h2.81l-.3 1.62H147c-2.6 0-4.38-.29-5.31-.79a5.67 5.67 0 0 1-2.4-2.36 14.09 14.09 0 0 1-1.84 3.55l-1.08-1.36a18.36 18.36 0 0 0 2.54-7.56l1.62.29a30.46 30.46 0 0 1-.65 3.17 6 6 0 0 0 1 1.71 4.41 4.41 0 0 0 1.6 1.19v-7.47h-4.08v-6.09zm-1.66 1.57h-6v2.93h6zM151.62 276.08l-.56-1.84a19.78 19.78 0 0 0 3.89-7.31l1.62.76a22.63 22.63 0 0 1-1.67 3.93v12.11h-1.73v-9.47c-.49.61-1.01 1.23-1.55 1.82zm9.6-7.31v-1.69h1.71v1.69h4.84v1.64h-4.84v1.42h4.16v5.35h-4.23a10.63 10.63 0 0 1-.83 3.49 14.42 14.42 0 0 0 5.89 1.48l-.42 1.64a15.08 15.08 0 0 1-6.44-1.8 8.26 8.26 0 0 1-4.54 1.8l-.74-1.55a6.83 6.83 0 0 0 3.76-1.23 14.69 14.69 0 0 1-2.66-2.57l1.31-.9a11.82 11.82 0 0 0 2.33 2.2 9.08 9.08 0 0 0 .61-2.56h-3.93v-5.35h4v-1.42h-4.5v-1.64zm0 4.57h-2.41v2.31h2.41zm4.27 0h-2.56v2.31h2.56zM186.26 267.69v1.6h-7v1.24h5.51v7.41H179a7.52 7.52 0 0 1-.92 2.55 26.08 26.08 0 0 0 8.73 1.6l-.43 1.66a25.78 25.78 0 0 1-9.4-2 12.29 12.29 0 0 1-6.12 2l-.74-1.56a11.69 11.69 0 0 0 5.19-1.26 17.19 17.19 0 0 1-2.65-1.82l1.32-.9a15.84 15.84 0 0 0 2.52 1.6 6.28 6.28 0 0 0 .77-1.85h-5.17v-7.41h5.46v-1.24h-6.95v-1.6zm-8.66 5.82V272h-3.77v1.52zm0 1.83v-.43h-3.77v1.53h3.71a10.14 10.14 0 0 0 .06-1.1zm5.51-.43h-3.82v1.53h3.87zm-3.82-1.4h3.82V272h-3.82zM198.62 267.78c-.25.27-.48.52-.72.76h4.81v1.33c-1.94 3.46-5.55 5.42-10.82 5.85l-.72-1.55a20.32 20.32 0 0 0 4.05-.61 16.85 16.85 0 0 0-1.58-1.67l1.47-.71a23 23 0 0 1 1.71 1.84 9.3 9.3 0 0 0 3.93-3h-4.85a16.42 16.42 0 0 1-4.9 1.88l-1-1.56q4.78-.87 7.13-3.35zm0 12.53a10.73 10.73 0 0 0 4.23-3.2h-4.93a24.85 24.85 0 0 1-5.51 1.71l-1-1.53c3.93-.38 6.83-1.53 8.66-3.48l1.46.79a9.39 9.39 0 0 1-1 1h4.59v1.33q-3.87 6.32-14.39 6.59l-.68-1.64a23.43 23.43 0 0 0 7-.92 18.59 18.59 0 0 0-1.73-2l1.51-.72a22.83 22.83 0 0 1 1.81 2.07zM216.93 271.15a16.47 16.47 0 0 0 7.74 11l-1.13 1.5a18.19 18.19 0 0 1-7.24-9.26 17.16 17.16 0 0 1-7.46 9.29l-1-1.53q7.29-4.42 7.51-12.17v-2.83h1.72c-.02 1.55-.07 2.85-.14 4zM227.53 283.5l-.38-1.66a10.61 10.61 0 0 0 1.33.09.6.6 0 0 0 .67-.66v-3.89c-.69.28-1.35.54-2 .77l-.43-1.73a22.49 22.49 0 0 0 2.45-.77v-3.76h-2.07v-1.64h2.05v-3.15h1.69v3.15h1.91v1.64h-1.91v3c.61-.32 1.23-.65 1.82-1v1.75c-.61.36-1.21.68-1.82 1v5.1a1.58 1.58 0 0 1-1.76 1.8zm14.47-8.86v1.59a9.81 9.81 0 0 1-2.56 4.14 19.6 19.6 0 0 0 4.13 1.89l-.92 1.47a21.41 21.41 0 0 1-4.45-2.32 16.73 16.73 0 0 1-5 2.38l-.94-1.44a17.51 17.51 0 0 0 4.58-2.07 8.94 8.94 0 0 1-2.61-4h-1v-1.66zm-1.12-6.95v3.76c0 .4.26.6.76.6h1.37v1.58h-1.84c-1.31 0-2-.59-2-1.78v-2.56h-3.1v.83a4.45 4.45 0 0 1-2.5 4l-1.13-1.31a2.81 2.81 0 0 0 2-2.54v-2.61zM238 279.34a9.42 9.42 0 0 0 2.27-3h-4.5a7.6 7.6 0 0 0 2.23 3zM250.89 269.33v-1.66h3.93a21.68 21.68 0 0 0 7.42 14.33l-1 1.48a23 23 0 0 1-7.13-11.34 19.67 19.67 0 0 1-7.36 11.3l-1-1.46q5.94-4.37 7.7-12.67zM247.32 192.59c-2.06 0-2.06-.44-4.12-.44s-2.06-.13-4.12-.13-2.06.12-4.12.12-2.06.18-4.12.18-2.06.37-4.11.37-2.06-.08-4.12-.08-2.06-.54-4.12-.54-2.06.16-4.12.16-2.06.1-4.12.1-2.06.42-4.12.42-2.06-.27-4.12-.27-2.06-.07-4.12-.07-2.06-.47-4.12-.47-2.06.35-4.12.35-2.06.52-4.12.52-2.06-.88-4.12-.88-2.06.1-4.12.1-2.06.3-4.12.3-2.06.41-4.13.41-2.06-.35-4.12-.35-2.06-.32-4.12-.32-2.06.48-4.12.48-2.06-.19-4.12-.19h-4.12c-2.06 0-2.07.34-4.13.34s-2.06-.07-4.12-.07-2.06-.36-4.12-.36-2.07-.27-4.13-.27-2.06.11-4.12.11-2.06.52-4.12.52-2.07-.39-4.13-.39h-4.12c-2.06 0-2.06-.42-4.13-.42s-2.06.68-4.12.68-2.06.14-4.12.14S101 192 99 192s-2.06.46-4.13.46-2.06-.12-4.12-.12-2.06-.35-4.12-.35-2.07.38-4.13.38-2.06.14-4.13.14-2.06-.23-4.12-.23-2.07.31-4.13.31-2.06-.48-4.12-.48-2.07-.26-4.13-.26-2.07.26-4.13.26-2.07-.37-4.13-.37-2.07 1-4.14 1a29.59 29.59 0 0 1-4.09-.81 30.42 30.42 0 0 1-4.1-.53 29.12 29.12 0 0 1-3.73-1.8 30.16 30.16 0 0 1-3.86-1.6 29.46 29.46 0 0 1-3.41-2.41 29.3 29.3 0 0 1-2.82-3.06c-.9-1-1.13-2.56-1.87-3.71s-2.23-1.91-2.8-3.16a30.69 30.69 0 0 1-1.29-4c-.38-1.3.09-2.79-.11-4.17a28.29 28.29 0 0 1-.71-4h-.19a29.12 29.12 0 0 1 .52-4.09 30.91 30.91 0 0 1 .48-4.12 29.06 29.06 0 0 1 1.67-3.79 28.82 28.82 0 0 1 1.92-3.65 29.52 29.52 0 0 1 2.61-3.19 29.4 29.4 0 0 1 2.92-2.88 28.91 28.91 0 0 1 3.31-2.42 30.3 30.3 0 0 1 3.44-2.3 29.19 29.19 0 0 1 4-1.14 27.26 27.26 0 0 1 4.07-.48c1.34-.19 2.64-1 4-1 2.07 0 2.07.49 4.13.49s2.06-.05 4.12-.05 2.06.34 4.11.34 2.06-.32 4.12-.32 2.06.26 4.12.26 2.06-.76 4.11-.76 2.06-.1 4.12-.1 2.06.42 4.12.42 2.06-.32 4.13-.32 2.06.25 4.12.25h4.11c2.06 0 2.06.52 4.12.52s2.06-.16 4.12-.16 2.06-.18 4.12-.18 2.06.32 4.13.32h4.11c2.05 0 2.06-.71 4.12-.71s2.06.69 4.13.69 2.06-.95 4.12-.95 2.06.71 4.12.71 2.06-.31 4.12-.31 2.06.08 4.12.08 2.07-.49 4.13-.49 2.06.36 4.12.36h4.12c2.06 0 2.06-.09 4.12-.09s2.07.07 4.13.07 2.06.56 4.12.56 2.06-.47 4.12-.47h4.13c2.06 0 2.06-.17 4.12-.17s2.06.08 4.13.08 2.06.08 4.12.08 2.06.42 4.12.42 2.06-.84 4.12-.84 2.07.67 4.13.67 2.06-.42 4.12-.42 2.06.14 4.12.14h4.13c2.06 0 2.06.09 4.12.09s2.07-.3 4.13-.3 2.06.36 4.13.36 2.06-.41 4.12-.41 2.07.69 4.13.69 2.06-.07 4.12-.07 2.07-.75 4.13-.75 2.07.77 4.14.77 2.06-.62 4.13-.62c1.39 0 2.71.78 4.05 1s2.83-.1 4.13.28a29 29 0 0 1 3.79 1.65 28.85 28.85 0 0 1 3.82 1.63 29.16 29.16 0 0 1 3 2.87 28.28 28.28 0 0 1 2.79 3 27.74 27.74 0 0 1 2.5 3.22 28.78 28.78 0 0 1 2.24 3.46 30.67 30.67 0 0 1 1.08 4 27.64 27.64 0 0 1 .88 4 28.77 28.77 0 0 1 .32 4.07h.44a28.89 28.89 0 0 1-.74 4.07 29.63 29.63 0 0 1-.65 4.06 28.63 28.63 0 0 1-1.54 3.81 28.3 28.3 0 0 1-2.28 3.39 27.51 27.51 0 0 1-8 9.27 30.89 30.89 0 0 1-3.69 2 29.14 29.14 0 0 1-4 1.12 27.29 27.29 0 0 1-3.95 1.31 30.4 30.4 0 0 1-4.19.07z"/><path class="cls-3" d="M247.32 185c-2.06 0-2.06-.5-4.12-.5s-2.06.8-4.12.8-2.06-.45-4.12-.45-2.06-.34-4.12-.34-2.06.89-4.11.89-2.06-.7-4.12-.7-2.06.46-4.12.46-2.06-.38-4.12-.38-2.06.5-4.12.5-2.06-.16-4.12-.16-2.06.15-4.12.15-2.06-.62-4.12-.62-2.06.07-4.12.07-2.06-.24-4.12-.24-2.06.16-4.12.16-2.06.27-4.12.27-2.06-.15-4.12-.15-2.06-.17-4.12-.17H169c-2.06 0-2.06.37-4.12.37s-2.06.39-4.12.39-2.06-.34-4.12-.34-2.06-.31-4.12-.31-2.06.47-4.12.47-2.07-.71-4.13-.71-2.06.6-4.12.6-2.06-.51-4.12-.51-2.07.7-4.13.7-2.06-.36-4.12-.36h-4.12c-2.07 0-2.07.12-4.13.12s-2.06-.17-4.12-.17-2.06-.14-4.13-.14-2.06.75-4.12.75h-4.12c-2.06 0-2.04-.45-4.04-.45h-4.17c-2.06 0-2.06-.21-4.12-.21s-2.06-.1-4.12-.1-2.07.45-4.13.45-2.06-.37-4.13-.37-2.06-.27-4.12-.27-2.07.57-4.13.57-2.06-.18-4.12-.18-2.07.39-4.13.39-2.07-.9-4.13-.9-2.07.91-4.13.91-2.07-.63-4.14-.63a28.83 28.83 0 0 1-4.07-.2c-1.37-.2-2.84 0-4.15-.35a30.92 30.92 0 0 1-3.92-1.4 29.45 29.45 0 0 1-3.66-2c-1.15-.74-1.9-2.07-2.94-3a29.48 29.48 0 0 1-3.06-2.74 29.72 29.72 0 0 1-2.06-3.56 29.15 29.15 0 0 1-2.09-3.41c-.57-1.24-1.75-2.28-2.14-3.6s0-2.81-.21-4.18a28.84 28.84 0 0 1-.19-4.07h-.6a30 30 0 0 1 .24-4.15c.2-1.37 1.17-2.57 1.55-3.87a26.82 26.82 0 0 1 1.51-3.76 28 28 0 0 1 1.84-3.62 28.17 28.17 0 0 1 2.17-3.48 29.59 29.59 0 0 1 3.23-2.54c1-.89 1.61-2.42 2.76-3.16a29.35 29.35 0 0 1 3.76-1.77c1.24-.57 2.72-.47 4-.86a29 29 0 0 1 4-.9 28.39 28.39 0 0 1 4-.22c2.07 0 2.07-.8 4.13-.8s2.06.18 4.12.18 2.06.66 4.11.66h4.12c2.06 0 2.06-.55 4.12-.55s2.06-.41 4.11-.41h4.12c2.06 0 2.06.7 4.12.7s2.06-.44 4.13-.44 2.06-.3 4.12-.3 2.05.25 4.11.25 2.06.64 4.12.64 2.06-.07 4.12-.07 2.06-.57 4.12-.57 2.06.61 4.13.61 2.06.13 4.11.13 2.06-.38 4.12-.38 2.06.15 4.13.15 2.06-.24 4.12-.24 2.06-.33 4.12-.33 2.06.33 4.12.33 2.06.41 4.12.41 2.07-.53 4.13-.53 2.06-.37 4.12-.37 2.06.49 4.12.49 2.06.12 4.12.12 2.07-.47 4.13-.47 2.06.29 4.12.29 2.06-.2 4.12-.2 2.07.52 4.13.52 2.06-.13 4.12-.13 2.06.09 4.13.09 2.06-.66 4.12-.66 2.06.3 4.12.3 2.06-.34 4.12-.34 2.07.68 4.13.68 2.06.07 4.12.07 2.06.23 4.12.23 2.07-.4 4.13-.4 2.06.17 4.12.17 2.07.08 4.13.08 2.06.12 4.13.12 2.06-.54 4.12-.54 2.07-.41 4.13-.41 2.06 1 4.12 1 2.07-.68 4.13-.68h8.27a30.34 30.34 0 0 1 4.16 0 30.2 30.2 0 0 1 4 1 29.89 29.89 0 0 1 3.69 1.9c1.25.58 2.78.69 3.93 1.43a29 29 0 0 1 3.06 2.82c1 .89 1.57 2.25 2.47 3.29a26.45 26.45 0 0 1 2.52 3.16c.74 1.14 2.05 2 2.63 3.24a30.18 30.18 0 0 1 1.31 3.93c.38 1.3 0 2.77.19 4.14a28.23 28.23 0 0 1 .44 4h-.07c0 1.39.66 2.81.47 4.15a28.3 28.3 0 0 1-1.31 3.93c-.39 1.33-.38 2.82-.94 4.06a30.06 30.06 0 0 1-2 3.66c-.74 1.16-2 1.93-2.94 3a30.18 30.18 0 0 1-3 2.77c-1 .9-1.74 2.25-2.9 3s-2.62.94-3.87 1.51a28.23 28.23 0 0 1-3.86 1.3 46.31 46.31 0 0 1-8 1.47z"/><path class="cls-8" d="M86.28 146.18c-.17 1.38-.35 2.69-.53 3.89h3.42v1.18a27.06 27.06 0 0 1-1.75 9.05 26.3 26.3 0 0 1 2.06 2.09L88.06 164c-.47-.55-1-1.13-1.57-1.73a16.89 16.89 0 0 1-3.34 4.24l-1.33-1.66a14.55 14.55 0 0 0 3.2-4c-.89-.85-1.87-1.74-2.93-2.67.49-1.86.91-3.9 1.29-6.08H82v-2h1.71c.2-1.33.38-2.69.55-4.09zm.94 5.91h-1.78c-.38 2.18-.75 4-1.15 5.48l1.6 1.36a24.72 24.72 0 0 0 1.33-6.84zm6.32 9.91a16.18 16.18 0 0 1-3.88 3.91l-1.2-1.58a15.7 15.7 0 0 0 3.73-3.53zm4.22-14v-2h2v2h1.93v1.82h-1.93v6.68h-3.24v1.69h5.71V160h-5.71v6.39h-2V160h-5.73v-1.91h5.69v-1.69h-3.27v-6.68h-2v-1.82h2v-2h2v2zm0 3.37v-1.55h-4.53v1.55zm0 1.73h-4.53v1.62h4.53zm4.69 11.3l-1.33 1.47a27 27 0 0 0-3.69-3.71l1.2-1.37a29.74 29.74 0 0 1 3.82 3.55zM112.54 152.62h.76v3.69h-1v8.35c0 1.11-.69 1.66-2 1.66H109l-.47-1.69a10.33 10.33 0 0 0 1.22.07c.54 0 .8-.22.8-.64v-1.58c-.75.29-1.57.55-2.46.82l-.29-1.06a10.1 10.1 0 0 1-1.6 4.21l-1.4-1.28a8.32 8.32 0 0 0 1.4-4.84v-4H105v-3.75h.82v-5.93h6.75zm-1 2.95v-1.39h-4.84v1.39zm-3.16-2.95v-2.93h2.4v-1.4h-3.31v4.33zm2.11 8.19v-3.64H108v1.16a23 23 0 0 1 2.33.66l-.56 1.38a13.65 13.65 0 0 0-1.77-.6v.4c0 .53 0 1-.09 1.49.92-.27 1.81-.53 2.63-.85zm.29-8.19v-1.49h-1v1.49zm12.97 5.38v4.48h-1.33l-.42 1.62h2.91v1.75h-11.79v-1.75h3.17l-.48-1.58h-1.29V158zm1-2.6v1.64h-11.16v-1.64zm-8-7.88v-1.49h1.8v1.49h1.31v-1.49h1.77v1.49h2.62v6.95h-10.1v-6.95zm.4 2.89v-1.36h-1.4v1.36zm0 1.31h-1.4v1.33h1.4zm4.85 7.78h-5.63v1.5H122zm-1.79 4.6l.42-1.58h-2.91l.49 1.58zm-1.62-13.65h1.31v-1.36h-1.31zm1.31 1.31h-1.31v1.33h1.31zm1.37-1.31h1.42v-1.36h-1.42zm1.42 1.31h-1.42v1.33h1.42zM133.23 166.48h-2v-5.78a14.51 14.51 0 0 1-3 4.93l-1.09-1.8a11.27 11.27 0 0 0 3.22-4.52h-2.84v-1.94h3.75v-1.73h-3.35v-8.9h8.59v8.9h-3.24v1.73h3.57v1.94h-3.57v.44c1.28.75 2.57 1.6 3.88 2.53L136 164c-1.07-1-2-1.84-2.75-2.44zm-1.87-16.06v-1.88h-1.62v1.88zm0 1.67h-1.62v1.8h1.62zm1.71-1.67h1.58v-1.88h-1.58zm1.58 1.67h-1.58v1.8h1.58zm3.68 8.57l-1.2-1.56c3-1.19 5-2.68 6.07-4.44l2 .23a10.73 10.73 0 0 1-1.16 1.71h3.55v1.64c-1.15 3.91-4.62 6.68-10.37 8.35l-1-1.82a18.42 18.42 0 0 0 5.52-2.18 12.31 12.31 0 0 0-1.93-1.89l1.4-1a11.26 11.26 0 0 1 1.93 1.91 8.86 8.86 0 0 0 2.38-3.22h-3.31a20.69 20.69 0 0 1-3.88 2.27zm2.8-11.3a13.5 13.5 0 0 1-3.24 2.69l-1.22-1.63a9.41 9.41 0 0 0 4.33-4.32l2 .24a12.89 12.89 0 0 1-.67 1.4h4.33v1.51c-1.11 3.46-3.93 5.9-8.45 7.35l-1.16-1.6a15.06 15.06 0 0 0 3.79-1.6 10.3 10.3 0 0 0-1.66-1.49l1.42-1a11 11 0 0 1 1.62 1.53 10.54 10.54 0 0 0 2.42-3zM156.62 146.76a29.93 29.93 0 0 1-2.11 4.89v14.89h-2.06V154.8c-.6.77-1.25 1.53-1.91 2.26l-.69-2.26a24.45 24.45 0 0 0 4.79-9zm5.48 6.33v-7h2.13v7h5.62v2h-5.62v3.11h6.22v2.06h-6.22v6.22h-2.13v-6.22H156v-2.06h6.1v-3.11h-5.44v-2zm-1.28-1.36l-2 .49a27 27 0 0 0-1.75-4.24l2-.66a24.41 24.41 0 0 1 1.75 4.41zm8.59-4.33a21.57 21.57 0 0 1-2 4.93l-1.93-.68a21.75 21.75 0 0 0 1.87-4.76zM178.57 146.07v3.73H183q0 11.32-.33 14c-.22 1.69-1.33 2.53-3.31 2.53-.35 0-.93 0-1.73-.11l-.53-1.93c.75.06 1.4.11 1.93.11a1.6 1.6 0 0 0 1.66-1.56c.14-1.08.2-4.75.25-11h-2.4v.6q-.1 9.72-4.29 14.21l-1.71-1.51c2.54-2.62 3.82-6.86 3.87-12.7v-.6h-3.35v-2.04h3.35v-3.73zm13.7 20.1h-2.07v-1.38h-3.42v1.38h-2.06v-17.63h7.55zm-2.07-3.42v-12.17h-3.42v12.17zM204.72 149.91v-1.33q-3 .13-6.4.13l-.62-1.84a100.61 100.61 0 0 0 14.9-.93l1 1.75a67.76 67.76 0 0 1-6.8.78v1.44h8.79v2h-8.79v5.68a23.25 23.25 0 0 0 9.11 5.8l-1.18 2a25 25 0 0 1-7.93-5.39v6.48h-2.08v-6.46a28.52 28.52 0 0 1-7.82 5.39l-1.31-1.95a25.41 25.41 0 0 0 9.13-5.95v-5.68h-8.82v-2zm-1.85 2.58v4l1.11-.2V158c-2.13.54-4.59 1-7.35 1.45l-.57-1.91c1.71-.2 3.3-.43 4.77-.65v-1.42h-4.22v-1.82h4.22v-1.13zm7.75 0v1.18l4.37-.38v1.85l-4.37.35v1c0 .36.27.54.82.54H215v1.82h-4.2c-1.51 0-2.24-.62-2.24-1.87v-4.53z"/></g></g></svg>