<svg xmlns="http://www.w3.org/2000/svg" viewBox="0 0 257.4 254.88"><defs><style>.cls-1,.cls-12,.cls-6,.cls-7,.cls-8{fill:none}.cls-2{fill:#fff}.cls-3{fill:#e9506c}.cls-4{fill:#001d2f}.cls-5{fill:#f5a117}.cls-6,.cls-8{stroke:#001d2f}.cls-12,.cls-6,.cls-7,.cls-8{stroke-linecap:round;stroke-linejoin:round}.cls-12,.cls-6{stroke-width:1.04px}.cls-12,.cls-7{stroke:#fff}.cls-7,.cls-8{stroke-width:.52px}.cls-9{fill:#633a7c}</style><clipPath id="clip-path"><path class="cls-1" d="M83.35 89.81L52.6 85.48s-13.55-.51-18 15.13l-16.45 81.84h69.3l-1.56-41.89 4.66-38.9s.75-9.79-7.2-11.85z"/></clipPath><clipPath id="clip-path-2"><path class="cls-1" d="M49.3 103.77l27.94 43 39.12 3.39-1.36 11.33-37.45-.18s-8.09.32-13.34-6.25l-27.93-34z"/></clipPath></defs><g id="Layer_2" data-name="Layer 2"><g id="圖層_1" data-name="圖層 1"><path class="cls-2" d="M133.71 153.19l-8.57-4.89s-4.91.37-5.36 1.18a11.08 11.08 0 0 0-.64 1.27H114l.42 7.86s8.13 4.25 8.56 4.66 5.28-.77 7.24-2.76l3.5-.09z"/><path class="cls-3" d="M132.06 1.21l11.36 23a2.2 2.2 0 0 0 1.64 1.19l25.4 3.69a2.17 2.17 0 0 1 1.2 3.7l-18.38 17.94a2.18 2.18 0 0 0-.62 1.92L157 78a2.17 2.17 0 0 1-3.15 2.29L131.13 68.3a2.15 2.15 0 0 0-2 0l-22.74 11.94a2.18 2.18 0 0 1-3.16-2.24l4.34-25.3a2.18 2.18 0 0 0-.62-1.92L88.57 32.81a2.17 2.17 0 0 1 1.2-3.7l25.4-3.69a2.2 2.2 0 0 0 1.64-1.19l11.36-23a2.17 2.17 0 0 1 3.89-.02z"/><path class="cls-4" d="M129 35.75a1.07 1.07 0 1 1-2.13 0 1.28 1.28 0 0 1 1.21-1.35c.7 0 .92.6.92 1.35zM131.2 35.75a1.07 1.07 0 1 0 2.13 0 1.28 1.28 0 0 0-1.21-1.35c-.67 0-.92.6-.92 1.35zM123.58 39.15c.23 5.16 5.67 5.16 6.54 5.16 1.22 0 6.3 0 6.53-5.16z"/><path class="cls-5" d="M214.07 35.85l-7.94 6.54a.84.84 0 0 1-.79.17l-9.9-2.83a.87.87 0 0 0-1.05 1.16l3.78 9.57a.9.9 0 0 1-.09.81l-5.75 8.53a.88.88 0 0 0 .78 1.36l10.27-.63a.89.89 0 0 1 .74.33l6.34 8.14a.87.87 0 0 0 1.53-.32l2.57-10a.89.89 0 0 1 .55-.6l9.67-3.52a.88.88 0 0 0 .16-1.56l-8.68-5.53a.86.86 0 0 1-.4-.7l-.37-10.28a.87.87 0 0 0-1.42-.64zM44 35.85l7.94 6.54a.86.86 0 0 0 .8.17l9.89-2.83a.87.87 0 0 1 1.05 1.16l-3.78 9.57a.86.86 0 0 0 .08.81l5.75 8.53a.87.87 0 0 1-.73 1.36l-10.28-.63a.86.86 0 0 0-.73.33L47.6 69a.87.87 0 0 1-1.53-.32l-2.57-10a.89.89 0 0 0-.55-.6l-9.66-3.52a.88.88 0 0 1-.17-1.56l8.68-5.53a.86.86 0 0 0 .4-.7l.37-10.28a.87.87 0 0 1 1.43-.64z"/><path class="cls-2" d="M126 102.22l-1.85-6.77a3.58 3.58 0 0 0-1.11-1.5 57.46 57.46 0 0 1-4.27-5.06s-1.81.67.71 4.8c0 0 .39 1.35-.26 1.23S106 91 106 91s-1.43.84 0 2c0 0-1.49 1-.07 1.82 0 0-1.16.9.33 2.06 0 0-.39 1.3 1.42 1.88a25.2 25.2 0 0 0 5.7 2.91l6.32 2.93zM198.19 94.61l-4.21-25.9-16.71-7.04-.1 13.01-5.36 4.25 5.07.4.26 8.24 5.77-.43.09 7.37h13.66l1.53.1z"/><path class="cls-4" d="M194 68.71s-21.09-8.93-20.75-8.7c0 0-2 4.6 4 7.92l9.75 4.48a4 4 0 0 0 1.88 4.59s1.87-2.85 3.21-1.28a1.83 1.83 0 0 1 .42 1.1 4 4 0 0 1-2.45 4 .44.44 0 0 0 0 .77l6.74 3.9zM179.8 75.42c0 .72-.32 1-.71.94s-.75-.3-.7-1 .39-1.29.78-1.27.67.61.63 1.33z"/><path class="cls-6" d="M178.64 81.69a3.49 3.49 0 0 0 3.85-1.2"/><path class="cls-3" d="M182.82 87.15l.11 1.91 4.8-2.01-4.91.1z"/><path class="cls-4" d="M177.64 94.08h32.15s13.51 1.1 16 17.15l7.21 69.44-71.4 1.68 7.45-38.19V105s.46-9.83 8.59-10.92z"/><path class="cls-4" d="M173.68 95.59l-32.74 26.93-13.54-21.14-10 3.79 14.26 26.93s4.34 7.31 12.44 4.15l28.74-15.9zM209.79 112l-32.86 39.38h-43.79v11.4l41.75 3s8 1.28 14-4.62l31.77-30.41z"/><path class="cls-2" d="M183 94.08l.71 38.05 14.48-38.05-12.64-2.54-2.55 2.54z"/><path class="cls-4" d="M183 102.94l6.46-5.99 5.06 6.79-5.43-4.44-6.09 3.64zM183 94.08l6.46 2.87 8.73-2.87-8.67 1.85-6.52-1.85z"/><path class="cls-7" d="M209.79 111.99l-32.86 39.38M165 165.11l9.9.65s8 1.28 14-4.62l31.77-30.41"/><path class="cls-8" d="M106 93.04l8.51 2.48M105.93 94.86l8.14 2.35M106.26 96.92l7.28 1.99"/><path class="cls-7" d="M130.12 105.63l-7.7 3.39M140.52 154.04l-.91 9.14"/><circle class="cls-2" cx="126.77" cy="104.14" r=".73"/><circle class="cls-2" cx="136.54" cy="160.03" r=".73"/><path class="cls-7" d="M180.25 94.08l-1.96 13.47 1.96 1.96-.98 7.63 4.44 14.99M201.61 94.61l-3.42 14.25-3.67 2.37-1.16 7.44-9.18 13.46M183.71 132.13l-.7 11.96M183.01 164.82v17.53"/><path class="cls-3" d="M185.95 100.2l3.51-3.25 2.72 3.66-2.05 3.13h-2.88l-1.3-3.54zM187.25 103.74l-3.77 15.93.23 12.46 5.76-15.13.66-13.26h-2.88z"/><path class="cls-2" d="M62.88 87.9l7.27-25.22 17.43-5-1.45 12.93 4.81 4.86-5.08-.21-1.24 8.15-5.68-1.11-.97 7.3-13.56-1.63-1.53-.07z"/><path class="cls-4" d="M70.15 62.68s22-6.35 21.64-6.17c0 0 1.48 4.82-4.91 7.39L76.6 67.18a4 4 0 0 1-2.38 4.34s-1.51-3-3-1.66a1.88 1.88 0 0 0-.55 1 4 4 0 0 0 2 4.26.44.44 0 0 1 0 .77L65.39 79zM83.42 71c0 .72.21 1 .6 1s.78-.21.82-.94-.24-1.32-.63-1.35-.74.6-.79 1.29z"/><path class="cls-6" d="M83.83 77.4a3.5 3.5 0 0 1-3.68-1.65"/><path class="cls-3" d="M79.03 82.31l-.34 1.89-4.52-2.57 4.86.68z"/><path class="cls-9" d="M83.35 89.81L52.6 85.48s-13.55-.51-18 15.13l-16.45 81.84h69.3l-1.56-41.89 4.66-38.9s.75-9.79-7.2-11.85z"/><g clip-path="url(#clip-path)"><path class="cls-5" d="M11.88 94h100.91v2.43H11.88zM11.88 106.85h100.91v2.43H11.88zM11.88 119.7h100.91v2.43H11.88zM11.88 132.56h100.91v2.43H11.88zM11.88 145.41h100.91v2.43H11.88zM11.88 158.26h100.91v2.43H11.88zM11.88 171.11h100.91v2.43H11.88z"/></g><path class="cls-9" d="M49.3 103.77l27.94 43 39.12 3.39-1.36 11.33-37.45-.18s-8.09.32-13.34-6.25l-27.93-34z"/><g clip-path="url(#clip-path-2)"><path class="cls-5" transform="rotate(-33.2 53.158 98.34)" d="M2.71 97.13h100.91v2.43H2.71z"/><path class="cls-5" transform="matrix(.84 -.55 .55 .84 -49.91 50.77)" d="M9.74 107.88h100.91v2.43H9.74z"/><path class="cls-5" transform="rotate(-33.2 67.236 119.85)" d="M16.78 118.64h100.91v2.43H16.78z"/><path class="cls-5" transform="matrix(.84 -.55 .55 .84 -59.39 61.99)" d="M23.82 129.39h100.91v2.43H23.82z"/><path class="cls-5" transform="rotate(-33.2 81.315 141.36)" d="M30.85 140.14h100.91v2.43H30.85z"/><path class="cls-5" transform="matrix(.84 -.55 .55 .84 -68.87 73.21)" d="M37.89 150.9H138.8v2.43H37.89z"/><path class="cls-5" transform="matrix(.84 -.55 .55 .84 -73.61 78.81)" d="M44.93 161.65h100.91v2.43H44.93z"/></g><path class="cls-2" d="M78.05 89.1l-7.65 5.68-7.26-7.8.43-1.5 12.23.87 2.25 2.75z"/><path class="cls-4" d="M77.24 146.78L49.3 103.77l29.94 40.84 6.92 2.94-8.92-.77zM36.28 121.08l27.93 34c5.25 6.57 13.34 6.25 13.34 6.25l9 .25.16 3.83-20-1.37z"/><path class="cls-8" d="M119.14 150.75l-.69 1s-.27.85 1.56.27l4.25-2M122.57 150.86a10.49 10.49 0 0 0 5.89 2.26"/><path class="cls-12" d="M25.29 88.37l4.1.89M7.47 84.52l12.23 2.64M15.57 103.67l13.85-5M8.33 106.28l3.78-1.36M25.35 71.01l9.62 7.83M17.58 64.68l3.68 3M232.01 84.75l-4.09.89M249.83 80.89l-12.22 2.65M241.74 100.05l-13.85-5.01M248.98 102.66l-3.78-1.37M231.95 67.39l-9.61 7.83M239.73 61.06l-3.68 2.99"/><path class="cls-2" d="M140.55 88.22l2.3 1.9a.24.24 0 0 0 .23 0l2.87-.82a.25.25 0 0 1 .3.34l-1.09 2.77a.29.29 0 0 0 0 .24l1.67 2.47a.25.25 0 0 1-.22.39l-3-.18a.26.26 0 0 0-.22.1l-1.84 2.35a.25.25 0 0 1-.44-.1l-.75-2.88a.27.27 0 0 0-.15-.18l-2.81-1a.26.26 0 0 1-.05-.45l2.52-1.6a.3.3 0 0 0 .12-.21l.1-3a.26.26 0 0 1 .46-.14z"/><path d="M110.48 124.7l.83 3.63a.34.34 0 0 0 .2.22l3.45 1.36a.31.31 0 0 1 .05.56l-3.18 1.92a.33.33 0 0 0-.16.25l-.22 3.71a.32.32 0 0 1-.52.22l-2.81-2.44a.31.31 0 0 0-.29-.06l-3.6.93a.31.31 0 0 1-.36-.43l1.45-3.42a.32.32 0 0 0 0-.3l-2-3.13a.31.31 0 0 1 .3-.48l3.7.32a.31.31 0 0 0 .27-.12l2.37-2.86a.31.31 0 0 1 .52.12z" fill="#f2f3f2"/><path class="cls-5" d="M237.23 130.31l-.95 4.64a.44.44 0 0 0 .11.36l3.29 3.4a.41.41 0 0 1-.25.68l-4.7.54a.4.4 0 0 0-.31.21l-2.22 4.18a.4.4 0 0 1-.72 0l-2-4.31a.41.41 0 0 0-.3-.23l-4.66-.82a.4.4 0 0 1-.2-.69l3.49-3.2a.38.38 0 0 0 .12-.35l-.65-4.69a.39.39 0 0 1 .59-.4l4.12 2.33a.44.44 0 0 0 .37 0l4.26-2.08a.41.41 0 0 1 .61.43z"/><path d="M32.56 129.92l-.94 4.64a.37.37 0 0 0 .1.35l3.28 3.41a.4.4 0 0 1-.24.68l-4.71.53a.41.41 0 0 0-.3.21l-2.23 4.18a.4.4 0 0 1-.72 0l-2-4.3a.41.41 0 0 0-.3-.23l-4.66-.83a.4.4 0 0 1-.2-.68l3.49-3.2a.44.44 0 0 0 .13-.36l-.66-4.68a.4.4 0 0 1 .59-.41l4.12 2.33a.38.38 0 0 0 .37 0l4.32-2.08a.4.4 0 0 1 .56.44z" fill="#c9caca"/><path class="cls-4" d="M219.6 254.34c-2.07 0-2.07-.16-4.13-.16s-2.07.67-4.14.67-2.07-.8-4.13-.8-2.07.21-4.14.21-2.07.62-4.14.62-2.07-.9-4.14-.9-2.06.38-4.13.38-2.07.18-4.14.18-2.07.09-4.13.09-2.07-.07-4.14-.07-2.07-.26-4.14-.26-2.07.5-4.14.5-2.07-.63-4.14-.63h-4.14c-2.07 0-2.07-.22-4.14-.22s-2.07.46-4.14.46-2.06.12-4.13.12-2.07-.46-4.14-.46h-4.14c-2.07 0-2.07.82-4.14.82h-4.14c-2.07 0-2.07-.4-4.14-.4s-2.07.35-4.14.35-2.07-.33-4.14-.33-2.07-.25-4.14-.25-2.07-.26-4.15-.26-2.07.33-4.14.33-2.08.27-4.15.27-2.07-.47-4.14-.47-2.07.49-4.14.49-2.07-.76-4.14-.76-2.07 1-4.14 1-2.07-.07-4.14-.07-2.07-.52-4.14-.52H70.6c-2.07 0-2.07.37-4.14.37s-2.08-.61-4.15-.61-2.07-.08-4.14-.08-2.07.81-4.14.81-2.08-.72-4.15-.72-2.07.18-4.14.18-2.08.55-4.15.55-2.08-.33-4.15-.33a37.24 37.24 0 0 1-4.23 0A39.18 39.18 0 0 1 29 254a39.42 39.42 0 0 1-4-1.49 37.9 37.9 0 0 1-3.77-1.89 36 36 0 0 1-3.57-2.16c-1.19-.74-2.79-.93-3.88-1.81s-1.47-2.55-2.46-3.54-2.32-1.65-3.2-2.75a38.38 38.38 0 0 1-2.07-3.66c-.74-1.18-1.89-2.13-2.5-3.39s-.61-2.76-1.08-4.09a38.05 38.05 0 0 1-1.05-4c-.3-1.35-1.09-2.62-1.25-4A39 39 0 0 1 0 217h.14a38.39 38.39 0 0 1 .19-4.18 38.54 38.54 0 0 1 .35-4.21 39.56 39.56 0 0 1 .95-4.14 37.38 37.38 0 0 1 2-3.76c.61-1.27 1.74-2.22 2.49-3.4s.87-2.82 1.74-3.92a38.84 38.84 0 0 1 3.14-2.84 38 38 0 0 1 3-2.92 36.09 36.09 0 0 1 3.6-2.16 35.23 35.23 0 0 1 3.78-1.77 39.35 39.35 0 0 1 3.7-1.93 37.13 37.13 0 0 1 4.1-.8 35.38 35.38 0 0 1 4-1.08 36.48 36.48 0 0 1 4.19-.63h4.13c2.07 0 2.07-.09 4.13-.09s2.07.18 4.14.18H54c2.07 0 2.07.41 4.14.41s2.06.11 4.13.11 2.07-.57 4.14-.57 2.07.4 4.13.4 2.07.3 4.14.3 2.07-.67 4.14-.67 2.07.48 4.14.48 2.07-.61 4.14-.61 2.06.87 4.13.87 2.07-.24 4.14-.24 2.07.18 4.14.18 2.07-.39 4.14-.39 2.07.48 4.14.48 2.07-.83 4.14-.83 2.07.79 4.14.79 2.07-.68 4.14-.68 2.07-.2 4.14-.2 2.07.06 4.14.06 2.07.8 4.14.8 2.07-.43 4.14-.43 2.07-.09 4.14-.09 2.07-.31 4.14-.31 2.07.29 4.14.29 2.07-.23 4.14-.23 2.07.33 4.14.33 2.07-.29 4.14-.29 2.07.3 4.14.3 2.07-.19 4.14-.19 2.07.64 4.14.64 2.07-.91 4.14-.91 2.07.31 4.14.31 2.07.23 4.15.23 2.07.06 4.14.06 2.07-.4 4.14-.4 2.07.51 4.15.51 2.07-.25 4.14-.25h8.29c2.07 0 2.07.17 4.15.17s2.07-.43 4.15-.43c1.42 0 2.78.63 4.15.78a36.27 36.27 0 0 1 4.07.86c1.38.31 3-.17 4.28.29a35.63 35.63 0 0 1 4 1.56 38 38 0 0 1 3.58 2.28 36.35 36.35 0 0 1 3.45 2.44c1.09.87 1.66 2.32 2.65 3.31a37.67 37.67 0 0 1 3.07 2.84 40.18 40.18 0 0 1 2.81 3.18 39.58 39.58 0 0 1 1.64 3.9 38.37 38.37 0 0 1 2 3.73c.45 1.31.33 2.81.65 4.19a39.67 39.67 0 0 1 .52 4.14 37.67 37.67 0 0 1 .32 4.15h-.09a38.64 38.64 0 0 1 0 4.17c-.16 1.41.15 2.9-.16 4.25s-1.32 2.56-1.78 3.87a34.12 34.12 0 0 1-1.68 3.81 38.31 38.31 0 0 1-1.62 3.89 38 38 0 0 1-2.8 3.15 39.32 39.32 0 0 1-2.62 3.26 38.73 38.73 0 0 1-2.82 3.16c-1.1.88-2.61 1.18-3.8 1.93a37.57 37.57 0 0 1-3.45 2.43 39.42 39.42 0 0 1-3.91 1.58c-1.31.45-2.78.41-4.15.73a37.52 37.52 0 0 1-4.06 1.13 37 37 0 0 1-4.27-.02z"/><path class="cls-2" d="M219.6 243.8c-2.07 0-2.07.83-4.13.83s-2.07-.64-4.14-.64-2.07-.25-4.13-.25-2.07 1-4.14 1-2.07-.67-4.14-.67-2.07.66-4.14.66-2.06-.7-4.13-.7-2.07.63-4.14.63-2.07-.36-4.13-.36-2.07-.55-4.14-.55-2.07.85-4.14.85-2.07-.27-4.14-.27-2.07-.4-4.14-.4-2.07.25-4.14.25-2.07.47-4.14.47-2.07-.31-4.14-.31-2.06-.32-4.13-.32-2.07.66-4.14.66-2.07-.77-4.14-.77-2.07.7-4.14.7-2.07-.07-4.14-.07-2.07-.72-4.14-.72-2.07.22-4.14.22-2.07-.24-4.14-.24-2.07.11-4.14.11-2.07.2-4.14.2-2.07.09-4.14.09-2.08-.27-4.15-.27h-4.14c-2.07 0-2.07.55-4.14.55s-2.07-.7-4.14-.7-2.07.45-4.14.45-2.07.47-4.14.47-2.07-.57-4.14-.57-2.07.3-4.14.3-2.07-.32-4.14-.32-2.07.58-4.14.58-2.08-.82-4.15-.82-2.07.08-4.14.08-2.07.76-4.14.76-2.08-.92-4.15-.92-2.07.46-4.14.46-2.08-.27-4.15-.27-2.08.73-4.15.73a39.14 39.14 0 0 1-4.23-.32 37.72 37.72 0 0 1-4.16-.79 36.12 36.12 0 0 1-4-1.38 36.5 36.5 0 0 1-3.66-2.06 35.51 35.51 0 0 1-3.82-1.71 35.93 35.93 0 0 1-3.57-2.3 38.08 38.08 0 0 1-2.8-3.15c-1-1-2.34-1.66-3.21-2.75s-1.16-2.6-1.9-3.79a35.39 35.39 0 0 1-2.41-3.44A35.57 35.57 0 0 1 2 219.21a37.41 37.41 0 0 1-1.56-4A36.74 36.74 0 0 1 .09 211a37.22 37.22 0 0 1 .13-4.21 37 37 0 0 1 0-4.21 35.13 35.13 0 0 1 1-4.07 37 37 0 0 1 .78-4.09 39 39 0 0 1 1.25-4.06c.61-1.26 2.1-2 2.84-3.22s.82-2.86 1.69-3.95a36.91 36.91 0 0 1 3-3 40 40 0 0 1 3.28-2.65 39.41 39.41 0 0 1 3.26-2.69 37.32 37.32 0 0 1 3.89-1.67 35.48 35.48 0 0 1 3.88-1.59 38 38 0 0 1 4-1.26 41 41 0 0 1 4.19-.23c1.37-.15 2.72-.85 4.14-.85 2.06 0 2.06.4 4.13.4s2.07.17 4.13.17 2.07-.29 4.14-.29 2.07-.29 4.14-.29 2.07-.29 4.14-.29 2.06.85 4.13.85 2.07-.06 4.14-.06 2.07-.2 4.13-.2 2.07-.26 4.14-.26 2.07.13 4.14.13h8.28c2.07 0 2.06-.43 4.13-.43s2.07.75 4.14.75 2.07-.44 4.14-.44 2.07-.27 4.14-.27 2.07.09 4.14.09 2.07-.15 4.14-.15 2.07.58 4.14.58 2.07-.09 4.14-.09 2.07.38 4.14.38 2.07-.28 4.14-.28 2.07-.33 4.14-.33 2.07.38 4.14.38 2.07-.14 4.14-.14 2.07.29 4.14.29 2.07-.43 4.14-.43 2.07-.25 4.14-.25 2.07.84 4.14.84 2.07-.5 4.14-.5 2.07-.13 4.14-.13 2.07.13 4.14.13 2.07.49 4.14.49 2.07-.55 4.14-.55 2.07.32 4.14.32 2.07-.24 4.15-.24 2.07.1 4.14.1 2.07-.2 4.14-.2 2.07.53 4.15.53 2.07-.24 4.14-.24 2.07-.14 4.14-.14 2.08-.57 4.15-.57h4.15c2.08 0 2.07.15 4.15.15 1.42 0 2.77.87 4.14 1s2.93-.45 4.28-.14 2.48 1.56 3.79 2a37 37 0 0 1 3.89 1.46 36.1 36.1 0 0 1 3.75 1.83 35.57 35.57 0 0 1 3.25 2.63c1.09.88 2.65 1.24 3.64 2.23s1.28 2.6 2.15 3.7 2.37 1.74 3.11 2.93 1 2.67 1.58 3.93a36.92 36.92 0 0 1 1.95 3.74 39.51 39.51 0 0 1 1.35 4 42.09 42.09 0 0 1 .21 4.24 38.33 38.33 0 0 1 .68 4.18c0 1.41-.91 2.76-1.06 4.14a38.51 38.51 0 0 1-.23 4.19 36.43 36.43 0 0 1-1 4.09 39.09 39.09 0 0 1-1.73 3.84 37.36 37.36 0 0 1-2.38 3.47 38.55 38.55 0 0 1-2.31 3.46 39.53 39.53 0 0 1-2.7 3.19c-1 1-1.66 2.38-2.76 3.25s-2.74 1-3.93 1.72-2 2.14-3.28 2.75-2.86.39-4.19.86a38.25 38.25 0 0 1-3.91 1.47 35.7 35.7 0 0 1-4.1 1c-1.32.23-2.77-.42-4.17-.42z"/><path class="cls-4" d="M37.71 184.75q6.42 0 6.42 5.47c0 3.67-2.17 5.51-6.47 5.51H33v7h-2.74v-18zM33 193.39h4.48a4.68 4.68 0 0 0 3-.76 3 3 0 0 0 .93-2.41 2.74 2.74 0 0 0-1-2.37 4.72 4.72 0 0 0-3-.76H33zM57.77 191.32a7.08 7.08 0 0 1 1.76 4.91 6.9 6.9 0 0 1-1.73 4.86 6.69 6.69 0 0 1-9.52 0 7.68 7.68 0 0 1 0-9.77 6.69 6.69 0 0 1 9.46 0zm-7.6 1.68a5.31 5.31 0 0 0-.88 3.22 5.24 5.24 0 0 0 .88 3.2 3.32 3.32 0 0 0 2.83 1.47 3.39 3.39 0 0 0 2.89-1.46 6.12 6.12 0 0 0 0-6.42 3.35 3.35 0 0 0-2.89-1.46 3.28 3.28 0 0 0-2.83 1.45zM64.27 189.71l2.73 9.85 2.67-9.85h2.47l2.66 9.85 2.75-9.85h2.95l-4.4 13h-2.47L70.91 193l-2.72 9.74h-2.46l-4.41-13zM93.14 191.53A8.83 8.83 0 0 1 94.7 197h-9.87a4.81 4.81 0 0 0 1 2.92 3.21 3.21 0 0 0 2.49 1 3.69 3.69 0 0 0 2.26-.65 4.58 4.58 0 0 0 1.19-1.69h2.67a6 6 0 0 1-1.79 3 6.37 6.37 0 0 1-4.31 1.48 5.93 5.93 0 0 1-4.55-1.79 7 7 0 0 1-1.79-5.06 7.07 7.07 0 0 1 1.71-4.86 5.62 5.62 0 0 1 4.56-2 5.73 5.73 0 0 1 4.87 2.18zm-7.17.9a4.36 4.36 0 0 0-1.09 2.57h7c-.25-2.27-1.44-3.4-3.55-3.4a3.19 3.19 0 0 0-2.33.83zM105.32 189.69v2.67a6.35 6.35 0 0 0-1.88-.28 3 3 0 0 0-2.17 1 3.84 3.84 0 0 0-1 2.77v6.9H97.6v-13h2.66v2a3.9 3.9 0 0 1 1.26-1.59 3.22 3.22 0 0 1 2.12-.73 3.73 3.73 0 0 1 1.68.26zM118 191.53a8.83 8.83 0 0 1 1.56 5.43h-9.87a4.81 4.81 0 0 0 1 2.92 3.21 3.21 0 0 0 2.49 1 3.67 3.67 0 0 0 2.26-.65 4.47 4.47 0 0 0 1.19-1.69h2.67a5.86 5.86 0 0 1-1.79 3 6.35 6.35 0 0 1-4.31 1.48 5.93 5.93 0 0 1-4.55-1.79 7.86 7.86 0 0 1-.1-9.94 5.58 5.58 0 0 1 4.55-2 5.73 5.73 0 0 1 4.9 2.24zm-7.17.9a4.43 4.43 0 0 0-1.13 2.57h7c-.25-2.27-1.44-3.4-3.55-3.4a3.19 3.19 0 0 0-2.36.83zM134.45 184.4v18.33H132v-1.56a4.69 4.69 0 0 1-4 1.91 5.47 5.47 0 0 1-4.51-2 7.62 7.62 0 0 1-1.51-4.88 7.36 7.36 0 0 1 1.49-4.76 5.28 5.28 0 0 1 4.4-2 4.7 4.7 0 0 1 4 2.29v-7.33zm-9 8.46a5.51 5.51 0 0 0-.83 3.3 6.06 6.06 0 0 0 .78 3.35 3.21 3.21 0 0 0 2.89 1.41 3.16 3.16 0 0 0 2.7-1.39 5.66 5.66 0 0 0 .83-3.19v-.23a5.43 5.43 0 0 0-1-3.4 3 3 0 0 0-2.44-1.18 3.29 3.29 0 0 0-2.89 1.33zM149.78 184.4v7.25a4.68 4.68 0 0 1 4-2.29 5.34 5.34 0 0 1 4.41 2 8.52 8.52 0 0 1 0 9.64 5.48 5.48 0 0 1-4.51 2 4.66 4.66 0 0 1-4-1.91v1.56h-2.49V184.4zm1 8.31a5.15 5.15 0 0 0-1 3.4v.23a5.58 5.58 0 0 0 .83 3.19 3.1 3.1 0 0 0 2.69 1.39 3.26 3.26 0 0 0 2.9-1.41 6.33 6.33 0 0 0 .78-3.35 5.58 5.58 0 0 0-.83-3.3 3.3 3.3 0 0 0-2.92-1.33 2.83 2.83 0 0 0-2.49 1.18zM164.31 189.71l3.57 9.5 3.43-9.5h2.92l-7.08 18h-2.84l2.26-5.28-5.16-12.72zM194.89 191.45v-1.74h2.67v12.16c0 4.13-2 6.2-6.06 6.2a7.21 7.21 0 0 1-4.16-1 4.78 4.78 0 0 1-1.79-3.2h2.67a2.34 2.34 0 0 0 1 1.63 4.41 4.41 0 0 0 2.32.48c2.26 0 3.39-1.23 3.39-3.67v-2a4.5 4.5 0 0 1-4 2.17 5.55 5.55 0 0 1-4.28-1.79 6.56 6.56 0 0 1-1.64-4.71 6.68 6.68 0 0 1 1.64-4.73 5.39 5.39 0 0 1 4.28-1.84 4.49 4.49 0 0 1 3.96 2.04zm-6.19 1.26a4.8 4.8 0 0 0-1 3.22 5.26 5.26 0 0 0 .76 3 3.18 3.18 0 0 0 2.82 1.31 3.34 3.34 0 0 0 2.72-1.14 5.07 5.07 0 0 0 .93-3.17 5.18 5.18 0 0 0-.93-3.22 3.22 3.22 0 0 0-2.67-1.18 3.05 3.05 0 0 0-2.63 1.18zM212.16 187.07a14.79 14.79 0 0 1 0 13.34 5.85 5.85 0 0 1-9.82 0 14.87 14.87 0 0 1 0-13.34 5.85 5.85 0 0 1 9.82 0zm-8 2.09a12.61 12.61 0 0 0-.65 4.58 12.79 12.79 0 0 0 .65 4.58 3.22 3.22 0 0 0 6.25 0 13.5 13.5 0 0 0 .65-4.58 13.29 13.29 0 0 0-.65-4.58 3.22 3.22 0 0 0-6.25 0zM218.46 189.71l3.27 9.7 3.27-9.7h2.9l-4.84 13h-2.67l-4.83-13zM77.69 211.37a28.31 28.31 0 0 0 8.71 6.48l-1 1.84a27 27 0 0 1-8.4-6.62 27.74 27.74 0 0 1-8.45 6.64l-1-1.84a28.42 28.42 0 0 0 8.77-6.5zm.82 5.39v4.3h5.32v1.82h-5.32v4.42h6.77v1.85H68.46v-1.85h2.89v-7.65h1.89v7.65h3.37v-10.54zM96.67 211.35v2.91h1.67v-2.91h1.84v2.91h1.41a18.94 18.94 0 0 0 1.4-2.63l1.77.66a17.27 17.27 0 0 1-1.27 2h2.87v1.66h-5.6l1.55.54a11.22 11.22 0 0 1-.88 1.29h4v1.66h-6.91v1.11h6v1.58h-6v1.11h7.82v1.68h-7.82v5h-1.93v-5h-7.82v-1.68h7.82v-1.14h-6v-1.58h6v-1.11h-6.92v-1.66h4a11.17 11.17 0 0 0-.88-1.35l1.3-.48h-5.34v-1.66h2.84a10.8 10.8 0 0 0-1.16-1.95l1.79-.66a15.59 15.59 0 0 1 1.22 2.61h1.39v-2.91zm-2 15a17.83 17.83 0 0 1-4.56 3.25L89 228.1a17.24 17.24 0 0 0 4.47-2.85zm0-10.46a14.17 14.17 0 0 1 1 1.83h3.65a15.84 15.84 0 0 0 1.1-1.83zm11.37 12.34l-1.36 1.37a24.25 24.25 0 0 0-4.2-3.15l1.23-1.19a31.38 31.38 0 0 1 4.37 3zM119 220a19.67 19.67 0 0 1 1.81 2.14l-1.33 1.09a17 17 0 0 0-1.74-2.15 20.94 20.94 0 0 0-2.31-2.11l1.15-1A17.25 17.25 0 0 1 119 220zM130.16 213.84a4.44 4.44 0 0 0 1.34-2.27l1.41.22c-.08.26-.14.52-.22.76h1.2v-1.12h1.73v1.12h2.24v1.37h-2.24v1H138v1.44h-1.78v1.31l1.78-.58.28 1.3a25.75 25.75 0 0 1-3.43 1.08l-.64-1.32c.3-.16.46-.34.46-.54v-1.25h-1.2a4 4 0 0 1-2.83 3.84l-1-1.31a4.56 4.56 0 0 0 1.84-1.16 3.07 3.07 0 0 0 .52-1.37h-2v-1.46h1zm15.23 5.75v7.57h-4.18a53 53 0 0 1 6.5 1.3l-.6 1.51a44.27 44.27 0 0 0-6.9-1.65l.58-1.16h-4.57l.84 1.12a28.08 28.08 0 0 1-6.6 1.65l-.8-1.39a29.25 29.25 0 0 0 6.28-1.38h-4v-7.57zm-14.13-4.69h2.63v-1H132a5.6 5.6 0 0 1-.74 1zm12.34 6.9v-.88h-9.83v.88zm0 2v-.8h-9.83v.78zm0 1.22h-9.83v.78h9.83zm-5.06-11.09a4.4 4.4 0 0 0 1.45-2.31l1.4.24c-.08.24-.14.48-.22.72h1.13v-1.12h1.7v1.12h2.61v1.37H144v1h3.23v1.44h-2.56v1.09c0 .24.1.38.34.38h.5a1 1 0 0 0 .36-.06c.1-.08.18-.4.22-1l1.36.45A3.45 3.45 0 0 1 147 219a2.1 2.1 0 0 1-1.14.24h-1.36a1.41 1.41 0 0 1-1-.38 1.53 1.53 0 0 1-.36-1v-1.43h-1a4.67 4.67 0 0 1-.53 1.69 4.52 4.52 0 0 1-1.78 1.38l-1-1.22a4 4 0 0 0 1.4-.9 2.25 2.25 0 0 0 .38-.95h-1.92v-1.53h.68zm1.13 1h2.63v-1h-1.79a6.75 6.75 0 0 1-.84.97zM158.43 224.53c.4-.14.82-.28 1.22-.4V226a79 79 0 0 1-9.11 2.58l-.52-1.82c.46-.1.9-.2 1.35-.28v-14h7.06zm-1.89-7.78v-2.57h-3.23v2.57zm0 4.37v-2.67h-3.23v2.67zm0 4v-2.27h-3.23V226c1.13-.31 2.21-.61 3.23-.89zm7-13.66V215h4.37c0 6.7-.1 10.81-.3 12.38s-1.27 2.29-3.15 2.29c-.32 0-.86 0-1.63-.08l-.44-1.69c.68.06 1.27.1 1.77.1a1.49 1.49 0 0 0 1.62-1.44q.18-1.46.24-9.75h-2.48v.36c-.06 5.84-1.45 10.11-4.14 12.82l-1.52-1.35c2.44-2.36 3.69-6.2 3.73-11.47v-.36h-2.27V215h2.27v-3.57zM178 213.27v-2h1.93v2h4.45v1.79h-4.45V217h2.37a24.41 24.41 0 0 0 4.81-4.42l1.43 1.06a27.49 27.49 0 0 1-3.28 3.36h3.62v1.8h-6l-.73.46c-.74.44-1.58.91-2.54 1.37h6.8v9.27h-1.91v-.76h-8.08v.76h-1.93v-7.1l-3.13 1.13-.78-1.77a33.1 33.1 0 0 0 8.81-3.35h-8.51V217H178v-1.95h-5.46v-1.79zm6.5 9h-8.08V224h8.08zm-8.08 5.18h8.08v-1.81h-8.08z"/></g></g></svg>