<svg xmlns="http://www.w3.org/2000/svg" viewBox="0 0 298.45 308.81"><defs><style>.cls-1,.cls-15,.cls-17,.cls-19,.cls-4,.cls-5{fill:none}.cls-2{fill:#f5a117}.cls-4{stroke:#633a7c}.cls-17,.cls-19,.cls-4,.cls-5{stroke-linecap:round;stroke-linejoin:round}.cls-15,.cls-17,.cls-4,.cls-5{stroke-width:1.04px}.cls-5{stroke:#fff}.cls-6{fill:#c9caca}.cls-8{fill:#e9506c}.cls-9{fill:#f2f3f2}.cls-10{fill:#ef8575}.cls-11{fill:#001d2f}.cls-13{fill:#fff}.cls-15,.cls-17,.cls-19{stroke:#001d2f}.cls-15{stroke-miterlimit:10}.cls-19{stroke-width:1.56px}</style><clipPath id="clip-path"><path class="cls-1" d="M52.89 104.54h72.75v48.41H52.89z"/></clipPath><clipPath id="clip-path-2"><path class="cls-1" d="M174.57 113.72h69.1v37.38h-69.1z"/></clipPath><clipPath id="clip-path-3"><path class="cls-1" d="M109.11 89.06h76.63v56.04h-76.63z"/></clipPath></defs><g id="Layer_2" data-name="Layer 2"><g id="圖層_1" data-name="圖層 1"><path class="cls-2" d="M125.81 153.12c-1 1-1.62 0-3.07 0s-1.46-.4-2.91-.4-1.46.31-2.91.31-1.46-.18-2.91-.18-1.45.19-2.91.19h-2.91c-1.46 0-1.45-.35-2.91-.35s-1.45.14-2.9.14-1.46.14-2.91.14-1.45-.13-2.9-.13-1.46-.13-2.91-.13h-2.91c-1.45 0-1.46.37-2.91.37s-1.46-.31-2.91-.31-1.46.3-2.91.3-1.46-.21-2.91-.21-1.46-.14-2.91-.14-1.46.19-2.91.19-1.46.23-2.92.23-1.45-.27-2.9-.27-1.46-.12-2.92-.12h-2.91c-1.46 0-1.46-.11-2.91-.11s-1.46.15-2.92.15-1.76 1-2.81 0-.06-1.3-.06-2.72-.18-1.42-.18-2.84.27-1.43.27-2.85v-2.85c0-1.43-.29-1.42-.29-2.84v-2.85c0-1.42.26-1.38.26-2.84s-.16-1.42-.16-2.84.1-1.43.1-2.85-.07-1.43-.07-2.85v-2.85c0-1.43-.11-1.42-.11-2.85s-.06-1.42-.06-2.84.34-1.43.34-2.85v-2.85c0-1.42-.26-1.43-.26-2.86s-.7-1.7.32-2.7 1.3-.4 2.75-.4 1.45.21 2.91.21 1.45.14 2.91.14h2.9c1.46 0 1.46-.27 2.91-.27s1.46.07 2.91.07 1.46.31 2.91.31 1.45-.09 2.91-.09h2.9c1.45 0 1.46-.19 2.91-.19s1.45-.12 2.91-.12 1.45.15 2.91.15h2.91c1.46 0 1.45.14 2.9.14s1.46-.19 2.92-.19h2.91c1.46 0 1.45-.06 2.91-.06s1.45.14 2.91.14 1.45.23 2.91.23 1.46-.22 2.91-.22 1.46.17 2.91.17 1.46-.11 2.91-.11 1.46.17 2.92.17 1.46-.2 2.92-.2 1.75-1 2.79.07.34 1.3.34 2.72-.46 1.42-.46 2.84.06 1.43.06 2.85.33 1.42.33 2.84v2.85c0 1.42-.29 1.42-.29 2.85s.19 1.42.19 2.84v2.85c0 1.42.21 1.42.21 2.85s-.29 1.42-.29 2.85V138.64c0 1.42-.14 1.43-.14 2.85s.11 1.43.11 2.85.11 1.43.11 2.85-.53 1.5-.19 2.88c.36 1.63 1.28 2.05.26 3.05z"/><path class="cls-2" d="M125.67 153c-1 1-1.48 0-2.93 0s-1.46-.08-2.91-.08h-14.56c-1.46 0-1.45-.1-2.9-.1s-1.46.29-2.91.29S98 153 96.57 153s-1.46-.07-2.91-.07-1.46-.21-2.91-.21-1.46.34-2.91.34-1.46-.08-2.91-.08-1.46-.24-2.91-.24-1.46.28-2.91.28-1.46-.02-2.91-.02-1.46.18-2.91.18-1.46-.26-2.92-.26-1.45-.19-2.9-.19-1.47.27-2.92.27-1.45-.1-2.91-.1-1.46.21-2.91.21-1.46-.12-2.92-.12-2 1.11-3 .09 0-1.5 0-2.92.35-1.42.35-2.84-.1-1.43-.1-2.85-.2-1.42-.2-2.85.13-1.42.13-2.84-.06-1.43-.06-2.85.21-1.42.21-2.85-.07-1.42-.07-2.84-.31-1.43-.31-2.85.09-1.43.09-2.85.15-1.42.15-2.85-.17-1.42-.17-2.85.33-1.42.33-2.84-.49-1.43-.49-2.85v-2.85-2.86c0-1.43-.86-1.88.16-2.88s1.49-.13 2.94-.13 1.45.33 2.91.33 1.45-.27 2.91-.27 1.45.21 2.9.21 1.46-.23 2.91-.23 1.46.16 2.91.16 1.46-.18 2.91-.18h2.91c1.45 0 1.45.32 2.9.32H82c1.45 0 1.45-.2 2.91-.2s1.45-.14 2.91-.14 1.45.35 2.91.35 1.45-.24 2.9-.24 1.46.15 2.92.15 1.45-.19 2.91-.19 1.45.17 2.91.17 1.45-.27 2.91-.27 1.45.31 2.91.31 1.46-.28 2.91-.28 1.46.1 2.91.1 1.46.16 2.91.16 1.46.13 2.92.13 1.46-.21 2.92-.21 1.79-1 2.84 0-.15 1.35-.15 2.77.32 1.42.32 2.84-.17 1.43-.17 2.85.21 1.42.21 2.84-.35 1.43-.35 2.85.42 1.42.42 2.85-.17 1.42-.17 2.84-.09 1.43-.09 2.85.06 1.42.06 2.85-.22 1.42-.22 2.85.16 1.42.16 2.85.2 1.42.2 2.84v2.85c0 1.42-.21 1.43-.21 2.85s-.11 1.43-.11 2.85a8.67 8.67 0 0 0 .35 2.82c.29 1.5.84 1.94-.18 2.94z"/><g clip-path="url(#clip-path)"><path class="cls-4" d="M58.84 102.12c0 2.26-.1 2.26-.1 4.52s.09 2.27.09 4.53-.12 2.26-.12 4.52.14 2.26.14 4.53.08 2.26.08 4.52v4.52c0 2.26-.21 2.27-.21 4.53s-.07 2.26-.07 4.53.37 2.26.37 4.53"/><path class="cls-5" d="M68.28 102.12c0 2.26-.13 2.26-.13 4.52s.15 2.27.15 4.53-.22 2.26-.22 4.52-.15 2.26-.15 4.53-.09 2.26-.09 4.52.29 2.26.29 4.52-.34 2.27-.34 4.53.42 2.26.42 4.53-.23 2.26-.23 4.53"/><path class="cls-4" d="M77.49 102.12c0 2.26-.36 2.26-.36 4.52s.31 2.27.31 4.53-.12 2.26-.12 4.52-.07 2.26-.07 4.53-.17 2.26-.17 4.52.41 2.26.41 4.52v4.53c0 2.26-.06 2.26-.06 4.53s-.25 2.26-.25 4.53"/><path class="cls-5" d="M86.58 102.12v4.52c0 2.26-.12 2.27-.12 4.53s-.08 2.26-.08 4.52v4.53c0 2.27.16 2.26.16 4.52s-.15 2.26-.15 4.52.22 2.27.22 4.53.18 2.26.18 4.53-.33 2.26-.33 4.53"/><path class="cls-4" d="M95.93 102.12c0 2.26-.33 2.26-.33 4.52s.44 2.27.44 4.53-.21 2.26-.21 4.52-.21 2.26-.21 4.53v4.52c0 2.26.38 2.26.38 4.52s-.34 2.27-.34 4.53.09 2.26.09 4.53.16 2.26.16 4.53"/><path class="cls-5" d="M104.92 102.12c0 2.26.22 2.26.22 4.52v4.53c0 2.26-.25 2.26-.25 4.52v4.53c0 2.27.16 2.26.16 4.52s.16 2.26.16 4.52-.06 2.27-.06 4.53v4.53c0 2.27-.23 2.26-.23 4.53"/></g><path class="cls-6" d="M243.62 151c-1 1-1.39.16-2.82.16h-8.64c-1.44 0-1.44-.08-2.88-.08h-2.87c-1.43 0-1.44-.15-2.88-.15s-1.44.31-2.87.31h-2.88c-1.44 0-1.44-.36-2.88-.36s-1.44.3-2.87.3-1.44.06-2.88.06-1.44-.35-2.88-.35-1.44.07-2.88.07h-2.88c-1.44 0-1.44.25-2.88.25s-1.44-.22-2.88-.22-1.44.06-2.88.06-1.44.2-2.88.2-1.44-.12-2.88-.12-1.44-.15-2.88-.15-1.45.17-2.89.17-1.44-.1-2.88-.1-1.84 1-2.86 0-.18-1.41-.18-2.84.27-1.44.27-2.87v-2.88c0-1.44-.24-1.44-.24-2.87s.33-1.44.33-2.88-.14-1.43-.14-2.87-.13-1.44-.13-2.88v-2.87-2.87-2.88c0-1.44.24-1.44.24-2.87v-2.89c0-1.44-1-1.75 0-2.76s1.33 0 2.77 0h2.88c1.43 0 1.43-.07 2.87-.07s1.44-.23 2.88-.23 1.44.09 2.88.09 1.44.1 2.88.1 1.43-.23 2.87-.23 1.44.41 2.88.41 1.43-.09 2.87-.09 1.44.17 2.88.17 1.44-.43 2.88-.43 1.44.3 2.88.3 1.44-.07 2.87-.07 1.44.19 2.88.19 1.44-.07 2.88-.07 1.44-.29 2.88-.29h2.88c1.44 0 1.45.25 2.89.25s1.44.09 2.87.09 1.44-.41 2.89-.41h5.67c1.44 0 1.44.11 2.89.11s1.79-.86 2.81.16-.11 1.36-.11 2.8.38 1.43.38 2.87-.22 1.44-.22 2.87v2.88c0 1.44-.15 1.43-.15 2.87s.32 1.44.32 2.87-.23 1.44-.23 2.88v2.87c0 1.43.23 1.44.23 2.88s.06 1.43.06 2.87-.4 1.44-.4 2.88a9.78 9.78 0 0 0 .09 2.91c.29 1.47 1.09 1.75.07 2.75z"/><g clip-path="url(#clip-path-2)"><path class="cls-5" d="M174.02 116.7h5.79M186.94 116.7h5.78M199.85 116.7h5.78M212.76 116.7h5.79M225.67 116.7h5.79M238.58 116.7h5.79M180.5 121.1h5.79M193.42 121.1h5.78M206.33 121.1h5.78M219.24 121.1h5.78M232.15 121.1h5.79M245.06 121.1h5.79M174.02 125.73h5.79M186.94 125.73h5.78M199.85 125.73h5.78M212.76 125.73h5.79M225.67 125.73h5.79M238.58 125.73h5.79M180.5 130.12h5.79M193.42 130.12h5.78M206.33 130.12h5.78M219.24 130.12h5.78M232.15 130.12h5.79M245.06 130.12h5.79M174.02 134.75h5.79M186.94 134.75h5.78M199.85 134.75h5.78M212.76 134.75h5.79M225.67 134.75h5.79M238.58 134.75h5.79M180.5 139.15h5.79M193.42 139.15h5.78M206.33 139.15h5.78M219.24 139.15h5.78M232.15 139.15h5.79M245.06 139.15h5.79M174.02 143.77h5.79M186.94 143.77h5.78M199.85 143.77h5.78M212.76 143.77h5.79M225.67 143.77h5.79M238.58 143.77h5.79M180.5 148.17h5.79M193.42 148.17h5.78M206.33 148.17h5.78M219.24 148.17h5.78M232.15 148.17h5.79M245.06 148.17h5.79"/></g><path class="cls-8" d="M185.71 145.08c-1 1-1.39 0-2.81 0s-1.42.15-2.84.15-1.41.07-2.83.07-1.42-.28-2.84-.28-1.42.24-2.84.24-1.41-.3-2.83-.3-1.42.39-2.84.39-1.42-.43-2.84-.43h-2.83c-1.42 0-1.42.15-2.84.15s-1.37-.07-2.83-.07-1.42-.06-2.83-.06-1.42.4-2.84.4-1.42-.37-2.84-.37-1.42.13-2.84.13-1.41-.13-2.83-.13-1.42.19-2.84.19-1.42-.18-2.84-.18h-2.84c-1.42 0-1.42.11-2.84.11s-1.42-.05-2.84-.05-1.42.32-2.83.32-1.43-.4-2.85-.4-1.42.07-2.84.07-1.42-.16-2.84-.16-1.42.36-2.84.36-1.94 1-2.92 0-.17-1.55-.17-3 .28-1.48.28-2.95-.14-1.47-.14-2.94v-3c0-1.52.21-1.47.21-2.95s.15-1.47.15-2.94v-3c0-1.52-.23-1.48-.23-3s.05-1.48.05-3v-3c0-1.53-.29-1.47-.29-2.95s.43-1.47.43-3v-3-3c0-1.52-.16-1.47-.16-3s-.2-1.48-.2-2.95.27-1.48.27-3-.35-1.48-.35-3-.86-2 .17-3 1.48-.06 2.9-.06 1.42.08 2.84.08 1.41-.2 2.83-.2 1.42.32 2.84.32 1.42.16 2.83.16h2.84c1.42 0 1.42-.16 2.84-.16h2.84c1.42 0 1.41-.36 2.83-.36s1.42.13 2.84.13 1.41.2 2.83.2h2.83c1.42 0 1.42-.11 2.84-.11s1.42.23 2.84.23 1.42-.07 2.83-.07 1.42-.25 2.84-.25 1.42.23 2.84.23h5.68c1.42 0 1.42.11 2.84.11s1.42-.38 2.84-.38 1.42.28 2.83.28 1.42-.35 2.84-.35h2.84c1.42 0 1.43.41 2.85.41s1.42-.35 2.84-.35 2-1 3 0-.31 1.62-.31 3.09v2.95c0 1.48.39 1.47.39 2.94s-.21 1.47-.21 2.95.21 1.47.21 2.94-.46 1.48-.46 2.95v3c0 1.53.11 1.47.11 3s-.12 1.47-.12 3 .29 1.47.29 3 .11 1.47.11 2.95-.18 1.47-.18 3-.23 1.47-.23 3 .12 1.47.12 3v5.95c0 1.53.06 1.47.06 2.95s-.29 1.53 0 3 1.05 1.92.03 3z"/><path class="cls-9" d="M37 92.39c1.44.6 1.33.87 2.77 1.46s1.52.43 3 1 1.47.55 2.91 1.14 1.42.67 2.86 1.26c.15.07.19 0 .17-.16-.21-1.54 0-1.57-.2-3.12s-.29-1.53-.5-3.08-.29-1.54-.5-3.09 0-1.58-.18-3.13c0-.16-.39-.22-.52-.13-1.23 1-1.23 1-2.46 1.92s-1.14 1.08-2.38 2-1.32.84-2.56 1.8-1.26.92-2.5 1.88c-.2.14-.1.19.09.25z"/><path class="cls-10" d="M101.82 51.21c.19-1.55.23-1.54.43-3.09s.15-1.56.35-3.1 0-1.59.15-3.14.1-1.56.3-3.11c0-.16 0-.46-.12-.4-1.43.61-1.42.63-2.86 1.23s-1.4.71-2.84 1.32-1.5.45-3 1-1.34.85-2.78 1.45c-.15.06-.3.42-.18.51 1.24 1 1.5.61 2.74 1.55s1.12 1.11 2.36 2.06 1.13 1.1 2.37 2 1.4.75 2.64 1.7c.18.19.42.18.44.02z"/><path class="cls-8" d="M257.15 101c-1.51.41-1.61.06-3.11.46s-1.45.64-3 1-1.48.49-3 .9-1.6.08-3.11.49c-.15 0-.27.61-.16.72l2.22 2.2c1.1 1.1 1.17 1 2.28 2.14s1.12 1.09 2.22 2.19 1.15 1.07 2.26 2.17c.11.11.54.13.58 0 .4-1.51.09-1.59.49-3.1s.64-1.45 1-2.95.11-1.59.51-3.1.47-1.5.87-3c.13-.12.1-.12-.05-.12zM66.48 37.12c-3.64-1.41-8.46-4.93-8.33-13.65.05-3.73-.78-6.53-2.4-8.11a5.25 5.25 0 0 0-3.38-1.49l-.16-4.16a9.27 9.27 0 0 1 6.45 2.67c2.49 2.43 3.72 6.18 3.65 11.15-.14 9.63 7.45 10.32 8.31 10.37l-.18 4.16a14 14 0 0 1-3.96-.94z"/><path class="cls-11" d="M199.87 42.89a10.39 10.39 0 0 1 9.25-7.33 7.54 7.54 0 0 0 5.42-2.39 5 5 0 0 0 1.08-2.7l2.76-.41a8.77 8.77 0 0 1-1.95 5.15 10.23 10.23 0 0 1-7.43 3.56c-6.36.54-7 6.43-7.09 7.1l-2.74.13a13.56 13.56 0 0 1 .7-3.11z"/><path class="cls-2" d="M228.64 56.32a7 7 0 0 1 9.48 2.61 4.93 4.93 0 0 0 2.82 2.39 2.19 2.19 0 0 0 1.53-.25l1.63 2.27a5.09 5.09 0 0 1-3.66.74 7.41 7.41 0 0 1-4.74-3.61c-2.33-3.57-5.27-2-5.59-1.76zM246.83 88.12s5.12-3.58 9.09.67a4.08 4.08 0 0 0 2.8 1.53 2.4 2.4 0 0 0 1.42-.44l1.68 1.62a5.8 5.8 0 0 1-3.42 1.18 6.26 6.26 0 0 1-4.68-2.24 4 4 0 0 0-5.37-.58zM136.42 0c.07 0 6.23-.48 7.5 5.19a4.08 4.08 0 0 0 1.64 2.74 2.55 2.55 0 0 0 1.45.34l.62 2.24a5.75 5.75 0 0 1-3.54-.71 6.26 6.26 0 0 1-2.9-4.3 4 4 0 0 0-4.34-3.23zM45.61 73.08c0-.07-3.7-6.7 3.53-11.07 1.68-1 2.71-2.15 3-3.27a2.49 2.49 0 0 0-.24-1.8l2.8-1.87a5.82 5.82 0 0 1 .74 4.33c-.45 2.09-2 3.93-4.54 5.48-4.38 2.66-2.57 6.15-2.35 6.54z"/><path class="cls-8" d="M119.06 18.56c-1.44 0-1.44.17-2.87.17s-1.43.1-2.86.1-1.44-.24-2.87-.24-1.44-.07-2.87-.07c-.21 0-.27 0-.27-.21 0-1.44-.12-1.44-.12-2.87s.07-1.43.07-2.86-.08-1.44-.08-2.87.23-1.44.23-2.87c0-.21 0-.41.17-.41 1.43 0 1.43-.18 2.86-.18h2.87c1.44 0 1.43.27 2.87.27s1.43-.3 2.87-.3c.2 0 .37.36.37.57V9.7c0 1.43.12 1.43.12 2.87s-.09 1.43-.09 2.87v2.87c-.01.2-.2.25-.4.25z"/><g clip-path="url(#clip-path-3)"><path class="cls-9" transform="rotate(-45 123.368 83.19)" d="M74.22 81.06h98.3v4.25h-98.3z"/><path class="cls-9" transform="rotate(-45 132.36 92.175)" d="M83.21 90.05h98.3v4.25h-98.3z"/><path class="cls-9" transform="rotate(-45 141.352 101.16)" d="M92.2 99.04h98.3v4.25H92.2z"/><path class="cls-9" transform="rotate(-45 150.332 110.14)" d="M101.18 108.02h98.3v4.25h-98.3z"/><path class="cls-9" transform="rotate(-45 159.324 119.126)" d="M110.17 117.01h98.3v4.25h-98.3z"/><path class="cls-9" transform="rotate(-45 168.298 128.119)" d="M119.16 125.99h98.3v4.25h-98.3z"/><path class="cls-9" transform="rotate(-45 177.29 137.104)" d="M128.14 134.98h98.3v4.25h-98.3z"/></g><path class="cls-11" d="M102.27 78.74a23.92 23.92 0 0 1-.06 2.94 23.61 23.61 0 0 1-.36 2.94 24.14 24.14 0 0 1-.87 2.85 23 23 0 0 1-1.32 2.68A21.9 21.9 0 0 1 98 92.62a24.68 24.68 0 0 1-2.22 2 21.59 21.59 0 0 1-2.13 2 23.74 23.74 0 0 1-2.48 1.59 23.21 23.21 0 0 1-2.61 1.38 23.63 23.63 0 0 1-2.8 1 23.2 23.2 0 0 1-2.87.73 24.6 24.6 0 0 1-3-.05 24.23 24.23 0 0 1-3 0 22.6 22.6 0 0 1-2.86-.73 22.47 22.47 0 0 1-2.88-.73 22.58 22.58 0 0 1-2.62-1.39 21.55 21.55 0 0 1-2.27-1.9 22.93 22.93 0 0 1-2.44-1.68A21.67 21.67 0 0 1 62 92.45 21.36 21.36 0 0 1 60.47 90a22.11 22.11 0 0 1-1.38-2.59 21.23 21.23 0 0 1-.9-2.8 23.08 23.08 0 0 1-.48-2.9 21.63 21.63 0 0 1-.15-2.92 23.68 23.68 0 0 1 .13-2.93 23.81 23.81 0 0 1 .31-2.99 23.3 23.3 0 0 1 1.22-2.69 22.18 22.18 0 0 1 1.23-2.66 22.55 22.55 0 0 1 1.65-2.43 23.29 23.29 0 0 1 1.66-2.48 23.12 23.12 0 0 1 2.38-1.79 22.88 22.88 0 0 1 2.43-1.69 23.38 23.38 0 0 1 2.75-1.07 22 22 0 0 1 2.77-.94A22.51 22.51 0 0 1 77 56.6a22.48 22.48 0 0 1 2.92-.68 23.93 23.93 0 0 1 3 .3 23.47 23.47 0 0 1 2.91.61 22.06 22.06 0 0 1 2.81.94 22.78 22.78 0 0 1 2.67 1.31 24 24 0 0 1 2.39 1.75 22.81 22.81 0 0 1 2.25 1.92 24.08 24.08 0 0 1 1.8 2.33 22.68 22.68 0 0 1 1.6 2.47 22 22 0 0 1 1.38 2.58 20.77 20.77 0 0 1 .77 2.87 22.46 22.46 0 0 1 .6 2.87 23.37 23.37 0 0 1 .17 2.87z"/><path class="cls-13" d="M102.32 75a24.19 24.19 0 0 1 0 2.95 21.82 21.82 0 0 1-.39 3 22.13 22.13 0 0 1-1.35 2.66 23.4 23.4 0 0 1-1 2.82 26.13 26.13 0 0 1-1.58 2.5 22 22 0 0 1-2.06 2.15A23 23 0 0 1 93.69 93a22.32 22.32 0 0 1-2.57 1.45 23.79 23.79 0 0 1-2.5 1.63 24.63 24.63 0 0 1-2.91.65 22.76 22.76 0 0 1-2.9.44 21.58 21.58 0 0 1-2.91.31 23.47 23.47 0 0 1-2.9-.22 23.11 23.11 0 0 1-2.9-.5 25.06 25.06 0 0 1-2.89-.76 23.43 23.43 0 0 1-2.52-1.56A24.62 24.62 0 0 1 66 93.13 22 22 0 0 1 63.92 91a21.8 21.8 0 0 1-2-2.16 21.7 21.7 0 0 1-1.46-2.58 22.61 22.61 0 0 1-1.56-2.53 22.41 22.41 0 0 1-.7-2.88 21.12 21.12 0 0 1-.46-2.9 21.71 21.71 0 0 1-.32-2.95 21.75 21.75 0 0 1 .34-2.92 23.3 23.3 0 0 1 .37-2.92 22.34 22.34 0 0 1 1-2.78 21.81 21.81 0 0 1 1.11-2.74A22 22 0 0 1 62 61.29a20.53 20.53 0 0 1 2-2.12 23.51 23.51 0 0 1 2-2.23 23.39 23.39 0 0 1 2.57-1.51 23.5 23.5 0 0 1 2.77-1A24.62 24.62 0 0 1 74 53a24.1 24.1 0 0 1 3-.28 22 22 0 0 1 2.94-.48 22.18 22.18 0 0 1 2.93.52 23.39 23.39 0 0 1 2.94.34 21.94 21.94 0 0 1 2.77 1 22.7 22.7 0 0 1 2.7 1.22 23 23 0 0 1 2.29 1.89 22.44 22.44 0 0 1 2.19 1.95 23 23 0 0 1 2.17 2 21.79 21.79 0 0 1 1.78 2.39 23 23 0 0 1 1.2 2.73 22.19 22.19 0 0 1 .85 2.84 22.87 22.87 0 0 1 .65 2.89 22.61 22.61 0 0 1-.09 2.99z"/><circle cx="79.9" cy="75.4" r="14.43" stroke-width="3.12" stroke="#001d2f" stroke-linecap="round" stroke-linejoin="round" fill="none"/><circle class="cls-11" cx="79.9" cy="75.4" r="3.35"/><path class="cls-15" d="M79.9 60.97v28.04M93.92 74.99H65.87M89.81 84.91L69.98 65.07M69.98 84.91l19.83-19.84"/><path class="cls-11" d="M239.28 89.56a22.13 22.13 0 0 1-.11 3 22.6 22.6 0 0 1-.67 2.87 23.18 23.18 0 0 1-1.09 2.73 23.13 23.13 0 0 1-1.11 2.72 21.27 21.27 0 0 1-1.72 2.39 24.42 24.42 0 0 1-1.75 2.39 23 23 0 0 1-2.43 1.7 23.72 23.72 0 0 1-2.33 1.8 22.54 22.54 0 0 1-2.64 1.34 21.94 21.94 0 0 1-2.77 1 21.49 21.49 0 0 1-2.91.63 25.4 25.4 0 0 1-3-.23 24.33 24.33 0 0 1-2.95.06 23.64 23.64 0 0 1-2.94-.41 22.24 22.24 0 0 1-2.82-1 22.86 22.86 0 0 1-2.68-1.3 24.63 24.63 0 0 1-2.35-1.83 25 25 0 0 1-2.38-1.78 23.16 23.16 0 0 1-1.92-2.28 22.59 22.59 0 0 1-1.59-2.51 22.78 22.78 0 0 1-1.42-2.62 22.47 22.47 0 0 1-.7-2.83 21.26 21.26 0 0 1-.45-2.91 21.88 21.88 0 0 1-.51-2.93 23.44 23.44 0 0 1 .51-2.92 21.17 21.17 0 0 1 .51-2.9 20.5 20.5 0 0 1 .83-2.83 22.38 22.38 0 0 1 1.4-2.6 28.82 28.82 0 0 1 3.6-4.64 22.44 22.44 0 0 1 2.31-1.81 22.32 22.32 0 0 1 2.29-1.86 22.63 22.63 0 0 1 2.71-1.18 23.24 23.24 0 0 1 2.8-.92 22.72 22.72 0 0 1 2.83-.9 22.56 22.56 0 0 1 3 0 21.72 21.72 0 0 1 2.93.37 23.47 23.47 0 0 1 2.93.4 21.82 21.82 0 0 1 2.78 1 22.52 22.52 0 0 1 2.61 1.23 24.09 24.09 0 0 1 2.54 1.53 21.9 21.9 0 0 1 2.12 2.08 21.5 21.5 0 0 1 1.82 2.31 21.13 21.13 0 0 1 1.58 2.47 23.13 23.13 0 0 1 1.51 2.53 21.94 21.94 0 0 1 1 2.77 23.06 23.06 0 0 1 .59 2.91 22.51 22.51 0 0 1 .04 2.96z"/><path class="cls-13" d="M239.13 85.24a21.84 21.84 0 0 1-.1 2.93 22.94 22.94 0 0 1-.48 2.91 22.29 22.29 0 0 1-1 2.76 20.29 20.29 0 0 1-1.14 2.72 21.42 21.42 0 0 1-1.79 2.35 22.56 22.56 0 0 1-1.94 2.21 20.52 20.52 0 0 1-4.52 3.78 23.43 23.43 0 0 1-2.66 1.31 23.2 23.2 0 0 1-2.87.73 23.22 23.22 0 0 1-2.86.78 22.16 22.16 0 0 1-3 .35 22 22 0 0 1-2.92-.62 21.33 21.33 0 0 1-2.89-.53 30.86 30.86 0 0 1-5.48-2.13 22.65 22.65 0 0 1-2.6-1.44 23.36 23.36 0 0 1-2-2.23 22.44 22.44 0 0 1-1.86-2.27 22.35 22.35 0 0 1-1.83-2.31 22.57 22.57 0 0 1-1.19-2.68 24.32 24.32 0 0 1-1.21-2.71 24.46 24.46 0 0 1-.17-3 23.63 23.63 0 0 1-.23-2.93 24.8 24.8 0 0 1-.14-3 23.74 23.74 0 0 1 .5-2.94 23.86 23.86 0 0 1 1.43-2.63 22.65 22.65 0 0 1 1.06-2.65 24.21 24.21 0 0 1 1.49-2.57 23.48 23.48 0 0 1 2.25-2 23.1 23.1 0 0 1 2-2.19 18.72 18.72 0 0 1 5.17-2.86 22.69 22.69 0 0 1 2.75-1.13 23.28 23.28 0 0 1 2.93-.52 25 25 0 0 1 3 .17 23.53 23.53 0 0 1 3-.26 22.79 22.79 0 0 1 2.85.84 21.91 21.91 0 0 1 2.81.9 20.84 20.84 0 0 1 2.51 1.43 23 23 0 0 1 2.56 1.48 21.75 21.75 0 0 1 2 2.14 24.74 24.74 0 0 1 2.24 2 21.77 21.77 0 0 1 1.53 2.57 22.59 22.59 0 0 1 1.11 2.73 22.6 22.6 0 0 1 1.29 2.67 23.56 23.56 0 0 1 .49 2.93 22.53 22.53 0 0 1-.09 2.91z"/><path stroke="#001d2f" fill="#001d2f" stroke-width="1.04" stroke-linecap="round" stroke-linejoin="round" d="M205.82 74.51h21.44v21.44h-21.44z"/><path class="cls-6" d="M209.08 77.86h6.66v6.64h-6.66zM209.08 85.97h6.66v6.64h-6.66zM217.33 77.86h6.66v6.64h-6.66zM217.33 85.97h6.66v6.64h-6.66z"/><path class="cls-17" d="M227.67 77.39h4.83M227.67 82.38h4.83M227.67 87.36h4.83M227.67 92.34h4.83M200.79 77.39h4.83M200.79 82.38h4.83M200.79 87.36h4.83M200.79 92.34h4.83M223.97 69.17V74M218.99 69.17V74M214 69.17V74M209.02 69.17V74M223.97 96.49v4.83M218.99 96.49v4.83M214 96.49v4.83M209.02 96.49v4.83"/><path class="cls-11" d="M178 54.84c0 .95.18 1.9.1 2.83s-.4 1.86-.56 2.79-.06 1.92-.3 2.83-.48 1.86-.8 2.74-1.05 1.62-1.45 2.47a27.61 27.61 0 0 1-1.14 2.6c-.47.83-1.11 1.53-1.65 2.31s-1 1.63-1.58 2.36-1.42 1.25-2.09 1.92-1.22 1.45-2 2.06-1.42 1.26-2.19 1.81-1.65.93-2.47 1.4-1.51 1.21-2.37 1.62-1.9.37-2.79.7-1.79.55-2.71.79-1.75.8-2.69 1-1.89.23-2.84.31-1.89 0-2.84 0-1.91.11-2.85 0-1.87-.36-2.8-.52-1.84-.46-2.74-.7-1.91-.27-2.8-.59-1.76-.73-2.62-1.13-1.62-1-2.43-1.47-1.73-.83-2.5-1.38-1.6-1-2.33-1.65-1.1-1.6-1.77-2.27-1.42-1.25-2-2-1.22-1.45-1.76-2.22-1-1.62-1.45-2.44-1-1.61-1.37-2.47-.9-1.68-1.23-2.57-.77-1.75-1-2.67-.18-1.91-.35-2.85-.25-1.86-.34-2.81.08-1.88.08-2.83-.37-1.92-.29-2.85.22-1.91.38-2.83.59-1.82.84-2.73a28.17 28.17 0 0 1 .94-2.67c.32-.89.62-1.78 1-2.63s.88-1.67 1.35-2.49.64-1.84 1.18-2.62 1.47-1.26 2.08-2 1.07-1.59 1.74-2.26 1.54-1.1 2.27-1.71 1.2-1.55 2-2.09 1.81-.69 2.63-1.17 1.46-1.29 2.32-1.69 1.87-.45 2.76-.78 1.69-.93 2.61-1.18 1.93-.05 2.86-.21 1.84-.43 2.79-.51 1.88-.17 2.84-.17 1.89.18 2.83.26 1.87.23 2.8.39 1.91.13 2.82.37 1.74.8 2.62 1.12 1.73.75 2.58 1.15 1.83.58 2.64 1.05 1.65.95 2.43 1.5 1.49 1.17 2.21 1.78 1.37 1.31 2 2 1.25 1.42 1.86 2.14 1.15 1.49 1.7 2.26 1.31 1.41 1.78 2.23.81 1.72 1.21 2.58.58 1.8.91 2.69.63 1.77.88 2.69.35 1.83.52 2.77.41 1.84.49 2.79.05 1.89.05 2.85z"/><path class="cls-13" d="M178.33 50.83c0 1-.34 1.88-.42 2.81s0 1.9-.21 2.83-.47 1.83-.71 2.74-.36 1.87-.68 2.76-.89 1.67-1.29 2.53-.59 1.83-1.06 2.64-1.15 1.52-1.69 2.29-.86 1.74-1.47 2.46-1.39 1.32-2.05 2-1.26 1.45-2 2.06-1.7.9-2.47 1.45-1.55 1.07-2.37 1.54-1.71.78-2.57 1.19-1.67.84-2.57 1.17-1.69.93-2.61 1.17-1.91.11-2.85.28-1.85.3-2.8.38-1.87.33-2.82.33-1.9-.12-2.84-.2-1.85-.42-2.78-.58-1.86-.29-2.77-.54-1.92-.22-2.8-.54-1.82-.62-2.68-1-1.68-.92-2.49-1.4-1.54-1.2-2.33-1.7-1.64-1-2.37-1.59-1.45-1.25-2.12-1.92-1.27-1.42-1.88-2.15-1.21-1.48-1.75-2.25-1.13-1.54-1.61-2.36-.55-1.86-1-2.72-1.12-1.58-1.45-2.47-.21-1.92-.46-2.84-.72-1.77-.88-2.7-.22-1.88-.3-2.83-.36-1.89-.36-2.84.17-1.92.25-2.85.12-1.92.28-2.85.49-1.85.74-2.76.58-1.81.9-2.7 1-1.64 1.37-2.49.51-1.87 1-2.69.93-1.67 1.48-2.44 1.22-1.46 1.82-2.19 1.47-1.21 2.14-1.88 1.14-1.55 1.87-2.16 1.5-1.23 2.33-1.82 1.7-.85 2.52-1.32 1.51-1.21 2.37-1.62 1.86-.45 2.76-.77 1.8-.51 2.72-.76 1.83-.41 2.76-.58 1.81-.72 2.76-.8 1.9.27 2.86.27 1.92-.34 2.85-.26 1.88.39 2.81.55 1.81.57 2.72.81 1.9.26 2.79.58 1.68.89 2.54 1.29 1.66.89 2.48 1.36 1.65.91 2.43 1.45 1.53 1.09 2.26 1.7 1.37 1.3 2 2 1.37 1.34 1.93 2.1 1.44 1.28 2 2.06.76 1.76 1.24 2.58 1 1.63 1.35 2.49.84 1.69 1.16 2.59.53 1.81.78 2.73.74 1.77.91 2.71-.1 1.92 0 2.87.33 1.84.33 2.8z"/><ellipse class="cls-6" cx="145.43" cy="44.48" rx="13.32" ry="12.68"/><ellipse cx="145.43" cy="44.48" rx="18.02" ry="17.15" stroke-width="1.56" stroke="#c9caca" stroke-linecap="round" stroke-linejoin="round" fill="none"/><path class="cls-11" d="M147.37 28.09c0 1.46-.89 11.37-2 11.37s-2-9.91-2-11.37.89-2.63 2-2.63 2 1.18 2 2.63z"/><ellipse class="cls-11" cx="145.54" cy="43.54" rx="2.39" ry="2.49"/><path class="cls-11" d="M129.47 48c1.41-.57 11.32-3.73 11.76-2.77s-8.78 5.67-10.18 6.24-2.9.27-3.33-.69.35-2.2 1.75-2.78zM161.29 48c-1.4-.57-11.32-3.73-11.75-2.77s8.78 5.67 10.18 6.24 2.89.27 3.33-.69-.35-2.2-1.76-2.78zM146.42 48.91a1 1 0 0 0-.91-.66.94.94 0 0 0-.91.65l-8.78 27.78h2l7.67-24.28 7.19 24.28h2z"/><path class="cls-19" d="M142.49 58.82h5.5M140.06 66.97h10.25"/><path class="cls-10" d="M180.88 9.37l-2 2.4c-1 1.2-.67 1.48-1.67 2.67s-1.29 1-2.29 2.16l-2 2.4c-.1.12.08.47.24.5 1.53.27 1.56.13 3.09.4s1.54.3 3.07.57 1.57.11 3.11.38 1.51.44 3.05.71c.16 0 .4-.14.35-.28-.54-1.47-.8-1.38-1.33-2.84s-.29-1.56-.83-3-.66-1.42-1.2-2.89-.54-1.47-1.07-2.94c-.07-.17-.4-.36-.52-.24z"/><circle class="cls-2" cx="196.32" cy="57.77" r="2.31"/><circle class="cls-13" cx="84.01" cy="26.92" r="2.31"/><circle class="cls-13" cx="101.29" cy="96.34" r="1.36"/><circle class="cls-2" cx="183.05" cy="78.44" r="1.36"/><circle class="cls-13" cx="48.38" cy="112.38" r="1.74"/><circle class="cls-13" cx="199.36" cy="27.54" r="1.74"/><path class="cls-2" d="M290.37 307.85c-2.14 0-2.14.31-4.28.31s-2.14.15-4.27.15-2.14.24-4.28.24-2.14-.2-4.28-.2-2.13-.53-4.27-.53-2.14.18-4.28.18h-4.27c-2.14 0-2.14.82-4.27.82s-2.14-.36-4.28-.36-2.14.24-4.28.24-2.14.1-4.27.1-2.14-1-4.28-1-2.14.2-4.27.2-2.14-.1-4.28-.1h-4.28c-2.14 0-2.13.44-4.27.44s-2.14.33-4.28.33-2.13-.64-4.27-.64h-4.28c-2.14 0-2.14.27-4.28.27s-2.13-.14-4.27-.14-2.13-.1-4.27-.1-2.13-.24-4.27-.24-2.14.26-4.27.26-2.14.56-4.27.56-2.14-.13-4.28-.13-2.14-.64-4.28-.64-2.13.71-4.27.71-2.14-.59-4.27-.59-2.14.14-4.28.14-2.13.23-4.27.23-2.14-.6-4.28-.6-2.14.16-4.27.16-2.14.44-4.28.44-2.14-.5-4.27-.5-2.14-.15-4.28-.15-2.14.52-4.28.52-2.13-.21-4.27-.21-2.14.47-4.28.47-2.14-.4-4.28-.4-2.13-.36-4.27-.36-2.14.18-4.28.18-2.14-.11-4.28-.11-2.14.43-4.28.43-2.13.08-4.27.08-2.14.17-4.28.17-2.14-.19-4.28-.19-2.14.42-4.28.42-2.14-.14-4.28-.14-2.14.18-4.28.18-2.13-.87-4.27-.87-2.14.21-4.28.21-2.14.22-4.28.22-2.14-.53-4.28-.53-2.13.83-4.27.83-2.14-.65-4.28-.65-2.14-.07-4.28-.07-2.14.22-4.28.22-2.14-.18-4.28-.18-2.14.25-4.28.25-2.14-.37-4.28-.37-2.14-.05-4.28-.05H21c-2.14 0-2.14.85-4.28.85h-4.29c-2.15 0-2.14-.78-4.29-.78a6.15 6.15 0 0 1-3.79-1.28 7.74 7.74 0 0 1-2.51-3.18 9.25 9.25 0 0 1-1.15-4c0-2.12-.64-2.12-.64-4.24s.87-2.12.87-4.24-.5-2.12-.5-4.24.58-2.12.58-4.24-.51-2.12-.51-4.24.11-2.12.11-4.24.06-2.12.06-4.24.09-2.12.09-4.24-.21-2.12-.21-4.24-.23-2.12-.23-4.24.59-1.97.59-4.14-.21-2.12-.21-4.24-.51-2.12-.51-4.23-.09-2.12-.09-4.25.66-2.11.66-4.23.26-2.13.26-4.25-.31-2.12-.31-4.24v-4.24c0-2.12.2-2.15.2-4.24s-.08-2.13-.08-4.25-.42-2.12-.42-4.24.35-2.12.35-4.24-.75-2.13-.75-4.25.87-2.12.87-4.25.1-2.12.1-4.25-.76-2.12-.76-4.25a9.85 9.85 0 0 1 1.31-4.09 8.76 8.76 0 0 1 2.38-3.56 7.56 7.56 0 0 1 4.15-1.6c2.14 0 2.14.63 4.28.63s2.14.16 4.27.16 2.14-.14 4.28-.14 2.14.28 4.28.28 2.13-.33 4.27-.33 2.14.36 4.28.36 2.13-1 4.27-1 2.14.26 4.28.26 2.13-.2 4.27-.2 2.14.69 4.28.69 2.14.08 4.27.08 2.14-.87 4.28-.87 2.14 1 4.27 1 2.14-.1 4.28-.1 2.14-.67 4.28-.67h8.55c2.13 0 2.13.77 4.27.77s2.14-.76 4.28-.76 2.14.36 4.28.36 2.13-.06 4.27-.06 2.13-.46 4.27-.46 2.13.23 4.27.23 2.14-.27 4.27-.27 2.14.61 4.27.61 2.14-.28 4.28-.28 2.14-.25 4.28-.25h4.27c2.14 0 2.14.44 4.27.44s2.14-.21 4.28-.21 2.13.56 4.27.56 2.14-.17 4.28-.17 2.14-.64 4.27-.64 2.14.31 4.28.31 2.14-.22 4.27-.22 2.14.22 4.28.22 2.14.18 4.28.18 2.14.14 4.27.14 2.14.23 4.28.23h4.28c2.13 0 2.13-.81 4.27-.81s2.14.47 4.28.47 2.14-.28 4.28-.28 2.14-.19 4.28-.19h4.27c2.14 0 2.14.53 4.28.53s2.14-.43 4.28-.43 2.14.06 4.28.06 2.14-.14 4.28-.14 2.14.3 4.28.3 2.13-.19 4.27-.19 2.14.65 4.28.65 2.14-.28 4.28-.28 2.14.3 4.28.3 2.13-.78 4.27-.78h4.28c2.14 0 2.14.53 4.28.53s2.14.32 4.28.32 2.14-.9 4.28-.9 2.14.52 4.28.52 2.14.23 4.28.23 2.14-.31 4.28-.31 2.15-.49 4.29-.49 2.14.65 4.28.65 2.14-.19 4.29-.19h4.29c1.47 0 2.57.88 3.74 1.72s2.59 1.45 3.22 2.8a10.36 10.36 0 0 1 .48 4.29c0 2.13.18 2.13.18 4.25s-.31 2.11-.31 4.23.63 2.12.63 4.24-.61 2.12-.61 4.25v4.23c0 2.12-.13 2.13-.13 4.25s.89 2.12.89 4.24-.33 2.12-.33 4.24.05 2.12.05 4.24-.4 2.12-.4 4.24.69 2.12.69 4.24-.5 2.12-.5 4.24-.11 2.12-.11 4.24.11 2.12.11 4.24-.43 2.12-.43 4.24v4.24c0 2.12.41 2.12.41 4.24s.54 2.12.54 4.24-.93 2.13-.93 4.25.22 2.12.22 4.24v4.25c0 2.13-.06 2.12-.06 4.24s.27 2.12.27 4.24.33 2.13.33 4.25v4.25c0 2.12-.64 2.13-.64 4.25 0 1.51.22 3-.36 4.27a8.52 8.52 0 0 1-3 3.07 6.33 6.33 0 0 1-3.91 1.02z"/><path class="cls-11" d="M58.26 246.14a3 3 0 0 1 .9 2.18 3.07 3.07 0 0 1-3.1 3.09 2.93 2.93 0 0 1-2.18-.9 3 3 0 0 1-.9-2.19 2.89 2.89 0 0 1 .9-2.18 2.85 2.85 0 0 1 2.18-.9 3 3 0 0 1 2.2.9zM69.72 256.49l-.38-1.66a11 11 0 0 0 1.37.09.56.56 0 0 0 .63-.63v-3.85c-.61.23-1.24.45-1.87.67l-.42-1.73a20.76 20.76 0 0 0 2.29-.69V245h-2v-1.63h2v-3.26h1.73v3.26h1.67V245h-1.67v3c.47-.21.92-.45 1.37-.7v1.7c-.47.23-.92.47-1.37.68v5a1.56 1.56 0 0 1-1.77 1.75zM85.15 248v1.53h-4.32v1.65h3.55v1.52h-3.55v1.9a19.68 19.68 0 0 0 2.34.13 24.64 24.64 0 0 0 2.48-.11l-.46 1.66h-1.91a12.77 12.77 0 0 1-4.92-.66 4.57 4.57 0 0 1-1.71-1.73 11.37 11.37 0 0 1-1.65 2.74l-1.28-1.09a9.51 9.51 0 0 0 2.16-5.39l1.52.18a12.26 12.26 0 0 1-.26 1.86 4 4 0 0 0 1.86 2l.16.06v-4.7H74.8V248zm-1.08-7.44v6.5H76v-6.5zm-1.68 2.59V242h-4.77v1.2zm0 1.3h-4.77v1.22h4.77zM97.3 241.46a22.88 22.88 0 0 1-3.15 1.13v4.14h4.43v-6.52h1.71v6.52h4v1.66h-4v8.24h-1.71v-8.24h-4.47q-.37 5.61-4.45 8.3l-1.29-1.14a8.56 8.56 0 0 0 4-7.16h-4.18v-1.66h4.23V243a28 28 0 0 1-3.31.45l-.54-1.55a25.87 25.87 0 0 0 7.9-1.85zM109.39 241.94l6.61 9.56v-9.56h2v12.86h-1.91l-6.64-9.67h-.08v9.67h-2v-12.86zM126.76 241.94q4.59 0 4.59 3.91t-4.62 3.94h-3.33v5h-2v-12.85zm-3.36 6.18h3.2a3.4 3.4 0 0 0 2.13-.54 2.14 2.14 0 0 0 .66-1.73 2 2 0 0 0-.68-1.69 3.36 3.36 0 0 0-2.11-.54h-3.2zM144.39 243.6a7.86 7.86 0 0 1 0 9.56 6.59 6.59 0 0 1-9.26 0 7.88 7.88 0 0 1 0-9.52 5.78 5.78 0 0 1 4.63-1.93 5.89 5.89 0 0 1 4.63 1.89zm-7.82 1.2a6.46 6.46 0 0 0 0 7.15 4.42 4.42 0 0 0 6.36 0 5.49 5.49 0 0 0 1.1-3.6 5.59 5.59 0 0 0-1.1-3.64 4.41 4.41 0 0 0-6.36.05zM160.06 242.81c-.07.25-.14.48-.23.72a8.49 8.49 0 0 0 4.84 2.14l-.7 1.4a8.43 8.43 0 0 1-1.38-.32v7.38H159a39.2 39.2 0 0 1 5.56 1.3l-.55 1.35a35.44 35.44 0 0 0-6-1.57l.56-1.08h-4.14l.74 1a19.57 19.57 0 0 1-5.73 1.67l-.77-1.31a24.44 24.44 0 0 0 5.33-1.32h-3.32v-7.44H155l-.68-1c2.41-.43 3.83-1.48 4.28-3.13zm-6.17 1.4v1.46h-5.21v-1.46zm-.38-3.24v1.44h-4.46V241zm7.4 7.87V248h-8.55v.85zm0 1.92V250h-8.55v.79zm0 1.12h-8.55v.88h8.55zm-6.18-7.54l-.93-1.25a6.64 6.64 0 0 0 2.59-3.16l1.57.17c-.11.29-.22.58-.34.85h6.32v1.19a10.16 10.16 0 0 1-1.55 2.36l-1.17-.92a7.83 7.83 0 0 0 .93-1.22h-5.36a9.49 9.49 0 0 1-2.06 1.98zm7.69 2.35a8.62 8.62 0 0 1-3.26-2 6.11 6.11 0 0 1-3.27 2zM169.78 249a32.34 32.34 0 0 1-1.31 4.95l-1.26-.45a26 26 0 0 0 1.35-4.83zm0-3.77l-1.34.36a27.18 27.18 0 0 0-1-3.63l1.41-.45c.39 1.1.7 2.34.97 3.74zm.5 1V240H172v6.23h2.43v1.64H172v8.72h-1.66v-8.72h-2.61v-1.64zm4.16-4.73a15.75 15.75 0 0 1-.74 4l-1.26-.4a17.06 17.06 0 0 0 .58-3.78zm.24 11.34l-1.3.33c-.24-1.46-.52-2.87-.85-4.2l1.12-.36a41.79 41.79 0 0 1 1.07 4.24zm7.36-12.78v10.1l1.55-.23.27 1.65-1.82.27v4.77h-1.64v-4.52l-5.24.8-.25-1.66 5.49-.83v-10.34zm-2.67 8.26l-1.15 1.14a16.89 16.89 0 0 0-3-2.85l1.11-1.06a23.68 23.68 0 0 1 3.08 2.78zm.51-4.37l-1.12 1.11a19.22 19.22 0 0 0-3.09-2.66l1.11-1.08a21.91 21.91 0 0 1 3.14 2.68zM202.26 242.77h-13.09v4.39a23.58 23.58 0 0 1-1.7 9.4l-1.29-1.15a22.41 22.41 0 0 0 1.29-8.25v-6h6.83a7.75 7.75 0 0 0-.58-.9l1.84-.29c.18.36.36.75.54 1.19h6.16zm-10.48 9.81a14.66 14.66 0 0 1-1.33 3.73l-1.35-.86a11.22 11.22 0 0 0 1.18-3.17zm-1.95-4.05l-.48-1.6a10.76 10.76 0 0 0 2.75-4l1.39.63a12.55 12.55 0 0 1-1.08 2.09v5.94h-1.62v-4q-.46.51-.96.94zm4.34 7.92a1.45 1.45 0 0 1-1.65-1.64v-2.75h1.62v2.43c0 .27.18.42.54.42h2.73a1.11 1.11 0 0 0 .71-.2 2.4 2.4 0 0 0 .37-1.37l1.48.48c-.14 1.27-.4 2-.76 2.29a2.69 2.69 0 0 1-1.51.34zm8-6.23v1.3h-8v-3.94c-.29.36-.59.72-.9 1.06l-.5-1.62A11.14 11.14 0 0 0 195 243l1.5.29c-.11.3-.2.61-.31.9h1.66a6.55 6.55 0 0 0-.51-.92l1.61-.25c.16.36.32.73.48 1.17H202v1.29h-2.58v.83h2.29v1.15h-2.29v.78h2.29v1.17h-2.29v.84zm-4.52 3.42l-1.26.89a16.74 16.74 0 0 0-1.57-2l1.25-.77a17.46 17.46 0 0 1 1.56 1.88zm-1.93-8.19v.83h2.18v-.83zm0 2.76h2.18v-.78h-2.2zm0 2h2.18v-.84h-2.2zm7.1 4.78l-1.33.91a32.71 32.71 0 0 0-2.09-3.35l1.31-.79a29.35 29.35 0 0 1 2.09 3.24zM206.3 256.53l-1.3-1.17a10.32 10.32 0 0 0 1.67-5.89v-8.83h13.81v13.56a1.82 1.82 0 0 1-2.07 2h-2.07l-.45-1.68c.7.06 1.35.09 2 .09s.88-.36.88-1.06v-2.68h-4.47V256h-1.73v-5.13h-4.27a10.75 10.75 0 0 1-2 5.66zm2.09-14.23v2.7h4.14v-2.7zm0 7h4.14v-2.75h-4.14zm10.34-7h-4.47v2.7h4.47zm0 4.27h-4.47v2.75h4.47zM232.28 240.09v1.85l-.06 1.41h6.85c-.07 3.2-.18 5.81-.36 7.81a11.47 11.47 0 0 1-.94 4.12 2.44 2.44 0 0 1-2.05 1.25h-2.52l-.47-1.66h2.16c.92 0 1.53-.61 1.82-1.82a48 48 0 0 0 .59-8.12h-5.2a22.16 22.16 0 0 1-1.62 6.56 11.34 11.34 0 0 1-5.24 5.13l-.94-1.49a10.45 10.45 0 0 0 4.85-4.94 20.45 20.45 0 0 0 1.19-5.26h-5.08v-1.63h5.2l.06-1.41v-1.85zM58.26 273.9a3 3 0 0 1 .9 2.18 3.08 3.08 0 0 1-.9 2.2 3.11 3.11 0 0 1-2.2.9 3 3 0 0 1-2.18-.9 3 3 0 0 1-.9-2.2 2.92 2.92 0 0 1 .9-2.18 2.89 2.89 0 0 1 2.18-.9 3 3 0 0 1 2.2.9zM70.89 271.91v-3.86h1.64v3.86h1.87v1.6h-1.87v10.69h-1.64v-10.69H69v-1.6zm8 11.14a1.74 1.74 0 0 1-1.7 1.1c-.3 0-.66 0-1.09-.07l-.38-1.43c.45 0 .83.08 1.13.09s.7-.28.81-.82a31.7 31.7 0 0 0 .18-4.14h-1.08a13.86 13.86 0 0 1-.58 3A8.21 8.21 0 0 1 74 284.2l-1-1.33a7 7 0 0 0 1.78-2.87 12.18 12.18 0 0 0 .41-2.26h-1.46v-1.44h1.59l.05-1.5h1.55v1.5h2.5c-.07 3.7-.23 5.99-.55 6.75zm5-9.56a2.29 2.29 0 0 1-2.08.9 11.37 11.37 0 0 1-1.19-.07l-.45-1.53a10 10 0 0 0 1.55.14c.54 0 .86-.25.95-.68a9.44 9.44 0 0 0 .13-1.46h-2.93l-.07.3a4.15 4.15 0 0 1-1.29 2.11 6.73 6.73 0 0 1-2.83 1.37l-.87-1.37a6 6 0 0 0 2.42-1 3 3 0 0 0 1-1.44h-3v-1.48h3.24c0-.39.05-.81.05-1.26h1.6a12.51 12.51 0 0 1 0 1.26h4.34c-.03 2.23-.23 3.63-.61 4.21zM85 283a1.59 1.59 0 0 1-1.54 1.1c-.4 0-.87 0-1.41-.07l-.39-1.42 1.44.09c.36 0 .59-.29.68-.83a37.6 37.6 0 0 0 .16-4.12H82.7a15.24 15.24 0 0 1-.54 3 8.3 8.3 0 0 1-2.23 3.44l-1-1.26a6.84 6.84 0 0 0 1.8-2.87 12.83 12.83 0 0 0 .43-2.26H80v-1.5h1.3v-1.53h1.53c0 .54 0 1-.07 1.53h2.7q.02 5.61-.46 6.7zM95.52 279.63c.36-.13.73-.25 1.09-.36v1.64a70.62 70.62 0 0 1-8.17 2.32l-.44-1.64c.42-.09.81-.18 1.21-.25v-12.57h6.34zm-1.7-7v-2.3h-2.9v2.3zm0 3.93v-2.4h-2.9v2.4zm0 3.58v-2h-2.9v2.81c1.01-.28 1.98-.55 2.9-.8zm6.25-12.26v3.2H104c0 6-.09 9.71-.27 11.11s-1.14 2.06-2.83 2.06c-.29 0-.77 0-1.46-.08l-.4-1.51c.62.06 1.14.09 1.59.09a1.34 1.34 0 0 0 1.46-1.29q.16-1.31.21-8.75h-2.23v.29c0 5.24-1.3 9.07-3.71 11.51L95 283.34q3.3-3.19 3.35-10.3v-.32h-2v-1.63h2v-3.2zM109.39 269.71l6.57 9.56h.04v-9.56h2v12.85h-1.91l-6.64-9.66h-.08v9.66h-2v-12.85zM126.76 269.71q4.59 0 4.59 3.91c0 2.62-1.54 3.94-4.62 3.94h-3.33v5h-2v-12.85zm-3.36 6.17h3.2a3.4 3.4 0 0 0 2.13-.54 2.12 2.12 0 0 0 .66-1.72 2 2 0 0 0-.68-1.7 3.36 3.36 0 0 0-2.11-.54h-3.2zM144.39 271.37a7.86 7.86 0 0 1 0 9.56 6.59 6.59 0 0 1-9.26 0 7.9 7.9 0 0 1 0-9.53 5.81 5.81 0 0 1 4.63-1.92 5.89 5.89 0 0 1 4.63 1.89zm-7.82 1.2a6.46 6.46 0 0 0 0 7.15 4.42 4.42 0 0 0 6.36 0 5.52 5.52 0 0 0 1.1-3.61 5.58 5.58 0 0 0-1.1-3.63 4.39 4.39 0 0 0-6.36.05zM157.9 268.5c-.25.27-.48.52-.72.76H162v1.33c-1.94 3.46-5.54 5.42-10.82 5.85l-.72-1.55a19.62 19.62 0 0 0 4.05-.61 16.85 16.85 0 0 0-1.58-1.67l1.47-.7a21.26 21.26 0 0 1 1.71 1.83 9.3 9.3 0 0 0 3.93-3h-4.85a16.7 16.7 0 0 1-4.93 1.86l-1-1.57c3.19-.58 5.57-1.69 7.13-3.35zm0 12.53a10.73 10.73 0 0 0 4.23-3.2h-4.93a24.34 24.34 0 0 1-5.51 1.71l-1-1.53c3.93-.38 6.83-1.53 8.66-3.48l1.46.8a10.36 10.36 0 0 1-1 .95h4.59v1.33c-2.63 4.22-7.4 6.39-14.4 6.59l-.68-1.64a23.78 23.78 0 0 0 7-.91 18.73 18.73 0 0 0-1.73-2l1.52-.72a24.15 24.15 0 0 1 1.81 2.07zM183.29 274v1.65h-4.83v6.27c0 .47.22.72.67.72h2a.63.63 0 0 0 .59-.41 8.83 8.83 0 0 0 .31-2.72l1.55.5c-.13 2-.36 3.21-.69 3.6a1.82 1.82 0 0 1-1.44.56h-2.79a1.65 1.65 0 0 1-1.84-1.89v-6.63H174v.33a10.66 10.66 0 0 1-1.48 5.54 8.66 8.66 0 0 1-4.35 3l-.92-1.44a7.71 7.71 0 0 0 4-2.64 9.41 9.41 0 0 0 1.13-4.45v-.33h-4.52V274zm-1.57-5.3v1.66h-12.55v-1.66zM186.5 276.8l-.56-1.83a20.13 20.13 0 0 0 4.13-7.31l1.6.75a21 21 0 0 1-1.76 4v12.09h-1.73v-9.55c-.53.61-1.08 1.24-1.68 1.85zm15.63 7.62h-1.69v-.67h-7.22v.69h-1.66v-8.07h10.57zm-.94-16v6.83h-8.71v-6.83zm-.75 10.86v-1.4h-7.22v1.4zm0 2.93v-1.45h-7.22v1.45zm-.92-11.07v-1.24h-5.42v1.24zm0 1.44h-5.42v1.21h5.42zM208.93 269.87h1.66v1.55h-5.38v-1.55h2.12c-.25-.59-.5-1.17-.79-1.71l1.6-.45c.32.79.59 1.51.79 2.16zm-1.76 14.53h-1.57v-6.59h4.72v6.32h-1.55v-.75h-1.6zm3-11.79v1.47h-4.36v-1.47zm0 2.54v1.47h-4.36v-1.47zm-1.37 4.17h-1.6v2.51h1.6zm4.2-1.78v-.77c-.53 0-1.05.07-1.59.07l-.4-1.17a13.85 13.85 0 0 0 4.45-.63l.61 1.06a7.53 7.53 0 0 1-1.58.47v1h2.18c0-.74-.06-1.53-.06-2.36H218c0 .87 0 1.64.06 2.36h3.06v1.3h-3a10.29 10.29 0 0 0 .27 1.87 9.24 9.24 0 0 0 1.35-1.6l1 .79a9.62 9.62 0 0 1-1.89 2.2c.29.52.6.79 1 .83s.48-.58.66-1.7l1.17.79a6.26 6.26 0 0 1-.84 1.88 1.32 1.32 0 0 1-1 .48 2.49 2.49 0 0 1-2.11-1.44 13 13 0 0 1-2.12 1l-.6-1.33a10.46 10.46 0 0 0 2.13-1 14.48 14.48 0 0 1-.47-2.81h-2.27V280a15.44 15.44 0 0 0 1.67-.39v1.29a13.43 13.43 0 0 1-1.67.42v1.35c0 1.08-.58 1.62-1.71 1.62h-1.42l-.31-1.37a11 11 0 0 0 1.24.09.62.62 0 0 0 .71-.69v-.75c-.62.09-1.25.18-1.93.25l-.22-1.44c.78 0 1.5-.11 2.15-.18v-1.33h-2.09v-1.3zm.37-8.26a6.74 6.74 0 0 0-.66-1l1.47-.52a8.16 8.16 0 0 1 .85 1.53h2a14.11 14.11 0 0 0 .87-1.62l1.51.52c-.21.39-.43.75-.66 1.1h2.41v1.29h-4.34v.76h3.58v1.28h-3.58v.81h4.48v1.29h-10.24v-1.29h4.23v-.81h-3.53v-1.28h3.53v-.76H211v-1.29zm7.91 6.87l-.69 1a11.75 11.75 0 0 0-2.19-1l.7-1a11.56 11.56 0 0 1 2.15 1zM225.62 272.28l-1.5-.93a10.16 10.16 0 0 0 2.24-3.64l1.63.36c-.1.31-.23.61-.34.9h4.54v1.5h-2.7a12.55 12.55 0 0 1 .83 1.29l-1.57.6a17.37 17.37 0 0 0-1-1.89h-.8a14 14 0 0 1-1.33 1.81zm14.38 3.78h-1.68v-2h-12.16v2h-1.68v-3.43h7a8.15 8.15 0 0 0-.47-1l1.52-.25-.31-.2a10.47 10.47 0 0 0 1.8-3.47l1.64.36c-.11.3-.2.59-.31.88h5v1.5h-2.94a8.91 8.91 0 0 1 .72 1.15l-1.51.56a12.13 12.13 0 0 0-1-1.71h-.91a11.8 11.8 0 0 1-1 1.65l-.86-.56c.14.33.27.69.41 1.07H240zm-2.49 2.6h-8.77v.95h9.62v4.81h-1.71v-.65h-7.91v.63H227v-9.52h10.48zm-1.67-1.37v-1.05h-7.1v1.05zm.81 5V281h-7.91v1.3zM247.42 272.19v1.34a27 27 0 0 1-2 2.79h2.17v1.13a21.4 21.4 0 0 1-.86 3.31c.14.11.27.22.41.35a6.08 6.08 0 0 0 1.66 1.15 7 7 0 0 0 2.31.34h3.36c1.26 0 2.92-.06 4.95-.13l-.37 1.62h-4.38c-1.26 0-2.48 0-3.64-.07a8.6 8.6 0 0 1-2.79-.43 6.32 6.32 0 0 1-2-1.39.61.61 0 0 0-.43-.2c-.36 0-.94.78-1.73 2.36l-1.24-1.13c.83-1.59 1.62-2.51 2.37-2.79a15 15 0 0 0 .83-2.72h-2.64v-1.3a23.46 23.46 0 0 0 2.13-2.72h-2.45v-1.55zm-.09-1.72l-1.12 1.11a17.61 17.61 0 0 0-2.75-2.61l1.13-1.06a20.68 20.68 0 0 1 2.74 2.56zm3.4-.76a8.53 8.53 0 0 0-.94-1.37l1.59-.59a11.5 11.5 0 0 1 1.11 2h2a17.84 17.84 0 0 0 1.19-2l1.62.56a11.57 11.57 0 0 1-.94 1.44h2.79v1.53h-5a10.35 10.35 0 0 1-.39 1.15h4.12v9h-8.59v-9H252a11.9 11.9 0 0 0 .38-1.15H248v-1.53zm5.62 5.27v-1.11h-5.42V275zm0 2.44v-1.1h-5.42v1.1zm0 1.31h-5.42v1.19h5.42zM240.37 222.68c-2.07 0-2.07-.51-4.14-.51s-2.06.12-4.13.12-2.07-.06-4.14-.06-2.07-.14-4.14-.14h-4.13c-2.06 0-2.07.69-4.14.69s-2.07.14-4.14.14-2.06-.3-4.13-.3-2.07-.68-4.14-.68-2.07.43-4.14.43-2.07.15-4.14.15-2.07.3-4.13.3-2.07-.23-4.14-.23-2.07-.51-4.14-.51-2.07.43-4.14.43h-4.14c-2.07 0-2.07-.09-4.14-.09s-2.07.24-4.14.24-2.07-.33-4.14-.33-2.07.34-4.14.34-2.07-.54-4.13-.54-2.08-.24-4.15-.24-2.07.82-4.14.82-2.07-.79-4.14-.79-2.07.53-4.14.53-2.07.38-4.14.38-2.07-.59-4.14-.59-2.07-.3-4.14-.3-2.07.78-4.14.78-2.07-.05-4.14-.05-2.07-.13-4.14-.13-2.07.06-4.14.06-2.07.05-4.14.05-2.07-.3-4.14-.3-2.07.34-4.14.34-2.07-.49-4.14-.49-2.08-.28-4.15-.28-2.07.05-4.14.05h-8.29c-2.07 0-2.07.79-4.14.79s-2.08-.76-4.15-.76-2.07.55-4.15.55-2.07.26-4.15.26a38.69 38.69 0 0 1-4.18-.66 38.17 38.17 0 0 1-4.16-.56 36.63 36.63 0 0 1-4-1.15 35.48 35.48 0 0 1-3.77-1.84 39.6 39.6 0 0 1-3.96-1.6c-1.19-.75-2-2-3.12-2.87a35.66 35.66 0 0 1-3.11-2.78 39.23 39.23 0 0 1-2.86-3 38.56 38.56 0 0 1-2.86-3.14 38.13 38.13 0 0 1-1.9-3.78 40.52 40.52 0 0 1-1.4-4 39.17 39.17 0 0 1-.93-4.09 39.87 39.87 0 0 1-1.11-4.06 39.36 39.36 0 0 1 0-4.21h.39a35.38 35.38 0 0 1 .3-4.14 37.1 37.1 0 0 1 .53-4.12 40.68 40.68 0 0 1 1.16-4 37 37 0 0 1 1.7-3.8c.61-1.26.75-2.77 1.49-3.95a39.72 39.72 0 0 1 2.3-3.54 38.37 38.37 0 0 1 3.06-2.92 38 38 0 0 1 3.23-2.68 37.4 37.4 0 0 1 3.52-2.23c1.18-.74 2-2.05 3.32-2.66a37.42 37.42 0 0 1 3.9-1.66 38.89 38.89 0 0 1 4.05-1.27c1.35-.31 2.89.37 4.29.22s2.72-1.07 4.14-1.07c2.07 0 2.07.11 4.13.11s2.07.34 4.14.34 2.07.33 4.13.33 2.07-.26 4.14-.26 2.07.25 4.14.25 2.07-.18 4.14-.18 2.07-.33 4.13-.33 2.07.22 4.14.22 2.07-.1 4.14-.1 2.07-.47 4.14-.47 2.06 1 4.13 1 2.07-.94 4.14-.94 2.07.4 4.14.4 2.07-.25 4.14-.25 2.07.61 4.14.61 2.07.11 4.14.11 2.06-.77 4.13-.77 2.07.17 4.14.17 2.07.22 4.14.22 2.07-.14 4.14-.14 2.07.47 4.14.47 2.07-.67 4.14-.67 2.07.55 4.14.55 2.07-.37 4.14-.37 2.07.23 4.14.23 2.07-.47 4.14-.47 2.08.54 4.15.54 2.07.13 4.14.13 2.07-.21 4.14-.21 2.07-.35 4.14-.35 2.07.36 4.14.36 2.07.37 4.14.37 2.07-.59 4.14-.59h4.14c2.07 0 2.07.54 4.14.54h4.14c2.07 0 2.07-.82 4.14-.82s2.08.31 4.15.31 2.07.15 4.14.15 2.07.33 4.15.33 2.07-.51 4.14-.51 2.07.05 4.15.05 2.07-.29 4.15-.29 2.07-.06 4.15-.06c1.41 0 2.78.7 4.16.85a36.88 36.88 0 0 1 4.09.77 35.06 35.06 0 0 1 3.95 1.29c1.33.47 2.84.43 4.09 1a35.71 35.71 0 0 1 3.69 2c1.19.74 2 2 3.06 2.91a31 31 0 0 1 6.41 5.41 39.71 39.71 0 0 1 2.23 3.58 40.88 40.88 0 0 1 1.91 3.73 38.21 38.21 0 0 1 1.62 3.85 38.85 38.85 0 0 1 1.07 4.05 39.05 39.05 0 0 1 .88 4.09 38.46 38.46 0 0 1 .27 4.19h-.19a36.26 36.26 0 0 1-.15 4.18 37.08 37.08 0 0 1-.19 4.24c-.32 1.38-1.31 2.56-1.77 3.87a39.07 39.07 0 0 1-1.12 4.09c-.61 1.26-1.9 2.15-2.64 3.33s-1 2.76-1.83 3.85a27.35 27.35 0 0 1-9.66 8.09 80.45 80.45 0 0 1-7.43 3.94 39.57 39.57 0 0 1-4.1 1 37.55 37.55 0 0 1-4.16.64 36.24 36.24 0 0 1-4.21.47z"/><path class="cls-13" d="M240.19 212.49h-4.13c-2.07 0-2.07.08-4.14.08s-2.07-.19-4.13-.19-2.07.53-4.14.53-2.07-.51-4.14-.51-2.07.12-4.14.12-2.07.35-4.13.35H198.86c-2.07 0-2.06.08-4.13.08s-2.07.45-4.14.45-2.07-.65-4.14-.65h-8.28c-2.07 0-2.07.08-4.14.08h-8.27c-2.07 0-2.07-.08-4.14-.08s-2.07-.32-4.14-.32-2.07-.08-4.14-.08-2.07.5-4.14.5-2.07-.07-4.14-.07-2.07-.42-4.14-.42-2.07.54-4.14.54-2.07-.43-4.14-.43-2.07.17-4.15.17-2.07.35-4.14.35h-4.14c-2.07 0-2.07-.58-4.14-.58s-2.07.76-4.14.76-2.07-.49-4.14-.49-2.07.21-4.14.21-2.07-.09-4.14-.09-2.07-.47-4.14-.47-2.07.1-4.14.1-2.07.2-4.14.2-2.08.07-4.15.07-2.07.43-4.14.43-2.07-.64-4.15-.64-2.07.65-4.14.65-2.07-.7-4.15-.7-2.07.47-4.15.47-2.07-.56-4.15-.56c-1.41 0-2.83.61-4.21.45a37.65 37.65 0 0 1-4.11-.93 38.49 38.49 0 0 1-4-1.39 37.18 37.18 0 0 1-3.85-1.48 37.75 37.75 0 0 1-3.58-2.11 37 37 0 0 1-3.31-2.5 35.43 35.43 0 0 1-3.16-2.7 37.44 37.44 0 0 1-2.95-3 37.65 37.65 0 0 1-2.44-3.41 38.44 38.44 0 0 1-1.71-3.81 37.37 37.37 0 0 1-2-3.7 36.47 36.47 0 0 1-1.06-4.05 37.44 37.44 0 0 1-.78-4.12 38.66 38.66 0 0 1-.09-4.18h-.29c0-1.42.61-2.77.77-4.15a35.35 35.35 0 0 1 .4-4.15 37.24 37.24 0 0 1 .75-4.16 36.4 36.4 0 0 1 1.5-4 39.25 39.25 0 0 1 2.1-3.68 40 40 0 0 1 2.38-3.51 40.5 40.5 0 0 1 3.06-2.94 36.48 36.48 0 0 1 3.35-2.55 37.2 37.2 0 0 1 3.24-2.66 36.87 36.87 0 0 1 3.86-1.62c1.26-.6 2.27-1.83 3.6-2.29s2.9 0 4.28-.29 2.59-1.34 4-1.5a39.35 39.35 0 0 1 4.22-.22c2.07 0 2.07.08 4.14.08s2.07.51 4.13.51 2.07-.56 4.14-.56 2.07-.17 4.14-.17 2.07.83 4.14.83 2.06-.26 4.13-.26 2.07-.58 4.14-.58 2.06.1 4.13.1 2.07.61 4.14.61 2.07.21 4.14.21 2.07-.74 4.14-.74 2.07-.09 4.13-.09 2.07.18 4.14.18 2.07-.12 4.14-.12 2.07.8 4.14.8 2.07-.35 4.14-.35 2.07.28 4.14.28 2.07-.09 4.14-.09 2.07-.77 4.14-.77 2.07.75 4.14.75 2.07.15 4.14.15 2.07-.54 4.14-.54 2.07-.42 4.14-.42 2.07 1 4.14 1 2.07-.72 4.14-.72 2.07.3 4.14.3 2.07.37 4.14.37 2.07-.21 4.14-.21S176 138 178 138s2.07.54 4.14.54 2.07-.59 4.14-.59 2.07.55 4.14.55 2.07-.6 4.14-.6 2.07.53 4.14.53 2.07-.64 4.14-.64 2.07.12 4.14.12 2.08.49 4.15.49 2.07-.73 4.14-.73 2.07.09 4.15.09 2.07.59 4.14.59 2.07.17 4.14.17h4.15c2.07 0 2.07-.48 4.15-.48s2.07.41 4.15.41a39.17 39.17 0 0 1 4.18-.11c1.4.16 2.9-.18 4.26.13a37.2 37.2 0 0 1 4 1.5 36.68 36.68 0 0 1 3.72 2 37.43 37.43 0 0 1 3.77 1.82 38.43 38.43 0 0 1 3.59 2.22 36.47 36.47 0 0 1 2.93 3 82.88 82.88 0 0 1 5.38 6.44 39.34 39.34 0 0 1 1.63 3.89 36.16 36.16 0 0 1 1.42 3.9 39.57 39.57 0 0 1 2.79 8 37.3 37.3 0 0 1 .27 4.25h-.85a37.57 37.57 0 0 1 .26 4.2 35.8 35.8 0 0 1-.56 4.19c-.31 1.37-1.34 2.53-1.8 3.84s-.51 2.81-1.12 4.07a39.72 39.72 0 0 1-1.72 3.88c-.75 1.19-2 2.05-2.88 3.14a38.77 38.77 0 0 1-2.43 3.49 40.52 40.52 0 0 1-3.17 2.83 38.92 38.92 0 0 1-3.62 2.22c-1.18.74-2.72.83-4 1.44a37.12 37.12 0 0 1-3.76 1.81 38.13 38.13 0 0 1-4.07.87c-1.35.3-2.59 1.27-4 1.42s-2.76-.4-4.18-.4z"/><path class="cls-11" d="M62.42 155.42v-1.69h8.18c-.22-.44-.44-.85-.65-1.22l2.1-.34c.22.45.43 1 .65 1.56H80v1.69h-3.36l.83.56a24.86 24.86 0 0 1-3 1.39c1.52.43 2.93.87 4.21 1.3l-1 1h2.48v1.73H64.89v2.26c0 .71-.06 1.41-.11 2.08a9.27 9.27 0 0 0 2.91-3.95l1.6.65-.41 1h3.26v-1.54h2v1.54h5.44v1.8h-5.45v1.58h5v1.78h-5v1.56h6.55v1.78H64.94v-1.84h7.2v-1.56h-5v-1.78h5v-1.58h-4.32a10 10 0 0 1-1.73 1.82l-1.33-1.15a15.61 15.61 0 0 1-2 6.51L61.29 171a15 15 0 0 0 1.63-7.39v-4H76.8c-1.35-.5-2.91-1-4.64-1.5a42.58 42.58 0 0 1-7.16 1.45l-1-1.28c2-.22 3.77-.52 5.42-.87-1.3-.34-2.69-.69-4.16-1l1-1zm4.38 0q2.86.65 5.29 1.32a25.05 25.05 0 0 0 3.41-1.32zM84.73 163l-1.35-1.71a16.39 16.39 0 0 0 4-8.33l2.11.37c-.22 1-.46 1.93-.72 2.8h4v-3.65h2.06v3.65h7v2h-7v4.49h6.53v2h-6.53v5h8.35v2H84v-2h8.82v-5h-6.2v-2h6.2v-4.49H88a15.58 15.58 0 0 1-3.27 4.87zM115 159h-1.43a16.46 16.46 0 0 1-2.15 2.42l1.85-.15c.3-.37.62-.76 1-1.15l1.37.54a23.05 23.05 0 0 1-3.6 3.47l2-.28c-.08-.32-.19-.63-.28-.91l1.22-.39c.28.8.54 1.74.8 2.8l-1.28.3c0-.24-.11-.45-.15-.65-1.56.22-3 .39-4.36.52l-.3-1.21a8.53 8.53 0 0 0 2.45-1.82l-2.35.19-.28-1.23a7.78 7.78 0 0 0 2.32-2.45h-3.27v13.37h-1.96V153h8.4zm-1.86-4.47h-4.6v.87h4.6zm-4.6 3.06h4.6v-.94h-4.6zm3.45 8.43v1.82h1.56a2.35 2.35 0 0 0 0-.35v-1.69h1.67v1.69a4.91 4.91 0 0 1-1.08 3 7 7 0 0 1-3.28 1.6l-.93-1.45a6.43 6.43 0 0 0 2.82-1.19c0-.07.11-.13.15-.2h-2.58V166zm7.91-7a14.51 14.51 0 0 1-2.1 2.38l1.8-.13 1-1.15 1.37.54a23.23 23.23 0 0 1-3.6 3.45l2-.28c-.11-.3-.22-.61-.3-.89l1.21-.39a26.26 26.26 0 0 1 .91 2.89l-1.28.32c-.06-.28-.13-.54-.19-.78-1.61.22-3.08.39-4.43.52l-.3-1.21a8.41 8.41 0 0 0 2.45-1.83l-2.34.2-.28-1.24a7.79 7.79 0 0 0 2.29-2.4h-1.8v-6h8.4v17.35a1.7 1.7 0 0 1-1.93 1.89c-.83 0-1.63 0-2.41-.05l-.46-1.71c.78 0 1.5.07 2.17.07q.72 0 .72-.78V159zm-1.8 6.76v2.06h1.54V166h1.63v3.21h-3.17v2.82h-1.78v-6.31zm4.73-11.23h-4.62v.87h4.62zm-4.62 3.06h4.62v-.93h-4.62zM133.09 160.88l-1.47 1.48a26.74 26.74 0 0 0-3.58-3.3l1.48-1.41a25.52 25.52 0 0 1 3.57 3.23zm.59 3.62a67.82 67.82 0 0 1-3.23 7.68l-2.06-.91a72.64 72.64 0 0 0 3.45-7.52zm.13-8.73l-1.47 1.47a21 21 0 0 0-3.8-3.25l1.5-1.43a30.11 30.11 0 0 1 3.77 3.21zm6.16.06a28 28 0 0 0-1.33-3.06l1.91-.54a28.21 28.21 0 0 1 1.46 3.58h-.07 5.38v2h-5.38v4.64h4.79v2h-4.79v5.14h5.83v2h-13.9v-2h6v-5.14H135v-2h4.86v-4.64h-5.46v-2zM150.74 166.11l-.65-2.17a19.82 19.82 0 0 0 5.77-6.79h-5.25v-2h3.06c-.33-.82-.68-1.6-1-2.38l2-.55c.43 1.07.8 2 1.06 2.93h2.3v1.74a16.76 16.76 0 0 1-2.56 4.55 20.73 20.73 0 0 1 3.4 2.38l-1.17 1.78a19.94 19.94 0 0 0-2.32-2v8.72h-2v-8.48a33.32 33.32 0 0 1-2.64 2.27zm14-13.62v6.2h4.8v2h-4.8v8.89H170v2h-12.8v-2h5.42v-8.89H158v-2h4.66v-6.2zM173.33 159l-1.09-1.72a56.18 56.18 0 0 0 9.44-4.9h1.25a54.7 54.7 0 0 0 9.44 4.88l-1.09 1.74-1.19-.57v5.77h-15.57v-5.75c-.39.16-.8.33-1.19.55zm13.31-2.3v.8H178v-.76c-1 .54-2.15 1.08-3.3 1.65H190c-1.21-.59-2.34-1.15-3.36-1.71zm2.65 15.72h-2v-.7h-10v.72h-2v-7.35h13.94zm-7.92-12.49h-5v2.75h5zm5.94 7.69v-1h-10v1zm0 2.48V169h-10v1.07zm-7.22-7.92l-1.36.35a12.05 12.05 0 0 0-1-2.06l1.36-.43a11.83 11.83 0 0 1 1 2.12zm2.22-8.06c-.94.6-1.93 1.23-3 1.86h6c-1.1-.67-2.09-1.28-3-1.88zm5.89 5.81h-5v2.75h5zm-1.32.47a8.42 8.42 0 0 1-1 2.13l-1.34-.5a8.59 8.59 0 0 0 1-2zM199.23 154.83h2v1.87h-6.48v-1.87h2.56c-.31-.71-.61-1.4-1-2.06l1.93-.54c.43.96.76 1.82.99 2.6zm-2.12 17.5h-1.89v-7.93h5.68v7.6H199v-.91h-1.93zm3.58-14.2v1.78h-5.25v-1.78zm0 3.06V163h-5.25v-1.78zm-1.65 5h-1.93v3H199zm5.05-2.15v-.93c-.63 0-1.26.08-1.91.08l-.47-1.4a16.52 16.52 0 0 0 5.35-.76l.74 1.28a9.77 9.77 0 0 1-1.91.56v1.17h2.63c-.05-.89-.07-1.84-.07-2.84h1.73c0 1 0 2 .07 2.84h3.69v1.56h-3.58a13.15 13.15 0 0 0 .32 2.26 11 11 0 0 0 1.63-1.93l1.26.95a11.3 11.3 0 0 1-2.28 2.65c.35.63.72.95 1.15 1s.58-.69.8-2l1.41.95a7.65 7.65 0 0 1-1 2.25 1.55 1.55 0 0 1-1.19.59 3 3 0 0 1-2.54-1.73 15.15 15.15 0 0 1-2.56 1.23l-.71-1.6a12.34 12.34 0 0 0 2.56-1.2 17.62 17.62 0 0 1-.57-3.38h-2.73V167a18.33 18.33 0 0 0 2-.48v1.56a15.65 15.65 0 0 1-2 .5v1.63c0 1.3-.69 1.95-2.06 1.95h-1.71l-.37-1.65a11.28 11.28 0 0 0 1.5.11.74.74 0 0 0 .84-.82v-.92c-.74.11-1.49.22-2.32.31l-.26-1.74c.93 0 1.8-.13 2.58-.21v-1.61h-2.51v-1.56zm.46-9.95a8.33 8.33 0 0 0-.81-1.22l1.78-.62a10.28 10.28 0 0 1 1 1.84H209a16.59 16.59 0 0 0 1-2l1.82.63c-.26.47-.52.91-.8 1.32H214v1.56h-5.23v.91h4.32v1.54h-4.32v1h5.4v1.56h-12.38v-1.56h5.1v-1h-4.25v-1.54h4.25v-.91h-5.12v-1.56zm9.52 8.28l-.83 1.24a13.73 13.73 0 0 0-2.64-1.24l.84-1.26a13.34 13.34 0 0 1 2.63 1.29zM236.7 170l-.35 2h-4.49c-5.14 0-8.34-.29-9.62-.83a6.71 6.71 0 0 1-2.76-2.25 16.56 16.56 0 0 1-1.47 3.42l-1.45-1.28a14 14 0 0 0 1.79-6.39l1.78.21c0 .7-.11 1.39-.19 2a8 8 0 0 0 1.45 1.63v-4.77h-4.12V162h9.06v1.82h-3.14v2H226v1.84h-2.78v1.94h.07a37.87 37.87 0 0 0 8.15.54c2.33-.04 4.09-.09 5.26-.14zm-11.08-16.91v7.85h-7.33v-7.85zm-1.91 3.14v-1.45h-3.49v1.45zm0 1.56h-3.49v1.45h3.49zm6.2-1.65a12.68 12.68 0 0 0 .31-1.25h-3.5v-1.78h9.55v1.78h-4.06a12.7 12.7 0 0 1-.32 1.25h3.64v10.17h-2a23.7 23.7 0 0 1 2.8 2.06l-1.33 1.25a17.37 17.37 0 0 0-3.12-2.47l.91-.87h-3.15l1.11 1a14.9 14.9 0 0 1-3.43 2.45l-1.06-1.39a12.93 12.93 0 0 0 3-2h-1.93v-10.23zm3.77 3v-1.36h-4.46v1.36zm0 2.71v-1.25h-4.46v1.19zm0 1.52h-4.46v1.37h4.46zM89.06 195.9h3v1.93h-5.4a38.92 38.92 0 0 1 5.16 2.36l-1.2 1.81a30.23 30.23 0 0 0-6.38-3.05l.72-1.09h-5.75l1.06.93a25.3 25.3 0 0 1-6.13 3.21l-1.26-1.65a27.92 27.92 0 0 0 5.33-2.54h-5.59v-1.91h2.95v-13.22h13.49zM87 186.14v-1.54h-9.37v1.54zm0 3.26v-1.65h-9.37v1.65zm0 3.25v-1.6h-9.37v1.6zm0 3.25v-1.6h-9.37v1.6zM97.92 198a16.21 16.21 0 0 1-2 3.64l-1.47-1.06a13.71 13.71 0 0 0 1.95-3.32zm7.44-15.36v6.07h-4.12l.26 1.09h4.85v1.58h-11.7v-1.58h4.92l-.26-1.09h-3.54v-6.07zm-.13 9.76v4.4h-3.67v3.2a1.6 1.6 0 0 1-1.84 1.76H98.2l-.41-1.8a7.63 7.63 0 0 0 1.3.13c.33 0 .5-.2.5-.54v-2.76H96v-4.4zm-1.74-7.28V184h-5.87v1.09zm0 1.21h-5.87v1h5.87zm-.15 7.46h-5.51v1.58h5.51zm2.39 6.39l-1.46 1a23.11 23.11 0 0 0-1.73-3l1.41-.87a22.38 22.38 0 0 1 1.78 2.88zm8.93-5.65a15.7 15.7 0 0 1-8 7.39l-.82-1.89a14.2 14.2 0 0 0 7.2-6.7zm-1.11-11.06a21.11 21.11 0 0 1-6.44 4.36l-.84-1.76a17.91 17.91 0 0 0 6-4zm.59 5.7a21.74 21.74 0 0 1-6.59 5l-.85-1.74a17.69 17.69 0 0 0 6.18-4.68zM125.73 190.74a8 8 0 0 0-.47-.82l2-.31a7.21 7.21 0 0 1 .46 1.13h7v1.54h-3.12a8.06 8.06 0 0 1-.52 1.11h5.2V195h-19.05v-1.58h5.06c-.2-.39-.39-.76-.61-1.11h-2.88v-1.54zm-2.14-5.14a5.37 5.37 0 0 1-1.58 3.3 9.05 9.05 0 0 1-4.15 1.75l-.6-1.38a8.22 8.22 0 0 0 3.53-1.33 1.38 1.38 0 0 0 .17-.15c-1 .15-2 .26-2.92.33l-.31-1.11a20 20 0 0 0 1.85-1.45l-1.93.13-.22-1.15a10.07 10.07 0 0 0 2.21-2.56l1.41.44a13.74 13.74 0 0 1-1.82 2.16l1.5-.13c.43-.47.86-1 1.25-1.45l1.46.54a24.79 24.79 0 0 1-3.43 3.3l1.76-.26a5.71 5.71 0 0 0 .34-1.15zm9.8 16.48h-1.93v-.69h-9.35v.69h-2v-6.4h13.23zm-1.93-4.18v-.9h-9.35v.91zm0 2.1v-.87h-9.35v.87zm-7.74-10.23l-.41-1.22c.43-.13.65-.32.65-.61v-5.14h2.1a7 7 0 0 0-.5-.75l1.67-.29a9.21 9.21 0 0 1 .48 1H130V187h-1.06a13.18 13.18 0 0 1 1.52 2.4l-1.34.61c-.16-.35-.31-.65-.44-.93-1.49.23-3.14.47-4.96.69zm.54 3.62h4.9a6.16 6.16 0 0 0 .52-1.11h-6c.21.35.41.72.58 1.11zm4.21-9.52h-3v.56h3zm-3 2.08h3v-.63h-3zm0 1v1.38c.92-.13 1.76-.28 2.54-.41-.15-.24-.28-.43-.41-.6l1.17-.37zm10.53-4.49v1.1c-.35.68-.72 1.39-1.13 2.13a4.41 4.41 0 0 1 1.24 2.25 1.49 1.49 0 0 1-.48 1.22 4.61 4.61 0 0 1-2.34.47l-.48-1.47a6.56 6.56 0 0 0 .78.07 1.9 1.9 0 0 0 .63-.09c.11 0 .18-.11.18-.2a2.94 2.94 0 0 0-1.24-2 15.47 15.47 0 0 0 1.11-2.17h-1.85v6.42h-1.6v-7.74zM149 182v4h8.24c-.08 3.86-.21 7-.43 9.41a13.83 13.83 0 0 1-1.13 5 2.9 2.9 0 0 1-2.47 1.5h-3l-.56-2c.91 0 1.78.06 2.6.06 1.11 0 1.85-.74 2.19-2.19a58.15 58.15 0 0 0 .72-9.78h-6.27a25.93 25.93 0 0 1-1.95 7.89 13.56 13.56 0 0 1-6.31 6.18l-1.13-1.8a12.48 12.48 0 0 0 5.84-5.94 24.27 24.27 0 0 0 1.43-6.33h-6.12v-2h6.27l.06-1.69V182zM169.31 200.63h-2v-1.13h-3.43v1.76h-2v-15.72H164a19.89 19.89 0 0 0 .86-3.62l2.06.28a17.26 17.26 0 0 1-.95 3.34h3.34zm-2-9.15v-4h-3.43v4zm0 6.11v-4.27h-3.43v4.27zm12.83 1.8c-.22 1.56-1.26 2.34-3.1 2.34-.43 0-1.21 0-2.3-.1l-.5-1.89c1 0 1.78.09 2.48.09a1.39 1.39 0 0 0 1.49-1.37c.13-1.08.2-4.73.24-10.91H173a19.23 19.23 0 0 1-2.13 3.58l-1.23-1.62a19.23 19.23 0 0 0 2.95-7.62l2 .26a25 25 0 0 1-.86 3.41h6.7c.07 7.44-.04 12.1-.26 13.83zm-3.66-4l-1.63 1.15a40.52 40.52 0 0 0-3.34-4.77l1.67-1a36.86 36.86 0 0 1 3.33 4.63zM192.4 185.67v-1H184v-1.6h8.44v-1.22h2v1.22h8.44v1.6h-8.44v1h6.62v6.46h-.44a19.91 19.91 0 0 1 2.09 2.58l-1.37.93c-.26-.39-.52-.78-.82-1.17l-1.78.09v1.49h4.38v1.67h-4.38V200c0 1.26-.7 1.89-2.08 1.89h-2.36l-.39-1.87a16.75 16.75 0 0 0 2.09.13c.47 0 .71-.21.71-.65v-1.8h-7.35a20.26 20.26 0 0 1 2.86 2.15l-1.38 1.41a20.17 20.17 0 0 0-3.24-2.73l.85-.83h-4.73v-1.67h13v-1.41c-3.75.16-7.65.29-11.71.42l-.39-1.63c2.65 0 5.23-.11 7.79-.2v-1.1h-6.62v-6.46zm0 2.47v-1.06h-4.62v1.06zm0 1.41h-4.62v1.06h4.62zm2-1.41h4.62v-1.06h-4.62zm4.62 1.41h-4.62v1.06h4.62zm-.19 2.95l.58-.37h-5v1l4.86-.2c-.15-.13-.27-.28-.41-.43zM214.64 194.73v-1.56h2.08v1.56H225v1.78h-8.28V202h-2.08v-5.48h-8.35v-1.78zm-1.82 3.36a20.34 20.34 0 0 1-5.27 3.51l-1.26-1.6a20.44 20.44 0 0 0 5.16-3.08zm3.1-12.05c-.33.39-.63.78-.91 1.12h9.32v1.65h-3.53a11.88 11.88 0 0 1-2.13 2.17q2.67.65 5.51 1.56L223 194.1c-2.11-.74-4.21-1.41-6.34-2a22.61 22.61 0 0 1-8.84 1.65l-1.13-1.69a30.51 30.51 0 0 0 7.18-.68c-1.35-.32-2.71-.6-4.08-.86l1.58-1.74H207v-1.65h5.77c.46-.56.89-1.12 1.32-1.69zm8.54.76h-1.91v-1.54h-13.83v1.54h-1.91v-3.26h7.79c-.27-.47-.55-.93-.85-1.36l2.15-.35c.26.52.49 1.08.75 1.71h7.81zm-6 2h-4.9c-.31.33-.57.63-.83.89 1.17.2 2.39.43 3.6.72a10.25 10.25 0 0 0 2.17-1.6zm6.26 11.38l-1.43 1.44a27.69 27.69 0 0 0-4.79-3.52l1.24-1.21a36.74 36.74 0 0 1 5.02 3.3z"/></g></g></svg>