<svg xmlns="http://www.w3.org/2000/svg" xmlns:xlink="http://www.w3.org/1999/xlink" viewBox="0 0 298.52 308.81"><defs><style>.cls-1,.cls-14,.cls-15,.cls-17,.cls-18,.cls-19,.cls-4,.cls-5{fill:none;}.cls-2{fill:#f5a117;}.cls-3{clip-path:url(#clip-path);}.cls-4{stroke:#633a7c;}.cls-14,.cls-16,.cls-17,.cls-18,.cls-19,.cls-4,.cls-5{stroke-linecap:round;stroke-linejoin:round;}.cls-15,.cls-16,.cls-17,.cls-4,.cls-5{stroke-width:1.04px;}.cls-5{stroke:#fff;}.cls-6{fill:#c9caca;}.cls-7{clip-path:url(#clip-path-2);}.cls-8{fill:#e9506c;}.cls-9{fill:#f2f3f2;}.cls-10{fill:#ef8575;}.cls-11,.cls-16{fill:#001d2f;}.cls-12{clip-path:url(#clip-path-3);}.cls-13{fill:#fff;}.cls-14,.cls-15,.cls-16,.cls-17,.cls-19{stroke:#001d2f;}.cls-14{stroke-width:3.12px;}.cls-15{stroke-miterlimit:10;}.cls-18{stroke:#c9caca;}.cls-18,.cls-19{stroke-width:1.56px;}</style><clipPath id="clip-path"><rect class="cls-1" x="52.91" y="104.54" width="72.75" height="48.41"/></clipPath><clipPath id="clip-path-2"><rect class="cls-1" x="174.59" y="113.72" width="69.1" height="37.38"/></clipPath><clipPath id="clip-path-3"><rect class="cls-1" x="109.13" y="89.06" width="76.63" height="56.04"/></clipPath></defs><title>CTG-3_en</title><g id="Layer_2" data-name="Layer 2"><g id="圖層_1" data-name="圖層 1"><path class="cls-2" d="M125.82,153.12c-1,1-1.61-.09-3.07-.09s-1.45.06-2.91.06-1.45-.16-2.91-.16-1.45,0-2.9,0-1.46-.16-2.91-.16-1.46.12-2.91.12-1.46-.12-2.91-.12-1.45.39-2.91.39-1.45-.24-2.9-.24-1.46,0-2.91,0-1.45-.12-2.91-.12-1.45.21-2.91.21-1.45-.07-2.91-.07-1.45.19-2.9.19-1.46-.24-2.92-.24-1.45-.18-2.91-.18-1.45.35-2.91.35-1.45-.23-2.91-.23-1.45.15-2.91.15-1.45.15-2.91.15-1.46,0-2.91,0-1.46-.11-2.91-.11-1.46-.28-2.92-.28-1.46.36-2.91.36-2,1-3.07-.05-.1-1.57-.1-3,.51-1.42.51-2.84-.17-1.43-.17-2.85-.35-1.42-.35-2.85.35-1.42.35-2.84,0-1.43,0-2.85.1-1.42.1-2.85-.34-1.42-.34-2.84.23-1.43.23-2.85.11-1.43.11-2.85-.4-1.42-.4-2.85.28-1.42.28-2.85.09-1.42.09-2.84S53,114.52,53,113.1s0-1.43,0-2.85.14-1.43.14-2.86-1.33-1.94-.31-2.94,1.54.32,3,.32,1.46-.13,2.91-.13,1.46-.16,2.91-.16,1.46.28,2.91.28,1.46-.44,2.91-.44,1.45.09,2.91.09,1.45,0,2.91,0,1.45.1,2.9.1,1.46.18,2.91.18,1.45,0,2.91,0,1.45-.23,2.91-.23,1.45.24,2.9.24,1.46,0,2.91,0,1.46-.2,2.91-.2,1.46-.2,2.91-.2,1.46.17,2.91.17,1.46.12,2.91.12,1.46-.34,2.91-.34,1.46,0,2.92,0,1.45.2,2.91.2,1.45.24,2.91.24,1.45-.13,2.91-.13h2.91c1.46,0,1.46-.08,2.92-.08s1.84-1,2.88,0,0,1.39,0,2.81.07,1.42.07,2.84.15,1.43.15,2.85-.15,1.42-.15,2.84.1,1.43.1,2.85-.22,1.42-.22,2.85-.09,1.42-.09,2.84-.1,1.43-.1,2.85.35,1.42.35,2.85,0,1.42,0,2.85-.29,1.42-.29,2.85,0,1.42,0,2.84.06,1.43.06,2.85,0,1.43,0,2.85,0,1.43,0,2.85-.33,1.48,0,2.87C126,151.68,126.84,152.12,125.82,153.12Z"/><path class="cls-2" d="M125.64,152.93c-1,1-1.43-.23-2.89-.23s-1.45.25-2.91.25-1.45.06-2.91.06h-5.81c-1.46,0-1.46,0-2.91,0s-1.46.13-2.91.13-1.45.06-2.91.06-1.45-.1-2.9-.1-1.46-.32-2.91-.32-1.45.21-2.91.21-1.45,0-2.91,0-1.45-.09-2.91-.09-1.45-.12-2.9-.12S83.49,153,82,153s-1.45.13-2.91.13-1.45-.22-2.91-.22H73.3c-1.45,0-1.45.06-2.91.06s-1.45.16-2.91.16S66,153,64.57,153s-1.46.08-2.91.08-1.46-.25-2.92-.25-1.46.35-2.91.35-1.91.85-3-.16.25-1.46.25-2.88-.29-1.42-.29-2.84.29-1.43.29-2.85S53,143,53,141.57s-.22-1.42-.22-2.84.25-1.43.25-2.85.1-1.42.1-2.85-.08-1.42-.08-2.84-.29-1.43-.29-2.85.15-1.43.15-2.85.28-1.42.28-2.85-.16-1.42-.16-2.85.1-1.42.1-2.84-.22-1.43-.22-2.85-.23-1.43-.23-2.85.5-1.43.5-2.86S52,105.67,53,104.67s1.32-.25,2.77-.25,1.46.16,2.91.16,1.46-.22,2.91-.22,1.46,0,2.91,0,1.46.22,2.91.22,1.45.18,2.91.18,1.45-.18,2.91-.18,1.45.17,2.9.17,1.46-.23,2.91-.23,1.45.25,2.91.25,1.45-.11,2.91-.11,1.45-.1,2.9-.1,1.46,0,2.91,0,1.46-.05,2.91-.05,1.46-.1,2.91-.1,1.46.11,2.91.11,1.46-.09,2.91-.09,1.46.38,2.91.38,1.46,0,2.92,0,1.45-.16,2.91-.16,1.45-.28,2.91-.28,1.45.11,2.91.11,1.46.3,2.91.3,1.46-.32,2.92-.32,1.79-.83,2.84.19,0,1.34,0,2.76,0,1.42,0,2.84.13,1.43.13,2.85-.23,1.42-.23,2.84.33,1.43.33,2.85-.13,1.42-.13,2.85-.29,1.42-.29,2.84.28,1.43.28,2.85-.1,1.42-.1,2.85V133c0,1.42.16,1.42.16,2.85s.13,1.42.13,2.84-.44,1.43-.44,2.85.25,1.43.25,2.85,0,1.43,0,2.85-.53,1.49-.23,2.89S126.66,151.93,125.64,152.93Z"/><g class="cls-3"><path class="cls-4" d="M58.59,102.12c0,2.26.07,2.26.07,4.52s0,2.27,0,4.53.18,2.26.18,4.52.2,2.26.2,4.53-.33,2.26-.33,4.52,0,2.26,0,4.52.11,2.27.11,4.53.21,2.26.21,4.53-.06,2.26-.06,4.53"/><path class="cls-5" d="M68.24,102.12c0,2.26,0,2.26,0,4.52s0,2.27,0,4.53,0,2.26,0,4.52.09,2.26.09,4.53-.05,2.26-.05,4.52-.13,2.26-.13,4.52.21,2.27.21,4.53-.36,2.26-.36,4.53.32,2.26.32,4.53"/><path class="cls-4" d="M77.57,102.12c0,2.26-.34,2.26-.34,4.52s-.15,2.27-.15,4.53.07,2.26.07,4.52.19,2.26.19,4.53-.13,2.26-.13,4.52-.1,2.26-.1,4.52.23,2.27.23,4.53-.22,2.26-.22,4.53.1,2.26.1,4.53"/><path class="cls-5" d="M86.52,102.12c0,2.26-.2,2.26-.2,4.52s.11,2.27.11,4.53.27,2.26.27,4.52.13,2.26.13,4.53-.1,2.26-.1,4.52,0,2.26,0,4.52-.41,2.27-.41,4.53.47,2.26.47,4.53-.23,2.26-.23,4.53"/><path class="cls-4" d="M95.92,102.12c0,2.26.07,2.26.07,4.52s-.25,2.27-.25,4.53.21,2.26.21,4.52-.3,2.26-.3,4.53.26,2.26.26,4.52-.23,2.26-.23,4.52.24,2.27.24,4.53.15,2.26.15,4.53-.36,2.26-.36,4.53"/><path class="cls-5" d="M105.11,102.12c0,2.26,0,2.26,0,4.52s-.27,2.27-.27,4.53,0,2.26,0,4.52.36,2.26.36,4.53-.24,2.26-.24,4.52v4.52c0,2.27.27,2.27.27,4.53s-.21,2.26-.21,4.53.2,2.26.2,4.53"/></g><path class="cls-6" d="M243.65,151.06c-1,1-1.4.16-2.84.16s-1.44,0-2.88,0h-2.87c-1.44,0-1.44,0-2.88,0s-1.44-.38-2.88-.38-1.44.17-2.88.17-1.44.33-2.87.33-1.44-.06-2.88-.06-1.44-.18-2.87-.18-1.44.18-2.88.18S213.48,151,212,151s-1.44.15-2.88.15-1.44.16-2.88.16-1.44-.16-2.88-.16-1.44-.07-2.88-.07-1.44-.06-2.88-.06-1.44-.06-2.88-.06-1.44-.09-2.88-.09-1.44.13-2.88.13-1.44.11-2.88.11-1.44-.15-2.88-.15-1.44.29-2.88.29-1.44.05-2.89.05-1.73.65-2.75-.37.08-1.31.08-2.74-.09-1.44-.09-2.87,0-1.44,0-2.88-.3-1.44-.3-2.87,0-1.44,0-2.88,0-1.43,0-2.87.1-1.44.1-2.88.26-1.43.26-2.87-.1-1.44-.1-2.87,0-1.44,0-2.88-.1-1.44-.1-2.87.35-1.45.35-2.89-1.42-2-.4-3,1.58.05,3,.05,1.44.12,2.88.12,1.44-.18,2.88-.18,1.44-.06,2.88-.06,1.44.18,2.88.18,1.43.27,2.87.27,1.44-.36,2.88-.36,1.44.2,2.87.2,1.44.16,2.88.16,1.44-.12,2.88-.12,1.44.13,2.87.13,1.44-.16,2.88-.16,1.44-.31,2.88-.31,1.44.28,2.88.28,1.44-.3,2.88-.3,1.44.15,2.88.15,1.44.33,2.88.33,1.44-.27,2.88-.27,1.44.28,2.88.28,1.44,0,2.88,0,1.44-.48,2.88-.48,1.44.19,2.89.19,1.44.26,2.88.26,2-1.38,3.06-.36-.34,1.61-.34,3,.18,1.43.18,2.87-.14,1.44-.14,2.87.13,1.44.13,2.88-.07,1.43-.07,2.87.28,1.44.28,2.87-.42,1.44-.42,2.88.23,1.44.23,2.87.13,1.44.13,2.88-.3,1.43-.3,2.87.23,1.44.23,2.88a9,9,0,0,0,.12,2.84C244.2,149.66,244.67,150,243.65,151.06Z"/><g class="cls-7"><line class="cls-5" x1="174.04" y1="116.7" x2="179.83" y2="116.7"/><line class="cls-5" x1="186.95" y1="116.7" x2="192.74" y2="116.7"/><line class="cls-5" x1="199.86" y1="116.7" x2="205.65" y2="116.7"/><line class="cls-5" x1="212.78" y1="116.7" x2="218.56" y2="116.7"/><line class="cls-5" x1="225.69" y1="116.7" x2="231.47" y2="116.7"/><line class="cls-5" x1="238.6" y1="116.7" x2="244.39" y2="116.7"/><line class="cls-5" x1="180.52" y1="121.1" x2="186.3" y2="121.1"/><line class="cls-5" x1="193.43" y1="121.1" x2="199.22" y2="121.1"/><line class="cls-5" x1="206.34" y1="121.1" x2="212.13" y2="121.1"/><line class="cls-5" x1="219.26" y1="121.1" x2="225.04" y2="121.1"/><line class="cls-5" x1="232.17" y1="121.1" x2="237.95" y2="121.1"/><line class="cls-5" x1="245.08" y1="121.1" x2="250.86" y2="121.1"/><line class="cls-5" x1="174.04" y1="125.73" x2="179.83" y2="125.73"/><line class="cls-5" x1="186.95" y1="125.73" x2="192.74" y2="125.73"/><line class="cls-5" x1="199.86" y1="125.73" x2="205.65" y2="125.73"/><line class="cls-5" x1="212.78" y1="125.73" x2="218.56" y2="125.73"/><line class="cls-5" x1="225.69" y1="125.73" x2="231.47" y2="125.73"/><line class="cls-5" x1="238.6" y1="125.73" x2="244.39" y2="125.73"/><line class="cls-5" x1="180.52" y1="130.12" x2="186.3" y2="130.12"/><line class="cls-5" x1="193.43" y1="130.12" x2="199.22" y2="130.12"/><line class="cls-5" x1="206.34" y1="130.12" x2="212.13" y2="130.12"/><line class="cls-5" x1="219.26" y1="130.12" x2="225.04" y2="130.12"/><line class="cls-5" x1="232.17" y1="130.12" x2="237.95" y2="130.12"/><line class="cls-5" x1="245.08" y1="130.12" x2="250.86" y2="130.12"/><line class="cls-5" x1="174.04" y1="134.75" x2="179.83" y2="134.75"/><line class="cls-5" x1="186.95" y1="134.75" x2="192.74" y2="134.75"/><line class="cls-5" x1="199.86" y1="134.75" x2="205.65" y2="134.75"/><line class="cls-5" x1="212.78" y1="134.75" x2="218.56" y2="134.75"/><line class="cls-5" x1="225.69" y1="134.75" x2="231.47" y2="134.75"/><line class="cls-5" x1="238.6" y1="134.75" x2="244.39" y2="134.75"/><line class="cls-5" x1="180.52" y1="139.15" x2="186.3" y2="139.15"/><line class="cls-5" x1="193.43" y1="139.15" x2="199.22" y2="139.15"/><line class="cls-5" x1="206.34" y1="139.15" x2="212.13" y2="139.15"/><line class="cls-5" x1="219.26" y1="139.15" x2="225.04" y2="139.15"/><line class="cls-5" x1="232.17" y1="139.15" x2="237.95" y2="139.15"/><line class="cls-5" x1="245.08" y1="139.15" x2="250.86" y2="139.15"/><line class="cls-5" x1="174.04" y1="143.77" x2="179.83" y2="143.77"/><line class="cls-5" x1="186.95" y1="143.77" x2="192.74" y2="143.77"/><line class="cls-5" x1="199.86" y1="143.77" x2="205.65" y2="143.77"/><line class="cls-5" x1="212.78" y1="143.77" x2="218.56" y2="143.77"/><line class="cls-5" x1="225.69" y1="143.77" x2="231.47" y2="143.77"/><line class="cls-5" x1="238.6" y1="143.77" x2="244.39" y2="143.77"/><line class="cls-5" x1="180.52" y1="148.17" x2="186.3" y2="148.17"/><line class="cls-5" x1="193.43" y1="148.17" x2="199.22" y2="148.17"/><line class="cls-5" x1="206.34" y1="148.17" x2="212.13" y2="148.17"/><line class="cls-5" x1="219.26" y1="148.17" x2="225.04" y2="148.17"/><line class="cls-5" x1="232.17" y1="148.17" x2="237.95" y2="148.17"/><line class="cls-5" x1="245.08" y1="148.17" x2="250.86" y2="148.17"/></g><path class="cls-8" d="M185.86,145.21c-1,1-1.53-.11-2.94-.11s-1.42.11-2.84.11-1.42.11-2.84.11-1.41-.1-2.83-.1-1.42.06-2.84.06-1.42-.4-2.84-.4-1.41.45-2.83.45-1.42-.1-2.84-.1-1.42-.33-2.84-.33-1.41.14-2.83.14-1.42.31-2.83.31-1.42-.1-2.84-.1h-2.84c-1.41,0-1.41.11-2.83.11s-1.42-.14-2.84-.14h-2.84c-1.42,0-1.42,0-2.84,0s-1.41.09-2.83.09-1.42-.22-2.84-.22-1.42.18-2.84.18-1.42-.4-2.84-.4-1.42.14-2.84.14-1.42.37-2.84.37-1.42-.38-2.84-.38-1.42.3-2.84.3-1.42,0-2.85,0-1.82.78-2.81-.24-.1-1.44-.1-2.91,0-1.48,0-2.95.27-1.47.27-2.94-.3-1.48-.3-3,0-1.47,0-2.95.23-1.47.23-2.94,0-1.48,0-3,0-1.48,0-3-.1-1.48-.1-3,0-1.47,0-3-.12-1.47-.12-2.95.16-1.47.16-3,.06-1.48.06-3-.21-1.48-.21-3,.29-1.47.29-3S109,99.4,109,97.93s.15-1.48.15-3-.25-1.48-.25-3-.66-1.76.37-2.83,1.28.09,2.69.09,1.42-.37,2.84-.37,1.42.06,2.84.06,1.41.06,2.83.06,1.42.07,2.84.07,1.42-.07,2.84-.07,1.42.19,2.83.19,1.42.06,2.84.06,1.42-.14,2.84-.14,1.41,0,2.83,0,1.42-.08,2.83-.08,1.42-.23,2.84-.23,1.42.15,2.84.15,1.42.27,2.83.27h2.84c1.42,0,1.42,0,2.84,0s1.42-.24,2.84-.24,1.42-.22,2.83-.22S161.6,89,163,89s1.42.24,2.84.24,1.42-.22,2.84-.22,1.42.17,2.84.17,1.42.09,2.84.09,1.42-.21,2.84-.21,1.42.19,2.84.19,1.42-.18,2.85-.18,2-1.16,3-.14-.26,1.59-.26,3.06.15,1.47.15,2.95.15,1.47.15,2.94,0,1.47,0,2.95-.34,1.47-.34,2.94.08,1.48.08,2.95.35,1.47.35,3-.25,1.47-.25,3-.08,1.47-.08,3,.19,1.47.19,3-.15,1.47-.15,2.95.29,1.47.29,3v3c0,1.47,0,1.47,0,3s-.42,1.47-.42,2.95,0,1.47,0,3,.33,1.47.33,2.95-.54,1.52-.21,3S186.89,144.15,185.86,145.21Z"/><path class="cls-9" d="M37,92.39c1.45.6,1.47.55,2.91,1.14s1.41.67,2.86,1.26,1.48.52,2.92,1.11,1.41.68,2.86,1.28c.14.06.41,0,.39-.1-.21-1.55-.62-1.49-.83-3s.08-1.58-.13-3.13-.19-1.55-.39-3.1-.18-1.56-.38-3.11c0-.15-.43-.39-.56-.3-1.23,1-1.13,1.08-2.37,2s-1.08,1.16-2.32,2.11-1.35.8-2.59,1.76-1.35.81-2.59,1.76C36.62,92.16,36.83,92.33,37,92.39Z"/><path class="cls-10" d="M101.89,51.22c.2-1.55.27-1.54.47-3.09s-.2-1.6,0-3.15.62-1.49.81-3-.07-1.59.13-3.14c0-.16-.14-.34-.29-.28-1.44.6-1.47.52-2.91,1.12s-1.31.92-2.75,1.52-1.59.25-3,.85-1.46.56-2.91,1.16c-.14.06-.19.66-.07.75,1.24.95,1.32.85,2.56,1.79s1.3.87,2.54,1.82l2.49,1.89c1.24.95,1.27.92,2.51,1.86C101.57,51.38,101.87,51.37,101.89,51.22Z"/><path class="cls-8" d="M257.19,101.12c-1.51.41-1.61,0-3.11.45s-1.48.52-3,.93-1.45.61-3,1-1.6.08-3.11.48c-.15,0,0,.26.1.37,1.1,1.1.85,1.35,1.95,2.45s1.23,1,2.34,2.08.92,1.29,2,2.4,1.34.86,2.45,2c.11.11.18.12.22,0,.4-1.51.38-1.51.78-3s.23-1.56.63-3.06.68-1.44,1.08-3,.25-1.55.65-3.06C257.3,101,257.34,101.08,257.19,101.12Z"/><path class="cls-8" d="M66.49,37.12c-3.64-1.41-8.45-4.93-8.33-13.65.05-3.73-.77-6.53-2.39-8.11a5.25,5.25,0,0,0-3.38-1.49l-.17-4.16a9.28,9.28,0,0,1,6.46,2.67c2.49,2.43,3.72,6.18,3.65,11.15-.14,9.63,7.44,10.32,8.31,10.37l-.19,4.16A14,14,0,0,1,66.49,37.12Z"/><path class="cls-11" d="M199.89,42.89a10.37,10.37,0,0,1,9.25-7.33,7.56,7.56,0,0,0,5.42-2.39,5,5,0,0,0,1.08-2.7l2.75-.41a8.8,8.8,0,0,1-1.94,5.15A10.27,10.27,0,0,1,209,38.77c-6.36.54-7,6.43-7.08,7.1l-2.74.13A13,13,0,0,1,199.89,42.89Z"/><path class="cls-2" d="M228.66,56.32a6.94,6.94,0,0,1,9.47,2.61A5,5,0,0,0,241,61.32a2.14,2.14,0,0,0,1.52-.25l1.64,2.27a5.1,5.1,0,0,1-3.67.74,7.39,7.39,0,0,1-4.73-3.61c-2.34-3.57-5.27-2-5.6-1.76Z"/><path class="cls-2" d="M246.84,88.12s5.13-3.58,9.09.67a4.12,4.12,0,0,0,2.8,1.53,2.49,2.49,0,0,0,1.43-.44l1.67,1.62a5.72,5.72,0,0,1-3.41,1.18,6.24,6.24,0,0,1-4.68-2.24,4,4,0,0,0-5.38-.58Z"/><path class="cls-2" d="M136.44,0c.06,0,6.23-.48,7.49,5.19a4.12,4.12,0,0,0,1.64,2.74,2.59,2.59,0,0,0,1.46.34l.62,2.24a5.74,5.74,0,0,1-3.54-.71,6.23,6.23,0,0,1-2.9-4.3,4,4,0,0,0-4.34-3.23Z"/><path class="cls-2" d="M45.62,73.08c0-.07-3.69-6.7,3.53-11.07,1.69-1,2.72-2.15,3-3.27a2.46,2.46,0,0,0-.23-1.8l2.8-1.87a5.82,5.82,0,0,1,.74,4.33c-.46,2.09-2,3.93-4.54,5.48-4.38,2.66-2.57,6.15-2.35,6.54Z"/><path class="cls-8" d="M119.07,18.51c-1.43,0-1.43.12-2.86.12h-2.87c-1.43,0-1.43-.05-2.87-.05s-1.43-.13-2.87-.13c-.2,0-.22.06-.22-.14,0-1.44-.41-1.44-.41-2.87s.38-1.43.38-2.86-.25-1.44-.25-2.87.22-1.44.22-2.87c0-.21.08-.27.28-.27,1.43,0,1.43-.32,2.87-.32h5.73c1.44,0,1.44.28,2.87.28.21,0,.12.08.12.29,0,1.43.35,1.43.35,2.86s-.35,1.43-.35,2.87.31,1.43.31,2.87,0,1.43,0,2.87C119.46,18.51,119.28,18.51,119.07,18.51Z"/><g class="cls-12"><rect class="cls-9" x="74.24" y="81.06" width="98.3" height="4.25" transform="translate(-22.68 111.61) rotate(-45)"/><rect class="cls-9" x="83.23" y="90.05" width="98.3" height="4.25" transform="translate(-26.4 120.6) rotate(-45)"/><rect class="cls-9" x="92.21" y="99.04" width="98.3" height="4.25" transform="translate(-30.13 129.59) rotate(-45)"/><rect class="cls-9" x="101.2" y="108.02" width="98.3" height="4.25" transform="translate(-33.85 138.57) rotate(-45)"/><rect class="cls-9" x="110.18" y="117.01" width="98.3" height="4.25" transform="translate(-37.57 147.56) rotate(-45)"/><rect class="cls-9" x="119.17" y="125.99" width="98.3" height="4.25" transform="translate(-41.29 156.55) rotate(-45)"/><rect class="cls-9" x="128.16" y="134.98" width="98.3" height="4.25" transform="translate(-45.01 165.53) rotate(-45)"/></g><path class="cls-11" d="M102.49,78.74a22.83,22.83,0,0,1,0,3,23.64,23.64,0,0,1-.54,2.93,22.19,22.19,0,0,1-1.13,2.76A23.28,23.28,0,0,1,99.47,90,21.77,21.77,0,0,1,98,92.6a23.17,23.17,0,0,1-2,2.18,24.6,24.6,0,0,1-2.19,2,26,26,0,0,1-2.54,1.54,22.85,22.85,0,0,1-2.75,1.1,23.72,23.72,0,0,1-2.75,1,23.1,23.1,0,0,1-2.87.7,22,22,0,0,1-3,.19,22.62,22.62,0,0,1-3,0,21.25,21.25,0,0,1-2.83-.92,24.74,24.74,0,0,1-2.92-.6,22.76,22.76,0,0,1-2.51-1.61A22.11,22.11,0,0,1,66,96.84a23.31,23.31,0,0,1-2.14-2.08,23,23,0,0,1-1.8-2.34A23.7,23.7,0,0,1,60.36,90a22.52,22.52,0,0,1-1.29-2.66,20.39,20.39,0,0,1-.84-2.82,21.43,21.43,0,0,1-.78-2.85,22.32,22.32,0,0,1-.31-3,22.27,22.27,0,0,1,.41-2.95,23.77,23.77,0,0,1,.36-3,20.59,20.59,0,0,1,1.22-2.71,23,23,0,0,1,1.09-2.76A21.65,21.65,0,0,1,62,65a22.88,22.88,0,0,1,1.88-2.29A23.14,23.14,0,0,1,66,60.66,24.89,24.89,0,0,1,68.53,59a22.88,22.88,0,0,1,2.66-1.35,24.59,24.59,0,0,1,2.91-.62A22.76,22.76,0,0,1,77,56.6a21.41,21.41,0,0,1,2.91-.31,24,24,0,0,1,3,.09,22.83,22.83,0,0,1,2.85.71,23.86,23.86,0,0,1,2.85.77,23.21,23.21,0,0,1,2.51,1.55A21,21,0,0,1,93.53,61a21.32,21.32,0,0,1,2.24,1.89A21.82,21.82,0,0,1,97.89,65a22.67,22.67,0,0,1,1.78,2.38,22.46,22.46,0,0,1,.89,2.85,21,21,0,0,1,1,2.76,21.34,21.34,0,0,1,.71,2.86A23.62,23.62,0,0,1,102.49,78.74Z"/><path class="cls-13" d="M102.66,75a22.16,22.16,0,0,1-.23,3,21.32,21.32,0,0,1-.68,2.89,21.71,21.71,0,0,1-1.09,2.74,22,22,0,0,1-1.07,2.77A21.88,21.88,0,0,1,98,88.93,23.25,23.25,0,0,1,95.89,91a22.9,22.9,0,0,1-2.2,2,22.56,22.56,0,0,1-2.41,1.73,23.54,23.54,0,0,1-2.73,1.16,22.53,22.53,0,0,1-2.79,1,23.3,23.3,0,0,1-2.87.76,25.24,25.24,0,0,1-3-.19A23.57,23.57,0,0,1,77,97.3a23.07,23.07,0,0,1-2.92-.44,20.86,20.86,0,0,1-2.75-1.07,23.38,23.38,0,0,1-2.73-1.13,24.05,24.05,0,0,1-2.28-1.89,23.32,23.32,0,0,1-2.5-1.63,25,25,0,0,1-1.75-2.4,23.68,23.68,0,0,1-1.69-2.41A21.15,21.15,0,0,1,59,83.69a24,24,0,0,1-.74-2.86A22.57,22.57,0,0,1,57.45,78,22,22,0,0,1,57.22,75a22.3,22.3,0,0,1,.25-3,22.57,22.57,0,0,1,.82-2.84,25.15,25.15,0,0,1,.59-2.92,23.5,23.5,0,0,1,1.4-2.62,24.12,24.12,0,0,1,1.65-2.47,24.5,24.5,0,0,1,1.87-2.31,24.46,24.46,0,0,1,2.33-1.84,22.38,22.38,0,0,1,2.48-1.61A22.83,22.83,0,0,1,71.18,54,22.42,22.42,0,0,1,74,53.12,23.38,23.38,0,0,1,77,52.73a23.72,23.72,0,0,1,2.93-.06,23.66,23.66,0,0,1,2.93.15,23.4,23.4,0,0,1,2.94.32,20.47,20.47,0,0,1,2.76,1.07,22.17,22.17,0,0,1,2.58,1.41,22.71,22.71,0,0,1,2.5,1.55A22.08,22.08,0,0,1,96,58.93a21.08,21.08,0,0,1,1.87,2.32,23.12,23.12,0,0,1,1.38,2.61,23,23,0,0,1,1.48,2.54,22.69,22.69,0,0,1,1.13,2.75,23.19,23.19,0,0,1,.66,2.91A24.42,24.42,0,0,1,102.66,75Z"/><circle class="cls-14" cx="79.91" cy="75.4" r="14.43"/><circle class="cls-11" cx="79.91" cy="75.4" r="3.35"/><line class="cls-15" x1="79.91" y1="60.97" x2="79.91" y2="89.01"/><line class="cls-15" x1="93.93" y1="74.99" x2="65.89" y2="74.99"/><line class="cls-15" x1="89.83" y1="84.91" x2="70" y2="65.07"/><line class="cls-15" x1="70" y1="84.91" x2="89.83" y2="65.07"/><path class="cls-11" d="M239.12,89.56a25.88,25.88,0,0,1,.29,3,22.89,22.89,0,0,1-.94,2.83,23,23,0,0,1-.58,2.93,22.85,22.85,0,0,1-1.43,2.62,20.24,20.24,0,0,1-3.87,4.44,24.07,24.07,0,0,1-2,2.13,22.82,22.82,0,0,1-2.36,1.82,23.71,23.71,0,0,1-2.71,1.24,24.49,24.49,0,0,1-2.82.93,23.22,23.22,0,0,1-2.93.41,22.14,22.14,0,0,1-2.94,0,21.83,21.83,0,0,1-2.93-.11,23.39,23.39,0,0,1-2.94-.34,22,22,0,0,1-2.79-1,22.63,22.63,0,0,1-2.68-1.26,22.94,22.94,0,0,1-2.32-1.85,23.84,23.84,0,0,1-2.2-1.94,24.43,24.43,0,0,1-2.15-2,22.47,22.47,0,0,1-1.59-2.5A26.32,26.32,0,0,1,195,95.42a23,23,0,0,1-.51-2.91,29.09,29.09,0,0,1-.06-5.9,21.82,21.82,0,0,1,.39-3,23,23,0,0,1,1-2.83,22,22,0,0,1,1.41-2.62A20.93,20.93,0,0,1,201,73.76a21.2,21.2,0,0,1,2.16-2,21.92,21.92,0,0,1,2.47-1.57,22.73,22.73,0,0,1,2.62-1.29A21.45,21.45,0,0,1,211,68a23,23,0,0,1,2.8-1.06,25.42,25.42,0,0,1,3,.2,24.57,24.57,0,0,1,3-.07,23.83,23.83,0,0,1,3,.45,25.66,25.66,0,0,1,2.65,1.38,23.86,23.86,0,0,1,2.81,1,24,24,0,0,1,2.4,1.74,18.86,18.86,0,0,1,4,4.35,22.59,22.59,0,0,1,1.8,2.33,22,22,0,0,1,1.54,2.54,23.43,23.43,0,0,1,.87,2.85,23.93,23.93,0,0,1,.28,3A23.48,23.48,0,0,1,239.12,89.56Z"/><path class="cls-13" d="M239.45,85.24a24,24,0,0,1-.31,3,21.69,21.69,0,0,1-.66,2.87,22.62,22.62,0,0,1-.64,2.9,22.12,22.12,0,0,1-1.44,2.61,22.47,22.47,0,0,1-1.59,2.5,23,23,0,0,1-1.92,2.27,21.89,21.89,0,0,1-2.29,1.89,23.3,23.3,0,0,1-2.61,1.41,21.35,21.35,0,0,1-2.64,1.26,23.7,23.7,0,0,1-2.65,1.37,23.54,23.54,0,0,1-2.95.42,23.81,23.81,0,0,1-2.95.22,22,22,0,0,1-2.93-.44A21.25,21.25,0,0,1,211,107a20.92,20.92,0,0,1-2.79-1,23.24,23.24,0,0,1-2.69-1.21,20.55,20.55,0,0,1-2.41-1.71,22.88,22.88,0,0,1-2.19-2,24.37,24.37,0,0,1-2.1-2.09,21.71,21.71,0,0,1-1.5-2.56A22.77,22.77,0,0,1,195.7,94a24.29,24.29,0,0,1-.81-2.87,22.94,22.94,0,0,1-.61-2.9,22.44,22.44,0,0,1-.23-3,24.2,24.2,0,0,1,.49-2.93A21.5,21.5,0,0,1,195,79.4a22.9,22.9,0,0,1,.78-2.87,23.67,23.67,0,0,1,1.28-2.69,21.92,21.92,0,0,1,2-2.22,21.3,21.3,0,0,1,2-2.16,25.89,25.89,0,0,1,4.53-3.7,21.17,21.17,0,0,1,2.55-1.52,20.71,20.71,0,0,1,2.85-.81,23.06,23.06,0,0,1,2.92-.41,22.1,22.1,0,0,1,2.93-.48,22,22,0,0,1,2.95.3,21.68,21.68,0,0,1,2.94.42,22.72,22.72,0,0,1,2.76,1.11,23.29,23.29,0,0,1,2.65,1.31,21.26,21.26,0,0,1,2.32,1.81,21.33,21.33,0,0,1,2.19,2,22.58,22.58,0,0,1,2,2.1,22.32,22.32,0,0,1,1.73,2.39,23.3,23.3,0,0,1,1.29,2.66,21.06,21.06,0,0,1,.69,2.87,23.16,23.16,0,0,1,.68,2.85A22.19,22.19,0,0,1,239.45,85.24Z"/><rect class="cls-16" x="205.83" y="74.51" width="21.44" height="21.44"/><rect class="cls-6" x="209.1" y="77.86" width="6.66" height="6.64"/><rect class="cls-6" x="209.1" y="85.97" width="6.66" height="6.64"/><rect class="cls-6" x="217.35" y="77.86" width="6.66" height="6.64"/><rect class="cls-6" x="217.35" y="85.97" width="6.66" height="6.64"/><line class="cls-17" x1="227.68" y1="77.39" x2="232.51" y2="77.39"/><line class="cls-17" x1="227.68" y1="82.38" x2="232.51" y2="82.38"/><line class="cls-17" x1="227.68" y1="87.36" x2="232.51" y2="87.36"/><line class="cls-17" x1="227.68" y1="92.34" x2="232.51" y2="92.34"/><line class="cls-17" x1="200.81" y1="77.39" x2="205.64" y2="77.39"/><line class="cls-17" x1="200.81" y1="82.38" x2="205.64" y2="82.38"/><line class="cls-17" x1="200.81" y1="87.36" x2="205.64" y2="87.36"/><line class="cls-17" x1="200.81" y1="92.34" x2="205.64" y2="92.34"/><line class="cls-17" x1="223.98" y1="69.17" x2="223.98" y2="74"/><line class="cls-17" x1="219" y1="69.17" x2="219" y2="74"/><line class="cls-17" x1="214.02" y1="69.17" x2="214.02" y2="74"/><line class="cls-17" x1="209.04" y1="69.17" x2="209.04" y2="74"/><line class="cls-17" x1="223.98" y1="96.49" x2="223.98" y2="101.32"/><line class="cls-17" x1="219" y1="96.49" x2="219" y2="101.32"/><line class="cls-17" x1="214.02" y1="96.49" x2="214.02" y2="101.32"/><line class="cls-17" x1="209.04" y1="96.49" x2="209.04" y2="101.32"/><path class="cls-11" d="M178.22,54.84c0,.95.05,1.9,0,2.84s-.46,1.85-.62,2.77,0,1.95-.24,2.86-.93,1.69-1.26,2.58-.35,1.9-.75,2.75-.84,1.72-1.31,2.53-1.25,1.45-1.79,2.23-.83,1.75-1.43,2.48-1.49,1.21-2.15,1.88-1.22,1.47-1.95,2.08-1.48,1.18-2.26,1.73-1.56,1.09-2.38,1.56-1.65,1-2.51,1.35-1.85.49-2.74.81-1.81.5-2.73.75-1.77.68-2.7.84-1.87.32-2.82.4-1.88.3-2.84.3-1.88-.48-2.81-.56-1.88-.17-2.8-.33-1.92-.1-2.83-.35-1.87-.42-2.75-.74-1.6-1.09-2.46-1.48-1.7-.79-2.52-1.27-1.82-.67-2.59-1.21-1.36-1.35-2.09-2-1.6-1.06-2.27-1.73-1-1.61-1.65-2.34-1.37-1.32-1.91-2.1-1.23-1.47-1.71-2.29-.78-1.74-1.18-2.6-.55-1.82-.87-2.71-.84-1.72-1.08-2.63-.6-1.82-.77-2.76.16-1.92.07-2.87-.4-1.87-.4-2.82.26-1.89.34-2.83.22-1.87.39-2.8,0-2,.23-2.86,1-1.69,1.27-2.58.46-1.85.86-2.71,1-1.58,1.52-2.4.7-1.8,1.24-2.57,1.15-1.52,1.75-2.25,1.19-1.5,1.86-2.17,1.5-1.18,2.23-1.79,1.63-1,2.4-1.51,1.57-1,2.39-1.5,1.45-1.31,2.31-1.71,1.85-.48,2.74-.81,1.7-.89,2.62-1.13,1.92-.06,2.86-.23,1.85-.24,2.8-.32,1.86-.53,2.81-.53,1.92,0,2.86.09,1.88.37,2.8.53,1.91.21,2.82.46,1.72.86,2.6,1.18,1.81.58,2.66,1,1.77.72,2.59,1.19,1.6,1,2.37,1.56,1.54,1.12,2.27,1.73,1.45,1.22,2.12,1.89,1.4,1.31,2,2,1.16,1.52,1.7,2.3.77,1.75,1.24,2.57.94,1.63,1.34,2.49.93,1.66,1.25,2.55.45,1.84.69,2.75.56,1.81.72,2.75.2,1.87.28,2.82S178.22,53.88,178.22,54.84Z"/><path class="cls-13" d="M178.52,50.83c0,1-.16,1.91-.24,2.85s-.42,1.86-.58,2.79-.42,1.84-.66,2.75-.25,1.91-.57,2.8-.79,1.74-1.19,2.6-.86,1.69-1.33,2.51-1.12,1.53-1.66,2.31-.92,1.68-1.53,2.4-1.41,1.29-2.08,2-1.26,1.42-2,2-1.64,1-2.41,1.53-1.4,1.33-2.22,1.8-1.81.62-2.67,1-1.66.9-2.56,1.22-1.84.4-2.76.64a28.13,28.13,0,0,1-2.73.73c-.93.17-1.83.64-2.78.73s-1.9,0-2.86,0-1.9-.19-2.83-.27-1.85-.46-2.77-.62-1.86-.32-2.77-.56-1.93-.17-2.82-.5-1.78-.7-2.63-1.1-1.53-1.16-2.35-1.64-1.62-1-2.39-1.49-1.58-1-2.31-1.64-1.29-1.37-2-2-1.61-1.09-2.22-1.82-.89-1.69-1.44-2.47-1.28-1.42-1.75-2.24-1-1.62-1.4-2.48-.8-1.73-1.12-2.63-.29-1.89-.54-2.81-.58-1.79-.74-2.73-.24-1.87-.32-2.82-.28-1.88-.28-2.83,0-1.92.11-2.85.41-1.86.58-2.79,0-1.94.27-2.85.55-1.84.87-2.73.73-1.77,1.13-2.63.94-1.66,1.41-2.48,1-1.59,1.59-2.36,1.07-1.58,1.67-2.3,1.34-1.35,2-2,1.51-1.13,2.24-1.74,1.38-1.28,2.16-1.83,1.44-1.26,2.26-1.73,1.83-.57,2.69-1,1.64-.95,2.53-1.27,1.83-.45,2.75-.7,1.78-.63,2.72-.8,1.88-.15,2.83-.23,1.87-.31,2.82-.31,1.9.21,2.83.29,1.91,0,2.84.19,1.87.38,2.77.62a27.52,27.52,0,0,1,2.68,1c.89.32,1.88.44,2.73.84s1.52,1.19,2.34,1.67,1.78.72,2.56,1.26,1.59,1.06,2.31,1.67,1.35,1.35,2,2S170,29.24,170.58,30s1.33,1.37,1.87,2.15.86,1.69,1.34,2.51,1.09,1.56,1.5,2.42.68,1.76,1,2.66.44,1.83.69,2.75.47,1.81.64,2.75.24,1.85.32,2.81S178.52,49.87,178.52,50.83Z"/><ellipse class="cls-6" cx="145.44" cy="44.48" rx="13.32" ry="12.68"/><ellipse class="cls-18" cx="145.44" cy="44.48" rx="18.02" ry="17.15"/><path class="cls-11" d="M147.39,28.09c0,1.46-.89,11.37-2,11.37s-2-9.91-2-11.37.89-2.63,2-2.63S147.39,26.64,147.39,28.09Z"/><ellipse class="cls-11" cx="145.56" cy="43.54" rx="2.39" ry="2.49"/><path class="cls-11" d="M129.49,48c1.4-.57,11.32-3.73,11.76-2.77s-8.78,5.67-10.19,6.24-2.89.27-3.32-.69S128.09,48.58,129.49,48Z"/><path class="cls-11" d="M161.31,48c-1.4-.57-11.32-3.73-11.76-2.77s8.78,5.67,10.19,6.24,2.89.27,3.32-.69S162.71,48.58,161.31,48Z"/><path class="cls-11" d="M146.43,48.91a.94.94,0,0,0-.9-.66h0a.94.94,0,0,0-.91.65l-8.78,27.78h2l7.67-24.28,7.19,24.28h2Z"/><line class="cls-19" x1="142.51" y1="58.82" x2="148" y2="58.82"/><line class="cls-19" x1="140.07" y1="66.97" x2="150.33" y2="66.97"/><path class="cls-10" d="M181.15,9.58c-1,1.2-1.25,1-2.25,2.19s-.66,1.49-1.66,2.68-1.22,1-2.22,2.22S174,17.82,173,19c-.1.12.06.43.22.46,1.53.27,1.57.05,3.11.32s1.48.56,3,.83,1.58,0,3.12.29,1.5.55,3,.82c.16,0,.24-.25.19-.39-.54-1.47-.61-1.44-1.14-2.91s-.36-1.53-.9-3-.34-1.54-.88-3-.88-1.35-1.41-2.81C181.25,9.48,181.25,9.46,181.15,9.58Z"/><circle class="cls-2" cx="196.33" cy="57.77" r="2.31"/><circle class="cls-13" cx="84.03" cy="26.92" r="2.31"/><circle class="cls-13" cx="101.3" cy="96.34" r="1.36"/><circle class="cls-2" cx="183.06" cy="78.44" r="1.36"/><circle class="cls-13" cx="48.39" cy="112.38" r="1.74"/><circle class="cls-13" cx="199.37" cy="27.54" r="1.74"/><path class="cls-2" d="M290.38,308.64c-2.14,0-2.14-.47-4.27-.47s-2.14,0-4.28,0-2.14.39-4.27.39-2.14-.63-4.28-.63-2.14,0-4.27,0-2.14-.08-4.28-.08-2.14.52-4.27.52-2.14.28-4.28.28-2.14-.58-4.28-.58h-4.27c-2.14,0-2.14-.1-4.28-.1s-2.13.21-4.27.21-2.14-.38-4.28-.38-2.14.36-4.27.36-2.14.39-4.28.39-2.14.27-4.28.27-2.13,0-4.27,0-2.14-.35-4.28-.35h-4.27c-2.14,0-2.14.17-4.28.17s-2.14-.72-4.27-.72-2.14-.08-4.27-.08-2.14.75-4.27.75-2.14-.67-4.28-.67h-4.27c-2.14,0-2.14.79-4.27.79s-2.14-.61-4.28-.61h-4.27l-4.28,0c-2.13,0-2.13.58-4.27.58s-2.14-.25-4.27-.25-2.14-.54-4.28-.54-2.14.92-4.28.92-2.14-.9-4.27-.9-2.14.13-4.28.13-2.13.07-4.27.07-2.14,0-4.28,0-2.14.74-4.28.74h-4.27c-2.14,0-2.14-.38-4.28-.38s-2.14-.23-4.28-.23-2.14-.22-4.27-.22-2.14.63-4.28.63-2.14-.78-4.28-.78-2.14.43-4.28.43-2.14-.13-4.28-.13-2.13.23-4.27.23S87.3,308,85.16,308H80.88c-2.14,0-2.14.52-4.28.52s-2.14-.18-4.28-.18-2.14-.47-4.28-.47-2.13.06-4.27.06-2.14.45-4.28.45-2.14.21-4.28.21-2.14-.24-4.28-.24-2.14.37-4.27.37-2.14-.35-4.28-.35-2.14-.26-4.29-.26-2.14-.07-4.28-.07-2.14.55-4.28.55-2.14-.1-4.28-.1-2.14,0-4.28,0-2.14-.4-4.28-.4-2.15.18-4.29.18-2.15.52-4.29.52c-1.48,0-2.59-1.34-3.76-2.18a7.62,7.62,0,0,1-2.47-3.17,8.89,8.89,0,0,1-.95-3.95c0-2.12.09-2.12.09-4.24S.64,293.12.64,291,.4,288.88.4,286.76v-4.24c0-2.12-.4-2.12-.4-4.24s.08-2.12.08-4.24.44-2.12.44-4.24,0-2.12,0-4.24.49-2.12.49-4.24-.31-2.12-.31-4.24S.32,255,.32,252.83s.51-2.12.51-4.24-.24-2.12-.24-4.23-.4-2.12-.4-4.25.07-2.11.07-4.23.68-2.13.68-4.25-.1-2.12-.1-4.24-.37-2.12-.37-4.24.24-2.12.24-4.24S.5,216.78.5,214.66s.09-2.12.09-4.24-.28-2.12-.28-4.24,0-2.13,0-4.25-.2-2.12-.2-4.25.45-2.12.45-4.25,0-2.12,0-4.25A10,10,0,0,1,1.32,185a9,9,0,0,1,2.57-3.55,7.14,7.14,0,0,1,4.22-.87c2.14,0,2.14.1,4.27.1s2.14-.28,4.28-.28,2.14-.51,4.28-.51,2.13.53,4.27.53,2.14-.31,4.28-.31h4.27c2.14,0,2.14-.19,4.28-.19s2.13.23,4.27.23,2.14.46,4.28.46,2.14-.69,4.27-.69,2.14.66,4.28.66,2.14-.22,4.27-.22,2.14.06,4.28.06,2.14.23,4.28.23,2.13.08,4.27.08,2.14-.42,4.28-.42,2.14-.42,4.27-.42,2.14,1.05,4.28,1.05,2.14-1,4.28-1,2.13.22,4.27.22,2.14-.1,4.27-.1,2.14.21,4.27.21,2.14.7,4.28.7,2.13-.49,4.27-.49,2.13.23,4.27.23,2.14-.17,4.28-.17,2.13-.59,4.27-.59,2.14.6,4.28.6,2.13-.46,4.27-.46,2.14-.18,4.27-.18,2.14.86,4.28.86,2.13-.72,4.27-.72,2.14.63,4.28.63,2.14-.26,4.27-.26,2.14.46,4.28.46,2.14-.28,4.27-.28,2.14.1,4.28.1,2.14.13,4.28.13,2.14-.86,4.27-.86,2.14.09,4.28.09,2.14.49,4.28.49,2.14.17,4.28.17,2.13-.8,4.27-.8,2.14.35,4.28.35,2.14.16,4.28.16,2.14.34,4.28.34,2.14-.06,4.27-.06,2.14-.41,4.28-.41l4.28,0c2.14,0,2.14.64,4.28.64s2.14-1,4.28-1,2.14.77,4.28.77,2.14-.74,4.27-.74,2.14.84,4.28.84,2.14.08,4.28.08,2.14-.15,4.28-.15,2.14-.59,4.28-.59,2.14-.21,4.28-.21,2.14.45,4.28.45,2.14-.19,4.28-.19,2.14-.11,4.28-.11,2.14.22,4.28.22,2.14.49,4.28.49,2.14-.32,4.29-.32,2.14.05,4.28.05,2.15.12,4.29.12a6.6,6.6,0,0,1,4,1.17,8.23,8.23,0,0,1,2.54,3.34c.58,1.25,1.61,2.59,1.61,4.09,0,2.13-.41,2.13-.41,4.25s-.29,2.11-.29,4.23.62,2.12.62,4.24-.82,2.12-.82,4.25.44,2.11.44,4.23-.25,2.13-.25,4.25.61,2.12.61,4.24-.95,2.12-.95,4.24.55,2.12.55,4.24.1,2.12.1,4.24-.6,2.12-.6,4.24.68,2.12.68,4.24-.49,2.12-.49,4.24-.11,2.12-.11,4.24.16,2.12.16,4.24-.17,2.12-.17,4.24.2,2.12.2,4.24.53,2.12.53,4.24-.34,2.13-.34,4.25.14,2.12.14,4.24-.18,2.12-.18,4.25-.43,2.12-.43,4.24.39,2.12.39,4.24.32,2.13.32,4.25-.08,2.13-.08,4.25.16,2.13.16,4.25a9.94,9.94,0,0,1-1.35,4.11,8.54,8.54,0,0,1-2.5,3.43A7.31,7.31,0,0,1,290.38,308.64Z"/><path class="cls-11" d="M243.38,222.09c-2.06,0-2.06.72-4.13.72s-2.06-.54-4.13-.54-2.06.48-4.12.48-2.07-.72-4.13-.72-2.07.78-4.13.78-2.07.08-4.13.08-2.07-.54-4.14-.54-2.06.05-4.13.05-2.06-.26-4.13-.26-2.06.05-4.13.05-2.06.62-4.13.62-2.06-.09-4.13-.09-2.07-.69-4.13-.69-2.07.61-4.14.61-2.06-.36-4.13-.36-2.06-.09-4.13-.09-2.07.38-4.13.38l-4.14,0h-4.13c-2.07,0-2.07-.16-4.13-.16s-2.07,0-4.14,0-2.06-.37-4.13-.37-2.07.51-4.13.51-2.07-.36-4.14-.36-2.07.66-4.13.66-2.07-.15-4.14-.15-2.06-.4-4.13-.4-2.07.27-4.14.27-2.06-.6-4.13-.6-2.07,1-4.14,1-2.07-.94-4.13-.94-2.07.46-4.14.46-2.06-.24-4.13-.24-2.07.15-4.13.15-2.07.28-4.14.28-2.07.09-4.13.09-2.07.09-4.14.09-2.07-.64-4.13-.64-2.07.74-4.14.74-2.07-.84-4.14-.84-2.07.06-4.14.06-2.07.69-4.14.69-2.06-.58-4.13-.58-2.07-.08-4.14-.08-2.08.16-4.15.16-2.07.21-4.14.21a39.37,39.37,0,0,1-4.22-.11c-1.4-.16-2.64-1.13-4-1.44a36.16,36.16,0,0,1-4.06-.89c-1.33-.46-2.87-.42-4.13-1a39.29,39.29,0,0,1-3.44-2.47,39,39,0,0,1-3.69-2.08c-1.09-.88-1.77-2.23-2.76-3.21a37.51,37.51,0,0,1-2.68-3.2c-.87-1.09-2.35-1.76-3.1-3a38.89,38.89,0,0,1-1.63-3.92,35.85,35.85,0,0,1-1.15-4,38.58,38.58,0,0,1-1.15-4c-.3-1.36-1.23-2.6-1.39-4a39,39,0,0,1-.3-4.21h.68a36.45,36.45,0,0,1,0-4.18,39,39,0,0,1,.3-4.21,40.14,40.14,0,0,1,1.17-4.06,37.91,37.91,0,0,1,1.74-3.84,38.56,38.56,0,0,1,2.32-3.5,35.65,35.65,0,0,1,2.35-3.46c.87-1.09,1.35-2.58,2.33-3.57a38.5,38.5,0,0,1,3.37-2.58,35,35,0,0,1,3.3-2.67,36.32,36.32,0,0,1,3.8-1.89,37.29,37.29,0,0,1,4-1.48,36.15,36.15,0,0,1,4-1.14A37.7,37.7,0,0,1,49,148a38.85,38.85,0,0,1,4.18,0c2.06,0,2.06.09,4.13.09s2.06-.69,4.12-.69,2.07.75,4.13.75,2.07-.81,4.13-.81,2.06.83,4.13.83,2.07-.79,4.13-.79,2.07.18,4.14.18,2.06.11,4.13.11,2.06-.29,4.13-.29,2.06.16,4.12.16,2.07.28,4.14.28,2.06.17,4.13.17,2.07,0,4.13,0,2.07-.19,4.13-.19,2.07,0,4.13,0,2.07-.53,4.14-.53,2.06.68,4.13.68,2.07,0,4.14,0,2.06-.4,4.13-.4,2.06.1,4.13.1,2.07,0,4.14,0,2.06.26,4.13.26,2.07-.24,4.13-.24,2.07.07,4.14.07,2.06-.43,4.13-.43h4.14c2.06,0,2.06-.06,4.13-.06s2.07.66,4.14.66,2.06-.2,4.13-.2,2.07-.39,4.14-.39,2.06.19,4.13.19,2.07.54,4.14.54,2.06-.37,4.13-.37,2.07.1,4.13.1,2.07.12,4.14.12,2.06-.6,4.13-.6,2.07.74,4.14.74,2.07-.87,4.13-.87,2.07.84,4.14.84,2.07-.84,4.14-.84,2.07.12,4.14.12,2.07.23,4.13.23,2.07,0,4.14,0,2.07.12,4.14.12,2.08-.2,4.15-.2,2.07.36,4.14.36c1.42,0,2.86-.5,4.24-.35a37.93,37.93,0,0,1,4.1,1.06,36.35,36.35,0,0,1,3.87,1.62,35.42,35.42,0,0,1,4,1.15,37.3,37.3,0,0,1,3.64,2.09,39.85,39.85,0,0,1,3.6,2.21,38.07,38.07,0,0,1,3,3,37.65,37.65,0,0,1,2.47,3.39c.87,1.1,2.34,1.78,3.09,3s.69,2.81,1.3,4.08a36,36,0,0,1,1.49,3.87c.46,1.31,1.67,2.41,2,3.78a38.41,38.41,0,0,1,.73,4.18c.15,1.37-.48,2.81-.48,4.23h.17c0,1.41.45,2.85.3,4.23a38,38,0,0,1-.81,4.15,26.56,26.56,0,0,1-3.34,7.69,35.63,35.63,0,0,1-1.73,3.82,25.51,25.51,0,0,1-5.42,6.35,56.38,56.38,0,0,1-10.14,7.18,36.53,36.53,0,0,1-3.72,1.94,37.28,37.28,0,0,1-4.14.73,37,37,0,0,1-4.06,1A39,39,0,0,1,243.38,222.09Z"/><path class="cls-13" d="M238.2,212.48c-2.1,0-2.1-.07-4.2-.07s-2.1.79-4.2.79-2.1-.42-4.2-.42-2.11.2-4.21.2-2.1-.51-4.21-.51-2.1.42-4.2.42-2.1-.27-4.2-.27-2.11.54-4.21.54-2.1-.49-4.2-.49-2.11,0-4.21,0-2.1-.35-4.21-.35-2.1.59-4.2.59-2.1-.28-4.21-.28-2.1.61-4.2.61-2.11-.85-4.21-.85-2.11.08-4.21.08-2.1.68-4.21.68-2.1-.28-4.2-.28-2.11.17-4.21.17-2.11-.15-4.21-.15-2.1,0-4.21,0h-4.21l-4.2,0c-2.11,0-2.11,0-4.21,0s-2.11.25-4.21.25-2.11-.41-4.21-.41-2.11.43-4.21.43-2.1-.49-4.21-.49-2.1.19-4.21.19-2.1.27-4.21.27-2.1-.58-4.2-.58-2.11.72-4.21.72-2.11-.16-4.21-.16-2.1-.31-4.21-.31-2.1-.25-4.21-.25-2.1.73-4.21.73-2.1-.73-4.21-.73-2.11-.19-4.21-.19-2.11,0-4.22,0-2.1.9-4.21.9-2.1-.23-4.21-.23-2.11-.68-4.21-.68-2.11.56-4.22.56-2.11-.4-4.22-.4a24.46,24.46,0,0,1-4.06-.23,30.33,30.33,0,0,1-3.93-1.13,37.63,37.63,0,0,1-3.84-1.37c-1.24-.54-2.46-1.1-3.68-1.77s-2.67-.88-3.82-1.66-2.15-1.73-3.22-2.6-2.41-1.46-3.4-2.42-1.74-2.19-2.63-3.24-1.3-2.46-2.09-3.59-1.92-2-2.59-3.23a37.33,37.33,0,0,1-2.14-3.59c-.53-1.27-.13-2.87-.5-4.19a30.06,30.06,0,0,1-.92-4c-.19-1.35-.81-2.68-.81-4.07H16a38.1,38.1,0,0,1,.23-4.16,37.13,37.13,0,0,1,.57-4.12,35.14,35.14,0,0,1,1.31-4,35.76,35.76,0,0,1,1.26-4,36.25,36.25,0,0,1,2.23-3.54,33.76,33.76,0,0,1,2.36-3.44,36.48,36.48,0,0,1,2.55-3.35,37,37,0,0,1,2.91-3.09c1.09-.87,2.78-.93,4-1.67a35.72,35.72,0,0,1,3.62-2,36.21,36.21,0,0,1,3.71-1.93,36.85,36.85,0,0,1,4.14-.69c1.35-.31,2.56-1.55,4-1.71s2.83.67,4.25.67c2.07,0,2.07,0,4.13,0s2.06-.52,4.13-.52,2.06.27,4.12.27,2.07-.13,4.13-.13,2.07.5,4.13.5,2.07-.05,4.14-.05,2.06-.43,4.13-.43,2.06-.37,4.13-.37,2.06.24,4.13.24,2.06-.37,4.13-.37,2.06.3,4.13.3,2.07.38,4.13.38,2.07-.35,4.14-.35,2.06.13,4.13.13,2.06-.14,4.13-.14,2.06-.31,4.13-.31,2.07.89,4.14.89,2.06-.4,4.13-.4,2.06-.38,4.13-.38,2.07.14,4.13.14,2.07-.17,4.14-.17,2.07.46,4.13.46,2.07.26,4.14.26,2.06-.63,4.13-.63,2.07.16,4.13.16,2.07.58,4.14.58,2.07-.62,4.13-.62,2.07.5,4.14.5,2.07-.08,4.13-.08,2.07-.27,4.14-.27,2.07-.33,4.14-.33,2.06,0,4.13,0,2.07.23,4.13.23,2.07.27,4.14.27,2.06-.33,4.13-.33,2.07.58,4.14.58,2.06-.76,4.13-.76,2.07.45,4.14.45,2.07-.39,4.14-.39,2.06.27,4.13.27,2.07.33,4.14.33,2.07-.24,4.14-.24,2.07-.48,4.14-.48h4.14c2.07,0,2.07.36,4.14.36s2.07.44,4.14.44c1.42,0,2.88-.81,4.25-.66a38.63,38.63,0,0,1,4.19.75c1.37.32,2.47,1.55,3.79,2s2.83.45,4.09,1.05,2.21,1.77,3.39,2.51,2.8.9,3.9,1.77,1.61,2.4,2.6,3.39,2.36,1.63,3.24,2.73a36.52,36.52,0,0,1,2.62,3.33,36.2,36.2,0,0,1,1.94,3.77c.61,1.25.56,2.79,1,4.12s1.35,2.51,1.66,3.88a36,36,0,0,1,.95,4.14,37,37,0,0,1,.22,4.24h0c0,1.42-.85,2.78-1,4.16a35,35,0,0,1-.56,4.14,33.86,33.86,0,0,1-1.15,4,35,35,0,0,1-1.49,3.93,35.58,35.58,0,0,1-2.3,3.53c-.78,1.16-1.11,2.7-2,3.77s-2.53,1.45-3.56,2.42a39.64,39.64,0,0,1-3,3,38.87,38.87,0,0,1-3.35,2.6,40.74,40.74,0,0,1-3.8,1.89c-1.26.57-2.64.93-4,1.39s-2.76.44-4.15.78-2.58,1.3-4,1.52-2.83-.16-4.26-.05S239.64,212.48,238.2,212.48Z"/><path class="cls-11" d="M55.86,164.13v-2.61h6.75v6.18a8.57,8.57,0,0,1-2.85,1.68,10.43,10.43,0,0,1-3.78.72,8.51,8.51,0,0,1-4.25-1A6.47,6.47,0,0,1,49,166.16,9.43,9.43,0,0,1,48.1,162a8.87,8.87,0,0,1,1-4.3,6.8,6.8,0,0,1,3-2.89,8,8,0,0,1,3.72-.78,7.39,7.39,0,0,1,4.51,1.22,5.41,5.41,0,0,1,2.09,3.35l-3.11.58a3.32,3.32,0,0,0-1.23-1.81,3.75,3.75,0,0,0-2.26-.66,4.28,4.28,0,0,0-3.27,1.3,5.49,5.49,0,0,0-1.21,3.87A6.06,6.06,0,0,0,52.56,166a4.1,4.1,0,0,0,3.22,1.38,5.34,5.34,0,0,0,2-.38,6.71,6.71,0,0,0,1.7-.94v-2Z"/><path class="cls-11" d="M72,166.26l3,.5a4.91,4.91,0,0,1-1.81,2.48,5.27,5.27,0,0,1-3.08.85,5,5,0,0,1-4.34-1.91,6.48,6.48,0,0,1-1.12-3.88,6.2,6.2,0,0,1,1.47-4.38,4.81,4.81,0,0,1,3.69-1.58,5,5,0,0,1,4,1.66q1.45,1.65,1.39,5.07H67.66a3,3,0,0,0,.72,2.06,2.26,2.26,0,0,0,1.72.74,1.83,1.83,0,0,0,1.17-.38A2.37,2.37,0,0,0,72,166.26Zm.17-3a2.87,2.87,0,0,0-.66-2,2.15,2.15,0,0,0-3.16,0,2.73,2.73,0,0,0-.62,1.92Z"/><path class="cls-11" d="M87.77,169.84h-3V164.1a8.83,8.83,0,0,0-.19-2.36,1.68,1.68,0,0,0-.62-.83,1.81,1.81,0,0,0-1-.29,2.4,2.4,0,0,0-1.39.42,2.13,2.13,0,0,0-.84,1.12,9.81,9.81,0,0,0-.23,2.59v5.09h-3V158.59h2.76v1.66A4.51,4.51,0,0,1,84,158.34a4.45,4.45,0,0,1,1.8.36,2.94,2.94,0,0,1,1.23.9,3.26,3.26,0,0,1,.58,1.25,9.19,9.19,0,0,1,.17,2Z"/><path class="cls-11" d="M97.29,166.26l3,.5a4.91,4.91,0,0,1-1.81,2.48,5.27,5.27,0,0,1-3.08.85A5,5,0,0,1,91,168.18a6.47,6.47,0,0,1-1.11-3.88,6.2,6.2,0,0,1,1.46-4.38,4.81,4.81,0,0,1,3.69-1.58A5,5,0,0,1,99,160q1.45,1.65,1.39,5.07H93a3,3,0,0,0,.72,2.06,2.26,2.26,0,0,0,1.72.74,1.83,1.83,0,0,0,1.17-.38A2.37,2.37,0,0,0,97.29,166.26Zm.17-3a2.87,2.87,0,0,0-.66-2,2.15,2.15,0,0,0-3.16,0,2.73,2.73,0,0,0-.62,1.92Z"/><path class="cls-11" d="M105.69,169.84h-3V158.59h2.77v1.6a4.78,4.78,0,0,1,1.27-1.49,2.36,2.36,0,0,1,1.29-.36,3.82,3.82,0,0,1,2,.56l-.92,2.6a2.6,2.6,0,0,0-1.4-.49,1.64,1.64,0,0,0-1.06.34,2.33,2.33,0,0,0-.68,1.25,17.28,17.28,0,0,0-.25,3.76Z"/><path class="cls-11" d="M113.5,162l-2.7-.48a4.28,4.28,0,0,1,1.57-2.42,5.74,5.74,0,0,1,3.3-.78,7.21,7.21,0,0,1,3,.47A3,3,0,0,1,120,160a6.21,6.21,0,0,1,.39,2.66l0,3.47a12.67,12.67,0,0,0,.14,2.19,6.75,6.75,0,0,0,.54,1.51h-2.94a9,9,0,0,1-.29-.88,2.5,2.5,0,0,0-.11-.35,5.37,5.37,0,0,1-1.63,1.11,4.6,4.6,0,0,1-1.85.37,3.83,3.83,0,0,1-2.74-.94,3.15,3.15,0,0,1-1-2.38,3.23,3.23,0,0,1,.46-1.7,2.9,2.9,0,0,1,1.28-1.14,9.64,9.64,0,0,1,2.36-.7,15.85,15.85,0,0,0,2.89-.73v-.3a1.55,1.55,0,0,0-.42-1.22,2.57,2.57,0,0,0-1.6-.36,1.78,1.78,0,0,0-2,1.4Zm4,2.42a16.1,16.1,0,0,1-1.81.45,5.67,5.67,0,0,0-1.62.52,1.25,1.25,0,0,0-.58,1.05,1.42,1.42,0,0,0,.47,1.08,1.63,1.63,0,0,0,1.18.46,2.61,2.61,0,0,0,1.54-.53,1.84,1.84,0,0,0,.7-1,5.7,5.7,0,0,0,.12-1.45Z"/><path class="cls-11" d="M128.49,158.59V161h-2v4.53a10.93,10.93,0,0,0,.06,1.6.62.62,0,0,0,.26.38.84.84,0,0,0,.5.14,3.79,3.79,0,0,0,1.2-.28l.25,2.31a6,6,0,0,1-2.35.44,3.75,3.75,0,0,1-1.45-.27,2.06,2.06,0,0,1-.94-.7,2.63,2.63,0,0,1-.42-1.16,13.17,13.17,0,0,1-.1-2.09V161h-1.36v-2.38h1.36v-2.23l3-1.73v4Z"/><path class="cls-11" d="M130.55,157.07v-2.75h3v2.75Zm0,12.77V158.59h3v11.25Z"/><path class="cls-11" d="M146.8,169.84h-3V164.1a8.83,8.83,0,0,0-.19-2.36,1.68,1.68,0,0,0-.62-.83,1.83,1.83,0,0,0-1-.29,2.4,2.4,0,0,0-1.39.42,2.13,2.13,0,0,0-.84,1.12,9.81,9.81,0,0,0-.23,2.59v5.09h-3V158.59h2.76v1.66a4.51,4.51,0,0,1,3.7-1.91,4.38,4.38,0,0,1,1.8.36,2.92,2.92,0,0,1,1.24.9,3.26,3.26,0,0,1,.58,1.25,9.31,9.31,0,0,1,.16,2Z"/><path class="cls-11" d="M149.55,170.58l3.39.41a1.16,1.16,0,0,0,.4.82,2.23,2.23,0,0,0,1.33.31,3.4,3.4,0,0,0,1.75-.35A1.43,1.43,0,0,0,157,171a4.49,4.49,0,0,0,.14-1.36V168a4,4,0,0,1-3.37,1.82,4.14,4.14,0,0,1-3.59-1.92,6.52,6.52,0,0,1-1-3.77,6.25,6.25,0,0,1,1.36-4.32,4.42,4.42,0,0,1,3.39-1.49,4.13,4.13,0,0,1,3.44,1.83v-1.58h2.78v10.09a10,10,0,0,1-.33,3,3.64,3.64,0,0,1-.92,1.54,3.93,3.93,0,0,1-1.58.88,8.4,8.4,0,0,1-2.5.32,6.51,6.51,0,0,1-4.06-1,3.05,3.05,0,0,1-1.19-2.48C149.54,170.84,149.54,170.72,149.55,170.58Zm2.65-6.6a4,4,0,0,0,.7,2.62,2.12,2.12,0,0,0,1.71.83,2.36,2.36,0,0,0,1.84-.85,3.72,3.72,0,0,0,.75-2.52,4,4,0,0,0-.72-2.6,2.3,2.3,0,0,0-1.82-.84,2.17,2.17,0,0,0-1.76.83A3.84,3.84,0,0,0,152.2,164Z"/><path class="cls-11" d="M169.11,169.84V154.32h5a18.69,18.69,0,0,1,3.72.23,4.07,4.07,0,0,1,2.24,1.52,4.82,4.82,0,0,1,.9,3,5.14,5.14,0,0,1-.52,2.41,4.47,4.47,0,0,1-2.94,2.26,17.84,17.84,0,0,1-3.25.22h-2v5.86Zm3.13-12.9v4.41H174a7.74,7.74,0,0,0,2.47-.25,2,2,0,0,0,1-.76,2.06,2.06,0,0,0,.36-1.21,2,2,0,0,0-.5-1.39,2.13,2.13,0,0,0-1.26-.69,14.92,14.92,0,0,0-2.25-.11Z"/><path class="cls-11" d="M186.4,169.84h-3V158.59h2.76v1.6a4.92,4.92,0,0,1,1.28-1.49,2.36,2.36,0,0,1,1.29-.36,3.78,3.78,0,0,1,1.95.56l-.92,2.6a2.55,2.55,0,0,0-1.39-.49,1.64,1.64,0,0,0-1.06.34,2.4,2.4,0,0,0-.69,1.25,18.22,18.22,0,0,0-.24,3.76Z"/><path class="cls-11" d="M191.3,164.06a6,6,0,0,1,.73-2.87,4.93,4.93,0,0,1,2.07-2.12,6.1,6.1,0,0,1,3-.73,5.6,5.6,0,0,1,4.18,1.66,5.7,5.7,0,0,1,1.63,4.18,5.77,5.77,0,0,1-1.65,4.23,5.56,5.56,0,0,1-4.14,1.68,6.47,6.47,0,0,1-3-.7,4.7,4.7,0,0,1-2.13-2A6.77,6.77,0,0,1,191.3,164.06Zm3,.16a3.74,3.74,0,0,0,.79,2.56,2.59,2.59,0,0,0,3.91,0,3.79,3.79,0,0,0,.79-2.59,3.7,3.7,0,0,0-.79-2.54,2.59,2.59,0,0,0-3.91,0A3.75,3.75,0,0,0,194.35,164.22Z"/><path class="cls-11" d="M208.14,158.59v10.9a11.59,11.59,0,0,1-.28,3,2.47,2.47,0,0,1-1.08,1.38,3.8,3.8,0,0,1-2,.5,6.77,6.77,0,0,1-1-.08,8.8,8.8,0,0,1-1.1-.24l.51-2.54.4.07.35,0a1.29,1.29,0,0,0,.74-.2.91.91,0,0,0,.39-.47,8.09,8.09,0,0,0,.09-1.65V158.59Zm-3-1.52v-2.75h3v2.75Z"/><path class="cls-11" d="M217.76,166.26l3,.5a5,5,0,0,1-1.81,2.48,5.29,5.29,0,0,1-3.09.85,5.05,5.05,0,0,1-4.34-1.91,6.47,6.47,0,0,1-1.11-3.88,6.25,6.25,0,0,1,1.46-4.38,4.85,4.85,0,0,1,3.7-1.58,5,5,0,0,1,4,1.66,7.3,7.3,0,0,1,1.38,5.07h-7.45a3,3,0,0,0,.72,2.06,2.26,2.26,0,0,0,1.72.74,1.85,1.85,0,0,0,1.17-.38A2.37,2.37,0,0,0,217.76,166.26Zm.17-3a2.82,2.82,0,0,0-.67-2,2,2,0,0,0-1.54-.67,2,2,0,0,0-1.61.71,2.78,2.78,0,0,0-.63,1.92Z"/><path class="cls-11" d="M233.11,161.92l-2.93.53a2.09,2.09,0,0,0-.67-1.32,2,2,0,0,0-1.36-.45,2.23,2.23,0,0,0-1.78.77,3.93,3.93,0,0,0-.66,2.56,4.6,4.6,0,0,0,.67,2.83,2.22,2.22,0,0,0,1.81.83,2,2,0,0,0,1.38-.48,2.9,2.9,0,0,0,.77-1.66l2.92.5a5.14,5.14,0,0,1-1.75,3,5.36,5.36,0,0,1-3.46,1,5.17,5.17,0,0,1-3.93-1.55,7.1,7.1,0,0,1,0-8.65,5.24,5.24,0,0,1,4-1.55,5.51,5.51,0,0,1,3.27.88A4.88,4.88,0,0,1,233.11,161.92Z"/><path class="cls-11" d="M240.52,158.59V161h-2v4.53a10.93,10.93,0,0,0,.06,1.6.66.66,0,0,0,.26.38.84.84,0,0,0,.5.14,3.79,3.79,0,0,0,1.2-.28l.25,2.31a6,6,0,0,1-2.35.44,3.75,3.75,0,0,1-1.45-.27,2.06,2.06,0,0,1-.94-.7,2.76,2.76,0,0,1-.42-1.16,14.57,14.57,0,0,1-.1-2.09V161h-1.36v-2.38h1.36v-2.23l3-1.73v4Z"/><path class="cls-11" d="M241.54,166.63l3-.46a2.24,2.24,0,0,0,.77,1.32,2.64,2.64,0,0,0,1.64.45,3,3,0,0,0,1.73-.42,1,1,0,0,0,.39-.8.79.79,0,0,0-.21-.56,2.4,2.4,0,0,0-1-.39,16.16,16.16,0,0,1-4.57-1.45,2.88,2.88,0,0,1-1.33-2.53,3.1,3.1,0,0,1,1.15-2.45,5.37,5.37,0,0,1,3.58-1,6.25,6.25,0,0,1,3.43.75,3.86,3.86,0,0,1,1.55,2.23l-2.81.51a1.76,1.76,0,0,0-.68-1,2.53,2.53,0,0,0-1.44-.35,3.21,3.21,0,0,0-1.68.33.7.7,0,0,0-.34.6.66.66,0,0,0,.3.54,10.94,10.94,0,0,0,2.78.84,8.36,8.36,0,0,1,3.32,1.32,2.76,2.76,0,0,1,.93,2.21,3.4,3.4,0,0,1-1.29,2.66,5.73,5.73,0,0,1-3.82,1.11,6.27,6.27,0,0,1-3.64-.93A4.26,4.26,0,0,1,241.54,166.63Z"/><path class="cls-11" d="M50.84,197.84l-3.7-15.52h3.21L52.68,193l2.84-10.66h3.73L62,193.16l2.38-10.84H67.5l-3.76,15.52H60.41l-3.09-11.61-3.08,11.61Z"/><path class="cls-11" d="M68.89,185.07v-2.75h3v2.75Zm0,12.77V186.59h3v11.25Z"/><path class="cls-11" d="M80.07,186.59V189H78v4.53a10.93,10.93,0,0,0,.06,1.6.62.62,0,0,0,.26.38.84.84,0,0,0,.5.14,3.79,3.79,0,0,0,1.2-.28l.25,2.31a6,6,0,0,1-2.35.44,3.75,3.75,0,0,1-1.45-.27,2.06,2.06,0,0,1-.94-.7,2.63,2.63,0,0,1-.42-1.16,13.17,13.17,0,0,1-.1-2.09V189H73.69v-2.38h1.36v-2.23l3-1.73v4Z"/><path class="cls-11" d="M85.1,182.32V188a4.46,4.46,0,0,1,5.29-1.3,3.08,3.08,0,0,1,1.25,1,3.58,3.58,0,0,1,.57,1.31,12,12,0,0,1,.15,2.23v6.6h-3V191.9a9,9,0,0,0-.17-2.25,1.53,1.53,0,0,0-.6-.75,1.93,1.93,0,0,0-1.08-.28,2.47,2.47,0,0,0-1.32.36,2.07,2.07,0,0,0-.85,1.08,6.53,6.53,0,0,0-.27,2.15v5.63h-3V182.32Z"/><path class="cls-11" d="M101.42,197.84V182.32h5a18.75,18.75,0,0,1,3.73.23,4,4,0,0,1,2.23,1.52,4.82,4.82,0,0,1,.9,3,5,5,0,0,1-.52,2.41,4.18,4.18,0,0,1-1.32,1.52,4.36,4.36,0,0,1-1.62.74,17.77,17.77,0,0,1-3.25.22h-2v5.86Zm3.14-12.9v4.41h1.71a7.82,7.82,0,0,0,2.48-.25,2.06,2.06,0,0,0,1-.76,2.13,2.13,0,0,0,.35-1.21,2,2,0,0,0-.5-1.39,2.13,2.13,0,0,0-1.26-.69,14.83,14.83,0,0,0-2.25-.11Z"/><path class="cls-11" d="M115.17,192.06a6.15,6.15,0,0,1,.73-2.87,5,5,0,0,1,2.07-2.12,6.13,6.13,0,0,1,3-.73,5.62,5.62,0,0,1,4.19,1.66,6.21,6.21,0,0,1,0,8.41,5.57,5.57,0,0,1-4.15,1.68,6.43,6.43,0,0,1-2.94-.7,4.77,4.77,0,0,1-2.14-2A6.88,6.88,0,0,1,115.17,192.06Zm3,.16a3.74,3.74,0,0,0,.8,2.56,2.59,2.59,0,0,0,3.91,0,3.84,3.84,0,0,0,.79-2.59,3.75,3.75,0,0,0-.79-2.54,2.59,2.59,0,0,0-3.91,0A3.75,3.75,0,0,0,118.22,192.22Z"/><path class="cls-11" d="M134.26,186.59V189h-2v4.53a10.93,10.93,0,0,0,.06,1.6.62.62,0,0,0,.26.38.84.84,0,0,0,.5.14,3.79,3.79,0,0,0,1.2-.28l.25,2.31a6,6,0,0,1-2.35.44,3.75,3.75,0,0,1-1.45-.27,2.15,2.15,0,0,1-.95-.7,2.63,2.63,0,0,1-.41-1.16,13.17,13.17,0,0,1-.1-2.09V189h-1.36v-2.38h1.36v-2.23l3-1.73v4Z"/><path class="cls-11" d="M142.83,194.26l3,.5a4.85,4.85,0,0,1-1.81,2.48,5.27,5.27,0,0,1-3.08.85,5,5,0,0,1-4.34-1.91,6.47,6.47,0,0,1-1.11-3.88,6.2,6.2,0,0,1,1.46-4.38,4.81,4.81,0,0,1,3.69-1.58,5,5,0,0,1,4,1.66q1.45,1.65,1.39,5.07H138.5a3.08,3.08,0,0,0,.72,2.06,2.26,2.26,0,0,0,1.72.74,1.83,1.83,0,0,0,1.17-.38A2.37,2.37,0,0,0,142.83,194.26Zm.17-3a2.87,2.87,0,0,0-.66-2,2.15,2.15,0,0,0-3.16,0,2.73,2.73,0,0,0-.62,1.92Z"/><path class="cls-11" d="M158.61,197.84h-3V192.1a8.83,8.83,0,0,0-.19-2.36,1.68,1.68,0,0,0-.62-.83,1.81,1.81,0,0,0-1-.29,2.42,2.42,0,0,0-1.39.42,2.13,2.13,0,0,0-.84,1.12,9.81,9.81,0,0,0-.23,2.59v5.09h-3V186.59h2.76v1.66a4.51,4.51,0,0,1,3.71-1.91,4.45,4.45,0,0,1,1.8.36,2.94,2.94,0,0,1,1.23.9,3.26,3.26,0,0,1,.58,1.25,9.19,9.19,0,0,1,.17,2Z"/><path class="cls-11" d="M166.78,186.59V189h-2v4.53a10.93,10.93,0,0,0,.06,1.6.62.62,0,0,0,.26.38.84.84,0,0,0,.5.14,3.79,3.79,0,0,0,1.2-.28l.25,2.31a6,6,0,0,1-2.35.44,3.75,3.75,0,0,1-1.45-.27,2.15,2.15,0,0,1-.95-.7,2.63,2.63,0,0,1-.41-1.16,13.17,13.17,0,0,1-.1-2.09V189H160.4v-2.38h1.36v-2.23l3-1.73v4Z"/><path class="cls-11" d="M168.84,185.07v-2.75h3v2.75Zm0,12.77V186.59h3v11.25Z"/><path class="cls-11" d="M177.09,190l-2.7-.48a4.23,4.23,0,0,1,1.57-2.42,5.74,5.74,0,0,1,3.3-.78,7.13,7.13,0,0,1,3,.47,3,3,0,0,1,1.38,1.2,6.21,6.21,0,0,1,.39,2.66l0,3.47a12.67,12.67,0,0,0,.14,2.19,6.75,6.75,0,0,0,.54,1.51H181.7a9,9,0,0,1-.29-.88c0-.18-.09-.29-.11-.35a5.37,5.37,0,0,1-1.63,1.11,4.6,4.6,0,0,1-1.85.37,3.83,3.83,0,0,1-2.74-.94,3.15,3.15,0,0,1-1-2.38,3.23,3.23,0,0,1,.46-1.7,2.93,2.93,0,0,1,1.27-1.14,9.88,9.88,0,0,1,2.37-.7,15.85,15.85,0,0,0,2.89-.73v-.3a1.55,1.55,0,0,0-.42-1.22,2.59,2.59,0,0,0-1.6-.36,1.78,1.78,0,0,0-2,1.4Zm4,2.42a16.1,16.1,0,0,1-1.81.45,5.44,5.44,0,0,0-1.62.52,1.25,1.25,0,0,0-.58,1.05,1.44,1.44,0,0,0,.46,1.08,1.65,1.65,0,0,0,1.19.46,2.56,2.56,0,0,0,1.53-.53,1.86,1.86,0,0,0,.71-1,5.7,5.7,0,0,0,.12-1.45Z"/><path class="cls-11" d="M186.92,197.84V182.32h3v15.52Z"/><path class="cls-11" d="M191.9,194.63l3-.46a2.2,2.2,0,0,0,.78,1.32,2.61,2.61,0,0,0,1.63.45,2.92,2.92,0,0,0,1.73-.42.93.93,0,0,0,.4-.8.76.76,0,0,0-.22-.56,2.34,2.34,0,0,0-1-.39,15.93,15.93,0,0,1-4.56-1.45,2.89,2.89,0,0,1-1.34-2.53,3.11,3.11,0,0,1,1.16-2.45,5.34,5.34,0,0,1,3.57-1,6.23,6.23,0,0,1,3.43.75,3.81,3.81,0,0,1,1.55,2.23l-2.81.51a1.71,1.71,0,0,0-.68-1,2.49,2.49,0,0,0-1.43-.35,3.23,3.23,0,0,0-1.69.33.69.69,0,0,0-.33.6.65.65,0,0,0,.29.54,11.1,11.1,0,0,0,2.78.84,8.36,8.36,0,0,1,3.32,1.32,2.76,2.76,0,0,1,.93,2.21,3.4,3.4,0,0,1-1.29,2.66,5.73,5.73,0,0,1-3.82,1.11,6.29,6.29,0,0,1-3.64-.93A4.26,4.26,0,0,1,191.9,194.63Z"/><path class="cls-11" d="M26.17,244.83a2.12,2.12,0,0,1-.64,1.56A2.19,2.19,0,1,1,24,242.65a2.17,2.17,0,0,1,2.19,2.18Z"/><path class="cls-11" d="M31.94,250.21V239.33h3.53a12.82,12.82,0,0,1,2.61.16,2.88,2.88,0,0,1,1.56,1.07,3.36,3.36,0,0,1,.63,2.12,3.6,3.6,0,0,1-.36,1.68,3,3,0,0,1-.92,1.07,3.41,3.41,0,0,1-1.14.52,13.12,13.12,0,0,1-2.28.15H34.14v4.11Zm2.2-9v3.09h1.2a5.86,5.86,0,0,0,1.74-.17,1.47,1.47,0,0,0,.68-.54,1.54,1.54,0,0,0-.1-1.82,1.52,1.52,0,0,0-.88-.49,10.66,10.66,0,0,0-1.58-.07Z"/><path class="cls-11" d="M44.06,250.21H42v-7.88h1.94v1.12a3.45,3.45,0,0,1,.89-1,1.65,1.65,0,0,1,.9-.25,2.67,2.67,0,0,1,1.38.39l-.65,1.82a1.81,1.81,0,0,0-1-.34,1.15,1.15,0,0,0-.74.24,1.69,1.69,0,0,0-.48.87,12.21,12.21,0,0,0-.17,2.64Z"/><path class="cls-11" d="M47.49,246.15a4.29,4.29,0,0,1,.51-2,3.57,3.57,0,0,1,1.45-1.48,4.35,4.35,0,0,1,2.1-.51,4,4,0,0,1,2.93,1.16,4,4,0,0,1,1.14,2.93,4.06,4.06,0,0,1-1.15,3,3.92,3.92,0,0,1-2.91,1.17,4.49,4.49,0,0,1-2.06-.49,3.3,3.3,0,0,1-1.5-1.43A4.81,4.81,0,0,1,47.49,246.15Zm2.14.12a2.59,2.59,0,0,0,.55,1.79,1.77,1.77,0,0,0,1.38.62,1.75,1.75,0,0,0,1.37-.62,2.68,2.68,0,0,0,.55-1.81,2.65,2.65,0,0,0-.55-1.78,1.78,1.78,0,0,0-1.37-.62,1.8,1.8,0,0,0-1.38.62A2.62,2.62,0,0,0,49.63,246.27Z"/><path class="cls-11" d="M57.1,242.33H59v1.07a3.12,3.12,0,0,1,2.46-1.25,2.62,2.62,0,0,1,1.31.31,2.42,2.42,0,0,1,.91.94,3.72,3.72,0,0,1,1.12-.94,2.72,2.72,0,0,1,1.28-.31,2.91,2.91,0,0,1,1.47.35,2.19,2.19,0,0,1,.9,1,4.51,4.51,0,0,1,.22,1.63v5H66.6V245.7a3.42,3.42,0,0,0-.21-1.51,1,1,0,0,0-.89-.45,1.42,1.42,0,0,0-.83.27,1.51,1.51,0,0,0-.55.78,5.47,5.47,0,0,0-.17,1.63v3.79H61.86v-4.32a6.33,6.33,0,0,0-.11-1.49.91.91,0,0,0-.35-.49,1,1,0,0,0-.63-.17,1.56,1.56,0,0,0-.87.26,1.51,1.51,0,0,0-.55.75,5.63,5.63,0,0,0-.17,1.63v3.83H57.1Z"/><path class="cls-11" d="M70.28,246.15a4.29,4.29,0,0,1,.51-2,3.57,3.57,0,0,1,1.45-1.48,4.35,4.35,0,0,1,2.1-.51,4,4,0,0,1,2.93,1.16,4,4,0,0,1,1.14,2.93,4.06,4.06,0,0,1-1.15,3,3.92,3.92,0,0,1-2.91,1.17,4.49,4.49,0,0,1-2.06-.49,3.3,3.3,0,0,1-1.5-1.43A4.81,4.81,0,0,1,70.28,246.15Zm2.14.12a2.59,2.59,0,0,0,.55,1.79,1.76,1.76,0,0,0,1.38.62,1.72,1.72,0,0,0,1.36-.62,2.63,2.63,0,0,0,.56-1.81,2.6,2.6,0,0,0-.56-1.78,1.75,1.75,0,0,0-1.36-.62,1.79,1.79,0,0,0-1.38.62A2.62,2.62,0,0,0,72.42,246.27Z"/><path class="cls-11" d="M83.66,242.33V244H82.23v3.17a9.52,9.52,0,0,0,0,1.13.48.48,0,0,0,.19.26.56.56,0,0,0,.35.1,2.56,2.56,0,0,0,.84-.2l.18,1.62a4.15,4.15,0,0,1-1.65.31,2.54,2.54,0,0,1-1-.19,1.43,1.43,0,0,1-.66-.49,1.88,1.88,0,0,1-.29-.81,9.18,9.18,0,0,1-.07-1.47V244h-1v-1.66h1v-1.57l2.09-1.21v2.78Z"/><path class="cls-11" d="M85.1,241.26v-1.93h2.09v1.93Zm0,9v-7.88h2.09v7.88Z"/><path class="cls-11" d="M96.49,250.21H94.4v-4a6.22,6.22,0,0,0-.13-1.65,1.16,1.16,0,0,0-.43-.58,1.23,1.23,0,0,0-.73-.21,1.66,1.66,0,0,0-1,.3,1.55,1.55,0,0,0-.59.79,7,7,0,0,0-.16,1.81v3.57H89.31v-7.88h1.93v1.15a3.16,3.16,0,0,1,2.6-1.33,3,3,0,0,1,1.26.25A2.09,2.09,0,0,1,96,243a2.28,2.28,0,0,1,.4.88,6.18,6.18,0,0,1,.12,1.4Z"/><path class="cls-11" d="M98.41,250.72l2.38.29a.82.82,0,0,0,.28.58,1.61,1.61,0,0,0,.93.22,2.38,2.38,0,0,0,1.23-.25,1,1,0,0,0,.41-.52,3,3,0,0,0,.1-1v-1.15a2.84,2.84,0,0,1-2.36,1.28,2.91,2.91,0,0,1-2.52-1.35,4.59,4.59,0,0,1-.72-2.64,4.34,4.34,0,0,1,1-3,3.11,3.11,0,0,1,2.37-1,2.9,2.9,0,0,1,2.41,1.28v-1.1h1.95v7.07a6.79,6.79,0,0,1-.23,2.08,2.59,2.59,0,0,1-.64,1.08,2.83,2.83,0,0,1-1.11.62,5.81,5.81,0,0,1-1.76.22,4.6,4.6,0,0,1-2.84-.68A2.16,2.16,0,0,1,98.4,251C98.4,250.91,98.41,250.82,98.41,250.72Zm1.86-4.62a2.81,2.81,0,0,0,.49,1.84,1.49,1.49,0,0,0,1.2.58,1.65,1.65,0,0,0,1.29-.6,2.58,2.58,0,0,0,.52-1.77,2.72,2.72,0,0,0-.5-1.81,1.6,1.6,0,0,0-1.28-.6,1.52,1.52,0,0,0-1.23.59A2.69,2.69,0,0,0,100.27,246.1Z"/><path class="cls-11" d="M112.14,250.21V239.33h2.14l4.45,7.26v-7.26h2v10.88h-2.2l-4.39-7.1v7.1Z"/><path class="cls-11" d="M123.09,250.21V239.33h3.52a12.87,12.87,0,0,1,2.62.16,2.88,2.88,0,0,1,1.56,1.07,3.36,3.36,0,0,1,.63,2.12,3.6,3.6,0,0,1-.36,1.68,3,3,0,0,1-.93,1.07A3.28,3.28,0,0,1,129,246a13.12,13.12,0,0,1-2.28.15h-1.43v4.11Zm2.2-9v3.09h1.2a5.78,5.78,0,0,0,1.73-.17,1.45,1.45,0,0,0,.69-.54,1.54,1.54,0,0,0-.1-1.82,1.55,1.55,0,0,0-.88-.49,10.66,10.66,0,0,0-1.58-.07Z"/><path class="cls-11" d="M132.78,244.83a6.91,6.91,0,0,1,.5-2.78,4.89,4.89,0,0,1,1-1.5,4.38,4.38,0,0,1,1.41-1,6,6,0,0,1,2.34-.43,5.11,5.11,0,0,1,3.85,1.5,6.66,6.66,0,0,1,0,8.26,5.72,5.72,0,0,1-7.69,0A5.63,5.63,0,0,1,132.78,244.83Zm2.26-.07a4.06,4.06,0,0,0,.86,2.8,2.94,2.94,0,0,0,4.32,0,4.17,4.17,0,0,0,.84-2.84,4.06,4.06,0,0,0-.82-2.79,3,3,0,0,0-4.37,0A4.14,4.14,0,0,0,135,244.76Z"/><path class="cls-11" d="M149.26,239.33h4a7.81,7.81,0,0,1,2.07.21,3.67,3.67,0,0,1,1.64,1,4.89,4.89,0,0,1,1,1.76,8.27,8.27,0,0,1,.35,2.57,7.25,7.25,0,0,1-.33,2.32,4.73,4.73,0,0,1-1.17,1.92,3.87,3.87,0,0,1-1.54.87,6.71,6.71,0,0,1-1.94.23h-4.13Zm2.19,1.84v7.2h1.64a6,6,0,0,0,1.33-.1,2.14,2.14,0,0,0,.89-.45,2.45,2.45,0,0,0,.57-1,7.08,7.08,0,0,0,.22-2,6.41,6.41,0,0,0-.22-1.93,2.55,2.55,0,0,0-.62-1.05,2.07,2.07,0,0,0-1-.52,10,10,0,0,0-1.8-.1Z"/><path class="cls-11" d="M161.78,244.73l-1.89-.34A2.9,2.9,0,0,1,161,242.7a4,4,0,0,1,2.32-.55,5,5,0,0,1,2.08.33,2.11,2.11,0,0,1,1,.84,4.4,4.4,0,0,1,.27,1.86l0,2.44a9.13,9.13,0,0,0,.1,1.53,4.4,4.4,0,0,0,.38,1.06H165c-.05-.14-.12-.35-.2-.62a1.78,1.78,0,0,0-.07-.25,3.74,3.74,0,0,1-1.14.78,3.18,3.18,0,0,1-1.3.26,2.7,2.7,0,0,1-1.92-.66,2.18,2.18,0,0,1-.7-1.67,2.28,2.28,0,0,1,.32-1.19,2.1,2.1,0,0,1,.89-.8,7.54,7.54,0,0,1,1.66-.48,11.7,11.7,0,0,0,2-.52v-.2a1.08,1.08,0,0,0-.3-.86,1.78,1.78,0,0,0-1.12-.26,1.55,1.55,0,0,0-.87.22A1.52,1.52,0,0,0,161.78,244.73Zm2.79,1.69a11.88,11.88,0,0,1-1.27.32,4.07,4.07,0,0,0-1.14.36.88.88,0,0,0-.4.74,1,1,0,0,0,.32.76,1.16,1.16,0,0,0,.83.31,1.79,1.79,0,0,0,1.08-.37,1.27,1.27,0,0,0,.5-.69,4.26,4.26,0,0,0,.08-1Z"/><path class="cls-11" d="M172.28,242.33V244h-1.42v3.17a7.59,7.59,0,0,0,0,1.13.51.51,0,0,0,.18.26.61.61,0,0,0,.36.1,2.47,2.47,0,0,0,.83-.2l.18,1.62a4.07,4.07,0,0,1-1.64.31,2.54,2.54,0,0,1-1-.19,1.43,1.43,0,0,1-.66-.49,1.88,1.88,0,0,1-.3-.81,11.2,11.2,0,0,1-.06-1.47V244h-1v-1.66h1v-1.57l2.09-1.21v2.78Z"/><path class="cls-11" d="M175.29,244.73l-1.89-.34a2.9,2.9,0,0,1,1.09-1.69,4,4,0,0,1,2.32-.55,4.94,4.94,0,0,1,2.07.33,2.09,2.09,0,0,1,1,.84,4.4,4.4,0,0,1,.27,1.86l0,2.44a8.16,8.16,0,0,0,.1,1.53,4.4,4.4,0,0,0,.38,1.06h-2.07c0-.14-.12-.35-.2-.62,0-.12-.06-.21-.07-.25a3.74,3.74,0,0,1-1.14.78,3.18,3.18,0,0,1-1.3.26,2.7,2.7,0,0,1-1.92-.66,2.18,2.18,0,0,1-.7-1.67,2.28,2.28,0,0,1,.32-1.19,2.1,2.1,0,0,1,.89-.8,7.54,7.54,0,0,1,1.66-.48,12,12,0,0,0,2-.52v-.2a1.08,1.08,0,0,0-.3-.86,1.78,1.78,0,0,0-1.12-.26,1.55,1.55,0,0,0-.87.22A1.52,1.52,0,0,0,175.29,244.73Zm2.79,1.69a11.88,11.88,0,0,1-1.27.32,4.07,4.07,0,0,0-1.14.36.89.89,0,0,0-.41.74,1,1,0,0,0,.33.76,1.14,1.14,0,0,0,.83.31,1.79,1.79,0,0,0,1.08-.37,1.2,1.2,0,0,0,.49-.69,3.65,3.65,0,0,0,.09-1Z"/><path class="cls-11" d="M195.66,250.21h-2.39l-1-2.48H188l-.9,2.48h-2.32L189,239.33h2.32Zm-4-4.31-1.49-4-1.47,4Z"/><path class="cls-11" d="M196.75,242.33h1.94v1.15a3,3,0,0,1,1-1,2.77,2.77,0,0,1,1.43-.37,3,3,0,0,1,2.33,1.07,4.41,4.41,0,0,1,1,3,4.5,4.5,0,0,1-1,3.07,3,3,0,0,1-2.34,1.09,2.56,2.56,0,0,1-1.18-.26,4,4,0,0,1-1.12-.89v4h-2.08Zm2.06,3.8a3,3,0,0,0,.53,2,1.59,1.59,0,0,0,1.28.64,1.49,1.49,0,0,0,1.21-.58,3,3,0,0,0,.48-1.91,2.79,2.79,0,0,0-.5-1.84,1.53,1.53,0,0,0-1.23-.6,1.59,1.59,0,0,0-1.27.59A2.64,2.64,0,0,0,198.81,246.13Z"/><path class="cls-11" d="M206,242.33H208v1.15a3,3,0,0,1,1-1,2.77,2.77,0,0,1,1.43-.37,3,3,0,0,1,2.33,1.07,4.41,4.41,0,0,1,1,3,4.5,4.5,0,0,1-1,3.07,3,3,0,0,1-2.34,1.09,2.56,2.56,0,0,1-1.18-.26,4,4,0,0,1-1.12-.89v4H206Zm2.06,3.8a3,3,0,0,0,.53,2,1.59,1.59,0,0,0,1.28.64,1.49,1.49,0,0,0,1.21-.58,3,3,0,0,0,.48-1.91,2.79,2.79,0,0,0-.5-1.84,1.53,1.53,0,0,0-1.23-.6,1.59,1.59,0,0,0-1.27.59A2.64,2.64,0,0,0,208.09,246.13Z"/><path class="cls-11" d="M215.37,250.21V239.33h2.08v10.88Z"/><path class="cls-11" d="M219.59,241.26v-1.93h2.08v1.93Zm0,9v-7.88h2.08v7.88Z"/><path class="cls-11" d="M230.68,244.66l-2.06.37a1.48,1.48,0,0,0-.47-.93,1.39,1.39,0,0,0-1-.31,1.55,1.55,0,0,0-1.24.54,2.72,2.72,0,0,0-.47,1.8,3.23,3.23,0,0,0,.47,2,1.57,1.57,0,0,0,1.27.57,1.41,1.41,0,0,0,1-.33,2.13,2.13,0,0,0,.54-1.16l2,.34a3.64,3.64,0,0,1-1.22,2.13,3.78,3.78,0,0,1-2.43.72,3.58,3.58,0,0,1-2.75-1.09,5,5,0,0,1,0-6,3.65,3.65,0,0,1,2.79-1.09,3.84,3.84,0,0,1,2.29.62A3.46,3.46,0,0,1,230.68,244.66Z"/><path class="cls-11" d="M233.82,244.73l-1.89-.34A2.9,2.9,0,0,1,233,242.7a4,4,0,0,1,2.32-.55,4.94,4.94,0,0,1,2.07.33,2.09,2.09,0,0,1,1,.84,4.4,4.4,0,0,1,.27,1.86l0,2.44a8.16,8.16,0,0,0,.1,1.53,4.4,4.4,0,0,0,.38,1.06H237c0-.14-.12-.35-.2-.62,0-.12-.06-.21-.07-.25a3.74,3.74,0,0,1-1.14.78,3.18,3.18,0,0,1-1.3.26,2.7,2.7,0,0,1-1.92-.66,2.18,2.18,0,0,1-.7-1.67,2.28,2.28,0,0,1,.32-1.19,2.1,2.1,0,0,1,.89-.8,7.54,7.54,0,0,1,1.66-.48,11.7,11.7,0,0,0,2-.52v-.2a1.08,1.08,0,0,0-.3-.86,1.78,1.78,0,0,0-1.12-.26,1.55,1.55,0,0,0-.87.22A1.52,1.52,0,0,0,233.82,244.73Zm2.79,1.69a11.88,11.88,0,0,1-1.27.32,4.07,4.07,0,0,0-1.14.36.89.89,0,0,0-.41.74,1,1,0,0,0,.33.76,1.16,1.16,0,0,0,.83.31,1.79,1.79,0,0,0,1.08-.37,1.2,1.2,0,0,0,.49-.69,3.65,3.65,0,0,0,.09-1Z"/><path class="cls-11" d="M244.32,242.33V244H242.9v3.17a7.59,7.59,0,0,0,0,1.13.46.46,0,0,0,.18.26.61.61,0,0,0,.36.1,2.47,2.47,0,0,0,.83-.2l.18,1.62a4.07,4.07,0,0,1-1.64.31,2.54,2.54,0,0,1-1-.19,1.43,1.43,0,0,1-.66-.49,1.88,1.88,0,0,1-.3-.81,11.2,11.2,0,0,1-.06-1.47V244h-1v-1.66h1v-1.57l2.09-1.21v2.78Z"/><path class="cls-11" d="M245.77,241.26v-1.93h2.08v1.93Zm0,9v-7.88h2.08v7.88Z"/><path class="cls-11" d="M249.51,246.15a4.29,4.29,0,0,1,.51-2,3.51,3.51,0,0,1,1.45-1.48,4.28,4.28,0,0,1,2.09-.51,4,4,0,0,1,4.08,4.09,4.07,4.07,0,0,1-1.16,3,3.9,3.9,0,0,1-2.9,1.17,4.57,4.57,0,0,1-2.07-.49,3.33,3.33,0,0,1-1.49-1.43A4.81,4.81,0,0,1,249.51,246.15Zm2.13.12a2.59,2.59,0,0,0,.56,1.79,1.82,1.82,0,0,0,2.74,0,2.63,2.63,0,0,0,.55-1.81,2.6,2.6,0,0,0-.55-1.78,1.82,1.82,0,0,0-2.74,0A2.62,2.62,0,0,0,251.64,246.27Z"/><path class="cls-11" d="M266.44,250.21h-2.09v-4a6.22,6.22,0,0,0-.13-1.65,1.17,1.17,0,0,0-.44-.58,1.22,1.22,0,0,0-.72-.21,1.66,1.66,0,0,0-1,.3,1.45,1.45,0,0,0-.59.79,6.61,6.61,0,0,0-.16,1.81v3.57h-2.09v-7.88h1.94v1.15a3.15,3.15,0,0,1,2.6-1.33,3,3,0,0,1,1.26.25,2,2,0,0,1,.86.63,2.3,2.3,0,0,1,.41.88,6.18,6.18,0,0,1,.12,1.4Z"/><path class="cls-11" d="M26.17,270.83a2.12,2.12,0,0,1-.64,1.56A2.19,2.19,0,1,1,24,268.65a2.17,2.17,0,0,1,2.19,2.18Z"/><path class="cls-11" d="M41.19,276.21H38.8l-.95-2.48H33.5l-.9,2.48H30.27l4.24-10.88h2.32Zm-4-4.31-1.5-4-1.46,4Z"/><path class="cls-11" d="M41.6,274l2.09-.32a1.55,1.55,0,0,0,.54.92,1.87,1.87,0,0,0,1.15.32,2,2,0,0,0,1.21-.3.65.65,0,0,0,.28-.56.54.54,0,0,0-.15-.39,1.6,1.6,0,0,0-.7-.27,11,11,0,0,1-3.19-1,2,2,0,0,1-.94-1.77,2.16,2.16,0,0,1,.81-1.72,3.74,3.74,0,0,1,2.51-.7,4.29,4.29,0,0,1,2.4.53,2.67,2.67,0,0,1,1.08,1.55l-2,.37a1.29,1.29,0,0,0-.48-.71,1.8,1.8,0,0,0-1-.24,2.2,2.2,0,0,0-1.18.23.51.51,0,0,0-.23.42.48.48,0,0,0,.2.38,7.84,7.84,0,0,0,1.95.58,6,6,0,0,1,2.33.93,1.94,1.94,0,0,1,.65,1.55,2.37,2.37,0,0,1-.9,1.86,4,4,0,0,1-2.68.78,4.34,4.34,0,0,1-2.55-.65A3,3,0,0,1,41.6,274Z"/><path class="cls-11" d="M50.05,274l2.09-.32a1.55,1.55,0,0,0,.54.92,1.87,1.87,0,0,0,1.15.32,2,2,0,0,0,1.21-.3.65.65,0,0,0,.28-.56.54.54,0,0,0-.15-.39,1.6,1.6,0,0,0-.7-.27,11.23,11.23,0,0,1-3.2-1,2,2,0,0,1-.93-1.77,2.16,2.16,0,0,1,.81-1.72,3.74,3.74,0,0,1,2.51-.7,4.29,4.29,0,0,1,2.4.53,2.72,2.72,0,0,1,1.08,1.55l-2,.37a1.29,1.29,0,0,0-.48-.71,1.8,1.8,0,0,0-1-.24,2.2,2.2,0,0,0-1.18.23.51.51,0,0,0-.23.42.48.48,0,0,0,.2.38,7.84,7.84,0,0,0,2,.58,6,6,0,0,1,2.33.93,1.94,1.94,0,0,1,.65,1.55,2.35,2.35,0,0,1-.91,1.86,4,4,0,0,1-2.67.78,4.34,4.34,0,0,1-2.55-.65A3,3,0,0,1,50.05,274Z"/><path class="cls-11" d="M59.23,267.26v-1.93h2.09v1.93Zm0,8.95v-7.88h2.09v7.88Z"/><path class="cls-11" d="M62.72,274l2.09-.32a1.52,1.52,0,0,0,.55.92,1.82,1.82,0,0,0,1.14.32,2,2,0,0,0,1.21-.3A.65.65,0,0,0,68,274a.54.54,0,0,0-.15-.39,1.6,1.6,0,0,0-.7-.27,11,11,0,0,1-3.19-1,2,2,0,0,1-.94-1.77,2.16,2.16,0,0,1,.81-1.72,3.74,3.74,0,0,1,2.51-.7,4.29,4.29,0,0,1,2.4.53,2.67,2.67,0,0,1,1.08,1.55l-2,.37a1.29,1.29,0,0,0-.48-.71,1.8,1.8,0,0,0-1-.24,2.2,2.2,0,0,0-1.18.23.51.51,0,0,0-.23.42.48.48,0,0,0,.2.38,7.84,7.84,0,0,0,1.95.58,6,6,0,0,1,2.33.93,1.94,1.94,0,0,1,.65,1.55,2.37,2.37,0,0,1-.9,1.86,4,4,0,0,1-2.68.78,4.34,4.34,0,0,1-2.55-.65A3,3,0,0,1,62.72,274Z"/><path class="cls-11" d="M75.52,268.33V270H74.09v3.17a9.52,9.52,0,0,0,0,1.13.48.48,0,0,0,.19.26.58.58,0,0,0,.35.1,2.56,2.56,0,0,0,.84-.2l.18,1.62a4.15,4.15,0,0,1-1.65.31,2.61,2.61,0,0,1-1-.19,1.43,1.43,0,0,1-.66-.49,1.88,1.88,0,0,1-.29-.81,9.18,9.18,0,0,1-.07-1.47V270H71v-1.66h1v-1.57l2.09-1.21v2.78Z"/><path class="cls-11" d="M81.22,276.21V265.33h2.14l4.45,7.26v-7.26h2v10.88h-2.2l-4.39-7.1v7.1Z"/><path class="cls-11" d="M92.17,276.21V265.33H95.7a12.82,12.82,0,0,1,2.61.16,2.88,2.88,0,0,1,1.56,1.07,3.36,3.36,0,0,1,.63,2.12,3.6,3.6,0,0,1-.36,1.68,3,3,0,0,1-.92,1.07,3.41,3.41,0,0,1-1.14.52,13.12,13.12,0,0,1-2.28.15H94.37v4.11Zm2.2-9v3.09h1.2a5.91,5.91,0,0,0,1.74-.17,1.47,1.47,0,0,0,.68-.54,1.54,1.54,0,0,0-.1-1.82,1.55,1.55,0,0,0-.88-.49,10.66,10.66,0,0,0-1.58-.07Z"/><path class="cls-11" d="M101.86,270.83a6.91,6.91,0,0,1,.5-2.78,4.89,4.89,0,0,1,1-1.5,4.38,4.38,0,0,1,1.41-1,6,6,0,0,1,2.34-.43,5.11,5.11,0,0,1,3.85,1.5,6.66,6.66,0,0,1,0,8.26,5.72,5.72,0,0,1-7.69,0A5.63,5.63,0,0,1,101.86,270.83Zm2.26-.07a4.06,4.06,0,0,0,.86,2.8,2.94,2.94,0,0,0,4.32,0,4.17,4.17,0,0,0,.84-2.84,4.06,4.06,0,0,0-.82-2.79,3,3,0,0,0-4.37,0A4.14,4.14,0,0,0,104.12,270.76Z"/><path class="cls-11" d="M118.31,276.21V265.33h3.29l2,7.42,2-7.42h3.3v10.88h-2v-8.57l-2.16,8.57h-2.11l-2.16-8.57v8.57Z"/><path class="cls-11" d="M136.17,276.21V275a3,3,0,0,1-1.13,1,3.2,3.2,0,0,1-1.48.36,2.83,2.83,0,0,1-1.43-.35,2,2,0,0,1-.91-1,4.41,4.41,0,0,1-.28-1.75v-5H133V272a9.6,9.6,0,0,0,.12,2,1.18,1.18,0,0,0,.42.6,1.32,1.32,0,0,0,.77.22,1.61,1.61,0,0,0,1-.3,1.54,1.54,0,0,0,.58-.72,8.79,8.79,0,0,0,.15-2.13v-3.32h2.09v7.88Z"/><path class="cls-11" d="M140.26,276.21V265.33h2.09v10.88Z"/><path class="cls-11" d="M148.1,268.33V270h-1.43v3.17a9.52,9.52,0,0,0,0,1.13.48.48,0,0,0,.19.26.58.58,0,0,0,.35.1,2.51,2.51,0,0,0,.84-.2l.18,1.62a4.11,4.11,0,0,1-1.65.31,2.53,2.53,0,0,1-1-.19,1.41,1.41,0,0,1-.67-.49,1.88,1.88,0,0,1-.29-.81,9.18,9.18,0,0,1-.07-1.47V270h-1v-1.66h1v-1.57l2.09-1.21v2.78Z"/><path class="cls-11" d="M149.54,267.26v-1.93h2.09v1.93Zm0,8.95v-7.88h2.09v7.88Z"/><path class="cls-11" d="M155.93,276.21l-3.17-7.88H155l1.48,4,.43,1.34c.11-.34.18-.57.21-.67s.15-.45.23-.67l1.5-4h2.14l-3.13,7.88Z"/><path class="cls-11" d="M163.77,270.73l-1.89-.34a2.91,2.91,0,0,1,1.1-1.69,4,4,0,0,1,2.31-.55,5,5,0,0,1,2.08.33,2,2,0,0,1,1,.84,4.21,4.21,0,0,1,.28,1.86l0,2.44a8.16,8.16,0,0,0,.1,1.53,4.34,4.34,0,0,0,.37,1.06H167c-.05-.14-.12-.35-.2-.62,0-.12-.06-.21-.07-.25a3.67,3.67,0,0,1-1.15.78,3.1,3.1,0,0,1-1.29.26,2.66,2.66,0,0,1-1.92-.66,2.35,2.35,0,0,1-.38-2.86,2.1,2.1,0,0,1,.89-.8,7.38,7.38,0,0,1,1.66-.48,11.52,11.52,0,0,0,2-.52v-.2a1.11,1.11,0,0,0-.29-.86,1.8,1.8,0,0,0-1.12-.26,1.26,1.26,0,0,0-1.38,1Zm2.79,1.69a11.27,11.27,0,0,1-1.27.32,4.09,4.09,0,0,0-1.13.36.89.89,0,0,0-.41.74,1,1,0,0,0,.33.76,1.12,1.12,0,0,0,.83.31,1.78,1.78,0,0,0,1.07-.37,1.22,1.22,0,0,0,.5-.69,3.77,3.77,0,0,0,.08-1Z"/><path class="cls-11" d="M172.66,276.21h-2.08v-7.88h1.93v1.12a3.32,3.32,0,0,1,.9-1.05,1.6,1.6,0,0,1,.9-.25,2.67,2.67,0,0,1,1.37.39l-.65,1.82a1.78,1.78,0,0,0-1-.34,1.17,1.17,0,0,0-.74.24,1.69,1.69,0,0,0-.48.87,12.93,12.93,0,0,0-.17,2.64Z"/><path class="cls-11" d="M176.58,267.26v-1.93h2.08v1.93Zm0,8.95v-7.88h2.08v7.88Z"/><path class="cls-11" d="M182.36,270.73l-1.9-.34a3,3,0,0,1,1.1-1.69,4,4,0,0,1,2.32-.55,4.94,4.94,0,0,1,2.07.33,2.09,2.09,0,0,1,1,.84,4.4,4.4,0,0,1,.27,1.86l0,2.44a8.16,8.16,0,0,0,.1,1.53,4.4,4.4,0,0,0,.38,1.06h-2.07c-.05-.14-.12-.35-.2-.62,0-.12-.06-.21-.07-.25a3.74,3.74,0,0,1-1.14.78,3.18,3.18,0,0,1-1.3.26,2.7,2.7,0,0,1-1.92-.66,2.18,2.18,0,0,1-.7-1.67,2.28,2.28,0,0,1,.32-1.19,2.1,2.1,0,0,1,.89-.8,7.54,7.54,0,0,1,1.66-.48,12,12,0,0,0,2-.52v-.2a1.08,1.08,0,0,0-.3-.86,1.78,1.78,0,0,0-1.12-.26,1.55,1.55,0,0,0-.87.22A1.46,1.46,0,0,0,182.36,270.73Zm2.79,1.69a11.88,11.88,0,0,1-1.27.32,4.07,4.07,0,0,0-1.14.36.89.89,0,0,0-.41.74,1,1,0,0,0,.33.76,1.14,1.14,0,0,0,.83.31,1.79,1.79,0,0,0,1.08-.37,1.25,1.25,0,0,0,.49-.69,3.65,3.65,0,0,0,.09-1Z"/><path class="cls-11" d="M192.86,268.33V270h-1.42v3.17a7.59,7.59,0,0,0,0,1.13.46.46,0,0,0,.18.26.6.6,0,0,0,.35.1,2.46,2.46,0,0,0,.84-.2l.18,1.62a4.08,4.08,0,0,1-1.65.31,2.53,2.53,0,0,1-1-.19,1.47,1.47,0,0,1-.67-.49,2,2,0,0,1-.29-.81,10.61,10.61,0,0,1-.07-1.47V270h-1v-1.66h1v-1.57l2.1-1.21v2.78Z"/><path class="cls-11" d="M198.87,273.7l2.08.35a3.43,3.43,0,0,1-1.27,1.74,3.76,3.76,0,0,1-2.16.59,3.51,3.51,0,0,1-3-1.34,4.5,4.5,0,0,1-.78-2.71,4.36,4.36,0,0,1,1-3.07,3.37,3.37,0,0,1,2.59-1.11,3.53,3.53,0,0,1,2.78,1.16,5.17,5.17,0,0,1,1,3.56h-5.23a2.13,2.13,0,0,0,.51,1.44,1.59,1.59,0,0,0,1.2.52,1.25,1.25,0,0,0,.82-.27A1.61,1.61,0,0,0,198.87,273.7Zm.12-2.11a2,2,0,0,0-.47-1.37,1.43,1.43,0,0,0-1.08-.48,1.46,1.46,0,0,0-1.13.5,1.93,1.93,0,0,0-.44,1.35Z"/><path class="cls-11" d="M206.93,276.21V265.33h2.19v10.88Z"/><path class="cls-11" d="M218.36,276.21h-2.08v-4a6.22,6.22,0,0,0-.13-1.65,1.17,1.17,0,0,0-.44-.58,1.22,1.22,0,0,0-.72-.21,1.64,1.64,0,0,0-1,.3,1.45,1.45,0,0,0-.59.79,6.61,6.61,0,0,0-.16,1.81v3.57h-2.09v-7.88h1.94v1.15a3.15,3.15,0,0,1,2.6-1.33,3,3,0,0,1,1.26.25,2,2,0,0,1,.86.63,2.3,2.3,0,0,1,.41.88,6.29,6.29,0,0,1,.11,1.4Z"/><path class="cls-11" d="M220.48,267.26v-1.93h2.08v1.93Zm0,8.95v-7.88h2.08v7.88Z"/><path class="cls-11" d="M228.31,268.33V270h-1.42v3.17a7.59,7.59,0,0,0,0,1.13.51.51,0,0,0,.18.26.61.61,0,0,0,.36.1,2.56,2.56,0,0,0,.84-.2l.17,1.62a4.07,4.07,0,0,1-1.64.31,2.54,2.54,0,0,1-1-.19,1.43,1.43,0,0,1-.66-.49,2,2,0,0,1-.3-.81,11.2,11.2,0,0,1-.06-1.47V270h-1v-1.66h1v-1.57l2.09-1.21v2.78Z"/><path class="cls-11" d="M229.76,267.26v-1.93h2.08v1.93Zm0,8.95v-7.88h2.08v7.88Z"/><path class="cls-11" d="M235.54,270.73l-1.89-.34a3,3,0,0,1,1.09-1.69,4,4,0,0,1,2.32-.55,5,5,0,0,1,2.08.33,2.11,2.11,0,0,1,1,.84,4.4,4.4,0,0,1,.27,1.86l0,2.44a9.13,9.13,0,0,0,.1,1.53,4.4,4.4,0,0,0,.38,1.06h-2.06a6.14,6.14,0,0,1-.21-.62,1.78,1.78,0,0,0-.07-.25,3.74,3.74,0,0,1-1.14.78,3.18,3.18,0,0,1-1.3.26,2.7,2.7,0,0,1-1.92-.66,2.21,2.21,0,0,1-.7-1.67,2.28,2.28,0,0,1,.32-1.19,2.1,2.1,0,0,1,.89-.8,7.54,7.54,0,0,1,1.66-.48,11.7,11.7,0,0,0,2-.52v-.2a1.08,1.08,0,0,0-.3-.86,1.78,1.78,0,0,0-1.12-.26,1.55,1.55,0,0,0-.87.22A1.52,1.52,0,0,0,235.54,270.73Zm2.79,1.69a11.88,11.88,0,0,1-1.27.32,4.07,4.07,0,0,0-1.14.36.88.88,0,0,0-.4.74,1,1,0,0,0,.32.76,1.16,1.16,0,0,0,.83.31,1.79,1.79,0,0,0,1.08-.37,1.27,1.27,0,0,0,.5-.69,4.26,4.26,0,0,0,.08-1Z"/><path class="cls-11" d="M246,268.33V270h-1.42v3.17a7.59,7.59,0,0,0,0,1.13.51.51,0,0,0,.18.26.61.61,0,0,0,.36.1,2.47,2.47,0,0,0,.83-.2l.18,1.62a4.07,4.07,0,0,1-1.64.31,2.54,2.54,0,0,1-1-.19,1.43,1.43,0,0,1-.66-.49,1.88,1.88,0,0,1-.3-.81,11.2,11.2,0,0,1-.06-1.47V270h-1v-1.66h1v-1.57l2.09-1.21v2.78Z"/><path class="cls-11" d="M247.49,267.26v-1.93h2.08v1.93Zm0,8.95v-7.88h2.08v7.88Z"/><path class="cls-11" d="M253.88,276.21l-3.18-7.88h2.19l1.48,4,.43,1.34c.12-.34.19-.57.22-.67s.14-.45.22-.67l1.5-4h2.14l-3.13,7.88Z"/><path class="cls-11" d="M264.72,273.7l2.08.35a3.43,3.43,0,0,1-1.27,1.74,3.74,3.74,0,0,1-2.16.59,3.51,3.51,0,0,1-3-1.34,4.5,4.5,0,0,1-.78-2.71,4.36,4.36,0,0,1,1-3.07,3.39,3.39,0,0,1,2.59-1.11,3.51,3.51,0,0,1,2.78,1.16,5.12,5.12,0,0,1,1,3.56h-5.22a2.07,2.07,0,0,0,.5,1.44,1.59,1.59,0,0,0,1.2.52,1.29,1.29,0,0,0,.83-.27A1.67,1.67,0,0,0,264.72,273.7Zm.12-2.11a2,2,0,0,0-.47-1.37,1.4,1.4,0,0,0-1.08-.48,1.46,1.46,0,0,0-1.13.5,2,2,0,0,0-.44,1.35Z"/><path class="cls-11" d="M267.87,274l2.1-.32a1.55,1.55,0,0,0,.54.92,1.82,1.82,0,0,0,1.14.32,2.07,2.07,0,0,0,1.22-.3.67.67,0,0,0,.27-.56.54.54,0,0,0-.15-.39,1.55,1.55,0,0,0-.69-.27,11,11,0,0,1-3.2-1,2,2,0,0,1-.94-1.77,2.16,2.16,0,0,1,.81-1.72,3.76,3.76,0,0,1,2.51-.7,4.27,4.27,0,0,1,2.4.53,2.69,2.69,0,0,1,1.09,1.55l-2,.37a1.2,1.2,0,0,0-.48-.71,1.76,1.76,0,0,0-1-.24,2.18,2.18,0,0,0-1.18.23.49.49,0,0,0-.24.42.47.47,0,0,0,.21.38,7.69,7.69,0,0,0,1.94.58,6,6,0,0,1,2.33.93,1.91,1.91,0,0,1,.65,1.55,2.37,2.37,0,0,1-.9,1.86,4,4,0,0,1-2.68.78,4.38,4.38,0,0,1-2.55-.65A3.07,3.07,0,0,1,267.87,274Z"/><path d="M150.08,92.17c0-.18,0-.63-.66-.63h-.48v-.42h3.88c2.49,0,2.94,1.21,2.94,2,0,1.17-.94,1.74-1.95,2.1l.36.07a2.18,2.18,0,0,1,2,2.09c0,2.06-2,2.53-3.63,2.53h-3.62v-.42h.5c.38,0,.64-.15.64-.6Zm1.23-.63c-.56,0-.62.34-.62.63v2.88h1.47c1.24,0,3-.48,3-2,0-.76-.55-1.54-2.32-1.54Zm-.62,3.93v3.38c0,.46.15.6.66.6h1.21c2.36,0,3-1.14,3-2.11a1.47,1.47,0,0,0-.48-1.15,4.26,4.26,0,0,0-2.49-.72Z"/><path d="M161.82,99.1c0,.3.28.4.52.4h.54v.37H161.2V99a2.63,2.63,0,0,1-1.95,1c-.8,0-1.43-.47-1.43-1.61v-3a.27.27,0,0,0-.11-.24,1.93,1.93,0,0,0-.81-.08v-.37a3.42,3.42,0,0,0,1.53-.48V98c0,.57.08,1.54,1,1.54a2.33,2.33,0,0,0,1.42-.68l.33-.38V95.37a.28.28,0,0,0-.23-.3l-.69,0v-.37a3.49,3.49,0,0,0,1.54-.48Z"/><path d="M165,98.4c0,.72.06,1.18.73,1.18.31,0,.72-.26,1.2-.8l.27.25c-.59.63-.91.93-1.63.93-1,0-1.18-.83-1.18-1.56V94.69h-1.09v-.37c1.11,0,1.37-.74,1.37-2.54H165v2.54h1.67v.37H165Z"/><path d="M169.35,98.4c0,.72.06,1.18.74,1.18.31,0,.72-.26,1.19-.8l.27.25c-.59.63-.91.93-1.63.93-1,0-1.18-.83-1.18-1.56V94.69h-1.09v-.37c1.12,0,1.37-.74,1.37-2.54h.33v2.54H171v.37h-1.67Z"/><path d="M172.86,96.87v.28A2.43,2.43,0,0,0,175,99.73c.93,0,1.44-.63,2-1.38l.32.21c-1,1.22-1.46,1.54-2.43,1.54a2.72,2.72,0,0,1-2.62-2.95c0-1.88,1.24-3.09,2.5-3.09a2.56,2.56,0,0,1,2.41,2.81Zm3.68-.37a2.48,2.48,0,0,0-.54-1.57,1.59,1.59,0,0,0-1.25-.5c-.91,0-1.69.85-1.87,2.07Z"/><path d="M178.8,95.34c0-.25-.18-.33-1-.33v-.37a3.76,3.76,0,0,0,1.57-.44v1.17a2.54,2.54,0,0,1,1.9-1.17c.4,0,.92.08.92.68a.36.36,0,0,1-.41.36.57.57,0,0,1-.48-.24.58.58,0,0,0-.49-.21c-.54,0-1.06.49-1.44,1.35V99c0,.38.1.49.44.49h.45v.37h-2.44V99.5c.7,0,.94,0,.94-.49Z"/><path d="M184.66,99c0,.37.15.55.53.55h.7v.37h-3.06V99.5h.68c.39,0,.54-.2.54-.55V94.61h-1.57v-.37h1.57v-.52a3.8,3.8,0,0,1,.48-2.09,1.45,1.45,0,0,1,1.24-.6c.8,0,1.74.43,1.74,1.33a.36.36,0,0,1-.37.35.38.38,0,0,1-.39-.36V92.1c0-.35-.29-.72-1-.72s-1.12.55-1.12,1.84v1h1.65v.37h-1.65Z"/><path d="M188.07,92.23c0-.12,0-.2-.07-.25a2.05,2.05,0,0,0-.84-.08v-.38a3.21,3.21,0,0,0,1.53-.49V99c0,.28.05.53.41.53h.8v.37h-3V99.5h.71c.48,0,.49-.31.49-.53Z"/><path d="M191.36,95.13c-.21-.47-.39-.47-.93-.47v-.38h2.25v.38h-.53c-.15,0-.22.06-.22.16a.53.53,0,0,0,.07.25l1.69,3.73,1.75-3.7a.6.6,0,0,0,.06-.23c0-.14-.11-.21-.31-.21h-.54v-.38H197v.38h-.45a.74.74,0,0,0-.75.43l-2.17,4.66c-.46,1-1.07,1.42-1.65,1.42-.38,0-.85-.18-.85-.6a.37.37,0,0,1,.37-.4.82.82,0,0,1,.45.17.61.61,0,0,0,.35.14,1,1,0,0,0,.91-.63l.16-.36Z"/><path d="M201.3,96.87v.28a2.43,2.43,0,0,0,2.13,2.58c.93,0,1.44-.63,2-1.38l.31.21c-.94,1.22-1.45,1.54-2.42,1.54a2.72,2.72,0,0,1-2.62-2.95c0-1.88,1.24-3.09,2.5-3.09a2.56,2.56,0,0,1,2.41,2.81ZM205,96.5a2.48,2.48,0,0,0-.54-1.57,1.59,1.59,0,0,0-1.25-.5c-.91,0-1.69.85-1.87,2.07Z"/><path d="M208.59,99c0,.37.15.55.53.55h.7v.37h-3.06V99.5h.68A.48.48,0,0,0,208,99V94.61h-1.57v-.37H208v-.52a3.8,3.8,0,0,1,.48-2.09,1.45,1.45,0,0,1,1.24-.6c.8,0,1.74.43,1.74,1.33a.36.36,0,0,1-.38.35.38.38,0,0,1-.38-.36V92.1c0-.35-.29-.72-1-.72s-1.12.55-1.12,1.84v1h1.65v.37h-1.65Z"/><path d="M212.86,99c0,.37.15.55.53.55h.7v.37H211V99.5h.68c.39,0,.54-.2.54-.55V94.61h-1.57v-.37h1.57v-.52a3.8,3.8,0,0,1,.48-2.09A1.45,1.45,0,0,1,214,91c.8,0,1.74.43,1.74,1.33a.36.36,0,0,1-.38.35.38.38,0,0,1-.38-.36V92.1c0-.35-.29-.72-1-.72s-1.12.55-1.12,1.84v1h1.65v.37h-1.65Z"/><path d="M215.77,96.87v.28a2.43,2.43,0,0,0,2.13,2.58c.93,0,1.44-.63,2-1.38l.32.21c-1,1.22-1.46,1.54-2.43,1.54a2.72,2.72,0,0,1-2.62-2.95c0-1.88,1.24-3.09,2.5-3.09a2.56,2.56,0,0,1,2.41,2.81Zm3.68-.37a2.48,2.48,0,0,0-.54-1.57,1.59,1.59,0,0,0-1.25-.5c-.91,0-1.69.85-1.87,2.07Z"/><path d="M226.13,98.55a2.7,2.7,0,0,1-2.35,1.56c-1.63,0-2.7-1.27-2.7-3.08a2.83,2.83,0,0,1,2.9-3,1.83,1.83,0,0,1,1.93,1.62c0,.15-.1.34-.4.34a.35.35,0,0,1-.38-.36s0-.3,0-.36a1.1,1.1,0,0,0-1.19-.87,2.29,2.29,0,0,0-2.21,2.4c0,2.47,1.59,2.84,2.17,2.84.77,0,1.27-.46,1.88-1.34Z"/><path d="M228.55,98.4c0,.72.06,1.18.73,1.18.31,0,.72-.26,1.2-.8l.26.25c-.58.63-.91.93-1.63.93-1,0-1.17-.83-1.17-1.56V94.69h-1.09v-.37c1.11,0,1.36-.74,1.36-2.54h.34v2.54h1.67v.37h-1.67Z"/></g></g></svg>