<svg xmlns="http://www.w3.org/2000/svg" viewBox="0 0 320.34 178.09"><defs><style>.cls-2{fill:#e9506c}.cls-3,.cls-6{fill:#fff}.cls-4{fill:#001d2f}.cls-6,.cls-9{stroke:#fff}.cls-6,.cls-8,.cls-9{stroke-linecap:round;stroke-linejoin:round;stroke-width:.98px}.cls-7{fill:#c9caca}.cls-8,.cls-9{fill:none}.cls-8{stroke:#2667b2}.cls-10{fill:#f5a117}</style></defs><g id="Layer_2" data-name="Layer 2"><g id="圖層_1" data-name="圖層 1"><path d="M162.09 10.39H162a1.86 1.86 0 0 1-.62-.13 2.74 2.74 0 0 0-1.06-.19h-.07a1.68 1.68 0 0 1-.28-.23 6.84 6.84 0 0 0-.67-.57c-.11-.09-.23-.17-.36-.26a4.69 4.69 0 0 1-1-.85 6.45 6.45 0 0 1-.94-1.47 4.42 4.42 0 0 1-.31-.93v-.34a6.26 6.26 0 0 0-.1-1.2 5.74 5.74 0 0 1-.09-1 .49.49 0 0 0-.49-.49.49.49 0 0 0-.49.49v2.42a7.27 7.27 0 0 1-.39 1c-.06.13-.12.27-.17.4a4.75 4.75 0 0 1-.62 1.17 6.57 6.57 0 0 1-1.16 1l-.53.41a3.87 3.87 0 0 1-.66.45l-1.58-.05h-.31a.49.49 0 0 0-.49.49.5.5 0 0 0 .48.5h.28c.22 0 .36 0 .53.08a3.24 3.24 0 0 0 .59.1.51.51 0 0 0 .3 0 2.68 2.68 0 0 1 .7.45l.47.37.06.05a7.14 7.14 0 0 1 1.25 1.12 6.53 6.53 0 0 1 .89 1.49 6.33 6.33 0 0 1 .39 1.34 6.7 6.7 0 0 0 .08 1.1 5 5 0 0 1 .07.9v.16a.49.49 0 0 0 .49.49.49.49 0 0 0 .49-.49v-2.18a7.41 7.41 0 0 1 .43-1.29l.05-.11a6.41 6.41 0 0 1 .77-1.43 8.34 8.34 0 0 1 1.2-1.16 3.34 3.34 0 0 1 1-.6h1.97a.49.49 0 0 0 0-1z" fill="#2667b2"/><path class="cls-2" d="M40.76 75.9h-.08a1.34 1.34 0 0 1-.39-.08 2.09 2.09 0 0 0-.79-.14l-.14-.12a5.68 5.68 0 0 0-.48-.41l-.26-.15a3.32 3.32 0 0 1-.67-.57 4.46 4.46 0 0 1-.64-1 3.11 3.11 0 0 1-.2-.61v-.22a5 5 0 0 0-.11-.9 3.68 3.68 0 0 1 0-.7.49.49 0 0 0-.49-.49.48.48 0 0 0-.51.49v1.7a4.9 4.9 0 0 1-.26.68l-.12.28a3.33 3.33 0 0 1-.41.78 4.74 4.74 0 0 1-.79.71l-.38.29a2.77 2.77 0 0 1-.4.28h-1.29a.49.49 0 0 0-.49.49.48.48 0 0 0 .48.49h.19a2.75 2.75 0 0 1 .34 0l.41.07a.45.45 0 0 0 .23 0 1.92 1.92 0 0 1 .42.28l.37.29a5.06 5.06 0 0 1 .85.77 4 4 0 0 1 .61 1 4.31 4.31 0 0 1 .26.89 4.45 4.45 0 0 0 .06.78v.73a.48.48 0 0 0 .49.48.49.49 0 0 0 .49-.49v-1.45a4.73 4.73 0 0 1 .29-.86v-.07a4.85 4.85 0 0 1 .52-1 6.37 6.37 0 0 1 .84-.88 2.17 2.17 0 0 1 .66-.39h1.27a.49.49 0 1 0 0-1z"/><path class="cls-3" d="M54.53 62h-.11a1.48 1.48 0 0 1-.51-.11 2.9 2.9 0 0 0-1.06-.19 2 2 0 0 1-.19-.16A6 6 0 0 0 52 61l-.34-.26a4.27 4.27 0 0 1-.89-.75 5.78 5.78 0 0 1-.85-1.33 3.85 3.85 0 0 1-.27-.81v-.29a5.7 5.7 0 0 0-.1-1.16 4.93 4.93 0 0 1-.08-.94.66.66 0 0 0-.65-.66.67.67 0 0 0-.66.66v2.27a5.72 5.72 0 0 1-.35.9c0 .13-.11.26-.16.38a4.46 4.46 0 0 1-.54 1.05 6.09 6.09 0 0 1-1.06.93l-.5.39a3.53 3.53 0 0 1-.53.37H43.3a.66.66 0 0 0-.66.65.66.66 0 0 0 .64.66h.25a2.76 2.76 0 0 1 .47.07 4.3 4.3 0 0 0 .54.09.61.61 0 0 0 .3 0 2.16 2.16 0 0 1 .56.37l.5.39a7.09 7.09 0 0 1 1.14 1 6.27 6.27 0 0 1 .81 1.35 6.16 6.16 0 0 1 .34 1.19 6 6 0 0 0 .08 1 5.17 5.17 0 0 1 .06.81v.15a.66.66 0 0 0 .66.65.65.65 0 0 0 .65-.65v-2a6.45 6.45 0 0 1 .36-1.1v-.1a5.65 5.65 0 0 1 .76-1.28 7.38 7.38 0 0 1 1.13-1.17 2.63 2.63 0 0 1 .87-.53h1.75a.66.66 0 0 0 .66-.66.65.65 0 0 0-.64-.64z"/><path class="cls-4" d="M225.73 33.39h-.08a.9.9 0 0 1-.39-.08 2.09 2.09 0 0 0-.79-.14l-.14-.12a4.4 4.4 0 0 0-.48-.41l-.26-.19a3.21 3.21 0 0 1-.66-.56 4.55 4.55 0 0 1-.65-1 3.11 3.11 0 0 1-.2-.61v-.22a4.11 4.11 0 0 0-.08-.87 3.68 3.68 0 0 1-.06-.7.49.49 0 0 0-.49-.49.49.49 0 0 0-.49.49v1.7a4.47 4.47 0 0 1-.26.68l-.12.28a3.41 3.41 0 0 1-.41.79 4.67 4.67 0 0 1-.79.7l-.37.29a2.73 2.73 0 0 1-.41.28h-1.29a.49.49 0 0 0-.49.49.5.5 0 0 0 .48.5h.19a2.66 2.66 0 0 1 .35.05 2.63 2.63 0 0 0 .41.07.54.54 0 0 0 .22 0 1.4 1.4 0 0 1 .42.28c.09.06.19.15.37.29a5 5 0 0 1 .86.76 4.73 4.73 0 0 1 .6 1 3.77 3.77 0 0 1 .26.89 4.58 4.58 0 0 0 .06.79 4 4 0 0 1 .05.61v.11a.49.49 0 0 0 .49.49.49.49 0 0 0 .49-.49v-1.5a4.61 4.61 0 0 1 .29-.87v-.07a4 4 0 0 1 .52-1 5.33 5.33 0 0 1 .84-.87 2 2 0 0 1 .66-.4h1.28a.5.5 0 1 0 0-1z"/><path d="M108.06 23.24h-.12a1.67 1.67 0 0 1-.55-.11 2.83 2.83 0 0 0-1.11-.2 1.3 1.3 0 0 1-.19-.17c-.15-.13-.33-.31-.68-.58l-.37-.26a4.8 4.8 0 0 1-.94-.8 6.62 6.62 0 0 1-.91-1.41 5.39 5.39 0 0 1-.28-.86v-.31a6.39 6.39 0 0 0-.1-1.23 4.65 4.65 0 0 1-.09-1 .69.69 0 0 0-.69-.69.71.71 0 0 0-.7.69v2.41a5.53 5.53 0 0 1-.37 1c0 .13-.11.27-.17.4a5 5 0 0 1-.57 1.11 6.86 6.86 0 0 1-1.12 1l-.53.41A3.21 3.21 0 0 1 98 23h-1.82a.69.69 0 1 0 0 1.38h.27a2.28 2.28 0 0 1 .49.08 4.79 4.79 0 0 0 .58.09.63.63 0 0 0 .31.05 2.24 2.24 0 0 1 .6.4l.52.41a6.71 6.71 0 0 1 1.21 1.08 6 6 0 0 1 .86 1.43 5.78 5.78 0 0 1 .36 1.26 7.44 7.44 0 0 0 .09 1.1 7.41 7.41 0 0 1 .07.87v.16a.68.68 0 0 0 .69.68.69.69 0 0 0 .7-.69v-2.13a6.86 6.86 0 0 1 .41-1.22v-.11a6.47 6.47 0 0 1 .73-1.37 8.17 8.17 0 0 1 1.19-1.23 2.9 2.9 0 0 1 .93-.56h1.85a.71.71 0 0 0 .7-.7.7.7 0 0 0-.68-.74z" fill="#633a7c"/><path class="cls-6" d="M188.38 27.25c-.63 0-.63-.22-1.25-.22H187a9.13 9.13 0 0 1-.78-.64 5.27 5.27 0 0 1-1-.83 4.91 4.91 0 0 1-.71-1.11 4.32 4.32 0 0 1-.25-.77 2.09 2.09 0 0 0 0-.26c0-.79-.13-.79-.13-1.57v1.77a5 5 0 0 1-.31.81 5 5 0 0 1-.59 1.18 5.55 5.55 0 0 1-1 .87 3.84 3.84 0 0 1-.84.58L180 27c.58 0 .63.12 1.12.14h.06a3.75 3.75 0 0 1 1 .66 5.94 5.94 0 0 1 1 .88 5 5 0 0 1 .68 1.13 4.73 4.73 0 0 1 .3 1c0 .76.11.77.11 1.54v-1.48a4.88 4.88 0 0 1 .33-1 5.23 5.23 0 0 1 .62-1.15 6.46 6.46 0 0 1 .92-.95 2.68 2.68 0 0 1 .91-.52zM214.67 10.94c-1.21 0-1.21-.43-2.42-.43H212a15.08 15.08 0 0 1-1.53-1.23 10.68 10.68 0 0 1-1.94-1.62 9.37 9.37 0 0 1-1.38-2.14 7.85 7.85 0 0 1-.49-1.52v-.5c0-1.53-.26-1.53-.26-3v3.43a8.92 8.92 0 0 1-.59 1.56 10 10 0 0 1-1.15 2.29 11.31 11.31 0 0 1-1.93 1.7 7.26 7.26 0 0 1-1.64 1.11l-2.7-.07c1.11 0 1.21.23 2.17.26v.05h.17a6.9 6.9 0 0 1 1.92 1.28 10.78 10.78 0 0 1 1.89 1.7 9.41 9.41 0 0 1 1.31 2.17 9 9 0 0 1 .58 2c0 1.47.21 1.49.21 3v-3a10.24 10.24 0 0 1 .64-2 9.93 9.93 0 0 1 1.21-2.24 11.24 11.24 0 0 1 1.79-1.84 5 5 0 0 1 1.75-1z"/><path class="cls-3" d="M131.38 68.34h-59.8l3.22-11.48h51.04l5.54 11.48z"/><path class="cls-7" d="M71.62 68.34l-1.2 2.5 1.2 1.08.72 1.86-.72 1.71.95 2.13-.95 1.45-1.2 1.6 1.2 1.97-1.05 1.65.9 1.65 44.93-17.6H71.62z"/><path class="cls-4" d="M131.34 71.92v-3.58H116.4l-44.93 17.6.15.28-.71 1.69.41 1.09h60.56l.62-1.7-.75-1.84.75-1.37-1.16-1.45 1.16-1.51-1.16-2.06.71-1.56-.71-2.02 1.16-1.83-1.16-1.74z"/><path class="cls-3" d="M71.09 70.79a.49.49 0 0 0 0 1h35.85l2.42-1z"/><path class="cls-7" d="M131.34 70.79h-22l-2.42 1h24.4a.49.49 0 1 0 0-1z"/><path class="cls-3" d="M71.9 74.33a.5.5 0 0 0 0 1h26.31l2.42-1z"/><path class="cls-7" d="M131.34 74.33h-30.71l-2.42 1h33.13a.5.5 0 0 0 0-1z"/><path class="cls-3" d="M72.57 77.88a.49.49 0 0 0 0 1h16.91l2.42-1z"/><path class="cls-7" d="M131.34 77.88H91.9l-2.42 1h41.86a.49.49 0 1 0 0-1z"/><path class="cls-3" d="M71.53 81.42a.5.5 0 0 0 0 1h9.22l2.42-1z"/><path class="cls-7" d="M131.34 81.42H83.17l-2.42 1h50.59a.5.5 0 0 0 0-1z"/><path class="cls-3" d="M71.21 85a.49.49 0 1 0 0 1H72l2.42-1z"/><path class="cls-7" d="M131.34 85h-56.9L72 86h59.32a.49.49 0 1 0 0-1z"/><path class="cls-8" d="M71.32 89.01h60.02"/><path class="cls-3" d="M107.72 68.45H94.69v8.03l13.03-4.85v-3.18z"/><path class="cls-7" d="M94.69 76.48V89h13.03V71.63l-13.03 4.85zM107.72 68.34H94.69l1.14-11.48h10.75l1.14 11.48z"/><path class="cls-3" d="M176.17 68.34h59.79l-3.21-11.48H181.7l-5.53 11.48z"/><path class="cls-7" d="M235.92 68.34l1.21 2.5-1.21 1.08-.72 1.86.72 1.71-.94 2.13.94 1.45 1.21 1.6-1.21 1.97 1.06 1.65-.91 1.65-44.92-17.6h44.77z"/><path class="cls-4" d="M176.2 71.92v-3.58h14.95l44.92 17.6-.15.28.72 1.69-.42 1.09h-60.55l-.63-1.7.75-1.84-.75-1.37 1.16-1.45-1.16-1.51 1.16-2.06-.7-1.56.7-2.02-1.16-1.83 1.16-1.74z"/><path class="cls-3" d="M236.46 70.79a.49.49 0 1 1 0 1H200.6l-2.42-1z"/><path class="cls-7" d="M176.2 70.79h22l2.42 1H176.2a.49.49 0 1 1 0-1z"/><path class="cls-3" d="M235.64 74.33a.5.5 0 1 1 0 1h-26.31l-2.42-1z"/><path class="cls-7" d="M176.2 74.33h30.71l2.42 1H176.2a.5.5 0 0 1 0-1z"/><path class="cls-3" d="M235 77.88a.49.49 0 1 1 0 1h-16.94l-2.42-1z"/><path class="cls-7" d="M176.2 77.88h39.44l2.42 1H176.2a.49.49 0 1 1 0-1z"/><path class="cls-3" d="M236 81.42a.5.5 0 0 1 0 1h-9.23l-2.42-1z"/><path class="cls-7" d="M176.2 81.42h48.17l2.42 1H176.2a.5.5 0 0 1 0-1z"/><path class="cls-3" d="M236.34 85a.49.49 0 0 1 0 1h-.82l-2.42-1z"/><path class="cls-7" d="M176.2 85h56.9l2.42 1H176.2a.49.49 0 1 1 0-1z"/><path class="cls-8" d="M236.22 89.01H176.2"/><path class="cls-3" d="M199.82 68.45h13.04v8.03l-13.04-4.85v-3.18z"/><path class="cls-7" d="M212.86 76.48V89h-13.04V71.63l13.04 4.85zM199.82 68.34h13.04l-1.14-11.48h-10.75l-1.15 11.48z"/><path class="cls-3" d="M184.17 51.61h-59.79l3.21-11.48h51.05l5.53 11.48z"/><path class="cls-7" d="M124.42 51.61l-1.2 2.49 1.2 1.08.72 1.86-.72 1.72.94 2.13-.94 1.44-1.2 1.61 1.2 1.97-1.06 1.65 1.06 1.92-.72 1.7.72 1.88-1.17 1.78 1.17 1.79-1.17 1.79 1.17 1.79-1.17 1.79 1.17 1.79-1.17 1.79 1.17 1.79-1.17 1.79h62.08l-1.19-1.79 1.19-1.79-1.19-1.79 1.19-1.79-1.19-1.79 1.19-1.79-1.19-1.79 1.19-1.79-1.19-1.78.97-1.43-.97-2.15.74-1.28-.74-2.29 1.16-1.52-1.16-2.06.7-1.56-.7-2.01 1.16-1.83-1.16-1.75V51.61h-59.72z"/><path class="cls-9" d="M123.88 54.55h60.26M124.7 58.09h59.44M125.36 61.64h58.78M124.32 65.18h59.82M124 68.73h60.14M124.12 72.27h60.02M124.12 75.82h60.02M123.86 79.36h60.28M124.12 82.9h60.02M123.86 86.45h60.28"/><path class="cls-3" d="M147.48 51.72h13.04v37.7h-13.04z"/><path class="cls-7" d="M160.52 51.61h-13.04l1.15-11.48h10.74l1.15 11.48z"/><path class="cls-10" d="M116.59 62.23c0 1.2-2.35 2.18-5.25 2.18s-5.25-1-5.25-2.18v-2.18h10.5z"/><ellipse class="cls-3" cx="111.34" cy="60.05" rx="5.25" ry="2.18"/><path class="cls-10" d="M116.59 59.18c0 1.2-2.35 2.18-5.25 2.18s-5.25-1-5.25-2.18V57h10.5z"/><ellipse class="cls-3" cx="111.34" cy="57" rx="5.25" ry="2.18"/><path class="cls-2" d="M116.59 56.13c0 1.2-2.35 2.18-5.25 2.18s-5.25-1-5.25-2.18V54h10.5z"/><ellipse class="cls-3" cx="111.34" cy="53.95" rx="5.25" ry="2.18"/><path class="cls-2" d="M118.45 52.19c0 1.21-2.35 2.18-5.25 2.18s-5.25-1-5.25-2.18V50h10.5z"/><ellipse class="cls-3" cx="113.2" cy="50.01" rx="5.25" ry="2.18"/><path class="cls-10" d="M101.24 62.23c0 1.2-2.34 2.18-5.24 2.18s-5.25-1-5.25-2.18v-2.18h10.49z"/><ellipse class="cls-3" cx="96" cy="60.05" rx="5.25" ry="2.18"/><path class="cls-10" d="M101.24 59.18c0 1.2-2.34 2.18-5.24 2.18s-5.25-1-5.25-2.18V57h10.49z"/><ellipse class="cls-3" cx="96" cy="57" rx="5.25" ry="2.18"/><path class="cls-2" d="M101.24 56.13c0 1.2-2.34 2.18-5.24 2.18s-5.25-1-5.25-2.18V54h10.49z"/><ellipse class="cls-3" cx="96" cy="53.95" rx="5.25" ry="2.18"/><path class="cls-2" d="M101.24 53.1c0 1.21-2.34 2.18-5.24 2.18s-5.25-1-5.25-2.18v-2.17h10.49z"/><ellipse class="cls-3" cx="96" cy="50.93" rx="5.25" ry="2.18"/><path class="cls-10" d="M68.08 88.33c0 1.21-2.35 2.18-5.25 2.18s-5.25-1-5.25-2.18v-2.17h10.5z"/><ellipse class="cls-3" cx="62.83" cy="86.16" rx="5.25" ry="2.18"/><path class="cls-2" d="M66.92 84.67c0 1.2-2.35 2.18-5.24 2.18s-5.25-1-5.25-2.18v-2.18h10.49z"/><ellipse class="cls-3" cx="61.68" cy="82.49" rx="5.25" ry="2.18"/><path class="cls-2" d="M68.71 80.84c0 1.2-2.35 2.18-5.25 2.18s-5.25-1-5.25-2.18v-2.18h10.5z"/><ellipse class="cls-3" cx="63.46" cy="78.66" rx="5.25" ry="2.18"/><path class="cls-2" d="M68.71 77.57c0 1.2-2.35 2.18-5.25 2.18s-5.25-1-5.25-2.18v-2.18h10.5z"/><ellipse class="cls-3" cx="63.46" cy="75.39" rx="5.25" ry="2.18"/><path class="cls-2" d="M68.71 74.3c0 1.21-2.35 2.18-5.25 2.18s-5.25-1-5.25-2.18v-2.17h10.5z"/><ellipse class="cls-3" cx="63.46" cy="72.13" rx="5.25" ry="2.18"/><path class="cls-10" d="M143.53 45.93c0 1.21-2.35 2.18-5.25 2.18s-5.25-1-5.25-2.18v-2.17h10.5z"/><ellipse class="cls-3" cx="138.28" cy="43.76" rx="5.25" ry="2.18"/><path class="cls-10" d="M142.31 42.3c0 1.21-2.35 2.18-5.25 2.18s-5.25-1-5.25-2.18v-2.17h10.5z"/><ellipse class="cls-3" cx="137.06" cy="40.13" rx="5.25" ry="2.18"/><path class="cls-2" d="M143.53 39c0 1.2-2.35 2.17-5.25 2.17S133 40.24 133 39v-2.14h10.5z"/><ellipse class="cls-3" cx="138.28" cy="36.86" rx="5.25" ry="2.18"/><path class="cls-2" d="M143.53 35.77c0 1.2-2.35 2.18-5.25 2.18S133 37 133 35.77v-2.18h10.5z"/><ellipse class="cls-3" cx="138.28" cy="33.59" rx="5.25" ry="2.18"/><path class="cls-2" d="M143.53 32.5c0 1.2-2.35 2.18-5.25 2.18S133 33.7 133 32.5v-2.18h10.5z"/><ellipse class="cls-3" cx="138.28" cy="30.32" rx="5.25" ry="2.18"/><path class="cls-2" d="M141.77 29.09c0 1.21-2.35 2.18-5.25 2.18s-5.25-1-5.25-2.18v-2.18h10.5z"/><ellipse class="cls-3" cx="136.52" cy="26.91" rx="5.25" ry="2.18"/><path class="cls-10" d="M168.79 45.57c0 1.2-2.35 2.18-5.25 2.18s-5.25-1-5.25-2.18v-2.18h10.5z"/><ellipse class="cls-3" cx="163.54" cy="43.39" rx="5.25" ry="2.18"/><path class="cls-10" d="M169.71 42.67c0 1.2-2.35 2.18-5.25 2.18s-5.25-1-5.25-2.18v-2.18h10.5z"/><ellipse class="cls-3" cx="164.46" cy="40.49" rx="5.25" ry="2.18"/><path class="cls-2" d="M167.42 39.4c0 1.2-2.35 2.18-5.24 2.18s-5.25-1-5.25-2.18v-2.18h10.49z"/><ellipse class="cls-3" cx="162.18" cy="37.22" rx="5.25" ry="2.18"/><path class="cls-2" d="M167.42 36.13c0 1.21-2.35 2.18-5.24 2.18s-5.25-1-5.25-2.18V34h10.49z"/><ellipse class="cls-3" cx="162.18" cy="33.95" rx="5.25" ry="2.18"/><path class="cls-2" d="M167.42 32.86c0 1.21-2.35 2.18-5.24 2.18s-5.25-1-5.25-2.18v-2.17h10.49z"/><ellipse class="cls-3" cx="162.18" cy="30.69" rx="5.25" ry="2.18"/><path class="cls-10" d="M200.31 62.78c0 1.2-2.35 2.18-5.25 2.18s-5.25-1-5.25-2.18V60.6h10.5z"/><ellipse class="cls-3" cx="195.06" cy="60.6" rx="5.25" ry="2.18"/><path class="cls-10" d="M201.48 60.43c0 1.2-2.35 2.18-5.25 2.18s-5.25-1-5.25-2.18v-2.18h10.5z"/><ellipse class="cls-3" cx="196.23" cy="58.25" rx="5.25" ry="2.18"/><path class="cls-10" d="M199.43 57.16c0 1.21-2.35 2.18-5.25 2.18s-5.25-1-5.25-2.18V55h10.5z"/><ellipse class="cls-3" cx="194.18" cy="54.98" rx="5.25" ry="2.18"/><path class="cls-2" d="M201.48 53.9c0 1.2-2.35 2.17-5.25 2.17S191 55.1 191 53.9v-2.18h10.5z"/><ellipse class="cls-3" cx="196.23" cy="51.72" rx="5.25" ry="2.18"/><path class="cls-2" d="M200.31 50.63c0 1.2-2.35 2.18-5.25 2.18s-5.25-1-5.25-2.18v-2.18h10.5z"/><ellipse class="cls-3" cx="195.06" cy="48.45" rx="5.25" ry="2.18"/><path class="cls-10" d="M218.47 62.73c0 1.2-2.35 2.17-5.24 2.17s-5.25-1-5.25-2.17v-2.18h10.49z"/><ellipse class="cls-3" cx="213.23" cy="60.55" rx="5.25" ry="2.18"/><path class="cls-2" d="M219.76 59.51c0 1.21-2.35 2.18-5.24 2.18s-5.25-1-5.25-2.18v-2.17h10.49z"/><ellipse class="cls-3" cx="214.52" cy="57.34" rx="5.25" ry="2.18"/><path class="cls-2" d="M219.76 56.42c0 1.21-2.35 2.18-5.24 2.18s-5.25-1-5.25-2.18v-2.17h10.49z"/><ellipse class="cls-3" cx="214.52" cy="54.25" rx="5.25" ry="2.18"/><path class="cls-2" d="M219.76 53.33c0 1.21-2.35 2.18-5.24 2.18s-5.25-1-5.25-2.18v-2.18h10.49z"/><ellipse class="cls-3" cx="214.52" cy="51.15" rx="5.25" ry="2.18"/><path class="cls-10" d="M250.65 88.33c0 1.21-2.35 2.18-5.25 2.18s-5.25-1-5.25-2.18v-2.17h10.5z"/><ellipse class="cls-3" cx="245.4" cy="86.16" rx="5.25" ry="2.18"/><path class="cls-2" d="M251.46 84.11c0 1.2-2.35 2.17-5.24 2.17s-5.25-1-5.25-2.17v-2.18h10.49z"/><ellipse class="cls-3" cx="246.22" cy="81.93" rx="5.25" ry="2.18"/><path class="cls-2" d="M248.24 80.84c0 1.2-2.35 2.18-5.25 2.18s-5.25-1-5.25-2.18v-2.18h10.5z"/><ellipse class="cls-3" cx="242.99" cy="78.66" rx="5.25" ry="2.18"/><path class="cls-2" d="M250.65 77.57c0 1.2-2.35 2.18-5.25 2.18s-5.25-1-5.25-2.18v-2.18h10.5z"/><ellipse class="cls-3" cx="245.4" cy="75.39" rx="5.25" ry="2.18"/><path class="cls-2" d="M250.65 74.3c0 1.21-2.35 2.18-5.25 2.18s-5.25-1-5.25-2.18v-2.17h10.5z"/><ellipse class="cls-3" cx="245.4" cy="72.13" rx="5.25" ry="2.18"/><path class="cls-2" d="M250.65 71c0 1.2-2.35 2.17-5.25 2.17s-5.25-1-5.25-2.17v-2.14h10.5z"/><ellipse class="cls-3" cx="245.4" cy="68.86" rx="5.25" ry="2.18"/><path class="cls-10" d="M225.65 63c-.77.93-3.2.16-5.41-1.71s-3.39-4.12-2.62-5l1.38-1.74 8 6.76z"/><ellipse class="cls-3" cx="223.04" cy="57.93" rx="2.18" ry="5.25" transform="rotate(-49.91 223.045 57.927)"/><path class="cls-10" d="M280.28 178.07c-2 0-2-.29-3.94-.29s-2-.17-3.93-.17h-3.94c-2 0-2 .27-3.94.27s-2-.43-3.94-.43-2-.34-3.94-.34-2 .19-3.94.19-2 .66-3.94.66-2-.78-3.93-.78-2 .25-3.94.25-2 .63-3.94.63-2-.92-3.94-.92-2 .82-3.94.82-2-.16-3.94-.16-2-.15-3.94-.15-2 .23-3.93.23-2-.77-3.94-.77-2 1-3.93 1-2-.12-3.94-.12-2-.48-3.93-.48-2 .49-3.94.49-2-.15-3.94-.15-2 .24-3.94.24-2-.69-3.93-.69-2 .25-3.94.25-2 .39-3.94.39h-3.94c-1.94 0-2-.88-3.94-.88h-3.94c-1.94 0-2 .57-3.93.57s-2-.1-3.94-.1-2-.06-3.94-.06-2-.35-3.94-.35-2 .29-3.94.29h-3.94c-2 0-2 .09-3.94.09s-2 .49-3.94.49-2-.76-3.94-.76-2 .66-3.94.66-2-.09-3.94-.09-2-.48-4-.48-2 .05-3.94.05-2-.35-3.94-.35-2 .71-3.94.71-2-.07-3.94-.07-2 .31-3.94.31-2-.12-3.94-.12-2-.43-3.94-.43-2 .25-3.94.25-2-.54-3.94-.54-2 .64-4 .64-2-.2-3.94-.2h-3.94c-1.94 0-2 .24-3.94.24s-2-.08-3.95-.08-2 .22-3.94.22-2-.47-4-.47-2 .07-3.94.07-2-.15-3.95-.15-2-.07-4-.07-2-.17-4-.17c-1.31 0-2.61.33-3.89.2a38.88 38.88 0 0 1-3.92-.27c-1.28-.25-2.35-1.33-3.58-1.7s-2.7-.15-3.9-.64-2.37-1.13-3.51-1.74-2.37-1.16-3.45-1.88-2.25-1.4-3.25-2.23-1.73-2-2.65-2.92-1.49-2.14-2.31-3.15A37.67 37.67 0 0 1 6.84 160c-.72-1.08-1.48-2.16-2.1-3.31s-1.16-2.34-1.66-3.54-.88-2.46-1.26-3.71-.57-2.53-.82-3.81-.62-2.54-.75-3.84 0-2.6 0-3.91H0c0-1.32.63-2.58.76-3.86s-.49-2.72-.24-4 .9-2.5 1.27-3.74a38 38 0 0 1 1.72-3.51c.5-1.21.59-2.6 1.2-3.75s1.31-2.27 2-3.35 1.55-2.11 2.37-3.12 1.94-1.74 2.86-2.66a37.54 37.54 0 0 1 2.83-2.67 35.56 35.56 0 0 1 3.13-2.31c1.07-.72 2-1.66 3.18-2.28s2.26-1.36 3.47-1.86 2.66-.29 3.91-.67a35.49 35.49 0 0 1 3.75-1c1.29-.19 2.49-1.1 3.79-1.24s2.63.27 3.94.27c2 0 2 .28 3.94.28s2 .19 3.94.19 2-.15 3.94-.15h3.94c1.94 0 2 .15 3.94.15s2-.86 3.93-.86 2 .16 3.94.16h3.94c1.94 0 2 .14 3.94.14s2 .43 3.94.43 2-.07 3.94-.07h3.94c2 0 2-.62 3.93-.62s2 .53 3.94.53S97.05 98 99 98s2-.15 3.94-.15 2 .58 3.93.58 2-.44 3.94-.44 2-.13 3.93-.13 2 .79 3.94.79 2-.82 3.94-.82 2 .32 3.94.32 2 .11 3.93.11 2-.07 3.94-.07 2-.16 3.93-.16 2-.09 3.94-.09 2 .48 3.94.48 2-.57 3.94-.57 2 .33 3.94.33 2 .41 3.94.41 2-.82 3.94-.82 2 .68 3.94.68h3.94c2 0 2-.39 3.94-.39h7.88c1.94 0 2-.3 3.94-.3s2 .95 3.94.95h3.94c1.94 0 2-.25 3.94-.25s2-.38 3.94-.38h3.94c1.94 0 2-.07 3.94-.07s2 .28 3.94.28 2-.14 3.95-.14h3.94c1.94 0 2 .22 3.94.22s2-.17 3.94-.17 2 .34 3.94.34 2-.24 3.94-.24 2-.16 3.94-.16 2 .31 3.94.31 2 .27 3.94.27 2-.84 3.95-.84h3.94c1.94 0 2 .18 3.95.18s2 .55 3.94.55 2-.42 3.94-.42 2 .13 3.95.13 2-.33 3.95-.33 2-.1 3.95-.1c1.32 0 2.57.88 3.85 1s2.57.24 3.83.49a37 37 0 0 1 3.86.56c1.25.38 2.44.91 3.64 1.41s2.34 1.1 3.49 1.71 2.42 1 3.49 1.75 2.22 1.42 3.23 2.24 1.74 2 2.66 2.88 1.65 2 2.48 3 1.49 2.09 2.22 3.17 1.56 2.07 2.17 3.21 1.37 2.23 1.87 3.43a39.15 39.15 0 0 1 .9 3.81c.37 1.23.85 2.43 1.11 3.71s.34 2.54.47 3.85.67 2.55.67 3.87h-.6c0 1.31.66 2.64.53 3.93s-.69 2.55-.94 3.81a36.52 36.52 0 0 1-1.06 3.75c-.38 1.25-.47 2.6-1 3.8s-.92 2.47-1.54 3.62a37.75 37.75 0 0 1-2.27 3.2 38.82 38.82 0 0 1-2.12 3.31c-.83 1-1.82 1.9-2.74 2.82s-2.21 1.42-3.22 2.25-1.69 2.08-2.77 2.81-2.17 1.49-3.32 2.11-2.63.54-3.83 1-2.4.91-3.65 1.29-2.47.68-3.75.93-2.47 1-3.77 1.16-2.55.3-3.87.3z"/><path class="cls-4" d="M280.28 167.7c-2 0-2-.33-3.94-.33s-2 .29-3.93.29-2 .14-3.94.14-2-.73-3.94-.73-2 .78-3.94.78-2-.63-3.94-.62-2 .37-3.94.37-2-.26-3.94-.26-2 .44-3.93.44-2 .08-3.94.08-2-.37-3.94-.37-2-.25-3.94-.25-2-.31-3.94-.31-2 .5-3.94.5-2-.1-3.94-.1-2 .06-3.93.06-2-.34-3.94-.34-2 .66-3.93.66-2-.07-3.94-.07-2-.5-3.93-.5-2 .1-3.94.1-2 .49-3.94.49-2-.44-3.94-.44-2-.16-3.93-.16-2 .25-3.94.25h-3.94c-2 0-2 .16-3.94.16s-2 .15-3.94.15-2-.29-3.94-.29h-7.87c-2 0-2 .37-3.94.37s-2-.48-3.94-.48-2 .05-3.94.05-2 .12-3.94.12h-3.94c-1.94 0-2 .24-3.94.24s-2 .24-3.94.24-2-.8-3.94-.8-2 .77-3.94.77-2-.37-4-.37-2 .17-3.94.17-2-.53-3.94-.53-2 .58-3.94.58-2 .16-3.94.16-2-.29-3.94-.29-2-.62-3.94-.62-2 .63-3.94.63h-3.94c-1.94 0-2-.62-3.94-.62s-2 .25-4 .25-2 .59-3.94.59-2-.44-3.94-.44-2 .47-3.94.47-2-.74-3.95-.74-2 .24-3.94.24h-4c-2 0-2 .5-3.94.5s-2-.86-3.95-.86-2 .35-4 .35-2-.39-4-.39a38 38 0 0 1-3.86-.14 37 37 0 0 1-3.82-.55c-1.28-.25-2.55-.43-3.79-.8s-2.53-.62-3.73-1.12a38.86 38.86 0 0 1-3.42-1.86 38.41 38.41 0 0 1-3.25-2.11c-1.08-.72-2.38-1.13-3.38-1.95a37.87 37.87 0 0 1-2.62-2.9c-.92-.92-2.25-1.47-3.07-2.48s-1.27-2.31-2-3.39-1.76-2-2.37-3.13A38.36 38.36 0 0 1 3 143c-.5-1.2-.75-2.51-1.13-3.76s-.22-2.6-.48-3.88-1.12-2.47-1.24-3.77.33-2.61.33-3.92h.15c0-1.32-.42-2.63-.3-3.91s0-2.67.2-3.93.62-2.58 1-3.82 1.62-2.19 2.12-3.38 1.06-2.33 1.67-3.48a38.53 38.53 0 0 1 1.78-3.44c.73-1.08 1-2.51 1.82-3.51s2.29-1.44 3.21-2.36 1.64-2 2.65-2.85 2.27-1.27 3.35-2 1.88-1.88 3-2.5 2.21-1.47 3.41-2 2.7-.18 4-.56a38.56 38.56 0 0 1 3.73-1c1.27-.25 2.47-1.09 3.77-1.22s2.62.1 3.93.1c2 0 2 .49 3.94.49s2-.67 3.94-.67 2 .54 3.94.54 2-.49 3.94-.49 2 .38 3.94.38 2 .17 3.93.17 2-.09 3.94-.09 2-.3 3.94-.3 2 .38 3.94.38 2-.46 3.94-.46h3.94c1.94 0 2-.33 3.94-.33s2 .52 3.93.52 2-.09 3.94-.09H99c2 0 2 .39 3.94.39s2-.34 3.93-.34 2 .37 3.94.37 2-.62 3.93-.62 2 .32 3.94.32 2-.26 3.94-.26 2 .29 3.94.29h3.93c1.93 0 2-.16 3.94-.16s2 .18 3.93.18 2 .15 3.94.15 2-.78 3.94-.78 2 .47 3.94.47 2 .07 3.94.07 2 .35 3.94.35 2-.74 3.94-.74 2 .66 3.94.66 2-.44 3.94-.44 2 .45 3.94.45 2-.8 3.94-.8 2 .36 3.94.36 2 .55 3.94.55 2-.52 3.94-.52 2 .25 3.94.25 2-.53 3.94-.53 2 .73 3.94.73h3.94c1.94 0 2-.82 3.94-.82s2 .45 3.94.45 2 .1 3.95.1 2-.48 3.94-.48 2-.07 3.94-.07 2 1 3.94 1 2-.83 3.94-.83 2-.08 3.94-.08 2-.05 3.94-.05 2 .89 3.94.89 2-.14 3.94-.14 2-.6 3.95-.6 2 .78 3.94.78 2-.27 3.95-.27 2-.6 3.94-.6 2 .68 3.94.68 2-.37 3.95-.37 2 .47 3.95.47 2 .09 3.95.09c1.32 0 2.65-.76 3.93-.63s2.55.74 3.81 1 2.45.88 3.69 1.25 2.7.17 3.9.67 2.24 1.37 3.39 2a38.67 38.67 0 0 1 3.19 2.22c1.08.72 2.08 1.51 3.09 2.33s2.19 1.43 3.11 2.35 2.1 1.63 2.93 2.64 1.23 2.34 1.95 3.42 1.27 2.26 1.89 3.41 1.49 2.16 2 3.36.56 2.56.94 3.81.46 2.52.71 3.8 1 2.46 1.1 3.76.44 2.59.44 3.91h-.23a38.33 38.33 0 0 1-.4 3.88c-.12 1.31.22 2.69 0 3.95s-.77 2.53-1.14 3.77-.93 2.46-1.42 3.65-1 2.43-1.61 3.57-1.4 2.22-2.12 3.3-1.85 1.85-2.68 2.85-1.67 2-2.59 2.87-1.53 2.16-2.53 3-2.17 1.45-3.25 2.18-2 1.79-3.13 2.4a37.71 37.71 0 0 1-3.67 1.43c-1.19.49-2.45.88-3.7 1.26s-2.48.83-3.76 1.08-2.63-.07-3.93.06-2.57.74-3.89.74z"/><path class="cls-3" d="M45.92 108.81Q43 117 38.24 121.44l-2.06-1.79a26.49 26.49 0 0 0 7.3-11.83zm12.88 22.37l-2.45 1.1c-.38-.93-.74-1.79-1.12-2.58q-7.17 1.06-15.95 1.65l-.47-2.53q2.92-.94 8.16-12.6l2.58.88a71.68 71.68 0 0 1-6.7 11.58c3.9-.24 7.66-.66 11.31-1.21-.93-1.81-1.87-3.48-2.83-5l2.36-.77a57.51 57.51 0 0 1 5.11 9.48zm-4.26-23.44a20.23 20.23 0 0 0 6.62 11.75l-2.06 1.84a22.07 22.07 0 0 1-6.53-11.15h-4.4v-2.44zM69.39 128.74a56.61 56.61 0 0 0 6.75-1.87l.61 2.47a85.26 85.26 0 0 1-10 2.44l-.69-2.47a1.37 1.37 0 0 0 .69-1.23v-20.26h20v8.62h-7.42c.11 1.18.27 2.25.44 3.24h8.73v2.52h-8.16a13.64 13.64 0 0 0 .53 1.46 13.49 13.49 0 0 0 2.63 4.23 4 4 0 0 0 2.5 1.26c.25 0 .47-.25.66-.71a16.36 16.36 0 0 0 .52-3.38l2.34 1.26a13.38 13.38 0 0 1-1.29 4.53 2.08 2.08 0 0 1-1.68 1.07 6.48 6.48 0 0 1-4.09-1.92 16 16 0 0 1-3.73-5.44 18.56 18.56 0 0 1-.86-2.39h-8.48zm0-18.42V114h14.85v-3.65zm0 6.12v3.24h7.88c-.22-1-.38-2.11-.52-3.24zM97 114.13v-3.43c-1.24.17-2.5.33-3.77.44l-.49-2.44a46.37 46.37 0 0 0 9.5-1.65l.9 2.44c-1.12.31-2.3.58-3.51.8v3.84h3.51v2.5h-3.5v1.07a52 52 0 0 1 4.45 3.79l-1.46 2.22c-1.18-1.45-2.17-2.63-3-3.51v12H97v-11.83a26.5 26.5 0 0 1-4 6.63l-1.16-2.91a20.2 20.2 0 0 0 4.83-7.44h-4v-2.5zm20.56 10l-2.58.41v7.66h-2.64V125l-8.26 1.31-.39-2.52 8.65-1.4v-15.34H115V122l2.16-.36zm-6.78-5.19l-1.87 1.84a32.11 32.11 0 0 0-4.83-4.23l1.84-1.78a33.05 33.05 0 0 1 4.87 4.17zm.71-6.51l-1.78 1.81a28.66 28.66 0 0 0-4.81-4l1.84-1.79a34.34 34.34 0 0 1 4.76 3.98zM121.27 132l-.55-2.45a13.19 13.19 0 0 0 2 .17c.65 0 1-.39 1-1.13v-5.82c-1 .39-2 .77-3 1.1l-.66-2.58a27.69 27.69 0 0 0 3.65-1.07v-5.93h-3.1v-2.5h3.1V107h2.53v4.8h2.69v2.5h-2.69v4.89c.93-.44 1.84-.91 2.74-1.4v2.55c-.9.49-1.81.93-2.74 1.37v7.55c0 1.81-.88 2.75-2.64 2.75zm14.85-21.28V107h2.53v3.68h6.42v2.5h-6.42v3.93H144v2.3a17.43 17.43 0 0 1-4.42 7.39 27.56 27.56 0 0 0 6.23 3.35l-1.35 2.14a30.79 30.79 0 0 1-6.67-3.9 26.54 26.54 0 0 1-7.57 4l-1.22-2.17a23.14 23.14 0 0 0 7-3.43 16.24 16.24 0 0 1-4.31-7.22h-1.42v-2.44h5.87v-3.93h-6.44v-2.5zm1.65 14.58a15.94 15.94 0 0 0 3.7-5.71h-7.35a13 13 0 0 0 3.65 5.69zM157.48 107.05a84.93 84.93 0 0 1 7 4.89l-1.51 2c-1-.77-1.84-1.48-2.63-2.08v1.62h-6.53v-1c-1.24 1-2.61 2-4.12 3.05l-1.51-2.12a35.35 35.35 0 0 0 7.71-6.34zm5.52 25.12h-2.44v-1h-5.16v1h-2.36v-7.58a22.29 22.29 0 0 1-2.8 7.6l-2-1.81a18.94 18.94 0 0 0 2.71-10.48v-5.14h11.81v8.13h-9.46c-.05.55-.13 1.07-.22 1.56H163zm-9.55-12.24v1.12h6.81v-1.34h-6.78zm6.78-3.24h-6.78V118h6.78zm-.3-5.14c-1.18-.9-2.2-1.62-3-2.14a27.84 27.84 0 0 1-2.09 2.14zm.63 17.63v-2.67h-5.16v2.67zM166 132l-.61-2.52c1.32.08 2.58.14 3.79.14a.88.88 0 0 0 1-1v-21.57h2.58v22.24a2.38 2.38 0 0 1-2.66 2.71zm1.92-23.11v17.57h-2.5v-17.57zM181.22 124.26a27.11 27.11 0 0 1-2.75 7.25l-2.14-1.37a21.54 21.54 0 0 0 2.53-6.37zm-4.42-6.53v-2.39h2.91a18.83 18.83 0 0 0-1.18-2.69l2.28-.85a27.31 27.31 0 0 1 1.21 3.54h2.6c.41-1.12.77-2.3 1.1-3.54l2.33.8a23 23 0 0 1-1.09 2.74h2.82v2.39h-5.16v2.44h4.7v2.39h-4.7v9.8H182v-9.8h-4.8v-2.39h4.8v-2.44zm5.19-8.62a14.23 14.23 0 0 0-1.13-2l2.72-.44c.33.71.66 1.53 1 2.44h5.05v2.42h-12.56v-2.42zm7.11 19.22l-2.17.82a44.24 44.24 0 0 0-1.59-5l2.17-.58a46.18 46.18 0 0 1 1.59 4.76zm12.21-18.84a30 30 0 0 1-7.85 1.46v4.47h8.46v2.5h-2.64v14.39h-2.55v-14.39h-3.27v2.72c-.11 4.83-1.18 8.7-3.18 11.58l-1.87-1.95q2.35-3.45 2.55-9.63v-11.8a26.28 26.28 0 0 0 9.06-1.68zM219 122.09a11.61 11.61 0 0 1-.33 1.54h3.79a14.38 14.38 0 0 0-1.1-1.51l1.48-.49-.35-1.76a13.27 13.27 0 0 0 1.73.14.6.6 0 0 0 .65-.69v-1.56H219a24.32 24.32 0 0 1 2.45 2.47l-1.7 1.21a20 20 0 0 0-2.67-2.8l1.4-.88h-3.59v-2h1.23l-.88-1.54c5.52-.82 9.23-2.28 11.09-4.31h-5a17.32 17.32 0 0 1 2 1.29l-1.46 1a21.8 21.8 0 0 0-2.91-2.05c-.82.38-1.75.76-2.77 1.12l-1.26-1.65c2.74-.76 4.58-1.7 5.54-2.8l2.31.28a9.19 9.19 0 0 1-.85 1H229v1.7q-2.47 4.16-12.19 6h8.07v-2.17h2.45v2.17h2.5v2h-2.5v2.11c0 1.37-.8 2.09-2.36 2.09h-1a14.89 14.89 0 0 1 1.13 1.67h4.14V126h-11.51a9.75 9.75 0 0 1-2.23 2.72c-1.75 1.51-4.8 2.69-9.19 3.57l-1-2.36c3.73-.66 6.45-1.6 8.1-2.8a12.76 12.76 0 0 0 1.19-1.13h-9.06v-2.39H216a15 15 0 0 0 .46-1.81zm-7.58-6.91v-1.92h-4.92v-5.58h2.36v3.6h2.55V107h2.47v15.12h-2.47v-4.91h-1.75c-.22 2.52-1 4.31-2.28 5.35l-1.87-1.43a4.89 4.89 0 0 0 2-3.92h-1.89v-2zm4-3.16c1.4-.27 2.75-.58 4-1l.44 1.32a32.82 32.82 0 0 1-4 1.1zm14 17.9l-.91 2.25a68.22 68.22 0 0 0-11.25-3.29l1-1.95a69.15 69.15 0 0 1 11.16 2.99zM244.35 125c.55-.2 1.13-.39 1.68-.55v2.5a107.38 107.38 0 0 1-12.47 3.54l-.71-2.5c.63-.14 1.24-.28 1.84-.38v-19.19h9.66zm-2.58-10.65v-3.52h-4.42v3.52zm0 6v-3.65h-4.42v3.65zm0 5.46v-3.1h-4.42V127c1.54-.43 3.02-.84 4.42-1.23zm9.53-18.69V112h6c0 9.16-.14 14.79-.41 16.93s-1.73 3.13-4.31 3.13c-.44 0-1.18-.05-2.22-.11l-.61-2.3c.94.08 1.73.13 2.42.13a2 2 0 0 0 2.22-2q.25-2 .33-13.34h-3.4v.49c-.08 8-2 13.83-5.66 17.54l-2.08-1.84q5-4.86 5.1-15.7v-.49h-3.1V112h3.1v-4.89zM262.55 117.18L261 115a33.78 33.78 0 0 0 11.56-8h2.08c2.56 3.19 6.37 5.82 11.48 7.94l-1.48 2.17a34.16 34.16 0 0 1-3.74-1.82v1.43h-6v3.32h9.55v2.42h-9.55v6.72h2.58a43.39 43.39 0 0 0 2.25-5.49l2.36.86a35.41 35.41 0 0 1-2 4.63h5.29v2.48h-23.57v-2.46h5.38a26.79 26.79 0 0 0-1.95-4.44l2.33-.85a34.26 34.26 0 0 1 2.15 5.29h2.63v-6.72h-9.58v-2.42h9.58v-3.32h-6v-1.54a38.78 38.78 0 0 1-3.8 1.98zm11.09-7.71a34.9 34.9 0 0 1-6 4.94h11.8a26.36 26.36 0 0 1-5.8-4.94z"/><path class="cls-2" d="M83.82 141.06a5.55 5.55 0 0 1 2 3.61h-2.23a3.69 3.69 0 0 0-1.45-2.25 4.65 4.65 0 0 0-2.68-.71 4.24 4.24 0 0 0-3.65 1.66 6.58 6.58 0 0 0-1.15 4.13 6.69 6.69 0 0 0 1.13 4.17 5.08 5.08 0 0 0 6.44.75 4.64 4.64 0 0 0 1.57-2.64H86a6.56 6.56 0 0 1-2.35 4.09 6.44 6.44 0 0 1-4.15 1.39 6.66 6.66 0 0 1-5.5-2.35 9.73 9.73 0 0 1 .06-10.84 6.48 6.48 0 0 1 5.45-2.37 6.63 6.63 0 0 1 4.31 1.36zM91.85 140.2a1.37 1.37 0 0 1 .44 1.07 1.49 1.49 0 0 1-.46 1.09 1.58 1.58 0 0 1-1.09.42 1.54 1.54 0 0 1-1.09-.42 1.51 1.51 0 0 1-.44-1.09 1.4 1.4 0 0 1 .44-1.07 1.46 1.46 0 0 1 1.09-.42 1.51 1.51 0 0 1 1.11.42zm0 3.92V155h-2.22v-10.88zM97.16 144.12l2.72 8.07 2.73-8.07H105L101 155h-2.23l-4-10.84zM110.12 140.2a1.4 1.4 0 0 1 .44 1.07 1.49 1.49 0 0 1-.46 1.09 1.6 1.6 0 0 1-1.09.42 1.54 1.54 0 0 1-1.09-.42 1.47 1.47 0 0 1-.44-1.09 1.37 1.37 0 0 1 .44-1.07 1.46 1.46 0 0 1 1.09-.42 1.52 1.52 0 0 1 1.11.42zm0 3.92V155h-2.22v-10.88zM122.32 144.77a4.61 4.61 0 0 1 1.59 3h-2.2a2.47 2.47 0 0 0-.9-1.61 2.87 2.87 0 0 0-1.82-.53 2.54 2.54 0 0 0-2.16 1 4.4 4.4 0 0 0-.8 2.85 4.62 4.62 0 0 0 .78 2.87 2.49 2.49 0 0 0 2.16 1 2.53 2.53 0 0 0 2.78-2.47H124a5.39 5.39 0 0 1-1.66 3.25 5.14 5.14 0 0 1-3.35 1 4.77 4.77 0 0 1-3.86-1.64 6.82 6.82 0 0 1 0-8.09 4.79 4.79 0 0 1 3.92-1.7 5.41 5.41 0 0 1 3.27 1.07zM146.27 140v1.95h-5v13H139v-13h-5V140zM157.55 145.63a7.39 7.39 0 0 1 1.3 4.53h-8.22a4.1 4.1 0 0 0 .86 2.43 2.69 2.69 0 0 0 2.08.84 3.13 3.13 0 0 0 1.88-.54 3.77 3.77 0 0 0 1-1.41h2.22a4.84 4.84 0 0 1-1.49 2.54 5.27 5.27 0 0 1-3.58 1.24 5 5 0 0 1-3.8-1.49 6.58 6.58 0 0 1-.08-8.29 4.67 4.67 0 0 1 3.79-1.65 4.78 4.78 0 0 1 4.04 1.8zm-6 .76a3.62 3.62 0 0 0-.91 2.09h5.85c-.21-1.88-1.19-2.83-3-2.83a2.63 2.63 0 0 0-1.91.74zM169.94 144.77a4.62 4.62 0 0 1 1.6 3h-2.2a2.47 2.47 0 0 0-.91-1.61 2.85 2.85 0 0 0-1.82-.53 2.56 2.56 0 0 0-2.16 1 4.46 4.46 0 0 0-.8 2.85 4.68 4.68 0 0 0 .78 2.87 2.5 2.5 0 0 0 2.16 1 2.53 2.53 0 0 0 2.79-2.47h2.2a5.34 5.34 0 0 1-1.66 3.25 5.14 5.14 0 0 1-3.35 1 4.77 4.77 0 0 1-3.86-1.64 6.82 6.82 0 0 1 0-8.09 4.79 4.79 0 0 1 3.92-1.7 5.41 5.41 0 0 1 3.31 1.07zM176.76 139.7v6a3.68 3.68 0 0 1 1.51-1.4 3.74 3.74 0 0 1 1.85-.42 3.69 3.69 0 0 1 2.95 1.15 4.9 4.9 0 0 1 .94 3.25V155h-2.22v-6.35a3.59 3.59 0 0 0-.58-2.18 2.3 2.3 0 0 0-1.91-.78 2.19 2.19 0 0 0-1.83.9 3.66 3.66 0 0 0-.71 2.33V155h-2.22v-15.3zM206.83 141a5.66 5.66 0 0 1 2 3.75h-2.3a3.47 3.47 0 0 0-1.39-2.26 4.67 4.67 0 0 0-2.85-.78 4.29 4.29 0 0 0-3.46 1.49 6.34 6.34 0 0 0-1.36 4.34 6.12 6.12 0 0 0 1.24 4.15 5.09 5.09 0 0 0 4.13 1.57 8.15 8.15 0 0 0 2.07-.27 6.24 6.24 0 0 0 1.68-.73V149h-4.13v-1.95h6.41v6.29a8.64 8.64 0 0 1-2.7 1.4 12 12 0 0 1-3.59.51A7 7 0 0 1 197 153a7.93 7.93 0 0 1-1.85-5.45A8.22 8.22 0 0 1 197 142a6.5 6.5 0 0 1 5.26-2.3 7.1 7.1 0 0 1 4.57 1.3zM218.91 144.1v2.22a5.58 5.58 0 0 0-1.57-.23 2.49 2.49 0 0 0-1.81.82 3.21 3.21 0 0 0-.83 2.31V155h-2.23v-10.88h2.23v1.64a3.15 3.15 0 0 1 1-1.32 2.66 2.66 0 0 1 1.76-.61 3.17 3.17 0 0 1 1.45.27zM229.73 145a4.27 4.27 0 0 1 1 3v7h-2.05v-1.53a4.4 4.4 0 0 1-1.57 1.3 5.78 5.78 0 0 1-2.52.53 3.8 3.8 0 0 1-2.64-.87 2.7 2.7 0 0 1-1-2.2 3.21 3.21 0 0 1 1.45-2.81 6.76 6.76 0 0 1 3.73-1l2.43-.06v-.44c0-1.51-.81-2.27-2.45-2.27a3.29 3.29 0 0 0-1.68.38 1.93 1.93 0 0 0-.94 1.34l-2.2-.19a3.72 3.72 0 0 1 1.74-2.6 6.09 6.09 0 0 1 3.23-.73 4.68 4.68 0 0 1 3.47 1.15zm-3.5 5c-2 0-3 .76-3 2.1a1.25 1.25 0 0 0 .52 1 2.15 2.15 0 0 0 1.37.42 3.65 3.65 0 0 0 2.41-.86 2.69 2.69 0 0 0 1-2.12V150zM243.84 148.27V155h-2.22v-6.5c0-1.84-.86-2.77-2.54-2.77a2.22 2.22 0 0 0-1.65.68 3.2 3.2 0 0 0-.9 2.07V155h-2.23v-10.88h2.23v1.34a4.11 4.11 0 0 1 1.44-1.21 3.74 3.74 0 0 1 1.83-.42c2.68 0 4.04 1.47 4.04 4.44zM250.72 144.12h2.48V146h-2.48v6.29a1 1 0 0 0 .19.65.82.82 0 0 0 .59.21h1.42V155h-1.78a2.59 2.59 0 0 1-2-.73 2.8 2.8 0 0 1-.61-2V146h-2v-1.85h2v-2.58l2.22-.92z"/></g></g></svg>