<svg xmlns="http://www.w3.org/2000/svg" viewBox="0 0 320.34 178.09"><defs><style>.cls-1{fill:#2667b2;}.cls-2{fill:#e9506c;}.cls-3,.cls-6{fill:#fff;}.cls-4{fill:#001d2f;}.cls-5{fill:#633a7c;}.cls-6,.cls-9{stroke:#fff;}.cls-6,.cls-8,.cls-9{stroke-linecap:round;stroke-linejoin:round;stroke-width:0.98px;}.cls-7{fill:#c9caca;}.cls-8,.cls-9{fill:none;}.cls-8{stroke:#2667b2;}.cls-10{fill:#f5a117;}</style></defs><title>CTG_en</title><g id="Layer_2" data-name="Layer 2"><g id="圖層_1" data-name="圖層 1"><path class="cls-1" d="M162.09,10.39H162a1.86,1.86,0,0,1-.62-.13,2.74,2.74,0,0,0-1.06-.19h-.07a1.68,1.68,0,0,1-.28-.23,6.84,6.84,0,0,0-.67-.57c-.11-.09-.23-.17-.36-.26a4.69,4.69,0,0,1-1-.85A6.45,6.45,0,0,1,157,6.69a4.42,4.42,0,0,1-.31-.93V5.42a6.26,6.26,0,0,0-.1-1.2,5.74,5.74,0,0,1-.09-1,.49.49,0,0,0-.49-.49h0a.49.49,0,0,0-.49.49V5.64a7.27,7.27,0,0,1-.39,1c-.06.13-.12.27-.17.4a4.75,4.75,0,0,1-.62,1.17,6.57,6.57,0,0,1-1.16,1l-.53.41a3.87,3.87,0,0,1-.66.45l-1.58-.05h-.31a.49.49,0,0,0-.49.49.5.5,0,0,0,.48.5h.28c.22,0,.36,0,.53.08a3.24,3.24,0,0,0,.59.1.51.51,0,0,0,.3,0,2.68,2.68,0,0,1,.7.45l.47.37.06.05a7.14,7.14,0,0,1,1.25,1.12,6.53,6.53,0,0,1,.89,1.49,6.33,6.33,0,0,1,.39,1.34,6.7,6.7,0,0,0,.08,1.1,5,5,0,0,1,.07.9v.16a.49.49,0,0,0,.49.49h0a.49.49,0,0,0,.49-.49l0-2.18a7.41,7.41,0,0,1,.43-1.29l.05-.11a6.41,6.41,0,0,1,.77-1.43A8.34,8.34,0,0,1,159.13,12a3.34,3.34,0,0,1,1-.6l.09,0,1.73,0h.15a.49.49,0,0,0,0-1Z"/><path class="cls-2" d="M40.76,75.9h-.08a1.34,1.34,0,0,1-.39-.08,2.09,2.09,0,0,0-.79-.14h0l-.14-.12a5.68,5.68,0,0,0-.48-.41L38.62,75a3.32,3.32,0,0,1-.67-.57,4.46,4.46,0,0,1-.64-1,3.11,3.11,0,0,1-.2-.61v-.22A5,5,0,0,0,37,71.7,3.68,3.68,0,0,1,37,71a.49.49,0,0,0-.49-.49h0A.48.48,0,0,0,36,71V72.7a4.9,4.9,0,0,1-.26.68l-.12.28a3.33,3.33,0,0,1-.41.78,4.74,4.74,0,0,1-.79.71l-.38.29a2.77,2.77,0,0,1-.4.28l-1.07,0h-.22a.49.49,0,0,0-.49.49.48.48,0,0,0,.48.49h.19a2.75,2.75,0,0,1,.34,0l.41.07a.45.45,0,0,0,.23,0,1.92,1.92,0,0,1,.42.28l.37.29a5.06,5.06,0,0,1,.85.77,4,4,0,0,1,.61,1,4.31,4.31,0,0,1,.26.89,4.45,4.45,0,0,0,.06.78c0,.17,0,.33,0,.62v.11a.48.48,0,0,0,.49.48h0a.49.49,0,0,0,.49-.49V80.05a4.73,4.73,0,0,1,.29-.86l0-.07a4.85,4.85,0,0,1,.52-1,6.37,6.37,0,0,1,.84-.88,2.17,2.17,0,0,1,.66-.39l0,0,1.27,0h0a.49.49,0,1,0,0-1Z"/><path class="cls-3" d="M54.53,62h-.11a1.48,1.48,0,0,1-.51-.11,2.9,2.9,0,0,0-1.06-.19h0a2,2,0,0,1-.19-.16A6,6,0,0,0,52,61l-.34-.26a4.27,4.27,0,0,1-.89-.75,5.78,5.78,0,0,1-.85-1.33,3.85,3.85,0,0,1-.27-.81v-.29a5.7,5.7,0,0,0-.1-1.16,4.93,4.93,0,0,1-.08-.94.66.66,0,0,0-.65-.66h0a.67.67,0,0,0-.66.66v2.27a5.72,5.72,0,0,1-.35.9c0,.13-.11.26-.16.38a4.46,4.46,0,0,1-.54,1.05,6.09,6.09,0,0,1-1.06.93l-.5.39a3.53,3.53,0,0,1-.53.37l-1.43,0h-.29a.66.66,0,0,0-.66.65.66.66,0,0,0,.64.66h.25a2.76,2.76,0,0,1,.47.07,4.3,4.3,0,0,0,.54.09.61.61,0,0,0,.3,0,2.16,2.16,0,0,1,.56.37l.5.39a7.09,7.09,0,0,1,1.14,1,6.27,6.27,0,0,1,.81,1.35,6.16,6.16,0,0,1,.34,1.19,6,6,0,0,0,.08,1,5.17,5.17,0,0,1,.06.81v.15a.66.66,0,0,0,.66.65h0a.65.65,0,0,0,.65-.65v-2A6.45,6.45,0,0,1,50,66.38l0-.1A5.65,5.65,0,0,1,50.76,65a7.38,7.38,0,0,1,1.13-1.17,2.63,2.63,0,0,1,.87-.53l.06,0,1.69,0h0a.66.66,0,0,0,.66-.66A.65.65,0,0,0,54.53,62Z"/><path class="cls-4" d="M225.73,33.39h-.08a.9.9,0,0,1-.39-.08,2.09,2.09,0,0,0-.79-.14h0l-.14-.12a4.4,4.4,0,0,0-.48-.41l-.26-.19a3.21,3.21,0,0,1-.66-.56,4.55,4.55,0,0,1-.65-1,3.11,3.11,0,0,1-.2-.61c0-.07,0-.14,0-.22a4.11,4.11,0,0,0-.08-.87,3.68,3.68,0,0,1-.06-.7.49.49,0,0,0-.49-.49h0a.49.49,0,0,0-.49.49v1.7a4.47,4.47,0,0,1-.26.68l-.12.28a3.41,3.41,0,0,1-.41.79,4.67,4.67,0,0,1-.79.7l-.37.29a2.73,2.73,0,0,1-.41.28l-1.07,0h-.22a.49.49,0,0,0-.49.49.5.5,0,0,0,.48.5h.19a2.66,2.66,0,0,1,.35.05,2.63,2.63,0,0,0,.41.07.54.54,0,0,0,.22,0,1.4,1.4,0,0,1,.42.28c.09.06.19.15.37.29a5,5,0,0,1,.86.76,4.73,4.73,0,0,1,.6,1,3.77,3.77,0,0,1,.26.89,4.58,4.58,0,0,0,.06.79,4,4,0,0,1,.05.61v.11a.49.49,0,0,0,.49.49h0a.49.49,0,0,0,.49-.49V37.55a4.61,4.61,0,0,1,.29-.87l0-.07a4,4,0,0,1,.52-1,5.33,5.33,0,0,1,.84-.87,2,2,0,0,1,.66-.4l0,0,1.28,0h0a.5.5,0,1,0,0-1Z"/><path class="cls-5" d="M108.06,23.24h-.12a1.67,1.67,0,0,1-.55-.11,2.83,2.83,0,0,0-1.11-.2h0a1.3,1.3,0,0,1-.19-.17c-.15-.13-.33-.31-.68-.58l-.37-.26a4.8,4.8,0,0,1-.94-.8,6.62,6.62,0,0,1-.91-1.41,5.39,5.39,0,0,1-.28-.86v-.31a6.39,6.39,0,0,0-.1-1.23,4.65,4.65,0,0,1-.09-1,.69.69,0,0,0-.69-.69h0a.71.71,0,0,0-.7.69v2.41a5.53,5.53,0,0,1-.37,1c0,.13-.11.27-.17.4a5,5,0,0,1-.57,1.11,6.86,6.86,0,0,1-1.12,1l-.53.41A3.21,3.21,0,0,1,98,23l-1.51,0h-.31a.69.69,0,1,0,0,1.38h.27a2.28,2.28,0,0,1,.49.08,4.79,4.79,0,0,0,.58.09.63.63,0,0,0,.31.05,2.24,2.24,0,0,1,.6.4l.52.41a6.71,6.71,0,0,1,1.21,1.08,6,6,0,0,1,.86,1.43,5.78,5.78,0,0,1,.36,1.26,7.44,7.44,0,0,0,.09,1.1,7.41,7.41,0,0,1,.07.87v.16a.68.68,0,0,0,.69.68h0a.69.69,0,0,0,.7-.69l0-2.13a6.86,6.86,0,0,1,.41-1.22l0-.11a6.47,6.47,0,0,1,.73-1.37,8.17,8.17,0,0,1,1.19-1.23,2.9,2.9,0,0,1,.93-.56l.06,0,1.79,0h0a.71.71,0,0,0,.7-.7A.7.7,0,0,0,108.06,23.24Z"/><path class="cls-6" d="M188.38,27.25c-.63,0-.63-.22-1.25-.22H187a9.13,9.13,0,0,1-.78-.64,5.27,5.27,0,0,1-1-.83,4.91,4.91,0,0,1-.71-1.11,4.32,4.32,0,0,1-.25-.77,2.09,2.09,0,0,0,0-.26c0-.79-.13-.79-.13-1.57v1.77a5,5,0,0,1-.31.81,5,5,0,0,1-.59,1.18,5.55,5.55,0,0,1-1,.87,3.84,3.84,0,0,1-.84.58L180,27c.58,0,.63.12,1.12.14v0l.06,0h0a3.75,3.75,0,0,1,1,.66,5.94,5.94,0,0,1,1,.88,5,5,0,0,1,.68,1.13,4.73,4.73,0,0,1,.3,1c0,.76.11.77.11,1.54V30.87a4.88,4.88,0,0,1,.33-1,5.23,5.23,0,0,1,.62-1.15,6.46,6.46,0,0,1,.92-.95,2.68,2.68,0,0,1,.91-.52Z"/><path class="cls-6" d="M214.67,10.94c-1.21,0-1.21-.43-2.42-.43H212a15.08,15.08,0,0,1-1.53-1.23,10.68,10.68,0,0,1-1.94-1.62,9.37,9.37,0,0,1-1.38-2.14A7.85,7.85,0,0,1,206.66,4c0-.15,0-.31,0-.5,0-1.53-.26-1.53-.26-3l0,3.43a8.92,8.92,0,0,1-.59,1.56,10,10,0,0,1-1.15,2.29,11.31,11.31,0,0,1-1.93,1.7,7.26,7.26,0,0,1-1.64,1.11l-2.7-.07c1.11,0,1.21.23,2.17.26,0,0,0,.06,0,.05l.1,0h.07a6.9,6.9,0,0,1,1.92,1.28,10.78,10.78,0,0,1,1.89,1.7,9.41,9.41,0,0,1,1.31,2.17,9,9,0,0,1,.58,2c0,1.47.21,1.49.21,3l0-3a10.24,10.24,0,0,1,.64-2,9.93,9.93,0,0,1,1.21-2.24,11.24,11.24,0,0,1,1.79-1.84,5,5,0,0,1,1.75-1Z"/><polygon class="cls-3" points="131.38 68.34 71.58 68.34 74.8 56.86 125.84 56.86 131.38 68.34"/><polygon class="cls-7" points="71.62 68.34 70.42 70.84 71.62 71.92 72.34 73.78 71.62 75.49 72.57 77.62 71.62 79.07 70.42 80.67 71.62 82.64 70.57 84.29 71.47 85.94 116.4 68.34 71.62 68.34"/><polygon class="cls-4" points="131.34 71.92 131.34 70.14 131.34 68.34 116.4 68.34 71.47 85.94 71.62 86.22 70.91 87.91 71.32 89 131.88 89 132.5 87.3 131.75 85.46 132.5 84.09 131.34 82.64 132.5 81.13 131.34 79.07 132.05 77.51 131.34 75.49 132.5 73.66 131.34 71.92"/><path class="cls-3" d="M71.09,70.79a.49.49,0,0,0,0,1h35.85l2.42-1Z"/><path class="cls-7" d="M131.34,70.79h-22l-2.42,1h24.4a.49.49,0,1,0,0-1Z"/><path class="cls-3" d="M71.9,74.33a.5.5,0,0,0,0,1H98.21l2.42-1Z"/><path class="cls-7" d="M131.34,74.33H100.63l-2.42,1h33.13a.5.5,0,0,0,0-1Z"/><path class="cls-3" d="M72.57,77.88a.49.49,0,0,0,0,1H89.48l2.42-1Z"/><path class="cls-7" d="M131.34,77.88H91.9l-2.42,1h41.86a.49.49,0,1,0,0-1Z"/><path class="cls-3" d="M71.53,81.42a.5.5,0,0,0,0,1h9.22l2.42-1Z"/><path class="cls-7" d="M131.34,81.42H83.17l-2.42,1h50.59a.5.5,0,0,0,0-1Z"/><path class="cls-3" d="M71.21,85a.49.49,0,1,0,0,1H72l2.42-1Z"/><path class="cls-7" d="M131.34,85H74.44L72,86h59.32a.49.49,0,1,0,0-1Z"/><line class="cls-8" x1="71.32" y1="89.01" x2="131.34" y2="89.01"/><polygon class="cls-3" points="107.72 68.45 94.69 68.45 94.69 76.48 107.72 71.63 107.72 68.45"/><polygon class="cls-7" points="94.69 76.48 94.69 89 107.72 89 107.72 71.63 94.69 76.48"/><polygon class="cls-7" points="107.72 68.34 94.69 68.34 95.83 56.86 106.58 56.86 107.72 68.34"/><polygon class="cls-3" points="176.17 68.34 235.96 68.34 232.75 56.86 181.7 56.86 176.17 68.34"/><polygon class="cls-7" points="235.92 68.34 237.13 70.84 235.92 71.92 235.2 73.78 235.92 75.49 234.98 77.62 235.92 79.07 237.13 80.67 235.92 82.64 236.98 84.29 236.07 85.94 191.15 68.34 235.92 68.34"/><polygon class="cls-4" points="176.2 71.92 176.2 70.14 176.2 68.34 191.15 68.34 236.07 85.94 235.92 86.22 236.64 87.91 236.22 89 175.67 89 175.04 87.3 175.79 85.46 175.04 84.09 176.2 82.64 175.04 81.13 176.2 79.07 175.5 77.51 176.2 75.49 175.04 73.66 176.2 71.92"/><path class="cls-3" d="M236.46,70.79a.49.49,0,1,1,0,1H200.6l-2.42-1Z"/><path class="cls-7" d="M176.2,70.79h22l2.42,1H176.2a.49.49,0,1,1,0-1Z"/><path class="cls-3" d="M235.64,74.33a.5.5,0,1,1,0,1H209.33l-2.42-1Z"/><path class="cls-7" d="M176.2,74.33h30.71l2.42,1H176.2a.5.5,0,0,1,0-1Z"/><path class="cls-3" d="M235,77.88a.49.49,0,1,1,0,1H218.06l-2.42-1Z"/><path class="cls-7" d="M176.2,77.88h39.44l2.42,1H176.2a.49.49,0,1,1,0-1Z"/><path class="cls-3" d="M236,81.42a.5.5,0,0,1,0,1h-9.23l-2.42-1Z"/><path class="cls-7" d="M176.2,81.42h48.17l2.42,1H176.2a.5.5,0,0,1,0-1Z"/><path class="cls-3" d="M236.34,85a.49.49,0,0,1,0,1h-.82l-2.42-1Z"/><path class="cls-7" d="M176.2,85h56.9l2.42,1H176.2a.49.49,0,1,1,0-1Z"/><line class="cls-8" x1="236.22" y1="89.01" x2="176.2" y2="89.01"/><polygon class="cls-3" points="199.82 68.45 212.86 68.45 212.86 76.48 199.82 71.63 199.82 68.45"/><polygon class="cls-7" points="212.86 76.48 212.86 89 199.82 89 199.82 71.63 212.86 76.48"/><polygon class="cls-7" points="199.82 68.34 212.86 68.34 211.72 56.86 200.97 56.86 199.82 68.34"/><polygon class="cls-3" points="184.17 51.61 124.38 51.61 127.59 40.13 178.64 40.13 184.17 51.61"/><polygon class="cls-7" points="124.42 51.61 123.22 54.1 124.42 55.18 125.14 57.04 124.42 58.76 125.36 60.89 124.42 62.33 123.22 63.94 124.42 65.91 123.36 67.56 124.42 69.48 123.7 71.18 124.42 73.06 123.25 74.84 124.42 76.63 123.25 78.42 124.42 80.21 123.25 82 124.42 83.79 123.25 85.58 124.42 87.37 123.25 89.16 185.33 89.16 184.14 87.37 185.33 85.58 184.14 83.79 185.33 82 184.14 80.21 185.33 78.42 184.14 76.63 185.33 74.84 184.14 73.06 185.11 71.63 184.14 69.48 184.88 68.2 184.14 65.91 185.3 64.39 184.14 62.33 184.84 60.77 184.14 58.76 185.3 56.93 184.14 55.18 184.14 53.4 184.14 51.61 124.42 51.61"/><line class="cls-9" x1="123.88" y1="54.55" x2="184.14" y2="54.55"/><line class="cls-9" x1="124.7" y1="58.09" x2="184.14" y2="58.09"/><line class="cls-9" x1="125.36" y1="61.64" x2="184.14" y2="61.64"/><line class="cls-9" x1="124.32" y1="65.18" x2="184.14" y2="65.18"/><line class="cls-9" x1="124" y1="68.73" x2="184.14" y2="68.73"/><line class="cls-9" x1="124.12" y1="72.27" x2="184.14" y2="72.27"/><line class="cls-9" x1="124.12" y1="75.82" x2="184.14" y2="75.82"/><line class="cls-9" x1="123.86" y1="79.36" x2="184.14" y2="79.36"/><line class="cls-9" x1="124.12" y1="82.9" x2="184.14" y2="82.9"/><line class="cls-9" x1="123.86" y1="86.45" x2="184.14" y2="86.45"/><rect class="cls-3" x="147.48" y="51.72" width="13.04" height="37.7"/><polygon class="cls-7" points="160.52 51.61 147.48 51.61 148.63 40.13 159.37 40.13 160.52 51.61"/><path class="cls-10" d="M116.59,62.23c0,1.2-2.35,2.18-5.25,2.18s-5.25-1-5.25-2.18V60.05h10.5Z"/><ellipse class="cls-3" cx="111.34" cy="60.05" rx="5.25" ry="2.18"/><path class="cls-10" d="M116.59,59.18c0,1.2-2.35,2.18-5.25,2.18s-5.25-1-5.25-2.18V57h10.5Z"/><ellipse class="cls-3" cx="111.34" cy="57" rx="5.25" ry="2.18"/><path class="cls-2" d="M116.59,56.13c0,1.2-2.35,2.18-5.25,2.18s-5.25-1-5.25-2.18V54h10.5Z"/><ellipse class="cls-3" cx="111.34" cy="53.95" rx="5.25" ry="2.18"/><path class="cls-2" d="M118.45,52.19c0,1.21-2.35,2.18-5.25,2.18s-5.25-1-5.25-2.18V50h10.5Z"/><ellipse class="cls-3" cx="113.2" cy="50.01" rx="5.25" ry="2.18"/><path class="cls-10" d="M101.24,62.23c0,1.2-2.34,2.18-5.24,2.18s-5.25-1-5.25-2.18V60.05h10.49Z"/><ellipse class="cls-3" cx="96" cy="60.05" rx="5.25" ry="2.18"/><path class="cls-10" d="M101.24,59.18c0,1.2-2.34,2.18-5.24,2.18s-5.25-1-5.25-2.18V57h10.49Z"/><ellipse class="cls-3" cx="96" cy="57" rx="5.25" ry="2.18"/><path class="cls-2" d="M101.24,56.13c0,1.2-2.34,2.18-5.24,2.18s-5.25-1-5.25-2.18V54h10.49Z"/><ellipse class="cls-3" cx="96" cy="53.95" rx="5.25" ry="2.18"/><path class="cls-2" d="M101.24,53.1c0,1.21-2.34,2.18-5.24,2.18s-5.25-1-5.25-2.18V50.93h10.49Z"/><ellipse class="cls-3" cx="96" cy="50.93" rx="5.25" ry="2.18"/><path class="cls-10" d="M68.08,88.33c0,1.21-2.35,2.18-5.25,2.18s-5.25-1-5.25-2.18V86.16h10.5Z"/><ellipse class="cls-3" cx="62.83" cy="86.16" rx="5.25" ry="2.18"/><path class="cls-2" d="M66.92,84.67c0,1.2-2.35,2.18-5.24,2.18s-5.25-1-5.25-2.18V82.49H66.92Z"/><ellipse class="cls-3" cx="61.68" cy="82.49" rx="5.25" ry="2.18"/><path class="cls-2" d="M68.71,80.84c0,1.2-2.35,2.18-5.25,2.18s-5.25-1-5.25-2.18V78.66h10.5Z"/><ellipse class="cls-3" cx="63.46" cy="78.66" rx="5.25" ry="2.18"/><path class="cls-2" d="M68.71,77.57c0,1.2-2.35,2.18-5.25,2.18s-5.25-1-5.25-2.18V75.39h10.5Z"/><ellipse class="cls-3" cx="63.46" cy="75.39" rx="5.25" ry="2.18"/><path class="cls-2" d="M68.71,74.3c0,1.21-2.35,2.18-5.25,2.18s-5.25-1-5.25-2.18V72.13h10.5Z"/><ellipse class="cls-3" cx="63.46" cy="72.13" rx="5.25" ry="2.18"/><path class="cls-10" d="M143.53,45.93c0,1.21-2.35,2.18-5.25,2.18s-5.25-1-5.25-2.18V43.76h10.5Z"/><ellipse class="cls-3" cx="138.28" cy="43.76" rx="5.25" ry="2.18"/><path class="cls-10" d="M142.31,42.3c0,1.21-2.35,2.18-5.25,2.18s-5.25-1-5.25-2.18V40.13h10.5Z"/><ellipse class="cls-3" cx="137.06" cy="40.13" rx="5.25" ry="2.18"/><path class="cls-2" d="M143.53,39c0,1.2-2.35,2.17-5.25,2.17S133,40.24,133,39V36.86h10.5Z"/><ellipse class="cls-3" cx="138.28" cy="36.86" rx="5.25" ry="2.18"/><path class="cls-2" d="M143.53,35.77c0,1.2-2.35,2.18-5.25,2.18S133,37,133,35.77V33.59h10.5Z"/><ellipse class="cls-3" cx="138.28" cy="33.59" rx="5.25" ry="2.18"/><path class="cls-2" d="M143.53,32.5c0,1.2-2.35,2.18-5.25,2.18S133,33.7,133,32.5V30.32h10.5Z"/><ellipse class="cls-3" cx="138.28" cy="30.32" rx="5.25" ry="2.18"/><path class="cls-2" d="M141.77,29.09c0,1.21-2.35,2.18-5.25,2.18s-5.25-1-5.25-2.18V26.91h10.5Z"/><ellipse class="cls-3" cx="136.52" cy="26.91" rx="5.25" ry="2.18"/><path class="cls-10" d="M168.79,45.57c0,1.2-2.35,2.18-5.25,2.18s-5.25-1-5.25-2.18V43.39h10.5Z"/><ellipse class="cls-3" cx="163.54" cy="43.39" rx="5.25" ry="2.18"/><path class="cls-10" d="M169.71,42.67c0,1.2-2.35,2.18-5.25,2.18s-5.25-1-5.25-2.18V40.49h10.5Z"/><ellipse class="cls-3" cx="164.46" cy="40.49" rx="5.25" ry="2.18"/><path class="cls-2" d="M167.42,39.4c0,1.2-2.35,2.18-5.24,2.18s-5.25-1-5.25-2.18V37.22h10.49Z"/><ellipse class="cls-3" cx="162.18" cy="37.22" rx="5.25" ry="2.18"/><path class="cls-2" d="M167.42,36.13c0,1.21-2.35,2.18-5.24,2.18s-5.25-1-5.25-2.18V34h10.49Z"/><ellipse class="cls-3" cx="162.18" cy="33.95" rx="5.25" ry="2.18"/><path class="cls-2" d="M167.42,32.86c0,1.21-2.35,2.18-5.24,2.18s-5.25-1-5.25-2.18V30.69h10.49Z"/><ellipse class="cls-3" cx="162.18" cy="30.69" rx="5.25" ry="2.18"/><path class="cls-10" d="M200.31,62.78c0,1.2-2.35,2.18-5.25,2.18s-5.25-1-5.25-2.18V60.6h10.5Z"/><ellipse class="cls-3" cx="195.06" cy="60.6" rx="5.25" ry="2.18"/><path class="cls-10" d="M201.48,60.43c0,1.2-2.35,2.18-5.25,2.18s-5.25-1-5.25-2.18V58.25h10.5Z"/><ellipse class="cls-3" cx="196.23" cy="58.25" rx="5.25" ry="2.18"/><path class="cls-10" d="M199.43,57.16c0,1.21-2.35,2.18-5.25,2.18s-5.25-1-5.25-2.18V55h10.5Z"/><ellipse class="cls-3" cx="194.18" cy="54.98" rx="5.25" ry="2.18"/><path class="cls-2" d="M201.48,53.9c0,1.2-2.35,2.17-5.25,2.17S191,55.1,191,53.9V51.72h10.5Z"/><ellipse class="cls-3" cx="196.23" cy="51.72" rx="5.25" ry="2.18"/><path class="cls-2" d="M200.31,50.63c0,1.2-2.35,2.18-5.25,2.18s-5.25-1-5.25-2.18V48.45h10.5Z"/><ellipse class="cls-3" cx="195.06" cy="48.45" rx="5.25" ry="2.18"/><path class="cls-10" d="M218.47,62.73c0,1.2-2.35,2.17-5.24,2.17s-5.25-1-5.25-2.17V60.55h10.49Z"/><ellipse class="cls-3" cx="213.23" cy="60.55" rx="5.25" ry="2.18"/><path class="cls-2" d="M219.76,59.51c0,1.21-2.35,2.18-5.24,2.18s-5.25-1-5.25-2.18V57.34h10.49Z"/><ellipse class="cls-3" cx="214.52" cy="57.34" rx="5.25" ry="2.18"/><path class="cls-2" d="M219.76,56.42c0,1.21-2.35,2.18-5.24,2.18s-5.25-1-5.25-2.18V54.25h10.49Z"/><ellipse class="cls-3" cx="214.52" cy="54.25" rx="5.25" ry="2.18"/><path class="cls-2" d="M219.76,53.33c0,1.21-2.35,2.18-5.24,2.18s-5.25-1-5.25-2.18V51.15h10.49Z"/><ellipse class="cls-3" cx="214.52" cy="51.15" rx="5.25" ry="2.18"/><path class="cls-10" d="M250.65,88.33c0,1.21-2.35,2.18-5.25,2.18s-5.25-1-5.25-2.18V86.16h10.5Z"/><ellipse class="cls-3" cx="245.4" cy="86.16" rx="5.25" ry="2.18"/><path class="cls-2" d="M251.46,84.11c0,1.2-2.35,2.17-5.24,2.17s-5.25-1-5.25-2.17V81.93h10.49Z"/><ellipse class="cls-3" cx="246.22" cy="81.93" rx="5.25" ry="2.18"/><path class="cls-2" d="M248.24,80.84c0,1.2-2.35,2.18-5.25,2.18s-5.25-1-5.25-2.18V78.66h10.5Z"/><ellipse class="cls-3" cx="242.99" cy="78.66" rx="5.25" ry="2.18"/><path class="cls-2" d="M250.65,77.57c0,1.2-2.35,2.18-5.25,2.18s-5.25-1-5.25-2.18V75.39h10.5Z"/><ellipse class="cls-3" cx="245.4" cy="75.39" rx="5.25" ry="2.18"/><path class="cls-2" d="M250.65,74.3c0,1.21-2.35,2.18-5.25,2.18s-5.25-1-5.25-2.18V72.13h10.5Z"/><ellipse class="cls-3" cx="245.4" cy="72.13" rx="5.25" ry="2.18"/><path class="cls-2" d="M250.65,71c0,1.2-2.35,2.17-5.25,2.17s-5.25-1-5.25-2.17V68.86h10.5Z"/><ellipse class="cls-3" cx="245.4" cy="68.86" rx="5.25" ry="2.18"/><path class="cls-10" d="M225.65,63c-.77.93-3.2.16-5.41-1.71s-3.39-4.12-2.62-5L219,54.55l8,6.76Z"/><ellipse class="cls-3" cx="223.04" cy="57.93" rx="2.18" ry="5.25" transform="translate(35.09 191.26) rotate(-49.91)"/><path class="cls-10" d="M280.28,178.07c-2,0-2-.29-3.94-.29s-2-.17-3.93-.17l-3.94,0c-2,0-2,.27-3.94.27s-2-.43-3.94-.43-2-.34-3.94-.34-2,.19-3.94.19-2,.66-3.94.66-2-.78-3.93-.78-2,.25-3.94.25-2,.63-3.94.63-2-.92-3.94-.92-2,.82-3.94.82-2-.16-3.94-.16-2-.15-3.94-.15-2,.23-3.93.23-2-.77-3.94-.77-2,1-3.93,1-2-.12-3.94-.12-2-.48-3.93-.48-2,.49-3.94.49-2-.15-3.94-.15-2,.24-3.94.24-2-.69-3.93-.69-2,.25-3.94.25-2,.39-3.94.39-2,0-3.94,0-2-.88-3.94-.88-2,0-3.94,0-2,.57-3.93.57-2-.1-3.94-.1-2-.06-3.94-.06-2-.35-3.94-.35-2,.29-3.94.29h-3.94c-2,0-2,.09-3.94.09s-2,.49-3.94.49-2-.76-3.94-.76-2,.66-3.94.66-2-.09-3.94-.09-2-.48-4-.48-2,.05-3.94.05-2-.35-3.94-.35-2,.71-3.94.71-2-.07-3.94-.07-2,.31-3.94.31-2-.12-3.94-.12-2-.43-3.94-.43-2,.25-3.94.25-2-.54-3.94-.54-2,.64-4,.64-2-.2-3.94-.2-2,0-3.94,0-2,.24-3.94.24-2-.08-3.95-.08-2,.22-3.94.22-2-.47-4-.47-2,.07-3.94.07-2-.15-3.95-.15-2-.07-4-.07-2-.17-4-.17c-1.31,0-2.61.33-3.89.2a38.88,38.88,0,0,1-3.92-.27c-1.28-.25-2.35-1.33-3.58-1.7s-2.7-.15-3.9-.64-2.37-1.13-3.51-1.74-2.37-1.16-3.45-1.88-2.25-1.4-3.25-2.23-1.73-2-2.65-2.92-1.49-2.14-2.31-3.15A37.67,37.67,0,0,1,6.84,160c-.72-1.08-1.48-2.16-2.1-3.31s-1.16-2.34-1.66-3.54-.88-2.46-1.26-3.71-.57-2.53-.82-3.81-.62-2.54-.75-3.84,0-2.6,0-3.91H0c0-1.32.63-2.58.76-3.86s-.49-2.72-.24-4,.9-2.5,1.27-3.74a38,38,0,0,1,1.72-3.51c.5-1.21.59-2.6,1.2-3.75s1.31-2.27,2-3.35,1.55-2.11,2.37-3.12,1.94-1.74,2.86-2.66a37.54,37.54,0,0,1,2.83-2.67,35.56,35.56,0,0,1,3.13-2.31c1.07-.72,2-1.66,3.18-2.28s2.26-1.36,3.47-1.86,2.66-.29,3.91-.67a35.49,35.49,0,0,1,3.75-1C33.5,98.91,34.7,98,36,97.86s2.63.27,3.94.27c2,0,2,.28,3.94.28s2,.19,3.94.19,2-.15,3.94-.15,2,0,3.94,0,2,.15,3.94.15,2-.86,3.93-.86,2,.16,3.94.16,2,0,3.94,0,2,.14,3.94.14,2,.43,3.94.43,2-.07,3.94-.07h3.94c2,0,2-.62,3.93-.62s2,.53,3.94.53S97.05,98,99,98s2-.15,3.94-.15,2,.58,3.93.58,2-.44,3.94-.44,2-.13,3.93-.13,2,.79,3.94.79,2-.82,3.94-.82,2,.32,3.94.32,2,.11,3.93.11,2-.07,3.94-.07,2-.16,3.93-.16,2-.09,3.94-.09,2,.48,3.94.48,2-.57,3.94-.57,2,.33,3.94.33,2,.41,3.94.41,2-.82,3.94-.82,2,.68,3.94.68h3.94c2,0,2-.39,3.94-.39s2,0,3.94,0,2,0,3.94,0,2-.3,3.94-.3,2,.95,3.94.95,2,0,3.94,0,2-.25,3.94-.25,2-.38,3.94-.38,2,0,3.94,0,2-.07,3.94-.07,2,.28,3.94.28,2-.14,3.95-.14,2,0,3.94,0,2,.22,3.94.22,2-.17,3.94-.17,2,.34,3.94.34,2-.24,3.94-.24,2-.16,3.94-.16,2,.31,3.94.31,2,.27,3.94.27,2-.84,3.95-.84,2,0,3.94,0,2,.18,3.95.18,2,.55,3.94.55,2-.42,3.94-.42,2,.13,3.95.13,2-.33,3.95-.33,2-.1,3.95-.1c1.32,0,2.57.88,3.85,1s2.57.24,3.83.49a37,37,0,0,1,3.86.56c1.25.38,2.44.91,3.64,1.41s2.34,1.1,3.49,1.71,2.42,1,3.49,1.75,2.22,1.42,3.23,2.24,1.74,2,2.66,2.88,1.65,2,2.48,3,1.49,2.09,2.22,3.17,1.56,2.07,2.17,3.21,1.37,2.23,1.87,3.43a39.15,39.15,0,0,1,.9,3.81c.37,1.23.85,2.43,1.11,3.71s.34,2.54.47,3.85.67,2.55.67,3.87h-.6c0,1.31.66,2.64.53,3.93s-.69,2.55-.94,3.81a36.52,36.52,0,0,1-1.06,3.75c-.38,1.25-.47,2.6-1,3.8s-.92,2.47-1.54,3.62a37.75,37.75,0,0,1-2.27,3.2,38.82,38.82,0,0,1-2.12,3.31c-.83,1-1.82,1.9-2.74,2.82s-2.21,1.42-3.22,2.25-1.69,2.08-2.77,2.81-2.17,1.49-3.32,2.11-2.63.54-3.83,1-2.4.91-3.65,1.29-2.47.68-3.75.93-2.47,1-3.77,1.16S281.6,178.07,280.28,178.07Z"/><path class="cls-4" d="M280.28,167.7c-2,0-2-.33-3.94-.33s-2,.29-3.93.29-2,.14-3.94.14-2-.73-3.94-.73-2,.78-3.94.78-2-.63-3.94-.62-2,.37-3.94.37-2-.26-3.94-.26-2,.44-3.93.44-2,.08-3.94.08-2-.37-3.94-.37-2-.25-3.94-.25-2-.31-3.94-.31-2,.5-3.94.5-2-.1-3.94-.1-2,.06-3.93.06-2-.34-3.94-.34-2,.66-3.93.66-2-.07-3.94-.07-2-.5-3.93-.5-2,.1-3.94.1-2,.49-3.94.49-2-.44-3.94-.44-2-.16-3.93-.16-2,.25-3.94.25l-3.94,0c-2,0-2,.16-3.94.16s-2,.15-3.94.15-2-.29-3.94-.29h-7.87c-2,0-2,.37-3.94.37s-2-.48-3.94-.48-2,.05-3.94.05-2,.12-3.94.12-2,0-3.94,0-2,.24-3.94.24-2,.24-3.94.24-2-.8-3.94-.8-2,.77-3.94.77-2-.37-4-.37-2,.17-3.94.17-2-.53-3.94-.53-2,.58-3.94.58-2,.16-3.94.16-2-.29-3.94-.29-2-.62-3.94-.62-2,.63-3.94.63-2,0-3.94,0-2-.62-3.94-.62-2,.25-4,.25-2,.59-3.94.59-2-.44-3.94-.44-2,.47-3.94.47-2-.74-3.95-.74-2,.24-3.94.24-2,0-4,0-2,.5-3.94.5-2-.86-3.95-.86-2,.35-4,.35-2-.39-4-.39a38,38,0,0,1-3.86-.14,37,37,0,0,1-3.82-.55c-1.28-.25-2.55-.43-3.79-.8s-2.53-.62-3.73-1.12a38.86,38.86,0,0,1-3.42-1.86,38.41,38.41,0,0,1-3.25-2.11c-1.08-.72-2.38-1.13-3.38-1.95a37.87,37.87,0,0,1-2.62-2.9c-.92-.92-2.25-1.47-3.07-2.48s-1.27-2.31-2-3.39-1.76-2-2.37-3.13A38.36,38.36,0,0,1,3,143c-.5-1.2-.75-2.51-1.13-3.76s-.22-2.6-.48-3.88S.27,132.89.15,131.59s.33-2.61.33-3.92H.63c0-1.32-.42-2.63-.3-3.91s0-2.67.2-3.93.62-2.58,1-3.82,1.62-2.19,2.12-3.38,1.06-2.33,1.67-3.48a38.53,38.53,0,0,1,1.78-3.44c.73-1.08,1-2.51,1.82-3.51s2.29-1.44,3.21-2.36,1.64-2,2.65-2.85,2.27-1.27,3.35-2,1.88-1.88,3-2.5,2.21-1.47,3.41-2,2.7-.18,4-.56a38.56,38.56,0,0,1,3.73-1c1.27-.25,2.47-1.09,3.77-1.22s2.62.1,3.93.1c2,0,2,.49,3.94.49s2-.67,3.94-.67,2,.54,3.94.54,2-.49,3.94-.49,2,.38,3.94.38,2,.17,3.93.17,2-.09,3.94-.09,2-.3,3.94-.3,2,.38,3.94.38,2-.46,3.94-.46,2,0,3.94,0,2-.33,3.94-.33,2,.52,3.93.52,2-.09,3.94-.09H99c2,0,2,.39,3.94.39s2-.34,3.93-.34,2,.37,3.94.37,2-.62,3.93-.62,2,.32,3.94.32,2-.26,3.94-.26,2,.29,3.94.29,2,0,3.93,0,2-.16,3.94-.16,2,.18,3.93.18,2,.15,3.94.15,2-.78,3.94-.78,2,.47,3.94.47,2,.07,3.94.07,2,.35,3.94.35,2-.74,3.94-.74,2,.66,3.94.66,2-.44,3.94-.44,2,.45,3.94.45,2-.8,3.94-.8,2,.36,3.94.36,2,.55,3.94.55,2-.52,3.94-.52,2,.25,3.94.25,2-.53,3.94-.53,2,.73,3.94.73,2,0,3.94,0,2-.82,3.94-.82,2,.45,3.94.45,2,.1,3.95.1,2-.48,3.94-.48,2-.07,3.94-.07,2,1,3.94,1,2-.83,3.94-.83,2-.08,3.94-.08,2-.05,3.94-.05,2,.89,3.94.89,2-.14,3.94-.14,2-.6,3.95-.6,2,.78,3.94.78,2-.27,3.95-.27,2-.6,3.94-.6,2,.68,3.94.68,2-.37,3.95-.37,2,.47,3.95.47,2,.09,3.95.09c1.32,0,2.65-.76,3.93-.63s2.55.74,3.81,1,2.45.88,3.69,1.25,2.7.17,3.9.67,2.24,1.37,3.39,2a38.67,38.67,0,0,1,3.19,2.22c1.08.72,2.08,1.51,3.09,2.33s2.19,1.43,3.11,2.35,2.1,1.63,2.93,2.64,1.23,2.34,1.95,3.42,1.27,2.26,1.89,3.41,1.49,2.16,2,3.36.56,2.56.94,3.81.46,2.52.71,3.8,1,2.46,1.1,3.76.44,2.59.44,3.91h-.23a38.33,38.33,0,0,1-.4,3.88c-.12,1.31.22,2.69,0,3.95s-.77,2.53-1.14,3.77-.93,2.46-1.42,3.65-1,2.43-1.61,3.57-1.4,2.22-2.12,3.3-1.85,1.85-2.68,2.85-1.67,2-2.59,2.87-1.53,2.16-2.53,3-2.17,1.45-3.25,2.18-2,1.79-3.13,2.4a37.71,37.71,0,0,1-3.67,1.43c-1.19.49-2.45.88-3.7,1.26s-2.48.83-3.76,1.08-2.63-.07-3.93.06S281.6,167.7,280.28,167.7Z"/><path class="cls-3" d="M50.78,117.83a7.76,7.76,0,0,1,2.78,5h-3.1a5.11,5.11,0,0,0-2-3.13,6.51,6.51,0,0,0-3.74-1,5.89,5.89,0,0,0-5.08,2.31A9.22,9.22,0,0,0,38,126.8a9.36,9.36,0,0,0,1.58,5.81,6.07,6.07,0,0,0,5.17,2.19,6.08,6.08,0,0,0,3.79-1.14A6.33,6.33,0,0,0,50.75,130h3.1a9.22,9.22,0,0,1-3.27,5.7,9,9,0,0,1-5.78,1.93c-3.42,0-6-1.11-7.71-3.27a13.59,13.59,0,0,1,.08-15.1c1.76-2.22,4.27-3.3,7.6-3.3A9.22,9.22,0,0,1,50.78,117.83Z"/><path class="cls-3" d="M62,116.64a1.93,1.93,0,0,1,.62,1.49,2.08,2.08,0,0,1-.65,1.52,2.2,2.2,0,0,1-1.51.58,2.18,2.18,0,0,1-1.52-.58,2.11,2.11,0,0,1-.62-1.52,1.93,1.93,0,0,1,.62-1.49,2,2,0,0,1,1.52-.59A2.06,2.06,0,0,1,62,116.64Zm0,5.46v15.1H58.88V122.1Z"/><path class="cls-3" d="M69.37,122.1l3.79,11.24L77,122.1h3.36l-5.61,15.1h-3.1L66,122.1Z"/><path class="cls-3" d="M87.42,116.64a1.92,1.92,0,0,1,.61,1.49,2.08,2.08,0,0,1-.64,1.52,2.25,2.25,0,0,1-1.52.58,2.19,2.19,0,0,1-1.52-.58,2.1,2.1,0,0,1-.61-1.52,1.92,1.92,0,0,1,.61-1.49,2,2,0,0,1,1.52-.59A2.1,2.1,0,0,1,87.42,116.64Zm0,5.46v15.1h-3.1V122.1Z"/><path class="cls-3" d="M104.42,123a6.43,6.43,0,0,1,2.22,4.21h-3.07a3.46,3.46,0,0,0-1.26-2.25,4,4,0,0,0-2.54-.73,3.54,3.54,0,0,0-3,1.43,6.19,6.19,0,0,0-1.11,4,6.54,6.54,0,0,0,1.08,4,3.47,3.47,0,0,0,3,1.43,3.53,3.53,0,0,0,3.89-3.45h3.07a7.4,7.4,0,0,1-2.31,4.53,7.19,7.19,0,0,1-4.67,1.46,6.66,6.66,0,0,1-5.38-2.28,9.49,9.49,0,0,1,0-11.27,6.72,6.72,0,0,1,5.46-2.37A7.61,7.61,0,0,1,104.42,123Z"/><path class="cls-3" d="M137.78,116.34v2.72h-6.95V137.2h-3.16V119.06h-7v-2.72Z"/><path class="cls-3" d="M153.49,124.2a10.25,10.25,0,0,1,1.81,6.31H143.86a5.63,5.63,0,0,0,1.19,3.39,3.76,3.76,0,0,0,2.89,1.17,4.34,4.34,0,0,0,2.63-.76,5.21,5.21,0,0,0,1.38-2H155a6.79,6.79,0,0,1-2.07,3.53,7.38,7.38,0,0,1-5,1.73,6.88,6.88,0,0,1-5.28-2.08,9.13,9.13,0,0,1-.12-11.53,6.53,6.53,0,0,1,5.29-2.31A6.64,6.64,0,0,1,153.49,124.2Zm-8.32,1a5.16,5.16,0,0,0-1.26,2.92h8.15q-.44-3.94-4.12-3.94A3.71,3.71,0,0,0,145.17,125.25Z"/><path class="cls-3" d="M170.76,123a6.43,6.43,0,0,1,2.22,4.21h-3.07a3.46,3.46,0,0,0-1.26-2.25,4,4,0,0,0-2.54-.73,3.54,3.54,0,0,0-3,1.43,6.19,6.19,0,0,0-1.11,4,6.54,6.54,0,0,0,1.08,4,3.48,3.48,0,0,0,3,1.43,3.53,3.53,0,0,0,3.88-3.45H173a7.4,7.4,0,0,1-2.31,4.53,7.19,7.19,0,0,1-4.67,1.46,6.66,6.66,0,0,1-5.38-2.28,9.49,9.49,0,0,1,0-11.27,6.72,6.72,0,0,1,5.46-2.37A7.61,7.61,0,0,1,170.76,123Z"/><path class="cls-3" d="M180.25,115.94v8.29a5.2,5.2,0,0,1,2.11-2,5.38,5.38,0,0,1,2.57-.58A5.12,5.12,0,0,1,189,123.3a6.77,6.77,0,0,1,1.32,4.52v9.38h-3.1v-8.85a5,5,0,0,0-.81-3,3.23,3.23,0,0,0-2.66-1.08,3,3,0,0,0-2.54,1.26,5,5,0,0,0-1,3.24v8.47h-3.09V115.94Z"/><path class="cls-3" d="M222.14,117.75a7.92,7.92,0,0,1,2.8,5.23h-3.21a4.86,4.86,0,0,0-1.93-3.16,6.57,6.57,0,0,0-4-1.08,6,6,0,0,0-4.82,2.07,8.86,8.86,0,0,0-1.89,6,8.53,8.53,0,0,0,1.72,5.78c1.22,1.46,3.15,2.19,5.75,2.19a11.21,11.21,0,0,0,2.89-.38,8.26,8.26,0,0,0,2.34-1V128.9h-5.75v-2.71H225V135a12.1,12.1,0,0,1-3.76,2,17.21,17.21,0,0,1-5,.7,9.71,9.71,0,0,1-7.74-3.16,11.06,11.06,0,0,1-2.57-7.59,11.43,11.43,0,0,1,2.57-7.71,9.07,9.07,0,0,1,7.33-3.21A9.87,9.87,0,0,1,222.14,117.75Z"/><path class="cls-3" d="M239,122.07v3.1a7.19,7.19,0,0,0-2.19-.33,3.4,3.4,0,0,0-2.51,1.14,4.45,4.45,0,0,0-1.17,3.22v8H230V122.1h3.1v2.28a4.45,4.45,0,0,1,1.46-1.84,3.66,3.66,0,0,1,2.45-.85A4.48,4.48,0,0,1,239,122.07Z"/><path class="cls-3" d="M254,123.35a5.93,5.93,0,0,1,1.37,4.21v9.64h-2.86v-2.13a6.23,6.23,0,0,1-2.19,1.81,8.24,8.24,0,0,1-3.5.73,5.29,5.29,0,0,1-3.68-1.2,3.75,3.75,0,0,1-1.43-3.07,4.44,4.44,0,0,1,2-3.91,9.24,9.24,0,0,1,5.2-1.37l3.39-.09v-.61q0-3.17-3.42-3.16a4.58,4.58,0,0,0-2.34.53,2.66,2.66,0,0,0-1.31,1.87l-3.07-.27a5.15,5.15,0,0,1,2.43-3.62,8.41,8.41,0,0,1,4.49-1Q252.46,121.69,254,123.35Zm-4.88,7c-2.83.06-4.23,1.06-4.23,2.93a1.7,1.7,0,0,0,.73,1.43,3,3,0,0,0,1.9.58,5,5,0,0,0,3.36-1.2,3.75,3.75,0,0,0,1.43-2.95v-.87Z"/><path class="cls-3" d="M273.7,127.88v9.32h-3.1v-9.06c0-2.57-1.19-3.85-3.53-3.85a3.17,3.17,0,0,0-2.31.93,4.54,4.54,0,0,0-1.25,2.89v9.09h-3.1V122.1h3.1V124a5.76,5.76,0,0,1,2-1.7,5.37,5.37,0,0,1,2.54-.58C271.8,121.69,273.7,123.73,273.7,127.88Z"/><path class="cls-3" d="M283.28,122.1h3.45v2.57h-3.45v8.76a1.34,1.34,0,0,0,.27.91,1.1,1.1,0,0,0,.81.29h2v2.57h-2.48a3.63,3.63,0,0,1-2.84-1,4,4,0,0,1-.84-2.75v-8.76h-2.81V122.1h2.81v-3.59l3.09-1.29Z"/></g></g></svg>