<svg xmlns="http://www.w3.org/2000/svg" viewBox="0 0 611.74 567.77"><defs><style>.cls-1{fill:#001d2f;}.cls-2,.cls-3{fill:none;stroke-linecap:round;stroke-linejoin:round;stroke-width:2.95px;}.cls-2{stroke:#f5a117;}.cls-3{stroke:#fff;}.cls-4{fill:#f5a117;}.cls-5{fill:#fff;}.cls-6{fill:#f2f3f2;}</style></defs><title>Money_en</title><g id="Layer_2" data-name="Layer 2"><g id="圖層_1" data-name="圖層 1"><path class="cls-1" d="M573.36,231.77h0q-1.12-5.28-2.47-10.49l-.24-.93c-.22-.88-.46-1.76-.7-2.65l-.3-1.09c-.24-.87-.48-1.73-.73-2.6-.1-.35-.2-.71-.31-1.07-.25-.88-.51-1.77-.78-2.65l-.06-.2h0A271.32,271.32,0,0,0,487.06,84.91a274.52,274.52,0,0,0-386.34,23.6c-2.83,3.17-4.1,4.88-6.77,8.16l18,50c6.45-10.06,14-18.07,22-27.13,19.77-22.2,43-41.69,69.61-54.83A230,230,0,0,1,511.33,187.48a226.5,226.5,0,0,1,10.87,25.59c.26.74.52,1.48.77,2.23.09.27.19.55.29.83.25.75.5,1.5.74,2.25l.27.81.75,2.39.21.68c.3,1,.59,2,.87,2.93l0,.14c.6,2.09,1.18,4.18,1.72,6.29a1,1,0,0,0,0,.14c1.37,5.31,3.87,19.45,4.85,24.87l44.44-3.45C576.54,249.19,574.21,235.72,573.36,231.77Z"/><line class="cls-2" x1="305.87" y1="134.33" x2="305.87" y2="187.3"/><line class="cls-3" x1="251.5" y1="125.58" x2="245.96" y2="112.35"/><line class="cls-3" x1="266.77" y1="162.05" x2="256.74" y2="138.09"/><line class="cls-3" x1="278.69" y1="190.7" x2="271.81" y2="174.1"/><line class="cls-2" x1="223.52" y1="171.86" x2="200.15" y2="143.04"/><line class="cls-2" x1="241.05" y1="193.55" x2="231.19" y2="181.31"/><line class="cls-2" x1="305.16" y1="101.55" x2="305.16" y2="120.78"/><line class="cls-3" x1="359.53" y1="125.58" x2="365.06" y2="112.35"/><line class="cls-3" x1="344.26" y1="162.05" x2="354.29" y2="138.09"/><line class="cls-3" x1="332.33" y1="190.7" x2="339.22" y2="174.1"/><line class="cls-2" x1="387.5" y1="171.86" x2="410.87" y2="143.04"/><line class="cls-2" x1="369.98" y1="193.55" x2="379.83" y2="181.31"/><line class="cls-2" x1="305.16" y1="421.11" x2="305.16" y2="378.14"/><line class="cls-3" x1="359.53" y1="439.87" x2="365.06" y2="453.1"/><line class="cls-3" x1="344.26" y1="403.39" x2="354.29" y2="427.35"/><line class="cls-3" x1="332.33" y1="374.74" x2="339.22" y2="391.35"/><line class="cls-2" x1="387.5" y1="391.59" x2="410.87" y2="422.4"/><line class="cls-2" x1="369.98" y1="371.9" x2="379.83" y2="384.13"/><line class="cls-2" x1="305.87" y1="463.9" x2="305.87" y2="444.66"/><line class="cls-3" x1="251.5" y1="439.87" x2="245.96" y2="453.1"/><line class="cls-3" x1="266.77" y1="403.39" x2="256.74" y2="427.35"/><line class="cls-3" x1="278.69" y1="374.74" x2="271.81" y2="391.35"/><line class="cls-2" x1="223.52" y1="393.59" x2="200.15" y2="420.4"/><line class="cls-2" x1="241.05" y1="371.9" x2="231.19" y2="384.13"/><line class="cls-2" x1="474.69" y1="238.28" x2="485.41" y2="238.28"/><line class="cls-2" x1="429.72" y1="238.28" x2="462.57" y2="238.28"/><line class="cls-3" x1="447.48" y1="208.34" x2="463.58" y2="199.55"/><line class="cls-3" x1="429.72" y1="218.04" x2="439.12" y2="212.91"/><line class="cls-2" x1="138.55" y1="238.28" x2="127.84" y2="238.28"/><line class="cls-2" x1="183.53" y1="238.28" x2="150.68" y2="238.28"/><line class="cls-3" x1="165.77" y1="208.34" x2="149.67" y2="199.55"/><line class="cls-3" x1="183.53" y1="218.04" x2="174.13" y2="212.91"/><path class="cls-1" d="M491.15,421.11c-18.79,20.72-40.07,41.34-64.85,54.41-28.3,14.93-60.17,28.23-92.38,31.05s-67.63.48-98.1-9.3c-29.43-9.45-50.82-21.76-76.59-45.35C136.37,431,116,408.25,101.57,381.11a234.89,234.89,0,0,1-26.78-90.5c-.61-7-12.23,4.34-11.74-2.69l-17.83,5c.08,7.27-17-5.6-16.38,1.72A282.26,282.26,0,0,0,129.69,487.35a286.36,286.36,0,0,0,366.17.38Z"/><path class="cls-4" d="M182.23,327.56h10.62a31.4,31.4,0,0,1,4.7.26,6.9,6.9,0,0,1,2.77,1.1,6.82,6.82,0,0,1,2,2.22,6,6,0,0,1,.82,3.11,6.29,6.29,0,0,1-3.74,5.76,7,7,0,0,1,3.74,2.41,6.4,6.4,0,0,1,1.3,4,7.89,7.89,0,0,1-.84,3.52,7,7,0,0,1-2.3,2.74,7.65,7.65,0,0,1-3.6,1.26q-1.34.15-6.47.18h-9Zm5.36,4.42v6.15h3.52c2.09,0,3.39,0,3.89-.09a3.6,3.6,0,0,0,2.17-1A2.8,2.8,0,0,0,198,335a2.92,2.92,0,0,0-.68-2,3.06,3.06,0,0,0-2-.94q-.8-.09-4.59-.09Zm0,10.57v7.11h5a23.79,23.79,0,0,0,3.68-.17,3.36,3.36,0,0,0,1.95-1.06,3.25,3.25,0,0,0,.75-2.25,3.55,3.55,0,0,0-.58-2,3.31,3.31,0,0,0-1.68-1.21,18.43,18.43,0,0,0-4.76-.38Z"/><path class="cls-4" d="M221.65,354.13v-2.88a7.33,7.33,0,0,1-2.77,2.43,7.74,7.74,0,0,1-3.61.89,7.17,7.17,0,0,1-3.48-.85,5,5,0,0,1-2.23-2.4,10.61,10.61,0,0,1-.69-4.26V334.88H214v8.85a25.13,25.13,0,0,0,.28,5,2.69,2.69,0,0,0,1,1.45,3.1,3.1,0,0,0,1.88.54,4,4,0,0,0,2.34-.72,3.67,3.67,0,0,0,1.42-1.77,20.88,20.88,0,0,0,.38-5.2v-8.12h5.09v19.25Z"/><path class="cls-4" d="M240.48,334.88v4.06H237v7.76a18.78,18.78,0,0,0,.1,2.75,1.15,1.15,0,0,0,.45.64,1.45,1.45,0,0,0,.86.25,6.42,6.42,0,0,0,2.05-.49l.44,4a10.3,10.3,0,0,1-4,.76,6.34,6.34,0,0,1-2.48-.47,3.51,3.51,0,0,1-1.62-1.19,4.6,4.6,0,0,1-.72-2,24.49,24.49,0,0,1-.16-3.58v-8.4h-2.34v-4.06h2.34v-3.82l5.11-3v6.79Z"/><path class="cls-4" d="M252.84,334.88v4.06h-3.48v7.76a18.78,18.78,0,0,0,.1,2.75,1.15,1.15,0,0,0,.45.64,1.45,1.45,0,0,0,.86.25,6.42,6.42,0,0,0,2-.49l.44,4a10.3,10.3,0,0,1-4,.76,6.37,6.37,0,0,1-2.48-.47,3.51,3.51,0,0,1-1.62-1.19,4.74,4.74,0,0,1-.72-2,24.49,24.49,0,0,1-.16-3.58v-8.4h-2.34v-4.06h2.34v-3.82l5.11-3v6.79Z"/><path class="cls-4" d="M267.52,348l5.08.85a8.4,8.4,0,0,1-3.09,4.25,9.11,9.11,0,0,1-5.29,1.46c-3.34,0-5.82-1.1-7.43-3.28a11,11,0,0,1-1.9-6.64q0-4.78,2.5-7.49a8.24,8.24,0,0,1,6.33-2.71,8.52,8.52,0,0,1,6.77,2.83c1.66,1.9,2.45,4.79,2.38,8.7H260.11a5.18,5.18,0,0,0,1.23,3.52,3.87,3.87,0,0,0,2.94,1.26,3.13,3.13,0,0,0,2-.65A4.11,4.11,0,0,0,267.52,348Zm.29-5.15a4.82,4.82,0,0,0-1.14-3.36,3.68,3.68,0,0,0-5.4.06,4.69,4.69,0,0,0-1.07,3.3Z"/><path class="cls-4" d="M281.9,354.13h-5.1V334.88h4.73v2.74a8.36,8.36,0,0,1,2.19-2.56,4,4,0,0,1,2.2-.61,6.44,6.44,0,0,1,3.35,1l-1.57,4.44a4.45,4.45,0,0,0-2.4-.83,2.84,2.84,0,0,0-1.81.58,4.1,4.1,0,0,0-1.17,2.13,30.74,30.74,0,0,0-.42,6.46Z"/><path class="cls-4" d="M289.24,334.88h2.82v-1.45a9.69,9.69,0,0,1,.52-3.62,4.06,4.06,0,0,1,1.9-1.95,7.36,7.36,0,0,1,3.51-.75,14.34,14.34,0,0,1,4.26.65l-.69,3.55a10.26,10.26,0,0,0-2.34-.29,2.06,2.06,0,0,0-1.58.52,3,3,0,0,0-.48,2v1.36H301v4h-3.8v15.24h-5.1V338.89h-2.82Z"/><path class="cls-4" d="M303.83,354.13V327.56h5.09v26.57Z"/><path class="cls-4" d="M311.73,334.88h5.42l4.6,13.67,4.5-13.67h5.27l-6.79,18.53-1.22,3.35a13.52,13.52,0,0,1-1.28,2.57,5.32,5.32,0,0,1-1.39,1.44,6.2,6.2,0,0,1-1.94.87,10.38,10.38,0,0,1-2.6.3,13.8,13.8,0,0,1-2.88-.3l-.46-4a11,11,0,0,0,2.16.23,3.19,3.19,0,0,0,2.63-1,7.3,7.3,0,0,0,1.3-2.65Z"/><path class="cls-4" d="M356.24,348l5.08.85a8.29,8.29,0,0,1-3.09,4.25,9.1,9.1,0,0,1-5.28,1.46c-3.35,0-5.83-1.1-7.44-3.28a11.12,11.12,0,0,1-1.9-6.64q0-4.78,2.5-7.49a8.24,8.24,0,0,1,6.33-2.71,8.56,8.56,0,0,1,6.78,2.83c1.65,1.9,2.44,4.79,2.37,8.7H348.83a5.18,5.18,0,0,0,1.23,3.52,3.87,3.87,0,0,0,2.94,1.26,3.13,3.13,0,0,0,2-.65A4,4,0,0,0,356.24,348Zm.29-5.15a4.82,4.82,0,0,0-1.14-3.36,3.47,3.47,0,0,0-2.64-1.15,3.54,3.54,0,0,0-2.76,1.21,4.74,4.74,0,0,0-1.07,3.3Z"/><path class="cls-4" d="M363.51,334.88h2.83v-1.45a9.48,9.48,0,0,1,.52-3.62,4.06,4.06,0,0,1,1.9-1.95,7.3,7.3,0,0,1,3.51-.75,14.34,14.34,0,0,1,4.26.65l-.69,3.55a10.26,10.26,0,0,0-2.34-.29,2.07,2.07,0,0,0-1.59.52,3,3,0,0,0-.48,2v1.36h3.81v4h-3.81v15.24h-5.09V338.89h-2.83Z"/><path class="cls-4" d="M375.87,334.88h2.83v-1.45a9.48,9.48,0,0,1,.52-3.62,4.06,4.06,0,0,1,1.9-1.95,7.33,7.33,0,0,1,3.51-.75,14.34,14.34,0,0,1,4.26.65l-.69,3.55a10.26,10.26,0,0,0-2.34-.29,2.07,2.07,0,0,0-1.59.52,3,3,0,0,0-.48,2v1.36h3.81v4h-3.81v15.24H378.7V338.89h-2.83Z"/><path class="cls-4" d="M401.61,348l5.08.85a8.4,8.4,0,0,1-3.09,4.25,9.11,9.11,0,0,1-5.29,1.46c-3.35,0-5.82-1.1-7.43-3.28a11,11,0,0,1-1.9-6.64q0-4.78,2.5-7.49a8.22,8.22,0,0,1,6.32-2.71,8.53,8.53,0,0,1,6.78,2.83c1.66,1.9,2.45,4.79,2.38,8.7H394.2a5.09,5.09,0,0,0,1.23,3.52,3.86,3.86,0,0,0,2.94,1.26,3.15,3.15,0,0,0,2-.65A4.11,4.11,0,0,0,401.61,348Zm.29-5.15a4.87,4.87,0,0,0-1.14-3.36,3.68,3.68,0,0,0-5.4.06,4.69,4.69,0,0,0-1.07,3.3Z"/><path class="cls-4" d="M427.89,340.57l-5,.91a3.61,3.61,0,0,0-1.15-2.26,3.46,3.46,0,0,0-2.33-.77,3.78,3.78,0,0,0-3,1.32c-.76.87-1.14,2.34-1.14,4.39,0,2.29.39,3.9,1.15,4.84a3.77,3.77,0,0,0,3.09,1.42,3.45,3.45,0,0,0,2.38-.83,4.89,4.89,0,0,0,1.3-2.83l5,.85a8.91,8.91,0,0,1-3,5.2,9.28,9.28,0,0,1-5.93,1.76,8.78,8.78,0,0,1-6.73-2.67,10.28,10.28,0,0,1-2.51-7.37c0-3.18.83-5.66,2.51-7.43a9,9,0,0,1,6.82-2.65,9.29,9.29,0,0,1,5.59,1.51A8.4,8.4,0,0,1,427.89,340.57Z"/><path class="cls-4" d="M440.58,334.88v4.06H437.1v7.76a18.78,18.78,0,0,0,.1,2.75,1.15,1.15,0,0,0,.45.64,1.45,1.45,0,0,0,.86.25,6.42,6.42,0,0,0,2.05-.49l.44,4a10.3,10.3,0,0,1-4,.76,6.34,6.34,0,0,1-2.48-.47,3.51,3.51,0,0,1-1.62-1.19,4.74,4.74,0,0,1-.72-2,24.49,24.49,0,0,1-.16-3.58v-8.4h-2.34v-4.06H432v-3.82l5.11-3v6.79Z"/><path class="cls-5" d="M265.87,233.39l7.67,2.43q-1.77,6.41-5.87,9.53a18.46,18.46,0,0,1-23.23-2.22q-5-5.34-5-14.58,0-9.78,5.05-15.19T257.75,208q7.19,0,11.67,4.25a15.45,15.45,0,0,1,4,7.21l-7.83,1.87a8.09,8.09,0,0,0-8.26-6.57,8.88,8.88,0,0,0-7.06,3.13Q247.57,221,247.56,228q0,7.44,2.68,10.58a8.64,8.64,0,0,0,6.94,3.16,7.92,7.92,0,0,0,5.43-2A11.62,11.62,0,0,0,265.87,233.39Z"/><path class="cls-5" d="M280.27,215.56v-6.94h7.51v6.94Zm0,32.23V219.41h7.51v28.38Z"/><path class="cls-5" d="M303.28,247.79l-11.44-28.38h7.88l5.35,14.49,1.55,4.83c.41-1.23.66-2,.77-2.43.25-.8.52-1.6.8-2.4l5.4-14.49h7.72L310,247.79Z"/><path class="cls-5" d="M325.91,215.56v-6.94h7.51v6.94Zm0,32.23V219.41h7.51v28.38Z"/><path class="cls-5" d="M365.86,227.8l-7.41,1.34a5.33,5.33,0,0,0-1.69-3.34,5.12,5.12,0,0,0-3.44-1.12,5.59,5.59,0,0,0-4.47,1.93c-1.12,1.3-1.67,3.46-1.67,6.48,0,3.37.56,5.75,1.7,7.14a5.56,5.56,0,0,0,4.55,2.08,5.05,5.05,0,0,0,3.5-1.21,7.36,7.36,0,0,0,1.93-4.19l7.37,1.26a13.12,13.12,0,0,1-4.41,7.67q-3.26,2.59-8.74,2.59a13,13,0,0,1-9.92-3.93q-3.71-3.93-3.7-10.87t3.71-10.94q3.72-3.91,10.05-3.92a13.76,13.76,0,0,1,8.24,2.23A12.39,12.39,0,0,1,365.86,227.8Z"/><path class="cls-5" d="M180.22,305.79V273.24H168.59v-6.62h31.13v6.62H188.13v32.55Z"/><path class="cls-5" d="M217.14,296.76l7.49,1.25a12.32,12.32,0,0,1-4.56,6.27,13.42,13.42,0,0,1-7.79,2.15q-7.4,0-11-4.84a16.23,16.23,0,0,1-2.8-9.77q0-7.06,3.69-11.05a12.1,12.1,0,0,1,9.32-4,12.65,12.65,0,0,1,10,4.18q3.66,4.19,3.5,12.82H206.21A7.6,7.6,0,0,0,208,299a5.68,5.68,0,0,0,4.33,1.86,4.62,4.62,0,0,0,3-1A6,6,0,0,0,217.14,296.76Zm.43-7.59a7.22,7.22,0,0,0-1.68-5,5.43,5.43,0,0,0-8,.1,6.94,6.94,0,0,0-1.57,4.86Z"/><path class="cls-5" d="M255.89,285.8l-7.4,1.34a5.39,5.39,0,0,0-1.7-3.34,5.11,5.11,0,0,0-3.43-1.12,5.61,5.61,0,0,0-4.48,1.93q-1.66,2-1.67,6.48,0,5.06,1.7,7.14a5.56,5.56,0,0,0,4.55,2.08,5.05,5.05,0,0,0,3.5-1.21,7.36,7.36,0,0,0,1.93-4.19l7.37,1.26a13,13,0,0,1-4.41,7.67q-3.25,2.6-8.73,2.59a13,13,0,0,1-9.93-3.93q-3.7-3.93-3.7-10.87t3.71-10.94q3.72-3.92,10.05-3.92a13.76,13.76,0,0,1,8.24,2.23A12.39,12.39,0,0,1,255.89,285.8Z"/><path class="cls-5" d="M269.06,266.62V281a11.26,11.26,0,0,1,13.36-3.29,7.59,7.59,0,0,1,3.14,2.46A8.69,8.69,0,0,1,287,283.5a29.57,29.57,0,0,1,.39,5.64v16.65h-7.51v-15a22.55,22.55,0,0,0-.42-5.66,3.77,3.77,0,0,0-1.51-1.92,4.91,4.91,0,0,0-2.72-.7,6.28,6.28,0,0,0-3.34.9,5.29,5.29,0,0,0-2.15,2.74,16.5,16.5,0,0,0-.68,5.41v14.22h-7.51V266.62Z"/><path class="cls-5" d="M328.49,291.39v-6.6h17.05v15.6a21.37,21.37,0,0,1-7.21,4.24,26.16,26.16,0,0,1-9.55,1.83,21.39,21.39,0,0,1-10.71-2.58,16.37,16.37,0,0,1-6.87-7.38,23.82,23.82,0,0,1-2.3-10.43,22.59,22.59,0,0,1,2.57-10.88A17.24,17.24,0,0,1,319,267.9a20.22,20.22,0,0,1,9.37-1.95q7.31,0,11.4,3.06a13.87,13.87,0,0,1,5.28,8.46l-7.86,1.47a8.27,8.27,0,0,0-3.11-4.56,9.44,9.44,0,0,0-5.71-1.67,10.73,10.73,0,0,0-8.24,3.29q-3.06,3.28-3.06,9.75,0,7,3.1,10.46a10.33,10.33,0,0,0,8.12,3.49,13.67,13.67,0,0,0,5-1,17.49,17.49,0,0,0,4.29-2.36v-5Z"/><path class="cls-5" d="M360,305.79h-7.5V277.41h7v4a12.14,12.14,0,0,1,3.22-3.77,5.87,5.87,0,0,1,3.25-.91,9.48,9.48,0,0,1,4.94,1.42l-2.32,6.54A6.63,6.63,0,0,0,365,283.5a4.16,4.16,0,0,0-2.67.87,6,6,0,0,0-1.73,3.14Q360,289.79,360,297Z"/><path class="cls-5" d="M379.68,286.07l-6.81-1.23a10.6,10.6,0,0,1,4-6.09c1.87-1.32,4.64-2,8.33-2q5,0,7.48,1.19a7.4,7.4,0,0,1,3.46,3q1,1.83,1,6.72l-.08,8.76a30.44,30.44,0,0,0,.36,5.52,15.92,15.92,0,0,0,1.35,3.81h-7.43q-.3-.75-.72-2.22c-.13-.44-.22-.74-.27-.88a13.61,13.61,0,0,1-4.12,2.81,11.83,11.83,0,0,1-4.67.93,9.65,9.65,0,0,1-6.91-2.38,7.9,7.9,0,0,1-2.52-6,8.14,8.14,0,0,1,1.14-4.29,7.51,7.51,0,0,1,3.22-2.88,25.22,25.22,0,0,1,6-1.75,40.66,40.66,0,0,0,7.29-1.85v-.75a3.88,3.88,0,0,0-1.07-3.08c-.71-.62-2.05-.92-4-.92a5.42,5.42,0,0,0-3.13.78A5.54,5.54,0,0,0,379.68,286.07Zm10.05,6.09a45,45,0,0,1-4.57,1.15,13.87,13.87,0,0,0-4.09,1.31,3.14,3.14,0,0,0-1.47,2.65,3.68,3.68,0,0,0,1.18,2.72,4.08,4.08,0,0,0,3,1.15,6.45,6.45,0,0,0,3.88-1.34,4.68,4.68,0,0,0,1.79-2.48,15.18,15.18,0,0,0,.29-3.66Z"/><path class="cls-5" d="M430.32,305.79h-7.51V291.31a22.44,22.44,0,0,0-.48-5.95,4.18,4.18,0,0,0-1.56-2.1,4.53,4.53,0,0,0-2.61-.74,6,6,0,0,0-3.5,1.07,5.35,5.35,0,0,0-2.12,2.83,24.1,24.1,0,0,0-.58,6.52v12.85h-7.51V277.41h7v4.17a11.34,11.34,0,0,1,9.35-4.81,11.18,11.18,0,0,1,4.54.9,7.68,7.68,0,0,1,3.12,2.28,8.44,8.44,0,0,1,1.47,3.15,23.94,23.94,0,0,1,.41,5Z"/><path class="cls-5" d="M451,277.41v6h-5.13v11.43a30.44,30.44,0,0,0,.14,4.05,1.68,1.68,0,0,0,.67.95,2.12,2.12,0,0,0,1.27.38,9.79,9.79,0,0,0,3-.73l.64,5.83a14.86,14.86,0,0,1-5.93,1.12,9.51,9.51,0,0,1-3.66-.68,5.31,5.31,0,0,1-2.39-1.76,7,7,0,0,1-1.06-2.93,36.47,36.47,0,0,1-.24-5.29V283.4h-3.44v-6h3.44v-5.64l7.54-4.38v10Z"/><path class="cls-6" d="M611.55,255.27a2.47,2.47,0,0,0-2.35-1.51l-19.39.68q-.67-6.54-1.64-13h0c-.55-3.7-1.2-7.4-1.9-11.07-.06-.33-.12-.66-.19-1-.18-.94-.37-1.87-.56-2.8l-.24-1.16c-.2-.92-.39-1.83-.6-2.75-.08-.38-.16-.75-.25-1.13-.21-.94-.43-1.88-.65-2.81a1.6,1.6,0,0,0,0-.21h0A282.8,282.8,0,0,0,507.68,83.1a286.2,286.2,0,0,0-403.55,0q-4.72,4.68-9.19,9.56l17.21,51.63a240.1,240.1,0,0,1,363-28.47,236.88,236.88,0,0,1,60.95,102.89l.66,2.36.24.89c.22.8.43,1.59.64,2.39.07.29.15.58.22.86.22.85.42,1.69.63,2.54l.18.72c.25,1,.49,2.07.72,3.1a.83.83,0,0,0,0,.15c.49,2.21,1,4.43,1.39,6.65l0,.15q1.7,8.7,2.72,17.54l-16.38.57a2.46,2.46,0,0,0-1.48,4.36L568,295.78a2.43,2.43,0,0,0,1.56.56,2.48,2.48,0,0,0,1.69-.67l17.9-17a2.82,2.82,0,0,0,2.09-2L611,258A2.47,2.47,0,0,0,611.55,255.27Z"/><path class="cls-1" d="M38.37,336h0q1.13,5.28,2.47,10.5l.23.92c.23.89.47,1.77.71,2.65l.3,1.09c.23.87.48,1.74.73,2.6l.3,1.07c.26.89.52,1.77.79,2.66l.06.19h0a271.4,271.4,0,0,0,80.72,125.19A274.52,274.52,0,0,0,511,459.26c2.83-3.18,4.1-4.88,6.77-8.17l-18-49.94c-6.46,10.05-14,18.07-22,27.12-19.77,22.21-43,41.7-69.61,54.83a230.25,230.25,0,0,1-254.22-33.47,227,227,0,0,1-53.5-69.35,224.68,224.68,0,0,1-10.87-25.59c-.26-.74-.52-1.48-.77-2.22-.1-.28-.19-.56-.29-.83-.25-.75-.5-1.51-.74-2.26l-.27-.81-.75-2.39-.21-.68c-.3-1-.59-1.95-.88-2.93a.65.65,0,0,0,0-.13c-.6-2.09-1.18-4.19-1.72-6.29,0,0,0-.09,0-.14C82.46,330.69,80,316.55,79,311.13l-44.44,3.45C35.2,318.58,37.53,332.05,38.37,336Z"/><path class="cls-1" d="M9,311.15a2.4,2.4,0,0,0,2.28,1.67l19.22-.41c0,.17,0,.34,0,.52L76.37,312c0-.2,0-.4-.05-.61l18.81-.28a2.52,2.52,0,0,0,2.27-1.77,2.84,2.84,0,0,0-.68-2.94L53.36,267.79a2.29,2.29,0,0,0-1.53-.63,2.37,2.37,0,0,0-1.69.7L31.89,286l-2.12-.19c0,.77,0,1.54,0,2.32l-20.14,20A2.91,2.91,0,0,0,9,311.15Z"/><path class="cls-6" d="M.19,312.5A2.5,2.5,0,0,0,2.54,314l19.39-.68q.67,6.53,1.64,13h0q.83,5.57,1.9,11.08c.06.33.12.65.19,1,.18.93.37,1.86.56,2.8l.24,1.15c.19.92.39,1.84.6,2.75.08.38.16.76.25,1.14.21.93.42,1.87.65,2.81,0,.07,0,.14,0,.21h0a282.92,282.92,0,0,0,76.05,135.41,286.2,286.2,0,0,0,403.55,0q4.73-4.69,9.19-9.56l-17.21-51.64a240.09,240.09,0,0,1-363,28.48,236.93,236.93,0,0,1-51.26-75.58,232.94,232.94,0,0,1-9.69-27.32L75,346.69c-.08-.29-.16-.59-.25-.88l-.63-2.4c-.07-.28-.15-.57-.22-.86-.22-.84-.42-1.69-.63-2.53l-.18-.72c-.25-1-.49-2.07-.72-3.11,0-.05,0-.1,0-.14-.49-2.21-1-4.43-1.39-6.65l0-.15q-1.69-8.7-2.72-17.54l16.38-.58A2.46,2.46,0,0,0,86,306.78L43.75,272a2.49,2.49,0,0,0-1.56-.56,2.44,2.44,0,0,0-1.69.68l-17.9,17a2.83,2.83,0,0,0-2.09,2L.77,309.77A2.46,2.46,0,0,0,.19,312.5Z"/></g></g></svg>