<svg xmlns="http://www.w3.org/2000/svg" viewBox="0 0 611.74 567.77"><defs><style>.cls-1{fill:#001d2f;}.cls-2{fill:#f5a117;}.cls-3{fill:#f2f3f2;}.cls-4,.cls-5{fill:none;stroke-linecap:round;stroke-linejoin:round;stroke-width:2.95px;}.cls-4{stroke:#f5a117;}.cls-5{stroke:#fff;}</style></defs><title>Asset 1</title><g id="Layer_2" data-name="Layer 2"><g id="圖層_1" data-name="圖層 1"><path class="cls-1" d="M228.81,250.61c1.28.27,1.68.27,2.69.41a24.55,24.55,0,0,0-3.83-5.78,70.22,70.22,0,0,0,7.53-.94,22.88,22.88,0,0,0-2.42-2.56l-1.82.67a20.78,20.78,0,0,0-3.43-5.17v24.47a45.17,45.17,0,0,0,.34,7.25h-9.54a69.35,69.35,0,0,0,.27-7.73v-5.37h-2.29a25.29,25.29,0,0,1-5.24,14.31,23.47,23.47,0,0,0-7.33-5.37,14.82,14.82,0,0,0,4.17-8.88c-1.41.07-1.82.07-3.23.21v-8.74c2.15.27,3.16.27,9.41.27h4.51v-2.15h-8.34a27.46,27.46,0,0,0-3.56.13c.07-.94.07-1.54.07-2.82v-9.35a14.09,14.09,0,0,0-.14-2.62h9a12.64,12.64,0,0,0-.14,2.62v5h3.1v-2.69a35.36,35.36,0,0,0-.41-6.92h9.68a33.87,33.87,0,0,0-.34,6.32c6.32-1.82,10.56-4.24,12.91-7.33l9.81,1.48c-.4.47-.4.47-1.14,1.41-.2.27-.47.54-.94,1.07h9.14c1.08,0,1.55,0,3.5-.13l4.7,4.7c-.67.54-.67.54-4.23,3.9a46.94,46.94,0,0,1-9.35,6.19h8.67a34.05,34.05,0,0,0-.26,4.64h.4a20.68,20.68,0,0,0,5.11-.48V259a35.37,35.37,0,0,0-5.11-.41h-.4v4a5.31,5.31,0,0,1-2.22,4.77c-1,.67-1.75.87-3.9,1,.87.94,1.21,1.28,2.08,2.28a63.25,63.25,0,0,0,9.68-.47v8.61c-2-.2-3.7-.34-5.38-.34H245.55c5,3.09,11.63,4.64,19.89,4.64.47,0,1.08,0,1.89-.07a24.89,24.89,0,0,0-3.3,9.55c-7.86-.54-12.63-1.55-17.2-3.57a32.55,32.55,0,0,1-11.57-8.26,22.14,22.14,0,0,1-9.34,7.53c-5.24,2.28-10,3.29-18.48,3.89a27.29,27.29,0,0,0-3.9-9.27c10.69,0,17-1.35,21.24-4.44H211.13c-2.08,0-4.1.14-6.18.34V270a49.38,49.38,0,0,0,9.81.6h14.86a13.72,13.72,0,0,0,.4-3A2.68,2.68,0,0,0,230,267h6.19a31.22,31.22,0,0,0-5.38-5.51l5-2.83h-.87a29.65,29.65,0,0,0-6.12.47Zm15-8.46a20.63,20.63,0,0,0-4.1-3.57c-.74.47-1,.61-1.75,1a18,18,0,0,1,3.5,3.3A21,21,0,0,0,243.8,242.15Zm7.39,8.94a22.78,22.78,0,0,0-.26-4.17,49.85,49.85,0,0,1-12.17,4.17Zm-11.42,17.07c-.14,1.07-.2,1.48-.34,2.48h7.87a35.21,35.21,0,0,0-3.1-2.82l2.56-1a18.45,18.45,0,0,0-1.82-5.84,32.78,32.78,0,0,0,4.71.47c1,0,1.54-.47,1.54-1.28v-1.55h-12a35.61,35.61,0,0,1,5.72,6.19Zm5.85-30.92a38.51,38.51,0,0,1,3.29,2.75,32.23,32.23,0,0,0,4.37-2.75Z"/><path class="cls-1" d="M306,275.89c3.5-6.39,5-13.24,5.51-24.67a60.13,60.13,0,0,0-6.25.27V241.27a56,56,0,0,0,6.45.27c.07-1.34.07-2.42.07-3.09.07-1.68.07-2.76.07-3.36a51.15,51.15,0,0,0-.34-6.05h10.89c-.27,2-.27,2-.47,12.5h7c3.56,0,5.51-.07,7.93-.27a59,59,0,0,0-.27,6.72c-.2,19.16-.94,30.32-2.35,35.69-1.54,5.92-3.9,7.53-11.22,7.53-1.89,0-4-.07-6.25-.2a28.16,28.16,0,0,0-1.89-9.95,43.32,43.32,0,0,1-9.14,11.77,32.42,32.42,0,0,0-8.2-7.33,32.24,32.24,0,0,0,5.31-4.91c-4.17,1.55-16.73,5.58-22.51,7.13-2,.6-2.49.74-4.78,1.48L274,278.11a31.66,31.66,0,0,0,3.83-.54V238.18c0-3.7-.07-5.44-.13-7.26a47.47,47.47,0,0,0,4.77.2h16.74c1.94,0,3.22-.07,4.77-.2-.07,1.48-.14,3.16-.14,7.26v33.14l2.22-.61Zm-12.1-30.25v-5.11h-6.18v5.11Zm0,14.25v-5.24h-6.18v5.24Zm-6.18,15.59c2-.4,2.89-.6,6.18-1.41V268.9h-6.18Zm33.94-24.26c-.06.94-.06,1.68-.06,2.15-.41,11.7-2.42,20-6.66,27.69a57.4,57.4,0,0,0,6.25.54c2.35,0,3-.67,3.63-4.17.94-5.1,1.41-13,1.48-26.21Z"/><path class="cls-1" d="M367.07,254.78c-2.62,0-4.64.07-6.92.27v-3.23a74.67,74.67,0,0,1-11,5.38,50.45,50.45,0,0,0-5-9.88,56.62,56.62,0,0,0,18.08-9.14,33.33,33.33,0,0,0,8.54-8.81h11.49a35.27,35.27,0,0,0,8.67,8.61,51.93,51.93,0,0,0,18,8.87,52.24,52.24,0,0,0-4.64,10.55,71.19,71.19,0,0,1-11.63-5.78v3.43a67.55,67.55,0,0,0-7-.27h-4.17v4.37h15.33a63.59,63.59,0,0,0,7.93-.34v9.95a59.56,59.56,0,0,0-8.07-.4H391.4l8.67,3a74.36,74.36,0,0,1-5.17,9.55h3.49a72,72,0,0,0,8.41-.4v10.08a86.16,86.16,0,0,0-8.68-.41H355.51a90,90,0,0,0-9.14.41V280.53a87.93,87.93,0,0,0,9.07.4h2.09a39,39,0,0,0-4.71-9.68l8.67-2.89h-5a68.37,68.37,0,0,0-8.07.4v-9.95a61.08,61.08,0,0,0,8.14.34H371.1v-4.37Zm4,13.58h-8.46a57.21,57.21,0,0,1,4.83,9.95l-8.4,2.62h12ZM384.41,246a42.55,42.55,0,0,1-7.86-7.6,41.68,41.68,0,0,1-7.73,7.6Zm8.94,35-8.2-2.76a36.46,36.46,0,0,0,5-9.81h-8.61v12.57Z"/><path class="cls-2" d="M191.63,337.83a26.69,26.69,0,0,1-2.83,6.39,20.23,20.23,0,0,0-4.29-5c2.51-4.06,3.33-8,3.33-16.6,0-1.32,0-2.21-.08-3.1-.27.12-.35.19-.7.35a19,19,0,0,0-2.48-5.19c4.34-2,7.28-4.1,9.33-6.62h5.93a22.94,22.94,0,0,0,7.47,4.76c0-.81-.08-1.2-.16-1.89H213a30.59,30.59,0,0,0-.16,3.83v16.14a23.64,23.64,0,0,0,.16,3.87h-5.89a24.45,24.45,0,0,0,.2-3.91V314.84a30.91,30.91,0,0,0-1.67,3.4c-1.28-.69-1.78-1-2.78-1.62v1.43c-.82,0-1.4-.08-2.21-.08h-6.47a16.78,16.78,0,0,0-2.28.08v-1.2c-1.08.77-1.94,1.39-3.17,2.13,1.27,0,1.43,0,2.74,0h10.88c1.55,0,2.17,0,3.14-.12-.08.89-.12,1.74-.12,2.9V329a20.27,20.27,0,0,0,.12,2.94c-1.13-.08-1.63-.08-2.52-.08H192.87c-.08.54-.12.74-.16,1.08h10.84c1,0,1.67,0,2.6-.07-.08.89-.08,1.62-.08,2.75v5.14a21.84,21.84,0,0,0,.15,3h-5.57v-1h-3.79v1.55h-5.42a16.91,16.91,0,0,0,.19-3Zm1.66-10.92c0,.55,0,.66-.07,1.24h6.69v-1.24Zm6.62-3v-1.2h-6.54v1.2Zm-.46-9.67a15.93,15.93,0,0,1-2.28-2.05,20.8,20.8,0,0,1-2,2.05Zm-2.56,24.46h3.76V336.9h-3.76Zm23.81-30.54a26.47,26.47,0,0,0-.23,4.68v25.63c0,4.41-1.36,5.5-6.85,5.5-.62,0-.66,0-3.8-.12a18.62,18.62,0,0,0-1.39-5.69,35.41,35.41,0,0,0,4.49.35c1.47,0,1.82-.23,1.82-1.16V313.06a38.46,38.46,0,0,0-.23-4.92Z"/><path class="cls-2" d="M226,322a19.82,19.82,0,0,0,3.21.19H233a24.71,24.71,0,0,0,3-.15,41.91,41.91,0,0,0-.15,4.37v9.1a4,4,0,0,0,2.32,1.93c1.51.58,3.6.82,7.13.82a146.2,146.2,0,0,0,17.69-.82,25.36,25.36,0,0,0-1.44,6.12c-3.44.12-8,.19-13.93.19-7.09,0-9.29-.23-11.62-1.28a8.24,8.24,0,0,1-3-2.2,37.15,37.15,0,0,1-4.1,3.1c-.31.23-.73.5-1.12.81L225.19,338a7.53,7.53,0,0,0,1.2-.54c.12-.08.35-.2.74-.43a31.22,31.22,0,0,0,2.94-1.9v-7.39h-1.63a20.34,20.34,0,0,0-2.43.19Zm4.06-14a60.49,60.49,0,0,1,6.77,6.58,16.68,16.68,0,0,0,3-6.38l5.62,1-.27.82c0,.07-.31.89-.62,1.66h2V311a16.88,16.88,0,0,0-.19-3.21h6.15a16.36,16.36,0,0,0-.19,3.21v.66H256a34.74,34.74,0,0,0,4.57-.23v5.46a41.69,41.69,0,0,0-4.34-.16h-3.87v2H258a26.27,26.27,0,0,0,3.6-.16V324a27.1,27.1,0,0,0-3.6-.19H239.9c-1.16,0-2.05,0-3.13.11v-5.34a22.32,22.32,0,0,0,3.25.16,20.27,20.27,0,0,0-4.14-2.52l-3.33,3.21a56.8,56.8,0,0,0-6.93-7.35Zm11.46,28.69a22.15,22.15,0,0,0-3,.11c.08-.92.08-.92.08-6.73v-1.67a29.63,29.63,0,0,0-.12-3.32c1,.07,2.21.11,4.3.11h13c1.85,0,2.86,0,3.94-.11-.07.92-.11,1.58-.11,4.1v3.95a36.52,36.52,0,0,0,.08,3.67,31.32,31.32,0,0,0-3.6-.11Zm5-18v-2H242.3c-.5.85-.73,1.2-1.27,2ZM244.08,332h9.8v-2.06h-9.8Z"/><path class="cls-2" d="M285,340v2.44h-4.45c0-.12,0-.43,0-1l-3.56,1.12c0-1.32,0-1.82-.08-2.59a86.54,86.54,0,0,1-8.6,2.71,7.79,7.79,0,0,0-1.31.42l-1.09-6a34.7,34.7,0,0,0,4.73-.66v-5.61c-2.13,0-2.87,0-3.84.12a41.56,41.56,0,0,0,.16-4.38v-9c0-2.09,0-2.86-.16-4.33,1.28.07,2.33.11,3.88.11v-1.39a25.86,25.86,0,0,0-.24-4.3h5.54a26.56,26.56,0,0,0-.19,4.3v1.39a32.53,32.53,0,0,0,3.83-.11c-.08,1-.08,1.54-.08,3.94V327c0,2.52,0,3.06.08,4a31.13,31.13,0,0,0-3.22-.08H275.4v4.57a2.29,2.29,0,0,1,.66-.2l.46-.15c-.15-1.12-.31-2-.42-2.63l3.29-.62a84.24,84.24,0,0,1,1.28,9.06c0-1.2,0-2.09,0-2.67V326.84c0-1.59,0-2.91-.11-3.76a18.7,18.7,0,0,0,2.09.12H283v-3.87h-.89a9.44,9.44,0,0,0-1.63.15v-5.77a1.41,1.41,0,0,1,.24,0,5.44,5.44,0,0,0,1.39.16H283v-2a24,24,0,0,0-.27-4.22h5.65a30.24,30.24,0,0,0-.19,4.22v2h.69a12.94,12.94,0,0,0,1.75-.16v5.73a2.37,2.37,0,0,1-.55,0c-.27,0-1-.11-1.16-.11h-.73v3.87a13.88,13.88,0,0,0,2.05-.16,24,24,0,0,0-.12,3.33v9.8c.93-2.83,1.32-8.09,1.32-18.51,0-5-.08-7.28-.23-9.1a29,29,0,0,0,3.25.16h5.07a16,16,0,0,0,3-.16c-.08,1.05-.15,2.79-.15,4.19v26.51c0,2.21-.47,3.45-1.4,4s-2,.62-4.26.62c-.31,0-.69,0-1.62,0a21.75,21.75,0,0,0-.78-4.76,17.74,17.74,0,0,1-2.36,5.3,17.28,17.28,0,0,0-4.57-3.56c.31-.35.47-.54.66-.77Zm-14.63-21.29v6.85h1.08v-6.85Zm5,6.85h1v-6.85h-1Zm9.25,9.06h1.71V328.5h-1.71Zm10.76-2.75a39.68,39.68,0,0,1-.92,6.35,14,14,0,0,0,2.2.19c.7,0,.93-.15.93-.73v-5.81Zm.24-5.23h2V323h-1.93Zm2-8.86V314.1h-1.86v3.72Z"/><path class="cls-2" d="M337.46,333.57a19.76,19.76,0,0,0,6.73,4.49,22.67,22.67,0,0,0-2.9,5.27,21.52,21.52,0,0,1-6.58-5.85c0,1.16.07,1.59.07,2.09v2.21a15.66,15.66,0,0,0,.16,2.67H329a17.72,17.72,0,0,0,.15-2.79v-2c0-.54,0-1.28.08-2a20.18,20.18,0,0,1-6.51,5.92,18.74,18.74,0,0,0-1.16-2.13l-2.2.73c-.08-1.12-.12-1.39-.2-2.2-2.05.73-6.27,2-8.9,2.63a18.22,18.22,0,0,0-2.21.62l-1.16-6a37.85,37.85,0,0,0,5.07-.58v-5.65h-.58c-1.55,0-2.75,0-3.75.11.11-1.31.15-2.36.15-4.53V318c0-2,0-3.17-.15-4.41a35,35,0,0,0,3.71.15H312v-1.51a28.34,28.34,0,0,0-.19-4.29h5.61a28,28,0,0,0-.19,4.29v1.51h.35c2,0,2.71,0,3.48-.07v-2.56a16.28,16.28,0,0,0,1.74.12,21.19,21.19,0,0,0-.15-3.26H328a20.33,20.33,0,0,0-.15,3.26h1.58v-.82a21,21,0,0,0-.11-2.51h5a13,13,0,0,0-.12,2.2v1.13h2v-1.13a13.64,13.64,0,0,0-.12-2.2h5.07a21.44,21.44,0,0,0-.11,2.51v.82a21,21,0,0,0,2.4-.2v5.31a18.82,18.82,0,0,0-2.4-.2v2.56a27.13,27.13,0,0,0,.11,2.78c-.81-.07-1.7-.11-2.71-.11h-6.19c-1,0-2.25,0-2.9.11a17.63,17.63,0,0,0,.07-2.28v-3.06h-1.58v6.39h10.56a42.53,42.53,0,0,0,4.42-.15v4.91a37.7,37.7,0,0,0-4.38-.15h-3.64v1.43h4.84a31.71,31.71,0,0,0,3.84-.16v5.35a26,26,0,0,0-3.84-.2Zm-26-14.55v6.77h1.24V319Zm6.39,6.77V319h-1.16v6.77ZM321,331.1c-.62,0-1.39,0-2.86,0h-1.36v4.8c1.12-.27,1.12-.27,1.71-.43-.2-.93-.28-1.32-.51-2.55l3-.7Zm8.13-4h-2.94c-1.82,0-2.4,0-3.56.11a17.63,17.63,0,0,0,.11-2.67v-8.44c-.69,0-.69,0-1.43,0V328.5c.62,0,1.24.08,2.75.08h5.07Zm-5.07,6.42c-1.08,0-2.13,0-2.55.08.42,1.78.46,1.9.81,3.68a18.85,18.85,0,0,0,4.33-3.76Zm10.06-17.42v1.67h2v-1.67Z"/><path class="cls-2" d="M384.3,318.51c-.74-.07-1-.11-2.09-.15a43.17,43.17,0,0,1-.66,6.31,28.67,28.67,0,0,1-3.18,8.83,18.76,18.76,0,0,0,6.43,5.07,22.07,22.07,0,0,0-3.17,5.73,27,27,0,0,1-6.74-6,29.44,29.44,0,0,1-8.48,6.12,22,22,0,0,0-3.37-5.22,20.92,20.92,0,0,0,8.64-5.77,38,38,0,0,1-2.79-7l-1.39,1.86-1.32-2.05a15.86,15.86,0,0,0-1.39,2c-.55-.66-.74-.85-1.17-1.36a37,37,0,0,1-1.82,4.3c1.36,1.35,2.13,2.13,4.11,4.34l-4,4.1c-1.51-1.78-2-2.4-3.1-3.6a30.2,30.2,0,0,1-8.32,7.59,19.39,19.39,0,0,0-3.29-5,21.73,21.73,0,0,0,7.78-6.5c-1-1-1.08-1-3.21-3l3.52-3.75,2.4,2.09a22.84,22.84,0,0,0,1.35-4l2.83,1.24a27.36,27.36,0,0,1-3-5.61l4.18-1.79H352.75l4.37,1.79c-2.09,4.91-3.52,7-6.77,10.18a22.2,22.2,0,0,0-3.06-5,14.15,14.15,0,0,0,3.83-4.56,22.8,22.8,0,0,0,1-2.37h-.27a32.82,32.82,0,0,0-3.56.16v-5.61a27.85,27.85,0,0,0,3.79.19h2.86v-.85a23.55,23.55,0,0,0-.15-3.22h6a25.93,25.93,0,0,0-.16,3.22v.85h2.48a28.12,28.12,0,0,0,3.87-.19v5.53c-1.27-.08-1.51-.08-3.36-.08a16.59,16.59,0,0,0,2.16,3.87,31.29,31.29,0,0,0,4.57-13.74l6,.93a16.89,16.89,0,0,0-.58,2.09c-.27,1.05-.42,1.67-.7,2.6h5.58a20.27,20.27,0,0,0,3.68-.2Zm-11-.15a13.32,13.32,0,0,1-.73,1.74,33.37,33.37,0,0,0,2.48,7.78,27.68,27.68,0,0,0,1.66-9.52Z"/><path class="cls-2" d="M406.79,332.41h-1.71a23.38,23.38,0,0,0,.12-2.63v-5.19l-.58.51a14.23,14.23,0,0,0-1.32-2.1v6a18.81,18.81,0,0,0,.16,3.48h-5.23a26.88,26.88,0,0,0,.2-4v-2c0-1.05,0-1.78,0-2.87-.27.31-.69.74-1.23,1.28-.51-1.16-.66-1.51-1.05-2.28a86.45,86.45,0,0,1-.7,10.64c-.66,5.11-1.58,8.09-3.36,11a18.26,18.26,0,0,0-4.26-4.73,23.12,23.12,0,0,0,2.13-6.89c.42-2.75.54-5.11.54-11.42,0-2.13,0-4.06,0-5.65v-1.78a29.59,29.59,0,0,0-.24-4.34c1.48.12,2.25.16,4.49.16h9.45a10.84,10.84,0,0,0-.15-2.17h6.5a8.48,8.48,0,0,0-.19,2.17h9.83c1.62,0,2.75-.08,3.95-.19v5a34.57,34.57,0,0,0-4-.15h-4l3.64.92a1.42,1.42,0,0,1-.31.51c-.11.19-.15.23-.27.46h1.86a14.85,14.85,0,0,0,2.28-.11v3.67a16.3,16.3,0,0,0-2.28-.11h-2.79v1.2h2.29a11.71,11.71,0,0,0,2.47-.2v3.22a21.79,21.79,0,0,0-2.47-.12h-2.29v1.12h2.29a15.84,15.84,0,0,0,2.47-.11v3.13a22.51,22.51,0,0,0-2.47-.11h-2.29v1.2h2.79a21.31,21.31,0,0,0,2.75-.12v3.76a20.83,20.83,0,0,0-2.75-.16h-8.63a15.17,15.17,0,0,1,2.75,3.87l-1.32.58a15.09,15.09,0,0,0,4.3,1.13,23,23,0,0,0-1.78-3.22l4.29-2.2a35,35,0,0,1,4.15,7.93l-4.53,3.14a35,35,0,0,0-1.82-5c-.31,2.52-.74,3.64-1.75,4.38-.73.54-1.78.77-3.75.93-1,.08-2.56.15-3.56.15-5.69,0-7-.65-7-3.44v-5.23a22.24,22.24,0,0,1-3.95,8.67l-4.33-3.67a18.21,18.21,0,0,0,3.67-7.32l4.61,2a10.71,10.71,0,0,0-.19-1.7H408a18.16,18.16,0,0,0-.16,2.67v2c0,1.05.54,1.32,2.67,1.32,2.4,0,2.75-.27,2.83-2.24l-2.52,1.12a19.61,19.61,0,0,0-2.75-4.14l3.91-1.67Zm-10.61-18.15v4.56a17.11,17.11,0,0,0,2.32-3,9.9,9.9,0,0,0,.78-1.58Zm7.12,5.53a13.41,13.41,0,0,0,3.45-5.53h-6.12l4,.85a13.74,13.74,0,0,1-1.32,2.36Zm8.36-4.41c-.23.54-.23.54-.34.77h2.59a9.12,9.12,0,0,0,1-1.89H408Zm1.79,4.22h-3.37v1.2h3.37Zm0,4.1h-3.37v1.12h3.37Zm-3.37,4v1.2h3.37v-1.2Z"/><path class="cls-3" d="M228.81,244.37a24.82,24.82,0,0,0,2.69.4,24.55,24.55,0,0,0-3.83-5.78,67.74,67.74,0,0,0,7.53-.94,21.93,21.93,0,0,0-2.42-2.55c-.94.33-.94.33-1.82.67a20.64,20.64,0,0,0-3.43-5.18v24.47a45.32,45.32,0,0,0,.34,7.26h-9.54a69.58,69.58,0,0,0,.27-7.73v-5.38h-2.29a25.32,25.32,0,0,1-5.24,14.32,23.52,23.52,0,0,0-7.33-5.38,14.79,14.79,0,0,0,4.17-8.87c-1.41.07-1.82.07-3.23.2v-8.74c2.15.27,3.16.27,9.41.27h4.51v-2.15h-8.34a27.46,27.46,0,0,0-3.56.13c.07-.94.07-1.54.07-2.82v-9.34a14,14,0,0,0-.14-2.62h9a12.64,12.64,0,0,0-.14,2.62v5h3.1v-2.69a35.48,35.48,0,0,0-.41-6.92h9.68a33.87,33.87,0,0,0-.34,6.32c6.32-1.82,10.56-4.24,12.91-7.33l9.81,1.48c-.4.47-.4.47-1.14,1.41-.2.27-.47.54-.94,1.08h9.14c1.08,0,1.55,0,3.5-.14l4.7,4.71c-.67.54-.67.54-4.23,3.9a46.93,46.93,0,0,1-9.35,6.18h8.67a34.15,34.15,0,0,0-.26,4.64h.4a21.26,21.26,0,0,0,5.11-.47v8.4a35.28,35.28,0,0,0-5.11-.4h-.4v4a5.31,5.31,0,0,1-2.22,4.77c-1,.68-1.75.88-3.9,1,.87.94,1.21,1.28,2.08,2.29a64.61,64.61,0,0,0,9.68-.47v8.6a53.89,53.89,0,0,0-5.38-.33H245.55c5,3.09,11.63,4.63,19.89,4.63.47,0,1.08,0,1.89-.06a24.91,24.91,0,0,0-3.3,9.54c-7.86-.54-12.63-1.55-17.2-3.56a32.69,32.69,0,0,1-11.57-8.27,22,22,0,0,1-9.34,7.53c-5.24,2.28-10,3.29-18.48,3.9a27.35,27.35,0,0,0-3.9-9.28c10.69,0,17-1.34,21.24-4.43H211.13c-2.08,0-4.1.13-6.18.33v-8.74a49.18,49.18,0,0,0,9.81.61h14.86a13.88,13.88,0,0,0,.4-3,2.68,2.68,0,0,0-.07-.67h6.19a31.22,31.22,0,0,0-5.38-5.51l5-2.82h-.87a29,29,0,0,0-6.12.47Zm15-8.47a20.58,20.58,0,0,0-4.1-3.56c-.74.47-1,.6-1.75,1a17.69,17.69,0,0,1,3.5,3.29A19.12,19.12,0,0,0,243.8,235.9Zm7.39,8.94a22.92,22.92,0,0,0-.26-4.17,49,49,0,0,1-12.17,4.17Zm-11.42,17.07c-.14,1.08-.2,1.48-.34,2.49h7.87a33.71,33.71,0,0,0-3.1-2.82l2.56-1a18.43,18.43,0,0,0-1.82-5.85,31.37,31.37,0,0,0,4.71.47c1,0,1.54-.47,1.54-1.28v-1.54h-12a35.48,35.48,0,0,1,5.72,6.18ZM245.62,231a36.77,36.77,0,0,1,3.29,2.76,31.53,31.53,0,0,0,4.37-2.76Z"/><path class="cls-3" d="M306,269.64c3.5-6.38,5-13.24,5.51-24.67a60.13,60.13,0,0,0-6.25.27V235a56.35,56.35,0,0,0,6.45.26c.07-1.34.07-2.42.07-3.09.07-1.68.07-2.75.07-3.36a51.29,51.29,0,0,0-.34-6.05h10.89c-.27,2-.27,2-.47,12.5h7c3.56,0,5.51-.06,7.93-.26a58.86,58.86,0,0,0-.27,6.72c-.2,19.15-.94,30.31-2.35,35.69-1.54,5.91-3.9,7.53-11.22,7.53-1.89,0-4-.07-6.25-.21a28.06,28.06,0,0,0-1.89-9.94,43.43,43.43,0,0,1-9.14,11.76,32.42,32.42,0,0,0-8.2-7.33,32.69,32.69,0,0,0,5.31-4.9c-4.17,1.54-16.73,5.58-22.51,7.12-2,.61-2.49.74-4.78,1.48L274,271.86a31.66,31.66,0,0,0,3.83-.54V231.93c0-3.69-.07-5.44-.13-7.26a44.29,44.29,0,0,0,4.77.21h16.74c1.94,0,3.22-.07,4.77-.21-.07,1.48-.14,3.16-.14,7.26v33.14l2.22-.6Zm-12.1-30.25v-5.1h-6.18v5.1Zm0,14.25V248.4h-6.18v5.24Zm-6.18,15.6c2-.4,2.89-.61,6.18-1.41v-5.18h-6.18ZM321.7,245c-.06.94-.06,1.68-.06,2.15-.41,11.7-2.42,20-6.66,27.7a59.47,59.47,0,0,0,6.25.53c2.35,0,3-.67,3.63-4.16.94-5.11,1.41-13,1.48-26.22Z"/><path class="cls-3" d="M367.07,248.54c-2.62,0-4.64.06-6.92.26v-3.22a75.69,75.69,0,0,1-11,5.38,50.55,50.55,0,0,0-5-9.89,56.62,56.62,0,0,0,18.08-9.14,33.31,33.31,0,0,0,8.54-8.8h11.49a35.24,35.24,0,0,0,8.67,8.6,51.75,51.75,0,0,0,18,8.87,52.57,52.57,0,0,0-4.64,10.56,72,72,0,0,1-11.63-5.78v3.42a68,68,0,0,0-7-.26h-4.17v4.36h15.33a66.33,66.33,0,0,0,7.93-.33v9.95a59.22,59.22,0,0,0-8.07-.41H391.4l8.67,3a74.81,74.81,0,0,1-5.17,9.54h3.49a69.84,69.84,0,0,0,8.41-.4v10.08a86.3,86.3,0,0,0-8.68-.4H355.51a90.26,90.26,0,0,0-9.14.4V274.28a85.19,85.19,0,0,0,9.07.4h2.09a39.14,39.14,0,0,0-4.71-9.68l8.67-2.89h-5a68.14,68.14,0,0,0-8.07.41v-9.95a61.48,61.48,0,0,0,8.14.33H371.1v-4.36Zm4,13.57h-8.46a57.57,57.57,0,0,1,4.83,9.95l-8.4,2.62h12Zm13.31-22.38a42.51,42.51,0,0,1-7.86-7.59,41.64,41.64,0,0,1-7.73,7.59Zm8.94,35-8.2-2.75a36.5,36.5,0,0,0,5-9.82h-8.61v12.57Z"/><line class="cls-4" x1="304.94" y1="140.33" x2="304.94" y2="193.3"/><line class="cls-5" x1="250.57" y1="131.58" x2="245.03" y2="118.35"/><line class="cls-5" x1="265.84" y1="168.05" x2="255.81" y2="144.09"/><line class="cls-5" x1="277.76" y1="196.7" x2="270.88" y2="180.1"/><line class="cls-4" x1="222.59" y1="177.86" x2="199.22" y2="149.04"/><line class="cls-4" x1="240.12" y1="199.55" x2="230.26" y2="187.31"/><line class="cls-4" x1="304.23" y1="107.55" x2="304.23" y2="126.78"/><line class="cls-5" x1="358.59" y1="131.58" x2="364.13" y2="118.35"/><line class="cls-5" x1="343.32" y1="168.05" x2="353.36" y2="144.09"/><line class="cls-5" x1="331.4" y1="196.7" x2="338.28" y2="180.1"/><line class="cls-4" x1="386.57" y1="177.86" x2="409.94" y2="149.04"/><line class="cls-4" x1="369.04" y1="199.55" x2="378.9" y2="187.31"/><line class="cls-4" x1="304.23" y1="427.11" x2="304.23" y2="374.14"/><line class="cls-5" x1="358.59" y1="435.87" x2="364.13" y2="449.1"/><line class="cls-5" x1="343.32" y1="399.39" x2="353.36" y2="423.35"/><line class="cls-5" x1="331.4" y1="370.74" x2="338.28" y2="387.35"/><line class="cls-4" x1="386.57" y1="389.59" x2="409.94" y2="418.4"/><line class="cls-4" x1="369.04" y1="367.9" x2="378.9" y2="380.13"/><line class="cls-4" x1="304.94" y1="459.9" x2="304.94" y2="440.66"/><line class="cls-5" x1="250.57" y1="435.87" x2="245.03" y2="449.1"/><line class="cls-5" x1="265.84" y1="399.39" x2="255.81" y2="423.35"/><line class="cls-5" x1="277.76" y1="370.74" x2="270.88" y2="387.35"/><line class="cls-4" x1="222.59" y1="389.59" x2="199.22" y2="418.4"/><line class="cls-4" x1="240.12" y1="367.9" x2="230.26" y2="380.13"/><line class="cls-4" x1="473.76" y1="261.22" x2="484.48" y2="261.22"/><line class="cls-4" x1="428.79" y1="261.22" x2="461.64" y2="261.22"/><line class="cls-5" x1="446.55" y1="231.28" x2="462.65" y2="222.49"/><line class="cls-5" x1="428.79" y1="240.98" x2="438.19" y2="235.85"/><line class="cls-5" x1="444.78" y1="290.2" x2="428.79" y2="281.47"/><line class="cls-5" x1="462.65" y1="299.96" x2="454.38" y2="295.44"/><line class="cls-4" x1="137.62" y1="261.22" x2="126.91" y2="261.22"/><line class="cls-4" x1="182.6" y1="261.22" x2="149.75" y2="261.22"/><line class="cls-5" x1="164.84" y1="231.28" x2="148.74" y2="222.49"/><line class="cls-5" x1="182.6" y1="240.98" x2="173.2" y2="235.85"/><line class="cls-5" x1="166.61" y1="290.2" x2="182.6" y2="281.47"/><line class="cls-5" x1="148.74" y1="299.96" x2="157.01" y2="295.44"/><path class="cls-1" d="M573.36,231.77h0q-1.12-5.28-2.47-10.49l-.24-.93c-.22-.88-.46-1.76-.7-2.65l-.3-1.09c-.24-.87-.48-1.73-.73-2.6-.1-.35-.2-.71-.31-1.07-.25-.88-.51-1.77-.78-2.65l-.06-.2h0A271.32,271.32,0,0,0,487.06,84.91a274.52,274.52,0,0,0-386.34,23.6c-2.83,3.17-4.1,4.88-6.77,8.16l18,50c6.45-10.06,14-18.07,22-27.13,19.77-22.2,43-41.69,69.61-54.83A230,230,0,0,1,511.33,187.48a226.5,226.5,0,0,1,10.87,25.59c.26.74.52,1.48.77,2.22.09.28.19.56.29.84.25.75.5,1.5.74,2.25l.27.81.75,2.39.21.68c.3,1,.59,2,.87,2.93l0,.14c.6,2.09,1.18,4.18,1.72,6.28a.57.57,0,0,0,0,.14c1.37,5.32,3.87,19.46,4.85,24.88l44.44-3.45C576.54,249.19,574.21,235.72,573.36,231.77Z"/><path class="cls-1" d="M602.77,256.62a2.42,2.42,0,0,0-2.28-1.68l-19.23.42,0-.52-45.86.91c0,.2,0,.4,0,.6l-18.81.28a2.53,2.53,0,0,0-2.27,1.78,2.83,2.83,0,0,0,.68,2.93L558.38,300a2.26,2.26,0,0,0,1.53.64,2.34,2.34,0,0,0,1.69-.71l18.25-18.16,2.12.2c0-.78,0-1.55,0-2.32l20.14-20A2.89,2.89,0,0,0,602.77,256.62Z"/><path class="cls-3" d="M611.55,255.27a2.47,2.47,0,0,0-2.35-1.51l-19.39.68q-.67-6.54-1.64-13h0c-.55-3.7-1.2-7.4-1.9-11.07-.06-.33-.12-.66-.19-1-.18-.94-.37-1.87-.56-2.8l-.24-1.16c-.2-.92-.39-1.83-.6-2.75-.08-.38-.16-.75-.25-1.13-.21-.94-.43-1.88-.65-2.81a1.6,1.6,0,0,0,0-.21h0A282.8,282.8,0,0,0,507.68,83.1a286.2,286.2,0,0,0-403.55,0q-4.72,4.68-9.19,9.56l17.21,51.63a240.1,240.1,0,0,1,363-28.47,236.88,236.88,0,0,1,60.95,102.89l.66,2.36.24.89c.22.8.43,1.59.64,2.39.07.29.15.58.22.86.22.85.42,1.69.63,2.54l.18.72c.25,1,.49,2.07.72,3.1a.83.83,0,0,0,0,.15c.49,2.21,1,4.42,1.39,6.65l0,.15q1.7,8.7,2.72,17.54l-16.38.57a2.46,2.46,0,0,0-1.48,4.36L568,295.78a2.43,2.43,0,0,0,1.56.56,2.48,2.48,0,0,0,1.69-.67l17.9-17a2.82,2.82,0,0,0,2.09-2L611,258A2.47,2.47,0,0,0,611.55,255.27Z"/><path class="cls-1" d="M38.37,336h0q1.13,5.28,2.47,10.5l.23.92c.23.89.47,1.77.71,2.65l.3,1.09c.23.87.48,1.74.73,2.6l.3,1.07c.26.89.52,1.77.79,2.66l.06.19h0a271.4,271.4,0,0,0,80.72,125.19A274.52,274.52,0,0,0,511,459.26c2.83-3.18,4.1-4.88,6.77-8.17l-18-49.94c-6.46,10.05-14,18.07-22,27.12-19.77,22.21-43,41.7-69.61,54.83a230.25,230.25,0,0,1-254.22-33.47,227,227,0,0,1-53.5-69.35,224.68,224.68,0,0,1-10.87-25.59c-.26-.74-.52-1.48-.77-2.22-.1-.28-.19-.56-.29-.83-.25-.75-.5-1.51-.74-2.26l-.27-.81-.75-2.39-.21-.68c-.3-1-.59-1.95-.88-2.93a.65.65,0,0,0,0-.13c-.6-2.09-1.18-4.19-1.72-6.29,0,0,0-.09,0-.14C82.46,330.69,80,316.55,79,311.13l-44.44,3.45C35.2,318.58,37.53,332.05,38.37,336Z"/><path class="cls-1" d="M9,311.15a2.4,2.4,0,0,0,2.28,1.67l19.22-.41c0,.17,0,.34,0,.52L76.37,312c0-.2,0-.4-.05-.61l18.81-.28a2.52,2.52,0,0,0,2.27-1.77,2.84,2.84,0,0,0-.68-2.94L53.36,267.79a2.29,2.29,0,0,0-1.53-.63,2.37,2.37,0,0,0-1.69.7L31.89,286l-2.12-.19c0,.77,0,1.54,0,2.32l-20.14,20A2.91,2.91,0,0,0,9,311.15Z"/><path class="cls-3" d="M.19,312.5A2.5,2.5,0,0,0,2.54,314l19.39-.68q.67,6.53,1.64,13h0q.83,5.57,1.9,11.08c.06.33.12.65.19,1,.18.93.37,1.86.56,2.8l.24,1.15c.19.92.39,1.84.6,2.75.08.38.16.76.25,1.14.21.93.42,1.87.65,2.81,0,.07,0,.14,0,.21h0a282.92,282.92,0,0,0,76.05,135.41,286.2,286.2,0,0,0,403.55,0q4.73-4.69,9.19-9.56l-17.21-51.64a240.09,240.09,0,0,1-363,28.48,236.93,236.93,0,0,1-51.26-75.58,232.94,232.94,0,0,1-9.69-27.32L75,346.69c-.08-.29-.16-.59-.25-.88l-.63-2.4c-.07-.28-.15-.57-.22-.86-.22-.84-.42-1.69-.63-2.53l-.18-.72c-.25-1-.49-2.07-.72-3.11,0-.05,0-.1,0-.14-.49-2.21-1-4.43-1.39-6.65l0-.15q-1.69-8.7-2.72-17.54l16.38-.58A2.46,2.46,0,0,0,86,306.78L43.75,272a2.49,2.49,0,0,0-1.56-.56,2.44,2.44,0,0,0-1.69.68l-17.9,17a2.83,2.83,0,0,0-2.09,2L.77,309.77A2.46,2.46,0,0,0,.19,312.5Z"/></g></g></svg>