<svg xmlns="http://www.w3.org/2000/svg" viewBox="0 0 362.1 186.25"><defs><style>.cls-1,.cls-10,.cls-11,.cls-5,.cls-8{fill:none}.cls-1,.cls-9{stroke:#2667b2}.cls-1,.cls-10,.cls-11,.cls-5,.cls-8,.cls-9{stroke-linecap:round;stroke-linejoin:round}.cls-1,.cls-10,.cls-11,.cls-8,.cls-9{stroke-width:.98px}.cls-2{fill:#001d2f}.cls-3{fill:#2667b2}.cls-4,.cls-9{fill:#fff}.cls-10,.cls-5{stroke:#001d2f}.cls-5{stroke-width:.49px}.cls-6{fill:#e9506c}.cls-7{fill:#c9caca}.cls-8{stroke:#c9caca}.cls-11{stroke:#fff}.cls-12{fill:#633a7c}</style></defs><g id="Layer_2" data-name="Layer 2"><g id="圖層_1" data-name="圖層 1"><ellipse class="cls-1" cx="73.9" cy="159.15" rx="1.29" ry="1.25" transform="rotate(-4.54 73.916 159.08)"/><path class="cls-2" d="M237.14 101.51l14.03 17.11-21.59 7.53-23.06-6.1 30.62-18.54z"/><path class="cls-2" d="M235.52 95.66c7 17.2-10.92 24.67-10.92 24.67l-55.4 13.76 3 10.17-15.46 5.85c-10.19-13-4.39-20-4.39-20l27-26.23z"/><path class="cls-3" d="M193.69 34.48s18 3.37 22.85 6.74 17.71 18.63 22 28.47-5.82 15.16-6.84 15.16l3.8 10.81S207 108 203 107.63c-7.78-.62-23.63-3.79-23.63-3.79L169.2 71.2l-26.53 8.14s-9.49.22-10.72-4.86 1.31-37 1.31-37l11.9-3 1.77 22.37 19.49-12.5s6-5.24 13.24-6.92z"/><path class="cls-4" d="M174.05 12.67l-3 19.39s6.72 2.27 8.27 4.79l2.81 4.59 11.58-6.1-2.37-6.63-1.76-13.77-7.2-3.28z"/><path class="cls-3" d="M192.72 32.61l-10.61 8.83 1.68 5.8 12.56-12.23-3.63-2.4z"/><path class="cls-2" d="M192.72 32.61l4.2 2.83-14.88 12.39-.31 2.28 16.13-14.78-5.14-2.72z"/><path class="cls-3" d="M179.66 37.43l2.45 4.01-1.52 5.8-3.31-9.13 2.38-.68z"/><path class="cls-2" d="M177.28 38.11l3.31 9.13 1.45-4.9v4.9l-1.89 2.71-2.87-11.84z"/><ellipse class="cls-2" cx="142.67" cy="37.77" rx=".71" ry=".77"/><path class="cls-2" d="M136.34 42.57l9.25-2.64.12 1.51-9.37 1.13z"/><path class="cls-4" d="M143.08 35.01l1.68-6.3-2.79-1.22-2.85-4.49-7.13 4.37-.37 3.29 3.67 6.34 7.79-1.99z"/><path class="cls-2" d="M141 32.2c-4.64 1.22-4.35-.51-4.35-.51l3.5-3s-2.27 2.69-1.32 2.87a20.22 20.22 0 0 1 2.17.64zM174.05 12.67s0-4.68 6.54-5.5 11.17 3.5 16.33.52c0 0 3.05 1.25-5.82 13.56l-.24 3.91-3.31-2.7s1.9-5.44-1.93-5.22c0 0-10.35.76-11.57-4.57z"/><path class="cls-5" d="M174.95 20.31l1.61-.02M182.1 20.66l6.65-1.47"/><path class="cls-6" d="M175.75 28.71l8.71-3s1 3-3.32 5c0-.04-5.04 1.29-5.39-2z"/><path class="cls-2" d="M196.35 106.83c-12.41-15.74-13.79-50.14-14-61.81l-.35-2.68s-1.66 21.91 2.42 38.25c0 0 3.9 19.1 11.51 26.17"/><path class="cls-3" d="M231.72 84.85s-22.52 5.09-51.13-10.37l3.87-8s21.7 4.72 42.72 4.09"/><path class="cls-4" d="M189.14 67.38S209.35 23.71 228 .35l11.62 9.55s-19.05 19.52-40.81 59z"/><ellipse class="cls-7" cx="234.07" cy="4.94" rx="3.12" ry="7.72" transform="rotate(-57.3 233.505 5.622)"/><path class="cls-4" d="M192.58 67.92s25.47-36.35 46.71-55l9.06 11.22s-21.92 11.66-48.92 44.91z"/><ellipse class="cls-7" cx="244.11" cy="18.43" rx="2.96" ry="7.36" transform="rotate(-44.93 244.089 18.437)"/><path class="cls-8" d="M196.8 68c3.42-4 25.89-30 48.36-45M234.07 8.53s-24.82 28.31-42.63 58.65"/><path class="cls-9" d="M184.54 76.51l-4.51 9.82 2.51 1.24 5.01-9.66-3.01-1.4zM188 78.11a73 73 0 0 0-4 10l2.9.49s3.45-5 5.81-8.56z"/><path class="cls-4" d="M184.46 66.48l-2.1-3.68-2.66.67-3.7-.67c-.45-.07-3.81 5.74-3.81 5.74l2.61 4 5.78 1.93z"/><path class="cls-1" d="M220.75 70.61l5.53-2.92"/><ellipse class="cls-7" cx="172.2" cy="19.94" rx="3.84" ry="2.77" transform="rotate(-82.26 172.202 19.932)"/><ellipse class="cls-7" cx="179.31" cy="20.66" rx="3.84" ry="2.77" transform="rotate(-82.26 179.314 20.663)"/><path class="cls-2" d="M28.9 30s-22.53 6.66-15 16c0 0 1.86 2.82 10.14 5.94l5.54-15.93z"/><path class="cls-4" d="M20.47 41.36s6.6 22.74 8.43 23.11 8.81-1.84 8.81-1.84l9.9 12.11 18-9.9L43 41.36l-14.1-5.87z"/><path class="cls-4" d="M58.62 64.47s23.84-13.21 32.64-6.24 58.54 61.16 58.54 61.16l45.41 19-83.43 29.41-52.48 18.45-19.39-97.77 5.86-16z"/><path class="cls-2" d="M72.41 141.19c8-.43 38.49-13.57 38.49-13.57 12-9.82 3.77-24.39 3.77-24.39l-19.24-27.6 21.67 26.46s9.86 16.26-4.1 27.44c0 0-30.07 12.25-36 12.95s-12.65-.86-4.59-1.29z"/><path class="cls-4" d="M39.91 88.48l-21.64 53.39s-7.39 17.92 8.43 17.92A63 63 0 0 0 39.37 155a30.33 30.33 0 0 0 10.41-8.77z"/><path class="cls-2" d="M24.22 35.49s5.8 19.1 26.3 13.67c0 0 .53 20.49 21.69 9.87 0 0 14.83-4.51 25.11-.69 0 0 .6-11.28-26.59-21.55S38.13 14 24.22 35.49z"/><path class="cls-10" d="M25.25 51.61l1.71-.74M34.25 58.34s3.17.12 5.66-4.06"/><path class="cls-2" d="M32.46 64.06s-11.78 21.16 8.4 21.81l4.91-13.39-8.06-9.85z"/><path class="cls-7" d="M35.93 132.37l67.62-24.45-14.37 21.22-65.76 21.99 12.51-18.76z"/><path class="cls-7" d="M33.62 129.34l67.62-24.45-14.37 21.23L21.1 148.1l12.52-18.76z"/><path class="cls-7" d="M33.37 124.93L101 100.48 86.63 121.7l-65.77 21.99 12.51-18.76z"/><path class="cls-7" d="M29.6 122.42l67.62-24.44-14.37 21.22-65.76 21.99 12.51-18.77z"/><path class="cls-7" d="M27.34 118.88l67.62-24.45-14.37 21.22-65.76 21.99 12.51-18.76z"/><path class="cls-7" d="M25.6 115.02l67.63-24.44-14.37 21.22-65.77 21.99 12.51-18.77z"/><path class="cls-7" d="M23.66 111.22l67.63-24.44L76.92 108l-65.77 21.99 12.51-18.77z"/><path class="cls-7" d="M23.39 106.7l67.63-24.44-14.37 21.22-65.77 21.99 12.51-18.77z"/><path class="cls-7" d="M20.98 102.56l67.63-24.45-14.37 21.22-65.77 21.99 12.51-18.76z"/><path class="cls-7" d="M19.29 98l67.62-24.44-14.37 21.22-65.77 21.99L19.29 98z"/><path class="cls-7" d="M16.12 94.37l67.62-24.45-14.37 21.23-65.76 21.99 12.51-18.77z"/><path class="cls-7" d="M15.4 89.7l67.63-24.44-14.37 21.22-65.77 21.99L15.4 89.7z"/><path class="cls-7" d="M13.01 85.94L80.64 61.5 66.27 82.72.5 104.71l12.51-18.77z"/><path class="cls-7" d="M13 80.14L80.63 55.7 66.26 76.92.49 98.91 13 80.14z"/><path class="cls-11" d="M75.42 63.38l-9.16 13.54L.49 98.91"/><path class="cls-11" d="M80.64 61.5L66.27 82.72.5 104.71"/><path class="cls-11" d="M83.03 65.26L68.66 86.48 2.89 108.47"/><path class="cls-11" d="M83.74 69.92L69.37 91.15 3.61 113.14"/><path class="cls-11" d="M86.91 73.56L72.54 94.78 6.77 116.77"/><path class="cls-11" d="M88.61 78.11L74.24 99.33 8.47 121.32"/><path class="cls-11" d="M91.02 82.26l-14.37 21.22-65.77 21.99"/><path class="cls-11" d="M91.84 86.86l-14.37 21.23-65.77 21.98"/><path class="cls-11" d="M93.23 90.58L78.86 111.8l-65.77 21.99"/><path class="cls-11" d="M94.96 94.43l-14.37 21.22-65.76 21.99"/><path class="cls-11" d="M97.22 97.98L82.85 119.2l-65.76 21.99"/><path class="cls-11" d="M101.24 100.48L86.87 121.7 21.1 143.69"/><path class="cls-11" d="M101.33 104.57l-14.37 21.22-65.76 21.99"/><path class="cls-4" d="M33.24 147.56s2.71-4.08 7.06-2.48c0 0 3.41-3.35 7.29-2a9.14 9.14 0 0 1 3.8-1.31s2.52 5.15-4.79 7.66c0 0-7.76 4.22-15.06.77 0-.04-2.75-2.52 1.7-2.64zM61.29 138.61s-.68-4 4.49-6.17a11.38 11.38 0 0 1 9.32-.52 8.12 8.12 0 0 1 6.54-.59s2.15 4-6.47 6-11.41 4.67-13.88 1.28z"/><path class="cls-2" d="M106.51 106.03l-4.23 2.35 2.97-6.29 1.26 3.94zM84.58 177.41l-13.01-35.68h1.27l14.91 34.56-3.17 1.12z"/><path class="cls-7" d="M145.14 129.53s-5.79 6.81-8.63 6.55 7.68-13.08 7.68-13.08-6.14 9.45-3 8.6z"/><path class="cls-10" d="M106.47 146.17l20.36-2.04 1.56 3.79-19.44 2.2-2.48-3.95z"/><path class="cls-7" d="M25.25 51.61A8.31 8.31 0 0 0 22.78 48a3.65 3.65 0 0 0-3.5-.87c-2.11.77-2.87 4-1.69 7.26a7.12 7.12 0 0 0 4 4.45 3 3 0 0 0 2 0c2.08-.75 2.84-4 1.66-7.23zM34.61 48.07a8.62 8.62 0 0 0-2-3.16c-1.23-1.22-2.71-1.77-4-1.3-2.11.77-2.86 4-1.68 7.26a7.22 7.22 0 0 0 3.89 4.42 3 3 0 0 0 2.08 0c2.1-.73 2.89-3.98 1.71-7.22z"/><path class="cls-6" d="M61.29 138.61c2.47 3.42 5.27.79 13.88-1.24s6.47-6 6.47-6l1.74-.43s2.62 5.74-7.14 8.6c0 0-7.47 1.95-8.82 2.23s-5.1-.5-6.13-3.12M51.71 144.27c-.31 4.21-4.07 3.44-12.47 6.23s-8.67-1.73-8.67-1.73l-1.7.54s.78 6.26 10.59 3.57c0 0 7.38-2.26 8.67-2.74s4.08-3.11 3.58-5.87"/><path class="cls-2" d="M286.13 6.94s-11.66 4.48-.1 10.54L291.1 11z"/><path class="cls-4" d="M351.57 68.29s-2 4.08-.62 4.84a30.92 30.92 0 0 0 4.16 1.63l4.3-.92 2.69-4.18-2.4-2.57-2.16-2.53zM295.9 8.2l-9.79.6s-1.92 11-1.53 11.77 7.82 3.07 7.82 3.07L291.3 31l10.78-1.47z"/><path class="cls-12" d="M334.35 32.21c-12.34-6.59-21.63-5.93-21.63-5.93s-32.2 5.37-32.64 6-6 1.26-8.76 5.63c-2.68 4.19-14.35 26.17-15.3 28l14.8-5.65 5.18-6.57a18.52 18.52 0 0 0 6.5 12.65L284.19 93l50.94-7.8s-8.74-26.36-16.36-45.38a46.43 46.43 0 0 1 13.47 4.84c6.41 4.32 19.33 23.64 19.33 23.64l6-3.73s-10.88-25.77-23.22-32.36z"/><path class="cls-2" d="M295.93 30.41s5.3 37.69 12.64 58.84M276 53.68a37 37 0 0 1 1.17-12.94 28.16 28.16 0 0 0-2.3 14.39z"/><path class="cls-7" d="M282.53 56.39s-2.35-12.61-6.74-14.15l20.11-3.48s9.24 11.55 9.81 31.41l-21.37 3.52s-.57-12.3-1.81-17.3z"/><path class="cls-12" d="M286.8 54.77l-16.69 6.35.71-.9L256 65.87V66s-3 8.92 8 8.06c0 0 11.7-2.1 24.26-11.63z"/><path class="cls-4" d="M286.8 54.77s2.43-3.64 3.62-3.88.84.9.84.9L291 54l5.54-3.87a7.61 7.61 0 0 1 1.27 4.36c-.27 2.06-2.39 4.28-2.39 4.28l-7.21 3.67zM275.79 42.24s-4.64 1.56-2.94 5.59l17.89-3.65s-.92-4 5.16-5.42z"/><path class="cls-2" d="M284.82 9s5.37 9 16.19 9.67c7.08.41 11.87 1.45 17.56 5.28s14.32 1.94 16.67-2.39-.61-18.43-15.64-17.28-12.42 2.31-20.68-.66-16.3-.15-14.1 5.38zM296.09 29.12l4.33 5.11 1.86-6.18-6.19 1.07zM289.99 30.21l3.46 5.23 2.64-6.32-6.1 1.09zM313 41.53l1.62 8.58a4.16 4.16 0 0 1-4.16 4.33s-3 1-4.64-2.34L304 43.46z"/><path class="cls-7" d="M284.19 93s-12.31 8.52-9.56 17.36l63.68-22.46-3.18-2.71z"/><circle class="cls-2" cx="69.54" cy="154.29" r="1.9"/><path class="cls-6" d="M37.92 62.05l8.06-3.18-6.33 5.31-1.73-2.13z"/><path class="cls-2" d="M184.46 66.48s21.7 5.24 42.72 4.61l-7.76-1.49s-12.21.12-34.96-3.12zM231.72 84.85s-22.52 5.09-51.13-10.37c0 0 18.66 15.1 52.12 13.18z"/><path class="cls-2" d="M191.91 68.01l-1.72 6.95 3.46-6.65-1.74-.3z"/><circle class="cls-2" cx="187.41" cy="69.6" r=".96"/><path d="M216.32 122.38s20.2-1.43 21.14-20.46" stroke="#ef8575" stroke-width=".98" stroke-linecap="round" stroke-linejoin="round" fill="none"/><path class="cls-2" d="M169.2 71.2l-3-11.58s.37 4.19 1.83 11.95zM270.11 61.12l-6.22 2.45 7.4-3.95-1.18 1.5z"/></g></g></svg>