<svg xmlns="http://www.w3.org/2000/svg" viewBox="0 0 466.22 183.76"><defs><style>.cls-1{fill:#e9506c}.cls-2{fill:#c9caca}.cls-4{fill:#001d2f}.cls-5,.cls-7{fill:#fff}.cls-6{fill:#633a7c}.cls-7{stroke:#2667b2;stroke-linecap:round;stroke-linejoin:round;stroke-width:.98px}</style></defs><g id="Layer_2" data-name="Layer 2"><g id="圖層_1" data-name="圖層 1"><path class="cls-1" d="M174.22 80.24l-.3 8.03-1.81-.85 2.11-7.18z"/><path class="cls-2" d="M196.06 91.8l1.82 5.2s2.69 8.72 12.85 6.46l3.79-2.44-3.31-10.84z"/><path d="M189 35.18h-16.5s-9.07 1.28-11.68 6.3l-17 24.85a4.77 4.77 0 0 0 0 5.52s-35 25.19-58 23.86l86.57 30.52 19.91-36.07s8.08-6.5 10.16 1.26l8.44-21.48a16.64 16.64 0 0 0-1.35-11.85l-8.35-18.73z" fill="#f2f3f2"/><path class="cls-4" d="M171.09 46.24c2.28-3.8 0-7.91 0-7.91l.51-.89s2.53 4.94-.51 8.8M155.99 68.31l18.23 11.07-16.62-11.74-1.61.67zM143.74 71.85s8.23 9.24 28.37 14.71c0 0-19-4.31-30.09-13.63z"/><path class="cls-4" d="M160.79 71l8.17-18.06-9.98 17.19 1.81.87zM219.13 101.32l-38.01-15.74-8.13-9.83L211 91.48l8.13 9.84z"/><path class="cls-4" d="M219.06 101.32l-38.01-15.74 14-25.83 39.02 16.45-15.01 25.12z"/><path class="cls-5" d="M174.22 79.38s.92-.33 5.14.6c0 0 2.78 1.32-.86 2.44l2.55 3.16 6.59 3a8.55 8.55 0 0 1-5.32 1.63c-3.2-.12-10.21-3.6-10.21-3.6zM216.48 99.81s-2.58 2.57-5.17.74c0 0-3.51-.21-3.75-1.51 0 0-2.24-1.33-1.46-3.09 0 0 .57-2.33 4.56 0a3.23 3.23 0 0 1 3 1 4.18 4.18 0 0 1 2.8 2.39M199.29 18.27l14.15 1.52-6.12 14.91-4.21 1.72-4.97 7.65-14.05 23.57 4.88-32.46 10.32-16.91z"/><path class="cls-4" d="M218.41 16.73s-.51 9.58-18.32 1.63 4.36 15-11.12 12.9-12.62-5.35-25-4S136.35 20 143.74 10c0 0 5.28-8 17 0 0 0 8.55 6 17.86 4.4 12.27-2.1 18.54-4.59 24.46-1.34.05.04 15.35-.53 15.35 3.67z"/><path class="cls-1" d="M186.94 48.67l6.96 2.52-9.81 16.45 2.85-18.97z"/><path class="cls-4" d="M184.75 35.18l-2.47 11.06 1.24 1.58-2.47 6.27 3.04 13.55 7.6-5.67 4.37-9.69h2.7l4.51-8.2.29.66-4.42 8.68-2.73-.48-4.66 10.13-8.04 5.5-3.61-13.94 2.49-5.96-1.05-2.43 3.21-11.06zM172.88 86.94c-12.82 20.21-27.49 29.19-27.49 29.19s20.9-18.57 26.72-29.57z"/><path class="cls-4" d="M184.09 68.3a54.94 54.94 0 0 1-5.1 9.93l4.53-11.75zM168.96 60.53l7.37 3.31-1.02 1.77-7.51-3.64 1.16-1.44z"/><circle class="cls-4" cx="161.86" cy="92.49" r="1.23"/><circle class="cls-4" cx="150.57" cy="105.7" r="1.23"/><path class="cls-4" d="M169.44 76.48l-2.86 5.04 1.65-5.77 1.21.73z"/><ellipse class="cls-4" cx="170.75" cy="79.78" rx=".66" ry=".78"/><path class="cls-5" d="M438.35 106.23l7-4.66 3.7-6.62 4.26.91 8.42-3.56 4.49 13.05-9.6 6.66-5.09.45-9.44 4.08-3.74-10.31zM397.7 43.51l4.41-8.29-23.82-9.46-23.83 33.86 10.97 7.88 13.82-.69 1.37-8.22 7.82 2.37 5.07-9.54 5.64 2.65-1.45-10.56z"/><path class="cls-4" d="M368.77 39.28l11.37-16a7.8 7.8 0 0 1 7.68-2.78l24.71 7.24s2.57 7.48-10.43 7.46c0 0-2.55 1.92-18.91-.17l-2.87 4.16s-.63-3.82-4.39-3c0 0-4.6 2.9-.81 10.87l-7.57 1.58-4.26-1.55z"/><path class="cls-6" d="M335.51 183.76l52.3-104.94-8.56-12-45.45-13.71s-33.36 11.94-65.63 56.21c-10.47 14.38-14.6 23.66-23.26 42.51z"/><path class="cls-4" d="M280.93 99.03l42.18-20.3-37.96 21.94-3.75 10.09-4.45-1.17 2.05-9.78 1.93-.78z"/><path class="cls-6" d="M387.81 78.82l16.89 41.86 33.43-15.51 6.11 16.83-43 21.2s-11.7 4.3-15.78-6.33L372.25 107z"/><path class="cls-2" d="M371.51 76.98l-4.64-12.73-13.82 4.59-.9 1.06 13.98-3.9 5.07 11.88.31-.9zM426.45 110.59l4.13 13.37-5.33-12.82 1.2-.55z"/><circle class="cls-2" cx="433.4" cy="112.69" r="1.55"/><path class="cls-2" d="M211.31 140.06a3.06 3.06 0 0 1 .23-1.15L231 92.85a3 3 0 0 1 3.86-1.57l64.47 27.2a3 3 0 0 1 1.57 3.87l-17.9 42.9"/><path class="cls-4" d="M290.88 146.05l-70-29.27 68.74 32.24 1.26-2.97z"/><path class="cls-5" transform="rotate(-67.47 234.453 122.562)" d="M230.12 121.07h8.64v2.97h-8.64z"/><path class="cls-5" transform="rotate(-67.47 276.15 140.242)" d="M271.81 138.75h8.64v2.97h-8.64z"/><path class="cls-4" d="M252.74 98.81l4.69 1.98 1.05-2.49-4.62-2.14-1.12 2.65zM275.29 106.09l-.81 1.91 4.7 1.98.73-1.74-4.62-2.15z"/><path class="cls-2" d="M282.28 102.63a3.06 3.06 0 0 0-1.62-4l-20.81-8.79a3.06 3.06 0 0 0-4 1.62l-2 4.71 4.62 2.14.69-1.64a2 2 0 0 1 2.59-1l13.42 5.68a2 2 0 0 1 1.05 2.58l-.94 2.22 4.62 2.15z"/><path class="cls-7" d="M274.48 108l-8.53-3.6 8.53 3.6z"/><path class="cls-6" d="M341.41 55.84s-15.18-8.47-33.8 1.85L269.76 81.4s-10.12 7.27-11.5 13.11l-6.12 39.8 19.56 2.43 7.3-36.93 44.11-21.08z"/><path class="cls-2" d="M273.5 127.63l-13.82-1.8h14.8l-.98 1.8z"/><circle class="cls-2" cx="257.87" cy="130.28" r="1.69"/><path class="cls-5" d="M270.29 136.56l-1.52 6.59 4.44 1.39.96 4.61-10.59 4.04-9.54-9.78-.01-8.86 16.26 2.01z"/><path class="cls-2" d="M366.3 65.82L310.54 174s42.3-90.76 55.76-108.18z"/><circle class="cls-2" cx="317.78" cy="143.96" r="1.74"/><circle class="cls-2" cx="307.22" cy="163.97" r="1.74"/><circle class="cls-2" cx="328.9" cy="123.27" r="1.74"/><circle class="cls-2" cx="338.8" cy="103.46" r="1.74"/><circle class="cls-2" cx="347.01" cy="85.4" r="1.74"/><path class="cls-2" d="M352.15 69.9l-.62-9.69 2.09 9.2-1.47.49zM370.78 76.39l7.11-7.25-6.69 8.74-.42-1.49z"/><path class="cls-5" d="M11.99 28.96l-.19 4.55-2.64-.1-3.29 1.33-4.08-3.79 1.84-4.5 2.24-2.33"/><path class="cls-4" d="M88 1.94l3.3 1s1.7 6.33-3.6 7.63l-.57-6.89z"/><path class="cls-5" d="M111.48 57.09s3.68-3 4.25-2.68 1.38 2.11 1.38 2.11 4.63.17 4.71.57-1.95 5.56-1.95 6-5.44 1.16-5.44 1.16l-3-1.16z"/><path class="cls-2" d="M0 65.5l16.96 5.98 9.77-2.09-10.95-9.6L0 65.5z"/><path class="cls-4" d="M28.69 55.12l-12.91 4.67 10.95 9.6 32.32-6.94-30.36-7.33z"/><path class="cls-2" d="M59.05 62.46s15.43 9.6 14.5 16.59l-1.07 12-12.61-4.44 1.51-7.56L26.57 65.7s-12.15-3.12-6.89-12.76z"/><path class="cls-1" d="M80.23 24a16.56 16.56 0 0 1 5.09 7.43l4.36 25.63h21.8v6L90.4 65.61s-10.17 1.58-12.11-8.52l-4.74-21.91z"/><path class="cls-5" d="M88.71 8.53l-3.63 9.45-7.35-1.46-2.34 4.61-7.51-3.15L79.5 1.26l9.21 2.43v4.84z"/><path class="cls-4" d="M66.67 14.58c.82.31 13.32 8.24 13.56 9.45S59.05 62.46 59.05 62.46l-39.37-9.52s20.37-26.09 25.67-31.82c6.78-7.32 14.05-9.2 21.32-6.54z"/><path class="cls-1" d="M66.37 14.34s-3.73 9.78-14 8l-24.82-6.52L12 29l-6.13-4.88L22.08 9.35s5.36-4.8 12-3.42zM75.76 20.39l-6.6 8.57.56-12.55 6.04 3.98z"/><path class="cls-4" d="M73.39 23.47l-.65-4.49-3.26 2.7 2.46-.86 1.45 2.65zM105.71 57.09v4.75l-1.04-4.75h1.04zM88.71 3.69s-1.8 4.48-6.36 4A49 49 0 0 1 72.08 5s2.8-2.8 3.12-3S77.89-.65 80.64.16L88 1.94s1.44.57.71 1.75z"/><ellipse class="cls-7" cx="84.5" cy="9.6" rx="2.55" ry="1.82" transform="rotate(-73.1 84.512 9.598)"/><ellipse class="cls-7" cx="89.32" cy="10.94" rx="2.55" ry="1.82" transform="rotate(-73.1 89.332 10.935)"/><path class="cls-7" d="M86.4 10.32l1.03.25"/><path d="M78.64 11.19a3.19 3.19 0 0 0 1.59 2.24" fill="none" stroke="#2667b2" stroke-linecap="round" stroke-linejoin="round" stroke-width=".98"/><path class="cls-1" d="M380.62 58.59l-8.37-3.18 7.69 7.27.68-4.09z"/><path class="cls-4" d="M354.62 59.39l11.55 4.45 13.08 2.97-23.84-8.54-.79 1.12zM9.63 20.69l4.33 3.34-3.39-4.2-.94.86z"/><path class="cls-1" d="M203.11 36.42l-8.83-1.24 7.89 2.69.94-1.45z"/><path class="cls-2" d="M351.74 113.81l1.84-3.54 13.82 5.69-1.84 3.84-13.82-5.99z"/></g></g></svg>