<?xml version="1.0" encoding="utf-8"?>
<!-- Generator: Adobe Illustrator 22.0.1, SVG Export Plug-In . SVG Version: 6.00 Build 0)  -->
<svg version="1.1" id="Layer_1" xmlns="http://www.w3.org/2000/svg" xmlns:xlink="http://www.w3.org/1999/xlink" x="0px" y="0px"
	 viewBox="0 0 82 82" style="enable-background:new 0 0 82 82;" xml:space="preserve">
<style type="text/css">
	.st0{fill:#B91C22;}
	.st1{fill:#FFFFFF;}
</style>
<g>
	<g>
		<g>
			<path class="st0" d="M73.4,44.5H4.9c-0.9,0-1.7-0.7-1.8-1.6C3,42,3,40.4,3,38.9c0-0.6,0-1.2,0-1.6c0-14.7,9.8-24.6,24.5-24.6
				c11,0,19.6,5.7,23.7,15.4c2.5-3.4,6.4-5.6,10.6-5.6c8,0,13.5,5.5,13.5,13.3v6.9C75.2,43.7,74.4,44.5,73.4,44.5z M6.6,40.9h65v-5
				c0-6.7-5-9.6-9.9-9.6c-4,0-7.7,2.9-9.2,7.1c-0.3,0.8-0.9,1.3-1.8,1.2c-0.8,0-1.5-0.6-1.7-1.4c-2.7-10.5-10.8-16.8-21.5-16.8
				c-12.6,0-20.8,8.2-20.8,21c0,0.5,0,1.1,0,1.7C6.7,39.6,6.6,40.2,6.6,40.9z"/>
		</g>
		<g>
			<path class="st1" d="M68.3,59.2c-5,0-9.2-3.5-10.9-8.4C54.7,61.3,46.7,69,34.1,69c-12.9,0-22.6-8.3-22.6-22.8
				c0-1.4-0.2-4.2,0-5.3H80c0,2.4,0,5,0,6.9C80,54.9,74.8,59.2,68.3,59.2z"/>
		</g>
	</g>
</g>
</svg>
