<svg xmlns="http://www.w3.org/2000/svg" width="199" height="32" viewBox="0 0 199 32">
  <g fill="none">
    <g fill="#FFF" transform="translate(175.024 4.373)">
      <path d="M23.0897942,2.37873292 L14.4554719,2.37873292 L14.4554719,0.194583851 L11.1428012,0.194583851 L11.1428012,2.37873292 L2.11767169,2.37873292 L2.11767169,10.7694907 C2.11767169,14.9521491 1.27671687,18.8052671 0.130069277,21.4670311 L2.93305221,23.3683478 C3.87590462,20.9347578 4.46191566,18.3998012 4.79318273,14.9269068 L6.34762048,16.7014161 C6.78078514,16.1184596 7.06110341,15.6366708 7.54521687,14.8509814 L7.54521687,23.3431056 L10.297251,23.3431056 L10.297251,9.95855901 C10.883262,8.66563975 11.2910522,7.52496894 11.6732681,6.20680745 L8.92123394,5.47160248 C8.02933032,8.61495652 6.62773896,11.2512795 4.86950602,13.811677 C4.94602912,12.620323 4.97140361,11.6062609 4.97140361,10.7696894 L4.97140361,5.19274534 L23.0893946,5.19274534 L23.0893946,2.37873292 L23.0897942,2.37873292 Z"/>
      <path d="M23.6610201,8.53863354 L20.8912038,8.53664596 L20.8912038,5.74807453 L17.9861235,5.74807453 L17.9861235,8.5364472 L11.3677751,8.53843478 L11.3677751,11.4029317 L17.9861235,11.4009441 L17.9861235,19.2594286 C17.9861235,19.7664596 17.7058052,20.0198758 17.170743,20.0198758 C16.8904247,20.0198758 14.5022249,19.8445714 14.5022249,19.8445714 L14.8844408,22.886559 L18.6996064,22.8845714 C20.1521466,22.8845714 20.891004,22.048 20.891004,20.4002981 L20.891004,11.4011429 L23.6608203,11.4031304 L23.6608203,8.53863354 L23.6610201,8.53863354 Z"/>
      <path d="M13.5206114,12.2142609 L11.3290141,13.6085466 C12.3483896,15.0787578 12.9853494,16.1689441 14.131997,18.0700621 L16.5273896,16.4223602 C15.380742,14.8253416 14.6163102,13.6339876 13.5206114,12.2142609 Z"/>
    </g>
    <path fill="#FFF" d="M19.6070944,16.7640248 C21.0340602,14.3304348 21.8158745,12.3039006 22.333754,7.43234783 L23.8734066,7.43234783 L23.8734066,4.56785093 L16.9825321,4.56785093 C17.364748,3.57922981 18.0528564,1.85798758 18.3331747,0.71731677 L15.4940281,0.0558509317 C14.4958313,3.58698137 13.3162169,5.94186335 12.1761627,8.38042236 L9.46528715,8.34086957 L9.49086145,4.50802484 L12.8035321,4.50802484 L12.7779578,1.71965217 L0.979615462,1.71965217 L1.00518976,4.50802484 L6.58578112,4.50802484 L6.56020683,17.5630311 C5.87209839,17.7405217 5.80436647,17.7852422 5.06530924,17.9879752 L5.06530924,7.55319255 L2.3642239,7.55319255 L2.3642239,18.6218137 L0.012187751,19.2155031 L0.980614458,22.2574907 C5.38918373,21.1675031 10.2353133,19.4102857 13.2930402,17.990559 L12.9617731,15.354236 C12.1463926,15.7344596 10.5609859,16.2196273 9.46528715,16.6252919 L9.46528715,11.2457143 L10.7633825,11.2457143 L10.3737741,11.7561242 L12.6506857,13.3897143 C13.0584759,12.7813168 13.3222108,12.4205714 13.7298012,11.5333168 C14.5323946,14.1273043 15.0460783,14.8374658 16.065254,16.5612919 C14.3387892,18.3509068 13.1597741,19.2556522 10.4846627,20.9053416 L12.3362018,23.5539876 C14.5519749,21.8565963 16.3201978,20.2118758 17.7217892,18.9189565 C18.894011,20.237118 20.3725251,21.9973168 22.1781104,23.5329193 L24.1107681,20.9918012 C22.136752,19.5001242 20.8016938,18.3143354 19.6070944,16.7640248 Z M17.7213896,14.6518261 C16.5581586,12.4295155 15.9375823,11.1334161 15.529992,8.1675528 C15.6574639,7.93937888 15.7593614,7.7618882 15.8868333,7.43234783 L19.4288735,7.43234783 C19.1483554,10.9052422 18.8696355,12.2434783 17.7213896,14.6518261 Z" transform="translate(147.052 4.174)"/>
    <g fill="#FFF" transform="translate(119.88 4.174)">
      <path d="M22.7017841 7.77401242L16.9171978 7.77401242 16.9171978 5.86474534 21.8098805 5.86474534 21.8098805 3.27910559 16.9171978 3.27910559 16.9171978.107925466 13.8848454.107925466 13.8848454 3.27910559 9.17058333 3.27910559 9.17058333 5.86474534 13.8848454 5.86474534 13.8848454 7.77401242 8.58457229 7.77401242 8.58457229 10.4864596 16.5645522 10.4864596 16.5645522 12.1637764 8.58457229 12.1637764 8.58457229 15.0282733 16.5645522 15.0282733 16.5645522 19.6631056C16.5645522 20.2460621 16.2842339 20.5249193 15.7491717 20.5249193 15.5453765 20.5249193 13.7829478 20.3728696 13.7829478 20.3728696L14.1651637 23.5416646 17.4310813 23.5416646C18.8836215 23.5416646 19.6226787 22.6798509 19.6226787 20.9560248L19.6226787 15.028472 22.6254608 15.028472 22.6254608 12.1639752 19.6226787 12.1639752 19.6226787 10.4866584 22.7019839 10.4866584 22.7019839 7.77401242 22.7017841 7.77401242zM7.97298695 2.66375155L.0989006024 2.66375155.0989006024 20.3203975 7.97298695 20.3203975 7.97298695 2.66375155zM2.92745783 9.89515528L2.92745783 5.16293168 5.14442972 5.16293168 5.14442972 9.89515528 2.92745783 9.89515528zM2.92745783 17.6441242L2.92745783 12.4555528 5.14442972 12.4555528 5.14442972 17.6441242 2.92745783 17.6441242z"/>
      <path d="M11.642499,15.6219627 L9.4764759,16.9401242 C10.2664819,18.0555528 10.8271185,19.0948571 11.7443966,20.6918758 L14.1142149,19.1962236 C13.2223112,17.8526211 12.5344026,16.8133168 11.642499,15.6219627 Z"/>
    </g>
    <g fill="#FFF" transform="translate(90.11 5.168)">
      <path d="M14.6806456,9.6884472 L19.1561476,9.71686957 L19.1561476,8.14509317 L14.4642631,8.14509317 L14.4642631,9.62722981 C14.0310984,9.44973913 13.8516787,9.38713043 13.5204116,9.20963975 L13.5204116,5.22971429 L19.9971024,5.22971429 L19.9971024,9.41237267 L22.8766084,9.41237267 L22.8766084,3.17634783 L13.5204116,3.17634783 L13.5204116,2.21296894 L21.7553353,2.21296894 L21.7553353,0.0582360248 L2.10028916,0.0582360248 L2.10028916,2.21296894 L10.3352129,2.21296894 L10.3352129,3.17634783 L1.18281124,3.17634783 L1.18281124,9.41237267 L4.06231727,9.41237267 L4.06231727,5.22971429 L10.3350131,5.22971429 L10.3350131,9.26032298 C10.0291205,9.43781366 9.72342771,9.53918012 9.39216064,9.66598758 L9.39216064,8.14509317 L4.826749,8.14509317 L4.826749,9.71686957 L9.26468876,9.71686957 C6.53802912,11.060472 3.04693775,12.0236522 0.0909086345,12.4293168 L1.05933534,15.0149565 C1.77281827,14.8374658 2.5118755,14.6599752 3.40377912,14.381118 L3.40377912,16.4344845 L16.4508665,16.4344845 C14.9473775,17.3978634 14.0554739,17.8794534 12.0678715,18.6905839 C12.5661707,19.9910559 14.03949,20.0868571 15.2276958,19.4510311 C17.6740371,18.1581118 19.4322701,17.017441 20.7573384,15.800646 L20.7573384,14.5077267 C21.5473444,14.7359006 22.1843042,14.8879503 22.7958896,15.0147578 L23.7896908,12.403677 C20.9103845,12.0236522 17.6620492,11.0320497 14.6806456,9.6884472 Z M19.6616396,14.1783851 L13.5134187,14.1783851 C13.5134187,13.2953043 13.5134187,12.0824845 13.5134187,12.0824845 L10.3280201,12.0824845 C10.3280201,12.0824845 10.3280201,13.3905093 10.3280201,14.1783851 L4.09188755,14.1783851 C7.43013253,13.1390807 9.77457631,11.9984099 11.9403996,10.7816149 C14.386741,12.0743354 16.6546616,13.164323 19.6616396,14.1783851 Z"/>
      <path d="M12.1949438,18.7029068 C9.80894177,17.9100621 9.2295241,17.7321739 7.24571787,17.1253665 L6.14082831,19.2176894 L16.6842319,23.160646 L17.8778323,20.6376149 C17.8778323,20.6376149 16.4788384,20.1562236 15.2760472,19.7346584 C13.8786516,18.9996522 14.2308976,18.88 12.1949438,18.7029068 Z"/>
      <polygon points="19.156 5.99 14.371 5.99 14.371 7.613 19.156 7.613"/>
      <polygon points="9.494 5.99 4.827 5.99 4.827 7.613 9.494 7.613"/>
    </g>
    <path fill="#FFF" d="M11.1879558,11.7823602 C15.1008233,11.7823602 17.8820281,12.3547826 19.8768233,13.1180124 L19.8768233,9.9124472 C18.1889197,9.37818634 15.5227992,8.80576398 11.2646787,8.80576398 C5.83653414,8.80576398 3.24713655,9.89336646 1.96202811,11.1717764 C0.772823293,12.3547826 0.159040161,13.9384845 0.159040161,15.9801242 C0.159040161,18.021764 0.772823293,19.6054658 1.96202811,20.788472 C3.26631727,22.1050435 5.79817269,23.1544845 11.0920522,23.1544845 C15.330992,23.1544845 17.9395703,22.5629814 19.550751,20.9601988 C20.4330643,20.0824845 20.8934016,18.842236 20.8934016,16.7051925 L20.8934016,14.9306832 L9.07807631,14.9306832 L9.07807631,17.6019876 L17.3641486,17.6019876 C17.3833293,17.9072795 17.3833293,18.6132671 16.9038112,19.0902857 C16.0406787,19.9489193 13.9116185,20.2351304 11.0920522,20.2351304 C7.63952209,20.2351304 5.83653414,19.6054658 4.99258233,18.765913 C4.3787992,18.1362484 4.05272691,17.2394534 4.05272691,15.9801242 C4.05272691,14.7589565 4.39797992,13.8049193 5.06930522,13.1370932 C5.81735341,12.3929441 7.63952209,11.7823602 11.1879558,11.7823602 C11.1879558,11.7823602 7.63952209,11.7823602 11.1879558,11.7823602 Z"/>
    <polygon fill="#FFF" points="77.518 9.302 73.087 9.302 65.99 19.815 58.913 9.302 54.29 9.302 63.555 22.658 68.254 22.658 68.254 22.658"/>
    <polygon fill="#C60000" points="53.153 .081 49.336 .081 24.419 31.879 28.293 31.879"/>
    <path fill="#FFF" d="M47.8487108,11.2099379 C46.5827831,9.9506087 44.1468313,8.80576398 38.7954096,8.80576398 C33.6357952,8.80576398 31.0080361,9.93152795 29.7229277,11.2099379 C28.5529036,12.3738634 27.9199398,13.824 27.9199398,15.9801242 C27.9199398,18.1362484 28.5529036,19.5673043 29.7229277,20.7312298 C30.9888554,21.990559 33.5398916,23.1544845 38.7954096,23.1544845 C44.0509277,23.1544845 46.5827831,22.0096398 47.8487108,20.7503106 C49.0187349,19.5863851 49.6516988,18.1362484 49.6516988,15.9801242 C49.6516988,13.8049193 49.0187349,12.3738634 47.8487108,11.2099379 Z M38.7954096,20.2542112 C35.3428795,20.2542112 33.5590723,19.5482236 32.7918434,18.7849938 C32.197241,18.1934907 31.7752651,17.4302609 31.7752651,15.9801242 C31.7752651,14.5299876 32.1396988,13.747677 32.7726627,13.1180124 C33.5590723,12.3357019 35.3428795,11.7060373 38.7954096,11.7060373 C42.2479398,11.7060373 43.9742048,12.3547826 44.7797952,13.1561739 C45.412759,13.7858385 45.7963735,14.5299876 45.7963735,15.9801242 C45.7963735,17.4302609 45.4319398,18.2125714 44.7989759,18.842236 C43.9933855,19.6436273 42.2479398,20.2542112 38.7954096,20.2542112 Z"/>
  </g>
</svg>
