<svg id="圖層_1" data-name="圖層 1" xmlns="http://www.w3.org/2000/svg" viewBox="0 0 634.83 444.9"><defs><style>.cls-1{fill:#f5a117;}.cls-2{fill:#fff;}.cls-3{fill:#001d2f;}.cls-4,.cls-7,.cls-8,.cls-9{fill:none;stroke-linecap:round;stroke-linejoin:round;}.cls-4,.cls-7{stroke:#001d2f;}.cls-4{stroke-width:3.4px;}.cls-5{fill:#e9506c;}.cls-6{fill:#5b3075;}.cls-7,.cls-8{stroke-width:1.7px;}.cls-8,.cls-9{stroke:#fff;}.cls-9{stroke-width:2.36px;}.cls-10{fill:#f2f3f2;}.cls-11{fill:#c9caca;}</style></defs><title>g0v靜態稿</title><path class="cls-1" d="M153.33,297.2l-18,14.85a2,2,0,0,1-1.8.37L111.09,306a2,2,0,0,0-2.38,2.62l8.56,21.71a2,2,0,0,1-.2,1.83l-13,19.36a2,2,0,0,0,1.76,3.07l23.29-1.43a2,2,0,0,1,1.68.76l14.38,18.38a2,2,0,0,0,3.47-.73L154.45,349a2,2,0,0,1,1.24-1.36l21.92-8a2,2,0,0,0,.38-3.52l-19.68-12.54a2,2,0,0,1-.91-1.6l-.84-23.32A2,2,0,0,0,153.33,297.2Z"/><path class="cls-1" d="M218.4,13l18,14.84a2,2,0,0,0,1.8.38l22.43-6.42A2,2,0,0,1,263,24.45l-8.55,21.71a2,2,0,0,0,.2,1.83l13,19.35a2,2,0,0,1-1.76,3.08L242.65,69a2,2,0,0,0-1.68.75L226.59,88.12a2,2,0,0,1-3.47-.72l-5.84-22.6a2,2,0,0,0-1.23-1.36l-21.92-8a2,2,0,0,1-.39-3.52l19.69-12.53a2,2,0,0,0,.91-1.6l.83-23.32A2,2,0,0,1,218.4,13Z"/><path class="cls-2" d="M192.83,183.09l-6-22.1s-1.33-3.43-3.65-4.9-13.93-16.52-13.93-16.52-5.91,2.17,2.32,15.67c0,0,1.27,4.41-.84,4s-43.3-12.66-43.3-12.66-4.65,2.75,0,6.54c0,0-4.86,3.38-.22,5.91,0,0-3.79,3,1.06,6.76,0,0-1.27,4.22,4.64,6.12,0,0,6.08,4.63,18.61,9.5L172.13,191Z"/><polygon class="cls-2" points="428.37 158.25 414.6 73.69 360.06 50.72 359.73 93.18 342.25 107.05 358.78 108.36 359.65 135.26 378.48 133.86 378.79 157.9 423.36 157.9 428.37 158.25"/><path class="cls-3" d="M414.6,73.69s-68.83-29.14-67.73-28.42c0,0-6.68,15,13,25.88L392,85.77s-3.09,9.57,6,15c0,0,6.07-9.31,10.45-4.2a6,6,0,0,1,1.37,3.61,13,13,0,0,1-8,13,1.43,1.43,0,0,0-.14,2.51l22,12.73Z"/><path class="cls-3" d="M368.33,95.59c-.14,2.36-1.05,3.16-2.32,3.08s-2.44-1-2.3-3.35,1.29-4.22,2.57-4.14S368.47,93.23,368.33,95.59Z"/><path class="cls-4" d="M364.54,116.07s7.73,2.68,12.56-3.91"/><polygon class="cls-5" points="378.2 133.88 378.56 140.12 394.22 133.54 378.2 133.88"/><path class="cls-6" d="M361.26,156.5h105s44.11,3.6,52.32,56L542.1,444.9,309,444.66,333.34,320V192.09S334.72,160.06,361.26,156.5Z"/><path class="cls-6" d="M348.34,161.45,241.49,249.34l-44.23-69L164.8,192.69l46.54,87.94s14.17,23.84,40.6,13.53l93.84-51.91Z"/><line class="cls-7" x1="127.41" y1="153.12" x2="155.19" y2="161.19"/><line class="cls-7" x1="127.19" y1="159.03" x2="153.76" y2="166.73"/><line class="cls-7" x1="128.25" y1="165.79" x2="152.02" y2="172.26"/><line class="cls-8" x1="206.14" y1="194.2" x2="181.02" y2="205.29"/><circle class="cls-2" cx="195.23" cy="189.34" r="2.4"/><line class="cls-9" x1="94.48" y1="117.79" x2="101.08" y2="124.62"/><line class="cls-9" x1="65.74" y1="88.07" x2="85.45" y2="108.45"/><line class="cls-9" x1="56.87" y1="134.38" x2="89.29" y2="142.39"/><line class="cls-9" x1="39.93" y1="130.18" x2="48.77" y2="132.37"/><line class="cls-9" x1="116.46" y1="85.12" x2="124.73" y2="111.99"/><line class="cls-9" x1="109.78" y1="63.4" x2="112.94" y2="73.67"/><path class="cls-2" d="M538.61,93.55l5.22,4.31a.57.57,0,0,0,.52.11l6.51-1.86a.57.57,0,0,1,.69.76l-2.49,6.29a.61.61,0,0,0,.06.53l3.78,5.61a.57.57,0,0,1-.51.9l-6.75-.42a.58.58,0,0,0-.49.22L541,115.33a.57.57,0,0,1-1-.21l-1.7-6.55a.58.58,0,0,0-.36-.4l-6.35-2.32a.57.57,0,0,1-.11-1l5.7-3.63a.59.59,0,0,0,.27-.46l.24-6.77A.58.58,0,0,1,538.61,93.55Z"/><path class="cls-10" d="M281,139.85l1.9,8.21a.69.69,0,0,0,.44.5l7.84,3.09a.72.72,0,0,1,.11,1.28l-7.23,4.34a.72.72,0,0,0-.34.57l-.52,8.42a.71.71,0,0,1-1.18.49l-6.36-5.53a.73.73,0,0,0-.65-.15l-8.16,2.11a.71.71,0,0,1-.84-1l3.29-7.76a.73.73,0,0,0-.05-.66l-4.53-7.11a.72.72,0,0,1,.66-1.1l8.4.73a.71.71,0,0,0,.61-.25l5.36-6.51A.72.72,0,0,1,281,139.85Z"/><path class="cls-1" d="M585.19,180.35l-3.28,16.16a1.4,1.4,0,0,0,.36,1.25l11.46,11.86a1.4,1.4,0,0,1-.85,2.36l-16.38,1.88a1.39,1.39,0,0,0-1.08.73l-7.74,14.56a1.4,1.4,0,0,1-2.5-.08l-6.85-15a1.39,1.39,0,0,0-1-.8l-16.24-2.86a1.4,1.4,0,0,1-.71-2.4l12.16-11.15a1.4,1.4,0,0,0,.43-1.22l-2.29-16.33a1.4,1.4,0,0,1,2.07-1.41L567.09,186a1.37,1.37,0,0,0,1.29,0l14.83-7.23A1.4,1.4,0,0,1,585.19,180.35Z"/><path class="cls-11" d="M268.39,326.64l-2.13,10.52a.92.92,0,0,0,.24.82L274,345.7a.91.91,0,0,1-.55,1.53l-10.66,1.22a.91.91,0,0,0-.7.48l-5,9.47a.91.91,0,0,1-1.63,0l-4.46-9.76a.92.92,0,0,0-.66-.52l-10.57-1.86a.91.91,0,0,1-.46-1.57l7.91-7.25a.89.89,0,0,0,.28-.8L245.92,326a.91.91,0,0,1,1.35-.91l9.34,5.28a.94.94,0,0,0,.85,0l9.64-4.7A.91.91,0,0,1,268.39,326.64Z"/><line class="cls-8" x1="480.16" y1="226.53" x2="496.48" y2="409.33"/><circle class="cls-11" cx="381.05" cy="211.23" r="5.34"/><circle class="cls-11" cx="381.05" cy="263.01" r="5.34"/><circle class="cls-11" cx="381.05" cy="314.79" r="5.34"/><circle class="cls-11" cx="381.05" cy="366.57" r="5.34"/><circle class="cls-11" cx="381.05" cy="418.35" r="5.34"/><path class="cls-11" d="M393.79,191.09s1.65,211.23,2.47,240.82C396.26,431.91,403,271.23,393.79,191.09Z"/><polygon class="cls-11" points="412.32 190.69 443.65 161.93 412.83 197.88 392.8 175.28 412.32 190.69"/><polygon class="cls-11" points="392.8 175.28 380.47 195.83 361.98 165.01 379.95 186.58 392.8 175.28"/><rect class="cls-11" x="417.45" y="247.71" width="36.47" height="10.27"/></svg>