<?xml version="1.0" encoding="utf-8"?>
<!-- Generator: Adobe Illustrator 22.0.1, SVG Export Plug-In . SVG Version: 6.00 Build 0)  -->
<svg version="1.1" id="Layer_1" xmlns="http://www.w3.org/2000/svg" xmlns:xlink="http://www.w3.org/1999/xlink" x="0px" y="0px"
	 viewBox="0 0 299.3 120" style="enable-background:new 0 0 299.3 120;" xml:space="preserve">
<style type="text/css">
	.st0{fill:#595757;}
</style>
<path class="st0" d="M46.2,38.7c-9.1,0-16.6,7.4-16.6,16.6S37,71.9,46.2,71.9s16.6-7.4,16.6-16.6S55.4,38.7,46.2,38.7L46.2,38.7z
	 M46.2,66.3c-6.1,0-11-4.9-11-11s4.9-11,11-11s11,4.9,11,11C57.3,61.4,52.4,66.3,46.2,66.3z"/>
<path class="st0" d="M57.3,55.3h5.6v27.6h-5.6V55.3z"/>
<path class="st0" d="M62.8,55.3c0-6.1,4.9-11,11-11v-5.6c-9.1,0-16.6,7.4-16.6,16.6c0,9.1,7.4,16.6,16.6,16.6v-5.6
	C67.7,66.3,62.8,61.4,62.8,55.3L62.8,55.3z"/>
<g>
	<g>
		<path class="st0" d="M95.1,72.6v6.2c0,1.3-0.4,2.3-1.2,2.9c-0.8,0.6-1.7,1-2.9,1c-1.1,0-2.1-0.3-2.9-1c-0.8-0.6-1.2-1.6-1.2-2.9
			v-6.2c0-1.3,0.3-2.3,1.1-3c0.7-0.7,1.7-1,3-1s2.3,0.3,3,1.1C94.8,70.4,95.1,71.4,95.1,72.6L95.1,72.6z M93.4,78.6V73
			c0-0.9-0.2-1.5-0.5-1.9c-0.3-0.4-1-0.7-1.8-0.7c-0.9,0-1.4,0.3-1.8,0.7c-0.3,0.4-0.5,1-0.5,1.9v5.6c0,0.7,0.2,1.3,0.6,1.7
			c0.4,0.4,1,0.6,1.6,0.6s1.3-0.2,1.7-0.6S93.4,79.4,93.4,78.6L93.4,78.6z M99.7,86.2L98,86.6V72.7h1.7v0.4c0.4-0.3,1.1-0.6,1.9-0.6
			c1.2,0,2.2,0.3,2.8,1c0.6,0.7,1,1.6,1,2.7V79c0,1.2-0.3,2.1-1,2.7c-0.7,0.6-1.6,1-2.6,1c-0.8,0-1.5-0.2-1.9-0.5v4.1H99.7z
			 M103.5,78.9v-2.5c0-0.7-0.2-1.1-0.5-1.5c-0.3-0.3-0.8-0.5-1.4-0.5c-0.6,0-1,0.2-1.4,0.5c-0.3,0.3-0.5,0.8-0.5,1.4v2.8
			c0,1.3,0.6,2,1.9,2S103.5,80.3,103.5,78.9L103.5,78.9z M110.1,81.1c0.7,0,1.6-0.3,2.5-0.8l0.7,1.5c-1,0.6-2.1,1-3.1,1
			c-2.3,0-3.4-1-3.4-2.9v-4c0-1,0.3-1.9,1-2.4c0.7-0.6,1.6-0.9,2.6-0.9c1,0,1.9,0.3,2.5,0.9c0.6,0.6,0.9,1.4,0.9,2.4v2.8l-5.2,0.3
			v0.8c0,0.5,0.2,0.9,0.4,1.1C109.3,81,109.6,81.1,110.1,81.1L110.1,81.1z M112,77.1v-1.3c0-0.5-0.2-1-0.5-1.2
			c-0.3-0.3-0.8-0.3-1.3-0.3c-0.5,0-0.9,0.2-1.2,0.4c-0.3,0.3-0.4,0.7-0.4,1.2v1.4L112,77.1L112,77.1z M117.5,73.1
			c0.6-0.3,1.2-0.4,1.9-0.4c0.7,0,1.3,0.1,1.9,0.3c1.1,0.5,1.6,1.5,1.6,2.9v6.8h-1.7v-6.3c0-0.6-0.2-1.1-0.6-1.4
			c-0.3-0.3-0.9-0.5-1.4-0.5s-1.1,0.2-1.7,0.4v7.8h-1.7v-9.9h1.6L117.5,73.1L117.5,73.1z M137.7,80.4l0.3,1.6
			c-1.1,0.4-2.2,0.6-3.1,0.6c-0.2,0-0.5,0-1-0.1c-0.4,0-0.9-0.2-1.4-0.4c-0.4-0.3-0.9-0.7-1.1-1.2s-0.4-1.2-0.4-2.1v-6.2
			c0-1,0.2-1.7,0.4-2.3s0.7-1,1.3-1.3c0.6-0.3,1.3-0.5,2.1-0.5c1,0,1.9,0.2,2.8,0.6l-0.5,1.6c-0.6-0.3-1.3-0.3-1.9-0.3
			c-0.7,0-1.2,0.2-1.6,0.5c-0.4,0.3-0.7,0.9-0.7,1.6v6.4c0,0.6,0.2,1,0.4,1.4c0.3,0.4,1,0.6,1.7,0.6
			C135.7,80.9,136.7,80.8,137.7,80.4L137.7,80.4z M146.1,82.5h-1.6l-0.1-0.4c-0.5,0.4-1.1,0.6-1.9,0.6c-2.4,0-3.6-1.2-3.6-3.6v-6.4
			h1.7V79c0,1.3,0.6,2,1.9,2c1.2,0,1.8-0.7,1.8-2.1v-6.2h1.7L146.1,82.5L146.1,82.5L146.1,82.5z M150.1,82.5h-1.7V68.9h1.7V82.5z
			 M155.7,81.4l-0.5,1.4c-1.7-0.2-2.7-1.1-2.7-2.9v-11h1.8v3.9h2l-0.4,1.6h-1.6V80C154.3,80.8,154.8,81.2,155.7,81.4L155.7,81.4z
			 M164.8,82.5h-1.6l-0.1-0.4c-0.5,0.4-1.1,0.6-1.9,0.6c-2.4,0-3.6-1.2-3.6-3.6v-6.4h1.7V79c0,1.3,0.6,2,1.9,2
			c1.2,0,1.8-0.7,1.8-2.1v-6.2h1.7L164.8,82.5L164.8,82.5z M168.4,73.1c0.6-0.3,1.2-0.4,2-0.4c0.3,0,0.7,0.1,1.5,0.2l-0.4,1.7
			c-0.3-0.2-0.7-0.3-1-0.3s-0.7,0.1-1,0.2c-0.7,0.3-1,0.7-1,1.4v6.8h-1.7v-9.9h1.6L168.4,73.1L168.4,73.1z M175.7,81.1
			c0.7,0,1.6-0.3,2.5-0.8l0.7,1.5c-1,0.6-2.1,1-3.1,1c-2.3,0-3.4-1-3.4-2.9v-4c0-1,0.3-1.9,1-2.4c0.7-0.6,1.6-0.9,2.6-0.9
			c1,0,1.9,0.3,2.5,0.9c0.6,0.6,0.9,1.4,0.9,2.4v2.8l-5.2,0.3v0.8c0,0.5,0.2,0.9,0.4,1.1C174.9,81,175.3,81.1,175.7,81.1L175.7,81.1
			z M177.6,77.1v-1.3c0-0.5-0.2-1-0.5-1.2c-0.3-0.3-0.8-0.3-1.3-0.3s-0.9,0.2-1.2,0.4c-0.3,0.3-0.4,0.7-0.4,1.2v1.4L177.6,77.1
			L177.6,77.1z M188.9,82.5h-1.7V68.9h6.5v1.7h-4.8v3.8h2.9l-0.6,1.7h-2.3V82.5L188.9,82.5z M200.7,76.4V79c0,1.1-0.3,2-0.9,2.7
			c-0.6,0.7-1.5,1-2.7,1c-1.2,0-2.1-0.3-2.8-1c-0.6-0.7-1-1.6-1-2.7v-2.6c0-1.2,0.3-2.2,1-2.9c0.6-0.7,1.6-1,2.7-1
			c1.1,0,2.1,0.3,2.7,1C200.4,74.3,200.7,75.2,200.7,76.4z M199,79.1v-2.8c0-1.4-0.6-2.1-1.8-2.1c-1.3,0-1.9,0.7-1.9,2.1v2.8
			c0,0.6,0.2,1,0.5,1.4c0.3,0.3,0.8,0.5,1.4,0.5c0.5,0,1-0.2,1.4-0.5S199,79.7,199,79.1L199,79.1z M209.5,82.5h-1.6l-0.1-0.4
			c-0.5,0.4-1.1,0.6-1.9,0.6c-2.4,0-3.6-1.2-3.6-3.6v-6.4h1.7V79c0,1.3,0.6,2,1.9,2c1.2,0,1.8-0.7,1.8-2.1v-6.2h1.7L209.5,82.5
			L209.5,82.5z M213.2,73.1c0.6-0.3,1.2-0.4,1.9-0.4s1.3,0.1,1.9,0.3c1.1,0.5,1.6,1.5,1.6,2.9v6.8h-1.7v-6.3c0-0.6-0.2-1.1-0.6-1.4
			c-0.3-0.3-0.9-0.5-1.4-0.5c-0.5,0-1.1,0.2-1.7,0.4v7.8h-1.7v-9.9h1.6L213.2,73.1L213.2,73.1z M223.1,73c0.6-0.3,1.3-0.4,2-0.4
			s1.3,0.2,1.7,0.4v-4.1h1.7v13.6c-1.1,0.2-2.2,0.3-3.1,0.3c-1,0-1.8-0.2-2.6-0.6c-1-0.5-1.6-1.4-1.6-2.7v-3.7
			C221.4,74.5,222,73.5,223.1,73L223.1,73z M226.9,74.8c-0.6-0.3-1.1-0.4-1.6-0.4s-1,0.2-1.4,0.4c-0.4,0.3-0.6,0.8-0.6,1.6v3.3
			c0,0.7,0.3,1.1,1.1,1.4c0.3,0.1,0.8,0.2,1.2,0.2c0.4,0,0.9-0.1,1.4-0.2L226.9,74.8L226.9,74.8L226.9,74.8z M232.9,74.7
			c1.1,0,2.1,0.3,2.9,0.8c0-1.1-0.8-1.6-2.4-1.6l0.2-1.2c1,0,1.8,0.1,2.3,0.3c0.3,0.1,0.5,0.3,0.7,0.4c0.2,0.2,0.3,0.3,0.5,0.6
			c0.1,0.3,0.2,0.4,0.3,0.6c0.1,0.2,0.1,0.4,0.2,0.7c0,0.4,0.1,1,0.1,1.4v5.8c-1.4,0.1-2.4,0.2-3.2,0.2c-2.9,0-4.3-1.1-4.3-3.5v-1.6
			c0-1.3,0.4-2.2,1.4-2.6C231.8,74.8,232.4,74.7,232.9,74.7L232.9,74.7z M235.8,81v-3.7c-0.7-0.4-1.5-0.7-2.3-0.8
			c-0.1,0-0.3,0-0.4,0c-0.2,0-0.4,0.1-0.7,0.3c-0.3,0.2-0.4,0.5-0.4,1v1.3c0,1.3,0.9,2,2.5,2C234.9,81.1,235.3,81,235.8,81L235.8,81
			z M242.4,81.4l-0.5,1.4c-1.7-0.2-2.7-1.1-2.7-2.9v-11h1.8v3.9h2l-0.4,1.6H241V80C241,80.8,241.5,81.2,242.4,81.4L242.4,81.4z
			 M247,69.7c0,0.3-0.1,0.5-0.3,0.7c-0.2,0.2-0.4,0.3-0.7,0.3s-0.5-0.1-0.7-0.3c-0.2-0.2-0.3-0.4-0.3-0.7c0-0.3,0.1-0.5,0.3-0.7
			c0.2-0.2,0.4-0.3,0.7-0.3s0.5,0.1,0.7,0.3C246.8,69.2,247,69.4,247,69.7z M246.8,82.5h-1.7v-9.8h1.7V82.5z M257.3,76.4V79
			c0,1.1-0.3,2-0.9,2.7c-0.6,0.7-1.5,1-2.7,1c-1.2,0-2.1-0.3-2.8-1c-0.6-0.7-1-1.6-1-2.7v-2.6c0-1.2,0.3-2.2,1-2.9s1.6-1,2.7-1
			c1.1,0,2.1,0.3,2.7,1C257,74.3,257.3,75.2,257.3,76.4L257.3,76.4z M255.6,79.1v-2.8c0-1.4-0.6-2.1-1.8-2.1c-1.3,0-1.9,0.7-1.9,2.1
			v2.8c0,0.6,0.2,1,0.5,1.4s0.8,0.5,1.4,0.5c0.6,0,1-0.2,1.4-0.5C255.4,80.2,255.6,79.7,255.6,79.1z M261.1,73.1
			c0.6-0.3,1.2-0.4,1.9-0.4s1.3,0.1,1.9,0.3c1.1,0.5,1.6,1.5,1.6,2.9v6.8h-1.7v-6.3c0-0.6-0.2-1.1-0.6-1.4c-0.3-0.3-0.9-0.5-1.4-0.5
			s-1.1,0.2-1.7,0.4v7.8h-1.7v-9.9h1.6L261.1,73.1L261.1,73.1z"/>
	</g>
</g>
<g>
	<path class="st0" d="M89.7,48.6v14.1h-2.4V39.5h10v9.1H89.7L89.7,48.6z M89.7,41.3v1.7h5.2v-1.7H89.7L89.7,41.3z M94.8,46.8v-2
		h-5.2v2H94.8z M101.7,56.5v5.8h-2.2v-5.8h-3.2c-0.2,1.7-1,4.6-3.5,6.2c-0.3-0.4-1.1-1.1-1.6-1.5c2-1.2,2.8-3.3,3-4.7h-3v-2.1h3
		v-2.5h-2.6v-2h12.8v2h-2.8v2.5h3.3v2.1C105,56.5,101.7,56.5,101.7,56.5z M99.6,54.5V52h-3.1v2.5H99.6z M109.1,59.7
		c0,1.4-0.3,2.1-1.1,2.5s-2.2,0.4-4.2,0.4c-0.1-0.7-0.4-1.8-0.8-2.5c1.3,0.1,2.7,0.1,3.1,0.1s0.5-0.2,0.5-0.5v-11H99v-9.2h10.1
		L109.1,59.7L109.1,59.7z M101.4,41.3v1.7h5.3v-1.7H101.4z M106.7,46.8v-2.1h-5.3v2.1H106.7z M134.9,45.5c-0.7,4.1-1.6,7.5-3.2,10.2
		c1.4,2.1,3.1,3.7,5.4,4.8c-0.5,0.5-1.3,1.4-1.6,2.1c-2.2-1.1-3.8-2.7-5.2-4.7c-1.6,2-3.6,3.6-6,4.9c-0.3-0.5-1-1.6-1.4-2.2
		c2.6-1.2,4.6-2.9,6.1-4.9c-1-1.9-1.7-4.1-2.3-6.5c-0.5,1-1,1.9-1.7,2.8c-0.3-0.4-1.1-1.3-1.7-1.7c-0.2,7.6-0.3,10.4-1,11.3
		c-0.4,0.6-0.9,0.9-1.6,1c-0.6,0.1-1.7,0.1-2.9,0.1c-0.1-0.7-0.3-1.6-0.6-2.3c1,0.1,1.8,0.1,2.3,0.1c0.3,0,0.6-0.1,0.8-0.3
		c0.4-0.5,0.6-3,0.8-9.8h-3c0,4.3-0.5,8.8-3.9,12.5c-0.4-0.5-1.2-1.2-1.8-1.6c3-3.4,3.5-7.4,3.5-10.9v-5.3h-2.9v-2.3h11.6v2.3h-6.4
		v3.1h5.4c0,0,0,0.8,0,1v0.8c2.1-2.7,3.4-6.9,4.2-11.4l2.5,0.4c-0.3,1.5-0.6,2.9-1,4.4h8v2.3L134.9,45.5L134.9,45.5L134.9,45.5z
		 M118,42.5c-0.3-1-0.8-2.5-1.3-3.6l2.2-0.6c0.5,1.1,1.1,2.6,1.4,3.6L118,42.5L118,42.5z M128.1,45.7c0.5,2.8,1.2,5.3,2.3,7.5
		c1-2.2,1.7-4.7,2.2-7.7h-4.3L128.1,45.7L128.1,45.7z M159,45.3c-1.4,4-3.4,7.2-5.9,9.9c2.9,2.3,6.2,4,10.3,5
		c-0.5,0.5-1.3,1.6-1.6,2.3c-4.3-1.1-7.7-3-10.6-5.6c-2.9,2.5-6.5,4.3-10.8,5.6c-0.3-0.6-1-1.7-1.6-2.3c4.3-1.1,7.7-2.8,10.6-5.1
		c-2.6-2.7-4.5-6.1-6-9.9h-4.1V43h11.4c-0.3-1.1-1-2.8-1.7-4l2.6-0.8c0.8,1.2,1.6,2.9,2,4l-2.3,0.8h11.9v2.4L159,45.3L159,45.3z
		 M146,45.3c1.3,3.1,3,5.9,5.3,8.2c2.2-2.3,3.8-4.9,4.9-8.2L146,45.3L146,45.3z M174.6,39.2c-0.7,1.7-1.6,3.4-2.6,5v18.4h-2.3v-15
		c-1,1.3-2.1,2.5-3.1,3.6c-0.2-0.6-0.9-1.9-1.4-2.5c2.8-2.4,5.6-6.2,7.2-10.1L174.6,39.2L174.6,39.2z M185.4,59.7
		c1.4,0,1.6-1.1,1.9-5.6c0.6,0.4,1.6,1,2.3,1.1c-0.3,4.9-1,6.7-4,6.7h-4.8c-2.9,0-3.7-0.9-3.7-4.1V38.8h2.3v7h9.4v2.3h-9.4v9.7
		c0,1.5,0.3,1.7,1.6,1.7L185.4,59.7L185.4,59.7z M210.9,52.9c1.5,1.6,3.6,2.9,5.6,3.6c-0.5,0.4-1.2,1.3-1.6,1.9
		c-2.5-1.1-5-3.2-6.7-5.6h-7.9c-0.6,1-1.5,1.8-2.3,2.7h4.9v-2h2.5v2h5.2v2h-5.2V60h8.9v2.1h-19.9V60h8.6v-2.3h-5v-1.7
		c-1.3,1.2-2.9,2.2-4.3,2.9c-0.3-0.6-1-1.5-1.6-1.9c2.1-0.8,4.3-2.3,5.7-3.9h-5.5V51h5.1v-8.2h-3.8v-2h3.8v-2.3h2.4v2.3h9v-2.3h2.5
		v2.3h3.8v2h-3.8V51h4.9V53L210.9,52.9L210.9,52.9z M199.7,42.7v1.5h9v-1.5H199.7z M199.7,47.6h9v-1.5h-9V47.6z M199.7,51h9v-1.6h-9
		V51z M231.9,48.4v3.2h8.8v2.3h-8.8v5.9h10.1v2.3h-22.7v-2.3h10v-5.9h-8.8v-2.3h8.8v-3.2h-5.6V47c-1.2,0.7-2.5,1.2-3.8,1.7
		c-0.3-0.7-1-1.6-1.6-2.3c4.9-1.5,9.7-4.4,12.2-8.3l2.3,1c-0.3,0.3-0.4,0.7-0.7,1c2.6,2.6,7,5.1,11,6.3c-0.5,0.5-1.3,1.5-1.7,2.2
		c-1.3-0.5-2.6-1.1-4-1.8v1.6L231.9,48.4L231.9,48.4L231.9,48.4z M224.5,54.2c1,1.4,2.1,3.4,2.5,4.6l-2.2,1
		c-0.3-1.2-1.4-3.2-2.3-4.7L224.5,54.2z M236.3,46.2c-2.1-1.2-4-2.7-5.6-4.3c-1.6,1.6-3.4,3.1-5.3,4.3H236.3z M233.9,58.8
		c0.9-1.3,2-3.3,2.6-4.8l2.3,0.9c-1,1.6-2.2,3.5-3,4.7L233.9,58.8L233.9,58.8z M259,39c-0.2,0.2-0.3,0.3-0.4,0.5
		c2.4,2.3,6.9,4.3,11.1,5.2c-0.5,0.4-1.2,1.3-1.6,1.9c-0.6-0.2-1.3-0.4-2-0.6v6.9h-18v-6.7c-0.7,0.3-1.3,0.4-2,0.6
		c-0.2-0.4-0.9-1.5-1.3-1.9c4.8-1.2,9.5-3.6,11.9-6.6L259,39L259,39z M266,45.9c-1.5-0.5-2.9-1.1-4.3-1.9v0.8h-9.2v-0.6
		c-1.2,0.7-2.5,1.2-3.8,1.7H266L266,45.9z M249.7,53.9h15.1v8.8h-2.5V62h-10.1v0.8h-2.4V53.9L249.7,53.9z M253.3,47.7
		c0.6,0.9,1.1,2.1,1.4,2.9l-1.7,0.6h3.1v-3.6h-5.7v3.6h2.5c-0.2-0.8-0.7-2.1-1.2-2.9L253.3,47.7L253.3,47.7z M252.1,55.5V57h10.1
		v-1.5H252.1z M262.3,60.2v-1.5h-10.1v1.5H262.3z M260.2,43.1c-1.1-0.7-2.1-1.5-2.9-2.3c-0.9,0.8-1.8,1.6-2.9,2.3H260.2z
		 M263.9,47.6H258v3.6h2.9l-1.6-0.5c0.5-0.9,1-2.2,1.3-3.1l2.1,0.6c-0.6,1.1-1.1,2.3-1.6,3h2.8L263.9,47.6L263.9,47.6z"/>
</g>
</svg>
