<?xml version="1.0" encoding="utf-8"?>
<!-- Generator: Adobe Illustrator 22.0.1, SVG Export Plug-In . SVG Version: 6.00 Build 0)  -->
<svg version="1.1" id="Layer_1" xmlns="http://www.w3.org/2000/svg" xmlns:xlink="http://www.w3.org/1999/xlink" x="0px" y="0px"
	 viewBox="0 0 120 120" style="enable-background:new 0 0 120 120;" xml:space="preserve">
<style type="text/css">
	.st0{fill:#231F20;}
	.st1{fill:url(#SVGID_1_);}
	.st2{fill:url(#SVGID_2_);}
	.st3{fill:url(#SVGID_3_);}
	.st4{fill:url(#SVGID_4_);}
	.st5{fill:url(#SVGID_5_);}
	.st6{fill:url(#SVGID_6_);}
	.st7{fill:url(#SVGID_7_);}
	.st8{fill:url(#SVGID_8_);}
	.st9{fill:url(#SVGID_9_);}
	.st10{fill:url(#SVGID_10_);}
	.st11{fill:url(#SVGID_11_);}
	.st12{fill:url(#SVGID_12_);}
	.st13{fill:url(#SVGID_13_);}
	.st14{fill:url(#SVGID_14_);}
	.st15{fill:url(#SVGID_15_);}
	.st16{fill:url(#SVGID_16_);}
	.st17{fill:url(#SVGID_17_);}
	.st18{fill:url(#SVGID_18_);}
	.st19{fill:url(#SVGID_19_);}
	.st20{fill:url(#SVGID_20_);}
	.st21{fill:url(#SVGID_21_);}
	.st22{fill:url(#SVGID_22_);}
	.st23{fill:url(#SVGID_23_);}
	.st24{fill:url(#SVGID_24_);}
</style>
<g id="Layer_2_1_">
	<g id="圖層_1">
		<path class="st0" d="M18.1,80.5c-0.4-0.4-1.5-1.4-3.2-2.7c-0.3-0.2-0.6-0.3-0.9-0.3s-0.5,0.2-0.7,0.4c-0.1,0.2-0.2,0.4-0.2,0.6
			v0.1c0,0.3,0.2,0.6,0.5,0.7c0.3,0.2,1.1,0.8,2.2,1.9L5,81.8c1.3-1.4,2.3-2.8,3.4-4.3c0.1-0.2,0.2-0.4,0.2-0.6c0-0.1,0-0.2,0-0.2
			c-0.2-0.5-0.8-0.8-1.4-0.6c-0.3,0.1-0.5,0.3-0.7,0.5c-1.3,1.9-2.7,3.8-4.3,5.5H1.2c-0.3,0-0.6,0.1-0.9,0.3C0.2,82.4,0,82.7,0,83
			c0,0.3,0.1,0.5,0.3,0.7C0.7,84,1,84,1.3,84L17.7,83l1.6,1.5c0.2,0.2,0.5,0.4,0.8,0.4s0.6-0.1,0.8-0.3c0.2-0.2,0.3-0.4,0.4-0.7
			C21.3,83.7,21,83,18.1,80.5z M17.4,85.1H3.7c-0.4,0-0.8,0.1-1.2,0.4C2.3,85.9,2,86.3,2,86.7v6.7c0,0.4,0.2,0.8,0.5,1.1
			c0.3,0.3,0.7,0.4,1.2,0.4h13.7c0.4,0,0.8-0.2,1.2-0.5s0.4-0.6,0.4-1.1v-6.7c0-0.4-0.2-0.7-0.4-1.1C18.3,85.3,17.9,85.1,17.4,85.1
			L17.4,85.1z M16.9,92.5c0,0.1,0,0.3-0.1,0.4C16.7,93,16.5,93,16.4,93H4.8c-0.1,0-0.3,0-0.4-0.1c0-0.2-0.1-0.3-0.1-0.4v-4.8
			c0-0.1,0-0.2,0.1-0.3c0.1-0.1,0.2-0.1,0.4-0.1h11.5c0.1,0,0.3,0,0.4,0.1c0.1,0.1,0.1,0.2,0.1,0.3v4.8H16.9z M26.1,75.8
			c-0.3,0-0.5,0.2-0.7,0.4c-0.2,0.2-0.3,0.5-0.2,0.7c0.1,0.3,0.2,0.5,0.5,0.7c0.9,0.7,1.9,1.5,2.7,2.4c0.2,0.2,0.5,0.4,0.8,0.4
			s0.5-0.1,0.8-0.2c0.2-0.2,0.4-0.4,0.4-0.7c0-0.3-0.1-0.6-0.3-0.8c-0.9-1.1-1.9-1.9-3-2.7C26.8,75.9,26.4,75.8,26.1,75.8z
			 M29.2,80.3c-0.2-0.1-0.4-0.2-0.6-0.4c-0.8-0.8-1.8-1.7-2.7-2.4c-0.2-0.1-0.3-0.3-0.4-0.5c0-0.2,0.1-0.4,0.2-0.5
			c0.1-0.2,0.3-0.3,0.5-0.3c0.2,0,0.5,0,0.7,0.2c1.2,0.7,2.1,1.7,3,2.6c0.2,0.2,0.2,0.4,0.2,0.6c0,0.2-0.1,0.4-0.3,0.5
			C29.6,80.2,29.4,80.3,29.2,80.3z M26,81.7c-0.3,0-0.5,0.2-0.7,0.4c-0.2,0.2-0.2,0.5-0.2,0.7c0.1,0.3,0.3,0.5,0.5,0.7
			c0.8,0.5,1.7,1.2,2.4,1.9c0.2,0.2,0.5,0.3,0.8,0.4c0.3,0,0.6-0.1,0.8-0.3c0.2-0.2,0.3-0.4,0.4-0.7c0-0.3-0.1-0.5-0.4-0.7
			c-0.8-0.8-1.8-1.6-2.8-2.2C26.8,81.7,26.3,81.6,26,81.7z M29.1,85.6c-0.2,0-0.5-0.1-0.7-0.3c-0.7-0.7-1.6-1.4-2.5-1.9
			c-0.2-0.1-0.4-0.3-0.4-0.5c0-0.2,0-0.4,0.1-0.5c0.1-0.2,0.3-0.3,0.5-0.3c0.2,0,0.5,0,0.7,0.2c0.9,0.6,1.9,1.4,2.7,2.1
			c0.2,0.1,0.3,0.3,0.3,0.5c0,0.2-0.1,0.4-0.3,0.5C29.5,85.5,29.3,85.6,29.1,85.6z M28.7,86.8c-0.3,0.2-0.4,0.4-0.5,0.7
			c-0.4,2.2-1.3,4.2-2.7,5.9c-0.2,0.2-0.3,0.4-0.3,0.7c0,0.3,0.2,0.5,0.4,0.7c0.2,0.1,0.5,0.2,0.8,0.2c0.7-0.1,1.6-1.3,2.6-3.3
			c0.6-1.3,1.1-2.6,1.4-4c0.1-0.3,0-0.6-0.2-0.8c-0.2-0.2-0.4-0.3-0.7-0.4C29.3,86.6,29,86.6,28.7,86.8z M28.9,87
			c0.2-0.1,0.4-0.1,0.6-0.1s0.4,0.1,0.5,0.3c0.1,0.2,0.2,0.4,0.1,0.6c-0.3,1.4-0.7,2.6-1.3,3.9c-0.9,2-1.8,3-2.4,3.2
			c-0.2,0-0.4-0.1-0.6-0.2s-0.3-0.3-0.3-0.5c0-0.2,0.1-0.4,0.2-0.5c1.5-1.7,2.4-3.8,2.7-6C28.6,87.3,28.7,87.1,28.9,87z"/>
		<path class="st0" d="M25.8,83.3c0.8,0.5,1.7,1.3,2.5,1.9c0.2,0.2,0.5,0.3,0.7,0.3s0.5-0.1,0.7-0.2c0.2-0.2,0.3-0.4,0.3-0.6
			c0-0.2-0.1-0.5-0.3-0.6C29,83.2,28,82.5,27,81.9c-0.2-0.2-0.5-0.2-0.8-0.2c-0.2,0-0.5,0.2-0.6,0.4c-0.2,0.2-0.2,0.4-0.2,0.7
			C25.4,83,25.5,83.2,25.8,83.3z M44.3,89.2H33.9c-0.1,0-0.2-0.1-0.2-0.1v-0.2l0.1-0.3c0-0.1,0.1-0.1,0.1-0.2c0,0,0-0.1,0.2-0.1h9
			c0.5,0,1.1-0.2,1.5-0.5c0.3-0.3,0.5-0.7,0.5-1.3v-1.4c0-0.4-0.2-0.7-0.5-1.1c-0.3-0.3-0.7-0.5-1.3-0.5h-1.6v-4.2h4.3
			c0.3,0,0.5-0.1,0.7-0.3c0.2-0.2,0.3-0.4,0.3-0.6c0-0.2-0.1-0.5-0.3-0.7c-0.2-0.2-0.5-0.2-0.7-0.2h-6.4c-0.3-1.1-0.7-1.7-1.2-1.9
			c-0.3-0.1-0.6-0.1-0.8,0c-0.3,0.1-0.5,0.3-0.6,0.5c0,0.1-0.1,0.2-0.1,0.3c0,0.2,0,0.4,0.1,0.5c0,0,0.1,0.2,0.2,0.4h-5.8
			c-0.3,0-0.5,0.1-0.7,0.2c-0.2,0.2-0.3,0.4-0.3,0.6c0,0.3,0.1,0.5,0.3,0.7c0.2,0.2,0.5,0.2,0.7,0.2h4.2v4.2h-2.3
			c-0.3,0-0.5,0.1-0.8,0.2c-0.2,0.2-0.3,0.4-0.3,0.6c0,0.2,0.1,0.5,0.3,0.6c0.2,0.2,0.5,0.3,0.8,0.3h9.1c0.1,0,0.2,0,0.2,0.1
			l0.1,0.1v0.4L42.7,86c-0.1,0.1-0.2,0.1-0.3,0.1h-8.8c-0.5,0-1.1,0.1-1.5,0.3c-0.4,0.2-0.6,0.6-0.6,1.1L31.4,89
			c-0.1,0.4,0.1,0.9,0.4,1.3c0.4,0.3,0.8,0.5,1.4,0.5h10.4c0.1,0,0.2,0,0.3,0.1C44,91,44,91,44,91.1c0,0.3-0.1,0.6-0.3,0.8
			c-0.6,0.5-1.4,0.8-2.2,0.8c-0.8,0.1-1.8,0.1-2.9,0c-1.8-0.1-3.5-0.3-5.3-0.6c-0.3-0.1-0.6,0-0.9,0.1c-0.2,0.1-0.4,0.3-0.4,0.6
			c0,0.2,0,0.5,0.1,0.7c0.3,0.4,1.5,0.9,8,1.1h1.2c2.3-0.2,3.7-0.7,4.2-1.7c0.4-0.7,0.6-1.7,0.6-2.5c0-0.4-0.1-0.8-0.4-1.1
			C45.3,89.4,44.7,89.3,44.3,89.2L44.3,89.2z M39.6,83.7h-1.9v-4.2h1.9V83.7z M29.5,86.7c-0.2,0-0.5,0-0.7,0.1s-0.4,0.4-0.4,0.6
			c-0.4,2.2-1.4,4.2-2.7,6c-0.3,0.3-0.3,0.8-0.1,1.2c0.1,0.1,0.1,0.1,0.2,0.2c0.2,0.1,0.4,0.2,0.7,0.2c0.7-0.1,1.6-1.3,2.5-3.3
			c0.6-1.3,1.1-2.5,1.4-3.9c0.1-0.2,0-0.5-0.1-0.7C29.9,86.9,29.7,86.8,29.5,86.7L29.5,86.7z M34.7,81.6c0.2-0.2,0.3-0.4,0.3-0.7
			s-0.2-0.5-0.4-0.6C34.3,80.1,34,80,33.7,80c-0.3,0-0.5,0.2-0.7,0.4c-0.7,0.7-1.6,1.5-2.4,2c-0.2,0.2-0.4,0.4-0.5,0.7
			c0,0.2,0.1,0.5,0.2,0.7c0.2,0.2,0.4,0.3,0.7,0.3s0.5-0.1,0.8-0.2C32.9,83.2,33.8,82.5,34.7,81.6L34.7,81.6z M25.7,77.6
			c0.9,0.7,1.9,1.5,2.7,2.4c0.2,0.2,0.4,0.3,0.7,0.4c0.2,0,0.5-0.1,0.7-0.2c0.2-0.1,0.3-0.4,0.4-0.6c0-0.3-0.1-0.5-0.3-0.7
			c-0.8-1.1-1.9-1.9-2.9-2.7c-0.2-0.2-0.5-0.2-0.8-0.2c-0.2,0-0.5,0.1-0.6,0.3c-0.3,0.3-0.3,0.5-0.3,0.7
			C25.3,77.2,25.5,77.5,25.7,77.6L25.7,77.6z M46.9,82.4c-0.8-0.7-1.7-1.5-2.6-2c-0.2-0.1-0.5-0.2-0.8-0.2s-0.5,0.2-0.7,0.4
			c-0.2,0.2-0.2,0.4-0.2,0.7c0.1,0.3,0.3,0.5,0.5,0.6c0.7,0.5,1.5,1.2,2.2,1.8c0.2,0.2,0.5,0.3,0.8,0.4c0.2,0,0.5-0.1,0.7-0.2
			c0.2-0.2,0.3-0.4,0.4-0.7C47.3,82.8,47.2,82.6,46.9,82.4L46.9,82.4z M71.8,93.8c-0.1-0.3-0.3-0.6-0.6-0.7c-2.4-1.3-4.4-3-6.1-5.3
			c-1.2-1.6-2-3.5-2.5-5.4h7.6c0.3,0,0.6-0.1,0.8-0.3c0.4-0.4,0.4-1.1,0-1.5l0,0c-0.2-0.2-0.5-0.3-0.8-0.3h-7.9
			c0-0.2,0.1-0.8,0.1-0.8v-2.3c0-0.3-0.1-0.6-0.3-0.9c-0.2-0.2-0.5-0.3-0.8-0.3c-0.3,0-0.6,0.1-0.8,0.3c-0.2,0.2-0.3,0.6-0.3,0.9
			v3.3h-7.9c-0.3,0-0.6,0.1-0.8,0.3c-0.4,0.4-0.4,1.1,0,1.5c0.2,0.2,0.5,0.3,0.8,0.3h7.6c-0.8,4.6-4,8.5-8.3,10.4
			c-0.3,0-0.6,0.2-0.8,0.7c-0.1,0.3,0,0.5,0.1,0.7c0.1,0.3,0.4,0.4,0.7,0.5c0.4,0.1,1.3-0.2,2.7-0.9c3.4-2,5.9-5.2,7.3-8.8
			c1.4,3.6,4.2,6.8,8.5,9.7c0.3,0.2,0.6,0.3,1.1,0.2c0.3-0.1,0.5-0.3,0.7-0.5c0.1-0.2,0.2-0.4,0.2-0.6C71.8,94,71.8,93.9,71.8,93.8z
			 M76.3,78.2h14.8v4.1c0,0.2-0.1,0.3-0.2,0.3h-0.4c-0.4-0.1-0.9,0-1.2,0.3v-0.1v-2.5c0-0.3-0.2-0.7-0.4-0.9
			c-0.3-0.3-0.7-0.4-1.2-0.4h-8.8c-0.3,0-0.6,0.1-0.9,0.4c-0.2,0.2-0.4,0.5-0.4,0.9v2.5c0,0.4,0.1,0.7,0.4,1.1
			c0.2,0.3,0.5,0.4,0.9,0.4h8.8c0.4,0,0.8-0.2,1.1-0.4c0.1-0.1,0.2-0.2,0.2-0.3c0,0.2,0,0.4,0.1,0.6c0.2,0.2,0.5,0.4,0.8,0.4
			c0.7,0.1,1.5,0.1,2.1-0.2c0.3-0.1,0.6-0.4,0.8-0.7c0.2-0.3,0.3-0.7,0.3-1.1v-4.5h1.2c0.3,0,0.5-0.1,0.7-0.3
			c0.2-0.2,0.3-0.4,0.3-0.6c0-0.3-0.1-0.5-0.3-0.7c-0.2-0.2-0.5-0.2-0.7-0.2H76.3c-0.3,0-0.5,0.1-0.7,0.3c-0.2,0.2-0.3,0.4-0.3,0.6
			c0,0.3,0.1,0.5,0.3,0.7C75.8,78.1,76,78.2,76.3,78.2L76.3,78.2z M87.1,82c0,0.1,0,0.3-0.1,0.4c-0.1,0.1-0.3,0.1-0.4,0.1h-6.5
			c-0.2,0-0.3,0-0.4-0.1s-0.1-0.2-0.1-0.4v-0.5c0-0.2,0-0.4,0.1-0.6c0,0,0.1-0.1,0.4-0.1h6.5c0.2,0,0.3,0,0.4,0.2
			c0.1,0.2,0.1,0.4,0.1,0.6V82z M95.7,85.5c-0.2-0.2-0.5-0.2-0.7-0.2H75.2c-0.3,0-0.5,0.1-0.7,0.3c-0.2,0.2-0.3,0.4-0.3,0.6
			c0,0.3,0.1,0.5,0.3,0.7c0.2,0.2,0.5,0.3,0.7,0.3h15.6v5.7c0,0.2,0,0.3-0.1,0.5c-0.1,0.1-0.2,0.2-0.3,0.1c-0.5,0-1.2-0.1-1.7-0.3
			l0.1-0.1c0.3-0.2,0.5-0.6,0.5-1.1v-2.7c0-0.3-0.2-0.7-0.4-0.9c-0.3-0.3-0.7-0.4-1.2-0.4h-8.9c-0.3,0-0.6,0.1-0.9,0.4
			c-0.3,0.2-0.4,0.5-0.4,0.9v2.8c0,0.4,0.1,0.7,0.4,1.1c0.2,0.3,0.5,0.4,0.9,0.4h8.7c-0.1,0.1-0.2,0.1-0.2,0.3c0,0.1,0,0.2,0,0.3
			c0,0.1,0,0.3,0.1,0.4c0.3,0.4,0.9,0.7,2.1,0.8c0.8,0.2,1.8,0.1,2.5-0.2c0.6-0.4,1.1-1.1,1.1-1.9v-6.1H95c0.3,0,0.5-0.1,0.7-0.3
			c0.2-0.2,0.3-0.4,0.3-0.6C96,85.9,95.9,85.7,95.7,85.5L95.7,85.5z M87,91.2c0,0.1,0,0.3-0.1,0.4s-0.3,0.1-0.4,0.1H80
			c-0.2,0-0.3,0-0.4-0.1c-0.1-0.1-0.1-0.2-0.1-0.4v-1.1c0-0.2,0-0.3,0.1-0.4c0,0,0.1-0.1,0.4-0.1h6.5c0.2,0,0.3,0,0.4,0.1
			C87,89.9,87,90,87,90.2V91.2z M119.9,93.8c-0.1-0.3-0.3-0.6-0.6-0.7c-2.4-1.3-4.4-3-6.1-5.3c-1.2-1.6-2-3.5-2.5-5.4h7.6
			c0.3,0,0.6-0.1,0.8-0.3c0.4-0.4,0.4-1.1,0-1.5c-0.2-0.2-0.5-0.3-0.8-0.3h-7.8c0-0.2,0.1-0.8,0.1-0.8v-2.3c0-0.3-0.1-0.6-0.3-0.9
			c-0.2-0.2-0.5-0.3-0.8-0.3c-0.3,0-0.5,0.1-0.8,0.3c-0.2,0.2-0.3,0.6-0.3,0.9v3.3h-7.8c-0.3,0-0.6,0.1-0.8,0.3
			c-0.4,0.4-0.4,1.1,0,1.5c0.2,0.2,0.5,0.3,0.8,0.3h7.6c-0.8,4.6-4,8.5-8.3,10.4c-0.3,0-0.6,0.2-0.8,0.7c-0.1,0.3,0,0.5,0.1,0.7
			c0.1,0.3,0.4,0.4,0.6,0.5c0.4,0.1,1.3-0.2,2.7-0.9c3.4-2,5.9-5.2,7.3-8.8c1.4,3.6,4.2,6.8,8.4,9.7c0.3,0.2,0.6,0.3,1.1,0.2
			c0.3-0.1,0.6-0.2,0.7-0.5c0.1-0.2,0.2-0.4,0.2-0.6C120.1,94,120.1,93.9,119.9,93.8L119.9,93.8z"/>
		
			<radialGradient id="SVGID_1_" cx="774.2271" cy="399.3618" r="26.0147" gradientTransform="matrix(0.74 0 0 0.74 -511.4339 -257.9461)" gradientUnits="userSpaceOnUse">
			<stop  offset="0.29" style="stop-color:#ED1C24"/>
			<stop  offset="0.84" style="stop-color:#B11116"/>
		</radialGradient>
		<path class="st1" d="M47.4,57.5l12.6-22H34.5L47.4,57.5z"/>
		
			<linearGradient id="SVGID_2_" gradientUnits="userSpaceOnUse" x1="732.1708" y1="407.5568" x2="741.4088" y2="407.5568" gradientTransform="matrix(0.74 0 0 0.74 -511.4339 -257.9461)">
			<stop  offset="0.29" style="stop-color:#ED1C24"/>
			<stop  offset="0.84" style="stop-color:#B11116"/>
		</linearGradient>
		<path class="st2" d="M27.8,35.6l4.4,16.1l2.4-16.1C34.7,35.6,27.8,35.6,27.8,35.6z"/>
		
			<linearGradient id="SVGID_3_" gradientUnits="userSpaceOnUse" x1="743.3947" y1="431.7078" x2="744.6436" y2="424.0201" gradientTransform="matrix(0.74 0 0 0.74 -511.4339 -257.9461)">
			<stop  offset="0.29" style="stop-color:#ED1C24"/>
			<stop  offset="0.84" style="stop-color:#B11116"/>
		</linearGradient>
		<path class="st3" d="M44,63.4L32.2,51.7l15.1,5.8L44,63.4z"/>
		
			<linearGradient id="SVGID_4_" gradientUnits="userSpaceOnUse" x1="32.6031" y1="105.333" x2="44.1117" y2="92.6865" gradientTransform="matrix(1 0 0 1 0 -77.03)">
			<stop  offset="0.16" style="stop-color:#FFCB05"/>
			<stop  offset="0.81" style="stop-color:#F58220"/>
		</linearGradient>
		<path class="st4" d="M47.2,13.5L34.5,35.6C31.9,19.5,32,19.5,32,19.5L47.2,13.5z"/>
		
			<linearGradient id="SVGID_5_" gradientUnits="userSpaceOnUse" x1="32.1443" y1="118.9781" x2="43.0793" y2="133.8912" gradientTransform="matrix(1 0 0 1 0 -77.03)">
			<stop  offset="0.45" style="stop-color:#F58466"/>
			<stop  offset="1" style="stop-color:#ED1C24"/>
		</linearGradient>
		<path class="st5" d="M34.7,35.6l12.7,21.9c-15.2-5.8-15.2-5.8-15.2-5.8L34.7,35.6z"/>
		
			<radialGradient id="SVGID_6_" cx="775.9201" cy="397.9557" r="32.213" gradientTransform="matrix(0.74 0 0 0.74 -511.4339 -257.9461)" gradientUnits="userSpaceOnUse">
			<stop  offset="0.16" style="stop-color:#FAA61A"/>
			<stop  offset="0.81" style="stop-color:#F15A22"/>
		</radialGradient>
		<path class="st6" d="M34.7,35.6h25.5L47.3,13.5C47.2,13.5,34.7,35.6,34.7,35.6z"/>
		
			<linearGradient id="SVGID_7_" gradientUnits="userSpaceOnUse" x1="742.0487" y1="362.9279" x2="745.814" y2="374.529" gradientTransform="matrix(0.74 0 0 0.74 -511.4339 -257.9461)">
			<stop  offset="0.16" style="stop-color:#FAA61A"/>
			<stop  offset="0.81" style="stop-color:#F15A22"/>
		</linearGradient>
		<path class="st7" d="M43.8,7.6L32,19.5l15.1-6C47.2,13.5,43.8,7.6,43.8,7.6z"/>
		
			<linearGradient id="SVGID_8_" gradientUnits="userSpaceOnUse" x1="727.7429" y1="384.7472" x2="741.2313" y2="388.5125" gradientTransform="matrix(0.74 0 0 0.74 -511.4339 -257.9461)">
			<stop  offset="0.16" style="stop-color:#FAA61A"/>
			<stop  offset="0.81" style="stop-color:#F15A22"/>
		</linearGradient>
		<path class="st8" d="M27.8,35.6L32,19.5l2.5,16.1C34.7,35.6,27.8,35.6,27.8,35.6z"/>
		
			<radialGradient id="SVGID_9_" cx="775.9016" cy="398.3441" r="26.5698" gradientTransform="matrix(0.74 0 0 0.74 -511.4339 -257.9461)" gradientUnits="userSpaceOnUse">
			<stop  offset="0.51" style="stop-color:#0089CF"/>
			<stop  offset="1" style="stop-color:#034EA2"/>
		</radialGradient>
		<path class="st9" d="M47.4,57.5L60,35.6l12.8,22C72.8,57.5,47.4,57.5,47.4,57.5z"/>
		
			<linearGradient id="SVGID_10_" gradientUnits="userSpaceOnUse" x1="758.7206" y1="437.6035" x2="765.1502" y2="431.803" gradientTransform="matrix(0.74 0 0 0.74 -511.4339 -257.9461)">
			<stop  offset="0.51" style="stop-color:#0089CF"/>
			<stop  offset="1" style="stop-color:#034EA2"/>
		</linearGradient>
		<path class="st10" d="M44,63.4l16.1,4.2L47.4,57.5L44,63.4z"/>
		
			<linearGradient id="SVGID_11_" gradientUnits="userSpaceOnUse" x1="801.4412" y1="363.3391" x2="798.7768" y2="373.8487" gradientTransform="matrix(0.74 0 0 0.74 -511.4339 -257.9461)">
			<stop  offset="0" style="stop-color:#BFD730"/>
			<stop  offset="1" style="stop-color:#46812B"/>
		</linearGradient>
		<path class="st11" d="M76,7.6l11.9,11.7l-15.2-5.8L76,7.6z"/>
		
			<radialGradient id="SVGID_12_" cx="775.6888" cy="398.9085" r="25.8666" gradientTransform="matrix(0.74 0 0 0.74 -511.4339 -257.9461)" gradientUnits="userSpaceOnUse">
			<stop  offset="0.24" style="stop-color:#00B9F2"/>
			<stop  offset="0.88" style="stop-color:#007DC5"/>
		</radialGradient>
		<path class="st12" d="M85.4,35.6H60.1l12.8,22C72.8,57.5,85.4,35.6,85.4,35.6z"/>
		
			<linearGradient id="SVGID_13_" gradientUnits="userSpaceOnUse" x1="801.0862" y1="433.2567" x2="799.8373" y2="422.7101" gradientTransform="matrix(0.74 0 0 0.74 -511.4339 -257.9461)">
			<stop  offset="0.24" style="stop-color:#00B9F2"/>
			<stop  offset="0.88" style="stop-color:#007DC5"/>
		</linearGradient>
		<path class="st13" d="M76.2,63.3L88,51.5l-15.1,6L76.2,63.3z"/>
		
			<radialGradient id="SVGID_14_" cx="775.9293" cy="398.1407" r="25.7926" gradientTransform="matrix(0.74 0 0 0.74 -511.4339 -257.9461)" gradientUnits="userSpaceOnUse">
			<stop  offset="0.37" style="stop-color:#FFF200"/>
			<stop  offset="1" style="stop-color:#FAA61A"/>
		</radialGradient>
		<path class="st14" d="M72.6,13.5L60,35.6L47.2,13.5L72.6,13.5z"/>
		
			<linearGradient id="SVGID_15_" gradientUnits="userSpaceOnUse" x1="760.4626" y1="354.1883" x2="764.2186" y2="363.7356" gradientTransform="matrix(0.74 0 0 0.74 -511.4339 -257.9461)">
			<stop  offset="0.37" style="stop-color:#FFF200"/>
			<stop  offset="1" style="stop-color:#FAA61A"/>
		</linearGradient>
		<path class="st15" d="M43.8,7.6l16.1-4.2L47.3,13.5L43.8,7.6z"/>
		
			<linearGradient id="SVGID_16_" gradientUnits="userSpaceOnUse" x1="784.3656" y1="352.5647" x2="781.0721" y2="360.5578" gradientTransform="matrix(0.74 0 0 0.74 -511.4339 -257.9461)">
			<stop  offset="0.37" style="stop-color:#FFF200"/>
			<stop  offset="1" style="stop-color:#FAA61A"/>
		</linearGradient>
		<path class="st16" d="M76,7.6L59.9,3.4l12.7,10.1L76,7.6z"/>
		
			<linearGradient id="SVGID_17_" gradientUnits="userSpaceOnUse" x1="50.7179" y1="85.2384" x2="73.5871" y2="87.3755" gradientTransform="matrix(1 0 0 1 0 -77.03)">
			<stop  offset="0.28" style="stop-color:#FFF685"/>
			<stop  offset="0.82" style="stop-color:#FFCB05"/>
		</linearGradient>
		<path class="st17" d="M47.2,13.5h25.5L59.8,3.4L47.2,13.5z"/>
		
			<linearGradient id="SVGID_18_" gradientUnits="userSpaceOnUse" x1="821.6332" y1="384.8055" x2="811.8915" y2="385.7491" gradientTransform="matrix(0.74 0 0 0.74 -511.4339 -257.9461)">
			<stop  offset="0" style="stop-color:#BFD730"/>
			<stop  offset="1" style="stop-color:#46812B"/>
		</linearGradient>
		<path class="st18" d="M92.2,35.6l-4.4-16.3l-2.4,16.3H92.2z"/>
		
			<linearGradient id="SVGID_19_" gradientUnits="userSpaceOnUse" x1="1008.9151" y1="187.7615" x2="1029.5732" y2="187.7615" gradientTransform="matrix(0.74 0 0 0.74 -670.4539 -114.3861)">
			<stop  offset="0.14" style="stop-color:#72BF44"/>
			<stop  offset="0.77" style="stop-color:#D7DF23"/>
		</linearGradient>
		<path class="st19" d="M85.4,35.6L72.6,13.5c15.2,5.8,15.2,5.8,15.2,5.8L85.4,35.6z"/>
		
			<linearGradient id="SVGID_20_" gradientUnits="userSpaceOnUse" x1="796.0275" y1="442.1749" x2="784.7501" y2="435.4399" gradientTransform="matrix(0.74 0 0 0.74 -511.4339 -257.9461)">
			<stop  offset="0.51" style="stop-color:#0089CF"/>
			<stop  offset="1" style="stop-color:#034EA2"/>
		</linearGradient>
		<path class="st20" d="M76.2,63.3l-16,4.4l12.6-10.1L76.2,63.3z"/>
		
			<linearGradient id="SVGID_21_" gradientUnits="userSpaceOnUse" x1="50.1297" y1="139.6764" x2="71.1579" y2="138.9641" gradientTransform="matrix(1 0 0 1 0 -77.03)">
			<stop  offset="0.33" style="stop-color:#00AEEF"/>
			<stop  offset="1" style="stop-color:#0072BC"/>
		</linearGradient>
		<path class="st21" d="M72.8,57.5H47.4l12.7,10.1L72.8,57.5z"/>
		
			<linearGradient id="SVGID_22_" gradientUnits="userSpaceOnUse" x1="821.3077" y1="402.8006" x2="810.7427" y2="406.5289" gradientTransform="matrix(0.74 0 0 0.74 -511.4339 -257.9461)">
			<stop  offset="0.24" style="stop-color:#00B9F2"/>
			<stop  offset="0.88" style="stop-color:#007DC5"/>
		</linearGradient>
		<path class="st22" d="M92.2,35.6L88,51.5l-2.6-15.9C85.4,35.6,92.2,35.6,92.2,35.6z"/>
		
			<linearGradient id="SVGID_23_" gradientUnits="userSpaceOnUse" x1="77.0135" y1="134.8008" x2="87.5229" y2="119.4622" gradientTransform="matrix(1 0 0 1 0 -77.03)">
			<stop  offset="0.2" style="stop-color:#00AEEF"/>
			<stop  offset="0.8" style="stop-color:#44C8F5"/>
		</linearGradient>
		<path class="st23" d="M72.8,57.5l12.6-21.9c2.6,16.1,2.6,15.9,2.6,15.9L72.8,57.5z"/>
		
			<radialGradient id="SVGID_24_" cx="776.3919" cy="398.2979" r="29.7336" gradientTransform="matrix(0.74 0 0 0.74 -511.4339 -257.9461)" gradientUnits="userSpaceOnUse">
			<stop  offset="0" style="stop-color:#BFD730"/>
			<stop  offset="1" style="stop-color:#46812B"/>
		</radialGradient>
		<path class="st24" d="M72.6,13.5L60,35.6h25.5L72.6,13.5z"/>
		<path class="st0" d="M33.9,103.4h1.6v-0.5c0-0.2,0.1-0.4,0.2-0.5c0.2-0.1,0.4-0.2,0.6-0.1c0.2,0,0.4,0,0.6,0.1
			c0.2,0.1,0.3,0.3,0.2,0.5v0.5h7v-0.5c0-0.2,0.1-0.4,0.2-0.5c0.2-0.1,0.4-0.2,0.6-0.1c0.2,0,0.5,0,0.7,0.1s0.3,0.3,0.3,0.5v0.5h1.5
			c0.2,0,0.4,0,0.6,0.1c0.1,0.1,0.1,0.2,0.1,0.5c0,0.2,0,0.3-0.1,0.5c-0.2,0.2-0.4,0.2-0.6,0.2h-1.5v5h1.8c0.2,0,0.4,0,0.5,0.1
			c0.1,0.1,0.2,0.3,0.2,0.5c0,0.3-0.2,0.7-0.5,0.7c-0.1,0-0.1,0-0.2,0h-2.6c1.1,0.7,2.1,1.3,3.3,1.6c0.2,0.1,0.3,0.3,0.3,0.5
			c0,0.2-0.1,0.3-0.2,0.4c-0.2,0.2-0.4,0.2-0.7,0.2c-0.4,0-0.8-0.1-1.3-0.2c-0.3-0.1-0.5-0.2-0.7-0.4c0,0.2,0,0.3-0.1,0.5
			c-0.1,0.2-0.4,0.2-0.6,0.2h-3.6v0.8h5.2c0.2,0,0.4,0,0.6,0.1c0.1,0.1,0.2,0.3,0.2,0.6c0,0.2-0.1,0.3-0.2,0.5
			c-0.2,0.2-0.4,0.3-0.6,0.3h-12c-0.2,0-0.4-0.1-0.6-0.2c-0.1-0.1-0.2-0.3-0.2-0.5c0-0.2,0-0.4,0.2-0.6c0.2-0.1,0.4-0.2,0.6-0.1h5.2
			v-0.8h-3.6c-0.2,0-0.4,0-0.5-0.2c-0.1-0.2-0.2-0.3-0.2-0.5c0-0.1,0-0.1,0-0.2c-0.3,0.2-0.7,0.4-1.1,0.6c-0.3,0.2-0.6,0.3-1.1,0.3
			c-0.2,0-0.5-0.1-0.7-0.2c-0.1-0.1-0.2-0.3-0.2-0.5c0-0.2,0.1-0.4,0.3-0.5c1.4-0.6,2.4-1.1,3.2-1.5h-2.4c-0.2,0-0.4,0-0.5-0.2
			c-0.1-0.1-0.2-0.3-0.2-0.5c0-0.2,0.1-0.4,0.2-0.5c0.2-0.1,0.3-0.1,0.5-0.1h1.7v-5h-1.6c-0.2,0-0.4,0-0.5-0.2
			c-0.1-0.1-0.2-0.3-0.2-0.5c0-0.2,0-0.4,0.2-0.5C33.5,103.4,33.7,103.4,33.9,103.4z M36.4,112.8H40v-0.5c0-0.2,0.1-0.4,0.2-0.5
			c0.2-0.1,0.4-0.2,0.6-0.2c0.2,0,0.4,0,0.6,0.2c0.2,0.1,0.2,0.3,0.2,0.5v0.5H45c-0.2-0.1-0.3-0.2-0.5-0.4c-0.4-0.3-0.7-0.7-1.2-1.2
			H38c-0.3,0.4-0.7,0.7-1.2,1.1L36.4,112.8z M37.3,105.5h7v-0.7h-7V105.5z M37.3,107.7h7v-0.8h-7V107.7z M37.3,110h7v-0.8h-7V110z
			 M60.3,102.3c0.6,0,1.2,0.2,1.7,0.6c2.1,1.6,4.1,2.8,5.9,3.9c0.2,0.1,0.3,0.3,0.3,0.5c0,0.3-0.1,0.5-0.3,0.7
			c-0.2,0.2-0.4,0.2-0.7,0.2c-0.3,0-0.5-0.1-0.8-0.3l-0.7-0.5v0.1c0,0.2,0,0.3-0.1,0.5c-0.2,0.2-0.4,0.2-0.6,0.2h-3.7v1.9h5.5
			c0.2,0,0.4,0,0.5,0.1s0.2,0.3,0.2,0.6c0,0.2,0,0.3-0.1,0.5c-0.2,0.2-0.4,0.2-0.6,0.2h-5.5v3.4h2c0.3-0.7,0.6-1.6,1.1-2.4
			c0.2-0.3,0.5-0.5,0.9-0.5c0.2,0,0.4,0,0.6,0.1c0.2,0.1,0.3,0.3,0.3,0.5c-0.2,0.7-0.5,1.6-0.9,2.3h2.1c0.2,0,0.4,0,0.5,0.1
			c0.2,0.1,0.2,0.3,0.2,0.6c0,0.2,0,0.4-0.1,0.5c-0.2,0.2-0.4,0.3-0.6,0.2H53.4c-0.2,0-0.4-0.1-0.5-0.2c-0.2-0.1-0.3-0.4-0.2-0.6
			c0-0.2,0.1-0.4,0.2-0.6c0.2-0.1,0.4-0.1,0.5-0.1h2.2c-0.3-0.5-0.6-1.1-1.1-1.6c-0.1-0.1-0.2-0.3-0.2-0.4c0-0.2,0.1-0.5,0.3-0.6
			c0.2-0.1,0.5-0.2,0.7-0.2c0.3,0,0.5,0.1,0.7,0.3c0.5,0.7,1.1,1.5,1.5,2.3l0.1,0.2h1.6v-3.4h-5.5c-0.2,0-0.4,0-0.5-0.2
			c-0.2-0.1-0.2-0.3-0.2-0.5c0-0.2,0-0.4,0.2-0.6c0.1-0.1,0.3-0.1,0.5-0.1h5.4v-1.9h-3.6c-0.2,0-0.4,0-0.5-0.2
			c-0.1-0.1-0.2-0.3-0.2-0.5l-0.5,0.4c-0.3,0.2-0.7,0.3-1.1,0.3c-0.3,0-0.5-0.1-0.7-0.3c-0.1-0.2-0.2-0.4-0.2-0.6
			c0-0.2,0.2-0.4,0.3-0.5c2.1-1.4,4.1-2.6,5.8-4C59.1,102.5,59.7,102.3,60.3,102.3z M56.1,106.8h8.4c-1.2-0.8-2.5-1.8-3.8-2.7
			c-0.1-0.1-0.2-0.1-0.4-0.1c-0.1,0-0.2,0.1-0.3,0.1C58.5,105.1,57.3,106,56.1,106.8z M79.3,102.1c0.5,0,1.2,0.1,1.7,0.3
			c2.1,0.8,4.1,1.6,6,2.2c0.2,0.1,0.3,0.3,0.3,0.5c0,0.3-0.1,0.5-0.3,0.7c-0.2,0.2-0.4,0.2-0.7,0.2s-0.6-0.1-0.8-0.2
			c-0.4-0.1-0.9-0.3-1.4-0.5c0,0.1,0,0.1-0.1,0.2c-0.1,0.1-0.3,0.2-0.5,0.2h-8.2c-0.2,0-0.3,0-0.4-0.1c-0.1-0.1-0.1-0.2-0.1-0.3
			l-1.3,0.5c-0.3,0.1-0.7,0.2-1.1,0.2c-0.3,0-0.5-0.1-0.7-0.3c-0.1-0.2-0.2-0.4-0.2-0.6c0-0.2,0.1-0.3,0.3-0.4
			c2.1-0.7,4.1-1.5,5.9-2.2C78.1,102.2,78.7,102.1,79.3,102.1z M73.7,106.4h11.5c0.7,0,1.2,0.3,1.2,1.1v2.3c0,0.7-0.4,1.1-1.2,1.1
			H73.7c-0.7,0-1.2-0.3-1.2-1.1v-2.4C72.5,106.7,72.9,106.4,73.7,106.4L73.7,106.4z M74.2,111.5h10.4c0.8,0,1.3,0.4,1.3,1.2v2.7
			c0,0.7-0.4,1.2-1.3,1.2H74.2c-0.8,0-1.3-0.4-1.3-1.2v-2.8C72.9,111.8,73.4,111.4,74.2,111.5L74.2,111.5z M78.5,109.6v-2h-3.8
			c-0.3,0-0.4,0.1-0.4,0.4v1.3c0,0.2,0.1,0.3,0.4,0.3h1.7l-0.1-0.1c-0.2-0.2-0.5-0.5-0.9-1.1l-0.1-0.1c0-0.1,0-0.2,0.1-0.2
			c0.1-0.1,0.2-0.2,0.3-0.2c0.1,0,0.2-0.1,0.3-0.1c0.2,0,0.4,0.1,0.5,0.2c0.3,0.2,0.5,0.4,0.7,0.7c0.1,0.1,0.2,0.3,0.2,0.5
			c0,0.1-0.1,0.3-0.1,0.3L78.5,109.6z M74.6,113.5h9.5v-0.3c0-0.2-0.1-0.4-0.4-0.4H75c-0.2,0-0.4,0.1-0.4,0.4V113.5z M83.7,115.3
			c0.3,0,0.4-0.1,0.4-0.4v-0.3h-9.5v0.3c0,0.2,0.1,0.4,0.4,0.4H83.7z M76.3,104.6h6.1c-0.8-0.4-1.8-0.7-2.6-1.2
			c-0.1-0.1-0.2-0.1-0.4-0.1c-0.1,0-0.2,0-0.3,0.1C78,103.8,77.1,104.2,76.3,104.6L76.3,104.6z M84.2,109.6c0.2,0,0.4-0.1,0.4-0.3
			v-1.3c0-0.2-0.1-0.3-0.3-0.4h-0.1h-3.9v2h1.2c-0.1-0.1-0.2-0.2-0.2-0.4c0-0.1,0-0.1,0.1-0.2c0.4-0.4,0.6-0.6,0.8-0.9
			c0-0.1,0.1-0.2,0.2-0.2c0.1-0.1,0.2-0.1,0.3-0.1c0.2,0,0.4,0,0.5,0.1c0.2,0.1,0.3,0.3,0.3,0.4s-0.1,0.2-0.1,0.3
			c-0.2,0.3-0.5,0.6-0.8,0.9c0,0,0,0-0.1,0.1L84.2,109.6z"/>
	</g>
</g>
</svg>
