<?xml version="1.0" encoding="utf-8"?>
<!-- Generator: Adobe Illustrator 22.0.1, SVG Export Plug-In . SVG Version: 6.00 Build 0)  -->
<svg version="1.1" id="Layer_1" xmlns="http://www.w3.org/2000/svg" xmlns:xlink="http://www.w3.org/1999/xlink" x="0px" y="0px"
	 viewBox="0 0 383.3 120" style="enable-background:new 0 0 383.3 120;" xml:space="preserve">
<style type="text/css">
	.st0{fill:#808285;}
	.st1{fill:#89989F;}
</style>
<g>
	<path id="Black" d="M125.2,46.4c-3.2,0-6.4,0.3-10.2,1L109,89.9h8.8l1.7-13c1.2,0.1,2.8,0.3,4.3,0.3c12.4,0,18.5-8.5,18.5-16.6
		C142.4,52,135.7,46.4,125.2,46.4z M120.7,69.4l2.1-15.5c0.9-0.2,1.6-0.3,2.4-0.3c4.9,0,7.9,2.7,7.9,7
		C133.2,65.6,129.1,70.5,120.7,69.4z M93.8,39.7c-12.1,0-20.8,8.8-20.8,21c0,10.2,7.5,17.5,18,17.5c12,0,20.5-8.8,20.5-21.4
		C111.3,46.8,104,39.7,93.8,39.7L93.8,39.7z M90.8,70.3c-5.5,0-9.3-4.1-9.3-10c0-7,5.2-12.8,11.6-12.8c5.4,0,9.3,4.1,9.3,9.9
		C102.5,64.7,97.4,70.3,90.8,70.3z M263.5,47.1c-3.6,0-6.6,1.1-10.2,3.9l0.6-3.3h-8.8l-4.2,29.8h8.8l2.7-19.1c3-3.2,5.4-4.6,7.5-4.6
		c2.3,0,3,3.1,2.6,5.9L260,77.4h8.8l3.5-23.2C272.6,52.6,270.5,47.1,263.5,47.1L263.5,47.1z M311.5,73.3l-0.8,3.2l0,0l-0.8-3.2h-1.5
		v4.6h0.9v-3.7l0,0l1,3.7h0.8l1-3.7l0,0v3.7h0.9v-4.6H311.5z M160.3,47.1c-9,0-16.2,7.3-16.2,16.4c0,8.8,5.7,14.5,14.8,14.5
		c3.1,0,7.2-0.6,10.8-1.9l1.1-7.6c-4.8,1.9-8.3,3-11.1,3c-4.3,0-7.3-2.8-6.8-7.7h19.5C174.6,54.2,169.6,47.1,160.3,47.1L160.3,47.1z
		 M164.3,58.7h-10.4c1.3-3.7,3.2-5.5,6.2-5.5C163.1,53.2,164.9,55.4,164.3,58.7L164.3,58.7z M304,74.1h1.5v3.8h0.9v-3.8h1.4v-0.8
		H304V74.1z M297.5,34.5l-1.7,13c-1.2-0.1-2.8-0.3-4.3-0.3c-12.4,0-18.5,8.5-18.5,16.6c0,8.8,6.7,14.3,17.2,14.3
		c3.2,0,6.4-0.3,10.2-1l5.9-42.5L297.5,34.5L297.5,34.5z M292.6,70.4c-0.9,0.2-1.6,0.3-2.4,0.3c-4.9,0-7.9-2.7-7.9-7
		c0-4.9,4.1-9.8,12.5-8.8L292.6,70.4z M235.3,47.6h-13.9c0.6-4.6,1.4-5,4.8-6.4c1.5-0.6,5.4-1.9,6.7-2.2l-0.6,4.5l13.7-5.5l1.5-8.6
		L233.8,35l0.7-4.5c0,0-6.5,2.2-8.7,3c-6.4,2.3-11.8,3.4-13.1,14h-7.3l-0.8,5.9c-0.3-2.1-2.7-6.4-8.8-6.4c-3.6,0-6.6,1.1-10.2,3.9
		l0.6-3.3h-8.8l-4.2,29.8h8.8l2.7-19.1c3-3.2,5.5-4.6,7.5-4.6c2.3,0,3,3.1,2.6,5.9l-2.5,17.8h8.8l3.5-23.2v-0.1h7l-3.5,23.4h8.8
		l3.5-23.4h10.3l-3.2,23.2h8.8l4.2-29.8L235.3,47.6L235.3,47.6z"/>
	<path id="Grey" class="st0" d="M125.2,46.4c-3.2,0-6.4,0.3-10.2,1L109,89.9h8.8l1.7-13c1.2,0.1,2.8,0.3,4.3,0.3
		c12.4,0,18.5-8.5,18.5-16.6C142.4,52,135.7,46.4,125.2,46.4z M120.7,69.4l2.1-15.5c0.9-0.2,1.6-0.3,2.4-0.3c4.9,0,7.9,2.7,7.9,7
		C133.2,65.6,129.1,70.5,120.7,69.4z M93.8,39.7c-12.1,0-20.8,8.8-20.8,21c0,10.2,7.5,17.5,18,17.5c12,0,20.5-8.8,20.5-21.4
		C111.3,46.8,104,39.7,93.8,39.7L93.8,39.7z M90.8,70.3c-5.5,0-9.3-4.1-9.3-10c0-7,5.2-12.8,11.6-12.8c5.4,0,9.3,4.1,9.3,9.9
		C102.5,64.7,97.4,70.3,90.8,70.3z M263.5,47.1c-3.6,0-6.6,1.1-10.2,3.9l0.6-3.3h-8.8l-4.2,29.8h8.8l2.7-19.1c3-3.2,5.4-4.6,7.5-4.6
		c2.3,0,3,3.1,2.6,5.9L260,77.4h8.8l3.5-23.2C272.6,52.6,270.5,47.1,263.5,47.1L263.5,47.1z M311.5,73.3l-0.8,3.2l0,0l-0.8-3.2h-1.5
		v4.6h0.9v-3.7l0,0l1,3.7h0.8l1-3.7l0,0v3.7h0.9v-4.6H311.5z M160.3,47.1c-9,0-16.2,7.3-16.2,16.4c0,8.8,5.7,14.5,14.8,14.5
		c3.1,0,7.2-0.6,10.8-1.9l1.1-7.6c-4.8,1.9-8.3,3-11.1,3c-4.3,0-7.3-2.8-6.8-7.7h19.5C174.6,54.2,169.6,47.1,160.3,47.1L160.3,47.1z
		 M164.3,58.7h-10.4c1.3-3.7,3.2-5.5,6.2-5.5C163.1,53.2,164.9,55.4,164.3,58.7L164.3,58.7z M304,74.1h1.5v3.8h0.9v-3.8h1.4v-0.8
		H304V74.1z M297.5,34.5l-1.7,13c-1.2-0.1-2.8-0.3-4.3-0.3c-12.4,0-18.5,8.5-18.5,16.6c0,8.8,6.7,14.3,17.2,14.3
		c3.2,0,6.4-0.3,10.2-1l5.9-42.5L297.5,34.5L297.5,34.5z M292.6,70.4c-0.9,0.2-1.6,0.3-2.4,0.3c-4.9,0-7.9-2.7-7.9-7
		c0-4.9,4.1-9.8,12.5-8.8L292.6,70.4z M235.3,47.6h-13.9c0.6-4.6,1.4-5,4.8-6.4c1.5-0.6,5.4-1.9,6.7-2.2l-0.6,4.5l13.7-5.5l1.5-8.6
		L233.8,35l0.7-4.5c0,0-6.5,2.2-8.7,3c-6.4,2.3-11.8,3.4-13.1,14h-7.3l-0.8,5.9c-0.3-2.1-2.7-6.4-8.8-6.4c-3.6,0-6.6,1.1-10.2,3.9
		l0.6-3.3h-8.8l-4.2,29.8h8.8l2.7-19.1c3-3.2,5.5-4.6,7.5-4.6c2.3,0,3,3.1,2.6,5.9l-2.5,17.8h8.8l3.5-23.2v-0.1h7l-3.5,23.4h8.8
		l3.5-23.4h10.3l-3.2,23.2h8.8l4.2-29.8L235.3,47.6L235.3,47.6z"/>
	<path id="PMS_Metallics_8240C" class="st1" d="M125.2,46.4c-3.2,0-6.4,0.3-10.2,1L109,89.9h8.8l1.7-13c1.2,0.1,2.8,0.3,4.3,0.3
		c12.4,0,18.5-8.5,18.5-16.6C142.4,52,135.7,46.4,125.2,46.4z M120.7,69.4l2.1-15.5c0.9-0.2,1.6-0.3,2.4-0.3c4.9,0,7.9,2.7,7.9,7
		C133.2,65.6,129.1,70.5,120.7,69.4z M93.8,39.7c-12.1,0-20.8,8.8-20.8,21c0,10.2,7.5,17.5,18,17.5c12,0,20.5-8.8,20.5-21.4
		C111.3,46.8,104,39.7,93.8,39.7L93.8,39.7z M90.8,70.3c-5.5,0-9.3-4.1-9.3-10c0-7,5.2-12.8,11.6-12.8c5.4,0,9.3,4.1,9.3,9.9
		C102.5,64.7,97.4,70.3,90.8,70.3z M263.5,47.1c-3.6,0-6.6,1.1-10.2,3.9l0.6-3.3h-8.8l-4.2,29.8h8.8l2.7-19.1c3-3.2,5.4-4.6,7.5-4.6
		c2.3,0,3,3.1,2.6,5.9L260,77.4h8.8l3.5-23.2C272.6,52.6,270.5,47.1,263.5,47.1L263.5,47.1z M311.5,73.3l-0.8,3.2l0,0l-0.8-3.2h-1.5
		v4.6h0.9v-3.7l0,0l1,3.7h0.8l1-3.7l0,0v3.7h0.9v-4.6H311.5z M160.3,47.1c-9,0-16.2,7.3-16.2,16.4c0,8.8,5.7,14.5,14.8,14.5
		c3.1,0,7.2-0.6,10.8-1.9l1.1-7.6c-4.8,1.9-8.3,3-11.1,3c-4.3,0-7.3-2.8-6.8-7.7h19.5C174.6,54.2,169.6,47.1,160.3,47.1L160.3,47.1z
		 M164.3,58.7h-10.4c1.3-3.7,3.2-5.5,6.2-5.5C163.1,53.2,164.9,55.4,164.3,58.7L164.3,58.7z M304,74.1h1.5v3.8h0.9v-3.8h1.4v-0.8
		H304V74.1z M297.5,34.5l-1.7,13c-1.2-0.1-2.8-0.3-4.3-0.3c-12.4,0-18.5,8.5-18.5,16.6c0,8.8,6.7,14.3,17.2,14.3
		c3.2,0,6.4-0.3,10.2-1l5.9-42.5L297.5,34.5L297.5,34.5z M292.6,70.4c-0.9,0.2-1.6,0.3-2.4,0.3c-4.9,0-7.9-2.7-7.9-7
		c0-4.9,4.1-9.8,12.5-8.8L292.6,70.4z M235.3,47.6h-13.9c0.6-4.6,1.4-5,4.8-6.4c1.5-0.6,5.4-1.9,6.7-2.2l-0.6,4.5l13.7-5.5l1.5-8.6
		L233.8,35l0.7-4.5c0,0-6.5,2.2-8.7,3c-6.4,2.3-11.8,3.4-13.1,14h-7.3l-0.8,5.9c-0.3-2.1-2.7-6.4-8.8-6.4c-3.6,0-6.6,1.1-10.2,3.9
		l0.6-3.3h-8.8l-4.2,29.8h8.8l2.7-19.1c3-3.2,5.5-4.6,7.5-4.6c2.3,0,3,3.1,2.6,5.9l-2.5,17.8h8.8l3.5-23.2v-0.1h7l-3.5,23.4h8.8
		l3.5-23.4h10.3l-3.2,23.2h8.8l4.2-29.8L235.3,47.6L235.3,47.6z"/>
</g>
</svg>
