<svg xmlns="http://www.w3.org/2000/svg" viewBox="0 0 289.28 315.8"><defs><style>.cls-1{fill:#f5a117;}.cls-2,.cls-8{fill:#001d2f;}.cls-11,.cls-13,.cls-2,.cls-4{stroke:#001d2f;}.cls-11,.cls-12,.cls-13,.cls-14,.cls-15,.cls-2,.cls-4{stroke-linecap:round;stroke-linejoin:round;}.cls-15,.cls-2,.cls-4{stroke-width:1.04px;}.cls-3{fill:#fff;}.cls-11,.cls-12,.cls-13,.cls-14,.cls-15,.cls-4,.cls-9{fill:none;}.cls-5{fill:#c9caca;}.cls-6{fill:#e9506c;}.cls-7{fill:#2667b2;stroke:#2667b2;stroke-width:0.48px;}.cls-7,.cls-9{stroke-miterlimit:10;}.cls-12,.cls-14,.cls-15,.cls-9{stroke:#fff;}.cls-9{stroke-width:0.52px;}.cls-10{fill:#633a7c;}.cls-11,.cls-14{stroke-width:2.08px;}.cls-12,.cls-13{stroke-width:1.56px;}</style></defs><title>CTG-4_en</title><g id="Layer_2" data-name="Layer 2"><g id="圖層_1" data-name="圖層 1"><path class="cls-1" d="M122.65,44c-1,1-1.43-.24-2.87-.24s-1.44.3-2.89.3-1.44-.15-2.88-.15-1.45.19-2.89.19-1.44.14-2.89.14-1.44,0-2.88,0-1.44,0-2.89,0-1.44.05-2.88.05-1.45-.46-2.89-.46-1.44.37-2.88.37H90.92c-1.45,0-1.45-.29-2.89-.29s-1.44.21-2.89.21-1.44.05-2.89.05-1.44.06-2.89.06-1.44-.22-2.89-.22-1.44.13-2.89.13S72.14,44,70.7,44s-1.45.13-2.9.13-1.44.05-2.89.05S63.47,44,62,44s-1.45.11-2.89.11-1.72.73-2.75-.28S56,42.57,56,41.16s0-1.41,0-2.83.29-1.41.29-2.82-.12-1.42-.12-2.83S56,31.27,56,29.85s.28-1.41.28-2.82.09-1.41.09-2.83S56,22.79,56,21.37s.1-1.41.1-2.83.27-1.41.27-2.82,0-1.41,0-2.83S56,11.48,56,10.06s.36-1.41.36-2.83-.17-1.41-.17-2.83-.93-1.76.08-2.76,1.36-.25,2.81-.25,1.44.3,2.88.3,1.45-.1,2.89-.1,1.45.23,2.89.23,1.44-.47,2.89-.47,1.44.06,2.88.06h2.88c1.45,0,1.45.33,2.89.33s1.44-.14,2.89-.14,1.44-.16,2.88-.16,1.45.12,2.89.12,1.44-.16,2.89-.16,1.44.18,2.89.18,1.44,0,2.89,0,1.44,0,2.88,0,1.45,0,2.9,0,1.44,0,2.89,0,1.44,0,2.88,0,1.45,0,2.89,0,1.45-.07,2.89-.07,1.45,0,2.9,0,1.44.24,2.89.24,1.87-1.23,2.9-.22-.09,1.42-.09,2.83.13,1.41.13,2.82,0,1.42,0,2.83,0,1.41,0,2.83-.29,1.41-.29,2.82,0,1.42,0,2.83.08,1.41.08,2.83v2.82c0,1.42.16,1.42.16,2.83s-.17,1.42-.17,2.83.25,1.41.25,2.83-.06,1.41-.06,2.83-.25,1.41-.25,2.82a9,9,0,0,0,.44,2.8C123.17,42.58,123.66,43,122.65,44Z"/><rect class="cls-2" x="79.96" y="13.37" width="18.75" height="18.75"/><rect class="cls-3" x="82.82" y="16.3" width="5.82" height="5.8"/><rect class="cls-3" x="82.82" y="23.39" width="5.82" height="5.8"/><rect class="cls-3" x="90.03" y="16.3" width="5.82" height="5.8"/><rect class="cls-3" x="90.03" y="23.39" width="5.82" height="5.8"/><line class="cls-4" x1="99.07" y1="15.89" x2="103.29" y2="15.89"/><line class="cls-4" x1="99.07" y1="20.25" x2="103.29" y2="20.25"/><line class="cls-4" x1="99.07" y1="24.61" x2="103.29" y2="24.61"/><line class="cls-4" x1="99.07" y1="28.96" x2="103.29" y2="28.96"/><line class="cls-4" x1="75.57" y1="15.89" x2="79.79" y2="15.89"/><line class="cls-4" x1="75.57" y1="20.25" x2="79.79" y2="20.25"/><line class="cls-4" x1="75.57" y1="24.61" x2="79.79" y2="24.61"/><line class="cls-4" x1="75.57" y1="28.96" x2="79.79" y2="28.96"/><line class="cls-4" x1="95.83" y1="8.69" x2="95.83" y2="12.92"/><line class="cls-4" x1="91.48" y1="8.69" x2="91.48" y2="12.92"/><line class="cls-4" x1="87.12" y1="8.69" x2="87.12" y2="12.92"/><line class="cls-4" x1="82.76" y1="8.69" x2="82.76" y2="12.92"/><line class="cls-4" x1="95.83" y1="32.59" x2="95.83" y2="36.82"/><line class="cls-4" x1="91.48" y1="32.59" x2="91.48" y2="36.82"/><line class="cls-4" x1="87.12" y1="32.59" x2="87.12" y2="36.82"/><line class="cls-4" x1="82.76" y1="32.59" x2="82.76" y2="36.82"/><path class="cls-3" d="M232.79,110.67c-1,1-1.28,0-2.72,0s-1.44,0-2.88,0-1.44.36-2.89.36-1.44-.07-2.88-.07-1.44-.08-2.88-.08h-2.88c-1.45,0-1.45-.14-2.89-.14s-1.44-.08-2.88-.08-1.44.17-2.88.17-1.45,0-2.89,0-1.44.16-2.88.16-1.44-.4-2.88-.4-1.45,0-2.89,0-1.44,0-2.89,0-1.44.11-2.88.11-1.44.24-2.88.24-1.45-.13-2.89-.13-1.44.09-2.88.09-1.45-.26-2.89-.26-1.44.06-2.88.06-1.45-.15-2.89-.15-1.44,0-2.88,0-1.45-.06-2.89-.06-1.44.34-2.88.34h-2.89c-1.44,0-1.44-.13-2.88-.13s-1.44.17-2.88.17-1.45-.25-2.89-.25-1.44-.07-2.88-.07-1.45.18-2.89.18-1.44,0-2.88,0-1.45,0-2.89,0-1.44,0-2.89,0-1.44.21-2.88.21-1.45-.25-2.89-.25-1.44.3-2.89.3-1.44-.35-2.89-.35-1.44.31-2.88.31-1.45-.3-2.89-.3-1.45,0-2.89,0-1.45,0-2.89,0h-2.89c-1.45,0-1.73,1.06-2.75,0s-.34-1.3-.34-2.75.09-1.45.09-2.9-.15-1.45-.15-2.9.25-1.45.25-2.91-.09-1.45-.09-2.9.11-1.45.11-2.9.18-1.45.18-2.9,0-1.45,0-2.9-.35-1.45-.35-2.9,0-1.45,0-2.9.08-1.45.08-2.9.29-1.45.29-2.9-.09-1.45-.09-2.91,0-1.45,0-2.9,0-1.45,0-2.9-.18-1.45-.18-2.9-.12-1.45-.12-2.89.17-1.45.17-2.9-.12-1.46-.12-2.91,0-1.45,0-2.9.17-1.45.17-2.9.19-1.45.19-2.9-.06-1.45-.06-2.9-.28-1.46-.28-2.91.3-1.45.3-2.9-.2-1.45-.2-2.91-.08-1.45-.08-2.9.32-1.45.32-2.9-.3-1.45-.3-2.91.36-1.45.36-2.9-.47-1.45-.47-2.91S109,19.43,109,18s-1.24-2-.22-3,1.56.23,3,.23,1.44-.27,2.88-.27,1.45.19,2.89.19h2.88c1.44,0,1.44-.16,2.89-.16s1.44,0,2.88,0,1.44.13,2.88.13,1.44.07,2.88.07,1.44-.18,2.89-.18,1.44.19,2.88.19,1.44-.31,2.88-.31,1.45.13,2.89.13,1.44.08,2.88.08,1.44.18,2.89.18,1.44-.15,2.88-.15h5.77c1.44,0,1.44.06,2.89.06s1.44-.15,2.88-.15,1.44-.2,2.88-.2,1.45.16,2.89.16,1.44.23,2.89.23,1.44-.32,2.88-.32,1.44.2,2.89.2H181c1.44,0,1.44.16,2.89.16s1.44-.43,2.88-.43,1.44.19,2.88.19,1.44.16,2.89.16,1.44-.11,2.88-.11h2.89c1.44,0,1.44-.24,2.88-.24s1.45.44,2.89.44,1.44-.1,2.89-.1,1.44,0,2.88,0,1.45-.18,2.89-.18,1.45-.16,2.89-.16,1.44.32,2.89.32,1.44-.26,2.88-.26,1.45.33,2.89.33,1.45-.25,2.89-.25,1.45-.2,2.9-.2S232,14,233,15s.07,1.53.07,3-.4,1.45-.4,2.9.07,1.45.07,2.9.38,1.45.38,2.9-.35,1.45-.35,2.9.38,1.45.38,2.9-.17,1.45-.17,2.9.16,1.45.16,2.9,0,1.45,0,2.91-.1,1.45-.1,2.9,0,1.45,0,2.9-.05,1.45-.05,2.9.16,1.45.16,2.9-.29,1.45-.29,2.9,0,1.45,0,2.9.21,1.45.21,2.9-.36,1.45-.36,2.9.36,1.45.36,2.9.07,1.45.07,2.9-.23,1.45-.23,2.9.22,1.45.22,2.91-.23,1.45-.23,2.9-.17,1.45-.17,2.9.08,1.45.08,2.9.28,1.45.28,2.91-.36,1.45-.36,2.9.09,1.45.09,2.91-.13,1.45-.13,2.9.37,1.45.37,2.9-.31,1.46-.31,2.91-.06,1.45-.06,2.9a10.8,10.8,0,0,0,.38,2.88C233.4,109.33,233.81,109.64,232.79,110.67Z"/><path class="cls-5" d="M226,105.42c-1,1-1.4.09-2.84.09s-1.45-.26-2.9-.26-1.45.11-2.9.11-1.45.06-2.89.06-1.45.1-2.9.1-1.45-.1-2.9-.1-1.45-.2-2.9-.2-1.44.08-2.89.08-1.45.11-2.9.11H197c-1.45,0-1.45.14-2.9.14s-1.45.15-2.89.15-1.45-.44-2.9-.44h-2.9c-1.45,0-1.45.32-2.9.32s-1.45-.28-2.9-.28-1.45.41-2.9.41-1.45-.4-2.9-.4-1.45,0-2.9,0-1.44,0-2.89,0-1.45.22-2.9.22-1.45.11-2.89.11-1.45-.11-2.9-.11-1.45-.25-2.9-.25-1.45.2-2.9.2-1.45-.26-2.9-.26-1.45.44-2.9.44-1.45-.25-2.9-.25-1.45-.16-2.9-.16-1.45.29-2.9.29-1.45-.11-2.9-.11-1.45-.12-2.9-.12-1.45.25-2.9.25-1.45-.4-2.9-.4-1.45.29-2.9.29-1.46-.24-2.91-.24-1.45,0-2.91,0-1.94,1.27-3,.25.28-1.5.28-2.92-.31-1.41-.31-2.83.09-1.41.09-2.83-.19-1.42-.19-2.83,0-1.42,0-2.84.35-1.41.35-2.83-.09-1.42-.09-2.83-.12-1.42-.12-2.84-.14-1.41-.14-2.83,0-1.42,0-2.83.39-1.42.39-2.84-.07-1.41-.07-2.83-.18-1.42-.18-2.83.18-1.42.18-2.83-.32-1.42-.32-2.83.14-1.42.14-2.84.2-1.41.2-2.83-.36-1.42-.36-2.84,0-1.41,0-2.83.26-1.42.26-2.83S116,47.39,116,46s-.37-1.42-.37-2.83.43-1.42.43-2.84-.15-1.42-.15-2.84,0-1.42,0-2.83,0-1.42,0-2.84-.25-1.42-.25-2.84,0-1.42,0-2.83.31-1.43.31-2.85-1.13-1.86-.12-2.86,1.46-.1,2.91-.1,1.45-.06,2.9-.06,1.44.33,2.89.33,1.45-.4,2.9-.4,1.45.26,2.9.26,1.45-.14,2.9-.14,1.44.36,2.89.36,1.45-.14,2.9-.14,1.45.12,2.9.12,1.45-.09,2.9-.09,1.44,0,2.89,0,1.45.06,2.9.06,1.45-.15,2.9-.15,1.45-.19,2.9-.19,1.45.28,2.9.28,1.45-.24,2.9-.24,1.44-.09,2.89-.09,1.45,0,2.9,0,1.45.17,2.9.17,1.45,0,2.9,0,1.45.26,2.9.26,1.44-.4,2.89-.4,1.45.32,2.9.32,1.45-.32,2.9-.32h5.79c1.45,0,1.45.21,2.9.21s1.45.23,2.9.23,1.45-.12,2.9-.12,1.45.05,2.9.05,1.46-.28,2.91-.28,1.45-.12,2.9-.12,1.45.18,2.9.18,1.45.26,2.9.26,1.45-.11,2.9-.11,1.45-.07,2.9-.07,1.46-.1,2.91-.1,1.75-.84,2.8.18.29,1.3.29,2.71,0,1.42,0,2.84-.32,1.41-.32,2.83.16,1.42.16,2.83.2,1.42.2,2.84S226,36,226,37.43s-.21,1.42-.21,2.83.4,1.42.4,2.84-.33,1.41-.33,2.83-.07,1.42-.07,2.83.47,1.42.47,2.84-.4,1.41-.4,2.83.42,1.42.42,2.83-.37,1.42-.37,2.83.22,1.42.22,2.83,0,1.42,0,2.84-.34,1.41-.34,2.83S226,70,226,71.42s.19,1.42.19,2.84-.44,1.42-.44,2.83.42,1.42.42,2.84-.3,1.42-.3,2.83.07,1.42.07,2.84-.22,1.42-.22,2.84,0,1.41,0,2.83.21,1.42.21,2.84,0,1.42,0,2.84-.18,1.41-.18,2.83a9.25,9.25,0,0,0,.48,2.8C226.53,104,227,104.43,226,105.42Z"/><path class="cls-6" d="M260,26.49c-1.05,1-1.35.3-2.8.3s-1.44.06-2.89.06-1.44-.18-2.88-.18-1.45-.15-2.89-.15-1.45-.12-2.89-.12-1.45.31-2.89.31-1.45,0-2.89,0-1.45-.15-2.89-.15H234.1c-1.45,0-1.45-.07-2.9-.07s-1.44.37-2.89.37-1.44-.08-2.89-.08-1.44-.08-2.89-.08-1.44,0-2.89,0-1.44,0-2.89,0-1.45-.31-2.89-.31-1.45.27-2.89.27-1.45-.19-2.89-.19-1.44.23-2.89.23-1.44-.23-2.89-.23-1.44-.05-2.89-.05-1.44.4-2.89.4-1.44-.32-2.89-.32-1.45.3-2.89.3-1.45-.3-2.9-.3-1.44,0-2.89,0-1.44,0-2.89,0-1.45.22-2.89.22-1.45-.17-2.9-.17-1.44,0-2.89,0-1.45,0-2.89,0-1.45-.11-2.9-.11-1.45.31-2.89.31-1.45-.23-2.91-.23-1.93,1.23-3,.23.2-1.47.2-2.85,0-1.39,0-2.77,0-1.38,0-2.77-.13-1.38-.13-2.76-.16-1.39-.16-2.77S159,11.37,159,10s-.14-1.39-.14-2.77-.11-1.39-.11-2.77-.93-1.87.07-2.83,1.5,0,2.95,0,1.44-.1,2.89-.1,1.44.33,2.88.33,1.45-.06,2.89-.06,1.45-.15,2.89-.15,1.45-.11,2.89-.11,1.45-.14,2.89-.14,1.45,0,2.89,0,1.45.39,2.89.39,1.45-.28,2.9-.28,1.44.24,2.89.24,1.44-.25,2.89-.25,1.44,0,2.89,0,1.44.11,2.89.11,1.44,0,2.89,0,1.45.09,2.89.09,1.45.08,2.89.08,1.45-.37,2.89-.37,1.44.13,2.89.13,1.44.1,2.89.1,1.44-.1,2.89-.1,1.44-.05,2.89-.05,1.44.36,2.89.36,1.45-.2,2.89-.2,1.45.19,2.9.19,1.44-.44,2.89-.44,1.44.2,2.89.2,1.45-.09,2.89-.09,1.45.24,2.9.24,1.44-.33,2.89-.33,1.45,0,2.89,0h2.9c1.45,0,1.45.42,2.89.42s1.46-.23,2.91-.23S259,.74,260,1.74s.17,1.32.17,2.7-.3,1.38-.3,2.77.4,1.38.4,2.77-.2,1.38-.2,2.76-.15,1.39-.15,2.77-.07,1.38-.07,2.77.1,1.38.1,2.77-.41,1.46-.13,2.82S261,25.53,260,26.49Z"/><rect class="cls-6" x="31.11" y="50.83" width="71.66" height="50.22" rx="6.07"/><path class="cls-3" d="M79,74.86,59.48,63.61a1.25,1.25,0,0,0-1.24,0,1.23,1.23,0,0,0-.63,1.07V87.19a1.24,1.24,0,0,0,.63,1.08,1.22,1.22,0,0,0,.62.16,1.25,1.25,0,0,0,.62-.16L79,77a1.24,1.24,0,0,0,0-2.15Z"/><path class="cls-3" d="M186.24,15.11c-.18-.2-4.49-4.94-9.89-4.94s-9.72,4.74-9.9,4.94a.24.24,0,0,0,0,.3c.18.2,4.49,4.94,9.9,4.94s9.71-4.74,9.89-4.94A.24.24,0,0,0,186.24,15.11Z"/><circle class="cls-7" cx="176.35" cy="15.26" r="3.95"/><path class="cls-8" d="M194.34,12.65h1.44l1.18,2,1.19-2h1.44l-2,3,2.1,3.15h-1.43L197,16.76l-1.27,2.06h-1.44l2.05-3.15Z"/><path class="cls-8" d="M205.79,11.47l-1.2.9V11.05l1.2-.89H207v8.66h-1.19Z"/><path class="cls-8" d="M210.45,17.58h1.2v1.24l-1.2.9Z"/><path class="cls-8" d="M213.31,12.57a2.36,2.36,0,0,1,2.37-2.48,2.34,2.34,0,0,1,1.67.64,2.48,2.48,0,0,1,.72,1.84v3.82a2.48,2.48,0,0,1-.72,1.84,2.4,2.4,0,0,1-1.67.66,2.36,2.36,0,0,1-1.63-.66,2.31,2.31,0,0,1-.74-1.83Zm3.56.08c0-.87-.42-1.31-1.19-1.33s-1.16.46-1.18,1.33v3.68c0,.87.41,1.32,1.18,1.32s1.17-.45,1.19-1.32Z"/><path class="cls-8" d="M219.45,12.57a2.35,2.35,0,0,1,.74-1.84,2.3,2.3,0,0,1,1.64-.64,2.33,2.33,0,0,1,1.66.64,2.41,2.41,0,0,1,.72,1.84v3.82a2.36,2.36,0,0,1-2.38,2.5,2.37,2.37,0,0,1-1.64-.66,2.34,2.34,0,0,1-.74-1.83Zm3.56.08c0-.87-.42-1.31-1.18-1.33s-1.17.46-1.18,1.33v3.68c0,.87.41,1.32,1.18,1.32S223,17.2,223,16.33Z"/><path class="cls-8" d="M225.59,12.57a2.38,2.38,0,0,1,.74-1.84,2.45,2.45,0,0,1,3.3,0,2.41,2.41,0,0,1,.72,1.84v3.82a2.41,2.41,0,0,1-.72,1.84,2.39,2.39,0,0,1-4-1.83Zm3.56.08c0-.87-.41-1.31-1.18-1.33s-1.17.46-1.18,1.33v3.68c0,.87.41,1.32,1.18,1.32s1.16-.45,1.18-1.32Z"/><path class="cls-8" d="M232.1,17.58h1.2v1.24l-1.2.9Z"/><path class="cls-8" d="M235,12.57a2.35,2.35,0,0,1,.75-1.84,2.28,2.28,0,0,1,1.63-.64,2.36,2.36,0,0,1,1.67.64,2.44,2.44,0,0,1,.71,1.84v3.82a2.35,2.35,0,0,1-2.38,2.5A2.41,2.41,0,0,1,235,16.4Zm3.57.08c0-.87-.42-1.31-1.19-1.33s-1.16.46-1.18,1.33v3.68c0,.87.41,1.32,1.18,1.32s1.16-.45,1.19-1.32Z"/><path class="cls-8" d="M241.09,12.57a2.35,2.35,0,0,1,.75-1.84,2.28,2.28,0,0,1,1.63-.64,2.34,2.34,0,0,1,1.67.64,2.48,2.48,0,0,1,.72,1.84v3.82a2.48,2.48,0,0,1-.72,1.84,2.4,2.4,0,0,1-1.67.66,2.41,2.41,0,0,1-2.38-2.49Zm3.57.08c0-.87-.42-1.31-1.19-1.33s-1.16.46-1.18,1.33v3.68c0,.87.41,1.32,1.18,1.32s1.17-.45,1.19-1.32Z"/><path class="cls-8" d="M247.24,12.57a2.35,2.35,0,0,1,.74-1.84,2.3,2.3,0,0,1,1.64-.64,2.33,2.33,0,0,1,1.66.64,2.48,2.48,0,0,1,.72,1.84v3.82a2.48,2.48,0,0,1-.72,1.84,2.4,2.4,0,0,1-1.66.66,2.37,2.37,0,0,1-1.64-.66,2.34,2.34,0,0,1-.74-1.83Zm3.56.08c0-.87-.42-1.31-1.18-1.33s-1.17.46-1.18,1.33v3.68c0,.87.4,1.32,1.18,1.32s1.16-.45,1.18-1.32Z"/><path class="cls-3" d="M56.23,18.59c2.12,0,4.43-.06,6.66-.06,1.53,0,2.19.58,2.32,1.9s0,2.44-1.08,3.07a3.89,3.89,0,0,1-.41.17c1.9,1.19,1,4.4-.93,5,1.4.73,1.13,3.9-1.12,4.1,1.14,1.68.3,3.52-2,3.57-2.06.05-4.75,0-7.45,0s-5.16.05-7.23,0c-.93-2.46.06-2.54.1-5.18s-.34-2.64-.3-5.27-.56-2.75.26-5.25a11.48,11.48,0,0,0,4.67-3.9,11,11,0,0,0,1.34-6c0-.49,0-1,0-1.48-.13-1.57.65-2.25,2.11-1.65A6,6,0,0,1,57,13.19C57.09,14.89,56.4,16.72,56.23,18.59Z"/><path class="cls-9" d="M56.23,18.59c2.12,0,4.43-.06,6.66-.06,1.53,0,2.19.58,2.32,1.9s0,2.44-1.08,3.07a3.89,3.89,0,0,1-.41.17c1.9,1.19,1,4.4-.93,5,1.4.73,1.13,3.9-1.12,4.1,1.14,1.68.3,3.52-2,3.57-2.06.05-4.75,0-7.45,0s-5.16.05-7.23,0c-.93-2.46.06-2.54.1-5.18s-.34-2.64-.3-5.27-.56-2.75.26-5.25a11.48,11.48,0,0,0,4.67-3.9,11,11,0,0,0,1.34-6c0-.49,0-1,0-1.48-.13-1.57.65-2.25,2.11-1.65A6,6,0,0,1,57,13.19C57.09,14.89,56.4,16.72,56.23,18.59Z"/><polygon class="cls-10" points="45.49 37.93 38.8 38.09 38.38 31.59 38.13 25.12 37.85 18.55 45.73 18.49 45.76 25.11 45.66 31.57 45.49 37.93"/><path class="cls-11" d="M186.3,38h5.53c2.77,0,2.77-.18,5.54-.18s2.77,0,5.54,0,2.77.18,5.54.18S211.23,38,214,38"/><path class="cls-11" d="M186.3,44c2.76,0,2.76.2,5.53.2s2.77-.28,5.54-.28,2.77.35,5.54.35,2.77-.4,5.54-.4,2.78.2,5.55.2"/><path class="cls-11" d="M186.3,50.09c2.76,0,2.76-.44,5.53-.44s2.77.55,5.54.55,2.77-.48,5.54-.48,2.77,0,5.54,0,2.78.41,5.55.41"/><ellipse class="cls-3" cx="149.69" cy="52.53" rx="16.83" ry="16.02"/><path class="cls-12" d="M172.44,52.53a20.93,20.93,0,0,1-.7,4.91A20.68,20.68,0,0,1,169.88,62a20.93,20.93,0,0,1-2.69,4.13,22.2,22.2,0,0,1-3.69,3.27,22.43,22.43,0,0,1-4.09,2.8,23.82,23.82,0,0,1-4.74,1.6,24.72,24.72,0,0,1-5,.73c-1.7,0-3.32-.7-4.91-1a23.73,23.73,0,0,1-4.9-1.08,22.94,22.94,0,0,1-4.19-2.75,22.12,22.12,0,0,1-3.57-3.47,21.23,21.23,0,0,1-2.8-4.1,21.31,21.31,0,0,1-2.22-4.52,21.59,21.59,0,0,1-.52-5,21.12,21.12,0,0,1,.77-5c.4-1.63,1.5-3,2.26-4.44a21.7,21.7,0,0,1,2.54-4.22,23.19,23.19,0,0,1,3.43-3.64,22.91,22.91,0,0,1,4.55-2.06,22.2,22.2,0,0,1,4.67-1.52,23.2,23.2,0,0,1,4.89-.36,23.67,23.67,0,0,1,4.93.2A23.21,23.21,0,0,1,159.35,33a22.91,22.91,0,0,1,4.13,2.73,21.66,21.66,0,0,1,3.7,3.24,20.93,20.93,0,0,1,2.72,4.11c.76,1.46,1.9,2.83,2.3,4.46A21.4,21.4,0,0,1,172.44,52.53Z"/><path class="cls-8" d="M152.15,31.83c0,1.84-1.12,14.37-2.51,14.37s-2.51-12.53-2.51-14.37,1.12-3.33,2.51-3.33S152.15,30,152.15,31.83Z"/><ellipse class="cls-8" cx="149.84" cy="51.35" rx="3.02" ry="3.14"/><path class="cls-8" d="M129.54,57c1.77-.73,14.3-4.72,14.85-3.5s-11.09,7.16-12.87,7.88-3.65.34-4.2-.87S127.76,57.72,129.54,57Z"/><path class="cls-8" d="M169.74,57c-1.77-.73-14.3-4.72-14.85-3.5s11.09,7.16,12.86,7.88,3.66.34,4.21-.87S171.52,57.72,169.74,57Z"/><path class="cls-8" d="M151,58.14a1.22,1.22,0,0,0-1.15-.84h0a1.19,1.19,0,0,0-1.15.82l-11.09,35.1h2.51l9.69-30.68,9.08,30.68h2.5Z"/><line class="cls-13" x1="145.98" y1="70.65" x2="152.93" y2="70.65"/><line class="cls-13" x1="142.91" y1="80.95" x2="155.87" y2="80.95"/><path class="cls-8" d="M203.06,77.12a.81.81,0,0,0-.81-.81H200.2a.81.81,0,0,0-.81.81v7.25l3.67-1.54Z"/><path class="cls-1" d="M199.39,84.37V95.79a.81.81,0,0,0,.81.81h2.05a.81.81,0,0,0,.81-.81v-13Z"/><path class="cls-1" d="M245.22,48.35a.61.61,0,0,0-.61,0L200.74,73.68a.6.6,0,0,0,0,1l43.87,25.33a.68.68,0,0,0,.31.08.64.64,0,0,0,.3-.08.6.6,0,0,0,.3-.53V48.87A.6.6,0,0,0,245.22,48.35Z"/><path class="cls-1" d="M194.74,68.4a.6.6,0,0,0-.6.6V79.3a.6.6,0,0,0,.6.61h12.75V68.4Z"/><path class="cls-8" d="M210.11,68.4h-2.62V79.91h2.62a.6.6,0,0,0,.6-.61V69A.6.6,0,0,0,210.11,68.4Z"/><path class="cls-14" d="M252.84,74.76c4.86,0,4.86-.15,9.73-.15"/><path class="cls-14" d="M252.84,81.35c4,2.78,4,2.79,8,5.57"/><path class="cls-14" d="M260.87,62.54c-4,2.78-4,2.75-8,5.53"/><polygon class="cls-3" points="128.83 77.42 128.83 70.65 119.61 70.65 114.89 84.37 110.93 89.75 122.67 93.22 124.52 85.87 128.83 85.87 128.83 80.11 130.89 79.91 128.83 77.42"/><path class="cls-8" d="M124.74,93.43l1.62-3.22-14.15-4.34-1.68,2.56c-13.18.41-18.62,14.14-18.62,14.14l-9.85,26.7,52.7,6.32v-26C134.78,97,125.32,93.62,124.74,93.43Z"/><path class="cls-1" d="M128.83,70.65s-.14,7.29-6.26,8.24c0,0,.26,14.86-9,16.42S102,121.39,87.47,112.67C74.35,104.82,82.53,93,96.21,87.49s4.9-10.94,14.72-14.46c0,0,2-6.2,12-6C123,67,128.37,67.39,128.83,70.65Z"/><polygon class="cls-3" points="172.3 73.78 171.81 68.56 182.01 68.15 186.9 82.39 191.02 87.99 178.83 91.59 176.77 84.37 173.15 84.6 172.43 77.98 170.29 78.39 172.3 73.78"/><path class="cls-10" d="M176.67,91.81,175,88.46,189.69,84l1.74,2.66c13.69.42,19.34,14.68,19.34,14.68L221,129l-54.74,6.56v-27C166.25,95.51,176.07,92,176.67,91.81Z"/><path class="cls-8" d="M181.69,67.87s-17.3-3.83-8.28,4.85a9.6,9.6,0,0,0,3,1.68,1.27,1.27,0,0,1,1.89-.59s1.74,1.62-.48,4.82L180.66,81,186,79.65l-3.37-10.91A1.51,1.51,0,0,0,181.69,67.87Z"/><path class="cls-3" d="M59.33,104.26A6.67,6.67,0,0,1,57.18,103a12.06,12.06,0,0,1-1.72-1.81,8.94,8.94,0,0,1-1.63-2,9.45,9.45,0,0,1-.53-2.54,9.86,9.86,0,0,1-.5,2.55,9.3,9.3,0,0,1-1.65,2,13.77,13.77,0,0,1-1.56,2c-1.18.9-1.21.44-2.36,1,0,0,.29.14.29.18s-.22-.07-.19,0c1.16.52.9.54,2.08,1.44a10.53,10.53,0,0,1,1.88,1.68,9.24,9.24,0,0,1,1.3,2.15,9.39,9.39,0,0,1,.71,2.49,9.43,9.43,0,0,1,.55-2.56,9,9,0,0,1,1.6-2,11.55,11.55,0,0,1,1.78-1.74c1.18-.89.87-1,2-1.51,0,0,0,.22.07.19S59.37,104.27,59.33,104.26Z"/><path class="cls-15" d="M50,104.2c-1.2,0-1.2-.1-2.41-.1s-1.21.5-2.42.5"/><path class="cls-15" d="M61.42,104.46c-1.21,0-1.21-.12-2.42-.12s-1.21.07-2.41.07"/><path class="cls-15" d="M53.09,100.22c0-1.52.09-1.52.09-3s-.12-1.51-.12-3"/><path class="cls-15" d="M53.5,114.54c0-1.52-.31-1.52-.31-3s-.12-1.52-.12-3"/><path class="cls-3" d="M144.68,4.76c-1-.41-.84-.48-1.56-1.35a3.76,3.76,0,0,1-.85-1.88,3.68,3.68,0,0,1-.85,1.88c-.72.87-.72.7-1.67,1.11,0,0,.13.14.13.16a1.62,1.62,0,0,1,0-.2c1,.41.74.65,1.45,1.52a4,4,0,0,1,.91,2,3.82,3.82,0,0,1,1-1.88c.72-.87.53-.94,1.47-1.34,0,0,0-.05,0,0S144.7,4.76,144.68,4.76Z"/><path class="cls-15" d="M140.93,4.69c-1,0-1,0-2,0"/><path class="cls-15" d="M145.58,4.8c-1,0-1,0-2,0"/><path class="cls-15" d="M142.38,3c0-1.24-.11-1.24-.11-2.48"/><path class="cls-15" d="M142.27,8.84c0-1.24,0-1.24,0-2.47"/><path class="cls-3" d="M238.78,119.77c-.95-.41-1.1-.12-1.82-1a4.49,4.49,0,0,1-.7-2.07,3.71,3.71,0,0,1-.93,1.88c-.71.87-.65.72-1.6,1.13,0,0,.06.19.06.2s.08-.14.09-.14c1,.41.78.58,1.5,1.45a3,3,0,0,1,.88,1.63,3.38,3.38,0,0,1,.69-1.8c.71-.87.86-.6,1.81-1,0,0-.25-.2-.24-.21S238.79,119.77,238.78,119.77Z"/><path class="cls-15" d="M234.92,119.82c-1,0-1,.3-2,.3"/><path class="cls-15" d="M239.58,119.82c-1,0-1-.14-2-.14"/><path class="cls-15" d="M236.32,118.24c0-1.24.05-1.24.05-2.48"/><path class="cls-15" d="M236.17,124.09c0-1.24.09-1.24.09-2.48"/><path class="cls-3" d="M152.22,117.63c-.95-.4-1-.19-1.69-1.07a3.37,3.37,0,0,1-.84-1.79,3.66,3.66,0,0,1-.71,1.9c-.72.87-.79.73-1.74,1.13,0,0,0,0,0,0s0,0,0,0c.95.41.77.48,1.49,1.35a3.35,3.35,0,0,1,1,1.76,4.06,4.06,0,0,1,.65-2c.72-.87.94-.48,1.89-.89,0,0-.13-.2-.12-.21S152.24,117.64,152.22,117.63Z"/><path class="cls-15" d="M148.35,118c-1,0-1-.41-2-.41"/><path class="cls-15" d="M153,117.91c-1,0-1-.21-2-.21"/><path class="cls-15" d="M149.68,116.14c0-1.24-.05-1.24-.05-2.48"/><path class="cls-15" d="M149.55,122c0-1.24.26-1.24.26-2.48"/><path class="cls-3" d="M71,116.26c-1-.4-.86-.49-1.58-1.36A3.87,3.87,0,0,1,68.6,113a3.56,3.56,0,0,1-1,1.78c-.72.87-.48,1-1.43,1.42,0,0,.11,0,.11,0s0-.22,0-.21c1,.41.77.63,1.48,1.5a3.4,3.4,0,0,1,.87,1.79,3.36,3.36,0,0,1,.9-1.77c.72-.87.57-1,1.52-1.38,0,0,0,.07,0,.09S71,116.27,71,116.26Z"/><path class="cls-15" d="M67.26,116.16c-1,0-1-.16-2-.16"/><path class="cls-15" d="M71.92,116.35c-1,0-1-.36-2-.36"/><path class="cls-15" d="M68.35,114.46c0-1.24.05-1.24.05-2.48"/><path class="cls-15" d="M68.66,120.3c0-1.24.17-1.24.17-2.47"/><path class="cls-1" d="M281.14,315.63c-2.13,0-2.13-.47-4.26-.47s-2.14,0-4.27,0-2.13.39-4.26.39-2.14-.63-4.27-.63-2.13,0-4.26,0-2.13-.08-4.27-.08-2.13.52-4.26.52-2.13.28-4.27.28-2.13-.58-4.26-.58h-4.27c-2.13,0-2.13-.1-4.26-.1s-2.13.21-4.27.21-2.13-.38-4.26-.38-2.13.36-4.27.36-2.13.39-4.26.39-2.13.27-4.27.27-2.13,0-4.26,0-2.13-.35-4.27-.35h-4.26c-2.13,0-2.13.17-4.26.17s-2.13-.72-4.26-.72-2.13-.08-4.26-.08-2.13.75-4.26.75-2.13-.67-4.27-.67h-4.26c-2.13,0-2.13.79-4.27.79s-2.13-.61-4.26-.61h-4.26c-2.13,0-2.13,0-4.26,0s-2.14.58-4.27.58-2.13-.25-4.26-.25-2.14-.54-4.27-.54-2.13.91-4.26.91-2.13-.89-4.27-.89-2.13.13-4.26.13-2.14.07-4.27.07-2.13,0-4.26,0-2.14.74-4.27.74h-4.27c-2.13,0-2.13-.37-4.26-.37s-2.14-.23-4.27-.23-2.13-.22-4.27-.22-2.13.63-4.26.63-2.14-.78-4.27-.78-2.14.43-4.27.43-2.13-.13-4.27-.13-2.13.22-4.26.22-2.14-.27-4.27-.27H72.16c-2.13,0-2.13.52-4.27.52s-2.13-.18-4.26-.18-2.14-.47-4.27-.47-2.13.06-4.27.06-2.13.45-4.26.45-2.14.21-4.27.21-2.14-.24-4.27-.24-2.14.37-4.27.37-2.14-.35-4.27-.35-2.14-.26-4.27-.26-2.14-.07-4.27-.07-2.14.55-4.27.55-2.14-.11-4.28-.11-2.13,0-4.27,0-2.14-.4-4.28-.4a6.66,6.66,0,0,1-4-1.14A9,9,0,0,1,1,310.85c-.58-1.24,0-2.87,0-4.38,0-2.15.09-2.15.09-4.3s-.1-2.15-.1-4.3.09-2.15.09-4.3-.38-2.15-.38-4.29S.4,287.12.4,285v-4.29c0-2.15-.4-2.15-.4-4.3s.08-2.15.08-4.3.44-2.15.44-4.3,0-2.15,0-4.3.49-2.15.49-4.3-.31-2.15-.31-4.3-.36-2.15-.36-4.3.51-2.15.51-4.31S.59,244.12.59,242s-.4-2.15-.4-4.3.07-2.15.07-4.29.68-2.15.68-4.3-.1-2.15-.1-4.3-.37-2.15-.37-4.3.24-2.15.24-4.3S.5,214,.5,211.87s.09-2.15.09-4.3-.28-2.15-.28-4.3,0-2.15,0-4.31-.2-2.15-.2-4.3.45-2.15.45-4.3,0-2.16,0-4.31S.4,183.9.4,181.74s-.25-2.15-.25-4.31a10,10,0,0,1,1.41-4.1,8,8,0,0,1,2.69-3.15,6.62,6.62,0,0,1,3.86-1.56c2.13,0,2.13-.52,4.27-.52s2.13.53,4.26.53,2.13-.31,4.26-.31h4.27c2.13,0,2.13-.19,4.26-.19s2.13.23,4.27.23,2.13.46,4.26.46,2.14-.69,4.27-.69,2.13.66,4.26.66,2.13-.22,4.27-.22,2.13.06,4.26.06,2.13.23,4.27.23,2.13.07,4.26.07,2.13-.42,4.27-.42,2.13-.41,4.26-.41,2.13,1,4.27,1,2.13-1,4.26-1,2.14.21,4.27.21,2.13-.09,4.26-.09,2.13.2,4.26.2,2.13.71,4.26.71,2.13-.49,4.26-.49,2.13.22,4.26.22,2.13-.16,4.27-.16,2.13-.59,4.26-.59,2.13.59,4.27.59,2.13-.46,4.26-.46,2.13-.17,4.26-.17,2.13.86,4.26.86,2.14-.72,4.27-.72,2.13.62,4.27.62,2.13-.25,4.26-.25,2.13.45,4.26.45,2.14-.27,4.27-.27,2.13.1,4.27.1,2.13.13,4.26.13,2.13-.86,4.27-.86,2.13.08,4.26.08,2.14.5,4.27.5,2.13.17,4.26.17,2.14-.8,4.27-.8,2.13.35,4.27.35,2.13.16,4.26.16,2.14.34,4.27.34,2.14-.07,4.27-.07,2.13-.4,4.27-.4l4.26,0c2.14,0,2.14.64,4.27.64s2.14-1,4.27-1,2.14.77,4.27.77,2.13-.74,4.26-.74,2.14.83,4.27.83,2.13.08,4.27.08,2.13-.15,4.27-.15,2.13-.58,4.26-.58,2.14-.21,4.27-.21,2.14.44,4.27.44,2.14-.18,4.27-.18,2.14-.12,4.27-.12,2.14.23,4.27.23,2.14.49,4.27.49,2.14-.32,4.28-.32,2.14.05,4.27.05,2.14.12,4.28.12a6.59,6.59,0,0,1,4,1.16,8.26,8.26,0,0,1,2.54,3.35c.58,1.24,1.61,2.58,1.61,4.09,0,2.15-.41,2.15-.41,4.3s-.29,2.15-.29,4.3.62,2.15.62,4.3-.82,2.15-.82,4.3.44,2.15.44,4.3-.25,2.15-.25,4.3.61,2.14.61,4.29-.95,2.15-.95,4.31.55,2.14.55,4.29.09,2.15.09,4.31-.59,2.14-.59,4.29.68,2.16.68,4.31-.49,2.15-.49,4.3-.11,2.15-.11,4.3.15,2.15.15,4.3-.16,2.15-.16,4.3.2,2.15.2,4.29.52,2.16.52,4.31-.33,2.14-.33,4.29.14,2.15.14,4.31-.18,2.15-.18,4.3-.44,2.15-.44,4.3.4,2.15.4,4.3.32,2.15.32,4.3-.08,2.16-.08,4.31.16,2.15.16,4.3-.45,2.15-.45,4.3.22,2.16.22,4.31.12,2.16.12,4.31-.67,2.16-.67,4.31c0,1.51.56,3.13,0,4.37s-2,2.21-3.16,3A7.19,7.19,0,0,1,281.14,315.63Z"/><path class="cls-8" d="M219.17,210.4c-2.1,0-2.1.47-4.2.47s-2.1-.28-4.21-.28-2.1.55-4.2.55h-4.21c-2.1,0-2.1-.61-4.2-.61s-2.1.13-4.21.13-2.1.23-4.2.23-2.11-.28-4.21-.28-2.1.58-4.2.58-2.11-.79-4.21-.79-2.1.14-4.21.14-2.1.36-4.2.36-2.11-.47-4.21-.47-2.1.41-4.21.41-2.1.29-4.21.29-2.1-.29-4.2-.29-2.11.36-4.21.36-2.11-.6-4.21-.6-2.1.59-4.21.59-2.1-.25-4.21-.25-2.1-.7-4.2-.7-2.11,1-4.21,1-2.11-.44-4.21-.44-2.1-.51-4.2-.51-2.11,0-4.21,0-2.11,1-4.21,1-2.1-.61-4.21-.61-2.1.42-4.21.42-2.1-.2-4.21-.2-2.1.43-4.21.43-2.1-.69-4.21-.69-2.1.24-4.21.24-2.11-.07-4.21-.07-2.11.39-4.21.39-2.11-.88-4.22-.88-2.11,1-4.22,1c-1.42,0-2.79-.8-4.16-.95a41.07,41.07,0,0,1-4.2-.31,39.46,39.46,0,0,1-4.08-1.09,41.71,41.71,0,0,1-3.93-1.56c-1.26-.61-2.17-1.85-3.35-2.6a35.4,35.4,0,0,1-3.48-2.29,34.81,34.81,0,0,1-3.29-2.6,38.5,38.5,0,0,1-2.47-3.41A37.5,37.5,0,0,1,36,193.21a37.49,37.49,0,0,1-1.83-3.77,34.77,34.77,0,0,1-1.93-3.74,39.16,39.16,0,0,1-1.35-4,41.89,41.89,0,0,1-.32-4.22c-.15-1.38-.79-2.77-.79-4.19h.35a38.27,38.27,0,0,1,.49-4.17,37.88,37.88,0,0,1,.49-4.18,36.71,36.71,0,0,1,1.17-4,40.3,40.3,0,0,1,1.59-3.9,37.9,37.9,0,0,1,2-3.7c.75-1.18,2-2,2.9-3.06s1.36-2.52,2.35-3.51A38.14,38.14,0,0,1,44.31,144a36.13,36.13,0,0,1,3.34-2.57,37.19,37.19,0,0,1,3.91-1.59A35.25,35.25,0,0,1,55.33,138a42.15,42.15,0,0,1,8.12-2.28,40.38,40.38,0,0,1,4.23.16c2.1,0,2.1-.16,4.2-.16s2.11.34,4.21.34,2.1-.44,4.21-.44l4.2,0c2.1,0,2.1.49,4.21.49s2.1-.31,4.2-.31,2.11.09,4.21.09,2.1-.29,4.2-.29,2.11.1,4.21.1,2.1.32,4.21.32,2.1-.18,4.2-.18,2.11-.34,4.21-.34,2.1.66,4.21.66,2.1-.09,4.2-.09,2.11-.65,4.21-.65,2.11.63,4.21.63,2.1-.3,4.21-.3,2.1.53,4.21.53,2.1-.68,4.2-.68,2.11.63,4.21.63,2.11-.44,4.21-.44,2.1.16,4.21.16,2.1.4,4.2.4,2.11-.08,4.21-.08,2.1-.43,4.21-.43,2.1-.3,4.21-.3,2.1.13,4.2.13,2.11.65,4.21.65,2.11-.3,4.21-.3,2.11-.14,4.21-.14,2.11.25,4.22.25,2.1-.19,4.21-.19,2.1-.28,4.21-.28,2.1.39,4.21.39,2.11-.17,4.22-.17,2.11-.13,4.21-.13a37.66,37.66,0,0,1,4.24-.06c1.41.15,2.65,1.2,4,1.51s3-.17,4.29.29a38.6,38.6,0,0,1,3.71,2.08,36.7,36.7,0,0,1,3.91,1.66c1.19.74,2,2.1,3.06,3a37.71,37.71,0,0,1,3.33,2.56,39.91,39.91,0,0,1,2.87,3.09,38.15,38.15,0,0,1,2.46,3.43,39,39,0,0,1,1.77,3.82,37.84,37.84,0,0,1,1.23,4A35.69,35.69,0,0,1,255.7,165a35.19,35.19,0,0,1,1,4.11c.15,1.37-.5,2.81-.5,4.22h.14c0,1.42.61,2.87.45,4.24s-1,2.7-1.33,4.05a36.83,36.83,0,0,1-1.13,4,35,35,0,0,1-1.78,3.77,39.75,39.75,0,0,1-1.72,3.82,40.57,40.57,0,0,1-2.57,3.3,39.17,39.17,0,0,1-2.72,3.17,37.24,37.24,0,0,1-3.32,2.53,33.84,33.84,0,0,1-3.24,2.63,36,36,0,0,1-3.65,2,39.62,39.62,0,0,1-3.84,1.65,35.92,35.92,0,0,1-4,1.47,73.5,73.5,0,0,1-8.37.44Z"/><path class="cls-3" d="M219,200.93c-2.1,0-2.1.23-4.21.23s-2.1.1-4.2.1-2.11-.37-4.21-.37-2.1.46-4.2.46-2.1.25-4.21.25-2.1-.29-4.2-.29-2.11-.64-4.21-.64-2.1.87-4.21.87-2.1-.24-4.2-.24-2.1.3-4.21.3-2.1-.74-4.2-.74-2.11.06-4.21.06-2.1.54-4.21.54-2.1-.4-4.21-.4-2.1.29-4.2.29-2.11.09-4.21.09-2.1-.09-4.21-.09-2.1-.48-4.21-.48-2.1,0-4.2,0-2.11.35-4.21.35-2.11-.31-4.21-.31-2.11.66-4.21.66-2.1-.24-4.2-.24-2.11.2-4.21.2-2.1-.45-4.21-.45-2.1.38-4.21.38-2.1.15-4.2.15-2.11-1-4.21-1S99.1,201,97,201s-2.11.26-4.22.26-2.1-.52-4.21-.52-2.1.84-4.21.84-2.1-1-4.21-1-2.1.45-4.21.45-2.11-.12-4.22-.12-2.11-.18-4.22-.18c-1.41,0-2.86.75-4.24.6a38.54,38.54,0,0,1-4.19-.7c-1.38-.31-2.52-1.45-3.83-1.91s-2.93-.28-4.19-.88a37.37,37.37,0,0,1-3.66-2.16c-1.19-.74-2-2.1-3-3a35.77,35.77,0,0,1-3.21-2.67,36,36,0,0,1-2.54-3.32,37.38,37.38,0,0,1-2.73-3.17A37.4,37.4,0,0,1,33.66,180a35.36,35.36,0,0,1-1.93-3.78c-.46-1.31.08-2.92-.24-4.3a38.92,38.92,0,0,1-.83-4.06,38,38,0,0,1-.37-4.16h-.65a38.77,38.77,0,0,1,.7-4.18,36.63,36.63,0,0,1,1-4.07,37.27,37.27,0,0,1,1.22-4,41.14,41.14,0,0,1,1.13-4.06,39.88,39.88,0,0,1,1.69-3.9c.75-1.19,2.31-1.8,3.19-2.89a36.87,36.87,0,0,1,2.84-3c1-1,1.66-2.31,2.75-3.18a38.42,38.42,0,0,1,3.68-2,36.61,36.61,0,0,1,3.54-2.19c1.25-.61,2.27-1.85,3.59-2.32s2.85-.26,4.23-.57a37.34,37.34,0,0,1,4.12-.73,38.87,38.87,0,0,1,4.18,0c2.11,0,2.11-.37,4.21-.37s2.1.33,4.21.33,2.1-.77,4.2-.77,2.1,0,4.21,0,2.1.28,4.2.28,2.1.48,4.2.48,2.11-.39,4.21-.39,2.11.58,4.21.58,2.1-.67,4.2-.67,2.11.75,4.21.75,2.1-.42,4.21-.42,2.1.27,4.2.27,2.11-.16,4.21-.16,2.1-.59,4.21-.59,2.1,0,4.2,0,2.11-.15,4.21-.15,2.11.35,4.21.35h4.21c2.1,0,2.1.34,4.21.34s2.1-.33,4.21-.33,2.1.5,4.2.5,2.11-.36,4.21-.36,2.1.09,4.21.09,2.1-.42,4.2-.42,2.11.06,4.21.06,2.1.29,4.21.29,2.1.14,4.21.14,2.1-.65,4.21-.65,2.1.8,4.21.8,2.1-.28,4.21-.28,2.1.11,4.21.11,2.1-.54,4.21-.54,2.1,0,4.21,0,2.11.42,4.21.42,2.11-.18,4.22-.18,2.11.42,4.22.42c1.41,0,2.86-.58,4.24-.42s2.66,1.15,4,1.46,2.91,0,4.22.51,2.38,1.59,3.64,2.19a38.43,38.43,0,0,1,3.77,1.81,38.5,38.5,0,0,1,6.36,5.4c1,1,2.44,1.58,3.31,2.68a36.65,36.65,0,0,1,2.21,3.61,37.56,37.56,0,0,1,2.14,3.63,37.19,37.19,0,0,1,1.59,3.91,37,37,0,0,1,.93,4.1,34.94,34.94,0,0,1,.91,4.11,36.49,36.49,0,0,1,.18,4.2h.14a39,39,0,0,1-.37,4.21,38.53,38.53,0,0,1-.56,4.18,36.88,36.88,0,0,1-1.65,3.89,35.33,35.33,0,0,1-1.45,3.92,38.48,38.48,0,0,1-1.93,3.72,41.06,41.06,0,0,1-2.77,3.15,38.76,38.76,0,0,1-2.71,3.15,37.16,37.16,0,0,1-3,2.9,41.48,41.48,0,0,1-3.19,2.76,39.06,39.06,0,0,1-3.75,1.94,37.23,37.23,0,0,1-3.76,2,36.9,36.9,0,0,1-4.08,1.21,38.73,38.73,0,0,1-4.21.53A40.62,40.62,0,0,1,219,200.93Z"/><path class="cls-8" d="M64.3,158.08V142.57H69l2.82,10.58,2.78-10.58h4.7v15.51H76.38V145.87L73.3,158.08h-3l-3.07-12.21v12.21Z"/><path class="cls-8" d="M88.89,154.51l3,.49a5,5,0,0,1-1.81,2.49,5.36,5.36,0,0,1-3.09.85,5,5,0,0,1-4.33-1.92,6.36,6.36,0,0,1-1.12-3.87A6.25,6.25,0,0,1,83,148.17a4.85,4.85,0,0,1,3.7-1.58,5,5,0,0,1,4,1.65A7.35,7.35,0,0,1,92,153.32H84.56a3,3,0,0,0,.72,2.06,2.26,2.26,0,0,0,1.72.74,1.8,1.8,0,0,0,1.17-.39A2.3,2.3,0,0,0,88.89,154.51Zm.17-3a2.81,2.81,0,0,0-.67-2,2,2,0,0,0-1.54-.68,2.07,2.07,0,0,0-1.61.71,2.82,2.82,0,0,0-.63,1.93Z"/><path class="cls-8" d="M104.75,158.08H102v-1.65a4.44,4.44,0,0,1-1.63,1.44,4.19,4.19,0,0,1-1.89.47,4.29,4.29,0,0,1-3.32-1.56,6.37,6.37,0,0,1-1.38-4.36,6.25,6.25,0,0,1,1.35-4.34,4.34,4.34,0,0,1,3.39-1.49,4.2,4.2,0,0,1,3.26,1.56v-5.58h3Zm-7.94-5.86a5.13,5.13,0,0,0,.5,2.6,2.25,2.25,0,0,0,2,1.17,2.19,2.19,0,0,0,1.75-.88,4.07,4.07,0,0,0,.72-2.6,4.42,4.42,0,0,0-.7-2.79,2.23,2.23,0,0,0-1.79-.86,2.26,2.26,0,0,0-1.78.85A3.81,3.81,0,0,0,96.81,152.22Z"/><path class="cls-8" d="M107.68,145.32v-2.75h3v2.75Zm0,12.76V146.84h3v11.24Z"/><path class="cls-8" d="M115.93,150.27l-2.7-.49a4.15,4.15,0,0,1,1.57-2.41,5.74,5.74,0,0,1,3.3-.78,7.19,7.19,0,0,1,3,.47,2.88,2.88,0,0,1,1.37,1.2,6,6,0,0,1,.4,2.66l0,3.47a12.67,12.67,0,0,0,.14,2.19,6.08,6.08,0,0,0,.54,1.5h-3c-.07-.19-.17-.49-.28-.87,0-.18-.09-.3-.11-.35a5.49,5.49,0,0,1-1.63,1.11,4.63,4.63,0,0,1-1.85.37,3.88,3.88,0,0,1-2.74-.94,3.18,3.18,0,0,1-1-2.39,3.11,3.11,0,0,1,.46-1.69,3,3,0,0,1,1.27-1.15,10.43,10.43,0,0,1,2.37-.69,16.75,16.75,0,0,0,2.89-.73v-.3a1.51,1.51,0,0,0-.43-1.22,2.53,2.53,0,0,0-1.59-.37,1.8,1.8,0,0,0-2,1.41Zm4,2.42c-.38.12-1,.27-1.81.45a5.44,5.44,0,0,0-1.62.52,1.24,1.24,0,0,0-.58,1.05,1.48,1.48,0,0,0,.46,1.08,1.65,1.65,0,0,0,1.19.45,2.52,2.52,0,0,0,1.53-.53,1.84,1.84,0,0,0,.71-1,5.7,5.7,0,0,0,.12-1.45Z"/><path class="cls-8" d="M131.81,158.08V142.57h5a18,18,0,0,1,3.73.23,4,4,0,0,1,2.23,1.52,4.8,4.8,0,0,1,.9,3,5.13,5.13,0,0,1-.51,2.4,4.32,4.32,0,0,1-1.32,1.53,4.57,4.57,0,0,1-1.63.74,17.77,17.77,0,0,1-3.25.22h-2v5.85Zm3.13-12.89v4.4h1.72a8.15,8.15,0,0,0,2.47-.24,2,2,0,0,0,1-.76,2.08,2.08,0,0,0,.36-1.21,2,2,0,0,0-.5-1.4,2.18,2.18,0,0,0-1.26-.68,15.08,15.08,0,0,0-2.26-.11Z"/><path class="cls-8" d="M148.47,150.27l-2.7-.49a4.2,4.2,0,0,1,1.57-2.41,5.74,5.74,0,0,1,3.3-.78,7.16,7.16,0,0,1,3,.47,2.88,2.88,0,0,1,1.37,1.2,6,6,0,0,1,.4,2.66l0,3.47a12.67,12.67,0,0,0,.14,2.19,6.51,6.51,0,0,0,.54,1.5h-3c-.07-.19-.17-.49-.28-.87,0-.18-.09-.3-.11-.35a5.49,5.49,0,0,1-1.63,1.11,4.6,4.6,0,0,1-1.85.37,3.88,3.88,0,0,1-2.74-.94,3.18,3.18,0,0,1-1-2.39,3.11,3.11,0,0,1,.46-1.69,3,3,0,0,1,1.27-1.15,10.43,10.43,0,0,1,2.37-.69,16.75,16.75,0,0,0,2.89-.73v-.3a1.54,1.54,0,0,0-.42-1.22,2.58,2.58,0,0,0-1.6-.37,2.13,2.13,0,0,0-1.24.32A2.08,2.08,0,0,0,148.47,150.27Zm4,2.42c-.38.12-1,.27-1.81.45a5.44,5.44,0,0,0-1.62.52,1.24,1.24,0,0,0-.58,1.05,1.48,1.48,0,0,0,.46,1.08,1.65,1.65,0,0,0,1.19.45,2.49,2.49,0,0,0,1.53-.53,1.84,1.84,0,0,0,.71-1,5.7,5.7,0,0,0,.12-1.45Z"/><path class="cls-8" d="M161.15,158.08h-3V146.84h2.76v1.6a4.92,4.92,0,0,1,1.27-1.49,2.36,2.36,0,0,1,1.29-.36,3.72,3.72,0,0,1,2,.56l-.92,2.59a2.64,2.64,0,0,0-1.4-.48,1.64,1.64,0,0,0-1.06.34,2.36,2.36,0,0,0-.68,1.24,17.39,17.39,0,0,0-.25,3.77Z"/><path class="cls-8" d="M171.9,146.84v2.37h-2v4.53a11,11,0,0,0,.06,1.61.62.62,0,0,0,.27.37.8.8,0,0,0,.5.15,3.81,3.81,0,0,0,1.19-.28l.26,2.3a5.86,5.86,0,0,1-2.35.45,3.71,3.71,0,0,1-1.45-.27,2.09,2.09,0,0,1-1-.7,2.82,2.82,0,0,1-.42-1.16,15.28,15.28,0,0,1-.09-2.1v-4.9h-1.37v-2.37h1.37v-2.23l3-1.74v4Z"/><path class="cls-8" d="M184.19,158.08h-3v-5.73A8.77,8.77,0,0,0,181,150a1.68,1.68,0,0,0-.62-.83,1.74,1.74,0,0,0-1-.3,2.41,2.41,0,0,0-1.39.43,2.09,2.09,0,0,0-.84,1.12,9.77,9.77,0,0,0-.23,2.58v5.09h-3V146.84h2.76v1.65a4.5,4.5,0,0,1,3.71-1.9,4.62,4.62,0,0,1,1.8.35,3,3,0,0,1,1.23.91,3.26,3.26,0,0,1,.58,1.25,9.13,9.13,0,0,1,.17,2Z"/><path class="cls-8" d="M193.71,154.51l3,.49a4.89,4.89,0,0,1-1.81,2.49,5.35,5.35,0,0,1-3.08.85,5,5,0,0,1-4.34-1.92,6.43,6.43,0,0,1-1.12-3.87,6.2,6.2,0,0,1,1.47-4.38,4.81,4.81,0,0,1,3.69-1.58,5,5,0,0,1,4,1.65q1.45,1.66,1.39,5.08h-7.46a3.05,3.05,0,0,0,.72,2.06,2.26,2.26,0,0,0,1.72.74,1.78,1.78,0,0,0,1.17-.39A2.3,2.3,0,0,0,193.71,154.51Zm.17-3a2.85,2.85,0,0,0-.66-2,2.14,2.14,0,0,0-3.16,0,2.77,2.77,0,0,0-.62,1.93Z"/><path class="cls-8" d="M202.11,158.08h-3V146.84h2.77v1.6a4.78,4.78,0,0,1,1.27-1.49,2.36,2.36,0,0,1,1.29-.36,3.72,3.72,0,0,1,2,.56l-.92,2.59a2.67,2.67,0,0,0-1.4-.48,1.64,1.64,0,0,0-1.06.34,2.3,2.3,0,0,0-.68,1.24,17.39,17.39,0,0,0-.25,3.77Z"/><path class="cls-8" d="M206.65,154.88l3-.46a2.2,2.2,0,0,0,.78,1.32,2.61,2.61,0,0,0,1.63.45,2.92,2.92,0,0,0,1.73-.42,1,1,0,0,0,.4-.8.8.8,0,0,0-.22-.56,2.34,2.34,0,0,0-1-.39,15.93,15.93,0,0,1-4.56-1.45,2.9,2.9,0,0,1-1.34-2.53,3.13,3.13,0,0,1,1.16-2.46,5.38,5.38,0,0,1,3.57-1,6.23,6.23,0,0,1,3.43.75,3.82,3.82,0,0,1,1.55,2.22l-2.81.52a1.68,1.68,0,0,0-.68-1,2.42,2.42,0,0,0-1.43-.35,3.23,3.23,0,0,0-1.69.33.69.69,0,0,0-.33.6.65.65,0,0,0,.29.54,11.29,11.29,0,0,0,2.78.83,8.34,8.34,0,0,1,3.32,1.33,2.74,2.74,0,0,1,.93,2.21,3.4,3.4,0,0,1-1.29,2.66,5.73,5.73,0,0,1-3.82,1.11,6.29,6.29,0,0,1-3.64-.93A4.29,4.29,0,0,1,206.65,154.88Z"/><path class="cls-8" d="M219.68,142.61h3v2.13a7.27,7.27,0,0,1-.22,2,3,3,0,0,1-.84,1.34A4.2,4.2,0,0,1,220,149l-.58-1.22a2.52,2.52,0,0,0,1.28-.82,2.44,2.44,0,0,0,.4-1.42h-1.44Z"/><path class="cls-8" d="M63.55,181l3-.29A3.7,3.7,0,0,0,67.71,183a3.41,3.41,0,0,0,2.28.72,3.5,3.5,0,0,0,2.28-.64,1.88,1.88,0,0,0,.76-1.5,1.39,1.39,0,0,0-.32-.93,2.51,2.51,0,0,0-1.13-.67c-.36-.13-1.2-.36-2.51-.68a8.56,8.56,0,0,1-3.53-1.54,4,4,0,0,1-1.43-3.12,4,4,0,0,1,.67-2.22,4.29,4.29,0,0,1,1.94-1.57,7.74,7.74,0,0,1,3-.54,6.56,6.56,0,0,1,4.4,1.28A4.52,4.52,0,0,1,75.72,175l-3.13.14a2.64,2.64,0,0,0-.86-1.72,3.17,3.17,0,0,0-2-.53,3.55,3.55,0,0,0-2.14.57,1.12,1.12,0,0,0-.49,1,1.18,1.18,0,0,0,.46.94,8.35,8.35,0,0,0,2.88,1,14.77,14.77,0,0,1,3.38,1.12,4.36,4.36,0,0,1,1.72,1.57,4.64,4.64,0,0,1,.62,2.47,4.59,4.59,0,0,1-.74,2.5,4.43,4.43,0,0,1-2.1,1.73,8.74,8.74,0,0,1-3.38.57A6.71,6.71,0,0,1,65.43,185,5.91,5.91,0,0,1,63.55,181Z"/><path class="cls-8" d="M77.37,174.84h3.17l2.69,8,2.62-8h3.08l-4,10.82-.71,2a7.43,7.43,0,0,1-.74,1.5,3.13,3.13,0,0,1-.82.84,3.37,3.37,0,0,1-1.13.51,5.87,5.87,0,0,1-1.52.18,7.86,7.86,0,0,1-1.68-.18l-.27-2.33a6.82,6.82,0,0,0,1.26.14,1.88,1.88,0,0,0,1.54-.61,4.4,4.4,0,0,0,.76-1.55Z"/><path class="cls-8" d="M101.07,186.08h-3v-5.73A8.77,8.77,0,0,0,97.9,178a1.68,1.68,0,0,0-.62-.83,1.74,1.74,0,0,0-1-.3,2.41,2.41,0,0,0-1.39.43,2.09,2.09,0,0,0-.84,1.12,9.77,9.77,0,0,0-.23,2.58v5.09h-3V174.84h2.76v1.65a4.5,4.5,0,0,1,3.71-1.9,4.62,4.62,0,0,1,1.8.35,3,3,0,0,1,1.23.91,3.26,3.26,0,0,1,.58,1.25,9.13,9.13,0,0,1,.17,2Z"/><path class="cls-8" d="M110.59,182.51l3,.49a4.89,4.89,0,0,1-1.81,2.49,5.35,5.35,0,0,1-3.08.85,5,5,0,0,1-4.34-1.92,6.36,6.36,0,0,1-1.12-3.87,6.2,6.2,0,0,1,1.47-4.38,4.81,4.81,0,0,1,3.69-1.58,5,5,0,0,1,4,1.65q1.45,1.66,1.39,5.08h-7.46a3,3,0,0,0,.72,2.06,2.26,2.26,0,0,0,1.72.74,1.78,1.78,0,0,0,1.17-.39A2.3,2.3,0,0,0,110.59,182.51Zm.17-3a2.85,2.85,0,0,0-.66-2,2.14,2.14,0,0,0-3.16,0,2.77,2.77,0,0,0-.62,1.93Z"/><path class="cls-8" d="M119,186.08h-3V174.84h2.77v1.6a4.78,4.78,0,0,1,1.27-1.49,2.36,2.36,0,0,1,1.29-.36,3.75,3.75,0,0,1,2,.56l-.93,2.59a2.61,2.61,0,0,0-1.39-.48,1.64,1.64,0,0,0-1.06.34,2.3,2.3,0,0,0-.68,1.24,17.39,17.39,0,0,0-.25,3.77Z"/><path class="cls-8" d="M124.3,186.83l3.4.41a1.19,1.19,0,0,0,.39.81,2.17,2.17,0,0,0,1.33.32,3.5,3.5,0,0,0,1.75-.35,1.38,1.38,0,0,0,.59-.75,4.26,4.26,0,0,0,.14-1.37v-1.64a4,4,0,0,1-3.36,1.82,4.13,4.13,0,0,1-3.59-1.91,6.54,6.54,0,0,1-1-3.77,6.2,6.2,0,0,1,1.36-4.32,4.4,4.4,0,0,1,3.38-1.49,4.11,4.11,0,0,1,3.44,1.83v-1.58h2.79v10.09a9.92,9.92,0,0,1-.33,3,3.72,3.72,0,0,1-.92,1.55,4.17,4.17,0,0,1-1.59.88,8.3,8.3,0,0,1-2.5.32,6.48,6.48,0,0,1-4-1,3.06,3.06,0,0,1-1.2-2.48C124.29,187.09,124.29,187,124.3,186.83Zm2.66-6.6a4.07,4.07,0,0,0,.69,2.62,2.15,2.15,0,0,0,1.71.83,2.35,2.35,0,0,0,1.84-.85,3.73,3.73,0,0,0,.76-2.53,4,4,0,0,0-.72-2.59,2.31,2.31,0,0,0-1.83-.85,2.2,2.2,0,0,0-1.76.83A3.93,3.93,0,0,0,127,180.23Z"/><path class="cls-8" d="M136.41,174.84h3.17l2.69,8,2.62-8H148l-4,10.82-.71,2a8,8,0,0,1-.74,1.5,3.13,3.13,0,0,1-.82.84,3.46,3.46,0,0,1-1.13.51,5.92,5.92,0,0,1-1.52.18,7.86,7.86,0,0,1-1.68-.18l-.27-2.33a6.82,6.82,0,0,0,1.26.14,1.91,1.91,0,0,0,1.54-.61,4.4,4.4,0,0,0,.76-1.55Z"/><path class="cls-8" d="M155.92,186.08V170.57h11.51v2.62h-8.37v3.44h7.79v2.62h-7.79v4.22h8.66v2.61Z"/><path class="cls-8" d="M169.06,174.84h1.65V174a5.64,5.64,0,0,1,.3-2.12,2.35,2.35,0,0,1,1.11-1.14,4.32,4.32,0,0,1,2-.44,8.4,8.4,0,0,1,2.49.38l-.4,2.08a5.58,5.58,0,0,0-1.37-.17,1.2,1.2,0,0,0-.92.3,1.73,1.73,0,0,0-.29,1.16v.79h2.23v2.34h-2.23v8.9h-3v-8.9h-1.65Z"/><path class="cls-8" d="M176.28,174.84h1.65V174a5.64,5.64,0,0,1,.3-2.12,2.35,2.35,0,0,1,1.11-1.14,4.32,4.32,0,0,1,2-.44,8.4,8.4,0,0,1,2.49.38l-.4,2.08a5.58,5.58,0,0,0-1.37-.17,1.2,1.2,0,0,0-.92.3,1.73,1.73,0,0,0-.29,1.16v.79h2.23v2.34H180.9v8.9h-3v-8.9h-1.65Z"/><path class="cls-8" d="M191.31,182.51l3,.49a4.88,4.88,0,0,1-1.8,2.49,5.36,5.36,0,0,1-3.09.85,5,5,0,0,1-4.34-1.92,6.42,6.42,0,0,1-1.11-3.87,6.25,6.25,0,0,1,1.46-4.38,4.85,4.85,0,0,1,3.7-1.58,5,5,0,0,1,4,1.65,7.35,7.35,0,0,1,1.38,5.08H187a3,3,0,0,0,.72,2.06,2.26,2.26,0,0,0,1.72.74,1.8,1.8,0,0,0,1.17-.39A2.3,2.3,0,0,0,191.31,182.51Zm.17-3a2.81,2.81,0,0,0-.67-2,2,2,0,0,0-1.54-.68,2.07,2.07,0,0,0-1.61.71,2.77,2.77,0,0,0-.63,1.93Z"/><path class="cls-8" d="M206.66,178.17l-2.93.53a2.2,2.2,0,0,0-.67-1.33,2.08,2.08,0,0,0-1.36-.44,2.22,2.22,0,0,0-1.78.76,4,4,0,0,0-.66,2.57,4.54,4.54,0,0,0,.67,2.83,2.21,2.21,0,0,0,1.81.82,2,2,0,0,0,1.38-.48,2.89,2.89,0,0,0,.77-1.65l2.92.49a5.22,5.22,0,0,1-1.75,3,5.36,5.36,0,0,1-3.46,1,5.13,5.13,0,0,1-3.93-1.56,7.08,7.08,0,0,1,0-8.64,5.21,5.21,0,0,1,4-1.55,5.44,5.44,0,0,1,3.27.88A4.88,4.88,0,0,1,206.66,178.17Z"/><path class="cls-8" d="M214.07,174.84v2.37h-2v4.53a11,11,0,0,0,.06,1.61.57.57,0,0,0,.26.37.84.84,0,0,0,.5.15,3.79,3.79,0,0,0,1.2-.28l.25,2.3a5.83,5.83,0,0,1-2.35.45,3.75,3.75,0,0,1-1.45-.27,2.06,2.06,0,0,1-.94-.7,2.68,2.68,0,0,1-.42-1.16,13.33,13.33,0,0,1-.1-2.1v-4.9h-1.36v-2.37h1.36v-2.23l3-1.74v4Z"/><path class="cls-8" d="M33.52,233.08a2.19,2.19,0,0,1-3.74,1.55,2.2,2.2,0,0,1,0-3.1,2.16,2.16,0,0,1,1.56-.64,2.13,2.13,0,0,1,1.54.64A2.1,2.1,0,0,1,33.52,233.08Z"/><path class="cls-8" d="M39.3,238.45V227.58h4.63a8.09,8.09,0,0,1,2.53.29,2.46,2.46,0,0,1,1.26,1,3.11,3.11,0,0,1,.48,1.72,2.91,2.91,0,0,1-.72,2,3.48,3.48,0,0,1-2.15,1,5.07,5.07,0,0,1,1.17.92,11.56,11.56,0,0,1,1.25,1.76l1.33,2.12H46.45l-1.58-2.36a15.39,15.39,0,0,0-1.16-1.6,1.84,1.84,0,0,0-.66-.46,3.69,3.69,0,0,0-1.11-.12H41.5v4.54Zm2.2-6.27h1.62a8.27,8.27,0,0,0,2-.14,1.18,1.18,0,0,0,.61-.46,1.38,1.38,0,0,0,.23-.81,1.3,1.3,0,0,0-.3-.89,1.36,1.36,0,0,0-.82-.43c-.18,0-.72,0-1.61,0H41.5Z"/><path class="cls-8" d="M51.81,233l-1.89-.34a3,3,0,0,1,1.1-1.7,4.06,4.06,0,0,1,2.31-.54,5,5,0,0,1,2.08.33,2.16,2.16,0,0,1,1,.83,4.42,4.42,0,0,1,.28,1.87l0,2.43a8.21,8.21,0,0,0,.1,1.54,4.28,4.28,0,0,0,.37,1H55a6.25,6.25,0,0,1-.2-.61,2.55,2.55,0,0,0-.08-.25,3.52,3.52,0,0,1-1.14.78,3.32,3.32,0,0,1-1.3.26,2.66,2.66,0,0,1-1.91-.66,2.2,2.2,0,0,1-.71-1.67,2.28,2.28,0,0,1,.32-1.19,2.06,2.06,0,0,1,.9-.8,6.73,6.73,0,0,1,1.65-.49,11,11,0,0,0,2-.51v-.21a1.06,1.06,0,0,0-.3-.85,1.76,1.76,0,0,0-1.12-.26,1.42,1.42,0,0,0-.86.22A1.53,1.53,0,0,0,51.81,233Zm2.79,1.69c-.27.09-.69.19-1.27.32a3.56,3.56,0,0,0-1.13.36.86.86,0,0,0-.41.74,1,1,0,0,0,.32.75,1.13,1.13,0,0,0,.84.32,1.78,1.78,0,0,0,1.07-.37,1.34,1.34,0,0,0,.5-.69,4.43,4.43,0,0,0,.08-1Z"/><path class="cls-8" d="M58.7,229.51v-1.93h2.09v1.93Zm0,8.94v-7.88h2.09v7.88Z"/><path class="cls-8" d="M62.19,236.2l2.09-.31a1.55,1.55,0,0,0,.54.92,1.84,1.84,0,0,0,1.14.31,2.06,2.06,0,0,0,1.22-.29.69.69,0,0,0,.28-.56.53.53,0,0,0-.15-.39,1.78,1.78,0,0,0-.7-.28,11.55,11.55,0,0,1-3.2-1,2,2,0,0,1-.93-1.78,2.19,2.19,0,0,1,.81-1.72,3.79,3.79,0,0,1,2.5-.69,4.42,4.42,0,0,1,2.41.52,2.71,2.71,0,0,1,1.08,1.56l-2,.36a1.21,1.21,0,0,0-.47-.7,1.8,1.8,0,0,0-1-.24,2.32,2.32,0,0,0-1.18.22.5.5,0,0,0-.24.43.47.47,0,0,0,.21.38,8.33,8.33,0,0,0,1.95.58,5.67,5.67,0,0,1,2.32.93,1.92,1.92,0,0,1,.66,1.55,2.36,2.36,0,0,1-.91,1.86,4,4,0,0,1-2.68.78,4.4,4.4,0,0,1-2.54-.65A3,3,0,0,1,62.19,236.2Z"/><path class="cls-8" d="M75.93,235.94l2.08.35A3.38,3.38,0,0,1,76.75,238a3.73,3.73,0,0,1-2.17.6,3.54,3.54,0,0,1-3-1.34,4.51,4.51,0,0,1-.78-2.72,4.34,4.34,0,0,1,1-3.06,3.36,3.36,0,0,1,2.59-1.11,3.47,3.47,0,0,1,2.77,1.16,5.11,5.11,0,0,1,1,3.55H72.9a2.12,2.12,0,0,0,.51,1.45,1.58,1.58,0,0,0,1.2.51,1.32,1.32,0,0,0,.82-.26A1.66,1.66,0,0,0,75.93,235.94Zm.12-2.1a2,2,0,0,0-.46-1.38A1.46,1.46,0,0,0,74.5,232a1.44,1.44,0,0,0-1.12.5,1.88,1.88,0,0,0-.44,1.35Z"/><path class="cls-8" d="M91,234.45l2.13.68a4.75,4.75,0,0,1-1.63,2.64,5.11,5.11,0,0,1-6.45-.61,5.68,5.68,0,0,1-1.4-4,6,6,0,0,1,1.4-4.22,4.83,4.83,0,0,1,3.69-1.5A4.5,4.5,0,0,1,92,228.57a4.29,4.29,0,0,1,1.12,2l-2.18.52a2.27,2.27,0,0,0-.8-1.33,2.3,2.3,0,0,0-1.49-.49,2.46,2.46,0,0,0-2,.87,4.25,4.25,0,0,0-.76,2.81,4.55,4.55,0,0,0,.75,2.94,2.4,2.4,0,0,0,1.93.87,2.15,2.15,0,0,0,1.5-.56A3.26,3.26,0,0,0,91,234.45Z"/><path class="cls-8" d="M95,229.51v-1.93H97.1v1.93Zm0,8.94v-7.88H97.1v7.88Z"/><path class="cls-8" d="M101.4,238.45l-3.17-7.88h2.19l1.48,4,.43,1.34c.11-.34.18-.57.21-.68s.15-.44.23-.66l1.5-4h2.14l-3.13,7.88Z"/><path class="cls-8" d="M107.69,229.51v-1.93h2.08v1.93Zm0,8.94v-7.88h2.08v7.88Z"/><path class="cls-8" d="M118.78,232.9l-2.06.37a1.51,1.51,0,0,0-.47-.92,1.41,1.41,0,0,0-1-.31,1.59,1.59,0,0,0-1.25.53,2.76,2.76,0,0,0-.46,1.8,3.19,3.19,0,0,0,.47,2,1.55,1.55,0,0,0,1.27.58,1.38,1.38,0,0,0,1-.34,2,2,0,0,0,.53-1.16l2,.35a3.64,3.64,0,0,1-1.22,2.13,3.82,3.82,0,0,1-2.43.72,3.62,3.62,0,0,1-2.76-1.09,5,5,0,0,1,0-6.06,3.65,3.65,0,0,1,2.79-1.08,3.77,3.77,0,0,1,2.29.62A3.47,3.47,0,0,1,118.78,232.9Z"/><path class="cls-8" d="M131.55,234.45l2.13.68a4.75,4.75,0,0,1-1.63,2.64,4.62,4.62,0,0,1-2.89.87,4.67,4.67,0,0,1-3.56-1.48,5.68,5.68,0,0,1-1.39-4,5.94,5.94,0,0,1,1.4-4.22,4.79,4.79,0,0,1,3.68-1.5,4.53,4.53,0,0,1,3.25,1.18,4.37,4.37,0,0,1,1.11,2l-2.17.52a2.26,2.26,0,0,0-2.3-1.82,2.47,2.47,0,0,0-2,.87,4.26,4.26,0,0,0-.75,2.81,4.62,4.62,0,0,0,.74,2.94,2.41,2.41,0,0,0,1.93.87,2.15,2.15,0,0,0,1.5-.56A3.14,3.14,0,0,0,131.55,234.45Z"/><path class="cls-8" d="M135.07,234.4a4.29,4.29,0,0,1,.51-2,3.45,3.45,0,0,1,1.45-1.48,4.28,4.28,0,0,1,2.09-.51,3.89,3.89,0,0,1,2.93,1.16,4,4,0,0,1,1.15,2.93,4,4,0,0,1-1.16,3,3.87,3.87,0,0,1-2.9,1.18,4.57,4.57,0,0,1-2.07-.49,3.38,3.38,0,0,1-1.49-1.43A4.84,4.84,0,0,1,135.07,234.4Zm2.13.11a2.62,2.62,0,0,0,.56,1.8,1.82,1.82,0,0,0,2.74,0,2.65,2.65,0,0,0,.55-1.81,2.58,2.58,0,0,0-.55-1.78,1.82,1.82,0,0,0-2.74,0A2.59,2.59,0,0,0,137.2,234.51Z"/><path class="cls-8" d="M152,238.45h-2.08v-4a6.22,6.22,0,0,0-.13-1.65,1.17,1.17,0,0,0-.44-.58,1.22,1.22,0,0,0-.72-.21,1.64,1.64,0,0,0-1,.3,1.47,1.47,0,0,0-.59.78,6.65,6.65,0,0,0-.16,1.81v3.57h-2.09v-7.88h1.94v1.16a3.15,3.15,0,0,1,2.6-1.33,3,3,0,0,1,1.26.25,2,2,0,0,1,.86.63,2.32,2.32,0,0,1,.41.87,6.45,6.45,0,0,1,.11,1.41Z"/><path class="cls-8" d="M153.37,236.2l2.1-.31a1.55,1.55,0,0,0,.54.92,1.82,1.82,0,0,0,1.14.31,2.08,2.08,0,0,0,1.22-.29.68.68,0,0,0,.27-.56.53.53,0,0,0-.15-.39,1.65,1.65,0,0,0-.69-.28,11.43,11.43,0,0,1-3.2-1,2.05,2.05,0,0,1-.94-1.78,2.19,2.19,0,0,1,.81-1.72,3.82,3.82,0,0,1,2.51-.69,4.36,4.36,0,0,1,2.4.52,2.68,2.68,0,0,1,1.09,1.56l-2,.36a1.18,1.18,0,0,0-.48-.7,1.76,1.76,0,0,0-1-.24,2.3,2.3,0,0,0-1.18.22.5.5,0,0,0-.24.43.47.47,0,0,0,.21.38,8.16,8.16,0,0,0,1.95.58,5.74,5.74,0,0,1,2.32.93,1.91,1.91,0,0,1,.65,1.55,2.38,2.38,0,0,1-.9,1.86,4,4,0,0,1-2.68.78,4.46,4.46,0,0,1-2.55-.65A3.09,3.09,0,0,1,153.37,236.2Z"/><path class="cls-8" d="M169.43,232.9l-2.06.37a1.46,1.46,0,0,0-.47-.92,1.39,1.39,0,0,0-1-.31,1.56,1.56,0,0,0-1.24.53,2.76,2.76,0,0,0-.47,1.8,3.19,3.19,0,0,0,.47,2,1.55,1.55,0,0,0,1.27.58,1.38,1.38,0,0,0,1-.34,2,2,0,0,0,.53-1.16l2.05.35a3.64,3.64,0,0,1-1.22,2.13,3.8,3.8,0,0,1-2.43.72,3.58,3.58,0,0,1-2.75-1.09,5,5,0,0,1,0-6.06,3.68,3.68,0,0,1,2.79-1.08,3.77,3.77,0,0,1,2.29.62A3.47,3.47,0,0,1,169.43,232.9Z"/><path class="cls-8" d="M171,229.51v-1.93h2.08v1.93Zm0,8.94v-7.88h2.08v7.88Z"/><path class="cls-8" d="M174.75,234.4a4.29,4.29,0,0,1,.51-2,3.45,3.45,0,0,1,1.45-1.48,4.28,4.28,0,0,1,2.09-.51,3.89,3.89,0,0,1,2.93,1.16,4,4,0,0,1,1.15,2.93,4,4,0,0,1-1.16,3,3.87,3.87,0,0,1-2.9,1.18,4.57,4.57,0,0,1-2.07-.49,3.38,3.38,0,0,1-1.49-1.43A4.84,4.84,0,0,1,174.75,234.4Zm2.13.11a2.62,2.62,0,0,0,.56,1.8,1.82,1.82,0,0,0,2.74,0,2.65,2.65,0,0,0,.55-1.81,2.58,2.58,0,0,0-.55-1.78,1.82,1.82,0,0,0-2.74,0A2.59,2.59,0,0,0,176.88,234.51Z"/><path class="cls-8" d="M189.69,238.45v-1.18a3,3,0,0,1-1.13,1,3.17,3.17,0,0,1-1.48.36,2.9,2.9,0,0,1-1.42-.35,2,2,0,0,1-.91-1,4.3,4.3,0,0,1-.29-1.74v-5h2.09v3.62a10.82,10.82,0,0,0,.11,2,1.11,1.11,0,0,0,.42.59,1.27,1.27,0,0,0,.77.22,1.6,1.6,0,0,0,1-.29,1.46,1.46,0,0,0,.58-.73,8.55,8.55,0,0,0,.16-2.12v-3.33h2.08v7.88Z"/><path class="cls-8" d="M193.05,236.2l2.1-.31a1.55,1.55,0,0,0,.54.92,1.82,1.82,0,0,0,1.14.31,2.06,2.06,0,0,0,1.22-.29.68.68,0,0,0,.27-.56.53.53,0,0,0-.15-.39,1.65,1.65,0,0,0-.69-.28,11.43,11.43,0,0,1-3.2-1,2.05,2.05,0,0,1-.94-1.78,2.19,2.19,0,0,1,.81-1.72,3.82,3.82,0,0,1,2.51-.69,4.36,4.36,0,0,1,2.4.52,2.68,2.68,0,0,1,1.09,1.56l-2,.36a1.18,1.18,0,0,0-.48-.7,1.76,1.76,0,0,0-1-.24,2.32,2.32,0,0,0-1.18.22.5.5,0,0,0-.24.43.47.47,0,0,0,.21.38,8.33,8.33,0,0,0,1.95.58,5.67,5.67,0,0,1,2.32.93,1.91,1.91,0,0,1,.65,1.55,2.38,2.38,0,0,1-.9,1.86,4,4,0,0,1-2.68.78,4.46,4.46,0,0,1-2.55-.65A3.09,3.09,0,0,1,193.05,236.2Z"/><path class="cls-8" d="M209.41,238.45h-2.09v-4a6.22,6.22,0,0,0-.13-1.65,1.17,1.17,0,0,0-.44-.58A1.22,1.22,0,0,0,206,232a1.64,1.64,0,0,0-1,.3,1.47,1.47,0,0,0-.59.78,6.65,6.65,0,0,0-.16,1.81v3.57h-2.09v-7.88h1.94v1.16a3.15,3.15,0,0,1,2.6-1.33,3,3,0,0,1,1.26.25,2,2,0,0,1,.86.63,2.32,2.32,0,0,1,.41.87,6.34,6.34,0,0,1,.12,1.41Z"/><path class="cls-8" d="M216.08,235.94l2.08.35a3.34,3.34,0,0,1-1.27,1.74,3.67,3.67,0,0,1-2.16.6,3.54,3.54,0,0,1-3-1.34,4.51,4.51,0,0,1-.78-2.72,4.33,4.33,0,0,1,1-3.06,3.39,3.39,0,0,1,2.59-1.11,3.48,3.48,0,0,1,2.78,1.16,5.11,5.11,0,0,1,1,3.55h-5.22a2.12,2.12,0,0,0,.5,1.45,1.58,1.58,0,0,0,1.2.51,1.35,1.35,0,0,0,.83-.26A1.66,1.66,0,0,0,216.08,235.94Zm.12-2.1a2,2,0,0,0-.47-1.38,1.42,1.42,0,0,0-1.08-.47,1.47,1.47,0,0,0-1.13.5,2,2,0,0,0-.44,1.35Z"/><path class="cls-8" d="M219.23,236.2l2.1-.31a1.55,1.55,0,0,0,.54.92,1.82,1.82,0,0,0,1.14.31,2.08,2.08,0,0,0,1.22-.29.68.68,0,0,0,.27-.56.53.53,0,0,0-.15-.39,1.65,1.65,0,0,0-.69-.28,11.43,11.43,0,0,1-3.2-1,2.05,2.05,0,0,1-.94-1.78,2.19,2.19,0,0,1,.81-1.72,3.82,3.82,0,0,1,2.51-.69,4.36,4.36,0,0,1,2.4.52,2.68,2.68,0,0,1,1.09,1.56l-2,.36a1.18,1.18,0,0,0-.48-.7,1.76,1.76,0,0,0-1-.24,2.3,2.3,0,0,0-1.18.22.5.5,0,0,0-.24.43.47.47,0,0,0,.21.38,8.18,8.18,0,0,0,1.94.58,5.73,5.73,0,0,1,2.33.93,1.91,1.91,0,0,1,.65,1.55,2.38,2.38,0,0,1-.9,1.86,4,4,0,0,1-2.68.78,4.46,4.46,0,0,1-2.55-.65A3.09,3.09,0,0,1,219.23,236.2Z"/><path class="cls-8" d="M227.68,236.2l2.1-.31a1.5,1.5,0,0,0,.54.92,1.82,1.82,0,0,0,1.14.31,2.08,2.08,0,0,0,1.22-.29.68.68,0,0,0,.27-.56.53.53,0,0,0-.15-.39,1.65,1.65,0,0,0-.69-.28,11.43,11.43,0,0,1-3.2-1,2,2,0,0,1-.94-1.78,2.19,2.19,0,0,1,.81-1.72,3.82,3.82,0,0,1,2.51-.69,4.36,4.36,0,0,1,2.4.52,2.68,2.68,0,0,1,1.09,1.56l-2,.36a1.18,1.18,0,0,0-.48-.7,1.76,1.76,0,0,0-1-.24,2.3,2.3,0,0,0-1.18.22.5.5,0,0,0-.24.43.47.47,0,0,0,.21.38,8,8,0,0,0,1.94.58,5.73,5.73,0,0,1,2.33.93A1.91,1.91,0,0,1,235,236a2.38,2.38,0,0,1-.9,1.86,4,4,0,0,1-2.68.78,4.46,4.46,0,0,1-2.55-.65A3.09,3.09,0,0,1,227.68,236.2Z"/><path class="cls-8" d="M33.52,259.08a2.19,2.19,0,0,1-3.74,1.55,2.2,2.2,0,0,1,0-3.1,2.16,2.16,0,0,1,1.56-.64,2.13,2.13,0,0,1,1.54.64A2.1,2.1,0,0,1,33.52,259.08Z"/><path class="cls-8" d="M46.25,260.45l2.13.68a4.74,4.74,0,0,1-1.62,2.64,5.13,5.13,0,0,1-6.46-.61,5.72,5.72,0,0,1-1.39-4.05,6,6,0,0,1,1.4-4.22,4.83,4.83,0,0,1,3.69-1.5,4.5,4.5,0,0,1,3.24,1.18,4.2,4.2,0,0,1,1.11,2l-2.17.52a2.24,2.24,0,0,0-2.29-1.82,2.46,2.46,0,0,0-2,.87,4.2,4.2,0,0,0-.76,2.81,4.62,4.62,0,0,0,.74,2.94,2.43,2.43,0,0,0,1.93.87,2.16,2.16,0,0,0,1.51-.56A3.19,3.19,0,0,0,46.25,260.45Z"/><path class="cls-8" d="M52.33,253.58v4a3.07,3.07,0,0,1,2.41-1.18,3.21,3.21,0,0,1,1.3.26,2.06,2.06,0,0,1,.87.69,2.31,2.31,0,0,1,.4.92,8.19,8.19,0,0,1,.11,1.56v4.62H55.33v-4.16a6.82,6.82,0,0,0-.11-1.57,1,1,0,0,0-.42-.53A1.39,1.39,0,0,0,54,258a1.79,1.79,0,0,0-.92.25,1.48,1.48,0,0,0-.6.76,4.46,4.46,0,0,0-.19,1.51v3.94H50.25V253.58Z"/><path class="cls-8" d="M61.09,259l-1.89-.34a3,3,0,0,1,1.1-1.7,4.06,4.06,0,0,1,2.31-.54,5,5,0,0,1,2.08.33,2.16,2.16,0,0,1,1,.83,4.26,4.26,0,0,1,.28,1.87l0,2.43a8.21,8.21,0,0,0,.1,1.54,4.28,4.28,0,0,0,.37,1.05H64.32a6.25,6.25,0,0,1-.2-.61,2.55,2.55,0,0,0-.08-.25,3.52,3.52,0,0,1-1.14.78,3.32,3.32,0,0,1-1.3.26,2.66,2.66,0,0,1-1.91-.66A2.2,2.2,0,0,1,59,262.3a2.28,2.28,0,0,1,.32-1.19,2.06,2.06,0,0,1,.9-.8,6.69,6.69,0,0,1,1.66-.49,11.1,11.1,0,0,0,2-.51v-.21a1.06,1.06,0,0,0-.3-.85,1.76,1.76,0,0,0-1.12-.26,1.42,1.42,0,0,0-.86.22A1.53,1.53,0,0,0,61.09,259Zm2.79,1.69c-.27.09-.69.19-1.27.32a3.56,3.56,0,0,0-1.13.36.86.86,0,0,0-.41.74,1,1,0,0,0,.33.75,1.09,1.09,0,0,0,.83.32,1.78,1.78,0,0,0,1.07-.37,1.34,1.34,0,0,0,.5-.69,4.43,4.43,0,0,0,.08-1Z"/><path class="cls-8" d="M75.15,264.45H73.06v-4a6.22,6.22,0,0,0-.13-1.65,1.16,1.16,0,0,0-.43-.58,1.26,1.26,0,0,0-.73-.21,1.66,1.66,0,0,0-1,.3,1.52,1.52,0,0,0-.59.78,7.1,7.1,0,0,0-.16,1.81v3.57H68v-7.88H69.9v1.16a3.16,3.16,0,0,1,2.6-1.33,3,3,0,0,1,1.26.25,2.09,2.09,0,0,1,.87.63,2.3,2.3,0,0,1,.4.87,6.34,6.34,0,0,1,.12,1.41Z"/><path class="cls-8" d="M77.07,265l2.38.29a.78.78,0,0,0,.28.57,1.51,1.51,0,0,0,.93.23,2.44,2.44,0,0,0,1.22-.25,1,1,0,0,0,.42-.53,3.23,3.23,0,0,0,.1-.95v-1.15A2.83,2.83,0,0,1,80,264.45a2.9,2.9,0,0,1-2.52-1.34,4.61,4.61,0,0,1-.72-2.64,4.34,4.34,0,0,1,1-3,3,3,0,0,1,2.37-1,2.87,2.87,0,0,1,2.41,1.28v-1.11h2v7.07a7.2,7.2,0,0,1-.23,2.09,2.59,2.59,0,0,1-.64,1.08,3,3,0,0,1-1.11.62,5.85,5.85,0,0,1-1.76.22A4.53,4.53,0,0,1,77.9,267a2.13,2.13,0,0,1-.84-1.74A2.36,2.36,0,0,1,77.07,265Zm1.86-4.62a2.81,2.81,0,0,0,.49,1.84,1.52,1.52,0,0,0,1.2.58,1.65,1.65,0,0,0,1.29-.6,2.62,2.62,0,0,0,.52-1.77,2.82,2.82,0,0,0-.5-1.82,1.62,1.62,0,0,0-1.28-.59,1.54,1.54,0,0,0-1.23.58A2.7,2.7,0,0,0,78.93,260.35Z"/><path class="cls-8" d="M91.11,261.94l2.07.35A3.33,3.33,0,0,1,91.92,264a3.72,3.72,0,0,1-2.16.6,3.56,3.56,0,0,1-3.05-1.34,4.51,4.51,0,0,1-.78-2.72,4.34,4.34,0,0,1,1-3.06,3.36,3.36,0,0,1,2.59-1.11,3.47,3.47,0,0,1,2.77,1.16,5.11,5.11,0,0,1,1,3.55H88.07a2.12,2.12,0,0,0,.51,1.45,1.58,1.58,0,0,0,1.2.51,1.32,1.32,0,0,0,.82-.26A1.74,1.74,0,0,0,91.11,261.94Zm.11-2.1a2,2,0,0,0-.46-1.38,1.46,1.46,0,0,0-1.09-.47,1.44,1.44,0,0,0-1.12.5,1.88,1.88,0,0,0-.44,1.35Z"/><path class="cls-8" d="M102.83,256.57v1.67H101.4v3.17a9.29,9.29,0,0,0,0,1.12.47.47,0,0,0,.19.27.56.56,0,0,0,.35.1,2.56,2.56,0,0,0,.84-.2l.18,1.62a4.15,4.15,0,0,1-1.65.31,2.58,2.58,0,0,1-1-.19,1.51,1.51,0,0,1-.66-.49,1.88,1.88,0,0,1-.29-.81,9.18,9.18,0,0,1-.07-1.47v-3.43h-1v-1.67h1V255l2.09-1.22v2.78Z"/><path class="cls-8" d="M106.35,253.58v4a3.07,3.07,0,0,1,2.41-1.18,3.21,3.21,0,0,1,1.3.26,2.06,2.06,0,0,1,.87.69,2.31,2.31,0,0,1,.4.92,8.19,8.19,0,0,1,.11,1.56v4.62h-2.09v-4.16a6.82,6.82,0,0,0-.11-1.57,1,1,0,0,0-.42-.53,1.39,1.39,0,0,0-.76-.2,1.79,1.79,0,0,0-.92.25,1.48,1.48,0,0,0-.6.76,4.46,4.46,0,0,0-.19,1.51v3.94h-2.08V253.58Z"/><path class="cls-8" d="M118.12,261.94l2.07.35a3.33,3.33,0,0,1-1.26,1.74,3.72,3.72,0,0,1-2.16.6,3.56,3.56,0,0,1-3-1.34,4.51,4.51,0,0,1-.77-2.72,4.33,4.33,0,0,1,1-3.06,3.36,3.36,0,0,1,2.59-1.11,3.47,3.47,0,0,1,2.77,1.16,5.11,5.11,0,0,1,1,3.55h-5.22a2.12,2.12,0,0,0,.51,1.45,1.58,1.58,0,0,0,1.2.51,1.32,1.32,0,0,0,.82-.26A1.74,1.74,0,0,0,118.12,261.94Zm.11-2.1a2,2,0,0,0-.46-1.38,1.46,1.46,0,0,0-1.09-.47,1.44,1.44,0,0,0-1.12.5,1.88,1.88,0,0,0-.44,1.35Z"/><path class="cls-8" d="M126.24,264.45V253.58h3.52a12.69,12.69,0,0,1,2.61.16,2.81,2.81,0,0,1,1.57,1.07,3.35,3.35,0,0,1,.63,2.11,3.61,3.61,0,0,1-.36,1.69,3.09,3.09,0,0,1-2.07,1.58,11.84,11.84,0,0,1-2.27.16h-1.44v4.1Zm2.19-9v3.08h1.21a5.46,5.46,0,0,0,1.73-.17,1.46,1.46,0,0,0,.69-.53,1.52,1.52,0,0,0,.25-.85,1.43,1.43,0,0,0-.35-1,1.59,1.59,0,0,0-.89-.48,10.57,10.57,0,0,0-1.58-.07Z"/><path class="cls-8" d="M135.87,260.4a4.3,4.3,0,0,1,.52-2,3.45,3.45,0,0,1,1.45-1.48,4.28,4.28,0,0,1,2.09-.51,3.91,3.91,0,0,1,2.93,1.16,4.33,4.33,0,0,1,0,5.89,3.88,3.88,0,0,1-2.9,1.18,4.57,4.57,0,0,1-2.07-.49,3.38,3.38,0,0,1-1.49-1.43A4.84,4.84,0,0,1,135.87,260.4Zm2.14.11a2.62,2.62,0,0,0,.56,1.8,1.82,1.82,0,0,0,2.74,0,2.65,2.65,0,0,0,.55-1.81,2.58,2.58,0,0,0-.55-1.78,1.82,1.82,0,0,0-2.74,0A2.59,2.59,0,0,0,138,260.51Z"/><path class="cls-8" d="M145.64,264.45V253.58h2.08v10.87Z"/><path class="cls-8" d="M149.86,255.51v-1.93h2.08v1.93Zm0,8.94v-7.88h2.08v7.88Z"/><path class="cls-8" d="M161,258.9l-2.06.37a1.46,1.46,0,0,0-.47-.92,1.39,1.39,0,0,0-.95-.31,1.57,1.57,0,0,0-1.24.53,2.76,2.76,0,0,0-.47,1.8,3.19,3.19,0,0,0,.47,2,1.55,1.55,0,0,0,1.27.58,1.38,1.38,0,0,0,1-.34,2.06,2.06,0,0,0,.54-1.16l2,.35a3.64,3.64,0,0,1-1.22,2.13,3.78,3.78,0,0,1-2.43.72,3.58,3.58,0,0,1-2.75-1.09,5,5,0,0,1,0-6.06,3.68,3.68,0,0,1,2.79-1.08,3.77,3.77,0,0,1,2.29.62A3.47,3.47,0,0,1,161,258.9Z"/><path class="cls-8" d="M161.54,256.57h2.22l1.88,5.6,1.84-5.6h2.16l-2.78,7.59-.5,1.37a5.09,5.09,0,0,1-.52,1.05,2.14,2.14,0,0,1-.57.59,2.49,2.49,0,0,1-.79.35,3.92,3.92,0,0,1-1.07.13,5.2,5.2,0,0,1-1.18-.13l-.18-1.63a4.16,4.16,0,0,0,.88.1,1.32,1.32,0,0,0,1.08-.43,3,3,0,0,0,.53-1.08Z"/><path class="cls-8" d="M33.52,285.08a2.19,2.19,0,0,1-3.74,1.55,2.2,2.2,0,0,1,0-3.1,2.16,2.16,0,0,1,1.56-.64,2.13,2.13,0,0,1,1.54.64A2.1,2.1,0,0,1,33.52,285.08Z"/><path class="cls-8" d="M39.24,290.57V279.48h3.35l2,7.57,2-7.57H50v11.09H47.87v-8.73l-2.2,8.73H43.51l-2.19-8.73v8.73Z"/><path class="cls-8" d="M51.67,286.44a4.34,4.34,0,0,1,.52-2.05,3.59,3.59,0,0,1,1.48-1.51,4.36,4.36,0,0,1,2.13-.52,4,4,0,0,1,3,1.18,4.09,4.09,0,0,1,1.17,3,4.13,4.13,0,0,1-1.18,3,4,4,0,0,1-3,1.2,4.71,4.71,0,0,1-2.11-.5,3.43,3.43,0,0,1-1.52-1.47A4.83,4.83,0,0,1,51.67,286.44Zm2.18.12a2.72,2.72,0,0,0,.56,1.83,1.87,1.87,0,0,0,2.8,0,2.74,2.74,0,0,0,.56-1.85,2.67,2.67,0,0,0-.56-1.81,1.85,1.85,0,0,0-2.8,0A2.69,2.69,0,0,0,53.85,286.56Z"/><path class="cls-8" d="M61.53,290.57V279.48h2.13v4A3,3,0,0,1,66,282.36a3.14,3.14,0,0,1,2.43,1.06,4.41,4.41,0,0,1,1,3.05,4.64,4.64,0,0,1-1,3.17A3.05,3.05,0,0,1,66,290.76a3,3,0,0,1-1.36-.35,3.19,3.19,0,0,1-1.15-1v1.18Zm2.11-4.19a3.34,3.34,0,0,0,.4,1.85,1.67,1.67,0,0,0,1.46.85,1.5,1.5,0,0,0,1.2-.6,3,3,0,0,0,.5-1.9,3.17,3.17,0,0,0-.5-2,1.66,1.66,0,0,0-2.55,0A2.72,2.72,0,0,0,63.64,286.38Z"/><path class="cls-8" d="M71.09,281.45v-2h2.12v2Zm0,9.12v-8h2.12v8Z"/><path class="cls-8" d="M75.39,290.57V279.48h2.13v11.09Z"/><path class="cls-8" d="M79.69,281.45v-2h2.13v2Zm0,9.12v-8h2.13v8Z"/><path class="cls-8" d="M83.14,290.57v-1.65l3-3.46c.5-.56.86-1,1.1-1.2l-1,0H83.44v-1.76h6.64v1.51L87,287.59l-1.08,1.17c.59,0,.95-.05,1.09-.05h3.3v1.86Z"/><path class="cls-8" d="M96.4,288l2.11.35a3.47,3.47,0,0,1-1.29,1.78,3.81,3.81,0,0,1-2.2.61,3.59,3.59,0,0,1-3.1-1.37,4.61,4.61,0,0,1-.8-2.77,4.42,4.42,0,0,1,1-3.13,3.43,3.43,0,0,1,2.64-1.13,3.57,3.57,0,0,1,2.83,1.18,5.25,5.25,0,0,1,1,3.63H93.3a2.16,2.16,0,0,0,.52,1.47,1.6,1.6,0,0,0,1.22.53,1.28,1.28,0,0,0,.84-.27A1.75,1.75,0,0,0,96.4,288Zm.12-2.15a2.07,2.07,0,0,0-.48-1.4,1.54,1.54,0,0,0-2.25,0,2,2,0,0,0-.45,1.38Z"/><path class="cls-8" d="M109.32,288l2.12.35a3.58,3.58,0,0,1-1.29,1.78,3.86,3.86,0,0,1-2.21.61,3.59,3.59,0,0,1-3.1-1.37,4.61,4.61,0,0,1-.8-2.77,4.42,4.42,0,0,1,1-3.13,3.43,3.43,0,0,1,2.64-1.13,3.57,3.57,0,0,1,2.83,1.18,5.25,5.25,0,0,1,1,3.63h-5.33a2.16,2.16,0,0,0,.52,1.47,1.6,1.6,0,0,0,1.22.53,1.28,1.28,0,0,0,.84-.27A1.75,1.75,0,0,0,109.32,288Zm.12-2.15a2.07,2.07,0,0,0-.48-1.4,1.54,1.54,0,0,0-2.25,0,2,2,0,0,0-.45,1.38Z"/><path class="cls-8" d="M120.59,290.57h-2.13v-4.1a6.51,6.51,0,0,0-.13-1.68,1.16,1.16,0,0,0-.45-.59,1.26,1.26,0,0,0-.73-.21,1.7,1.7,0,0,0-1,.3,1.51,1.51,0,0,0-.61.8,7.36,7.36,0,0,0-.16,1.85v3.63h-2.12v-8h2v1.18a3.2,3.2,0,0,1,2.65-1.36,3.11,3.11,0,0,1,1.28.25,2.22,2.22,0,0,1,.89.65,2.5,2.5,0,0,1,.41.89,6.48,6.48,0,0,1,.12,1.43Z"/><path class="cls-8" d="M122.55,291.1l2.43.3a.8.8,0,0,0,.28.58,1.6,1.6,0,0,0,.95.23,2.46,2.46,0,0,0,1.25-.25,1,1,0,0,0,.42-.54,3,3,0,0,0,.1-1v-1.18a2.88,2.88,0,0,1-2.41,1.3A2.94,2.94,0,0,1,123,289.2a4.66,4.66,0,0,1-.74-2.69,4.41,4.41,0,0,1,1-3.08,3.11,3.11,0,0,1,2.42-1.07,2.94,2.94,0,0,1,2.46,1.31v-1.13h2v7.21a7.06,7.06,0,0,1-.24,2.13,2.65,2.65,0,0,1-.66,1.1,2.85,2.85,0,0,1-1.13.63,6,6,0,0,1-1.79.22,4.59,4.59,0,0,1-2.89-.7,2.18,2.18,0,0,1-.86-1.77A2.54,2.54,0,0,1,122.55,291.1Zm1.9-4.71a2.89,2.89,0,0,0,.49,1.87,1.53,1.53,0,0,0,1.22.6,1.72,1.72,0,0,0,1.32-.61,2.66,2.66,0,0,0,.54-1.81,2.76,2.76,0,0,0-.52-1.85,1.63,1.63,0,0,0-1.3-.6,1.55,1.55,0,0,0-1.26.59A2.79,2.79,0,0,0,124.45,286.39Z"/><path class="cls-8" d="M133.8,285l-1.93-.35a3,3,0,0,1,1.12-1.72,4.11,4.11,0,0,1,2.36-.56,5,5,0,0,1,2.12.34,2.06,2.06,0,0,1,1,.85,4.36,4.36,0,0,1,.29,1.9l0,2.48a8.59,8.59,0,0,0,.1,1.57,4.46,4.46,0,0,0,.38,1.07h-2.1a6.14,6.14,0,0,1-.21-.62c0-.13-.06-.21-.07-.25a4,4,0,0,1-1.17.79,3.25,3.25,0,0,1-1.32.27,2.75,2.75,0,0,1-2-.68,2.25,2.25,0,0,1-.71-1.7,2.33,2.33,0,0,1,.32-1.21,2.1,2.1,0,0,1,.92-.82,7.41,7.41,0,0,1,1.69-.5,11.1,11.1,0,0,0,2.06-.52v-.21a1.09,1.09,0,0,0-.3-.87,1.76,1.76,0,0,0-1.14-.26,1.52,1.52,0,0,0-.89.22A1.56,1.56,0,0,0,133.8,285Zm2.84,1.73a11.9,11.9,0,0,1-1.29.32,4.07,4.07,0,0,0-1.16.37.89.89,0,0,0-.42.75,1,1,0,0,0,.34.77,1.14,1.14,0,0,0,.84.33,1.86,1.86,0,0,0,1.1-.38,1.33,1.33,0,0,0,.51-.7,4.64,4.64,0,0,0,.08-1Z"/><path class="cls-8" d="M140.63,291.1l2.43.3a.8.8,0,0,0,.28.58,1.6,1.6,0,0,0,.95.23,2.46,2.46,0,0,0,1.25-.25,1,1,0,0,0,.42-.54,3,3,0,0,0,.1-1v-1.18a2.88,2.88,0,0,1-2.41,1.3,2.94,2.94,0,0,1-2.56-1.37,4.59,4.59,0,0,1-.74-2.69,4.41,4.41,0,0,1,1-3.08,3.11,3.11,0,0,1,2.42-1.07,2.94,2.94,0,0,1,2.46,1.31v-1.13h2v7.21a7.06,7.06,0,0,1-.24,2.13,2.76,2.76,0,0,1-.66,1.1,2.85,2.85,0,0,1-1.13.63,6,6,0,0,1-1.79.22,4.57,4.57,0,0,1-2.89-.7,2.18,2.18,0,0,1-.86-1.77A2.54,2.54,0,0,1,140.63,291.1Zm1.9-4.71a2.89,2.89,0,0,0,.49,1.87,1.53,1.53,0,0,0,1.22.6,1.72,1.72,0,0,0,1.32-.61,2.66,2.66,0,0,0,.54-1.81,2.76,2.76,0,0,0-.52-1.85,1.63,1.63,0,0,0-1.3-.6,1.55,1.55,0,0,0-1.26.59A2.79,2.79,0,0,0,142.53,286.39Z"/><path class="cls-8" d="M154.94,288l2.12.35a3.47,3.47,0,0,1-1.29,1.78,3.84,3.84,0,0,1-2.21.61,3.61,3.61,0,0,1-3.1-1.37,4.61,4.61,0,0,1-.79-2.77,4.46,4.46,0,0,1,1-3.13,3.46,3.46,0,0,1,2.64-1.13,3.55,3.55,0,0,1,2.83,1.18,5.25,5.25,0,0,1,1,3.63h-5.32a2.11,2.11,0,0,0,.51,1.47,1.63,1.63,0,0,0,1.23.53,1.32,1.32,0,0,0,.84-.27A1.82,1.82,0,0,0,154.94,288Zm.12-2.15a2,2,0,0,0-.48-1.4,1.54,1.54,0,0,0-2.25,0,2,2,0,0,0-.45,1.38Z"/><path class="cls-8" d="M158.75,282.54h1.95v1.1a3.17,3.17,0,0,1,2.51-1.28,2.63,2.63,0,0,1,1.34.32,2.39,2.39,0,0,1,.93,1,3.61,3.61,0,0,1,1.14-1,2.7,2.7,0,0,1,1.31-.32,2.92,2.92,0,0,1,1.5.36,2.23,2.23,0,0,1,.91,1,4.54,4.54,0,0,1,.22,1.67v5.13h-2.12V286a3.5,3.5,0,0,0-.22-1.54,1,1,0,0,0-.91-.45,1.45,1.45,0,0,0-.84.27,1.55,1.55,0,0,0-.57.8,5.61,5.61,0,0,0-.17,1.66v3.85H163.6v-4.4a6.48,6.48,0,0,0-.11-1.51,1,1,0,0,0-.35-.51,1.14,1.14,0,0,0-.65-.16,1.55,1.55,0,0,0-.89.26,1.45,1.45,0,0,0-.56.76,5.88,5.88,0,0,0-.17,1.66v3.9h-2.12Z"/><path class="cls-8" d="M177.33,288l2.12.35a3.47,3.47,0,0,1-1.29,1.78,3.84,3.84,0,0,1-2.21.61,3.61,3.61,0,0,1-3.1-1.37,4.61,4.61,0,0,1-.79-2.77,4.46,4.46,0,0,1,1-3.13,3.46,3.46,0,0,1,2.64-1.13,3.55,3.55,0,0,1,2.83,1.18,5.25,5.25,0,0,1,1,3.63h-5.32a2.11,2.11,0,0,0,.51,1.47,1.63,1.63,0,0,0,1.23.53,1.32,1.32,0,0,0,.84-.27A1.74,1.74,0,0,0,177.33,288Zm.12-2.15a2,2,0,0,0-.47-1.4,1.55,1.55,0,0,0-2.26,0,2,2,0,0,0-.44,1.38Z"/><path class="cls-8" d="M188.6,290.57h-2.12v-4.1a6.35,6.35,0,0,0-.14-1.68,1.2,1.2,0,0,0-.44-.59,1.29,1.29,0,0,0-.74-.21,1.7,1.7,0,0,0-1,.3,1.54,1.54,0,0,0-.6.8,6.91,6.91,0,0,0-.16,1.85v3.63h-2.13v-8h2v1.18a3.23,3.23,0,0,1,2.65-1.36,3.19,3.19,0,0,1,1.29.25,2.18,2.18,0,0,1,.88.65,2.36,2.36,0,0,1,.42.89,7.3,7.3,0,0,1,.11,1.43Z"/><path class="cls-8" d="M194.44,282.54v1.7H193v3.23a7.85,7.85,0,0,0,0,1.15.47.47,0,0,0,.19.27.61.61,0,0,0,.36.1,2.56,2.56,0,0,0,.85-.2l.19,1.65a4.3,4.3,0,0,1-1.68.32,2.64,2.64,0,0,1-1-.2,1.51,1.51,0,0,1-.68-.5,1.92,1.92,0,0,1-.29-.83,9.4,9.4,0,0,1-.07-1.49v-3.5h-1v-1.7h1v-1.6L193,279.7v2.84Z"/></g></g></svg>