<svg xmlns="http://www.w3.org/2000/svg" viewBox="0 0 319.9 315.8"><defs><style>.cls-1{fill:#f5a117;}.cls-2,.cls-8{fill:#001d2f;}.cls-11,.cls-13,.cls-2,.cls-4{stroke:#001d2f;}.cls-11,.cls-12,.cls-13,.cls-14,.cls-15,.cls-2,.cls-4{stroke-linecap:round;stroke-linejoin:round;}.cls-15,.cls-2,.cls-4{stroke-width:1.04px;}.cls-3{fill:#fff;}.cls-11,.cls-12,.cls-13,.cls-14,.cls-15,.cls-4,.cls-9{fill:none;}.cls-5{fill:#c9caca;}.cls-6{fill:#e9506c;}.cls-7{fill:#2667b2;stroke:#2667b2;stroke-width:0.48px;}.cls-7,.cls-9{stroke-miterlimit:10;}.cls-12,.cls-14,.cls-15,.cls-9{stroke:#fff;}.cls-9{stroke-width:0.52px;}.cls-10{fill:#633a7c;}.cls-11,.cls-14{stroke-width:2.08px;}.cls-12,.cls-13{stroke-width:1.56px;}</style></defs><title>CTG-4_en</title><g id="Layer_2" data-name="Layer 2"><g id="圖層_1" data-name="圖層 1"><path class="cls-1" d="M134.58,44c-1,1-1.43-.24-2.87-.24s-1.44.3-2.89.3-1.44-.15-2.88-.15-1.45.19-2.89.19-1.44.14-2.89.14-1.44,0-2.88,0-1.44,0-2.89,0-1.44.05-2.88.05-1.45-.46-2.89-.46-1.44.37-2.88.37h-2.89c-1.45,0-1.45-.29-2.89-.29s-1.44.21-2.89.21-1.44.05-2.89.05-1.44.06-2.89.06-1.44-.22-2.89-.22-1.44.13-2.89.13S84.07,44,82.63,44s-1.45.13-2.9.13-1.44.05-2.89.05S75.4,44,74,44s-1.45.11-2.89.11-1.72.73-2.75-.28S68,42.57,68,41.16s0-1.41,0-2.83.29-1.41.29-2.82-.12-1.42-.12-2.83-.18-1.41-.18-2.83.28-1.41.28-2.82.09-1.41.09-2.83-.38-1.41-.38-2.83S68,20,68,18.54s.27-1.41.27-2.82,0-1.41,0-2.83S68,11.48,68,10.06s.36-1.41.36-2.83-.17-1.41-.17-2.83-.93-1.76.08-2.76,1.36-.25,2.81-.25,1.44.3,2.88.3,1.45-.1,2.89-.1,1.45.23,2.89.23,1.44-.47,2.89-.47,1.44.06,2.88.06h2.88c1.45,0,1.45.33,2.89.33s1.44-.14,2.89-.14,1.44-.16,2.88-.16,1.45.12,2.89.12,1.44-.16,2.89-.16,1.44.18,2.89.18,1.44,0,2.89,0,1.44,0,2.88,0,1.45,0,2.89,0,1.45,0,2.9,0,1.44,0,2.88,0,1.45,0,2.89,0,1.45-.07,2.89-.07,1.45,0,2.9,0,1.44.24,2.89.24,1.87-1.23,2.9-.22-.09,1.42-.09,2.83.13,1.41.13,2.82,0,1.42,0,2.83,0,1.41,0,2.83-.29,1.41-.29,2.82,0,1.42,0,2.83.08,1.41.08,2.83v2.82c0,1.42.16,1.42.16,2.83s-.17,1.42-.17,2.83.25,1.41.25,2.83-.06,1.41-.06,2.83-.25,1.41-.25,2.82a9,9,0,0,0,.44,2.8C135.1,42.58,135.59,43,134.58,44Z"/><rect class="cls-2" x="91.89" y="13.37" width="18.75" height="18.75"/><rect class="cls-3" x="94.75" y="16.3" width="5.82" height="5.8"/><rect class="cls-3" x="94.75" y="23.39" width="5.82" height="5.8"/><rect class="cls-3" x="101.96" y="16.3" width="5.82" height="5.8"/><rect class="cls-3" x="101.96" y="23.39" width="5.82" height="5.8"/><line class="cls-4" x1="111" y1="15.89" x2="115.22" y2="15.89"/><line class="cls-4" x1="111" y1="20.25" x2="115.22" y2="20.25"/><line class="cls-4" x1="111" y1="24.61" x2="115.22" y2="24.61"/><line class="cls-4" x1="111" y1="28.96" x2="115.22" y2="28.96"/><line class="cls-4" x1="87.5" y1="15.89" x2="91.72" y2="15.89"/><line class="cls-4" x1="87.5" y1="20.25" x2="91.72" y2="20.25"/><line class="cls-4" x1="87.5" y1="24.61" x2="91.72" y2="24.61"/><line class="cls-4" x1="87.5" y1="28.96" x2="91.72" y2="28.96"/><line class="cls-4" x1="107.76" y1="8.69" x2="107.76" y2="12.92"/><line class="cls-4" x1="103.41" y1="8.69" x2="103.41" y2="12.92"/><line class="cls-4" x1="99.05" y1="8.69" x2="99.05" y2="12.92"/><line class="cls-4" x1="94.69" y1="8.69" x2="94.69" y2="12.92"/><line class="cls-4" x1="107.76" y1="32.59" x2="107.76" y2="36.82"/><line class="cls-4" x1="103.41" y1="32.59" x2="103.41" y2="36.82"/><line class="cls-4" x1="99.05" y1="32.59" x2="99.05" y2="36.82"/><line class="cls-4" x1="94.69" y1="32.59" x2="94.69" y2="36.82"/><path class="cls-3" d="M244.72,110.67c-1,1-1.28,0-2.72,0s-1.44,0-2.88,0-1.44.36-2.89.36-1.44-.07-2.88-.07-1.44-.08-2.88-.08h-2.88c-1.45,0-1.45-.14-2.89-.14s-1.44-.08-2.88-.08-1.44.17-2.88.17-1.45,0-2.89,0-1.44.16-2.88.16-1.44-.4-2.89-.4-1.44,0-2.88,0-1.44,0-2.89,0-1.44.11-2.88.11-1.44.24-2.88.24-1.45-.13-2.89-.13-1.44.09-2.88.09-1.45-.26-2.89-.26-1.44.06-2.88.06-1.45-.15-2.89-.15-1.44,0-2.88,0-1.45-.06-2.89-.06-1.44.34-2.88.34h-2.89c-1.44,0-1.44-.13-2.88-.13s-1.44.17-2.88.17-1.45-.25-2.89-.25-1.44-.07-2.88-.07-1.45.18-2.89.18-1.44,0-2.88,0-1.45,0-2.89,0-1.44,0-2.89,0-1.44.21-2.88.21-1.45-.25-2.89-.25-1.44.3-2.89.3-1.44-.35-2.89-.35-1.44.31-2.88.31-1.45-.3-2.89-.3-1.45,0-2.89,0-1.45,0-2.89,0h-2.89c-1.45,0-1.73,1.06-2.75,0s-.34-1.3-.34-2.75.09-1.45.09-2.9-.15-1.45-.15-2.9.25-1.45.25-2.91-.09-1.45-.09-2.9.11-1.45.11-2.9.18-1.45.18-2.9,0-1.45,0-2.9-.35-1.45-.35-2.9,0-1.45,0-2.9.08-1.45.08-2.9.29-1.45.29-2.9-.09-1.45-.09-2.91,0-1.45,0-2.9,0-1.45,0-2.9-.18-1.45-.18-2.9-.12-1.45-.12-2.89.17-1.45.17-2.9-.12-1.46-.12-2.91,0-1.45,0-2.9.17-1.45.17-2.9.19-1.45.19-2.9-.06-1.45-.06-2.9-.28-1.46-.28-2.91.3-1.45.3-2.9-.2-1.45-.2-2.91-.08-1.45-.08-2.9.32-1.45.32-2.9-.3-1.45-.3-2.91.36-1.45.36-2.9-.47-1.45-.47-2.91.32-1.45.32-2.91-1.24-2-.22-3,1.56.23,3,.23,1.44-.27,2.88-.27,1.45.19,2.89.19h2.88c1.44,0,1.44-.16,2.89-.16s1.44,0,2.88,0,1.44.13,2.88.13,1.44.07,2.88.07,1.44-.18,2.89-.18,1.44.19,2.88.19,1.44-.31,2.88-.31,1.45.13,2.89.13,1.44.08,2.88.08,1.44.18,2.89.18,1.44-.15,2.88-.15h5.77c1.44,0,1.44.06,2.89.06s1.44-.15,2.88-.15,1.44-.2,2.88-.2,1.45.16,2.89.16,1.44.23,2.89.23,1.44-.32,2.88-.32,1.44.2,2.89.2h2.88c1.44,0,1.44.16,2.89.16s1.44-.43,2.88-.43,1.44.19,2.88.19,1.44.16,2.89.16,1.44-.11,2.88-.11h2.89c1.44,0,1.44-.24,2.88-.24s1.45.44,2.89.44,1.44-.1,2.89-.1,1.44,0,2.88,0,1.45-.18,2.89-.18,1.45-.16,2.89-.16,1.44.32,2.89.32,1.44-.26,2.88-.26,1.45.33,2.89.33,1.45-.25,2.89-.25,1.45-.2,2.9-.2,1.95-.87,3,.16.07,1.53.07,3-.4,1.45-.4,2.9.07,1.45.07,2.9.38,1.45.38,2.9-.35,1.45-.35,2.9.38,1.45.38,2.9-.17,1.45-.17,2.9.16,1.45.16,2.9,0,1.45,0,2.91-.1,1.45-.1,2.9,0,1.45,0,2.9-.05,1.45-.05,2.9.16,1.45.16,2.9-.29,1.45-.29,2.9,0,1.45,0,2.9.21,1.45.21,2.9-.36,1.45-.36,2.9.36,1.45.36,2.9.07,1.45.07,2.9-.23,1.45-.23,2.9.22,1.45.22,2.91-.23,1.45-.23,2.9-.17,1.45-.17,2.9.08,1.45.08,2.9.28,1.45.28,2.91-.36,1.45-.36,2.9.09,1.45.09,2.91-.13,1.45-.13,2.9.37,1.45.37,2.9-.31,1.46-.31,2.91-.06,1.45-.06,2.9a10.8,10.8,0,0,0,.38,2.88C245.33,109.33,245.74,109.64,244.72,110.67Z"/><path class="cls-5" d="M237.88,105.42c-1,1-1.4.09-2.84.09s-1.45-.26-2.9-.26-1.45.11-2.9.11-1.45.06-2.89.06-1.45.1-2.9.1-1.45-.1-2.9-.1-1.45-.2-2.9-.2-1.44.08-2.89.08-1.45.11-2.9.11H209c-1.45,0-1.45.14-2.9.14s-1.45.15-2.89.15-1.45-.44-2.9-.44h-2.9c-1.45,0-1.45.32-2.9.32s-1.45-.28-2.9-.28-1.45.41-2.9.41-1.45-.4-2.9-.4-1.45,0-2.9,0-1.44,0-2.89,0-1.45.22-2.9.22-1.45.11-2.89.11-1.45-.11-2.9-.11-1.45-.25-2.9-.25-1.45.2-2.9.2-1.45-.26-2.9-.26-1.45.44-2.9.44-1.45-.25-2.9-.25-1.45-.16-2.9-.16-1.45.29-2.9.29-1.45-.11-2.9-.11-1.45-.12-2.9-.12-1.45.25-2.9.25-1.45-.4-2.9-.4-1.45.29-2.9.29-1.46-.24-2.91-.24-1.45,0-2.91,0-1.94,1.27-3,.25.28-1.5.28-2.92-.31-1.41-.31-2.83.09-1.41.09-2.83-.19-1.42-.19-2.83,0-1.42,0-2.84.35-1.41.35-2.83-.09-1.42-.09-2.83-.12-1.42-.12-2.84-.14-1.41-.14-2.83,0-1.42,0-2.83.39-1.42.39-2.84-.07-1.41-.07-2.83-.18-1.42-.18-2.83.18-1.42.18-2.83-.32-1.42-.32-2.83.14-1.42.14-2.84.2-1.41.2-2.83-.36-1.42-.36-2.84,0-1.41,0-2.83.26-1.42.26-2.83.14-1.42.14-2.84-.37-1.42-.37-2.83.43-1.42.43-2.84-.15-1.42-.15-2.84,0-1.42,0-2.83,0-1.42,0-2.84-.25-1.42-.25-2.84,0-1.42,0-2.83.31-1.43.31-2.85-1.13-1.86-.12-2.86,1.46-.1,2.91-.1,1.45-.06,2.9-.06,1.44.33,2.89.33,1.45-.4,2.9-.4,1.45.26,2.9.26,1.45-.14,2.9-.14,1.44.36,2.89.36,1.45-.14,2.9-.14,1.45.12,2.9.12,1.45-.09,2.9-.09,1.44,0,2.89,0,1.45.06,2.9.06,1.45-.15,2.9-.15,1.45-.19,2.9-.19,1.45.28,2.9.28,1.45-.24,2.9-.24,1.44-.09,2.89-.09,1.45,0,2.9,0,1.45.17,2.9.17,1.45,0,2.9,0,1.45.26,2.9.26,1.44-.4,2.89-.4,1.45.32,2.9.32,1.45-.32,2.9-.32h5.79c1.45,0,1.45.21,2.9.21s1.45.23,2.9.23,1.45-.12,2.9-.12,1.45.05,2.9.05,1.46-.28,2.91-.28,1.45-.12,2.9-.12,1.45.18,2.9.18,1.45.26,2.9.26,1.45-.11,2.9-.11,1.45-.07,2.9-.07,1.46-.1,2.91-.1,1.75-.84,2.8.18.29,1.3.29,2.71,0,1.42,0,2.84-.32,1.41-.32,2.83.16,1.42.16,2.83.2,1.42.2,2.84-.2,1.41-.2,2.83-.21,1.42-.21,2.83.4,1.42.4,2.84-.33,1.41-.33,2.83-.07,1.42-.07,2.83.47,1.42.47,2.84-.4,1.41-.4,2.83.42,1.42.42,2.83-.37,1.42-.37,2.83.22,1.42.22,2.83,0,1.42,0,2.84-.34,1.41-.34,2.83S238,70,238,71.42s.18,1.42.18,2.84-.43,1.42-.43,2.83.42,1.42.42,2.84-.3,1.42-.3,2.83.07,1.42.07,2.84-.22,1.42-.22,2.84,0,1.41,0,2.83.21,1.42.21,2.84,0,1.42,0,2.84-.18,1.41-.18,2.83a9.25,9.25,0,0,0,.48,2.8C238.46,104,238.9,104.43,237.88,105.42Z"/><path class="cls-6" d="M271.94,26.49c-1.05,1-1.35.3-2.8.3s-1.44.06-2.89.06-1.44-.18-2.88-.18-1.45-.15-2.89-.15-1.45-.12-2.89-.12-1.45.31-2.89.31-1.45,0-2.89,0-1.45-.15-2.89-.15H246c-1.45,0-1.45-.07-2.9-.07s-1.44.37-2.89.37-1.44-.08-2.89-.08-1.44-.08-2.89-.08-1.44,0-2.89,0-1.44,0-2.89,0-1.45-.31-2.89-.31-1.45.27-2.89.27-1.45-.19-2.89-.19-1.44.23-2.89.23-1.44-.23-2.89-.23-1.44-.05-2.89-.05-1.44.4-2.89.4-1.44-.32-2.89-.32-1.45.3-2.89.3-1.45-.3-2.9-.3-1.44,0-2.89,0-1.44,0-2.89,0-1.45.22-2.89.22-1.45-.17-2.9-.17-1.44,0-2.89,0-1.45,0-2.89,0-1.45-.11-2.9-.11-1.45.31-2.89.31-1.46-.23-2.91-.23-1.93,1.23-3,.23.2-1.47.2-2.85,0-1.39,0-2.77,0-1.38,0-2.77-.13-1.38-.13-2.76-.16-1.39-.16-2.77S171,11.37,171,10s-.14-1.39-.14-2.77-.11-1.39-.11-2.77-.93-1.87.07-2.83,1.5,0,2.95,0,1.44-.1,2.89-.1,1.44.33,2.88.33,1.45-.06,2.89-.06,1.45-.15,2.89-.15,1.45-.11,2.89-.11,1.45-.14,2.89-.14,1.45,0,2.89,0,1.45.39,2.89.39,1.45-.28,2.9-.28,1.44.24,2.89.24,1.44-.25,2.89-.25,1.44,0,2.89,0,1.44.11,2.89.11,1.44,0,2.89,0,1.45.09,2.89.09,1.45.08,2.89.08,1.45-.37,2.89-.37,1.44.13,2.89.13,1.44.1,2.89.1,1.44-.1,2.89-.1,1.44-.05,2.89-.05,1.44.36,2.89.36,1.45-.2,2.89-.2,1.45.19,2.9.19,1.44-.44,2.89-.44,1.44.2,2.89.2,1.45-.09,2.89-.09,1.45.24,2.9.24,1.44-.33,2.89-.33,1.45,0,2.89,0h2.9c1.45,0,1.45.42,2.89.42s1.45-.23,2.91-.23,1.78-.89,2.83.11.17,1.32.17,2.7-.3,1.38-.3,2.77.4,1.38.4,2.77-.2,1.38-.2,2.76-.15,1.39-.15,2.77-.07,1.38-.07,2.77.09,1.38.09,2.77-.4,1.46-.12,2.82S272.94,25.53,271.94,26.49Z"/><rect class="cls-6" x="43.04" y="50.83" width="71.66" height="50.22" rx="6.07" ry="6.07"/><path class="cls-3" d="M90.9,74.86,71.41,63.61a1.25,1.25,0,0,0-1.24,0,1.23,1.23,0,0,0-.63,1.07V87.19a1.24,1.24,0,0,0,.63,1.08,1.22,1.22,0,0,0,.62.16,1.25,1.25,0,0,0,.62-.16L90.9,77a1.24,1.24,0,0,0,0-2.15Z"/><path class="cls-3" d="M198.17,15.11c-.18-.2-4.49-4.94-9.89-4.94s-9.72,4.74-9.9,4.94a.24.24,0,0,0,0,.3c.18.2,4.49,4.94,9.9,4.94s9.71-4.74,9.89-4.94A.24.24,0,0,0,198.17,15.11Z"/><circle class="cls-7" cx="188.28" cy="15.26" r="3.95"/><path class="cls-8" d="M206.27,12.65h1.44l1.18,2,1.19-2h1.44l-2,3,2.1,3.15h-1.43l-1.28-2.06-1.27,2.06h-1.44l2-3.15Z"/><path class="cls-8" d="M217.72,11.47l-1.2.9V11.05l1.2-.89h1.19v8.66h-1.19Z"/><path class="cls-8" d="M222.38,17.58h1.2v1.24l-1.2.9Z"/><path class="cls-8" d="M225.24,12.57a2.36,2.36,0,0,1,2.37-2.48,2.34,2.34,0,0,1,1.67.64,2.48,2.48,0,0,1,.72,1.84v3.82a2.48,2.48,0,0,1-.72,1.84,2.4,2.4,0,0,1-1.67.66,2.36,2.36,0,0,1-1.63-.66,2.31,2.31,0,0,1-.74-1.83Zm3.56.08c0-.87-.42-1.31-1.19-1.33s-1.16.46-1.18,1.33v3.68c0,.87.41,1.32,1.18,1.32s1.17-.45,1.19-1.32Z"/><path class="cls-8" d="M231.38,12.57a2.35,2.35,0,0,1,.74-1.84,2.3,2.3,0,0,1,1.64-.64,2.33,2.33,0,0,1,1.66.64,2.41,2.41,0,0,1,.72,1.84v3.82a2.36,2.36,0,0,1-2.38,2.5,2.37,2.37,0,0,1-1.64-.66,2.34,2.34,0,0,1-.74-1.83Zm3.56.08c0-.87-.42-1.31-1.18-1.33s-1.17.46-1.18,1.33v3.68c0,.87.41,1.32,1.18,1.32s1.16-.45,1.18-1.32Z"/><path class="cls-8" d="M237.52,12.57a2.38,2.38,0,0,1,.74-1.84,2.45,2.45,0,0,1,3.3,0,2.41,2.41,0,0,1,.72,1.84v3.82a2.41,2.41,0,0,1-.72,1.84,2.39,2.39,0,0,1-4-1.83Zm3.56.08c0-.87-.41-1.31-1.18-1.33s-1.17.46-1.18,1.33v3.68c0,.87.41,1.32,1.18,1.32s1.16-.45,1.18-1.32Z"/><path class="cls-8" d="M244,17.58h1.2v1.24l-1.2.9Z"/><path class="cls-8" d="M246.88,12.57a2.35,2.35,0,0,1,.75-1.84,2.28,2.28,0,0,1,1.63-.64,2.36,2.36,0,0,1,1.67.64,2.44,2.44,0,0,1,.71,1.84v3.82a2.35,2.35,0,0,1-2.38,2.5,2.41,2.41,0,0,1-2.38-2.49Zm3.57.08c0-.87-.42-1.31-1.19-1.33s-1.16.46-1.18,1.33v3.68c0,.87.41,1.32,1.18,1.32s1.16-.45,1.19-1.32Z"/><path class="cls-8" d="M253,12.57a2.35,2.35,0,0,1,.75-1.84,2.28,2.28,0,0,1,1.63-.64,2.34,2.34,0,0,1,1.67.64,2.48,2.48,0,0,1,.72,1.84v3.82a2.48,2.48,0,0,1-.72,1.84,2.4,2.4,0,0,1-1.67.66A2.41,2.41,0,0,1,253,16.4Zm3.57.08c0-.87-.42-1.31-1.19-1.33s-1.16.46-1.18,1.33v3.68c0,.87.41,1.32,1.18,1.32s1.17-.45,1.19-1.32Z"/><path class="cls-8" d="M259.17,12.57a2.35,2.35,0,0,1,.74-1.84,2.3,2.3,0,0,1,1.64-.64,2.33,2.33,0,0,1,1.66.64,2.48,2.48,0,0,1,.72,1.84v3.82a2.48,2.48,0,0,1-.72,1.84,2.4,2.4,0,0,1-1.66.66,2.37,2.37,0,0,1-1.64-.66,2.34,2.34,0,0,1-.74-1.83Zm3.56.08c0-.87-.42-1.31-1.18-1.33s-1.17.46-1.18,1.33v3.68c0,.87.4,1.32,1.18,1.32s1.16-.45,1.18-1.32Z"/><path class="cls-3" d="M68.16,18.59c2.12,0,4.43-.06,6.66-.06,1.53,0,2.19.58,2.32,1.9s0,2.44-1.08,3.07a3.89,3.89,0,0,1-.41.17c1.9,1.19,1,4.4-.93,5,1.4.73,1.13,3.9-1.12,4.1,1.14,1.68.3,3.52-2,3.57-2.06.05-4.75,0-7.45,0s-5.16.05-7.23,0c-.93-2.46.06-2.54.1-5.18s-.34-2.64-.3-5.27S56.2,23.2,57,20.7a11.48,11.48,0,0,0,4.67-3.9,11,11,0,0,0,1.34-6c0-.49,0-1,0-1.48-.13-1.57.65-2.25,2.11-1.65a6,6,0,0,1,3.78,5.47C69,14.89,68.33,16.72,68.16,18.59Z"/><path class="cls-9" d="M68.16,18.59c2.12,0,4.43-.06,6.66-.06,1.53,0,2.19.58,2.32,1.9s0,2.44-1.08,3.07a3.89,3.89,0,0,1-.41.17c1.9,1.19,1,4.4-.93,5,1.4.73,1.13,3.9-1.12,4.1,1.14,1.68.3,3.52-2,3.57-2.06.05-4.75,0-7.45,0s-5.16.05-7.23,0c-.93-2.46.06-2.54.1-5.18s-.34-2.64-.3-5.27S56.2,23.2,57,20.7a11.48,11.48,0,0,0,4.67-3.9,11,11,0,0,0,1.34-6c0-.49,0-1,0-1.48-.13-1.57.65-2.25,2.11-1.65a6,6,0,0,1,3.78,5.47C69,14.89,68.33,16.72,68.16,18.59Z"/><polygon class="cls-10" points="57.42 37.93 50.73 38.09 50.31 31.59 50.06 25.12 49.78 18.55 57.66 18.49 57.69 25.11 57.59 31.57 57.42 37.93"/><path class="cls-11" d="M198.23,38h5.53c2.77,0,2.77-.18,5.54-.18s2.77,0,5.54,0,2.77.18,5.54.18,2.78-.08,5.55-.08"/><path class="cls-11" d="M198.23,44c2.76,0,2.76.2,5.53.2s2.77-.28,5.54-.28,2.77.35,5.54.35,2.77-.4,5.54-.4,2.78.2,5.55.2"/><path class="cls-11" d="M198.23,50.09c2.76,0,2.76-.44,5.53-.44s2.77.55,5.54.55,2.77-.48,5.54-.48,2.77,0,5.54,0,2.78.41,5.55.41"/><ellipse class="cls-3" cx="161.62" cy="52.53" rx="16.83" ry="16.02"/><path class="cls-12" d="M184.37,52.53a20.93,20.93,0,0,1-.7,4.91A20.68,20.68,0,0,1,181.81,62a20.93,20.93,0,0,1-2.69,4.13,22.2,22.2,0,0,1-3.69,3.27,22.43,22.43,0,0,1-4.09,2.8,23.82,23.82,0,0,1-4.74,1.6,24.72,24.72,0,0,1-5,.73c-1.7,0-3.32-.7-4.91-1a23.73,23.73,0,0,1-4.9-1.08,22.94,22.94,0,0,1-4.19-2.75,22.12,22.12,0,0,1-3.57-3.47,21.23,21.23,0,0,1-2.8-4.1A21.31,21.31,0,0,1,139,57.58a21.59,21.59,0,0,1-.52-5,21.12,21.12,0,0,1,.77-5c.4-1.63,1.5-3,2.26-4.44a21.7,21.7,0,0,1,2.54-4.22,23.19,23.19,0,0,1,3.43-3.64,22.91,22.91,0,0,1,4.55-2.06,22.2,22.2,0,0,1,4.67-1.52,23.2,23.2,0,0,1,4.89-.36,23.67,23.67,0,0,1,4.93.2A23.21,23.21,0,0,1,171.28,33a22.91,22.91,0,0,1,4.13,2.73,21.66,21.66,0,0,1,3.7,3.24,20.93,20.93,0,0,1,2.72,4.11c.76,1.46,1.9,2.83,2.3,4.46A21.4,21.4,0,0,1,184.37,52.53Z"/><path class="cls-8" d="M164.08,31.83c0,1.84-1.12,14.37-2.51,14.37s-2.51-12.53-2.51-14.37,1.12-3.33,2.51-3.33S164.08,30,164.08,31.83Z"/><ellipse class="cls-8" cx="161.77" cy="51.35" rx="3.02" ry="3.14"/><path class="cls-8" d="M141.47,57c1.77-.73,14.3-4.72,14.85-3.5s-11.09,7.16-12.87,7.88-3.65.34-4.2-.87S139.69,57.72,141.47,57Z"/><path class="cls-8" d="M181.67,57c-1.77-.73-14.3-4.72-14.85-3.5s11.09,7.16,12.86,7.88,3.66.34,4.21-.87S183.45,57.72,181.67,57Z"/><path class="cls-8" d="M162.88,58.14a1.22,1.22,0,0,0-1.15-.84h0a1.19,1.19,0,0,0-1.15.82l-11.09,35.1H152l9.69-30.68,9.08,30.68h2.5Z"/><line class="cls-13" x1="157.91" y1="70.65" x2="164.86" y2="70.65"/><line class="cls-13" x1="154.84" y1="80.95" x2="167.8" y2="80.95"/><path class="cls-8" d="M215,77.12a.81.81,0,0,0-.81-.81h-2.05a.81.81,0,0,0-.81.81v7.25L215,82.83Z"/><path class="cls-1" d="M211.32,84.37V95.79a.81.81,0,0,0,.81.81h2.05a.81.81,0,0,0,.81-.81v-13Z"/><path class="cls-1" d="M257.15,48.35a.61.61,0,0,0-.61,0L212.67,73.68a.6.6,0,0,0,0,1l43.87,25.33a.68.68,0,0,0,.31.08.64.64,0,0,0,.3-.08.6.6,0,0,0,.3-.53V48.87A.6.6,0,0,0,257.15,48.35Z"/><path class="cls-1" d="M206.67,68.4a.6.6,0,0,0-.6.6V79.3a.6.6,0,0,0,.6.61h12.75V68.4Z"/><path class="cls-8" d="M222,68.4h-2.62V79.91H222a.6.6,0,0,0,.6-.61V69A.6.6,0,0,0,222,68.4Z"/><path class="cls-14" d="M264.77,74.76c4.86,0,4.86-.15,9.73-.15"/><path class="cls-14" d="M264.77,81.35c4,2.78,4,2.79,8,5.57"/><path class="cls-14" d="M272.8,62.54c-4,2.78-4,2.75-8,5.53"/><polygon class="cls-3" points="140.76 77.42 140.76 70.65 131.54 70.65 126.82 84.37 122.86 89.75 134.6 93.22 136.45 85.87 140.76 85.87 140.76 80.11 142.82 79.91 140.76 77.42"/><path class="cls-8" d="M136.67,93.43l1.62-3.22-14.15-4.34-1.68,2.56c-13.18.41-18.62,14.14-18.62,14.14L94,129.27l52.7,6.32v-26C146.71,97,137.25,93.62,136.67,93.43Z"/><path class="cls-1" d="M140.76,70.65s-.14,7.29-6.26,8.24c0,0,.26,14.86-9,16.42S114,121.39,99.4,112.67c-13.12-7.85-4.94-19.71,8.74-25.18S113,76.55,122.86,73c0,0,2-6.2,12-6C134.91,67,140.3,67.39,140.76,70.65Z"/><polygon class="cls-3" points="184.23 73.78 183.74 68.56 193.94 68.15 198.83 82.39 202.95 87.99 190.76 91.59 188.7 84.37 185.08 84.6 184.36 77.98 182.22 78.39 184.23 73.78"/><path class="cls-10" d="M188.6,91.81l-1.67-3.35L201.62,84l1.74,2.66c13.69.42,19.34,14.68,19.34,14.68L232.94,129l-54.74,6.56v-27C178.18,95.51,188,92,188.6,91.81Z"/><path class="cls-8" d="M193.62,67.87s-17.3-3.83-8.28,4.85a9.6,9.6,0,0,0,3,1.68,1.27,1.27,0,0,1,1.89-.59s1.74,1.62-.48,4.82L192.59,81,198,79.65,194.6,68.74A1.51,1.51,0,0,0,193.62,67.87Z"/><path class="cls-3" d="M71.26,104.26A6.67,6.67,0,0,1,69.11,103a12.06,12.06,0,0,1-1.72-1.81,8.94,8.94,0,0,1-1.63-2,9.45,9.45,0,0,1-.53-2.54,9.86,9.86,0,0,1-.5,2.55,9.3,9.3,0,0,1-1.65,2,13.77,13.77,0,0,1-1.56,2c-1.18.9-1.21.44-2.36,1,0,0,.29.14.29.18s-.22-.07-.19,0c1.16.52.9.54,2.08,1.44a10.53,10.53,0,0,1,1.88,1.68,9.24,9.24,0,0,1,1.3,2.15,9.39,9.39,0,0,1,.71,2.49,9.43,9.43,0,0,1,.55-2.56,9,9,0,0,1,1.6-2,11.55,11.55,0,0,1,1.78-1.74c1.18-.89.87-1,2-1.51,0,0,0,.22.07.19S71.3,104.27,71.26,104.26Z"/><path class="cls-15" d="M61.94,104.2c-1.2,0-1.2-.1-2.41-.1s-1.21.5-2.42.5"/><path class="cls-15" d="M73.35,104.46c-1.21,0-1.21-.12-2.42-.12s-1.21.07-2.41.07"/><path class="cls-15" d="M65,100.22c0-1.52.09-1.52.09-3s-.12-1.51-.12-3"/><path class="cls-15" d="M65.43,114.54c0-1.52-.31-1.52-.31-3s-.12-1.52-.12-3"/><path class="cls-3" d="M156.61,4.76c-1-.41-.84-.48-1.56-1.35a3.76,3.76,0,0,1-.85-1.88,3.68,3.68,0,0,1-.85,1.88c-.72.87-.72.7-1.67,1.11,0,0,.13.14.13.16a1.62,1.62,0,0,1,0-.2c.95.41.74.65,1.45,1.52a4,4,0,0,1,.91,2,3.82,3.82,0,0,1,1-1.88c.72-.87.53-.94,1.47-1.34,0,0,0-.05,0,0S156.63,4.76,156.61,4.76Z"/><path class="cls-15" d="M152.86,4.69c-1,0-1,0-2,0"/><path class="cls-15" d="M157.51,4.8c-1,0-1,0-2,0"/><path class="cls-15" d="M154.31,3c0-1.24-.11-1.24-.11-2.48"/><path class="cls-15" d="M154.2,8.84c0-1.24,0-1.24,0-2.47"/><path class="cls-3" d="M250.71,119.77c-1-.41-1.1-.12-1.82-1a4.37,4.37,0,0,1-.7-2.07,3.71,3.71,0,0,1-.93,1.88c-.71.87-.65.72-1.6,1.13,0,0,.06.19.06.2s.08-.14.09-.14c.95.41.78.58,1.5,1.45a3,3,0,0,1,.88,1.63,3.38,3.38,0,0,1,.69-1.8c.71-.87.86-.6,1.81-1,0,0-.25-.2-.24-.21S250.72,119.77,250.71,119.77Z"/><path class="cls-15" d="M246.85,119.82c-1,0-1,.3-2,.3"/><path class="cls-15" d="M251.51,119.82c-1,0-1-.14-2-.14"/><path class="cls-15" d="M248.25,118.24c0-1.24.05-1.24.05-2.48"/><path class="cls-15" d="M248.1,124.09c0-1.24.09-1.24.09-2.48"/><path class="cls-3" d="M164.15,117.63c-1-.4-1-.19-1.69-1.07a3.37,3.37,0,0,1-.84-1.79,3.66,3.66,0,0,1-.71,1.9c-.72.87-.79.73-1.74,1.13,0,0,0,0,0,0s0,0,0,0c1,.41.77.48,1.49,1.35a3.35,3.35,0,0,1,1,1.76,4.06,4.06,0,0,1,.65-2c.72-.87.94-.48,1.89-.89,0,0-.13-.2-.12-.21S164.17,117.64,164.15,117.63Z"/><path class="cls-15" d="M160.28,118c-1,0-1-.41-2-.41"/><path class="cls-15" d="M164.94,117.91c-1,0-1-.21-2-.21"/><path class="cls-15" d="M161.61,116.14c0-1.24-.05-1.24-.05-2.48"/><path class="cls-15" d="M161.48,122c0-1.24.26-1.24.26-2.48"/><path class="cls-3" d="M82.93,116.26c-1-.4-.86-.49-1.58-1.36a3.87,3.87,0,0,1-.82-1.94,3.63,3.63,0,0,1-1,1.78c-.72.87-.48,1-1.43,1.42,0,0,.11,0,.11,0s0-.22,0-.21c.95.41.77.63,1.48,1.5a3.4,3.4,0,0,1,.87,1.79,3.36,3.36,0,0,1,.9-1.77c.72-.87.57-1,1.52-1.38,0,0,0,.07,0,.09S82.94,116.27,82.93,116.26Z"/><path class="cls-15" d="M79.19,116.16c-1,0-1-.16-2-.16"/><path class="cls-15" d="M83.85,116.35c-1,0-1-.36-2-.36"/><path class="cls-15" d="M80.28,114.46c0-1.24,0-1.24,0-2.48"/><path class="cls-15" d="M80.59,120.3c0-1.24.17-1.24.17-2.47"/><path class="cls-1" d="M311.77,315.63c-2.14,0-2.14-.47-4.27-.47s-2.14,0-4.28,0-2.14.39-4.27.39-2.14-.63-4.28-.63-2.14,0-4.27,0-2.14-.08-4.28-.08-2.13.52-4.27.52-2.14.28-4.28.28-2.14-.58-4.27-.58H269c-2.14,0-2.14-.1-4.27-.1s-2.14.21-4.28.21-2.14-.38-4.27-.38-2.14.36-4.28.36-2.14.39-4.27.39-2.14.27-4.28.27-2.14,0-4.27,0-2.14-.35-4.28-.35h-4.28c-2.13,0-2.13.17-4.27.17s-2.14-.72-4.28-.72-2.14-.08-4.27-.08-2.14.75-4.28.75-2.14-.67-4.28-.67h-4.27c-2.14,0-2.14.79-4.27.79s-2.14-.61-4.27-.61h-4.28c-2.13,0-2.13,0-4.27,0s-2.13.58-4.27.58-2.14-.25-4.28-.25-2.13-.54-4.27-.54-2.14.91-4.28.91-2.13-.89-4.27-.89-2.13.13-4.27.13-2.14.07-4.27.07-2.14,0-4.28,0-2.14.74-4.28.74h-4.27c-2.14,0-2.14-.37-4.28-.37s-2.13-.23-4.27-.23-2.14-.22-4.28-.22-2.14.63-4.28.63-2.13-.78-4.27-.78-2.14.43-4.28.43-2.14-.13-4.28-.13-2.13.22-4.27.22-2.14-.27-4.28-.27h-4.28c-2.14,0-2.14.52-4.27.52s-2.14-.18-4.28-.18-2.14-.47-4.28-.47-2.14.06-4.28.06-2.14.45-4.28.45-2.14.21-4.28.21-2.14-.24-4.28-.24-2.14.37-4.28.37-2.13-.35-4.27-.35-2.14-.26-4.28-.26-2.14-.07-4.27-.07-2.14.55-4.28.55-2.14-.11-4.28-.11-2.14,0-4.28,0-2.14-.4-4.28-.4-2.14.18-4.28.18-2.14.52-4.28.52-2.14-.94-4.29-.94-2.14-.08-4.28-.08-2.14.1-4.28.1-2.14-.09-4.29-.09-2.14.38-4.29.38A6.87,6.87,0,0,1,4.05,314a8.62,8.62,0,0,1-2.7-3.35A10.36,10.36,0,0,1,0,306.47c0-2.15.08-2.15.08-4.3s.45-2.15.45-4.3,0-2.15,0-4.3.5-2.15.5-4.29S.71,287.12.71,285s-.36-2.14-.36-4.29.5-2.15.5-4.3-.23-2.15-.23-4.3-.41-2.15-.41-4.3.07-2.15.07-4.3.69-2.15.69-4.3-.1-2.15-.1-4.3-.37-2.15-.37-4.3.24-2.15.24-4.31S.53,244.12.53,242s.08-2.15.08-4.3-.28-2.15-.28-4.29v-4.3c0-2.15-.2-2.15-.2-4.3s.44-2.15.44-4.3,0-2.15,0-4.3S.43,214,.43,211.87s-.25-2.15-.25-4.3.52-2.15.52-4.3.1-2.15.1-4.31-.28-2.15-.28-4.3S0,192.51,0,190.36s.53-2.16.53-4.31-.31-2.15-.31-4.31,0-2.15,0-4.31A10.78,10.78,0,0,1,1,173.05a9.16,9.16,0,0,1,3-3.31,7,7,0,0,1,4.17-.92c2.14,0,2.14-.69,4.28-.69s2.14.66,4.28.66,2.13-.22,4.27-.22,2.14.06,4.27.06,2.14.23,4.28.23,2.14.07,4.27.07,2.14-.42,4.28-.42,2.14-.41,4.27-.41,2.14,1,4.28,1,2.14-1,4.27-1,2.14.21,4.28.21,2.14-.09,4.27-.09,2.14.2,4.28.2,2.14.71,4.27.71,2.14-.49,4.28-.49,2.14.22,4.28.22,2.13-.16,4.27-.16,2.14-.59,4.28-.59,2.13.59,4.27.59,2.14-.46,4.28-.46,2.14-.17,4.27-.17,2.14.86,4.28.86,2.14-.72,4.27-.72,2.14.62,4.28.62,2.14-.25,4.28-.25,2.13.45,4.27.45,2.14-.27,4.27-.27,2.14.1,4.27.1,2.14.13,4.27.13,2.14-.86,4.28-.86,2.13.08,4.27.08,2.14.5,4.28.5,2.13.17,4.27.17,2.14-.8,4.27-.8,2.14.35,4.28.35,2.13.16,4.27.16,2.14.34,4.28.34,2.14-.07,4.27-.07,2.14-.4,4.28-.4,2.14,0,4.27,0,2.14.64,4.28.64,2.14-1,4.28-1,2.13.77,4.27.77,2.14-.74,4.28-.74,2.14.83,4.27.83,2.14.08,4.28.08,2.14-.15,4.28-.15,2.14-.58,4.28-.58,2.13-.21,4.27-.21,2.14.44,4.28.44,2.14-.18,4.28-.18,2.14-.12,4.28-.12,2.14.23,4.28.23,2.13.49,4.27.49,2.14-.32,4.28-.32,2.14.05,4.28.05,2.14.12,4.28.12,2.14-.15,4.27-.15,2.14.14,4.28.14,2.14-.72,4.28-.72,2.14.41,4.28.41,2.14.29,4.28.29,2.14-.62,4.28-.62,2.14.82,4.28.82,2.14-.44,4.28-.44,2.14.25,4.28.25,2.14-.61,4.28-.61,2.14,1,4.28,1,2.14-.55,4.29-.55,2.14-.1,4.28-.1,2.15.6,4.29.6c1.48,0,3-.16,4.15.68s1.67,2.24,2.3,3.6a9.24,9.24,0,0,1,.77,4.05c0,2.15.15,2.15.15,4.3s-.16,2.15-.16,4.3.2,2.15.2,4.3.52,2.15.52,4.3-.33,2.15-.33,4.3.14,2.15.14,4.3-.18,2.14-.18,4.29-.43,2.15-.43,4.31.39,2.14.39,4.29.32,2.15.32,4.31-.08,2.14-.08,4.29.16,2.16.16,4.31-.45,2.15-.45,4.3.22,2.15.22,4.3.12,2.15.12,4.3-.67,2.15-.67,4.3.93,2.15.93,4.29-.57,2.16-.57,4.31-.16,2.14-.16,4.29.18,2.15.18,4.31.45,2.15.45,4.3-.6,2.15-.6,4.3.51,2.15.51,4.3-.58,2.15-.58,4.3.46,2.16.46,4.31.15,2.15.15,4.3-.37,2.15-.37,4.3-.43,2.16-.43,4.31.75,2.16.75,4.31.27,2.16.27,4.31a10.65,10.65,0,0,1-1.16,4.3,8.62,8.62,0,0,1-3,3.05C314.53,314.66,313.25,315.63,311.77,315.63Z"/><path class="cls-8" d="M231.1,210.4c-2.1,0-2.1.47-4.2.47s-2.1-.28-4.21-.28-2.1.55-4.2.55h-4.21c-2.1,0-2.1-.61-4.2-.61s-2.1.13-4.21.13-2.1.23-4.2.23-2.11-.28-4.21-.28-2.1.58-4.2.58-2.11-.79-4.21-.79-2.1.14-4.21.14-2.1.36-4.2.36-2.11-.47-4.21-.47-2.1.41-4.21.41-2.1.29-4.21.29-2.1-.29-4.2-.29-2.11.36-4.21.36-2.11-.6-4.21-.6-2.1.59-4.21.59-2.1-.25-4.21-.25-2.1-.7-4.2-.7-2.11,1-4.21,1-2.11-.44-4.21-.44-2.1-.51-4.2-.51-2.11,0-4.21,0-2.11,1-4.21,1-2.1-.61-4.21-.61-2.1.42-4.21.42-2.1-.2-4.21-.2-2.1.43-4.21.43-2.1-.69-4.21-.69-2.11.24-4.21.24-2.11-.07-4.21-.07-2.11.39-4.21.39-2.11-.88-4.22-.88-2.11,1-4.22,1c-1.42,0-2.79-.8-4.16-.95a41.07,41.07,0,0,1-4.2-.31,39.46,39.46,0,0,1-4.08-1.09,41.71,41.71,0,0,1-3.93-1.56c-1.26-.61-2.17-1.85-3.35-2.6a35.4,35.4,0,0,1-3.48-2.29,34.81,34.81,0,0,1-3.29-2.6,38.5,38.5,0,0,1-2.47-3.41,37.5,37.5,0,0,1-2.74-3.17,37.49,37.49,0,0,1-1.83-3.77,34.77,34.77,0,0,1-1.93-3.74,39.16,39.16,0,0,1-1.35-4,41.89,41.89,0,0,1-.32-4.22c-.15-1.38-.79-2.77-.79-4.19H42a38.27,38.27,0,0,1,.49-4.17,37.88,37.88,0,0,1,.49-4.18,36.71,36.71,0,0,1,1.17-4,40.3,40.3,0,0,1,1.59-3.9,37.9,37.9,0,0,1,2-3.7c.75-1.18,2-2,2.9-3.06s1.36-2.52,2.35-3.51A38.14,38.14,0,0,1,56.24,144a36.13,36.13,0,0,1,3.34-2.57,37.19,37.19,0,0,1,3.91-1.59A35.25,35.25,0,0,1,67.26,138a42.15,42.15,0,0,1,8.12-2.28,40.38,40.38,0,0,1,4.23.16c2.1,0,2.1-.16,4.2-.16s2.11.34,4.21.34,2.1-.44,4.21-.44l4.2,0c2.1,0,2.1.49,4.21.49s2.1-.31,4.2-.31,2.11.09,4.21.09,2.1-.29,4.2-.29,2.11.1,4.21.1,2.1.32,4.21.32,2.1-.18,4.2-.18,2.11-.34,4.21-.34,2.1.66,4.21.66,2.1-.09,4.2-.09,2.11-.65,4.21-.65,2.11.63,4.21.63,2.1-.3,4.21-.3,2.1.53,4.21.53,2.1-.68,4.2-.68,2.11.63,4.21.63,2.11-.44,4.21-.44,2.1.16,4.21.16,2.1.4,4.2.4,2.11-.08,4.21-.08,2.1-.43,4.21-.43,2.1-.3,4.21-.3,2.1.13,4.2.13,2.11.65,4.21.65,2.11-.3,4.21-.3,2.11-.14,4.21-.14,2.11.25,4.22.25,2.1-.19,4.21-.19,2.1-.28,4.21-.28,2.1.39,4.21.39,2.11-.17,4.22-.17,2.11-.13,4.21-.13a37.66,37.66,0,0,1,4.24-.06c1.41.15,2.65,1.2,4,1.51s3-.17,4.29.29a38.6,38.6,0,0,1,3.71,2.08,36.7,36.7,0,0,1,3.91,1.66c1.19.74,2,2.1,3.06,3a25,25,0,0,1,6.19,5.65,36.36,36.36,0,0,1,2.47,3.43,39,39,0,0,1,1.77,3.82,37.84,37.84,0,0,1,1.23,4,35.69,35.69,0,0,1,1.65,3.87,35.19,35.19,0,0,1,1,4.11c.15,1.37-.5,2.81-.5,4.22h.14c0,1.42.61,2.87.45,4.24s-1,2.7-1.33,4.05a36.83,36.83,0,0,1-1.13,4,35,35,0,0,1-1.78,3.77,39.75,39.75,0,0,1-1.72,3.82,40.57,40.57,0,0,1-2.57,3.3,39.17,39.17,0,0,1-2.72,3.17,37.24,37.24,0,0,1-3.32,2.53,33.84,33.84,0,0,1-3.24,2.63,36,36,0,0,1-3.65,2,39.62,39.62,0,0,1-3.84,1.65,35.92,35.92,0,0,1-3.95,1.47,73.5,73.5,0,0,1-8.37.44Z"/><path class="cls-3" d="M230.93,200.93c-2.1,0-2.1.23-4.21.23s-2.1.1-4.2.1-2.11-.37-4.21-.37-2.1.46-4.2.46-2.1.25-4.21.25-2.1-.29-4.2-.29-2.11-.64-4.21-.64-2.1.87-4.21.87-2.1-.24-4.2-.24-2.1.3-4.21.3-2.1-.74-4.2-.74-2.11.06-4.21.06-2.1.54-4.21.54-2.1-.4-4.21-.4-2.1.29-4.2.29-2.11.09-4.21.09-2.1-.09-4.21-.09-2.1-.48-4.21-.48-2.1,0-4.2,0-2.11.35-4.21.35-2.11-.31-4.21-.31-2.11.66-4.21.66-2.1-.24-4.2-.24-2.11.2-4.21.2-2.1-.45-4.21-.45-2.1.38-4.21.38-2.1.15-4.2.15-2.11-1-4.21-1-2.11.39-4.21.39-2.11.26-4.22.26-2.1-.52-4.21-.52-2.1.84-4.21.84-2.1-1-4.21-1-2.1.45-4.21.45-2.11-.12-4.22-.12-2.11-.18-4.22-.18c-1.41,0-2.86.75-4.24.6a38.54,38.54,0,0,1-4.19-.7c-1.38-.31-2.52-1.45-3.83-1.91s-2.93-.28-4.19-.88a37.37,37.37,0,0,1-3.66-2.16c-1.19-.74-2-2.1-3-3a35.77,35.77,0,0,1-3.21-2.67,36,36,0,0,1-2.54-3.32,37.38,37.38,0,0,1-2.73-3.17A37.4,37.4,0,0,1,45.59,180a35.36,35.36,0,0,1-1.93-3.78c-.46-1.31.08-2.92-.24-4.3a38.92,38.92,0,0,1-.83-4.06,38,38,0,0,1-.37-4.16h-.65a38.77,38.77,0,0,1,.7-4.18,36.63,36.63,0,0,1,1-4.07,37.27,37.27,0,0,1,1.22-4,41.14,41.14,0,0,1,1.13-4.06,39.88,39.88,0,0,1,1.69-3.9c.75-1.19,2.31-1.8,3.19-2.89a36.87,36.87,0,0,1,2.84-3c1-1,1.66-2.31,2.75-3.18a38.42,38.42,0,0,1,3.68-2,37.71,37.71,0,0,1,3.53-2.19c1.26-.61,2.28-1.85,3.6-2.32s2.85-.26,4.23-.57a37.34,37.34,0,0,1,4.12-.73,38.87,38.87,0,0,1,4.18,0c2.11,0,2.11-.37,4.21-.37s2.1.33,4.21.33,2.1-.77,4.2-.77,2.1,0,4.21,0,2.1.28,4.2.28,2.1.48,4.2.48,2.11-.39,4.21-.39,2.11.58,4.21.58,2.1-.67,4.2-.67,2.11.75,4.21.75,2.1-.42,4.21-.42,2.1.27,4.2.27,2.11-.16,4.21-.16,2.1-.59,4.21-.59,2.1,0,4.2,0,2.11-.15,4.21-.15,2.11.35,4.21.35h4.21c2.1,0,2.1.34,4.21.34s2.1-.33,4.21-.33,2.1.5,4.2.5,2.11-.36,4.21-.36,2.1.09,4.21.09,2.1-.42,4.2-.42,2.11.06,4.21.06,2.1.29,4.21.29,2.1.14,4.21.14,2.1-.65,4.21-.65,2.1.8,4.21.8,2.1-.28,4.21-.28,2.1.11,4.21.11,2.1-.54,4.21-.54,2.1,0,4.21,0,2.11.42,4.21.42,2.11-.18,4.22-.18,2.11.42,4.22.42c1.41,0,2.86-.58,4.24-.42s2.66,1.15,4,1.46,2.91,0,4.22.51,2.38,1.59,3.64,2.19a38.43,38.43,0,0,1,3.77,1.81,38.5,38.5,0,0,1,6.36,5.4c1,1,2.44,1.58,3.31,2.68a36.65,36.65,0,0,1,2.21,3.61,37.56,37.56,0,0,1,2.14,3.63,37.19,37.19,0,0,1,1.59,3.91,37,37,0,0,1,.93,4.1,34.94,34.94,0,0,1,.91,4.11,36.49,36.49,0,0,1,.18,4.2h.14a39,39,0,0,1-.37,4.21,38.53,38.53,0,0,1-.56,4.18A36.88,36.88,0,0,1,266,176a35.33,35.33,0,0,1-1.45,3.92,38.48,38.48,0,0,1-1.93,3.72,41.06,41.06,0,0,1-2.77,3.15,38.76,38.76,0,0,1-2.71,3.15,37.16,37.16,0,0,1-3,2.9,41.48,41.48,0,0,1-3.19,2.76,39.06,39.06,0,0,1-3.75,1.94,37.23,37.23,0,0,1-3.76,2,36.9,36.9,0,0,1-4.08,1.21,38.73,38.73,0,0,1-4.21.53A40.62,40.62,0,0,1,230.93,200.93Z"/><path class="cls-8" d="M76.23,158.08V142.57h4.69l2.82,10.58,2.78-10.58h4.7v15.51H88.31V145.87l-3.08,12.21h-3l-3.07-12.21v12.21Z"/><path class="cls-8" d="M100.82,154.51l3,.49a5,5,0,0,1-1.81,2.49,5.36,5.36,0,0,1-3.09.85,5,5,0,0,1-4.34-1.92,6.42,6.42,0,0,1-1.11-3.87,6.25,6.25,0,0,1,1.46-4.38,4.85,4.85,0,0,1,3.7-1.58,5,5,0,0,1,4,1.65,7.35,7.35,0,0,1,1.38,5.08H96.49a3,3,0,0,0,.72,2.06,2.26,2.26,0,0,0,1.72.74,1.8,1.8,0,0,0,1.17-.39A2.3,2.3,0,0,0,100.82,154.51Zm.17-3a2.81,2.81,0,0,0-.67-2,2,2,0,0,0-1.54-.68,2.07,2.07,0,0,0-1.61.71,2.82,2.82,0,0,0-.63,1.93Z"/><path class="cls-8" d="M116.68,158.08h-2.76v-1.65a4.44,4.44,0,0,1-1.63,1.44,4.19,4.19,0,0,1-1.89.47,4.29,4.29,0,0,1-3.32-1.56,6.37,6.37,0,0,1-1.38-4.36,6.25,6.25,0,0,1,1.35-4.34,4.33,4.33,0,0,1,3.39-1.49,4.2,4.2,0,0,1,3.26,1.56v-5.58h3Zm-7.94-5.86a5.13,5.13,0,0,0,.5,2.6,2.25,2.25,0,0,0,2,1.17,2.19,2.19,0,0,0,1.75-.88,4.07,4.07,0,0,0,.72-2.6,4.42,4.42,0,0,0-.7-2.79,2.23,2.23,0,0,0-1.79-.86,2.26,2.26,0,0,0-1.78.85A3.81,3.81,0,0,0,108.74,152.22Z"/><path class="cls-8" d="M119.61,145.32v-2.75h3v2.75Zm0,12.76V146.84h3v11.24Z"/><path class="cls-8" d="M127.86,150.27l-2.7-.49a4.15,4.15,0,0,1,1.57-2.41,5.74,5.74,0,0,1,3.3-.78,7.19,7.19,0,0,1,3,.47,2.88,2.88,0,0,1,1.37,1.2,6,6,0,0,1,.4,2.66l0,3.47a12.67,12.67,0,0,0,.14,2.19,6.08,6.08,0,0,0,.54,1.5h-2.95c-.07-.19-.17-.49-.28-.87-.05-.18-.09-.3-.11-.35a5.49,5.49,0,0,1-1.63,1.11,4.63,4.63,0,0,1-1.85.37,3.88,3.88,0,0,1-2.74-.94,3.18,3.18,0,0,1-1-2.39,3.11,3.11,0,0,1,.46-1.69,3,3,0,0,1,1.27-1.15,10.43,10.43,0,0,1,2.37-.69,16.75,16.75,0,0,0,2.89-.73v-.3a1.51,1.51,0,0,0-.43-1.22,2.53,2.53,0,0,0-1.59-.37,1.8,1.8,0,0,0-2,1.41Zm4,2.42c-.38.12-1,.27-1.81.45a5.44,5.44,0,0,0-1.62.52,1.24,1.24,0,0,0-.58,1.05,1.48,1.48,0,0,0,.46,1.08,1.65,1.65,0,0,0,1.19.45,2.52,2.52,0,0,0,1.53-.53,1.84,1.84,0,0,0,.71-1,5.7,5.7,0,0,0,.12-1.45Z"/><path class="cls-8" d="M143.74,158.08V142.57h5a18,18,0,0,1,3.73.23,4,4,0,0,1,2.23,1.52,4.8,4.8,0,0,1,.9,3,5.13,5.13,0,0,1-.51,2.4,4.32,4.32,0,0,1-1.32,1.53,4.57,4.57,0,0,1-1.63.74,17.77,17.77,0,0,1-3.25.22h-2v5.85Zm3.13-12.89v4.4h1.72a8.15,8.15,0,0,0,2.47-.24,2,2,0,0,0,1-.76,2.08,2.08,0,0,0,.36-1.21,2,2,0,0,0-.5-1.4,2.18,2.18,0,0,0-1.26-.68,15.08,15.08,0,0,0-2.26-.11Z"/><path class="cls-8" d="M160.4,150.27l-2.7-.49a4.2,4.2,0,0,1,1.57-2.41,5.74,5.74,0,0,1,3.3-.78,7.16,7.16,0,0,1,3,.47,2.88,2.88,0,0,1,1.37,1.2,6,6,0,0,1,.4,2.66l0,3.47a12.67,12.67,0,0,0,.14,2.19,6.51,6.51,0,0,0,.54,1.5H165c-.07-.19-.17-.49-.28-.87-.05-.18-.09-.3-.11-.35A5.49,5.49,0,0,1,163,158a4.6,4.6,0,0,1-1.85.37,3.88,3.88,0,0,1-2.74-.94,3.18,3.18,0,0,1-1-2.39,3.11,3.11,0,0,1,.46-1.69,3,3,0,0,1,1.27-1.15,10.43,10.43,0,0,1,2.37-.69,16.75,16.75,0,0,0,2.89-.73v-.3a1.54,1.54,0,0,0-.42-1.22,2.58,2.58,0,0,0-1.6-.37,2.13,2.13,0,0,0-1.24.32A2.08,2.08,0,0,0,160.4,150.27Zm4,2.42c-.38.12-1,.27-1.81.45a5.44,5.44,0,0,0-1.62.52,1.24,1.24,0,0,0-.58,1.05,1.48,1.48,0,0,0,.46,1.08,1.65,1.65,0,0,0,1.19.45,2.52,2.52,0,0,0,1.53-.53,1.84,1.84,0,0,0,.71-1,5.7,5.7,0,0,0,.12-1.45Z"/><path class="cls-8" d="M173.08,158.08h-3V146.84h2.76v1.6a4.92,4.92,0,0,1,1.27-1.49,2.36,2.36,0,0,1,1.29-.36,3.72,3.72,0,0,1,2,.56l-.92,2.59a2.64,2.64,0,0,0-1.4-.48,1.64,1.64,0,0,0-1.06.34,2.36,2.36,0,0,0-.68,1.24,17.39,17.39,0,0,0-.25,3.77Z"/><path class="cls-8" d="M183.83,146.84v2.37h-2v4.53a11,11,0,0,0,.06,1.61.62.62,0,0,0,.27.37.8.8,0,0,0,.5.15,3.81,3.81,0,0,0,1.19-.28l.26,2.3a5.86,5.86,0,0,1-2.35.45,3.71,3.71,0,0,1-1.45-.27,2.09,2.09,0,0,1-1-.7,2.82,2.82,0,0,1-.42-1.16,15.28,15.28,0,0,1-.09-2.1v-4.9h-1.37v-2.37h1.37v-2.23l3-1.74v4Z"/><path class="cls-8" d="M196.12,158.08h-3v-5.73A8.77,8.77,0,0,0,193,150a1.68,1.68,0,0,0-.62-.83,1.74,1.74,0,0,0-1-.3,2.41,2.41,0,0,0-1.39.43,2.09,2.09,0,0,0-.84,1.12,9.77,9.77,0,0,0-.23,2.58v5.09h-3V146.84h2.76v1.65a4.5,4.5,0,0,1,3.71-1.9,4.62,4.62,0,0,1,1.8.35,3,3,0,0,1,1.23.91,3.26,3.26,0,0,1,.58,1.25,9.13,9.13,0,0,1,.17,2Z"/><path class="cls-8" d="M205.64,154.51l3,.49a4.89,4.89,0,0,1-1.81,2.49,5.35,5.35,0,0,1-3.08.85,5,5,0,0,1-4.34-1.92,6.43,6.43,0,0,1-1.12-3.87,6.2,6.2,0,0,1,1.47-4.38,4.81,4.81,0,0,1,3.69-1.58,5,5,0,0,1,4,1.65q1.45,1.66,1.39,5.08h-7.46a3,3,0,0,0,.72,2.06,2.26,2.26,0,0,0,1.72.74,1.78,1.78,0,0,0,1.17-.39A2.3,2.3,0,0,0,205.64,154.51Zm.17-3a2.85,2.85,0,0,0-.66-2,2.14,2.14,0,0,0-3.16,0,2.77,2.77,0,0,0-.62,1.93Z"/><path class="cls-8" d="M214,158.08h-3V146.84h2.77v1.6A4.78,4.78,0,0,1,215.1,147a2.36,2.36,0,0,1,1.29-.36,3.72,3.72,0,0,1,2,.56l-.92,2.59a2.67,2.67,0,0,0-1.4-.48,1.64,1.64,0,0,0-1.06.34,2.3,2.3,0,0,0-.68,1.24,17.39,17.39,0,0,0-.25,3.77Z"/><path class="cls-8" d="M218.58,154.88l3-.46a2.2,2.2,0,0,0,.78,1.32,2.61,2.61,0,0,0,1.63.45,2.92,2.92,0,0,0,1.73-.42,1,1,0,0,0,.39-.8.79.79,0,0,0-.21-.56,2.34,2.34,0,0,0-1-.39,15.93,15.93,0,0,1-4.56-1.45A2.9,2.9,0,0,1,219,150a3.13,3.13,0,0,1,1.16-2.46,5.38,5.38,0,0,1,3.57-1,6.23,6.23,0,0,1,3.43.75,3.82,3.82,0,0,1,1.55,2.22l-2.81.52a1.68,1.68,0,0,0-.68-1,2.42,2.42,0,0,0-1.43-.35,3.23,3.23,0,0,0-1.69.33.69.69,0,0,0-.33.6.65.65,0,0,0,.29.54,11.29,11.29,0,0,0,2.78.83,8.34,8.34,0,0,1,3.32,1.33,2.74,2.74,0,0,1,.93,2.21,3.4,3.4,0,0,1-1.29,2.66,5.73,5.73,0,0,1-3.82,1.11,6.29,6.29,0,0,1-3.64-.93A4.29,4.29,0,0,1,218.58,154.88Z"/><path class="cls-8" d="M231.61,142.61h3v2.13a7.27,7.27,0,0,1-.22,2,3,3,0,0,1-.84,1.34A4.2,4.2,0,0,1,232,149l-.58-1.22a2.52,2.52,0,0,0,1.28-.82,2.44,2.44,0,0,0,.4-1.42h-1.44Z"/><path class="cls-8" d="M75.48,181l3-.29A3.7,3.7,0,0,0,79.64,183a3.41,3.41,0,0,0,2.28.72,3.5,3.5,0,0,0,2.28-.64,1.88,1.88,0,0,0,.76-1.5,1.39,1.39,0,0,0-.32-.93,2.51,2.51,0,0,0-1.13-.67c-.36-.13-1.2-.36-2.51-.68a8.5,8.5,0,0,1-3.53-1.54A4,4,0,0,1,76,174.63a4,4,0,0,1,.67-2.22,4.29,4.29,0,0,1,1.94-1.57,7.74,7.74,0,0,1,3-.54,6.56,6.56,0,0,1,4.4,1.28A4.52,4.52,0,0,1,87.65,175l-3.13.14a2.64,2.64,0,0,0-.86-1.72,3.17,3.17,0,0,0-2-.53,3.55,3.55,0,0,0-2.14.57,1.12,1.12,0,0,0-.49,1,1.18,1.18,0,0,0,.46.94,8.35,8.35,0,0,0,2.88,1,14.77,14.77,0,0,1,3.38,1.12,4.36,4.36,0,0,1,1.72,1.57,4.64,4.64,0,0,1,.62,2.47,4.59,4.59,0,0,1-.74,2.5,4.43,4.43,0,0,1-2.1,1.73,8.74,8.74,0,0,1-3.38.57A6.71,6.71,0,0,1,77.36,185,5.91,5.91,0,0,1,75.48,181Z"/><path class="cls-8" d="M89.3,174.84h3.17l2.69,8,2.62-8h3.08l-4,10.82-.71,2a7.43,7.43,0,0,1-.74,1.5,3.13,3.13,0,0,1-.82.84,3.37,3.37,0,0,1-1.13.51,5.87,5.87,0,0,1-1.52.18,7.86,7.86,0,0,1-1.68-.18L90,188.14a6.82,6.82,0,0,0,1.26.14,1.88,1.88,0,0,0,1.54-.61,4.4,4.4,0,0,0,.76-1.55Z"/><path class="cls-8" d="M113,186.08h-3v-5.73a8.77,8.77,0,0,0-.19-2.36,1.68,1.68,0,0,0-.62-.83,1.74,1.74,0,0,0-1-.3,2.41,2.41,0,0,0-1.39.43,2.09,2.09,0,0,0-.84,1.12,9.77,9.77,0,0,0-.23,2.58v5.09h-3V174.84h2.76v1.65a4.5,4.5,0,0,1,3.71-1.9,4.62,4.62,0,0,1,1.8.35,3,3,0,0,1,1.23.91,3.26,3.26,0,0,1,.58,1.25,9.13,9.13,0,0,1,.17,2Z"/><path class="cls-8" d="M122.52,182.51l3,.49a4.89,4.89,0,0,1-1.81,2.49,5.35,5.35,0,0,1-3.08.85,5,5,0,0,1-4.34-1.92,6.36,6.36,0,0,1-1.12-3.87,6.2,6.2,0,0,1,1.47-4.38,4.81,4.81,0,0,1,3.69-1.58,5,5,0,0,1,4,1.65q1.45,1.66,1.39,5.08h-7.46a3,3,0,0,0,.72,2.06,2.26,2.26,0,0,0,1.72.74,1.78,1.78,0,0,0,1.17-.39A2.3,2.3,0,0,0,122.52,182.51Zm.17-3a2.85,2.85,0,0,0-.66-2,2.14,2.14,0,0,0-3.16,0,2.77,2.77,0,0,0-.62,1.93Z"/><path class="cls-8" d="M130.92,186.08h-3V174.84h2.77v1.6A4.78,4.78,0,0,1,132,175a2.36,2.36,0,0,1,1.29-.36,3.75,3.75,0,0,1,2,.56l-.93,2.59a2.61,2.61,0,0,0-1.39-.48,1.64,1.64,0,0,0-1.06.34,2.3,2.3,0,0,0-.68,1.24,17.39,17.39,0,0,0-.25,3.77Z"/><path class="cls-8" d="M136.23,186.83l3.4.41a1.19,1.19,0,0,0,.39.81,2.17,2.17,0,0,0,1.33.32,3.5,3.5,0,0,0,1.75-.35,1.38,1.38,0,0,0,.59-.75,4.26,4.26,0,0,0,.14-1.37v-1.64a4,4,0,0,1-3.36,1.82,4.13,4.13,0,0,1-3.59-1.91,6.54,6.54,0,0,1-1-3.77,6.2,6.2,0,0,1,1.36-4.32,4.4,4.4,0,0,1,3.38-1.49,4.11,4.11,0,0,1,3.44,1.83v-1.58h2.79v10.09a9.92,9.92,0,0,1-.33,3,3.72,3.72,0,0,1-.92,1.55,4.17,4.17,0,0,1-1.59.88,8.3,8.3,0,0,1-2.5.32,6.48,6.48,0,0,1-4.05-1,3.06,3.06,0,0,1-1.2-2.48C136.22,187.09,136.22,187,136.23,186.83Zm2.66-6.6a4.07,4.07,0,0,0,.69,2.62,2.15,2.15,0,0,0,1.71.83,2.35,2.35,0,0,0,1.84-.85,3.73,3.73,0,0,0,.76-2.53,4,4,0,0,0-.72-2.59,2.31,2.31,0,0,0-1.83-.85,2.2,2.2,0,0,0-1.76.83A3.93,3.93,0,0,0,138.89,180.23Z"/><path class="cls-8" d="M148.34,174.84h3.17l2.69,8,2.62-8h3.08l-4,10.82-.71,2a8,8,0,0,1-.74,1.5,3.13,3.13,0,0,1-.82.84,3.46,3.46,0,0,1-1.13.51,5.92,5.92,0,0,1-1.52.18,7.86,7.86,0,0,1-1.68-.18l-.27-2.33a6.82,6.82,0,0,0,1.26.14,1.91,1.91,0,0,0,1.54-.61,4.4,4.4,0,0,0,.76-1.55Z"/><path class="cls-8" d="M167.85,186.08V170.57h11.51v2.62H171v3.44h7.79v2.62H171v4.22h8.66v2.61Z"/><path class="cls-8" d="M181,174.84h1.65V174a5.64,5.64,0,0,1,.3-2.12,2.35,2.35,0,0,1,1.11-1.14,4.32,4.32,0,0,1,2-.44,8.4,8.4,0,0,1,2.49.38l-.4,2.08a5.58,5.58,0,0,0-1.37-.17,1.2,1.2,0,0,0-.92.3,1.73,1.73,0,0,0-.29,1.16v.79h2.23v2.34h-2.23v8.9h-3v-8.9H181Z"/><path class="cls-8" d="M188.21,174.84h1.65V174a5.64,5.64,0,0,1,.3-2.12,2.35,2.35,0,0,1,1.11-1.14,4.32,4.32,0,0,1,2-.44,8.4,8.4,0,0,1,2.49.38l-.4,2.08a5.58,5.58,0,0,0-1.37-.17,1.24,1.24,0,0,0-.93.3,1.79,1.79,0,0,0-.28,1.16v.79h2.23v2.34h-2.23v8.9h-3v-8.9h-1.65Z"/><path class="cls-8" d="M203.24,182.51l3,.49a4.88,4.88,0,0,1-1.8,2.49,5.36,5.36,0,0,1-3.09.85,5,5,0,0,1-4.34-1.92,6.42,6.42,0,0,1-1.11-3.87,6.25,6.25,0,0,1,1.46-4.38,4.85,4.85,0,0,1,3.7-1.58,5,5,0,0,1,4,1.65,7.35,7.35,0,0,1,1.38,5.08h-7.45a3,3,0,0,0,.72,2.06,2.26,2.26,0,0,0,1.71.74,1.8,1.8,0,0,0,1.18-.39A2.3,2.3,0,0,0,203.24,182.51Zm.17-3a2.81,2.81,0,0,0-.67-2,2,2,0,0,0-1.54-.68,2.07,2.07,0,0,0-1.61.71,2.77,2.77,0,0,0-.63,1.93Z"/><path class="cls-8" d="M218.59,178.17l-2.93.53a2.2,2.2,0,0,0-.67-1.33,2.08,2.08,0,0,0-1.36-.44,2.22,2.22,0,0,0-1.78.76,4,4,0,0,0-.66,2.57,4.54,4.54,0,0,0,.67,2.83,2.21,2.21,0,0,0,1.81.82,2,2,0,0,0,1.38-.48,2.89,2.89,0,0,0,.77-1.65l2.92.49a5.22,5.22,0,0,1-1.75,3,5.36,5.36,0,0,1-3.46,1,5.13,5.13,0,0,1-3.93-1.56,7.08,7.08,0,0,1,0-8.64,5.21,5.21,0,0,1,4-1.55,5.44,5.44,0,0,1,3.27.88A4.88,4.88,0,0,1,218.59,178.17Z"/><path class="cls-8" d="M226,174.84v2.37h-2v4.53a11,11,0,0,0,.06,1.61.57.57,0,0,0,.26.37.84.84,0,0,0,.5.15,3.79,3.79,0,0,0,1.2-.28l.25,2.3a5.83,5.83,0,0,1-2.35.45,3.75,3.75,0,0,1-1.45-.27,2.06,2.06,0,0,1-.94-.7,2.68,2.68,0,0,1-.42-1.16,13.33,13.33,0,0,1-.1-2.1v-4.9h-1.36v-2.37H221v-2.23l3-1.74v4Z"/><path class="cls-8" d="M25.2,233.08a2.2,2.2,0,1,1-4.39,0,2.19,2.19,0,0,1,2.2-2.19,2.2,2.2,0,0,1,2.19,2.19Z"/><path class="cls-8" d="M31,238.45V227.58H35.6a8.09,8.09,0,0,1,2.53.29,2.46,2.46,0,0,1,1.26,1,3.11,3.11,0,0,1,.48,1.72,2.91,2.91,0,0,1-.72,2,3.48,3.48,0,0,1-2.15,1,5.07,5.07,0,0,1,1.17.92,11.56,11.56,0,0,1,1.25,1.76l1.33,2.12H38.13l-1.59-2.36a15.39,15.39,0,0,0-1.16-1.6,1.84,1.84,0,0,0-.66-.46,3.66,3.66,0,0,0-1.1-.12h-.45v4.54Zm2.2-6.27H34.8a8.17,8.17,0,0,0,2-.14,1.14,1.14,0,0,0,.61-.46,1.38,1.38,0,0,0,.23-.81,1.3,1.3,0,0,0-.3-.89,1.36,1.36,0,0,0-.82-.43c-.18,0-.72,0-1.61,0H33.17Z"/><path class="cls-8" d="M43.48,233l-1.89-.34a3,3,0,0,1,1.1-1.7A4.06,4.06,0,0,1,45,230.4a5,5,0,0,1,2.08.33,2.1,2.1,0,0,1,1,.83,4.26,4.26,0,0,1,.28,1.87l0,2.43a8.21,8.21,0,0,0,.1,1.54,4.28,4.28,0,0,0,.37,1H46.71a6.25,6.25,0,0,1-.2-.61,2.55,2.55,0,0,0-.08-.25,3.52,3.52,0,0,1-1.14.78,3.32,3.32,0,0,1-1.3.26,2.66,2.66,0,0,1-1.91-.66,2.19,2.19,0,0,1-.7-1.67,2.27,2.27,0,0,1,.31-1.19,2.06,2.06,0,0,1,.9-.8,6.69,6.69,0,0,1,1.66-.49,10.87,10.87,0,0,0,2-.51v-.21a1.06,1.06,0,0,0-.3-.85,1.76,1.76,0,0,0-1.12-.26,1.42,1.42,0,0,0-.86.22A1.53,1.53,0,0,0,43.48,233Zm2.79,1.69c-.27.09-.69.19-1.27.32a3.66,3.66,0,0,0-1.13.36.88.88,0,0,0-.41.74,1,1,0,0,0,.33.75,1.09,1.09,0,0,0,.83.32,1.78,1.78,0,0,0,1.07-.37,1.29,1.29,0,0,0,.5-.69,4.43,4.43,0,0,0,.08-1Z"/><path class="cls-8" d="M50.37,229.51v-1.93h2.09v1.93Zm0,8.94v-7.88h2.09v7.88Z"/><path class="cls-8" d="M53.86,236.2l2.09-.31a1.55,1.55,0,0,0,.54.92,1.87,1.87,0,0,0,1.15.31,2,2,0,0,0,1.21-.29.66.66,0,0,0,.28-.56.53.53,0,0,0-.15-.39,1.71,1.71,0,0,0-.7-.28,11.55,11.55,0,0,1-3.2-1,2,2,0,0,1-.93-1.78,2.19,2.19,0,0,1,.81-1.72,3.8,3.8,0,0,1,2.51-.69,4.41,4.41,0,0,1,2.4.52A2.71,2.71,0,0,1,61,232.48l-2,.36a1.27,1.27,0,0,0-.48-.7,1.8,1.8,0,0,0-1-.24,2.32,2.32,0,0,0-1.18.22.49.49,0,0,0,0,.81,8.33,8.33,0,0,0,2,.58,5.73,5.73,0,0,1,2.33.93,1.94,1.94,0,0,1,.65,1.55,2.36,2.36,0,0,1-.91,1.86,4,4,0,0,1-2.67.78,4.41,4.41,0,0,1-2.55-.65A3,3,0,0,1,53.86,236.2Z"/><path class="cls-8" d="M67.61,235.94l2.07.35A3.33,3.33,0,0,1,68.42,238a3.72,3.72,0,0,1-2.16.6,3.56,3.56,0,0,1-3.05-1.34,4.58,4.58,0,0,1-.77-2.72,4.33,4.33,0,0,1,1-3.06,3.36,3.36,0,0,1,2.59-1.11,3.46,3.46,0,0,1,2.77,1.16,5.11,5.11,0,0,1,1,3.55H64.57a2.17,2.17,0,0,0,.51,1.45,1.58,1.58,0,0,0,1.2.51,1.32,1.32,0,0,0,.82-.26A1.74,1.74,0,0,0,67.61,235.94Zm.11-2.1a2,2,0,0,0-.46-1.38,1.46,1.46,0,0,0-1.09-.47,1.44,1.44,0,0,0-1.12.5,1.88,1.88,0,0,0-.44,1.35Z"/><path class="cls-8" d="M82.69,234.45l2.13.68a4.75,4.75,0,0,1-1.63,2.64,5.11,5.11,0,0,1-6.45-.61,5.68,5.68,0,0,1-1.4-4,6,6,0,0,1,1.41-4.22,4.79,4.79,0,0,1,3.68-1.5,4.5,4.5,0,0,1,3.24,1.18,4.29,4.29,0,0,1,1.12,2l-2.18.52a2.27,2.27,0,0,0-.8-1.33,2.3,2.3,0,0,0-1.49-.49,2.46,2.46,0,0,0-2,.87,4.26,4.26,0,0,0-.75,2.81,4.56,4.56,0,0,0,.74,2.94,2.41,2.41,0,0,0,1.93.87,2.15,2.15,0,0,0,1.5-.56A3.26,3.26,0,0,0,82.69,234.45Z"/><path class="cls-8" d="M86.69,229.51v-1.93h2.08v1.93Zm0,8.94v-7.88h2.08v7.88Z"/><path class="cls-8" d="M93.07,238.45l-3.17-7.88h2.19l1.48,4,.43,1.34c.11-.34.19-.57.22-.68s.14-.44.22-.66l1.5-4h2.14L95,238.45Z"/><path class="cls-8" d="M99.36,229.51v-1.93h2.08v1.93Zm0,8.94v-7.88h2.08v7.88Z"/><path class="cls-8" d="M110.45,232.9l-2.06.37a1.46,1.46,0,0,0-.47-.92,1.39,1.39,0,0,0-1-.31,1.56,1.56,0,0,0-1.24.53,2.76,2.76,0,0,0-.47,1.8,3.19,3.19,0,0,0,.47,2,1.55,1.55,0,0,0,1.27.58,1.38,1.38,0,0,0,1-.34,2,2,0,0,0,.53-1.16l2,.35a3.64,3.64,0,0,1-1.22,2.13,3.82,3.82,0,0,1-2.43.72,3.58,3.58,0,0,1-2.75-1.09,5,5,0,0,1,0-6.06,3.68,3.68,0,0,1,2.79-1.08,3.77,3.77,0,0,1,2.29.62A3.47,3.47,0,0,1,110.45,232.9Z"/><path class="cls-8" d="M123.22,234.45l2.13.68a4.75,4.75,0,0,1-1.63,2.64,4.62,4.62,0,0,1-2.89.87,4.67,4.67,0,0,1-3.56-1.48,5.68,5.68,0,0,1-1.39-4,5.94,5.94,0,0,1,1.4-4.22,4.8,4.8,0,0,1,3.69-1.5,4.5,4.5,0,0,1,3.24,1.18,4.37,4.37,0,0,1,1.11,2l-2.17.52a2.26,2.26,0,0,0-2.3-1.82,2.47,2.47,0,0,0-2,.87,4.26,4.26,0,0,0-.75,2.81,4.62,4.62,0,0,0,.74,2.94,2.43,2.43,0,0,0,1.93.87,2.18,2.18,0,0,0,1.51-.56A3.19,3.19,0,0,0,123.22,234.45Z"/><path class="cls-8" d="M126.74,234.4a4.29,4.29,0,0,1,.51-2,3.45,3.45,0,0,1,1.45-1.48,4.29,4.29,0,0,1,2.1-.51,3.93,3.93,0,0,1,2.93,1.16,4,4,0,0,1,1.14,2.93,4,4,0,0,1-1.16,3,3.85,3.85,0,0,1-2.9,1.18,4.57,4.57,0,0,1-2.07-.49,3.38,3.38,0,0,1-1.49-1.43A4.84,4.84,0,0,1,126.74,234.4Zm2.13.11a2.62,2.62,0,0,0,.56,1.8,1.82,1.82,0,0,0,2.74,0,2.65,2.65,0,0,0,.55-1.81,2.58,2.58,0,0,0-.55-1.78,1.82,1.82,0,0,0-2.74,0A2.59,2.59,0,0,0,128.87,234.51Z"/><path class="cls-8" d="M143.67,238.45h-2.09v-4a6.22,6.22,0,0,0-.13-1.65,1.17,1.17,0,0,0-.44-.58,1.22,1.22,0,0,0-.72-.21,1.66,1.66,0,0,0-1,.3,1.52,1.52,0,0,0-.59.78,6.65,6.65,0,0,0-.16,1.81v3.57h-2.08v-7.88h1.93v1.16a3.15,3.15,0,0,1,2.6-1.33,3,3,0,0,1,1.26.25,2,2,0,0,1,.86.63,2.32,2.32,0,0,1,.41.87,6.34,6.34,0,0,1,.12,1.41Z"/><path class="cls-8" d="M145.05,236.2l2.09-.31a1.55,1.55,0,0,0,.54.92,1.82,1.82,0,0,0,1.14.31,2.06,2.06,0,0,0,1.22-.29.68.68,0,0,0,.27-.56.53.53,0,0,0-.15-.39,1.65,1.65,0,0,0-.69-.28,11.55,11.55,0,0,1-3.2-1,2,2,0,0,1-.93-1.78,2.18,2.18,0,0,1,.8-1.72,3.82,3.82,0,0,1,2.51-.69,4.36,4.36,0,0,1,2.4.52,2.68,2.68,0,0,1,1.09,1.56l-2,.36a1.18,1.18,0,0,0-.48-.7,1.76,1.76,0,0,0-1-.24,2.32,2.32,0,0,0-1.18.22.5.5,0,0,0-.24.43.47.47,0,0,0,.21.38,8.33,8.33,0,0,0,2,.58,5.67,5.67,0,0,1,2.32.93,1.91,1.91,0,0,1,.65,1.55,2.38,2.38,0,0,1-.9,1.86,4,4,0,0,1-2.68.78,4.46,4.46,0,0,1-2.55-.65A3,3,0,0,1,145.05,236.2Z"/><path class="cls-8" d="M161.1,232.9l-2.06.37a1.46,1.46,0,0,0-.47-.92,1.39,1.39,0,0,0-.95-.31,1.57,1.57,0,0,0-1.24.53,2.76,2.76,0,0,0-.47,1.8,3.12,3.12,0,0,0,.48,2,1.52,1.52,0,0,0,1.26.58,1.37,1.37,0,0,0,1-.34,2.06,2.06,0,0,0,.54-1.16l2,.35a3.64,3.64,0,0,1-1.22,2.13,3.78,3.78,0,0,1-2.43.72,3.58,3.58,0,0,1-2.75-1.09,5,5,0,0,1,0-6.06,3.68,3.68,0,0,1,2.79-1.08,3.77,3.77,0,0,1,2.29.62A3.41,3.41,0,0,1,161.1,232.9Z"/><path class="cls-8" d="M162.68,229.51v-1.93h2.08v1.93Zm0,8.94v-7.88h2.08v7.88Z"/><path class="cls-8" d="M166.42,234.4a4.29,4.29,0,0,1,.51-2,3.45,3.45,0,0,1,1.45-1.48,4.32,4.32,0,0,1,2.1-.51,3.93,3.93,0,0,1,2.93,1.16,4,4,0,0,1,1.14,2.93,4.08,4.08,0,0,1-1.15,3,3.89,3.89,0,0,1-2.91,1.18,4.57,4.57,0,0,1-2.07-.49,3.38,3.38,0,0,1-1.49-1.43A4.84,4.84,0,0,1,166.42,234.4Zm2.13.11a2.62,2.62,0,0,0,.56,1.8,1.82,1.82,0,0,0,2.74,0,2.65,2.65,0,0,0,.55-1.81,2.58,2.58,0,0,0-.55-1.78,1.82,1.82,0,0,0-2.74,0A2.59,2.59,0,0,0,168.55,234.51Z"/><path class="cls-8" d="M181.37,238.45v-1.18a3.19,3.19,0,0,1-2.62,1.36,2.93,2.93,0,0,1-1.42-.35,2.06,2.06,0,0,1-.91-1,4.32,4.32,0,0,1-.28-1.74v-5h2.08v3.62a9.66,9.66,0,0,0,.12,2,1,1,0,0,0,.41.59,1.28,1.28,0,0,0,.78.22,1.59,1.59,0,0,0,.95-.29,1.46,1.46,0,0,0,.58-.73,8.06,8.06,0,0,0,.16-2.12v-3.33h2.08v7.88Z"/><path class="cls-8" d="M184.73,236.2l2.09-.31a1.55,1.55,0,0,0,.54.92,1.82,1.82,0,0,0,1.14.31,2.06,2.06,0,0,0,1.22-.29.68.68,0,0,0,.27-.56.53.53,0,0,0-.15-.39,1.65,1.65,0,0,0-.69-.28,11.55,11.55,0,0,1-3.2-1,2,2,0,0,1-.93-1.78,2.21,2.21,0,0,1,.8-1.72,3.82,3.82,0,0,1,2.51-.69,4.42,4.42,0,0,1,2.41.52,2.71,2.71,0,0,1,1.08,1.56l-2,.36a1.18,1.18,0,0,0-.48-.7,1.76,1.76,0,0,0-1-.24,2.32,2.32,0,0,0-1.18.22.5.5,0,0,0-.24.43.47.47,0,0,0,.21.38,8.33,8.33,0,0,0,2,.58,5.67,5.67,0,0,1,2.32.93,1.92,1.92,0,0,1,.66,1.55,2.4,2.4,0,0,1-.91,1.86,4,4,0,0,1-2.68.78A4.46,4.46,0,0,1,186,238,3,3,0,0,1,184.73,236.2Z"/><path class="cls-8" d="M201.08,238.45H199v-4a6.22,6.22,0,0,0-.13-1.65,1.17,1.17,0,0,0-.44-.58,1.22,1.22,0,0,0-.72-.21,1.66,1.66,0,0,0-1,.3,1.52,1.52,0,0,0-.59.78,6.65,6.65,0,0,0-.16,1.81v3.57H193.9v-7.88h1.93v1.16a3.16,3.16,0,0,1,2.6-1.33,3,3,0,0,1,1.26.25,2,2,0,0,1,.86.63,2.18,2.18,0,0,1,.41.87,6.34,6.34,0,0,1,.12,1.41Z"/><path class="cls-8" d="M207.75,235.94l2.08.35a3.38,3.38,0,0,1-1.26,1.74,3.73,3.73,0,0,1-2.17.6,3.54,3.54,0,0,1-3-1.34,4.51,4.51,0,0,1-.78-2.72,4.29,4.29,0,0,1,1-3.06,3.36,3.36,0,0,1,2.59-1.11,3.47,3.47,0,0,1,2.77,1.16,5.11,5.11,0,0,1,1,3.55h-5.22a2.12,2.12,0,0,0,.5,1.45,1.6,1.6,0,0,0,1.21.51,1.32,1.32,0,0,0,.82-.26A1.66,1.66,0,0,0,207.75,235.94Zm.12-2.1a2,2,0,0,0-.47-1.38,1.42,1.42,0,0,0-1.08-.47,1.47,1.47,0,0,0-1.13.5,1.92,1.92,0,0,0-.43,1.35Z"/><path class="cls-8" d="M210.91,236.2l2.09-.31a1.55,1.55,0,0,0,.54.92,1.82,1.82,0,0,0,1.14.31,2.06,2.06,0,0,0,1.22-.29.68.68,0,0,0,.27-.56.53.53,0,0,0-.15-.39,1.65,1.65,0,0,0-.69-.28,11.55,11.55,0,0,1-3.2-1,2,2,0,0,1-.93-1.78,2.18,2.18,0,0,1,.8-1.72,3.82,3.82,0,0,1,2.51-.69,4.36,4.36,0,0,1,2.4.52,2.68,2.68,0,0,1,1.09,1.56l-2,.36a1.18,1.18,0,0,0-.48-.7,1.76,1.76,0,0,0-1-.24,2.32,2.32,0,0,0-1.18.22.5.5,0,0,0-.24.43.47.47,0,0,0,.21.38,8.33,8.33,0,0,0,1.95.58,5.67,5.67,0,0,1,2.32.93,1.91,1.91,0,0,1,.65,1.55,2.38,2.38,0,0,1-.9,1.86,4,4,0,0,1-2.68.78,4.46,4.46,0,0,1-2.55-.65A3,3,0,0,1,210.91,236.2Z"/><path class="cls-8" d="M219.36,236.2l2.09-.31a1.55,1.55,0,0,0,.54.92,1.82,1.82,0,0,0,1.14.31,2.06,2.06,0,0,0,1.22-.29.68.68,0,0,0,.27-.56.53.53,0,0,0-.15-.39,1.65,1.65,0,0,0-.69-.28,11.43,11.43,0,0,1-3.2-1,2.05,2.05,0,0,1-.94-1.78,2.19,2.19,0,0,1,.81-1.72,3.82,3.82,0,0,1,2.51-.69,4.36,4.36,0,0,1,2.4.52,2.68,2.68,0,0,1,1.09,1.56l-2,.36a1.18,1.18,0,0,0-.48-.7,1.76,1.76,0,0,0-1-.24,2.32,2.32,0,0,0-1.18.22.5.5,0,0,0-.24.43.47.47,0,0,0,.21.38,8.33,8.33,0,0,0,2,.58,5.67,5.67,0,0,1,2.32.93,1.91,1.91,0,0,1,.65,1.55,2.38,2.38,0,0,1-.9,1.86,4,4,0,0,1-2.68.78,4.46,4.46,0,0,1-2.55-.65A3,3,0,0,1,219.36,236.2Z"/><path class="cls-8" d="M25.2,259.08a2.2,2.2,0,1,1-4.39,0,2.19,2.19,0,0,1,2.2-2.19,2.2,2.2,0,0,1,2.19,2.19Z"/><path class="cls-8" d="M37.93,260.45l2.12.68a4.78,4.78,0,0,1-8.07,2,5.68,5.68,0,0,1-1.4-4.05,6,6,0,0,1,1.4-4.22,4.83,4.83,0,0,1,3.69-1.5,4.5,4.5,0,0,1,3.24,1.18,4.29,4.29,0,0,1,1.12,2l-2.18.52a2.24,2.24,0,0,0-2.29-1.82,2.46,2.46,0,0,0-2,.87,4.2,4.2,0,0,0-.76,2.81,4.55,4.55,0,0,0,.75,2.94,2.39,2.39,0,0,0,1.92.87A2.16,2.16,0,0,0,37,262.2,3.26,3.26,0,0,0,37.93,260.45Z"/><path class="cls-8" d="M44,253.58v4a3.07,3.07,0,0,1,2.41-1.18,3.21,3.21,0,0,1,1.3.26,2.06,2.06,0,0,1,.87.69,2.31,2.31,0,0,1,.4.92,8.19,8.19,0,0,1,.11,1.56v4.62H47v-4.16a6.09,6.09,0,0,0-.12-1.57,1,1,0,0,0-.42-.53,1.35,1.35,0,0,0-.75-.2,1.8,1.8,0,0,0-.93.25,1.53,1.53,0,0,0-.6.76,4.46,4.46,0,0,0-.19,1.51v3.94H41.92V253.58Z"/><path class="cls-8" d="M52.76,259l-1.89-.34a3,3,0,0,1,1.1-1.7,4.06,4.06,0,0,1,2.31-.54,5,5,0,0,1,2.08.33,2.05,2.05,0,0,1,1,.83,4.26,4.26,0,0,1,.28,1.87l0,2.43a8.21,8.21,0,0,0,.1,1.54,4.28,4.28,0,0,0,.37,1.05H56a6.25,6.25,0,0,1-.2-.61,2.55,2.55,0,0,0-.08-.25,3.52,3.52,0,0,1-1.14.78,3.32,3.32,0,0,1-1.3.26,2.66,2.66,0,0,1-1.91-.66,2.19,2.19,0,0,1-.7-1.67,2.27,2.27,0,0,1,.31-1.19,2.11,2.11,0,0,1,.9-.8,6.69,6.69,0,0,1,1.66-.49,10.87,10.87,0,0,0,2-.51v-.21a1.09,1.09,0,0,0-.29-.85,1.81,1.81,0,0,0-1.13-.26,1.42,1.42,0,0,0-.86.22A1.53,1.53,0,0,0,52.76,259Zm2.79,1.69c-.27.09-.69.19-1.27.32a3.66,3.66,0,0,0-1.13.36.88.88,0,0,0-.41.74,1,1,0,0,0,.33.75,1.09,1.09,0,0,0,.83.32,1.78,1.78,0,0,0,1.07-.37,1.29,1.29,0,0,0,.5-.69,4.43,4.43,0,0,0,.08-1Z"/><path class="cls-8" d="M66.82,264.45H64.74v-4a6.08,6.08,0,0,0-.14-1.65,1.16,1.16,0,0,0-.43-.58,1.23,1.23,0,0,0-.73-.21,1.66,1.66,0,0,0-1,.3,1.57,1.57,0,0,0-.59.78,7.1,7.1,0,0,0-.16,1.81v3.57H59.64v-7.88h1.93v1.16a3.16,3.16,0,0,1,2.6-1.33,3,3,0,0,1,1.26.25,2.09,2.09,0,0,1,.87.63,2.3,2.3,0,0,1,.4.87,6.34,6.34,0,0,1,.12,1.41Z"/><path class="cls-8" d="M68.74,265l2.38.29a.78.78,0,0,0,.28.57,1.53,1.53,0,0,0,.93.23,2.49,2.49,0,0,0,1.23-.25,1,1,0,0,0,.41-.53,2.91,2.91,0,0,0,.1-.95v-1.15a2.83,2.83,0,0,1-2.36,1.27,2.9,2.9,0,0,1-2.52-1.34,4.61,4.61,0,0,1-.72-2.64,4.34,4.34,0,0,1,1-3,3.07,3.07,0,0,1,2.37-1,2.87,2.87,0,0,1,2.41,1.28v-1.11h2v7.07a6.86,6.86,0,0,1-.23,2.09,2.59,2.59,0,0,1-.64,1.08,3,3,0,0,1-1.11.62,5.81,5.81,0,0,1-1.76.22,4.53,4.53,0,0,1-2.84-.69,2.13,2.13,0,0,1-.84-1.74C68.73,265.15,68.74,265.07,68.74,265Zm1.86-4.62a2.81,2.81,0,0,0,.49,1.84,1.52,1.52,0,0,0,1.2.58,1.65,1.65,0,0,0,1.29-.6,2.62,2.62,0,0,0,.52-1.77,2.76,2.76,0,0,0-.5-1.82,1.62,1.62,0,0,0-1.28-.59,1.54,1.54,0,0,0-1.23.58A2.7,2.7,0,0,0,70.6,260.35Z"/><path class="cls-8" d="M82.78,261.94l2.07.35A3.33,3.33,0,0,1,83.59,264a3.72,3.72,0,0,1-2.16.6,3.52,3.52,0,0,1-3-1.34,4.51,4.51,0,0,1-.78-2.72,4.33,4.33,0,0,1,1-3.06,3.37,3.37,0,0,1,2.59-1.11A3.46,3.46,0,0,1,84,257.56a5.16,5.16,0,0,1,1,3.55H79.74a2.17,2.17,0,0,0,.51,1.45,1.58,1.58,0,0,0,1.2.51,1.3,1.3,0,0,0,.82-.26A1.74,1.74,0,0,0,82.78,261.94Zm.12-2.1a2.08,2.08,0,0,0-.47-1.38,1.46,1.46,0,0,0-1.09-.47,1.44,1.44,0,0,0-1.12.5,1.88,1.88,0,0,0-.44,1.35Z"/><path class="cls-8" d="M94.5,256.57v1.67H93.07v3.17a9.29,9.29,0,0,0,0,1.12.47.47,0,0,0,.19.27.58.58,0,0,0,.35.1,2.56,2.56,0,0,0,.84-.2l.18,1.62a4.11,4.11,0,0,1-1.65.31,2.53,2.53,0,0,1-1-.19,1.48,1.48,0,0,1-.67-.49,1.88,1.88,0,0,1-.29-.81,9.18,9.18,0,0,1-.07-1.47v-3.43H90v-1.67h1V255l2.09-1.22v2.78Z"/><path class="cls-8" d="M98,253.58v4a3.07,3.07,0,0,1,2.41-1.18,3.21,3.21,0,0,1,1.3.26,2.06,2.06,0,0,1,.87.69,2.31,2.31,0,0,1,.4.92,8.19,8.19,0,0,1,.11,1.56v4.62H101v-4.16a6.09,6.09,0,0,0-.12-1.57,1,1,0,0,0-.42-.53,1.35,1.35,0,0,0-.75-.2,1.8,1.8,0,0,0-.93.25,1.53,1.53,0,0,0-.6.76,4.46,4.46,0,0,0-.19,1.51v3.94H95.94V253.58Z"/><path class="cls-8" d="M109.79,261.94l2.07.35A3.28,3.28,0,0,1,110.6,264a3.72,3.72,0,0,1-2.16.6,3.52,3.52,0,0,1-3-1.34,4.51,4.51,0,0,1-.78-2.72,4.33,4.33,0,0,1,1-3.06,3.37,3.37,0,0,1,2.59-1.11,3.46,3.46,0,0,1,2.77,1.16,5.16,5.16,0,0,1,1,3.55h-5.23a2.17,2.17,0,0,0,.51,1.45,1.58,1.58,0,0,0,1.2.51,1.3,1.3,0,0,0,.82-.26A1.67,1.67,0,0,0,109.79,261.94Zm.12-2.1a2.08,2.08,0,0,0-.47-1.38,1.5,1.5,0,0,0-2.21,0,1.88,1.88,0,0,0-.44,1.35Z"/><path class="cls-8" d="M117.91,264.45V253.58h3.52a12.69,12.69,0,0,1,2.61.16,2.81,2.81,0,0,1,1.57,1.07,3.35,3.35,0,0,1,.63,2.11,3.61,3.61,0,0,1-.36,1.69,3.09,3.09,0,0,1-2.07,1.58,11.84,11.84,0,0,1-2.27.16h-1.43v4.1Zm2.2-9v3.08h1.2a5.46,5.46,0,0,0,1.73-.17,1.42,1.42,0,0,0,.69-.53,1.56,1.56,0,0,0-.1-1.83,1.59,1.59,0,0,0-.88-.48,10.75,10.75,0,0,0-1.58-.07Z"/><path class="cls-8" d="M127.55,260.4a4.29,4.29,0,0,1,.51-2,3.45,3.45,0,0,1,1.45-1.48,4.28,4.28,0,0,1,2.09-.51,3.89,3.89,0,0,1,2.93,1.16,4,4,0,0,1,1.15,2.93,4,4,0,0,1-1.16,3,3.87,3.87,0,0,1-2.9,1.18,4.57,4.57,0,0,1-2.07-.49,3.38,3.38,0,0,1-1.49-1.43A4.84,4.84,0,0,1,127.55,260.4Zm2.13.11a2.62,2.62,0,0,0,.56,1.8,1.82,1.82,0,0,0,2.74,0,2.65,2.65,0,0,0,.55-1.81,2.58,2.58,0,0,0-.55-1.78,1.82,1.82,0,0,0-2.74,0A2.59,2.59,0,0,0,129.68,260.51Z"/><path class="cls-8" d="M137.31,264.45V253.58h2.08v10.87Z"/><path class="cls-8" d="M141.53,255.51v-1.93h2.08v1.93Zm0,8.94v-7.88h2.08v7.88Z"/><path class="cls-8" d="M152.62,258.9l-2.05.37a1.46,1.46,0,0,0-.48-.92,1.39,1.39,0,0,0-1-.31,1.57,1.57,0,0,0-1.24.53,2.76,2.76,0,0,0-.47,1.8,3.12,3.12,0,0,0,.48,2,1.52,1.52,0,0,0,1.26.58,1.37,1.37,0,0,0,1-.34,2.06,2.06,0,0,0,.54-1.16l2,.35a3.64,3.64,0,0,1-1.22,2.13,3.78,3.78,0,0,1-2.43.72,3.58,3.58,0,0,1-2.75-1.09,5,5,0,0,1,0-6.06,3.68,3.68,0,0,1,2.79-1.08,3.77,3.77,0,0,1,2.29.62A3.41,3.41,0,0,1,152.62,258.9Z"/><path class="cls-8" d="M153.21,256.57h2.22l1.89,5.6,1.84-5.6h2.15l-2.78,7.59-.49,1.37a5.59,5.59,0,0,1-.53,1.05,2.14,2.14,0,0,1-.57.59,2.39,2.39,0,0,1-.79.35,3.92,3.92,0,0,1-1.07.13,5.2,5.2,0,0,1-1.18-.13l-.18-1.63a4.16,4.16,0,0,0,.88.1,1.31,1.31,0,0,0,1.08-.43,3,3,0,0,0,.53-1.08Z"/><path class="cls-8" d="M25.2,285.08a2.2,2.2,0,1,1-4.39,0,2.19,2.19,0,0,1,2.2-2.19,2.2,2.2,0,0,1,2.19,2.19Z"/><path class="cls-8" d="M30.9,290.45V279.58h2.2v10.87Z"/><path class="cls-8" d="M42.34,290.45H40.25v-4a6.22,6.22,0,0,0-.13-1.65,1.16,1.16,0,0,0-.43-.58A1.23,1.23,0,0,0,39,284a1.66,1.66,0,0,0-1,.3,1.57,1.57,0,0,0-.59.78,7.1,7.1,0,0,0-.16,1.81v3.57H35.16v-7.88h1.93v1.16a3.16,3.16,0,0,1,2.6-1.33,3,3,0,0,1,1.26.25,2.09,2.09,0,0,1,.87.63,2.3,2.3,0,0,1,.4.87,6.34,6.34,0,0,1,.12,1.41Z"/><path class="cls-8" d="M51.32,284.9l-2,.37a1.51,1.51,0,0,0-.47-.92,1.44,1.44,0,0,0-1-.31,1.57,1.57,0,0,0-1.24.53,2.76,2.76,0,0,0-.46,1.8,3.13,3.13,0,0,0,.47,2,1.52,1.52,0,0,0,1.26.58,1.37,1.37,0,0,0,1-.34,1.94,1.94,0,0,0,.54-1.16l2,.35a3.65,3.65,0,0,1-1.23,2.13,3.77,3.77,0,0,1-2.42.72A3.6,3.6,0,0,1,45,289.54a5,5,0,0,1,0-6.06,3.68,3.68,0,0,1,2.79-1.08,3.75,3.75,0,0,1,2.29.62A3.36,3.36,0,0,1,51.32,284.9Z"/><path class="cls-8" d="M54.9,290.45H52.81v-7.88h1.94v1.12a3.51,3.51,0,0,1,.89-1,1.66,1.66,0,0,1,.91-.25,2.67,2.67,0,0,1,1.37.39l-.65,1.82a1.81,1.81,0,0,0-1-.34,1.15,1.15,0,0,0-.74.24,1.69,1.69,0,0,0-.48.87A12.93,12.93,0,0,0,54.9,288Z"/><path class="cls-8" d="M63.38,287.94l2.08.35A3.34,3.34,0,0,1,64.19,290a3.72,3.72,0,0,1-2.16.6,3.52,3.52,0,0,1-3-1.34,4.51,4.51,0,0,1-.78-2.72,4.33,4.33,0,0,1,1-3.06,3.37,3.37,0,0,1,2.59-1.11,3.46,3.46,0,0,1,2.77,1.16,5.11,5.11,0,0,1,1,3.55H60.34a2.17,2.17,0,0,0,.51,1.45,1.58,1.58,0,0,0,1.2.51,1.3,1.3,0,0,0,.82-.26A1.67,1.67,0,0,0,63.38,287.94Zm.12-2.1a2,2,0,0,0-.47-1.38,1.5,1.5,0,0,0-2.21,0,1.93,1.93,0,0,0-.44,1.35Z"/><path class="cls-8" d="M68.82,285l-1.89-.34a3,3,0,0,1,1.1-1.7,4.06,4.06,0,0,1,2.31-.54,5,5,0,0,1,2.08.33,2.05,2.05,0,0,1,1,.83,4.26,4.26,0,0,1,.28,1.87l0,2.43a8.21,8.21,0,0,0,.1,1.54,4.28,4.28,0,0,0,.37,1.05H72.05c0-.14-.12-.34-.2-.61s-.06-.21-.07-.25a3.67,3.67,0,0,1-1.15.78,3.32,3.32,0,0,1-1.3.26,2.66,2.66,0,0,1-1.91-.66,2.19,2.19,0,0,1-.7-1.67,2.27,2.27,0,0,1,.31-1.19,2.11,2.11,0,0,1,.9-.8,6.69,6.69,0,0,1,1.66-.49,10.87,10.87,0,0,0,2-.51v-.21a1.09,1.09,0,0,0-.29-.85A1.8,1.8,0,0,0,70.2,284a1.43,1.43,0,0,0-.87.22A1.53,1.53,0,0,0,68.82,285Zm2.79,1.69c-.27.09-.69.19-1.27.32a3.66,3.66,0,0,0-1.13.36.88.88,0,0,0-.41.74,1,1,0,0,0,.33.75,1.09,1.09,0,0,0,.83.32,1.78,1.78,0,0,0,1.07-.37,1.29,1.29,0,0,0,.5-.69,4.43,4.43,0,0,0,.08-1Z"/><path class="cls-8" d="M75,288.2l2.09-.31a1.55,1.55,0,0,0,.54.92,1.87,1.87,0,0,0,1.15.31,2,2,0,0,0,1.21-.29.66.66,0,0,0,.28-.56.53.53,0,0,0-.15-.39,1.78,1.78,0,0,0-.7-.28,11.55,11.55,0,0,1-3.2-1,2,2,0,0,1-.93-1.78,2.19,2.19,0,0,1,.81-1.72,3.8,3.8,0,0,1,2.51-.69,4.41,4.41,0,0,1,2.4.52,2.71,2.71,0,0,1,1.08,1.56l-2,.36a1.27,1.27,0,0,0-.48-.7,1.8,1.8,0,0,0-1-.24,2.32,2.32,0,0,0-1.18.22.49.49,0,0,0-.23.43.46.46,0,0,0,.2.38,8.33,8.33,0,0,0,2,.58,5.73,5.73,0,0,1,2.33.93,1.94,1.94,0,0,1,.65,1.55,2.36,2.36,0,0,1-.91,1.86,4,4,0,0,1-2.67.78,4.41,4.41,0,0,1-2.55-.65A3,3,0,0,1,75,288.2Z"/><path class="cls-8" d="M84.16,281.51v-1.93h2.09v1.93Zm0,8.94v-7.88h2.09v7.88Z"/><path class="cls-8" d="M95.55,290.45H93.47v-4a6.08,6.08,0,0,0-.14-1.65,1.16,1.16,0,0,0-.43-.58,1.22,1.22,0,0,0-.72-.21,1.67,1.67,0,0,0-1,.3,1.57,1.57,0,0,0-.59.78,7.1,7.1,0,0,0-.16,1.81v3.57H88.37v-7.88h1.94v1.16a3.13,3.13,0,0,1,2.59-1.33,3,3,0,0,1,1.26.25,2.09,2.09,0,0,1,.87.63,2.49,2.49,0,0,1,.41.87,7.15,7.15,0,0,1,.11,1.41Z"/><path class="cls-8" d="M97.47,291l2.38.29a.78.78,0,0,0,.28.57,1.55,1.55,0,0,0,.93.23,2.49,2.49,0,0,0,1.23-.25,1,1,0,0,0,.41-.53,2.91,2.91,0,0,0,.1-.95v-1.15a2.81,2.81,0,0,1-2.36,1.27,2.87,2.87,0,0,1-2.51-1.34,4.54,4.54,0,0,1-.73-2.64,4.38,4.38,0,0,1,1-3,3.07,3.07,0,0,1,2.37-1,2.86,2.86,0,0,1,2.41,1.28v-1.11h1.95v7.07a6.86,6.86,0,0,1-.23,2.09,2.59,2.59,0,0,1-.64,1.08,3,3,0,0,1-1.11.62,5.81,5.81,0,0,1-1.76.22A4.53,4.53,0,0,1,98.3,293a2.12,2.12,0,0,1-.83-1.74Zm1.86-4.62a2.87,2.87,0,0,0,.49,1.84,1.52,1.52,0,0,0,1.2.58,1.65,1.65,0,0,0,1.29-.6,2.62,2.62,0,0,0,.53-1.77,2.76,2.76,0,0,0-.51-1.82,1.6,1.6,0,0,0-1.27-.59,1.56,1.56,0,0,0-1.24.58A2.76,2.76,0,0,0,99.33,286.35Z"/><path class="cls-8" d="M120.42,290.45H118l-1-2.47h-4.35l-.9,2.47h-2.33l4.24-10.87h2.32Zm-4-4.3-1.5-4-1.47,4Z"/><path class="cls-8" d="M125.19,282.57v1.67h-1.43v3.17a9.29,9.29,0,0,0,0,1.12.47.47,0,0,0,.19.27.58.58,0,0,0,.35.1,2.56,2.56,0,0,0,.84-.2l.18,1.62a4.15,4.15,0,0,1-1.65.31,2.61,2.61,0,0,1-1-.19A1.51,1.51,0,0,1,122,290a1.88,1.88,0,0,1-.29-.81,9.18,9.18,0,0,1-.07-1.47v-3.43h-1v-1.67h1V281l2.09-1.22v2.78Z"/><path class="cls-8" d="M130.25,282.57v1.67h-1.43v3.17a9.29,9.29,0,0,0,0,1.12.47.47,0,0,0,.19.27.56.56,0,0,0,.35.1,2.56,2.56,0,0,0,.84-.2l.18,1.62a4.15,4.15,0,0,1-1.65.31,2.58,2.58,0,0,1-1-.19,1.51,1.51,0,0,1-.66-.49,1.88,1.88,0,0,1-.29-.81,9.18,9.18,0,0,1-.07-1.47v-3.43h-1v-1.67h1V281l2.09-1.22v2.78Z"/><path class="cls-8" d="M136.26,287.94l2.07.35a3.33,3.33,0,0,1-1.26,1.74,3.72,3.72,0,0,1-2.16.6,3.54,3.54,0,0,1-3-1.34,4.51,4.51,0,0,1-.78-2.72,4.34,4.34,0,0,1,1-3.06,3.36,3.36,0,0,1,2.59-1.11,3.47,3.47,0,0,1,2.77,1.16,5.11,5.11,0,0,1,1,3.55h-5.22a2.12,2.12,0,0,0,.51,1.45,1.58,1.58,0,0,0,1.2.51,1.32,1.32,0,0,0,.82-.26A1.74,1.74,0,0,0,136.26,287.94Zm.11-2.1a2,2,0,0,0-.46-1.38,1.46,1.46,0,0,0-1.09-.47,1.44,1.44,0,0,0-1.12.5,1.88,1.88,0,0,0-.44,1.35Z"/><path class="cls-8" d="M147.31,290.45h-2.09v-4a6.22,6.22,0,0,0-.13-1.65,1.16,1.16,0,0,0-.43-.58,1.23,1.23,0,0,0-.73-.21,1.66,1.66,0,0,0-1,.3,1.52,1.52,0,0,0-.59.78,7.1,7.1,0,0,0-.16,1.81v3.57h-2.08v-7.88h1.93v1.16a3.16,3.16,0,0,1,2.6-1.33,3,3,0,0,1,1.26.25,2.09,2.09,0,0,1,.87.63,2.3,2.3,0,0,1,.4.87,6.34,6.34,0,0,1,.12,1.41Z"/><path class="cls-8" d="M153,282.57v1.67h-1.43v3.17a7.41,7.41,0,0,0,0,1.12.47.47,0,0,0,.19.27.56.56,0,0,0,.35.1,2.56,2.56,0,0,0,.84-.2l.18,1.62a4.15,4.15,0,0,1-1.65.31,2.54,2.54,0,0,1-1-.19,1.51,1.51,0,0,1-.66-.49,1.88,1.88,0,0,1-.29-.81,9.18,9.18,0,0,1-.07-1.47v-3.43h-1v-1.67h1V281l2.09-1.22v2.78Z"/><path class="cls-8" d="M154.48,281.51v-1.93h2.09v1.93Zm0,8.94v-7.88h2.09v7.88Z"/><path class="cls-8" d="M158.22,286.4a4.29,4.29,0,0,1,.51-2,3.51,3.51,0,0,1,1.45-1.48,4.35,4.35,0,0,1,2.1-.51,3.91,3.91,0,0,1,2.93,1.16,4.36,4.36,0,0,1,0,5.89,3.89,3.89,0,0,1-2.91,1.18,4.49,4.49,0,0,1-2.06-.49,3.35,3.35,0,0,1-1.5-1.43A4.84,4.84,0,0,1,158.22,286.4Zm2.14.11a2.62,2.62,0,0,0,.55,1.8,1.79,1.79,0,0,0,1.38.62,1.75,1.75,0,0,0,1.36-.62,2.65,2.65,0,0,0,.56-1.81,2.58,2.58,0,0,0-.56-1.78,1.72,1.72,0,0,0-1.36-.62,1.76,1.76,0,0,0-1.38.62A2.59,2.59,0,0,0,160.36,286.51Z"/><path class="cls-8" d="M175.15,290.45h-2.09v-4a6.22,6.22,0,0,0-.13-1.65,1.16,1.16,0,0,0-.43-.58,1.23,1.23,0,0,0-.73-.21,1.66,1.66,0,0,0-1,.3,1.57,1.57,0,0,0-.59.78,7.1,7.1,0,0,0-.16,1.81v3.57H168v-7.88h1.93v1.16a3.16,3.16,0,0,1,2.6-1.33,3,3,0,0,1,1.26.25,2.09,2.09,0,0,1,.87.63,2.3,2.3,0,0,1,.4.87,6.34,6.34,0,0,1,.12,1.41Z"/><path class="cls-8" d="M183,285l-1.89-.34a3,3,0,0,1,1.1-1.7,4.06,4.06,0,0,1,2.31-.54,5,5,0,0,1,2.08.33,2.05,2.05,0,0,1,1,.83,4.26,4.26,0,0,1,.28,1.87l0,2.43a8.21,8.21,0,0,0,.1,1.54,4.28,4.28,0,0,0,.37,1.05h-2.06c-.05-.14-.12-.34-.2-.61a2.55,2.55,0,0,0-.08-.25,3.52,3.52,0,0,1-1.14.78,3.32,3.32,0,0,1-1.3.26,2.66,2.66,0,0,1-1.91-.66,2.19,2.19,0,0,1-.7-1.67,2.27,2.27,0,0,1,.31-1.19,2.11,2.11,0,0,1,.9-.8,6.69,6.69,0,0,1,1.66-.49,10.87,10.87,0,0,0,2-.51v-.21a1.09,1.09,0,0,0-.29-.85,1.81,1.81,0,0,0-1.13-.26,1.42,1.42,0,0,0-.86.22A1.53,1.53,0,0,0,183,285Zm2.79,1.69c-.27.09-.69.19-1.27.32a3.66,3.66,0,0,0-1.13.36.88.88,0,0,0-.41.74,1,1,0,0,0,.33.75,1.09,1.09,0,0,0,.83.32,1.78,1.78,0,0,0,1.07-.37,1.29,1.29,0,0,0,.5-.69,4.43,4.43,0,0,0,.08-1Z"/><path class="cls-8" d="M197.1,290.45H195v-4a6.08,6.08,0,0,0-.14-1.65,1.16,1.16,0,0,0-.43-.58,1.23,1.23,0,0,0-.73-.21,1.66,1.66,0,0,0-1,.3,1.57,1.57,0,0,0-.59.78,7.1,7.1,0,0,0-.16,1.81v3.57h-2.08v-7.88h1.94v1.16a3.13,3.13,0,0,1,2.59-1.33,3,3,0,0,1,1.26.25,2.09,2.09,0,0,1,.87.63,2.49,2.49,0,0,1,.41.87,7.15,7.15,0,0,1,.11,1.41Z"/><path class="cls-8" d="M206.44,290.45H204.5V289.3a3.09,3.09,0,0,1-1.14,1,2.87,2.87,0,0,1-1.32.33,3,3,0,0,1-2.32-1.09,4.44,4.44,0,0,1-1-3.06,4.38,4.38,0,0,1,.94-3,3.05,3.05,0,0,1,2.38-1,3,3,0,0,1,2.29,1.09v-3.91h2.08Zm-5.56-4.11a3.68,3.68,0,0,0,.34,1.83,1.59,1.59,0,0,0,1.41.81,1.54,1.54,0,0,0,1.23-.61,2.87,2.87,0,0,0,.5-1.83,3.07,3.07,0,0,0-.49-2,1.53,1.53,0,0,0-1.25-.6,1.56,1.56,0,0,0-1.24.59A2.62,2.62,0,0,0,200.88,286.34Z"/><path class="cls-8" d="M212.73,290.45V279.58h3.52a12.87,12.87,0,0,1,2.62.16,2.82,2.82,0,0,1,1.56,1.07,3.35,3.35,0,0,1,.63,2.11,3.61,3.61,0,0,1-.36,1.69,3,3,0,0,1-.93,1.07,3.07,3.07,0,0,1-1.13.51,12,12,0,0,1-2.28.16h-1.43v4.1Zm2.2-9v3.08h1.2a5.46,5.46,0,0,0,1.73-.17,1.42,1.42,0,0,0,.69-.53,1.56,1.56,0,0,0-.1-1.83,1.59,1.59,0,0,0-.88-.48,10.75,10.75,0,0,0-1.58-.07Z"/><path class="cls-8" d="M224.41,285l-1.89-.34a3,3,0,0,1,1.09-1.7,4.08,4.08,0,0,1,2.32-.54,4.94,4.94,0,0,1,2.07.33,2.13,2.13,0,0,1,1,.83,4.46,4.46,0,0,1,.27,1.87l0,2.43a8.21,8.21,0,0,0,.1,1.54,4.34,4.34,0,0,0,.38,1.05h-2.07c0-.14-.12-.34-.2-.61s-.06-.21-.07-.25a3.74,3.74,0,0,1-1.14.78,3.35,3.35,0,0,1-1.3.26A2.7,2.7,0,0,1,223,290a2.19,2.19,0,0,1-.7-1.67,2.28,2.28,0,0,1,.32-1.19,2,2,0,0,1,.89-.8,7,7,0,0,1,1.66-.49,11,11,0,0,0,2-.51v-.21a1.06,1.06,0,0,0-.3-.85,1.78,1.78,0,0,0-1.12-.26,1.47,1.47,0,0,0-.87.22A1.52,1.52,0,0,0,224.41,285Zm2.79,1.69c-.27.09-.69.19-1.27.32a3.75,3.75,0,0,0-1.14.36.88.88,0,0,0-.41.74,1,1,0,0,0,.33.75,1.12,1.12,0,0,0,.83.32,1.79,1.79,0,0,0,1.08-.37,1.27,1.27,0,0,0,.49-.69,3.79,3.79,0,0,0,.09-1Z"/><path class="cls-8" d="M233.29,290.45h-2.08v-7.88h1.94v1.12a3.51,3.51,0,0,1,.89-1,1.6,1.6,0,0,1,.9-.25,2.64,2.64,0,0,1,1.37.39l-.64,1.82a1.81,1.81,0,0,0-1-.34,1.15,1.15,0,0,0-.74.24,1.56,1.56,0,0,0-.48.87,12,12,0,0,0-.18,2.64Z"/><path class="cls-8" d="M240.82,282.57v1.67H239.4v3.17a7.41,7.41,0,0,0,0,1.12.47.47,0,0,0,.19.27.56.56,0,0,0,.35.1,2.56,2.56,0,0,0,.84-.2l.17,1.62a4.07,4.07,0,0,1-1.64.31,2.54,2.54,0,0,1-1-.19,1.51,1.51,0,0,1-.66-.49,2,2,0,0,1-.3-.81,11.2,11.2,0,0,1-.06-1.47v-3.43h-1v-1.67h1V281l2.09-1.22v2.78Z"/><path class="cls-8" d="M242.27,281.51v-1.93h2.08v1.93Zm0,8.94v-7.88h2.08v7.88Z"/><path class="cls-8" d="M253.36,284.9l-2.05.37a1.46,1.46,0,0,0-.48-.92,1.39,1.39,0,0,0-1-.31,1.57,1.57,0,0,0-1.24.53,2.76,2.76,0,0,0-.46,1.8,3.13,3.13,0,0,0,.47,2,1.52,1.52,0,0,0,1.26.58,1.37,1.37,0,0,0,1-.34,2,2,0,0,0,.54-1.16l2,.35a3.64,3.64,0,0,1-1.22,2.13,3.78,3.78,0,0,1-2.43.72,3.58,3.58,0,0,1-2.75-1.09,5,5,0,0,1,0-6.06,3.68,3.68,0,0,1,2.79-1.08,3.77,3.77,0,0,1,2.29.62A3.41,3.41,0,0,1,253.36,284.9Z"/><path class="cls-8" d="M254.94,281.51v-1.93H257v1.93Zm0,8.94v-7.88H257v7.88Z"/><path class="cls-8" d="M259.1,282.57h1.95v1.16a2.85,2.85,0,0,1,1-1,2.8,2.8,0,0,1,1.43-.37,3,3,0,0,1,2.33,1.07,4.36,4.36,0,0,1,1,3,4.47,4.47,0,0,1-1,3.07,3,3,0,0,1-2.33,1.09,2.73,2.73,0,0,1-1.19-.26,4,4,0,0,1-1.11-.89v4H259.1Zm2.06,3.81a3,3,0,0,0,.53,2A1.59,1.59,0,0,0,263,289a1.5,1.5,0,0,0,1.21-.59,2.92,2.92,0,0,0,.49-1.91,2.87,2.87,0,0,0-.5-1.84,1.53,1.53,0,0,0-1.23-.6,1.62,1.62,0,0,0-1.27.59A2.63,2.63,0,0,0,261.16,286.38Z"/><path class="cls-8" d="M270,285l-1.89-.34a3,3,0,0,1,1.1-1.7,4.06,4.06,0,0,1,2.31-.54,5,5,0,0,1,2.08.33,2.16,2.16,0,0,1,1,.83,4.42,4.42,0,0,1,.28,1.87l0,2.43a9.19,9.19,0,0,0,.1,1.54,4.81,4.81,0,0,0,.38,1.05h-2.06a6.25,6.25,0,0,1-.2-.61,2.55,2.55,0,0,0-.08-.25,3.52,3.52,0,0,1-1.14.78,3.35,3.35,0,0,1-1.3.26,2.7,2.7,0,0,1-1.92-.66,2.23,2.23,0,0,1-.7-1.67,2.28,2.28,0,0,1,.32-1.19,2,2,0,0,1,.9-.8,6.73,6.73,0,0,1,1.65-.49,11,11,0,0,0,2-.51v-.21a1.06,1.06,0,0,0-.3-.85,1.78,1.78,0,0,0-1.12-.26,1.47,1.47,0,0,0-.87.22A1.59,1.59,0,0,0,270,285Zm2.79,1.69c-.27.09-.69.19-1.27.32a3.56,3.56,0,0,0-1.13.36.86.86,0,0,0-.41.74,1,1,0,0,0,.32.75,1.12,1.12,0,0,0,.83.32,1.79,1.79,0,0,0,1.08-.37,1.34,1.34,0,0,0,.5-.69,4.43,4.43,0,0,0,.08-1Z"/><path class="cls-8" d="M280.5,282.57v1.67h-1.42v3.17a7.41,7.41,0,0,0,0,1.12.47.47,0,0,0,.19.27.56.56,0,0,0,.35.1,2.56,2.56,0,0,0,.84-.2l.18,1.62a4.15,4.15,0,0,1-1.65.31,2.54,2.54,0,0,1-1-.19,1.51,1.51,0,0,1-.66-.49,2,2,0,0,1-.3-.81,11.2,11.2,0,0,1-.06-1.47v-3.43h-1v-1.67h1V281l2.09-1.22v2.78Z"/><path class="cls-8" d="M282,281.51v-1.93H284v1.93Zm0,8.94v-7.88H284v7.88Z"/><path class="cls-8" d="M285.69,286.4a4.29,4.29,0,0,1,.51-2,3.51,3.51,0,0,1,1.45-1.48,4.35,4.35,0,0,1,2.1-.51,3.91,3.91,0,0,1,2.93,1.16,4.36,4.36,0,0,1,0,5.89,3.89,3.89,0,0,1-2.91,1.18,4.49,4.49,0,0,1-2.06-.49,3.35,3.35,0,0,1-1.5-1.43A4.84,4.84,0,0,1,285.69,286.4Zm2.14.11a2.62,2.62,0,0,0,.55,1.8,1.78,1.78,0,0,0,1.37.62,1.75,1.75,0,0,0,1.37-.62,2.65,2.65,0,0,0,.56-1.81,2.58,2.58,0,0,0-.56-1.78,1.72,1.72,0,0,0-1.37-.62,1.75,1.75,0,0,0-1.37.62A2.59,2.59,0,0,0,287.83,286.51Z"/><path class="cls-8" d="M302.62,290.45h-2.09v-4a6.22,6.22,0,0,0-.13-1.65,1.16,1.16,0,0,0-.43-.58,1.26,1.26,0,0,0-.73-.21,1.66,1.66,0,0,0-1,.3,1.52,1.52,0,0,0-.59.78,6.65,6.65,0,0,0-.16,1.81v3.57h-2.08v-7.88h1.93v1.16a3.16,3.16,0,0,1,2.6-1.33,3,3,0,0,1,1.26.25,2,2,0,0,1,.86.63,2.18,2.18,0,0,1,.41.87,6.34,6.34,0,0,1,.12,1.41Z"/></g></g></svg>