<svg xmlns="http://www.w3.org/2000/svg" viewBox="0 0 298.62 311.01"><defs><style>.cls-1{fill:#f5a117;}.cls-2,.cls-8{fill:#001d2f;}.cls-11,.cls-13,.cls-2,.cls-4{stroke:#001d2f;}.cls-11,.cls-12,.cls-13,.cls-14,.cls-15,.cls-2,.cls-4{stroke-linecap:round;stroke-linejoin:round;}.cls-15,.cls-2,.cls-4{stroke-width:1.04px;}.cls-3{fill:#fff;}.cls-11,.cls-12,.cls-13,.cls-14,.cls-15,.cls-4,.cls-9{fill:none;}.cls-5{fill:#c9caca;}.cls-6{fill:#e9506c;}.cls-7{fill:#2667b2;stroke:#2667b2;stroke-width:0.48px;}.cls-7,.cls-9{stroke-miterlimit:10;}.cls-12,.cls-14,.cls-15,.cls-9{stroke:#fff;}.cls-9{stroke-width:0.52px;}.cls-10{fill:#633a7c;}.cls-11,.cls-14{stroke-width:2.08px;}.cls-12,.cls-13{stroke-width:1.56px;}</style></defs><title>CTG-4</title><g id="Layer_2" data-name="Layer 2"><g id="圖層_1" data-name="圖層 1"><path class="cls-1" d="M124.57,43.8c-1,1-1.26.41-2.7.41s-1.45-.33-2.89-.33-1.44.25-2.89.25-1.44,0-2.88,0-1.45-.1-2.89-.1-1.44-.23-2.89-.23-1.44.13-2.88.13-1.44.18-2.88.18-1.45-.27-2.89-.27-1.44.24-2.89.24-1.44-.11-2.89-.11-1.44.29-2.88.29-1.45-.15-2.89-.15-1.45-.27-2.89-.27S82.9,44,81.45,44s-1.44-.08-2.89-.08-1.44.17-2.89.17-1.44.13-2.89.13-1.44-.32-2.89-.32-1.44.21-2.89.21-1.44.16-2.89.16S62.66,44,61.21,44s-1.73.91-2.76-.1,0-1.28,0-2.69.13-1.41.13-2.83-.18-1.41-.18-2.82-.16-1.42-.16-2.83-.08-1.41-.08-2.83-.07-1.41-.07-2.82.07-1.41.07-2.83.15-1.41.15-2.83.12-1.41.12-2.83-.17-1.41-.17-2.82.23-1.41.23-2.83,0-1.41,0-2.83,0-1.41,0-2.83-.36-1.41-.36-2.83-.88-1.95.13-2.94,1.54.26,3,.26,1.44-.16,2.88-.16,1.45-.21,2.89-.21,1.44.22,2.89.22h2.88c1.45,0,1.45.22,2.89.22s1.44-.45,2.88-.45,1.44,0,2.89,0,1.44.22,2.89.22,1.44.07,2.88.07,1.44,0,2.89,0,1.44-.16,2.89-.16,1.44,0,2.89,0,1.44-.09,2.88-.09,1.45.18,2.89.18,1.45-.09,2.89-.09,1.45.25,2.89.25h2.89c1.45,0,1.45.13,2.89.13s1.45-.38,2.89-.38H119c1.45,0,1.45.28,2.9.28s1.87-1.16,2.91-.15-.26,1.43-.26,2.84S125,5.8,125,7.21s-.46,1.42-.46,2.83,0,1.41,0,2.83,0,1.41,0,2.82.35,1.42.35,2.83.09,1.41.09,2.83-.49,1.41-.49,2.82S125,25.59,125,27s-.07,1.42-.07,2.83-.33,1.41-.33,2.83,0,1.41,0,2.83.41,1.41.41,2.82-.39,1.42-.14,2.82S125.58,42.81,124.57,43.8Z"/><rect class="cls-2" x="82.05" y="13.37" width="18.75" height="18.75"/><rect class="cls-3" x="84.9" y="16.3" width="5.82" height="5.8"/><rect class="cls-3" x="84.9" y="23.39" width="5.82" height="5.8"/><rect class="cls-3" x="92.12" y="16.3" width="5.82" height="5.8"/><rect class="cls-3" x="92.12" y="23.39" width="5.82" height="5.8"/><line class="cls-4" x1="101.16" y1="15.89" x2="105.38" y2="15.89"/><line class="cls-4" x1="101.16" y1="20.25" x2="105.38" y2="20.25"/><line class="cls-4" x1="101.16" y1="24.61" x2="105.38" y2="24.61"/><line class="cls-4" x1="101.16" y1="28.96" x2="105.38" y2="28.96"/><line class="cls-4" x1="77.65" y1="15.89" x2="81.88" y2="15.89"/><line class="cls-4" x1="77.65" y1="20.25" x2="81.88" y2="20.25"/><line class="cls-4" x1="77.65" y1="24.61" x2="81.88" y2="24.61"/><line class="cls-4" x1="77.65" y1="28.96" x2="81.88" y2="28.96"/><line class="cls-4" x1="97.92" y1="8.69" x2="97.92" y2="12.92"/><line class="cls-4" x1="93.56" y1="8.69" x2="93.56" y2="12.92"/><line class="cls-4" x1="89.21" y1="8.69" x2="89.21" y2="12.92"/><line class="cls-4" x1="84.85" y1="8.69" x2="84.85" y2="12.92"/><line class="cls-4" x1="97.92" y1="32.59" x2="97.92" y2="36.82"/><line class="cls-4" x1="93.56" y1="32.59" x2="93.56" y2="36.82"/><line class="cls-4" x1="89.21" y1="32.59" x2="89.21" y2="36.82"/><line class="cls-4" x1="84.85" y1="32.59" x2="84.85" y2="36.82"/><path class="cls-3" d="M235,110.77c-1,1-1.37.12-2.81.12s-1.44-.13-2.88-.13-1.45.06-2.89.06-1.44,0-2.88,0-1.44.18-2.89.18-1.44.1-2.88.1-1.44-.11-2.88-.11-1.44-.26-2.88-.26-1.44.12-2.89.12-1.44-.16-2.88-.16-1.44.19-2.88.19-1.45.19-2.89.19-1.44-.28-2.88-.28-1.44.13-2.89.13-1.44.17-2.88.17-1.44-.49-2.89-.49-1.44.51-2.88.51-1.44-.26-2.89-.26-1.44.21-2.88.21-1.44-.37-2.88-.37-1.45.42-2.89.42-1.44-.44-2.89-.44-1.44.31-2.88.31-1.44-.19-2.89-.19-1.44.17-2.88.17-1.44-.14-2.89-.14-1.44-.14-2.88-.14-1.44.43-2.88.43-1.44-.24-2.89-.24-1.44.06-2.88.06-1.44-.26-2.89-.26-1.44.13-2.88.13-1.45,0-2.89,0-1.44,0-2.88,0h-2.89c-1.45,0-1.45-.1-2.89-.1s-1.45.22-2.89.22-1.44-.08-2.89-.08-1.44.14-2.88.14h-2.89c-1.45,0-1.45.07-2.89.07h-2.9c-1.44,0-1.75.71-2.77-.32s-.37-1.32-.37-2.77.17-1.45.17-2.9.24-1.45.24-2.9-.34-1.45-.34-2.91.07-1.45.07-2.9,0-1.45,0-2.9.07-1.45.07-2.9-.09-1.45-.09-2.9,0-1.45,0-2.9,0-1.45,0-2.9.28-1.45.28-2.9-.23-1.45-.23-2.9.28-1.45.28-2.91-.38-1.45-.38-2.9.11-1.45.11-2.9.11-1.45.11-2.9-.07-1.45-.07-2.89.2-1.45.2-2.9,0-1.46,0-2.91-.37-1.45-.37-2.9.24-1.45.24-2.9-.18-1.45-.18-2.9.37-1.45.37-2.9-.48-1.46-.48-2.91.28-1.45.28-2.9-.09-1.45-.09-2.91,0-1.45,0-2.9-.15-1.45-.15-2.9.15-1.45.15-2.91.07-1.45.07-2.9-.18-1.45-.18-2.91-.12-1.45-.12-2.91-.86-1.92.16-2.95,1.49.13,2.93.13,1.44,0,2.88,0,1.44.06,2.89.06,1.44-.14,2.88-.14,1.44.07,2.88.07,1.44-.11,2.88-.11,1.45-.12,2.89-.12,1.44.11,2.88.11,1.44.11,2.88.11,1.45-.16,2.89-.16,1.44.07,2.88.07,1.44.23,2.89.23,1.44-.2,2.88-.2,1.44.19,2.89.19,1.44-.29,2.88-.29h2.88c1.45,0,1.45.38,2.89.38s1.44-.41,2.88-.41,1.45-.07,2.89-.07l2.88,0c1.45,0,1.45.3,2.89.3s1.44.09,2.88.09,1.45-.43,2.89-.43,1.44.16,2.88.16,1.45.24,2.89.24S184.51,15,186,15s1.44.07,2.88.07,1.45-.19,2.89-.19,1.44.05,2.88.05,1.45.21,2.89.21,1.44,0,2.88,0,1.45-.23,2.89-.23,1.44.39,2.89.39,1.44-.16,2.88-.16,1.45.21,2.89.21,1.44,0,2.89,0,1.44-.12,2.89-.12,1.44-.13,2.88-.13,1.45.27,2.89.27,1.45-.35,2.89-.35,1.45.25,2.89.25,1.45-.26,2.9-.26S234,14,235.06,15s-.12,1.47-.12,2.92.1,1.45.1,2.9-.09,1.45-.09,2.9-.06,1.45-.06,2.9,0,1.45,0,2.9.34,1.45.34,2.9-.09,1.45-.09,2.9.11,1.45.11,2.9-.28,1.45-.28,2.91.24,1.45.24,2.9,0,1.45,0,2.9-.23,1.45-.23,2.9.29,1.45.29,2.9-.27,1.45-.27,2.9,0,1.45,0,2.9,0,1.45,0,2.9,0,1.45,0,2.9.34,1.45.34,2.9,0,1.45,0,2.9-.23,1.45-.23,2.9-.19,1.45-.19,2.91,0,1.45,0,2.9,0,1.45,0,2.9.06,1.45.06,2.9.05,1.45.05,2.91-.15,1.45-.15,2.9.07,1.45.07,2.91.32,1.45.32,2.9,0,1.45,0,2.9-.23,1.46-.23,2.91.09,1.45.09,2.9a9.62,9.62,0,0,0,.11,2.89C235.44,109.39,236,109.73,235,110.77Z"/><path class="cls-5" d="M228.06,105.44c-1,1-1.42-.09-2.87-.09s-1.44.08-2.89.08-1.45.12-2.9.12-1.45-.25-2.9-.25-1.45-.07-2.9-.07-1.44.27-2.89.27-1.45.09-2.9.09-1.45-.21-2.89-.21-1.45.28-2.9.28-1.45-.37-2.9-.37-1.45.25-2.9.25-1.45.17-2.9.17-1.45-.18-2.9-.18-1.44,0-2.89,0-1.45.09-2.9.09-1.45.07-2.9.07-1.45-.24-2.9-.24-1.45-.13-2.9-.13-1.45.19-2.9.19-1.45,0-2.9,0-1.44-.2-2.89-.2-1.45.49-2.9.49-1.45-.06-2.89-.06-1.45-.17-2.9-.17-1.45.08-2.9.08-1.45.13-2.9.13-1.45-.18-2.9-.18-1.45-.15-2.9-.15-1.45-.07-2.9-.07-1.45.4-2.9.4-1.45,0-2.9,0-1.45-.23-2.9-.23-1.45-.19-2.9-.19-1.45-.07-2.9-.07-1.46.31-2.91.31-1.45-.29-2.9-.29-1.45,0-2.91,0-1.7,1-2.74,0-.14-1.25-.14-2.67,0-1.41,0-2.83-.26-1.41-.26-2.83,0-1.42,0-2.83.09-1.42.09-2.84.16-1.41.16-2.83.08-1.42.08-2.83-.2-1.42-.2-2.84.33-1.41.33-2.83-.33-1.42-.33-2.83.2-1.42.2-2.84-.25-1.41-.25-2.83.12-1.42.12-2.83-.11-1.42-.11-2.83.29-1.42.29-2.83-.06-1.42-.06-2.84,0-1.41,0-2.83-.1-1.42-.1-2.84.19-1.41.19-2.83-.29-1.42-.29-2.83.32-1.42.32-2.84-.27-1.42-.27-2.83,0-1.42,0-2.84-.13-1.42-.13-2.84.08-1.42.08-2.83-.08-1.42-.08-2.84,0-1.42,0-2.84.47-1.42.47-2.83-.33-1.43-.33-2.85-1-1.91,0-2.91,1.51-.07,3-.07,1.45.37,2.89.37,1.45-.4,2.9-.4,1.45.23,2.9.23,1.45.2,2.9.2,1.45-.19,2.89-.19,1.45-.16,2.9-.16,1.45.16,2.9.16,1.45-.19,2.9-.19,1.45.2,2.89.2,1.45.16,2.9.16,1.45-.28,2.9-.28,1.45-.15,2.9-.15,1.45.32,2.9.32,1.44-.16,2.89-.16,1.45.29,2.9.29,1.45-.47,2.9-.47,1.45.24,2.9.24,1.45.08,2.9.08h2.9c1.45,0,1.45.09,2.89.09s1.45-.34,2.9-.34,1.45.17,2.9.17,1.45.24,2.9.24,1.44-.28,2.89-.28,1.45.06,2.9.06,1.45,0,2.9,0,1.45-.21,2.9-.21,1.45.15,2.9.15,1.45.24,2.9.24,1.45-.42,2.9-.42,1.45.09,2.91.09,1.45.12,2.89.12h2.91c1.45,0,1.45-.14,2.9-.14s1.45.38,2.9.38,1.46-.35,2.91-.35,1.95-1,3,.05-.34,1.51-.34,2.92.31,1.42.31,2.84-.14,1.41-.14,2.83.12,1.42.12,2.83S228,33.18,228,34.6s0,1.41,0,2.83.28,1.42.28,2.83-.07,1.42-.07,2.84-.3,1.41-.3,2.83.22,1.42.22,2.83.1,1.42.1,2.84.08,1.41.08,2.83-.36,1.42-.36,2.83.23,1.42.23,2.83,0,1.42,0,2.83-.13,1.42-.13,2.84,0,1.41,0,2.83.1,1.42.1,2.83.29,1.42.29,2.84,0,1.42,0,2.83-.4,1.42-.4,2.84.34,1.42.34,2.83,0,1.42,0,2.84-.39,1.42-.39,2.84.22,1.41.22,2.83v2.84c0,1.42-.14,1.42-.14,2.84s.3,1.41.3,2.83-.34,1.43,0,2.82S229.07,104.44,228.06,105.44Z"/><path class="cls-6" d="M262.28,26.68c-1,1-1.53,0-3,0s-1.44.18-2.89.18-1.44-.05-2.89-.05-1.44-.24-2.89-.24h-2.89c-1.44,0-1.44-.05-2.89-.05s-1.44.08-2.89.08-1.44.08-2.89.08-1.44-.08-2.89-.08-1.44.21-2.89.21-1.44-.34-2.89-.34-1.44,0-2.89,0-1.44.36-2.89.36h-2.89c-1.45,0-1.45-.29-2.89-.29s-1.45.2-2.89.2-1.45-.15-2.89-.15-1.45.13-2.89.13-1.45-.27-2.89-.27-1.44.06-2.89.06H201.5c-1.45,0-1.45,0-2.89,0s-1.45.27-2.89.27-1.45.07-2.89.07-1.45-.32-2.9-.32-1.44.15-2.89.15h-5.79c-1.44,0-1.44.08-2.89.08s-1.45-.13-2.89-.13-1.45.06-2.9.06-1.44-.15-2.89-.15-1.45.16-2.9.16-1.45-.22-2.9-.22-1.68.94-2.72-.06-.22-1.2-.22-2.58.24-1.39.24-2.77-.44-1.38-.44-2.77.3-1.38.3-2.76-.32-1.39-.32-2.77S161,11.37,161,10s-.09-1.39-.09-2.77.07-1.39.07-2.77-.89-1.69.11-2.65,1.33-.11,2.77-.11,1.45-.19,2.89-.19,1.45.05,2.89.05,1.45.21,2.89.21,1.45.15,2.89.15,1.45-.47,2.89-.47,1.45.06,2.89.06h2.89c1.45,0,1.45.19,2.89.19h2.89c1.45,0,1.45-.08,2.89-.08s1.45,0,2.89,0,1.45,0,2.9,0,1.44.21,2.89.21,1.44,0,2.89,0h2.89c1.44,0,1.44-.3,2.89-.3s1.44.36,2.89.36,1.44-.44,2.89-.44,1.44.21,2.88.21,1.45.09,2.9.09,1.44,0,2.89,0,1.44.16,2.89.16,1.44-.41,2.89-.41,1.45.45,2.89.45h2.89c1.45,0,1.45-.24,2.9-.24s1.45-.14,2.89-.14,1.45.06,2.9.06,1.44-.1,2.89-.1,1.45.19,2.89.19,1.45,0,2.9,0,1.44,0,2.89,0,1.45.31,2.9.31,1.79-1.17,2.84-.17.32,1.33.32,2.71V7.21c0,1.38-.08,1.38-.08,2.77s0,1.38,0,2.76.05,1.39.05,2.77-.45,1.38-.45,2.77.29,1.38.29,2.77-.29,1.4,0,2.75S263.28,25.72,262.28,26.68Z"/><rect class="cls-6" x="33.2" y="50.83" width="71.66" height="50.22" rx="6.07" ry="6.07"/><path class="cls-3" d="M81.06,74.86,61.57,63.61a1.27,1.27,0,0,0-1.25,0,1.24,1.24,0,0,0-.62,1.07V87.19a1.25,1.25,0,0,0,.62,1.08,1.3,1.3,0,0,0,1.25,0L81.06,77a1.24,1.24,0,0,0,0-2.15Z"/><path class="cls-3" d="M188.32,15.11c-.18-.2-4.48-4.94-9.89-4.94s-9.71,4.74-9.89,4.94a.22.22,0,0,0,0,.3c.18.2,4.48,4.94,9.89,4.94s9.71-4.74,9.89-4.94A.22.22,0,0,0,188.32,15.11Z"/><circle class="cls-7" cx="178.43" cy="15.26" r="3.95"/><path class="cls-8" d="M196.43,12.65h1.44l1.18,2,1.19-2h1.44l-2,3,2.1,3.15h-1.43l-1.28-2.06-1.27,2.06h-1.44l2-3.15Z"/><path class="cls-8" d="M207.87,11.47l-1.19.9V11.05l1.19-.89h1.2v8.66h-1.2Z"/><path class="cls-8" d="M212.54,17.58h1.2v1.24l-1.2.9Z"/><path class="cls-8" d="M215.39,12.57a2.35,2.35,0,0,1,.75-1.84,2.28,2.28,0,0,1,1.63-.64,2.36,2.36,0,0,1,1.67.64,2.48,2.48,0,0,1,.72,1.84v3.82a2.48,2.48,0,0,1-.72,1.84,2.42,2.42,0,0,1-1.67.66,2.41,2.41,0,0,1-2.38-2.49Zm3.57.08c0-.87-.42-1.31-1.19-1.33s-1.16.46-1.18,1.33v3.68c0,.87.41,1.32,1.18,1.32s1.16-.45,1.19-1.32Z"/><path class="cls-8" d="M221.54,12.57a2.36,2.36,0,0,1,2.37-2.48,2.34,2.34,0,0,1,1.67.64,2.48,2.48,0,0,1,.72,1.84v3.82a2.48,2.48,0,0,1-.72,1.84,2.4,2.4,0,0,1-1.67.66,2.36,2.36,0,0,1-1.63-.66,2.31,2.31,0,0,1-.74-1.83Zm3.56.08c0-.87-.42-1.31-1.19-1.33s-1.16.46-1.17,1.33v3.68c0,.87.4,1.32,1.17,1.32s1.17-.45,1.19-1.32Z"/><path class="cls-8" d="M227.68,12.57a2.35,2.35,0,0,1,.74-1.84,2.3,2.3,0,0,1,1.64-.64,2.33,2.33,0,0,1,1.66.64,2.44,2.44,0,0,1,.72,1.84v3.82a2.44,2.44,0,0,1-.72,1.84,2.4,2.4,0,0,1-1.66.66,2.37,2.37,0,0,1-1.64-.66,2.34,2.34,0,0,1-.74-1.83Zm3.56.08c0-.87-.42-1.31-1.18-1.33s-1.17.46-1.18,1.33v3.68c0,.87.41,1.32,1.18,1.32s1.16-.45,1.18-1.32Z"/><path class="cls-8" d="M234.19,17.58h1.2v1.24l-1.2.9Z"/><path class="cls-8" d="M237,12.57a2.38,2.38,0,0,1,.74-1.84,2.45,2.45,0,0,1,3.3,0,2.41,2.41,0,0,1,.72,1.84v3.82a2.41,2.41,0,0,1-.72,1.84,2.39,2.39,0,0,1-4-1.83Zm3.56.08c0-.87-.41-1.31-1.18-1.33s-1.17.46-1.18,1.33v3.68c0,.87.41,1.32,1.18,1.32s1.16-.45,1.18-1.32Z"/><path class="cls-8" d="M243.18,12.57a2.35,2.35,0,0,1,.75-1.84,2.28,2.28,0,0,1,1.63-.64,2.36,2.36,0,0,1,1.67.64,2.48,2.48,0,0,1,.72,1.84v3.82a2.48,2.48,0,0,1-.72,1.84,2.42,2.42,0,0,1-1.67.66,2.41,2.41,0,0,1-2.38-2.49Zm3.57.08c0-.87-.42-1.31-1.19-1.33s-1.16.46-1.18,1.33v3.68c0,.87.41,1.32,1.18,1.32s1.16-.45,1.19-1.32Z"/><path class="cls-8" d="M249.32,12.57a2.35,2.35,0,0,1,.75-1.84,2.28,2.28,0,0,1,1.63-.64,2.34,2.34,0,0,1,1.67.64,2.48,2.48,0,0,1,.72,1.84v3.82a2.48,2.48,0,0,1-.72,1.84,2.4,2.4,0,0,1-1.67.66,2.41,2.41,0,0,1-2.38-2.49Zm3.57.08c0-.87-.42-1.31-1.19-1.33s-1.16.46-1.18,1.33v3.68c0,.87.41,1.32,1.18,1.32s1.16-.45,1.19-1.32Z"/><path class="cls-3" d="M58.26,18.65c2.12,0,4.49-.13,6.72-.13,1.52,0,2.46.57,2.59,1.89a2.87,2.87,0,0,1-1.42,3c-.2.11-.38.51-.58.61a2.64,2.64,0,0,1-.66,4.68c1.4.73,1.38,4.06-.87,4.26,1.14,1.67,0,3.48-2.24,3.53-2.06,0-4.76,0-7.45,0s-5.37,0-7.44,0c-.93-2.46-.16-2.63-.12-5.26s.06-2.64.1-5.27-.54-2.75.28-5.26a11.41,11.41,0,0,0,4.68-3.88,11.18,11.18,0,0,0,1.58-6c0-.49-.33-1-.37-1.47-.13-1.57.74-2.17,2.2-1.58A5.8,5.8,0,0,1,59,13.19C59.05,14.9,58.43,16.78,58.26,18.65Z"/><path class="cls-9" d="M58.26,18.65c2.12,0,4.49-.13,6.72-.13,1.52,0,2.46.57,2.59,1.89a2.87,2.87,0,0,1-1.42,3c-.2.11-.38.51-.58.61a2.64,2.64,0,0,1-.66,4.68c1.4.73,1.38,4.06-.87,4.26,1.14,1.67,0,3.48-2.24,3.53-2.06,0-4.76,0-7.45,0s-5.37,0-7.44,0c-.93-2.46-.16-2.63-.12-5.26s.06-2.64.1-5.27-.54-2.75.28-5.26a11.41,11.41,0,0,0,4.68-3.88,11.18,11.18,0,0,0,1.58-6c0-.49-.33-1-.37-1.47-.13-1.57.74-2.17,2.2-1.58A5.8,5.8,0,0,1,59,13.19C59.05,14.9,58.43,16.78,58.26,18.65Z"/><polygon class="cls-10" points="47.7 38.06 41.05 37.91 40.69 31.58 40.09 25.13 39.87 18.47 47.55 18.81 47.81 25.11 47.57 31.57 47.7 38.06"/><path class="cls-11" d="M188.38,38.19c2.77,0,2.77-.12,5.54-.12s2.77-.2,5.54-.2,2.77-.11,5.54-.11,2.77.55,5.54.55,2.77-.24,5.55-.24"/><path class="cls-11" d="M188.38,44c2.77,0,2.77.08,5.54.08s2.77.07,5.54.07,2.77-.07,5.54-.07,2.77-.25,5.54-.25,2.77.26,5.55.26"/><path class="cls-11" d="M188.38,49.7c2.77,0,2.77.34,5.54.34l5.54,0c2.77,0,2.77.06,5.54.06s2.77-.13,5.54-.13,2.77.17,5.55.17"/><ellipse class="cls-3" cx="151.78" cy="52.53" rx="16.83" ry="16.02"/><path class="cls-12" d="M174.59,52.53a22.12,22.12,0,0,1-.24,5,21.65,21.65,0,0,1-2.06,4.61,22.09,22.09,0,0,1-3.11,3.87C168.1,67.3,167.37,69,166,70a23,23,0,0,1-4.46,2.39,24.07,24.07,0,0,1-4.87,1.18,24.28,24.28,0,0,1-4.92.9c-1.7,0-3.27-.84-4.87-1.18s-3.5,0-5-.72a24,24,0,0,1-4.33-2.63,22.19,22.19,0,0,1-3.41-3.7A21.34,21.34,0,0,1,131.69,62c-.76-1.47-2-2.78-2.41-4.41a21.3,21.3,0,0,1-.37-5,20.5,20.5,0,0,1,.9-4.89,21.62,21.62,0,0,1,1.27-4.85,22.27,22.27,0,0,1,2.83-4.18c1.08-1.26,2.67-2,4-3a22.5,22.5,0,0,1,4.17-2.69,23.49,23.49,0,0,1,4.79-1.31,23.89,23.89,0,0,1,4.9-.46,26.39,26.39,0,0,1,9.54,2.11,21.89,21.89,0,0,1,4.18,2.54,22.53,22.53,0,0,1,3.95,3,21.86,21.86,0,0,1,3.07,4c.76,1.47.77,3.26,1.17,4.89A20.84,20.84,0,0,1,174.59,52.53Z"/><path class="cls-8" d="M154.24,31.83c0,1.84-1.13,14.37-2.51,14.37s-2.51-12.53-2.51-14.37,1.12-3.33,2.51-3.33S154.24,30,154.24,31.83Z"/><ellipse class="cls-8" cx="151.92" cy="51.35" rx="3.02" ry="3.14"/><path class="cls-8" d="M131.62,57c1.78-.73,14.31-4.72,14.86-3.5s-11.09,7.16-12.87,7.88-3.65.34-4.2-.87S129.85,57.72,131.62,57Z"/><path class="cls-8" d="M171.83,57c-1.77-.73-14.3-4.72-14.85-3.5s11.09,7.16,12.86,7.88,3.66.34,4.21-.87S173.6,57.72,171.83,57Z"/><path class="cls-8" d="M153,58.14a1.2,1.2,0,0,0-1.14-.84h0a1.19,1.19,0,0,0-1.15.82l-11.09,35.1h2.51l9.69-30.68,9.08,30.68h2.5Z"/><line class="cls-13" x1="148.07" y1="70.65" x2="155.02" y2="70.65"/><line class="cls-13" x1="145" y1="80.95" x2="157.96" y2="80.95"/><path class="cls-8" d="M205.15,77.12a.81.81,0,0,0-.81-.81h-2.05a.81.81,0,0,0-.81.81v7.25l3.67-1.54Z"/><path class="cls-1" d="M201.48,84.37V95.79a.81.81,0,0,0,.81.81h2.05a.81.81,0,0,0,.81-.81v-13Z"/><path class="cls-1" d="M247.31,48.35a.61.61,0,0,0-.61,0L202.83,73.68a.6.6,0,0,0,0,1l43.87,25.33a.64.64,0,0,0,.3.08.68.68,0,0,0,.31-.08.6.6,0,0,0,.3-.53V48.87A.6.6,0,0,0,247.31,48.35Z"/><path class="cls-1" d="M196.83,68.4a.6.6,0,0,0-.61.6V79.3a.61.61,0,0,0,.61.61h12.75V68.4Z"/><path class="cls-8" d="M212.19,68.4h-2.61V79.91h2.61a.61.61,0,0,0,.61-.61V69A.6.6,0,0,0,212.19,68.4Z"/><path class="cls-14" d="M254.93,74.73c4.86,0,4.86-.13,9.72-.13"/><path class="cls-14" d="M254.94,81.33c4,2.78,4,2.76,8,5.54"/><path class="cls-14" d="M262.93,62.51c-4,2.78-4,2.7-8,5.48"/><polygon class="cls-3" points="130.92 77.42 130.92 70.65 121.69 70.65 116.98 84.37 113.01 89.75 124.75 93.22 126.61 85.87 130.92 85.87 130.92 80.11 132.98 79.91 130.92 77.42"/><path class="cls-8" d="M126.83,93.43l1.61-3.22L114.3,85.87l-1.68,2.56C99.44,88.84,94,102.57,94,102.57l-9.86,26.7,52.71,6.32v-26C136.87,97,127.41,93.62,126.83,93.43Z"/><path class="cls-1" d="M130.92,70.65s-.14,7.29-6.26,8.24c0,0,.26,14.86-9,16.42s-11.55,26.08-26.11,17.36C76.43,104.82,84.62,93,98.3,87.49S103.2,76.55,113,73c0,0,2-6.2,12-6C125.06,67,130.46,67.39,130.92,70.65Z"/><polygon class="cls-3" points="174.38 73.78 173.9 68.56 184.09 68.15 188.99 82.39 193.11 87.99 180.92 91.59 178.85 84.37 175.24 84.6 174.51 77.98 172.38 78.39 174.38 73.78"/><path class="cls-10" d="M178.76,91.81l-1.67-3.35L191.77,84l1.75,2.66c13.69.42,19.34,14.68,19.34,14.68L223.09,129l-54.73,6.56v-27C168.33,95.51,178.16,92,178.76,91.81Z"/><path class="cls-8" d="M183.77,67.87S166.48,64,175.5,72.72a9.6,9.6,0,0,0,3,1.68,1.27,1.27,0,0,1,1.89-.59s1.74,1.62-.49,4.82L182.74,81l5.38-1.37-3.36-10.91A1.51,1.51,0,0,0,183.77,67.87Z"/><path class="cls-3" d="M61.39,104.33a6.66,6.66,0,0,1-2.29-1.15,13.25,13.25,0,0,1-1.55-2,8.86,8.86,0,0,1-1.54-2,9.29,9.29,0,0,1-.62-2.53,9.29,9.29,0,0,1-.82,2.45,9.57,9.57,0,0,1-1.17,2.23A10.09,10.09,0,0,1,51.49,103c-1.17.9-.89,1-2,1.5,0,0,.15-.16.15-.12s-.35.22-.31.24c1.16.52,1.06.21,2.24,1.11a10.27,10.27,0,0,1,2,1.56,14.52,14.52,0,0,1,1.82,4.91,16.36,16.36,0,0,1,2-4.76,10.31,10.31,0,0,1,1.93-1.62c1.17-.89.91-.9,2.06-1.42,0,0-.13.22-.09.22S61.42,104.34,61.39,104.33Z"/><path class="cls-15" d="M52.1,104.6c-1.21,0-1.21-.26-2.41-.26s-1.21-.06-2.42-.06"/><path class="cls-15" d="M63.51,104.36c-1.21,0-1.21-.12-2.42-.12s-1.21.08-2.42.08"/><path class="cls-15" d="M55.57,100.22c0-1.52-.36-1.52-.36-3s0-1.51,0-3"/><path class="cls-15" d="M55.22,114.54c0-1.52,0-1.52,0-3s0-1.52,0-3"/><path class="cls-3" d="M146.77,4.76A3,3,0,0,1,145,3.55a3.65,3.65,0,0,1-.68-1.9,3.38,3.38,0,0,1-.81,1.8c-.71.87-.76.66-1.71,1.07a2.5,2.5,0,0,1,.24.16s-.26.18-.25.19c.95.41,1,.16,1.74,1a3.5,3.5,0,0,1,.79,1.84,3.14,3.14,0,0,1,1-1.66c.72-.87.43-1.15,1.38-1.56,0,0-.17.1-.18.12S146.79,4.76,146.77,4.76Z"/><path class="cls-15" d="M143,4.68c-1,0-1,0-2,0"/><path class="cls-15" d="M147.67,4.46c-1,0-1,.39-2,.39"/><path class="cls-15" d="M144.13,3c0-1.24.38-1.24.38-2.48"/><path class="cls-15" d="M144.6,8.84c0-1.24-.24-1.24-.24-2.47"/><path class="cls-3" d="M240.9,119.69c-1-.41-1.15,0-1.87-.89a3.29,3.29,0,0,1-.68-1.79,3,3,0,0,1-.82,1.67c-.71.87-.62.95-1.57,1.36,0,0-.22-.13-.22-.12s.15,0,.17,0c1,.41,1.05.26,1.77,1.13a3.87,3.87,0,0,1,.67,2,3.27,3.27,0,0,1,1-1.68c.72-.87.41-1.19,1.35-1.6,0,0,0,.17,0,.16S240.91,119.7,240.9,119.69Z"/><path class="cls-15" d="M237,119.92c-1,0-1,.21-2,.21"/><path class="cls-15" d="M241.67,119.68c-1,0-1,.16-2,.16"/><path class="cls-15" d="M238.14,118.24c0-1.24.39-1.24.39-2.48"/><path class="cls-15" d="M238.16,124.09c0-1.24.4-1.24.4-2.48"/><path class="cls-3" d="M154.25,117.77c-.95-.4-1.12-.16-1.84-1a3.63,3.63,0,0,1-.63-1.9,3.05,3.05,0,0,1-.95,1.64c-.71.87-.45,1.17-1.4,1.57a1.45,1.45,0,0,1,.09-.22s-.28.18-.27.19c.95.41,1.15,0,1.87.92a4.14,4.14,0,0,1,.66,2,3.53,3.53,0,0,1,1-1.79c.72-.87.6-.81,1.55-1.21,0,0-.17-.18-.16-.19S154.26,117.78,154.25,117.77Z"/><path class="cls-15" d="M150.44,117.9c-1,0-1-.22-2-.22"/><path class="cls-15" d="M155.09,117.79c-1,0-1-.07-2-.07"/><path class="cls-15" d="M151.93,116.14c0-1.24-.32-1.24-.32-2.48"/><path class="cls-15" d="M151.85,122c0-1.24-.17-1.24-.17-2.48"/><path class="cls-3" d="M73.23,115.92c-1-.41-1.13,0-1.85-.92a3.91,3.91,0,0,1-.69-2,3.54,3.54,0,0,1-.85,1.84c-.72.87-.58,1-1.53,1.42a1,1,0,0,1,.2-.15,1.24,1.24,0,0,1-.27,0c1,.41.75.5,1.47,1.37a4,4,0,0,1,1,1.93,4.27,4.27,0,0,1,.85-2c.72-.87.59-1,1.54-1.4,0,0,.2.24.21.23A.35.35,0,0,0,73.23,115.92Z"/><path class="cls-15" d="M69.35,116.25h-2"/><path class="cls-15" d="M74,116.21c-1,0-1,0-2,0"/><path class="cls-15" d="M70.58,114.46c0-1.24.12-1.24.12-2.48"/><path class="cls-15" d="M70.52,120.3c0-1.24.26-1.24.26-2.47"/><path class="cls-1" d="M289.35,310.35c-2.46,0-2.46.12-4.91.12s-2.46.46-4.92.46-2.45-.26-4.91-.26-2.45-.79-4.91-.79-2.45.4-4.91.4-2.45-.39-4.91-.39-2.46.58-4.91.58-2.46.14-4.91.14-2.46-.11-4.92-.11-2.45.26-4.91.26-2.45.15-4.91.15-2.46-1-4.91-1-2.46.69-4.91.69-2.46-.31-4.92-.31-2.45-.22-4.91-.22-2.45-.21-4.91-.21-2.46.73-4.91.73-2.46.19-4.91.19-2.46.26-4.91.26-2.46-1.09-4.91-1.09-2.45.58-4.91.58-2.45-.11-4.91-.11-2.45-.08-4.91-.08-2.46-.49-4.91-.49S169,311,166.57,311s-2.45-.81-4.91-.81-2.45.06-4.91.06-2.46.54-4.91.54-2.46-.71-4.92-.71-2.45.17-4.91.17-2.45.65-4.91.65-2.46-.85-4.91-.85-2.46.59-4.91.59-2.46-.67-4.92-.67-2.45.79-4.91.79-2.46-.18-4.91-.18-2.46-.52-4.92-.52-2.45-.12-4.91-.12-2.46.06-4.91.06-2.46.25-4.92.25-2.46.57-4.91.57H83.05c-2.45,0-2.45-.69-4.91-.69s-2.46.77-4.92.77-2.46-.43-4.91-.43-2.46.25-4.91.25-2.46-.21-4.92-.21-2.46-.19-4.91-.19-2.46.43-4.92.43-2.46.13-4.91.13-2.46.09-4.92.09-2.46-.73-4.92-.73-2.46.16-4.92.16-2.45.1-4.91.1-2.46-.34-4.92-.34-2.46.53-4.92.53-2.47-.19-4.93-.19a8.5,8.5,0,0,1-4.25-1.41,8.17,8.17,0,0,1-3-3.19A8.14,8.14,0,0,1,.68,301.7c0-2.45,0-2.45,0-4.91s.32-2.46.32-4.91S.75,289.42.75,287s.22-2.45.22-4.91-.34-2.46-.34-4.92.3-2.45.3-4.91-.74-2.46-.74-4.92.83-2.45.83-4.91v-4.92C1,255,1,255,1,252.56s.13-2.46.13-4.92S0,245.18,0,242.72s.39-2.45.39-4.91.27-2.46.27-4.92.18-2.46.18-4.91-.3-2.46-.3-4.92-.36-2.46-.36-4.91.58-2.46.58-4.92.19-2.46.19-4.92S.3,205.85.3,203.4,0,200.94,0,198.48s.73-2.46.73-4.92.09-2.46.09-4.92-.61-2.46-.61-4.92.25-2.46.25-4.93-.07-2.46-.07-4.92a9,9,0,0,1,1.2-4.43,9,9,0,0,1,3.3-3.17,9,9,0,0,1,4.38-1.43c2.46,0,2.46.9,4.92.9s2.45-.22,4.91-.22,2.45-.94,4.91-.94,2.45.2,4.91.2,2.45.26,4.91.26,2.46-.35,4.91-.35,2.46.46,4.91.46,2.46.5,4.91.5,2.46-1.08,4.92-1.08,2.45.14,4.91.14,2.46.53,4.91.53,2.46-.54,4.91-.54,2.46.36,4.91.36,2.46-.47,4.92-.47,2.45.1,4.91.1,2.46.15,4.91.15,2.46,0,4.91,0,2.46.51,4.92.51,2.45-.45,4.9-.45,2.46-.06,4.91-.06,2.45.35,4.91.35,2.45.35,4.91.35,2.45-.84,4.91-.84,2.46.34,4.91.34,2.46-.44,4.91-.44,2.46.08,4.91.08,2.46.73,4.91.73,2.46.35,4.92.35,2.45-.22,4.91-.22,2.45,0,4.91,0,2.45,0,4.91,0,2.46-1,4.91-1,2.46.08,4.91.08,2.46,1.08,4.92,1.08,2.45-.81,4.91-.81,2.46.14,4.91.14,2.46,0,4.92,0,2.45.52,4.91.52,2.46-.86,4.91-.86,2.46.77,4.92.77,2.46.19,4.91.19,2.46-.76,4.92-.76,2.46.35,4.91.35,2.46-.76,4.92-.76,2.46,0,4.91,0,2.46.3,4.92.3,2.45.85,4.91.85,2.46-.31,4.91-.31,2.46-.64,4.92-.64,2.46.35,4.91.35,2.46.27,4.92.27,2.46-.41,4.92-.41,2.46-.19,4.92-.19,2.45-.11,4.91-.11,2.46.58,4.92.58,2.46-.31,4.92-.31,2.47.43,4.93.43a8.42,8.42,0,0,1,4.32,1c1.33.77,2.88,1.57,3.65,2.89a9.68,9.68,0,0,1,1.26,4.6c0,2.46-1,2.46-1,4.92s0,2.45,0,4.91,1,2.45,1,4.91-.95,2.46-.95,4.92.41,2.45.41,4.91-.39,2.46-.39,4.92-.17,2.45-.17,4.91,0,2.46,0,4.92.44,2.45.44,4.91-.38,2.46-.38,4.92.52,2.46.52,4.91.58,2.46.58,4.92,0,2.46,0,4.92-.23,2.46-.23,4.92-.8,2.45-.8,4.91.11,2.46.11,4.91.26,2.46.26,4.92.09,2.46.09,4.91-.53,2.46-.53,4.92,1,2.46,1,4.92-.57,2.46-.57,4.92.24,2.46.24,4.92-.49,2.46-.49,4.91.56,2.47.56,4.93-.49,2.46-.49,4.92.69,2.46.69,4.92c0,1.59-.93,3-1.67,4.3a8.77,8.77,0,0,1-3.08,3.26A8.63,8.63,0,0,1,289.35,310.35Z"/><path class="cls-8" d="M49.45,218.29a2.75,2.75,0,0,1,.83,2,2.83,2.83,0,0,1-2.87,2.86,2.72,2.72,0,0,1-2-.83,2.76,2.76,0,0,1-.84-2,2.85,2.85,0,0,1,2.85-2.85A2.8,2.8,0,0,1,49.45,218.29Z"/><path class="cls-8" d="M60.06,227.87l-.35-1.53a11.1,11.1,0,0,0,1.27.08.52.52,0,0,0,.58-.58v-3.57c-.57.22-1.15.42-1.73.62l-.39-1.6a17.75,17.75,0,0,0,2.12-.63v-3.43H59.68v-1.52h1.88v-3h1.6v3h1.55v1.52H63.16V220c.43-.2.85-.41,1.26-.65V221l-1.26.63v4.67a1.44,1.44,0,0,1-1.63,1.61ZM74.34,220v1.42h-4V223h3.28v1.4H70.34v1.77c.62.06,1.33.11,2.17.11a21.61,21.61,0,0,0,2.3-.1l-.44,1.54c-.65,0-1.23,0-1.76,0a11.77,11.77,0,0,1-4.55-.61,4.19,4.19,0,0,1-1.59-1.6A11,11,0,0,1,65,228l-1.18-1a8.81,8.81,0,0,0,2-5l1.4.16a11.7,11.7,0,0,1-.23,1.72,3.73,3.73,0,0,0,1.71,1.87l.15.05v-4.35H64.76V220Zm-1-6.88v6h-7.5v-6Zm-1.55,2.4v-1.12H67.37v1.12Zm0,1.2H67.37v1.13h4.42Z"/><path class="cls-8" d="M85.58,214a20.31,20.31,0,0,1-2.91,1v3.83h4.1v-6h1.58v6h3.72v1.54H88.35V228H86.77v-7.63H82.63a9.38,9.38,0,0,1-4.11,7.68L77.32,227A8,8,0,0,0,81,220.38H77.15v-1.54h3.92v-3.43a28,28,0,0,1-3.07.42l-.5-1.44a24.13,24.13,0,0,0,7.32-1.71Z"/><path class="cls-8" d="M100.53,213.78a18.59,18.59,0,0,1-4.67,7.66l-1.25-1.08A16,16,0,0,0,99,213.18Zm7.81,13.58-1.48.66c-.23-.56-.45-1.08-.68-1.56-2.9.43-6.14.76-9.68,1l-.29-1.54c1.19-.38,2.83-2.93,5-7.64l1.57.53a44.12,44.12,0,0,1-4.07,7c2.37-.15,4.65-.4,6.87-.73-.57-1.1-1.14-2.12-1.72-3l1.43-.47A34.41,34.41,0,0,1,108.34,227.36Zm-2.58-14.23a12.27,12.27,0,0,0,4,7.13l-1.25,1.12a13.39,13.39,0,0,1-4-6.77h-2.67v-1.48Z"/><path class="cls-8" d="M115.19,225.87a33,33,0,0,0,4.1-1.13l.37,1.5a50.63,50.63,0,0,1-6.07,1.48l-.42-1.5a.82.82,0,0,0,.42-.75V213.18h12.16v5.23h-4.53c.07.72.17,1.37.27,2h5.3v1.53h-5c.1.32.2.61.31.88a8.33,8.33,0,0,0,1.6,2.57,2.39,2.39,0,0,0,1.5.76c.15,0,.29-.15.4-.43a9.61,9.61,0,0,0,.32-2.05l1.42.77a8,8,0,0,1-.79,2.75,1.26,1.26,0,0,1-1,.65,4,4,0,0,1-2.47-1.15,9.68,9.68,0,0,1-2.27-3.3,11.75,11.75,0,0,1-.51-1.45h-5.15Zm0-11.18v2.22h9v-2.22Zm0,3.72v2H120c-.13-.64-.23-1.29-.31-2Z"/><path class="cls-8" d="M132.45,224.12a11.38,11.38,0,0,1-1.6,3.42l-1.37-.85a9,9,0,0,0,1.44-2.88Zm-1.85-9.23v-1.33h5.5c-.14-.28-.27-.55-.4-.78l1.71-.27c.14.32.29.67.42,1.05h5.77v1.33H141l-.49,1h3.92v1.37H129.82v-1.37h3.78l-.4-1ZM142.65,218v5.2h-11.1V218Zm-1.55,2v-.81h-8V220Zm0,1.14h-8V222h8Zm-5.74,6.63c-1.28,0-1.91-.59-1.91-1.72v-2.13h1.6v1.8c0,.41.25.63.77.63h3.31a.91.91,0,0,0,.63-.18,2.29,2.29,0,0,0,.35-1.32l1.5.48c-.13,1.17-.36,1.89-.73,2.12a2.76,2.76,0,0,1-1.45.32Zm3.45-11.87.49-1h-4.45l.4,1Zm.2,9.1-1.31.92a15.79,15.79,0,0,0-1.55-1.84l1.35-.85A12.92,12.92,0,0,1,139,225Zm5.79,1.42-1.32.91a22.84,22.84,0,0,0-2.07-2.95l1.29-.8A24.93,24.93,0,0,1,144.8,226.41Z"/><path class="cls-8" d="M150.43,214.56H152V216h-5v-1.43h1.91c-.2-.53-.41-1.07-.65-1.57l1.5-.41A19.4,19.4,0,0,1,150.43,214.56Zm1.31,13.18h-1.43V227h-1.45v.75h-1.43V222h4.31Zm-.18-10.6v1.32h-4v-1.32Zm0,2.37v1.31h-4v-1.31Zm-1.25,6.13v-2.35h-1.45v2.35Zm6.88.18a16.56,16.56,0,0,0,1.43-1.9v0a45,45,0,0,1-.35-5.11h-6.18v-1.44h1.35c-.13-.71-.26-1.38-.41-2h-.54V214h1.82c-.17-.42-.33-.8-.52-1.17l1.52-.23.45,1.4h1.8v1.36H157a18.19,18.19,0,0,1-.28,2h1.5c0-1.38,0-2.91,0-4.61h1.4c0,1.73,0,3.26,0,4.61h2.47v1.44h-2.45c0,1.18.06,2.2.11,3a20.54,20.54,0,0,0,1-2.52l1.28.5a25.65,25.65,0,0,1-2,4.43c.2,1.12.4,1.72.64,1.82s.36-.72.51-2.07l1.15.82c-.28,2-.81,3-1.58,3-.42,0-.8-.28-1.13-.85a5.85,5.85,0,0,1-.55-1.21,14.28,14.28,0,0,1-1.87,2.11l-1.05-.91c.33-.32.67-.65,1-1h-3v.85h-1.3v-7.13h4.33Zm-1.32-3.66v-1.28h-1.71v1.28Zm0,2.55v-1.37h-1.71v1.37Zm-.13-9.37h-1.45c.1.62.22,1.29.33,2h.87C155.59,216.69,155.67,216,155.74,215.34Zm6.23,1.09-1.15.28a17.47,17.47,0,0,0-.91-2.87l1.15-.36A23,23,0,0,1,162,216.43Z"/><path class="cls-8" d="M168.75,212.69v2.8h3.35q0,8.5-.25,10.5c-.16,1.27-1,1.9-2.48,1.9-.27,0-.7,0-1.3-.08l-.4-1.45c.57,0,1.05.08,1.45.08a1.2,1.2,0,0,0,1.25-1.17c.1-.81.15-3.56.18-8.23h-1.8v.45c-.05,4.87-1.11,8.42-3.21,10.67L164.25,227c1.9-2,2.87-5.15,2.9-9.53V217h-2.51v-1.55h2.51v-2.8ZM179,227.77h-1.55v-1h-2.56v1h-1.55V214.54H179Zm-1.55-2.56v-9.13h-2.56v9.13Z"/><path class="cls-8" d="M186.66,214.73v-1.54h3.64a20,20,0,0,0,6.86,13.28l-.9,1.37a21.18,21.18,0,0,1-6.6-10.5,18.32,18.32,0,0,1-6.81,10.47l-1-1.35A18.75,18.75,0,0,0,189,214.73Z"/><path class="cls-8" d="M201.09,216.44v-3.56h1.52v3.56h1.73v1.49h-1.73v9.89h-1.52v-9.89h-1.8v-1.49Zm7.38,10.32a1.59,1.59,0,0,1-1.56,1c-.29,0-.62,0-1-.06l-.35-1.32c.42,0,.77.07,1.05.08s.65-.26.75-.76a29.81,29.81,0,0,0,.17-3.84h-1a13.76,13.76,0,0,1-.53,2.77,7.58,7.58,0,0,1-2,3.18l-1-1.23a6.5,6.5,0,0,0,1.7-2.62,11.6,11.6,0,0,0,.38-2.1h-1.35v-1.36h1.47l.05-1.38h1.43l0,1.38h2.32C208.92,224,208.77,226.06,208.47,226.76Zm4.62-8.85a2.12,2.12,0,0,1-1.93.83,10,10,0,0,1-1.1-.06l-.42-1.42a9.72,9.72,0,0,0,1.43.13.8.8,0,0,0,.88-.63,8.17,8.17,0,0,0,.12-1.35h-2.66l-.07.28a3.83,3.83,0,0,1-1.2,1.95,6.22,6.22,0,0,1-2.62,1.27l-.8-1.27a5.63,5.63,0,0,0,2.24-.9,2.64,2.64,0,0,0,.91-1.33h-2.75V214h3a10.67,10.67,0,0,0,0-1.16h1.49c0,.41,0,.8,0,1.16h4C213.62,216.08,213.44,217.38,213.09,217.91Zm1.08,8.83a1.48,1.48,0,0,1-1.43,1c-.37,0-.8,0-1.3-.07l-.37-1.32,1.33.09c.34,0,.55-.27.64-.77a36,36,0,0,0,.15-3.82H212a13.54,13.54,0,0,1-.5,2.74,7.51,7.51,0,0,1-2.07,3.18l-.91-1.17A6.17,6.17,0,0,0,210.2,224a12.17,12.17,0,0,0,.41-2.1h-1.1v-1.36h1.21l.05-1.42h1.42c0,.5,0,1-.07,1.42h2.5C214.6,224,214.45,226,214.17,226.74Z"/><path class="cls-8" d="M224.62,212.69v1.72l-.05,1.3h6.33c-.07,3-.17,5.38-.34,7.23a10.54,10.54,0,0,1-.86,3.82,2.26,2.26,0,0,1-1.9,1.15h-2.33l-.44-1.54c.7,0,1.37,0,2,0,.85,0,1.42-.56,1.69-1.68a45.93,45.93,0,0,0,.55-7.51h-4.82a20.49,20.49,0,0,1-1.5,6.06A10.49,10.49,0,0,1,218.1,228l-.87-1.38a9.65,9.65,0,0,0,4.49-4.57,18.66,18.66,0,0,0,1.1-4.86h-4.7v-1.52h4.81l0-1.3v-1.72Z"/><path class="cls-8" d="M49.45,246.06a2.75,2.75,0,0,1,.83,2,2.83,2.83,0,0,1-2.87,2.86,2.72,2.72,0,0,1-2-.83,2.76,2.76,0,0,1-.84-2,2.68,2.68,0,0,1,.84-2,2.65,2.65,0,0,1,2-.83A2.76,2.76,0,0,1,49.45,246.06Z"/><path class="cls-8" d="M64.94,240.48c1.32.8,2.73,1.8,4.27,3l-.92,1.22c-.58-.47-1.12-.9-1.6-1.27v1h-4v-.62c-.74.62-1.58,1.23-2.49,1.85l-.92-1.28A21.49,21.49,0,0,0,64,240.48Zm3.37,15.24H66.82v-.58H63.69v.6H62.26v-4.6a13.61,13.61,0,0,1-1.7,4.62l-1.23-1.1A11.59,11.59,0,0,0,61,248.29v-3.11h7.16v4.93H62.41c0,.33-.09.65-.13.95h6Zm-5.8-7.43c0,.24,0,.45,0,.69h4.13v-.82H62.51Zm4.11-2H62.51v.8h4.11Zm-.18-3.12c-.72-.55-1.33-1-1.83-1.3-.39.43-.8.87-1.27,1.3Zm.38,10.7v-1.62H63.69v1.62Zm3.27,1.71-.37-1.53c.8,0,1.57.08,2.3.08a.53.53,0,0,0,.6-.6V240.48h1.57V254a1.45,1.45,0,0,1-1.62,1.64Zm1.17-14v10.67H69.74V241.59Z"/><path class="cls-8" d="M81.19,244.48v1.23a21,21,0,0,1-1.82,2.58h2.07v1.05a15.86,15.86,0,0,1-1,3.09l.36.28a6,6,0,0,0,1.55,1,7.79,7.79,0,0,0,2.17.32c.9,0,2,0,3.15,0s2.71-.05,4.6-.13l-.35,1.5h-4c-1.2,0-2.34,0-3.44-.07a8.24,8.24,0,0,1-2.61-.38A5.69,5.69,0,0,1,80,253.79a.52.52,0,0,0-.4-.17c-.3,0-.8.72-1.48,2.15l-1.15-1.05c.73-1.46,1.45-2.33,2.15-2.56a13.45,13.45,0,0,0,.88-2.53H77.5v-1.2a23,23,0,0,0,2-2.52H77.17v-1.43Zm0-1.62-1,1a18.44,18.44,0,0,0-2.55-2.4l1.05-1A18.22,18.22,0,0,1,81.17,242.86Zm2.1,2.47-1.3-.82a11.11,11.11,0,0,0,1.7-3.7l1.45.3c-.12.42-.24.82-.37,1.18h1.67v-1.86h1.51v1.86h3.29v1.47H87.93v1.78h4.15V247H81.78v-1.45h4.64v-1.78H84.15A14.6,14.6,0,0,1,83.27,245.33Zm7.6,2.71V253H83.13V248Zm-1.52,1.45h-4.7v2h4.7Z"/><path class="cls-8" d="M102,241.79v1.55H99.63v3.2h1.75v1a21.35,21.35,0,0,0,2.21-7.18l1.55.16c-.13.85-.3,1.67-.48,2.44h4.9v1.53h-1.13a13.86,13.86,0,0,1-2,6.9,9.9,9.9,0,0,0,3.48,3.05l-.9,1.33a10.24,10.24,0,0,1-3.53-3.1,12.58,12.58,0,0,1-4.25,3.12l-1-1.3a10.88,10.88,0,0,0,4.35-3.17,19.76,19.76,0,0,1-1.62-3.9,16.37,16.37,0,0,1-1,1.79l-.9-1.19H99.63v3.87c.8-.23,1.57-.48,2.3-.73v1.46a66.4,66.4,0,0,1-7.12,2l-.43-1.46,1-.22v-7.61h1.48v7.26c.44-.1.85-.21,1.25-.32v-9H94.88v-1.55Zm4.87,2.72h-2.68a23.71,23.71,0,0,1-.89,2.32l.79-.45a17.7,17.7,0,0,0,1.43,3.58A12.29,12.29,0,0,0,106.91,244.51Z"/><path class="cls-8" d="M113.37,244.69l-1.36-.85a10,10,0,0,0,2.2-3.6l1.51.34c-.13.38-.28.75-.43,1.08h4v1.4h-2.45c.34.52.63,1,.87,1.45l-1.43.52a15.68,15.68,0,0,0-1.07-2h-.63A13.11,13.11,0,0,1,113.37,244.69Zm5.43.57v-1h1.47l-.88-.58a10.45,10.45,0,0,0,1.55-3.42l1.53.33c-.1.37-.22.74-.33,1.07h4.78v1.4h-2.83a14.94,14.94,0,0,1,.81,1.43l-1.38.54a15.54,15.54,0,0,0-1-2h-.9a16,16,0,0,1-.85,1.48l-.32-.2v.92H127v1.43h-6.6v1h5.47v3.23c0,.94-.5,1.4-1.5,1.4h-1.13l-.4-1.4,1.08.09c.25,0,.38-.15.38-.42V249h-3.9v1.35a18.57,18.57,0,0,0,7,3.68l-.84,1.45a19.78,19.78,0,0,1-6.15-3.63v4h-1.6v-3.9a18.88,18.88,0,0,1-5.66,3.67l-1-1.42a19.25,19.25,0,0,0,6.61-3.83V249h-3.63v3.19h-1.55v-4.57h5.18v-1h-6.59v-1.43Z"/><path class="cls-8" d="M136,251.19l.22,1.45a45.33,45.33,0,0,1-5.95,2.33l-.45-1.36a1,1,0,0,0,.59-1v-6h3.65V243h-4.4v-1.52h5.94V248H132v4.85A41.89,41.89,0,0,0,136,251.19Zm4.35-1.28a12.77,12.77,0,0,0,1.34-5.63h-2.87a14.24,14.24,0,0,1-2.08,4.11l-1-1.21a15.81,15.81,0,0,0,2.33-6.77l1.55.27c-.13.75-.26,1.45-.41,2.1h5.16v1.5h-1.18a14.65,14.65,0,0,1-1.95,7.1,10.21,10.21,0,0,0,3.65,3.13l-.9,1.33a10.54,10.54,0,0,1-3.67-3.18,12.26,12.26,0,0,1-4.16,3.15l-1-1.3a10.3,10.3,0,0,0,4.25-3.22,19,19,0,0,1-1.67-4l1.19-.68A17.15,17.15,0,0,0,140.36,249.91Z"/><path class="cls-8" d="M148.79,247.16a12.73,12.73,0,0,1-.5,2.35l-1.1-.38a9.52,9.52,0,0,0,.57-2.22Zm3.53-.8-1,.27-.16-.59a28.79,28.79,0,0,1-3.52.54l-.28-1a1.43,1.43,0,0,0,.5-.32,11.63,11.63,0,0,0,1.45-1.46l-1.59.18-.3-1.07a1.16,1.16,0,0,0,.52-.45,10.35,10.35,0,0,0,1.3-1.93l1.18.45a12,12,0,0,1-1.55,1.93,12.36,12.36,0,0,0,1.24-.15c.21-.3.45-.63.7-1l1.15.43a23.93,23.93,0,0,1-2.84,3.22c.57-.09,1.15-.2,1.72-.34-.12-.3-.23-.56-.35-.83l1-.33A14.06,14.06,0,0,1,152.32,246.36Zm2.52,6.82a8.18,8.18,0,0,0,2.67-1.82H151a8.19,8.19,0,0,1-2.53,1.91l-.9-1.11a6.32,6.32,0,0,0,3.23-3.15l1.5.27a6.13,6.13,0,0,1-.35.73h8.93v1.35h-1.68a8.86,8.86,0,0,1-2.42,2.31,42.54,42.54,0,0,0,5.27.79l-.55,1.38a35.37,35.37,0,0,1-6.47-1.23,18.17,18.17,0,0,1-6.91,1.18l-.52-1.38a21.71,21.71,0,0,0,5.37-.59,7.3,7.3,0,0,1-2.24-1.5l1.27-.61A8.26,8.26,0,0,0,154.84,253.18ZM150.43,249l-1.09.11c0-.9-.06-1.58-.11-2.06l1-.1A14.06,14.06,0,0,1,150.43,249Zm1.78-.57-1,.37c-.15-.64-.32-1.24-.5-1.8l.92-.27C151.91,247.39,152.08,248,152.21,248.46Zm1.66-6.92a7.28,7.28,0,0,0-.41-1l1.46-.25a12,12,0,0,1,.42,1.21h1.57v1.12h-4.65v-1.12Zm2.72,4.7v2.82h-4v-2.82Zm-.1-3v.94h-3.78v-.94Zm0,1.47v.92h-3.78v-.92Zm-1.07,2.42h-1.63v1h1.63Zm3.09-.1a11.32,11.32,0,0,1-.49,2.23l-1.1-.37a8.73,8.73,0,0,0,.55-2.11Zm3.5-.72-1,.25c0-.17-.09-.3-.12-.43-1.23.16-2.42.26-3.53.33l-.29-1a1.47,1.47,0,0,0,.5-.31,9.05,9.05,0,0,0,1.37-1.3l-1.67.16-.28-1.06a1.4,1.4,0,0,0,.5-.45,10.68,10.68,0,0,0,1.42-2l1.18.45a11.43,11.43,0,0,1-1.63,2l1.31-.14.75-1,1.1.41a25.32,25.32,0,0,1-2.81,3.14c.6-.07,1.18-.15,1.78-.25-.12-.34-.23-.65-.37-.95l1-.35A18.13,18.13,0,0,1,162,246.31Zm-1.85,2.75-1.1.12c0-.94-.07-1.67-.12-2.17l1-.12A17.1,17.1,0,0,1,160.16,249.06Zm1.91-.3-1,.37c-.2-.74-.41-1.44-.66-2.12l1-.28A15.9,15.9,0,0,1,162.07,248.76Z"/><path class="cls-8" d="M49.45,273.83a2.72,2.72,0,0,1,.83,2,2.83,2.83,0,0,1-2.87,2.87,2.72,2.72,0,0,1-2-.83,2.77,2.77,0,0,1-.84-2A2.87,2.87,0,0,1,47.41,273,2.77,2.77,0,0,1,49.45,273.83Z"/><path class="cls-8" d="M60,283.41l-.35-1.53a8.53,8.53,0,0,0,1.11.08.47.47,0,0,0,.52-.53v-3.55c-.5.2-1,.38-1.48.55l-.39-1.59c.64-.16,1.25-.35,1.87-.56v-3.52H59.69v-1.52h1.62v-3h1.55v3h1.35v1.52H62.86v2.85c.46-.23.91-.47,1.36-.73v1.61c-.45.25-.9.49-1.36.7v4.64a1.38,1.38,0,0,1-1.52,1.58Zm6-7.12a13.42,13.42,0,0,1-1.85,7.14l-1.13-1a11.15,11.15,0,0,0,1.57-6.12v-6.88h4.55c-.17-.36-.35-.71-.54-1l1.57-.27c.18.39.35.82.52,1.3h3.81v1.37H72.94v.66h1.42v1.17H72.94v1.53H67.77v-1.53H66.51v-1.17h1.26v-.66h-1.7v3.91H74.7v1.2H66.07Zm8,.17v4.72h-1.6a14.36,14.36,0,0,1,2.38,1.08l-.76,1.17A14.29,14.29,0,0,0,71,282l.57-.85H69.12l.6.68a11.23,11.23,0,0,1-3.23,1.63l-.6-1.28a10.29,10.29,0,0,0,2.48-1H66.69v-4.72Zm-4.38,1.9v-.77H68v.77Zm0,.92H68V280h1.67Zm-.59-7.84h2.47v-.66H69.12Zm0,1.79h2.47v-.62H69.12ZM71,278.36h1.77v-.77H71Zm1.77.92H71V280h1.77Z"/><path class="cls-8" d="M83.63,272.43c.1-.89.17-1.82.19-2.78V268.2h1.6v1.08a24.42,24.42,0,0,1-.2,3.15H92V274H85.62a14.6,14.6,0,0,0,6.71,8.27l-1,1.28a15.67,15.67,0,0,1-6.72-8.25,13.21,13.21,0,0,1-6.73,8.4l-1-1.33A11.7,11.7,0,0,0,83.37,274H77.25v-1.53Z"/><path class="cls-8" d="M101.58,273.28h-1.1a13.21,13.21,0,0,1-1.65,1.86l1.41-.11.75-.89,1.05.42a17.86,17.86,0,0,1-2.76,2.67l1.55-.22c-.07-.25-.15-.48-.22-.7l.93-.3a22.29,22.29,0,0,1,.62,2.15l-1,.23c0-.18-.09-.35-.12-.5-1.2.17-2.32.3-3.35.4l-.23-.93a6.51,6.51,0,0,0,1.88-1.4l-1.8.15-.21-.95a6,6,0,0,0,1.78-1.88H96.61v10.28H95.16V268.71h6.42Zm-1.43-3.43H96.61v.66h3.54Zm-3.54,2.34h3.54v-.71H96.61Zm2.65,6.49v1.4h1.2a1.39,1.39,0,0,0,0-.27v-1.3h1.29v1.3a3.82,3.82,0,0,1-.83,2.32,5.34,5.34,0,0,1-2.52,1.23l-.72-1.12a5.14,5.14,0,0,0,2.17-.91l.11-.15H98v-2.5Zm6.08-5.39a11,11,0,0,1-1.61,1.84c.41,0,.88-.07,1.38-.1.25-.29.5-.59.77-.89l1.05.42a18,18,0,0,1-2.77,2.65c.47-.07,1-.13,1.57-.22-.09-.23-.17-.46-.24-.68l.94-.3a19.63,19.63,0,0,1,.7,2.22l-1,.25q-.08-.33-.15-.6c-1.23.16-2.36.3-3.4.4l-.23-.94a6.33,6.33,0,0,0,1.88-1.4l-1.8.15-.21-.95a6,6,0,0,0,1.76-1.85h-1.38v-4.58h6.45V282a1.3,1.3,0,0,1-1.48,1.45c-.64,0-1.25,0-1.85,0l-.35-1.32c.6,0,1.15.05,1.66.05s.55-.2.55-.6v-8.3Zm-1.38,5.2v1.59h1.18v-1.37h1.25v2.47H104v2.16h-1.37v-4.85Zm3.63-8.63H104v.67h3.55ZM104,272.21h3.55v-.72H104Z"/><path class="cls-8" d="M115.94,274.74l-1.13,1.14a20.88,20.88,0,0,0-2.75-2.54l1.13-1.08A20,20,0,0,1,115.94,274.74Zm.45,2.79a53.56,53.56,0,0,1-2.48,5.9l-1.59-.7a53.78,53.78,0,0,0,2.65-5.79Zm.1-6.72-1.13,1.13a16.25,16.25,0,0,0-2.92-2.49l1.15-1.1A24.29,24.29,0,0,1,116.49,270.81Zm4.73.05a20.57,20.57,0,0,0-1-2.35l1.47-.41a21.86,21.86,0,0,1,1.12,2.75h4.08v1.55h-4.13V276h3.68v1.51h-3.68v3.95h4.48V283H116.54v-1.55h4.61v-3.95h-3.73V276h3.73v-3.57H117v-1.55Z"/><path class="cls-8" d="M129.83,276.48l-.53-1.69a18.17,18.17,0,0,0,3.43-6.64l1.43.66a18.15,18.15,0,0,1-1.43,3.52v11.26h-1.55v-8.78C130.75,275.38,130.3,275.94,129.83,276.48Zm13.82-7.73v5.63h-3.32v2.36h3.77v1.47h-3.77v3.48c.53.07,1.17.12,1.88.15.94,0,1.8,0,2.6,0l-.28,1.5h-1.6a12,12,0,0,1-4.92-.73,5.21,5.21,0,0,1-2.21-2.18,12.94,12.94,0,0,1-1.7,3.28l-1-1.25a17.14,17.14,0,0,0,2.35-7l1.5.27c-.17,1.06-.37,2-.6,2.93a5.24,5.24,0,0,0,1,1.58,4,4,0,0,0,1.48,1.1v-6.91H135v-5.63Zm-1.54,1.44h-5.56v2.72h5.56Z"/><path class="cls-8" d="M147.26,276.51l-.52-1.7a18.27,18.27,0,0,0,3.6-6.76l1.5.7a20.33,20.33,0,0,1-1.55,3.63v11.21h-1.6v-8.76C148.24,275.39,147.76,276,147.26,276.51Zm8.88-6.76v-1.57h1.58v1.57h4.49v1.51h-4.49v1.32h3.85v4.95h-3.91a9.93,9.93,0,0,1-.77,3.23,13.24,13.24,0,0,0,5.45,1.37l-.38,1.51a14,14,0,0,1-6-1.66,7.49,7.49,0,0,1-4.2,1.66l-.68-1.43a6.32,6.32,0,0,0,3.48-1.13,14.26,14.26,0,0,1-2.46-2.39l1.21-.83a10.85,10.85,0,0,0,2.15,2,8.16,8.16,0,0,0,.57-2.36h-3.63v-4.95h3.71v-1.32H152v-1.51Zm0,4.23h-2.23v2.13h2.23Zm4,0h-2.37v2.13h2.37Z"/><path class="cls-8" d="M179.32,268.75v1.48h-6.45v1.15H178v6.85h-5.33a6.85,6.85,0,0,1-.86,2.36,24.3,24.3,0,0,0,8.09,1.49l-.4,1.53a23.88,23.88,0,0,1-8.7-1.87,11.38,11.38,0,0,1-5.67,1.85l-.68-1.45a10.72,10.72,0,0,0,4.8-1.16,15.15,15.15,0,0,1-2.45-1.69l1.22-.83a14,14,0,0,0,2.33,1.48,5.83,5.83,0,0,0,.72-1.71h-4.79v-6.85h5.05v-1.15h-6.43v-1.48Zm-8,5.38v-1.4h-3.48v1.4Zm0,1.7v-.4h-3.48v1.41h3.43C171.28,276.51,171.3,276.16,171.3,275.83Zm5.1-.4h-3.53v.4c0,.36,0,.7-.05,1h3.58Zm-3.53-1.3h3.53v-1.4h-3.53Z"/><path class="cls-8" d="M190.76,268.83l-.66.7h4.44v1.23c-1.8,3.2-5.13,5-10,5.42l-.67-1.44a18.3,18.3,0,0,0,3.75-.56,14.47,14.47,0,0,0-1.46-1.55l1.36-.65a21.43,21.43,0,0,1,1.59,1.7,8.69,8.69,0,0,0,3.63-2.75h-4.48a15.81,15.81,0,0,1-4.57,1.72l-.93-1.46a11.67,11.67,0,0,0,6.6-3.09Zm0,11.6a10,10,0,0,0,3.91-3h-4.56A22.37,22.37,0,0,1,185,279l-.95-1.41c3.63-.35,6.32-1.42,8-3.22l1.35.73a10,10,0,0,1-1,.89h4.25v1.23q-3.58,5.85-13.32,6.1l-.63-1.52a21.85,21.85,0,0,0,6.5-.85,17.93,17.93,0,0,0-1.6-1.81l1.4-.67A21,21,0,0,1,190.78,280.43Z"/><path class="cls-8" d="M207.71,271.94a15.2,15.2,0,0,0,7.16,10.15l-1.05,1.39a16.88,16.88,0,0,1-6.7-8.57,15.92,15.92,0,0,1-6.9,8.6l-1-1.42q6.75-4.09,7-11.26c0-1.12,0-2,0-2.62h1.6C207.82,269.68,207.77,270.91,207.71,271.94Z"/><path class="cls-8" d="M217.52,283.38l-.35-1.54a11,11,0,0,0,1.23.09.56.56,0,0,0,.62-.62v-3.6c-.64.27-1.25.5-1.87.72l-.4-1.6a22.17,22.17,0,0,0,2.27-.72v-3.48h-1.9v-1.52H219V268.2h1.56v2.91h1.77v1.52h-1.77v2.78c.57-.3,1.14-.6,1.69-.93v1.61a17.32,17.32,0,0,1-1.69.9v4.72a1.47,1.47,0,0,1-1.63,1.67Zm13.43-8.2v1.46a9.11,9.11,0,0,1-2.37,3.84,18.37,18.37,0,0,0,3.82,1.75l-.85,1.36a19.73,19.73,0,0,1-4.12-2.15,15.16,15.16,0,0,1-4.66,2.2l-.87-1.33a15.64,15.64,0,0,0,4.23-1.92,8.22,8.22,0,0,1-2.41-3.68h-.92v-1.53Zm-1-6.43v3.48c0,.36.24.55.7.55h1.27v1.46h-1.7c-1.22,0-1.82-.55-1.82-1.65v-2.36H225.5V271a4.15,4.15,0,0,1-2.32,3.74l-1.05-1.22a2.6,2.6,0,0,0,1.82-2.35v-2.41Zm-2.66,10.78a9,9,0,0,0,2.1-2.82h-4.17A7.13,7.13,0,0,0,227.25,279.53Z"/><path class="cls-8" d="M239.14,270.26v-1.53h3.64A20.08,20.08,0,0,0,249.64,282l-.9,1.37a21.34,21.34,0,0,1-6.6-10.5,18.26,18.26,0,0,1-6.81,10.46l-1-1.35a18.72,18.72,0,0,0,7.13-11.73Z"/><path class="cls-8" d="M247.32,192.59c-2.06,0-2.06-.44-4.12-.44s-2.06-.13-4.12-.13-2.06.12-4.12.12-2.06.18-4.12.18-2.06.37-4.11.37-2.06-.08-4.12-.08-2.06-.54-4.12-.54-2.06.16-4.12.16-2.06.1-4.12.1-2.06.42-4.12.42-2.06-.27-4.12-.27-2.06-.07-4.12-.07-2.06-.47-4.12-.47-2.06.35-4.12.35-2.06.52-4.12.52-2.06-.88-4.12-.88-2.06.1-4.12.1-2.06.3-4.12.3-2.06.41-4.13.41-2.06-.35-4.12-.35-2.06-.32-4.12-.32-2.06.48-4.12.48-2.06-.19-4.12-.19-2.06,0-4.12,0-2.07.34-4.13.34-2.06-.07-4.12-.07-2.06-.36-4.12-.36S134,192,131.94,192s-2.06.11-4.12.11-2.06.52-4.12.52-2.07-.39-4.13-.39-2.06,0-4.12,0-2.06-.42-4.13-.42-2.06.68-4.12.68-2.06.14-4.12.14S101,192,99,192s-2.06.46-4.13.46-2.06-.12-4.12-.12-2.06-.35-4.12-.35-2.07.38-4.13.38-2.06.14-4.13.14-2.06-.23-4.12-.23-2.07.31-4.13.31-2.06-.48-4.12-.48-2.07-.26-4.13-.26-2.07.26-4.13.26-2.07-.37-4.13-.37-2.07,1-4.14,1a29.59,29.59,0,0,1-4.09-.81,30.42,30.42,0,0,1-4.1-.53,29.12,29.12,0,0,1-3.73-1.8A30.16,30.16,0,0,1,33.69,188a29.46,29.46,0,0,1-3.41-2.41,29.3,29.3,0,0,1-2.82-3.06c-.9-1-1.13-2.56-1.87-3.71s-2.23-1.91-2.8-3.16a30.69,30.69,0,0,1-1.29-4c-.38-1.3.09-2.79-.11-4.17a28.29,28.29,0,0,1-.71-4h-.19a29.12,29.12,0,0,1,.52-4.09,30.91,30.91,0,0,1,.48-4.12,29.06,29.06,0,0,1,1.67-3.79,28.82,28.82,0,0,1,1.92-3.65,29.52,29.52,0,0,1,2.61-3.19,29.4,29.4,0,0,1,2.92-2.88,28.91,28.91,0,0,1,3.31-2.42,30.3,30.3,0,0,1,3.44-2.3,29.19,29.19,0,0,1,4-1.14,27.26,27.26,0,0,1,4.07-.48c1.34-.19,2.64-1,4-1,2.07,0,2.07.49,4.13.49s2.06-.05,4.12-.05,2.06.34,4.11.34,2.06-.32,4.12-.32,2.06.26,4.12.26,2.06-.76,4.11-.76,2.06-.1,4.12-.1,2.06.42,4.12.42,2.06-.32,4.13-.32,2.06.25,4.12.25,2.05,0,4.11,0,2.06.52,4.12.52,2.06-.16,4.12-.16,2.06-.18,4.12-.18,2.06.32,4.13.32,2.06,0,4.11,0,2.06-.71,4.12-.71,2.06.69,4.13.69,2.06-.95,4.12-.95,2.06.71,4.12.71,2.06-.31,4.12-.31,2.06.08,4.12.08,2.07-.49,4.13-.49,2.06.36,4.12.36h4.12c2.06,0,2.06-.09,4.12-.09s2.07.07,4.13.07,2.06.56,4.12.56,2.06-.47,4.12-.47,2.07,0,4.13,0,2.06-.17,4.12-.17,2.06.08,4.13.08,2.06.08,4.12.08,2.06.42,4.12.42,2.06-.84,4.12-.84,2.07.67,4.13.67,2.06-.42,4.12-.42,2.06.14,4.12.14h4.13c2.06,0,2.06.09,4.12.09s2.07-.3,4.13-.3,2.06.36,4.13.36,2.06-.41,4.12-.41,2.07.69,4.13.69,2.06-.07,4.12-.07,2.07-.75,4.13-.75,2.07.77,4.14.77,2.06-.62,4.13-.62c1.39,0,2.71.78,4.05,1s2.83-.1,4.13.28a29,29,0,0,1,3.79,1.65,28.85,28.85,0,0,1,3.82,1.63,29.16,29.16,0,0,1,3,2.87,28.28,28.28,0,0,1,2.79,3,27.74,27.74,0,0,1,2.5,3.22,28.78,28.78,0,0,1,2.24,3.46,30.67,30.67,0,0,1,1.08,4,27.64,27.64,0,0,1,.88,4,28.77,28.77,0,0,1,.32,4.07h.44a28.89,28.89,0,0,1-.74,4.07,29.63,29.63,0,0,1-.65,4.06,28.63,28.63,0,0,1-1.54,3.81,28.3,28.3,0,0,1-2.28,3.39,27.51,27.51,0,0,1-8,9.27,30.89,30.89,0,0,1-3.69,2,29.14,29.14,0,0,1-4,1.12,27.29,27.29,0,0,1-3.95,1.31A30.4,30.4,0,0,1,247.32,192.59Z"/><path class="cls-3" d="M247.32,185c-2.06,0-2.06-.5-4.12-.5s-2.06.8-4.12.8-2.06-.45-4.12-.45-2.06-.34-4.12-.34-2.06.89-4.11.89-2.06-.7-4.12-.7-2.06.46-4.12.46-2.06-.38-4.12-.38-2.06.5-4.12.5-2.06-.16-4.12-.16-2.06.15-4.12.15-2.06-.62-4.12-.62-2.06.07-4.12.07-2.06-.24-4.12-.24-2.06.16-4.12.16-2.06.27-4.12.27-2.06-.15-4.12-.15-2.06-.17-4.12-.17H169c-2.06,0-2.06.37-4.12.37s-2.06.39-4.12.39-2.06-.34-4.12-.34-2.06-.31-4.12-.31-2.06.47-4.12.47-2.07-.71-4.13-.71-2.06.6-4.12.6-2.06-.51-4.12-.51-2.07.7-4.13.7-2.06-.36-4.12-.36l-4.12,0c-2.07,0-2.07.12-4.13.12s-2.06-.17-4.12-.17-2.06-.14-4.13-.14-2.06.75-4.12.75-2.06,0-4.12,0S101,185,99,185H94.83c-2.06,0-2.06-.21-4.12-.21s-2.06-.1-4.12-.1-2.07.45-4.13.45-2.06-.37-4.13-.37-2.06-.27-4.12-.27-2.07.57-4.13.57-2.06-.18-4.12-.18-2.07.39-4.13.39-2.07-.9-4.13-.9-2.07.91-4.13.91-2.07-.63-4.14-.63a28.83,28.83,0,0,1-4.07-.2c-1.37-.2-2.84,0-4.15-.35a30.92,30.92,0,0,1-3.92-1.4,29.45,29.45,0,0,1-3.66-2c-1.15-.74-1.9-2.07-2.94-3a29.48,29.48,0,0,1-3.06-2.74,29.72,29.72,0,0,1-2.06-3.56A29.15,29.15,0,0,1,23.48,168c-.57-1.24-1.75-2.28-2.14-3.6s0-2.81-.21-4.18a28.84,28.84,0,0,1-.19-4.07h-.6a30,30,0,0,1,.24-4.15c.2-1.37,1.17-2.57,1.55-3.87a26.82,26.82,0,0,1,1.51-3.76,28,28,0,0,1,1.84-3.62,28.17,28.17,0,0,1,2.17-3.48,29.59,29.59,0,0,1,3.23-2.54c1-.89,1.61-2.42,2.76-3.16a29.35,29.35,0,0,1,3.76-1.77c1.24-.57,2.72-.47,4-.86a29,29,0,0,1,4-.9,28.39,28.39,0,0,1,4-.22c2.07,0,2.07-.8,4.13-.8s2.06.18,4.12.18,2.06.66,4.11.66,2.06,0,4.12,0,2.06-.55,4.12-.55,2.06-.41,4.11-.41,2.06,0,4.12,0,2.06.7,4.12.7,2.06-.44,4.13-.44,2.06-.3,4.12-.3,2.05.25,4.11.25,2.06.64,4.12.64,2.06-.07,4.12-.07,2.06-.57,4.12-.57,2.06.61,4.13.61,2.06.13,4.11.13,2.06-.38,4.12-.38,2.06.15,4.13.15,2.06-.24,4.12-.24,2.06-.33,4.12-.33,2.06.33,4.12.33,2.06.41,4.12.41,2.07-.53,4.13-.53,2.06-.37,4.12-.37,2.06.49,4.12.49,2.06.12,4.12.12,2.07-.47,4.13-.47,2.06.29,4.12.29,2.06-.2,4.12-.2,2.07.52,4.13.52,2.06-.13,4.12-.13,2.06.09,4.13.09,2.06-.66,4.12-.66,2.06.3,4.12.3,2.06-.34,4.12-.34,2.07.68,4.13.68,2.06.07,4.12.07,2.06.23,4.12.23,2.07-.4,4.13-.4,2.06.17,4.12.17,2.07.08,4.13.08,2.06.12,4.13.12,2.06-.54,4.12-.54,2.07-.41,4.13-.41,2.06,1,4.12,1,2.07-.68,4.13-.68h4.14c2.06,0,2.06,0,4.13,0a30.34,30.34,0,0,1,4.16,0,30.2,30.2,0,0,1,4,1,29.89,29.89,0,0,1,3.69,1.9c1.25.58,2.78.69,3.93,1.43a29,29,0,0,1,3.06,2.82c1,.89,1.57,2.25,2.47,3.29a26.45,26.45,0,0,1,2.52,3.16c.74,1.14,2.05,2,2.63,3.24a30.18,30.18,0,0,1,1.31,3.93c.38,1.3,0,2.77.19,4.14a28.23,28.23,0,0,1,.44,4h-.07c0,1.39.66,2.81.47,4.15a28.3,28.3,0,0,1-1.31,3.93c-.39,1.33-.38,2.82-.94,4.06a30.06,30.06,0,0,1-2,3.66c-.74,1.16-2,1.93-2.94,3a30.18,30.18,0,0,1-3,2.77c-1,.9-1.74,2.25-2.9,3s-2.62.94-3.87,1.51a28.23,28.23,0,0,1-3.86,1.3,46.31,46.31,0,0,1-8,1.47Z"/><path class="cls-8" d="M86.28,146.18c-.17,1.38-.35,2.69-.53,3.89h3.42v1.18a27.06,27.06,0,0,1-1.75,9.05,26.3,26.3,0,0,1,2.06,2.09L88.06,164c-.47-.55-1-1.13-1.57-1.73a16.89,16.89,0,0,1-3.34,4.24l-1.33-1.66a14.55,14.55,0,0,0,3.2-4c-.89-.85-1.87-1.74-2.93-2.67.49-1.86.91-3.9,1.29-6.08H82v-2h1.71c.2-1.33.38-2.69.55-4.09Zm.94,5.91H85.44c-.38,2.18-.75,4-1.15,5.48l1.6,1.36A24.72,24.72,0,0,0,87.22,152.09ZM93.54,162a16.18,16.18,0,0,1-3.88,3.91l-1.2-1.58a15.7,15.7,0,0,0,3.73-3.53Zm4.22-14v-2h2v2h1.93v1.82H99.76v6.68H96.52v1.69h5.71V160H96.52v6.39h-2V160H88.79v-1.91h5.69v-1.69H91.21v-6.68h-2v-1.82h2v-2h2v2Zm0,3.37v-1.55H93.23v1.55Zm0,1.73H93.23v1.62h4.53Zm4.69,11.3-1.33,1.47a27,27,0,0,0-3.69-3.71l1.2-1.37A29.74,29.74,0,0,1,102.45,164.34Z"/><path class="cls-8" d="M112.54,152.62h.76v3.69h-1v8.35c0,1.11-.69,1.66-2,1.66H109l-.47-1.69a10.33,10.33,0,0,0,1.22.07c.54,0,.8-.22.8-.64v-1.58c-.75.29-1.57.55-2.46.82l-.29-1.06a10.1,10.1,0,0,1-1.6,4.21l-1.4-1.28a8.32,8.32,0,0,0,1.4-4.84v-4H105v-3.75h.82v-5.93h6.75Zm-1,2.95v-1.39H106.7v1.39Zm-3.16-2.95v-2.93h2.4v-1.4h-3.31v4.33Zm2.11,8.19v-3.64H108v1.16a23,23,0,0,1,2.33.66l-.56,1.38a13.65,13.65,0,0,0-1.77-.6v.4c0,.53,0,1-.09,1.49C108.83,161.39,109.72,161.13,110.54,160.81Zm.29-8.19v-1.49h-1v1.49ZM123.75,158v4.48h-1.33L122,164.1h2.91v1.75H113.12V164.1h3.17l-.48-1.58h-1.29V158Zm1-2.6v1.64H113.59v-1.64Zm-8-7.88v-1.49h1.8v1.49h1.31v-1.49h1.77v1.49h2.62v6.95h-10.1v-6.95Zm.4,2.89v-1.36h-1.4v1.36Zm0,1.31h-1.4v1.33h1.4ZM122,159.5h-5.63V161H122Zm-1.79,4.6.42-1.58h-2.91l.49,1.58Zm-1.62-13.65h1.31v-1.36h-1.31Zm1.31,1.31h-1.31v1.33h1.31Zm1.37-1.31h1.42v-1.36h-1.42Zm1.42,1.31h-1.42v1.33h1.42Z"/><path class="cls-8" d="M133.23,166.48h-2V160.7a14.51,14.51,0,0,1-3,4.93l-1.09-1.8a11.27,11.27,0,0,0,3.22-4.52h-2.84v-1.94h3.75v-1.73h-3.35v-8.9h8.59v8.9h-3.24v1.73h3.57v1.94h-3.57v.44c1.28.75,2.57,1.6,3.88,2.53L136,164c-1.07-1-2-1.84-2.75-2.44Zm-1.87-16.06v-1.88h-1.62v1.88Zm0,1.67h-1.62v1.8h1.62Zm1.71-1.67h1.58v-1.88h-1.58Zm1.58,1.67h-1.58v1.8h1.58Zm3.68,8.57-1.2-1.56c3-1.19,5-2.68,6.07-4.44l2,.23a10.73,10.73,0,0,1-1.16,1.71h3.55v1.64c-1.15,3.91-4.62,6.68-10.37,8.35l-1-1.82a18.42,18.42,0,0,0,5.52-2.18,12.31,12.31,0,0,0-1.93-1.89l1.4-1a11.26,11.26,0,0,1,1.93,1.91,8.86,8.86,0,0,0,2.38-3.22h-3.31A20.69,20.69,0,0,1,138.33,160.66Zm2.8-11.3a13.5,13.5,0,0,1-3.24,2.69l-1.22-1.63A9.41,9.41,0,0,0,141,146.1l2,.24a12.89,12.89,0,0,1-.67,1.4h4.33v1.51c-1.11,3.46-3.93,5.9-8.45,7.35L137.05,155a15.06,15.06,0,0,0,3.79-1.6,10.3,10.3,0,0,0-1.66-1.49l1.42-1a11,11,0,0,1,1.62,1.53,10.54,10.54,0,0,0,2.42-3Z"/><path class="cls-8" d="M156.62,146.76a29.93,29.93,0,0,1-2.11,4.89v14.89h-2.06V154.8c-.6.77-1.25,1.53-1.91,2.26l-.69-2.26a24.45,24.45,0,0,0,4.79-9Zm5.48,6.33v-7h2.13v7h5.62v2h-5.62v3.11h6.22v2.06h-6.22v6.22H162.1v-6.22H156v-2.06h6.1v-3.11h-5.44v-2Zm-1.28-1.36-2,.49a27,27,0,0,0-1.75-4.24l2-.66A24.41,24.41,0,0,1,160.82,151.73Zm8.59-4.33a21.57,21.57,0,0,1-2,4.93l-1.93-.68a21.75,21.75,0,0,0,1.87-4.76Z"/><path class="cls-8" d="M178.57,146.07v3.73H183q0,11.32-.33,14c-.22,1.69-1.33,2.53-3.31,2.53-.35,0-.93,0-1.73-.11l-.53-1.93c.75.06,1.4.11,1.93.11a1.6,1.6,0,0,0,1.66-1.56c.14-1.08.2-4.75.25-11h-2.4v.6q-.1,9.72-4.29,14.21l-1.71-1.51c2.54-2.62,3.82-6.86,3.87-12.7v-.6h-3.35V149.8h3.35v-3.73Zm13.7,20.1H190.2v-1.38h-3.42v1.38h-2.06V148.54h7.55Zm-2.07-3.42V150.58h-3.42v12.17Z"/><path class="cls-8" d="M204.72,149.91v-1.33q-3,.13-6.4.13l-.62-1.84a100.61,100.61,0,0,0,14.9-.93l1,1.75a67.76,67.76,0,0,1-6.8.78v1.44h8.79v2H206.8v5.68a23.25,23.25,0,0,0,9.11,5.8l-1.18,2A25,25,0,0,1,206.8,160v6.48h-2.08v-6.46a28.52,28.52,0,0,1-7.82,5.39l-1.31-1.95a25.41,25.41,0,0,0,9.13-5.95v-5.68H195.9v-2Zm-1.85,2.58v4l1.11-.2V158c-2.13.54-4.59,1-7.35,1.45l-.57-1.91c1.71-.2,3.3-.43,4.77-.65v-1.42h-4.22v-1.82h4.22v-1.13Zm7.75,0v1.18l4.37-.38v1.85l-4.37.35v1c0,.36.27.54.82.54H215v1.82H210.8c-1.51,0-2.24-.62-2.24-1.87v-4.53Z"/></g></g></svg>