<svg xmlns="http://www.w3.org/2000/svg" xmlns:xlink="http://www.w3.org/1999/xlink" viewBox="0 0 257.45 254.9"><defs><style>.cls-1,.cls-12,.cls-6,.cls-7,.cls-8{fill:none;}.cls-2{fill:#fff;}.cls-3{fill:#e9506c;}.cls-4{fill:#001d2f;}.cls-5{fill:#f5a117;}.cls-6,.cls-8{stroke:#001d2f;}.cls-12,.cls-6,.cls-7,.cls-8{stroke-linecap:round;stroke-linejoin:round;}.cls-12,.cls-6{stroke-width:1.04px;}.cls-12,.cls-7{stroke:#fff;}.cls-7,.cls-8{stroke-width:0.52px;}.cls-9{fill:#633a7c;}.cls-10{clip-path:url(#clip-path);}.cls-11{clip-path:url(#clip-path-2);}.cls-13{fill:#f2f3f2;}.cls-14{fill:#c9caca;}</style><clipPath id="clip-path"><path class="cls-1" d="M83.74,89.81,53,85.48S39.43,85,35,100.61L18.54,182.45H87.83l-1.56-41.89,4.66-38.9S91.68,91.87,83.74,89.81Z"/></clipPath><clipPath id="clip-path-2"><path class="cls-1" d="M49.68,103.77l27.94,43,39.12,3.39-1.36,11.32-37.45-.18s-8.09.32-13.34-6.25l-27.93-34Z"/></clipPath></defs><title>CTG-1_en</title><g id="Layer_2" data-name="Layer 2"><g id="圖層_1" data-name="圖層 1"><path class="cls-2" d="M134.09,153.19l-8.57-4.89s-4.91.37-5.36,1.18a11.81,11.81,0,0,0-.63,1.27h-5.16l.42,7.86s8.13,4.25,8.56,4.66,5.28-.77,7.24-2.76l3.5-.09Z"/><path class="cls-3" d="M132.45,1.21l11.36,23a2.17,2.17,0,0,0,1.63,1.19l25.4,3.69a2.17,2.17,0,0,1,1.21,3.7L153.67,50.73a2.16,2.16,0,0,0-.63,1.92L157.38,78a2.17,2.17,0,0,1-3.15,2.29L131.51,68.3a2.13,2.13,0,0,0-2,0L106.77,80.24A2.17,2.17,0,0,1,103.62,78L108,52.65a2.15,2.15,0,0,0-.62-1.92L89,32.81a2.17,2.17,0,0,1,1.2-3.7l25.4-3.69a2.2,2.2,0,0,0,1.64-1.19l11.36-23A2.18,2.18,0,0,1,132.45,1.21Z"/><path class="cls-4" d="M129.42,35.75a1.07,1.07,0,1,1-2.14,0,1.28,1.28,0,0,1,1.21-1.35C129.16,34.4,129.42,35,129.42,35.75Z"/><path class="cls-4" d="M131.58,35.75a1.07,1.07,0,1,0,2.13,0,1.28,1.28,0,0,0-1.21-1.35C131.83,34.4,131.58,35,131.58,35.75Z"/><path class="cls-4" d="M124,39.15c.24,5.16,5.67,5.16,6.54,5.16,1.22,0,6.3,0,6.53-5.16Z"/><path class="cls-5" d="M214.45,35.85l-7.94,6.54a.84.84,0,0,1-.79.17l-9.9-2.83a.87.87,0,0,0-1,1.16l3.78,9.57a.9.9,0,0,1-.09.81l-5.75,8.53a.88.88,0,0,0,.78,1.36l10.27-.63a.88.88,0,0,1,.74.33L210.84,69a.87.87,0,0,0,1.53-.32l2.58-10a.88.88,0,0,1,.54-.6l9.67-3.52a.88.88,0,0,0,.17-1.56l-8.68-5.53a.87.87,0,0,1-.41-.7l-.36-10.28A.88.88,0,0,0,214.45,35.85Z"/><path class="cls-5" d="M44.37,35.85l7.94,6.54a.86.86,0,0,0,.8.17L63,39.73a.87.87,0,0,1,1,1.16l-3.77,9.57a.87.87,0,0,0,.09.81l5.74,8.53a.87.87,0,0,1-.77,1.36l-10.27-.63a.87.87,0,0,0-.74.33L48,69a.87.87,0,0,1-1.53-.32l-2.58-10a.88.88,0,0,0-.54-.6l-9.67-3.52A.88.88,0,0,1,33.5,53l8.68-5.53a.86.86,0,0,0,.4-.7L43,36.49A.87.87,0,0,1,44.37,35.85Z"/><path class="cls-2" d="M126.42,102.22l-1.84-6.77a3.64,3.64,0,0,0-1.12-1.5,57.46,57.46,0,0,1-4.27-5.06s-1.81.67.71,4.8c0,0,.39,1.35-.26,1.23S106.38,91,106.38,91s-1.42.84,0,2c0,0-1.49,1-.07,1.82,0,0-1.16.9.33,2.06,0,0-.39,1.3,1.42,1.88a25.2,25.2,0,0,0,5.7,2.91l6.32,2.93Z"/><polygon class="cls-2" points="198.58 94.61 194.36 68.71 177.65 61.67 177.55 74.68 172.19 78.93 177.26 79.33 177.52 87.57 183.29 87.14 183.39 94.51 197.04 94.51 198.58 94.61"/><path class="cls-4" d="M194.36,68.71s-21.09-8.93-20.75-8.7c0,0-2.05,4.6,4,7.92l9.82,4.48A4,4,0,0,0,189.27,77s1.86-2.85,3.2-1.28a1.83,1.83,0,0,1,.42,1.1,4,4,0,0,1-2.44,4,.44.44,0,0,0,0,.77l6.74,3.9Z"/><path class="cls-4" d="M180.18,75.42c0,.72-.32,1-.71.94s-.74-.3-.7-1,.39-1.29.78-1.27S180.23,74.7,180.18,75.42Z"/><path class="cls-6" d="M179,81.69a3.49,3.49,0,0,0,3.85-1.2"/><polygon class="cls-3" points="183.21 87.15 183.32 89.06 188.12 87.05 183.21 87.15"/><path class="cls-4" d="M178,94.08h32.15s13.51,1.1,16,17.15l7.22,69.44L162,182.35l7.45-38.19V105S169.89,95.17,178,94.08Z"/><path class="cls-4" d="M174.06,95.59l-32.73,26.93-13.55-21.14-10,3.79,14.26,26.93s4.34,7.31,12.44,4.15l28.75-15.9Z"/><path class="cls-4" d="M210.17,112l-32.86,39.38-43.79,0v11.4l41.75,3s8,1.28,14-4.62L221,130.73Z"/><polygon class="cls-2" points="183.39 94.08 184.09 132.13 198.58 94.08 185.94 91.54 183.39 94.08"/><polygon class="cls-4" points="183.39 102.94 189.84 96.95 194.9 103.74 189.47 99.3 183.39 102.94"/><polygon class="cls-4" points="183.39 94.08 189.84 96.95 198.58 94.08 189.91 95.93 183.39 94.08"/><line class="cls-7" x1="210.17" y1="111.99" x2="177.31" y2="151.37"/><path class="cls-7" d="M165.38,165.11l9.89.65s8,1.28,14-4.62L221,130.73"/><line class="cls-8" x1="106.38" y1="93.04" x2="114.89" y2="95.52"/><line class="cls-8" x1="106.31" y1="94.86" x2="114.45" y2="97.21"/><line class="cls-8" x1="106.64" y1="96.92" x2="113.92" y2="98.91"/><line class="cls-7" x1="130.5" y1="105.63" x2="122.8" y2="109.02"/><line class="cls-7" x1="140.9" y1="154.04" x2="140" y2="163.18"/><circle class="cls-2" cx="127.16" cy="104.14" r="0.73"/><circle class="cls-2" cx="136.92" cy="160.03" r="0.73"/><polyline class="cls-7" points="180.64 94.08 178.68 107.55 180.64 109.51 179.66 117.14 184.09 132.13"/><polyline class="cls-7" points="202 94.61 198.58 108.86 194.9 111.23 193.74 118.67 184.56 132.13"/><line class="cls-7" x1="184.09" y1="132.13" x2="183.39" y2="144.09"/><line class="cls-7" x1="183.39" y1="164.82" x2="183.39" y2="182.35"/><polygon class="cls-3" points="186.34 100.2 189.84 96.95 192.56 100.61 190.52 103.74 187.63 103.74 186.34 100.2"/><polygon class="cls-3" points="187.63 103.74 183.86 119.67 184.09 132.13 189.85 117 190.52 103.74 187.63 103.74"/><polygon class="cls-2" points="63.26 87.9 70.53 62.68 87.96 57.68 86.51 70.61 91.32 75.47 86.25 75.26 85 83.41 79.33 82.3 78.35 89.6 64.8 87.97 63.26 87.9"/><path class="cls-4" d="M70.53,62.68s22-6.35,21.64-6.17c0,0,1.48,4.82-4.9,7.39L77,67.18a4,4,0,0,1-2.38,4.34s-1.51-3-3-1.66a1.81,1.81,0,0,0-.54,1A4,4,0,0,0,73,75.17a.44.44,0,0,1,0,.77L65.77,79Z"/><path class="cls-4" d="M83.81,71c0,.72.2,1,.59,1s.78-.21.82-.94-.24-1.32-.63-1.35S83.85,70.31,83.81,71Z"/><path class="cls-6" d="M84.21,77.4a3.5,3.5,0,0,1-3.68-1.65"/><polygon class="cls-3" points="79.41 82.31 79.07 84.2 74.55 81.63 79.41 82.31"/><path class="cls-9" d="M83.74,89.81,53,85.48S39.43,85,35,100.61L18.54,182.45H87.83l-1.56-41.89,4.66-38.9S91.68,91.87,83.74,89.81Z"/><g class="cls-10"><rect class="cls-5" x="12.27" y="94" width="100.91" height="2.43"/><rect class="cls-5" x="12.27" y="106.85" width="100.91" height="2.43"/><rect class="cls-5" x="12.27" y="119.7" width="100.91" height="2.43"/><rect class="cls-5" x="12.27" y="132.56" width="100.91" height="2.43"/><rect class="cls-5" x="12.27" y="145.41" width="100.91" height="2.43"/><rect class="cls-5" x="12.27" y="158.26" width="100.91" height="2.43"/><rect class="cls-5" x="12.27" y="171.11" width="100.91" height="2.43"/></g><path class="cls-9" d="M49.68,103.77l27.94,43,39.12,3.39-1.36,11.32-37.45-.18s-8.09.32-13.34-6.25l-27.93-34Z"/><g class="cls-11"><rect class="cls-5" x="3.09" y="97.13" width="100.91" height="2.43" transform="translate(-45.11 45.37) rotate(-33.2)"/><rect class="cls-5" x="10.13" y="107.88" width="100.91" height="2.43" transform="matrix(0.84, -0.55, 0.55, 0.84, -49.85, 50.98)"/><rect class="cls-5" x="17.16" y="118.64" width="100.91" height="2.43" transform="translate(-54.59 56.59) rotate(-33.2)"/><rect class="cls-5" x="24.2" y="129.39" width="100.91" height="2.43" transform="matrix(0.84, -0.55, 0.55, 0.84, -59.33, 62.2)"/><rect class="cls-5" x="31.24" y="140.14" width="100.91" height="2.43" transform="translate(-64.07 67.81) rotate(-33.2)"/><rect class="cls-5" x="38.27" y="150.9" width="100.91" height="2.43" transform="matrix(0.84, -0.55, 0.55, 0.84, -68.81, 73.41)"/><rect class="cls-5" x="45.31" y="161.65" width="100.91" height="2.43" transform="matrix(0.84, -0.55, 0.55, 0.84, -73.55, 79.02)"/></g><polygon class="cls-2" points="78.43 89.1 70.78 94.78 63.52 86.98 63.96 85.48 76.18 86.35 78.43 89.1"/><polygon class="cls-4" points="77.62 146.78 49.68 103.77 79.62 144.61 86.54 147.55 77.62 146.78"/><path class="cls-4" d="M36.66,121.08l27.93,34c5.25,6.57,13.34,6.25,13.34,6.25l9,.25.16,3.83-20-1.37Z"/><path class="cls-8" d="M119.53,150.75l-.7,1s-.27.85,1.56.27l4.26-2"/><path class="cls-8" d="M123,150.86a10.49,10.49,0,0,0,5.9,2.26"/><line class="cls-12" x1="25.68" y1="88.37" x2="29.77" y2="89.26"/><line class="cls-12" x1="7.86" y1="84.52" x2="20.08" y2="87.16"/><line class="cls-12" x1="15.95" y1="103.67" x2="29.8" y2="98.67"/><line class="cls-12" x1="8.71" y1="106.28" x2="12.49" y2="104.92"/><line class="cls-12" x1="25.73" y1="71.01" x2="35.35" y2="78.84"/><line class="cls-12" x1="17.96" y1="64.68" x2="21.64" y2="67.68"/><line class="cls-12" x1="232.39" y1="84.75" x2="228.3" y2="85.64"/><line class="cls-12" x1="250.21" y1="80.89" x2="237.99" y2="83.54"/><line class="cls-12" x1="242.12" y1="100.05" x2="228.27" y2="95.04"/><line class="cls-12" x1="249.36" y1="102.66" x2="245.58" y2="101.29"/><line class="cls-12" x1="232.34" y1="67.39" x2="222.72" y2="75.22"/><line class="cls-12" x1="240.11" y1="61.06" x2="236.43" y2="64.05"/><path class="cls-2" d="M140.93,88.22l2.3,1.9a.24.24,0,0,0,.23,0l2.87-.82a.26.26,0,0,1,.31.34l-1.1,2.77a.26.26,0,0,0,0,.24l1.66,2.47a.25.25,0,0,1-.22.39l-3-.18a.25.25,0,0,0-.21.1L142,97.83a.26.26,0,0,1-.45-.1l-.74-2.88a.26.26,0,0,0-.16-.18l-2.8-1a.25.25,0,0,1-.05-.45l2.51-1.6a.27.27,0,0,0,.12-.21l.11-3A.25.25,0,0,1,140.93,88.22Z"/><path class="cls-13" d="M110.86,124.7l.84,3.63a.3.3,0,0,0,.19.22l3.46,1.36a.31.31,0,0,1,0,.56l-3.18,1.92a.29.29,0,0,0-.15.25l-.23,3.71a.32.32,0,0,1-.52.22l-2.81-2.44a.29.29,0,0,0-.28-.06l-3.6.93a.32.32,0,0,1-.37-.43l1.45-3.42a.32.32,0,0,0,0-.3l-2-3.13a.31.31,0,0,1,.29-.48l3.7.32a.3.3,0,0,0,.27-.12l2.37-2.86A.31.31,0,0,1,110.86,124.7Z"/><path class="cls-5" d="M237.61,130.31l-.94,4.64a.4.4,0,0,0,.1.36l3.29,3.4a.4.4,0,0,1-.24.68l-4.71.54a.37.37,0,0,0-.3.21l-2.23,4.18a.4.4,0,0,1-.71,0l-2-4.31a.38.38,0,0,0-.29-.23l-4.67-.82a.4.4,0,0,1-.2-.69l3.49-3.2a.39.39,0,0,0,.13-.35L227.7,130a.39.39,0,0,1,.59-.4l4.12,2.33a.46.46,0,0,0,.38,0l4.25-2.08A.41.41,0,0,1,237.61,130.31Z"/><path class="cls-14" d="M32.94,129.92,32,134.56a.37.37,0,0,0,.1.35l3.29,3.41a.4.4,0,0,1-.24.68l-4.7.53a.41.41,0,0,0-.31.21l-2.22,4.18a.4.4,0,0,1-.72,0l-2-4.3a.38.38,0,0,0-.29-.23l-4.66-.83a.4.4,0,0,1-.21-.68l3.49-3.2a.41.41,0,0,0,.13-.36L23,129.62a.4.4,0,0,1,.59-.41l4.12,2.33a.39.39,0,0,0,.38,0l4.25-2.07A.4.4,0,0,1,32.94,129.92Z"/><path class="cls-4" d="M220,254.31c-2.06,0-2.06,0-4.13,0h-4.14c-2.06,0-2.06.3-4.13.3s-2.07-.67-4.14-.67-2.07.92-4.14.92-2.07-.88-4.14-.88-2.06.07-4.13.07h-4.14c-2.06,0-2.06.86-4.13.86s-2.07-.76-4.14-.76-2.07.39-4.14.39-2.07.22-4.14.22-2.07-.62-4.13-.62-2.07-.14-4.14-.14-2.07,0-4.14,0-2.07.75-4.14.75-2.07-.81-4.14-.81-2.07.43-4.14.43-2.07.2-4.14.2-2.07.31-4.14.31-2.07-.87-4.14-.87-2.07,0-4.14,0-2.07.46-4.14.46-2.07.49-4.14.49-2.07-.6-4.14-.6-2.07-.25-4.14-.25-2.07.77-4.14.77-2.07-.35-4.14-.35-2.07.13-4.15.13-2.07.17-4.14.17-2.07-.82-4.13-.82-2.07.91-4.14.91-2.07-.49-4.14-.49-2.07.09-4.15.09-2.07-.35-4.14-.35-2.07.66-4.14.66-2.07-.56-4.14-.56-2.07.67-4.15.67-2.07-.51-4.14-.51-2.07.3-4.14.3-2.07.11-4.15.11-2.07,0-4.14,0-2.08-.75-4.15-.75-2.08.17-4.15.17a35.72,35.72,0,0,1-4.16-.37,35.52,35.52,0,0,1-4.16-.42,37.28,37.28,0,0,1-4.16-.79A39.53,39.53,0,0,1,21.46,251c-1.27-.61-2.1-2-3.28-2.72a38.17,38.17,0,0,1-3.41-2.35,35.28,35.28,0,0,1-3.08-2.78c-1-1-2.36-1.62-3.23-2.71s-1.24-2.53-2-3.72a37.91,37.91,0,0,1-2.21-3.53,39.75,39.75,0,0,1-1.67-3.84,41.44,41.44,0,0,1-1.49-3.94,40.18,40.18,0,0,1-.88-4.15A39.57,39.57,0,0,1,.12,217H.84c0-1.42-.85-2.87-.7-4.25s1.2-2.66,1.51-4a36.28,36.28,0,0,1,1-4,38.16,38.16,0,0,1,1.82-3.75,38.08,38.08,0,0,1,1.61-3.88,39.37,39.37,0,0,1,2.09-3.71c.87-1.09,2.36-1.66,3.35-2.65a36.42,36.42,0,0,1,2.88-3.07A38.26,38.26,0,0,1,18,185.48c1.18-.74,2.13-1.94,3.4-2.55a35.36,35.36,0,0,1,3.93-1.57,39.73,39.73,0,0,1,4.12-.93,37.91,37.91,0,0,1,4.13-.9c1.37-.16,2.8.39,4.22.39,2.06,0,2.06-.78,4.13-.78s2.07.19,4.14.19,2.06-.15,4.13-.15,2.07-.09,4.14-.09,2.07.22,4.14.22,2.07-.24,4.13-.24,2.07.54,4.14.54,2.07-.46,4.14-.46,2.06.9,4.13.9,2.07-.44,4.14-.44,2.07-.27,4.14-.27,2.07-.14,4.14-.14,2.07.1,4.13.1,2.07.54,4.14.54,2.07-.77,4.14-.77,2.07.49,4.14.49,2.07-.29,4.14-.29,2.07,0,4.14,0,2.07.25,4.14.25,2.07-.31,4.14-.31,2.07.31,4.14.31,2.07.37,4.14.37H133c2.07,0,2.07-.36,4.14-.36s2.07.18,4.14.18,2.07.25,4.14.25,2.07-.1,4.14-.1,2.07-.26,4.14-.26,2.07-.44,4.14-.44,2.08,0,4.15,0,2.06.57,4.13.57,2.07.16,4.14.16,2.07-.73,4.14-.73,2.07.39,4.15.39,2.07.32,4.14.32,2.07-.05,4.14-.05,2.07-.4,4.14-.4,2.07.55,4.15.55,2.07-.46,4.14-.46,2.07-.48,4.14-.48h4.15c2.07,0,2.07.66,4.14.66s2.08.29,4.15.29,2.08-.08,4.15-.08c1.42,0,2.84-.54,4.22-.39a38.9,38.9,0,0,1,4.22.46c1.37.31,2.46,1.6,3.77,2.06s2.85.42,4.1,1,2.2,1.8,3.38,2.54,2.81.88,3.9,1.75,1.76,2.25,2.75,3.24a38.29,38.29,0,0,1,3.09,2.87,39.57,39.57,0,0,1,2.38,3.48,39.06,39.06,0,0,1,2.2,3.61c.61,1.26.42,2.84.88,4.17s1.7,2.41,2,3.79-.26,2.87-.1,4.27a37.87,37.87,0,0,1,.41,4.15h0a40.18,40.18,0,0,1,.22,4.22,40.82,40.82,0,0,1-.9,4.12,39.23,39.23,0,0,1-1,4.08,37.39,37.39,0,0,1-1.5,4,38,38,0,0,1-2.48,3.44c-.74,1.19-1.11,2.66-2,3.75s-2.43,1.58-3.42,2.57-1.56,2.43-2.65,3.3a35.79,35.79,0,0,1-3.63,2.16,37,37,0,0,1-3.48,2.39,41.7,41.7,0,0,1-4,1.44,37.12,37.12,0,0,1-4,1.43,38.24,38.24,0,0,1-4.2.51A39.54,39.54,0,0,1,220,254.31Z"/><path class="cls-2" d="M220,244.28c-2.06,0-2.06.34-4.13.34s-2.07-.11-4.14-.11-2.06.06-4.13.06-2.07-.18-4.14-.18-2.07-.15-4.14-.15-2.07-.45-4.14-.45-2.06.92-4.13.92-2.07-.27-4.14-.27-2.06,0-4.13,0-2.07-.65-4.14-.65-2.07.47-4.14.47-2.07-.37-4.14-.37-2.07.47-4.13.47-2.07-.24-4.14-.24-2.07-.39-4.14-.39-2.07,1-4.14,1-2.07-.56-4.14-.56-2.07.26-4.14.26-2.07-.39-4.14-.39-2.07.45-4.14.45-2.07-.59-4.14-.59-2.07.28-4.14.28-2.07.41-4.14.41-2.07-.57-4.14-.57-2.07.33-4.14.33-2.07-.45-4.14-.45-2.07.16-4.14.16-2.07.33-4.14.33-2.07-.63-4.15-.63-2.07.47-4.14.47-2.07.09-4.13.09-2.07-.37-4.14-.37-2.07.33-4.14.33-2.07.22-4.15.22H75.12c-2.07,0-2.07-.23-4.14-.23s-2.07.39-4.14.39-2.07-.91-4.15-.91-2.07.89-4.14.89-2.07-.25-4.14-.25-2.07-.25-4.15-.25-2.07.51-4.14.51-2.08.07-4.15.07-2.08-.92-4.15-.92c-1.42,0-2.86.78-4.24.63a38.08,38.08,0,0,1-4.15-.83c-1.38-.31-2.55-1.29-3.86-1.75a38.51,38.51,0,0,1-3.88-1.51A35.22,35.22,0,0,1,18,238.39a35.93,35.93,0,0,1-3.54-2.25,39.12,39.12,0,0,1-3.4-2.55c-1-1-1.41-2.51-2.28-3.6a36.86,36.86,0,0,1-2.51-3.34,35.25,35.25,0,0,1-1.87-3.74A34.8,34.8,0,0,1,2.87,219c-.46-1.32-1.55-2.46-1.86-3.83S1.1,212.37.94,211a37.86,37.86,0,0,1-.38-4.15H0a36.12,36.12,0,0,1,.72-4.18A37,37,0,0,1,1,198.39a37.17,37.17,0,0,1,1.2-4.06c.47-1.33,1.65-2.36,2.25-3.61S5.21,188,6,186.79a36.19,36.19,0,0,1,2.71-3.23,37.53,37.53,0,0,1,2.66-3.24,39.76,39.76,0,0,1,3.07-2.88,39.41,39.41,0,0,1,3.47-2.38c1.18-.74,2.66-.92,3.92-1.54s2.19-2,3.52-2.47,2.86-.17,4.24-.48a37,37,0,0,1,4.09-.82c1.38-.15,2.76-.81,4.18-.81,2.06,0,2.06.27,4.13.27s2.07.1,4.14.1,2.06-.2,4.13-.2,2.07-.13,4.14-.13,2.07.83,4.14.83,2.07-.54,4.13-.54,2.07.27,4.14.27,2.07.23,4.14.23,2.06,0,4.13,0,2.07-.39,4.14-.39,2.07-.38,4.14-.38,2.07.8,4.14.8,2.07-.2,4.13-.2,2.07-.49,4.14-.49,2.07-.11,4.14-.11,2.07.56,4.14.56,2.07-.2,4.14-.2l4.14,0c2.07,0,2.07-.37,4.14-.37s2.07.62,4.14.62,2.07-.2,4.14-.2,2.07,0,4.14,0,2.07-.53,4.14-.53,2.07.15,4.14.15,2.07,0,4.14,0,2.07.42,4.14.42,2.07.23,4.14.23,2.07-.61,4.14-.61,2.07.64,4.14.64,2.08.12,4.15.12,2.06-.54,4.13-.54,2.07.44,4.14.44,2.07-.68,4.14-.68,2.07.31,4.15.31,2.07-.46,4.14-.46,2.07,0,4.14,0,2.07,1,4.14,1,2.07-.58,4.15-.58,2.07-.16,4.14-.16,2.07.7,4.14.7,2.07-.47,4.15-.47,2.07.12,4.14.12,2.08-.25,4.15-.25,2.08.32,4.15.32c1.42,0,2.85-.45,4.23-.3a37.3,37.3,0,0,1,4.1,1.05,36.33,36.33,0,0,1,3.86,1.64,37.08,37.08,0,0,1,3.91,1.41,37.77,37.77,0,0,1,3.61,2.06,37.69,37.69,0,0,1,3.56,2.19c1.09.87,2.53,1.4,3.52,2.39s1.46,2.47,2.33,3.57a38.86,38.86,0,0,1,2.54,3.32c.74,1.19,1.92,2.17,2.53,3.43s.19,2.95.65,4.27a35.86,35.86,0,0,1,1.38,3.93,34.52,34.52,0,0,1,.87,4.09,36.91,36.91,0,0,1-.15,4.18h.21A36.09,36.09,0,0,1,257,211a36.78,36.78,0,0,1-.25,4.22,34.26,34.26,0,0,1-2.75,8,35.93,35.93,0,0,1-2.16,3.64,36.48,36.48,0,0,1-2.33,3.53,38.37,38.37,0,0,1-2.79,3.19,36.74,36.74,0,0,1-3.25,2.71,38.31,38.31,0,0,1-3.4,2.52c-1.18.74-2.79.69-4.06,1.3s-2.16,2.09-3.49,2.55a37,37,0,0,1-4.1,1.13,36.79,36.79,0,0,1-4.23.28A36.43,36.43,0,0,1,220,244.28Z"/><path class="cls-4" d="M38.09,184.75q6.42,0,6.42,5.47T38,195.73H33.38v7H30.64v-18Zm-4.71,8.64h4.48a4.66,4.66,0,0,0,3-.76,3,3,0,0,0,.94-2.41,2.75,2.75,0,0,0-1-2.37,4.72,4.72,0,0,0-3-.76H33.38Z"/><path class="cls-4" d="M58.15,191.32a7.09,7.09,0,0,1,1.77,4.91,6.91,6.91,0,0,1-1.74,4.86,6.69,6.69,0,0,1-9.52,0,7.71,7.71,0,0,1,0-9.77,6.69,6.69,0,0,1,9.46,0ZM50.55,193a5.37,5.37,0,0,0-.88,3.22,5.31,5.31,0,0,0,.88,3.2,3.33,3.33,0,0,0,2.87,1.46,3.42,3.42,0,0,0,2.9-1.46,6.17,6.17,0,0,0,0-6.42,3.38,3.38,0,0,0-2.9-1.46A3.29,3.29,0,0,0,50.55,193Z"/><path class="cls-4" d="M64.65,189.71l2.74,9.85,2.67-9.85h2.47l2.67,9.85,2.74-9.85h3l-4.41,13H74L71.29,193l-2.71,9.74H66.11l-4.41-13Z"/><path class="cls-4" d="M93.52,191.53A8.83,8.83,0,0,1,95.08,197H85.22a4.81,4.81,0,0,0,1,2.92,3.21,3.21,0,0,0,2.49,1,3.72,3.72,0,0,0,2.27-.65,4.57,4.57,0,0,0,1.18-1.69h2.67a5.86,5.86,0,0,1-1.79,3,6.35,6.35,0,0,1-4.3,1.48,6,6,0,0,1-4.56-1.79,7.9,7.9,0,0,1-.1-9.94,5.6,5.6,0,0,1,4.55-2A5.72,5.72,0,0,1,93.52,191.53Zm-7.17.9A4.36,4.36,0,0,0,85.27,195h7q-.37-3.4-3.55-3.4A3.19,3.19,0,0,0,86.35,192.43Z"/><path class="cls-4" d="M105.71,189.69v2.67a6.46,6.46,0,0,0-1.89-.28,3,3,0,0,0-2.17,1,3.84,3.84,0,0,0-1,2.77v6.9H98v-13h2.67v2a3.8,3.8,0,0,1,1.25-1.59,3.22,3.22,0,0,1,2.12-.73A3.81,3.81,0,0,1,105.71,189.69Z"/><path class="cls-4" d="M118.34,191.53a8.89,8.89,0,0,1,1.57,5.43H110a4.81,4.81,0,0,0,1,2.92,3.21,3.21,0,0,0,2.49,1,3.72,3.72,0,0,0,2.27-.65,4.57,4.57,0,0,0,1.18-1.69h2.67a5.86,5.86,0,0,1-1.79,3,6.35,6.35,0,0,1-4.3,1.48,6,6,0,0,1-4.56-1.79,7.9,7.9,0,0,1-.1-9.94,5.6,5.6,0,0,1,4.56-2A5.71,5.71,0,0,1,118.34,191.53Zm-7.17.9a4.42,4.42,0,0,0-1.08,2.52h7q-.37-3.4-3.55-3.4A3.19,3.19,0,0,0,111.17,192.43Z"/><path class="cls-4" d="M134.83,184.4v18.33h-2.49v-1.56a4.66,4.66,0,0,1-4,1.91,5.44,5.44,0,0,1-4.5-2,7.56,7.56,0,0,1-1.51-4.88,7.36,7.36,0,0,1,1.48-4.76,5.29,5.29,0,0,1,4.41-2,4.72,4.72,0,0,1,4,2.29V184.4Zm-9,8.46a5.58,5.58,0,0,0-.83,3.3,6.06,6.06,0,0,0,.78,3.35,3.24,3.24,0,0,0,2.9,1.41,3.14,3.14,0,0,0,2.69-1.39,5.66,5.66,0,0,0,.83-3.19v-.23a5.43,5.43,0,0,0-1-3.4,3,3,0,0,0-2.44-1.18A3.29,3.29,0,0,0,125.87,192.86Z"/><path class="cls-4" d="M150.16,184.4v7.25a4.68,4.68,0,0,1,4-2.29,5.34,5.34,0,0,1,4.41,2,8.52,8.52,0,0,1,0,9.64,5.48,5.48,0,0,1-4.5,2,4.64,4.64,0,0,1-4-1.91v1.56h-2.5V184.4Zm1,8.31a5.21,5.21,0,0,0-1,3.4v.23a5.58,5.58,0,0,0,.83,3.19,3.1,3.1,0,0,0,2.69,1.39,3.26,3.26,0,0,0,2.9-1.41,6.33,6.33,0,0,0,.78-3.35,5.58,5.58,0,0,0-.83-3.3,3.29,3.29,0,0,0-2.92-1.33A2.83,2.83,0,0,0,151.12,192.71Z"/><path class="cls-4" d="M164.69,189.71l3.57,9.5,3.43-9.5h2.92l-7.08,18h-2.84l2.26-5.28-5.16-12.72Z"/><path class="cls-4" d="M195.28,191.45v-1.74h2.66v12.16c0,4.13-2,6.2-6.06,6.2a7.21,7.21,0,0,1-4.16-1,4.81,4.81,0,0,1-1.78-3.2h2.66a2.42,2.42,0,0,0,1,1.63,4.41,4.41,0,0,0,2.32.48c2.26,0,3.4-1.23,3.4-3.67v-2a4.52,4.52,0,0,1-4,2.17,5.56,5.56,0,0,1-4.28-1.79,6.56,6.56,0,0,1-1.64-4.71A6.68,6.68,0,0,1,187,191.2a5.4,5.4,0,0,1,4.28-1.84A4.52,4.52,0,0,1,195.28,191.45Zm-6.2,1.26a4.8,4.8,0,0,0-1,3.22,5.26,5.26,0,0,0,.75,3,3.18,3.18,0,0,0,2.82,1.31,3.33,3.33,0,0,0,2.67-1.14,5.07,5.07,0,0,0,.93-3.17,5.18,5.18,0,0,0-.93-3.22,3.21,3.21,0,0,0-2.67-1.18A3.07,3.07,0,0,0,189.08,192.71Z"/><path class="cls-4" d="M212.55,187.07a14.87,14.87,0,0,1,0,13.34,5.85,5.85,0,0,1-9.82,0,14.79,14.79,0,0,1,0-13.34,5.85,5.85,0,0,1,9.82,0Zm-8,2.09a12.61,12.61,0,0,0-.65,4.58,12.79,12.79,0,0,0,.65,4.58,3.22,3.22,0,0,0,6.25,0,13.25,13.25,0,0,0,.65-4.58,13.06,13.06,0,0,0-.65-4.58,3.22,3.22,0,0,0-6.25,0Z"/><path class="cls-4" d="M218.84,189.71l3.27,9.7,3.27-9.7h2.9l-4.84,13h-2.66l-4.84-13Z"/><path class="cls-4" d="M40.32,223.94l2.56.81a5.67,5.67,0,0,1-2,3.18,5.57,5.57,0,0,1-3.47,1,5.58,5.58,0,0,1-4.27-1.78,6.81,6.81,0,0,1-1.68-4.86,7.14,7.14,0,0,1,1.69-5.07,5.77,5.77,0,0,1,4.42-1.8,5.43,5.43,0,0,1,3.9,1.42,5.13,5.13,0,0,1,1.33,2.4l-2.61.63a2.74,2.74,0,0,0-1-1.61,2.79,2.79,0,0,0-1.79-.59,3,3,0,0,0-2.36,1,5.11,5.11,0,0,0-.9,3.37,5.51,5.51,0,0,0,.89,3.53,2.91,2.91,0,0,0,2.32,1.05,2.68,2.68,0,0,0,1.81-.66A3.94,3.94,0,0,0,40.32,223.94Z"/><path class="cls-4" d="M44.55,223.88a5.07,5.07,0,0,1,.61-2.41,4.23,4.23,0,0,1,1.74-1.79,5.16,5.16,0,0,1,2.52-.61,4.73,4.73,0,0,1,3.52,1.39,5.26,5.26,0,0,1,0,7.09A4.7,4.7,0,0,1,49.44,229a5.49,5.49,0,0,1-2.48-.59,4,4,0,0,1-1.8-1.72A5.76,5.76,0,0,1,44.55,223.88Zm2.56.13a3.17,3.17,0,0,0,.67,2.16,2.14,2.14,0,0,0,1.65.75,2.1,2.1,0,0,0,1.64-.75,3.13,3.13,0,0,0,.67-2.17,3.09,3.09,0,0,0-.67-2.14,2.1,2.1,0,0,0-1.64-.75,2.14,2.14,0,0,0-1.65.75A3.16,3.16,0,0,0,47.11,224Z"/><path class="cls-4" d="M56.09,219.28h2.3v1.29a3.73,3.73,0,0,1,3-1.5,3.18,3.18,0,0,1,1.58.37A2.9,2.9,0,0,1,64,220.57a4.52,4.52,0,0,1,1.35-1.13,3.3,3.3,0,0,1,1.54-.37,3.49,3.49,0,0,1,1.77.42,2.56,2.56,0,0,1,1.07,1.24,5.25,5.25,0,0,1,.26,2v6.05H67.5v-5.4a4,4,0,0,0-.26-1.82,1.18,1.18,0,0,0-1.07-.54,1.74,1.74,0,0,0-1,.32,1.83,1.83,0,0,0-.67.94,7.12,7.12,0,0,0-.2,2v4.54h-2.5v-5.18a7,7,0,0,0-.14-1.78,1.17,1.17,0,0,0-.41-.6,1.32,1.32,0,0,0-.76-.2,1.83,1.83,0,0,0-1,.32,1.62,1.62,0,0,0-.66.9,6.8,6.8,0,0,0-.2,2v4.59h-2.5Z"/><path class="cls-4" d="M72.43,219.28h2.33v1.39A3.52,3.52,0,0,1,76,219.51a3.47,3.47,0,0,1,1.72-.44,3.62,3.62,0,0,1,2.8,1.29,5.26,5.26,0,0,1,1.15,3.6,5.38,5.38,0,0,1-1.16,3.68A3.6,3.6,0,0,1,77.69,229a3.29,3.29,0,0,1-1.42-.31,5,5,0,0,1-1.34-1.07v4.76h-2.5Zm2.47,4.57a3.6,3.6,0,0,0,.64,2.36,1.92,1.92,0,0,0,1.54.76,1.8,1.8,0,0,0,1.45-.7,3.56,3.56,0,0,0,.58-2.29,3.41,3.41,0,0,0-.6-2.21,1.85,1.85,0,0,0-1.48-.72,1.91,1.91,0,0,0-1.52.7A3.15,3.15,0,0,0,74.9,223.85Z"/><path class="cls-4" d="M85.51,222.17l-2.27-.41a3.56,3.56,0,0,1,1.32-2,4.81,4.81,0,0,1,2.78-.66,6.11,6.11,0,0,1,2.5.39,2.57,2.57,0,0,1,1.15,1,5.25,5.25,0,0,1,.33,2.24l0,2.93a10.22,10.22,0,0,0,.12,1.84,5.35,5.35,0,0,0,.45,1.26H89.39a5.88,5.88,0,0,1-.24-.74c0-.14-.07-.24-.09-.29a4.48,4.48,0,0,1-1.37.94,4.1,4.1,0,0,1-1.56.31,3.24,3.24,0,0,1-2.3-.79,2.62,2.62,0,0,1-.85-2,2.67,2.67,0,0,1,.39-1.43,2.44,2.44,0,0,1,1.07-1,8.33,8.33,0,0,1,2-.58,13.48,13.48,0,0,0,2.43-.62v-.25a1.3,1.3,0,0,0-.35-1,2.19,2.19,0,0,0-1.35-.31,1.76,1.76,0,0,0-1,.27A1.83,1.83,0,0,0,85.51,222.17Zm3.35,2a12.57,12.57,0,0,1-1.52.38A4.67,4.67,0,0,0,86,225a1,1,0,0,0-.49.88,1.23,1.23,0,0,0,.39.91,1.34,1.34,0,0,0,1,.38,2.14,2.14,0,0,0,1.29-.44,1.62,1.62,0,0,0,.6-.83,5.34,5.34,0,0,0,.09-1.22Z"/><path class="cls-4" d="M102.4,228.74H99.9v-4.82a7.22,7.22,0,0,0-.17-2,1.37,1.37,0,0,0-.52-.7,1.54,1.54,0,0,0-.87-.25,2,2,0,0,0-1.16.36,1.77,1.77,0,0,0-.71.95,8,8,0,0,0-.19,2.17v4.28H93.77v-9.46H96.1v1.39a3.87,3.87,0,0,1,4.63-1.3,2.49,2.49,0,0,1,1,.76,2.81,2.81,0,0,1,.49,1.05,7.88,7.88,0,0,1,.14,1.68Z"/><path class="cls-4" d="M104.94,218v-2.32h2.5V218Zm0,10.74v-9.46h2.5v9.46Z"/><path class="cls-4" d="M115.49,225.73l2.49.42a4.09,4.09,0,0,1-1.52,2.09,4.44,4.44,0,0,1-2.59.72,4.25,4.25,0,0,1-3.66-1.61,5.46,5.46,0,0,1-.93-3.26,5.24,5.24,0,0,1,1.23-3.69,4,4,0,0,1,3.11-1.33,4.21,4.21,0,0,1,3.33,1.39,6.24,6.24,0,0,1,1.17,4.28h-6.28a2.52,2.52,0,0,0,.61,1.73,1.91,1.91,0,0,0,1.44.62,1.57,1.57,0,0,0,1-.32A2,2,0,0,0,115.49,225.73Zm.14-2.53a2.46,2.46,0,0,0-.56-1.65,1.72,1.72,0,0,0-1.3-.57,1.75,1.75,0,0,0-1.36.6,2.32,2.32,0,0,0-.52,1.62Z"/><path class="cls-4" d="M119.27,226.05l2.52-.39a1.78,1.78,0,0,0,.65,1.11,2.19,2.19,0,0,0,1.37.38,2.46,2.46,0,0,0,1.46-.36.78.78,0,0,0,.33-.66.68.68,0,0,0-.18-.48,1.91,1.91,0,0,0-.84-.33,13.26,13.26,0,0,1-3.84-1.22,2.45,2.45,0,0,1-1.12-2.13,2.59,2.59,0,0,1,1-2.06,4.53,4.53,0,0,1,3-.84,5.27,5.27,0,0,1,2.89.63,3.25,3.25,0,0,1,1.3,1.87l-2.36.44a1.47,1.47,0,0,0-.57-.85,2.19,2.19,0,0,0-1.21-.29,2.8,2.8,0,0,0-1.42.27.6.6,0,0,0-.28.51.56.56,0,0,0,.25.46,9.44,9.44,0,0,0,2.34.7,6.93,6.93,0,0,1,2.79,1.11,2.34,2.34,0,0,1,.78,1.87A2.86,2.86,0,0,1,127,228a4.8,4.8,0,0,1-3.22.94,5.22,5.22,0,0,1-3.06-.79A3.66,3.66,0,0,1,119.27,226.05Z"/><path class="cls-4" d="M130.24,226.24h2.51V228a6.43,6.43,0,0,1-.19,1.72,2.55,2.55,0,0,1-.71,1.12,3.6,3.6,0,0,1-1.32.79l-.49-1a2.12,2.12,0,0,0,1.08-.68,2.08,2.08,0,0,0,.33-1.2h-1.21Z"/><path class="cls-4" d="M139.79,224.49l2.57-.24a3.09,3.09,0,0,0,.94,1.89,2.81,2.81,0,0,0,1.91.61,2.93,2.93,0,0,0,1.92-.54,1.61,1.61,0,0,0,.65-1.26,1.16,1.16,0,0,0-.28-.79,2.1,2.1,0,0,0-.94-.57c-.31-.1-1-.29-2.12-.57a7.16,7.16,0,0,1-3-1.29,3.4,3.4,0,0,1-1.2-2.63,3.32,3.32,0,0,1,.56-1.86,3.61,3.61,0,0,1,1.63-1.33,6.6,6.6,0,0,1,2.57-.45,5.48,5.48,0,0,1,3.7,1.08,3.81,3.81,0,0,1,1.31,2.88l-2.64.11a2.25,2.25,0,0,0-.72-1.45,2.71,2.71,0,0,0-1.67-.44,3,3,0,0,0-1.8.48,1,1,0,0,0-.42.81,1,1,0,0,0,.39.79,6.85,6.85,0,0,0,2.42.87,13.39,13.39,0,0,1,2.85.94,3.7,3.7,0,0,1,1.44,1.33,3.85,3.85,0,0,1,.52,2.08,3.79,3.79,0,0,1-.62,2.1A3.73,3.73,0,0,1,148,228.5a7.37,7.37,0,0,1-2.85.48,5.66,5.66,0,0,1-3.8-1.15A5,5,0,0,1,139.79,224.49Z"/><path class="cls-4" d="M152.54,219.28h2.34v1.39a3.52,3.52,0,0,1,1.23-1.16,3.44,3.44,0,0,1,1.72-.44,3.58,3.58,0,0,1,2.79,1.29,5.21,5.21,0,0,1,1.15,3.6,5.37,5.37,0,0,1-1.15,3.68,3.62,3.62,0,0,1-2.81,1.32,3.29,3.29,0,0,1-1.42-.31,4.86,4.86,0,0,1-1.34-1.07v4.76h-2.51Zm2.48,4.57a3.66,3.66,0,0,0,.63,2.36,1.93,1.93,0,0,0,1.54.76,1.81,1.81,0,0,0,1.46-.7,3.62,3.62,0,0,0,.58-2.29,3.41,3.41,0,0,0-.6-2.21,1.85,1.85,0,0,0-1.48-.72,1.91,1.91,0,0,0-1.52.7A3.15,3.15,0,0,0,155,223.85Z"/><path class="cls-4" d="M163.18,223.88a5.09,5.09,0,0,1,.62-2.41,4.23,4.23,0,0,1,1.74-1.79,5.16,5.16,0,0,1,2.52-.61,4.69,4.69,0,0,1,3.51,1.39,5.23,5.23,0,0,1,0,7.09,4.67,4.67,0,0,1-3.49,1.41,5.55,5.55,0,0,1-2.48-.59,4,4,0,0,1-1.79-1.72A5.76,5.76,0,0,1,163.18,223.88Zm2.57.13a3.12,3.12,0,0,0,.67,2.16,2.18,2.18,0,0,0,3.29,0,3.18,3.18,0,0,0,.66-2.17,3.13,3.13,0,0,0-.66-2.14,2.18,2.18,0,0,0-3.29,0A3.11,3.11,0,0,0,165.75,224Z"/><path class="cls-4" d="M183.51,228.74H181v-4.82a7.36,7.36,0,0,0-.16-2,1.43,1.43,0,0,0-.52-.7,1.54,1.54,0,0,0-.87-.25,2,2,0,0,0-1.17.36,1.83,1.83,0,0,0-.71.95,8.47,8.47,0,0,0-.19,2.17v4.28h-2.5v-9.46h2.32v1.39a3.8,3.8,0,0,1,3.12-1.6,3.75,3.75,0,0,1,1.52.3,2.56,2.56,0,0,1,1,.76,3,3,0,0,1,.49,1.05,8,8,0,0,1,.13,1.68Z"/><path class="cls-4" d="M185.17,226.05l2.51-.39a1.87,1.87,0,0,0,.65,1.11,2.24,2.24,0,0,0,1.38.38,2.48,2.48,0,0,0,1.46-.36.78.78,0,0,0,.33-.66.68.68,0,0,0-.18-.48,2,2,0,0,0-.84-.33,13.26,13.26,0,0,1-3.84-1.22,2.43,2.43,0,0,1-1.12-2.13,2.59,2.59,0,0,1,1-2.06,4.53,4.53,0,0,1,3-.84,5.27,5.27,0,0,1,2.89.63,3.25,3.25,0,0,1,1.3,1.87l-2.36.44a1.44,1.44,0,0,0-.58-.85,2.13,2.13,0,0,0-1.2-.29,2.77,2.77,0,0,0-1.42.27.61.61,0,0,0-.29.51.59.59,0,0,0,.25.46,9.78,9.78,0,0,0,2.34.7,6.92,6.92,0,0,1,2.8,1.11,2.34,2.34,0,0,1,.78,1.87,2.84,2.84,0,0,1-1.09,2.23,4.75,4.75,0,0,1-3.21.94,5.22,5.22,0,0,1-3.06-.79A3.57,3.57,0,0,1,185.17,226.05Z"/><path class="cls-4" d="M195.62,223.88a5.09,5.09,0,0,1,.62-2.41,4.23,4.23,0,0,1,1.74-1.79,5.16,5.16,0,0,1,2.52-.61,4.73,4.73,0,0,1,3.52,1.39,5.24,5.24,0,0,1,0,7.09,4.67,4.67,0,0,1-3.49,1.41,5.55,5.55,0,0,1-2.48-.59,4.08,4.08,0,0,1-1.79-1.72A5.76,5.76,0,0,1,195.62,223.88Zm2.57.13a3.12,3.12,0,0,0,.67,2.16,2.18,2.18,0,0,0,3.29,0,3.18,3.18,0,0,0,.66-2.17,3.13,3.13,0,0,0-.66-2.14,2.18,2.18,0,0,0-3.29,0A3.11,3.11,0,0,0,198.19,224Z"/><path class="cls-4" d="M209.74,228.74h-2.5v-9.46h2.33v1.35a3.86,3.86,0,0,1,1.07-1.26,2,2,0,0,1,1.08-.3,3.23,3.23,0,0,1,1.65.47l-.77,2.18a2.27,2.27,0,0,0-1.18-.41,1.4,1.4,0,0,0-.89.29,2.07,2.07,0,0,0-.58,1.05,14.84,14.84,0,0,0-.21,3.17Z"/><path class="cls-4" d="M213.57,226.05l2.51-.39a1.83,1.83,0,0,0,.65,1.11,2.21,2.21,0,0,0,1.37.38,2.43,2.43,0,0,0,1.46-.36.78.78,0,0,0,.33-.66.72.72,0,0,0-.17-.48,2,2,0,0,0-.84-.33A13.26,13.26,0,0,1,215,224.1a2.43,2.43,0,0,1-1.12-2.13,2.59,2.59,0,0,1,1-2.06,4.51,4.51,0,0,1,3-.84,5.26,5.26,0,0,1,2.88.63,3.27,3.27,0,0,1,1.31,1.87l-2.37.44a1.47,1.47,0,0,0-.57-.85,2.16,2.16,0,0,0-1.21-.29,2.73,2.73,0,0,0-1.41.27.61.61,0,0,0-.29.51.56.56,0,0,0,.25.46,9.78,9.78,0,0,0,2.34.7,6.93,6.93,0,0,1,2.79,1.11,2.34,2.34,0,0,1,.79,1.87,2.87,2.87,0,0,1-1.09,2.23,4.8,4.8,0,0,1-3.22.94,5.22,5.22,0,0,1-3.06-.79A3.6,3.6,0,0,1,213.57,226.05Z"/></g></g></svg>