<svg xmlns="http://www.w3.org/2000/svg" viewBox="0 0 256.29 210.33"><defs><style>.cls-1{fill:#001d2f}.cls-2{fill:#c9caca}.cls-3{fill:#fff}.cls-11,.cls-4,.cls-7,.cls-8{fill:none}.cls-4{stroke:#c9caca}.cls-4,.cls-7,.cls-8{stroke-linecap:round;stroke-linejoin:round}.cls-4{stroke-width:.95px}.cls-6{fill:#e9506c}.cls-7,.cls-8{stroke:#001d2f}.cls-7{stroke-width:1.04px}.cls-8{stroke-width:.52px}.cls-11{stroke-miterlimit:10}.cls-10{fill:#f5a117}.cls-11{stroke:#fff;stroke-width:.54px}</style></defs><g id="Layer_2" data-name="Layer 2"><g id="圖層_1" data-name="圖層 1"><path class="cls-1" d="M201.24 51.79H198.97s-.07 0-.07.09v1c0 .52-.06.49-.06 1v2c0 .51-.33.61 0 1s.41 0 .79 0h.78c.38 0 .52.31.76 0s0-.47 0-1 .05-.48.05-1-.08-.48-.08-1v-1c0-.51.1-.6.1-1.09z"/><path class="cls-2" d="M198.89 56.65c-.29.33 0 .44 0 .89s.06.44.06.88v4.43c0 .45-.3.55 0 .89s.38 0 .76 0h.78c.38 0 .55.34.8.05s-.07-.47-.07-.91.08-.44.08-.89-.07-.44-.07-.88v-.88c0-.44-.05-.45-.05-.89s.05-.44.05-.89v-.89c0-.44.3-.57 0-.9s-.41 0-.79 0-.39.09-.77 0-.52-.3-.78-.01z"/><path class="cls-1" d="M201.18 63.77c-.25-.29-.36 0-.74 0h-.77c-.39 0-.55-.33-.8 0s0 .47 0 .92v3.6c0 .45.07.45.07.91s-.07.45-.07.9v.9c0 .45.07.45.07.9v.9c0 .45-.07.45-.07.9s.06.45.06.9V82.72c0 .45-.27.53 0 .92s.39.17.78.35l.76.37c.39.18.42.57.77.34s0-.43 0-.86v-.87-.87-.87-.88-.87-.87-.87c0-.43-.05-.44-.05-.87V76v-.87c0-.43-.07-.44-.07-.87s.06-.44.06-.87v-.88-.87-.87-.87c0-.43-.07-.44-.07-.88s.06-.43.06-.87v-.87c0-.43-.06-.44-.06-.88s.05-.44.05-.87a3.25 3.25 0 0 1 0-.88c.17-.46.31-.55.02-.88z"/><path class="cls-2" d="M198.89 83.6c-.37.25 0 .45 0 .89s.07.44.07.87V95c0 .44-.06.44-.06.88v6.14c0 .43.06.44.06.88s-.06.44-.06.88.06.44.06.88v1.76c0 .44-.07.44-.07.88s.06.44.06.88-.07.44-.07.88.07.44.07.88v5.27c0 .44.05.44.05.88s-.05.44-.05.88V123.16h2.16a.08.08 0 0 0 .09-.07v-.89-.9-.89-.89c0-.44.06-.45.06-.9v-.89c0-.45-.07-.44-.07-.89V116v-.89-1.78-.9c0-.45.07-.44.07-.89s-.06-.45-.06-.89v-1.79c0-.45-.06-.45-.06-.89s.05-.45.05-.9-.05-.44-.05-.89.05-.45.05-.9v-.89-.9-.89c0-.45-.07-.45-.07-.89v-.9-.9-.89-.9-.89c0-.45-.05-.45-.05-.89v-.9-.89-.9-.89c0-.45.05-.45.05-.9v-.9-.89-.9-.89-.9-.9-.91c0-.46.26-.51 0-.89s-.38-.18-.76-.36-.45-.09-.78-.36-.34-.59-.69-.36z"/><path class="cls-1" d="M207.25 51.79H205s-.1 0-.1.06v3c0 .52-.06.49-.06 1s-.27.59 0 1 .38 0 .76 0 .39-.07.77-.07.5.32.75 0 0-.45 0-.94v-1c0-.48.06-.48.06-1v-1c0-.51.07-.56.07-1.05z"/><path class="cls-2" d="M205 56.65c-.29.34 0 .44 0 .89v5.31c0 .44-.32.57 0 .91s.4 0 .78 0h.77c.38 0 .54.31.8 0s0-.46 0-.9v-.89-.88-.88-.89-.89-.89c0-.45.28-.55 0-.89s-.39 0-.77 0-.39.09-.77 0-.59-.29-.81 0z"/><path class="cls-1" d="M207.26 63.76c-.26-.29-.37 0-.75 0s-.39-.07-.78-.07-.49-.23-.74.06 0 .41 0 .85-.05.43-.05.87v4.35c0 .43-.08.44-.08.87s.06.44.06.88v2.61c0 .44-.06.44-.06.87v1.74c0 .44.06.44.06.87v.88c0 .44-.06.43-.06.87v3.49c0 .43-.06.44-.06.88v.87c0 .44.05.44.05.88s-.26.51 0 .88.36.22.75.4.42.1.8.28.41.65.77.42 0-.46 0-.9v-.87c0-.43-.06-.44-.06-.88s.06-.44.06-.88v-.88-.88-.88-1.74-.88-.88-.88c0-.44.06-.44.06-.88v-.87-.88c0-.44.08-.44.08-.88v-.88-.88c0-.44-.07-.44-.07-.88v-.88c0-.44.06-.44.06-.88s-.06-.44-.06-.88v-.88-1.77a2.89 2.89 0 0 1 0-.88c.16-.45.31-.54.02-.88z"/><path class="cls-2" d="M205 86.46c-.36.26 0 .42 0 .87v.89c0 .45-.05.45-.05.9v1.78c0 .44.05.45.05.89v.9c0 .45-.05.44-.05.89s.08.44.08.89v3.58c0 .45-.05.45-.05.89v.9c0 .45.05.44.05.89s-.07.45-.07.9V115.96c0 .45.05.45.05.9V123.16s0 .06.08.06h2.16s.11-.06.11-.1c0-.45-.06-.45-.06-.89v-.89-.89-.89-.89-.88-1.78c0-.44-.05-.44-.05-.89s.06-.44.06-.89v-.89-.89-.89-.89-.89c0-.45-.06-.44-.06-.89V108v-.89-.89-.89-.89c0-.44.06-.45.06-.89v-.9-.89-.89-.89-.89c0-.44.07-.45.07-.89s-.05-.44-.05-.89.05-.45.05-.89v-.89-.9c0-.45-.07-.44-.07-.89s.07-.45.07-.89V91.1v-1.79-.9c0-.45.19-.5 0-.88s-.37-.17-.76-.35-.44-.1-.77-.37-.52-.59-.85-.35z"/><path class="cls-1" d="M213.38 51.79s-.07-.09-.11-.09h-1.08c-.54 0-.54.06-1.08.06h-.09v3c0 .49-.05.49-.05 1s-.27.6 0 1 .38 0 .77 0h.77c.38 0 .52.3.76 0s0-.46 0-1v-1c0-.52-.05-.48-.05-1v-1c0-.51.16-.48.16-.97z"/><path class="cls-2" d="M211 56.64c-.29.33 0 .45 0 .9s.05.44.05.88-.07.44-.07.88V62.89c0 .44-.28.53 0 .87s.35 0 .74 0h.77c.38 0 .5.27.75 0s.05-.43.05-.87V62v-.88-.88c0-.44.05-.45.05-.89v-.89-.89c0-.45.25-.56 0-.89s-.39 0-.78 0a2.43 2.43 0 0 1-.76 0c-.4-.16-.53-.33-.8-.04z"/><path class="cls-1" d="M213.33 63.76c-.25-.3-.37 0-.76 0s-.38.05-.77.05-.54-.34-.79-.05.06.45.06.89V70.8c0 .44-.06.44-.06.88v3.51c0 .44.06.44.06.88s-.05.44-.05.88.05.44.05.88-.07.44-.07.87v8.81c0 .44.06.44.06.89s-.24.49 0 .87.35.21.73.38l.78.36c.38.18.4.55.75.31s0-.4 0-.85v-.88-.88c0-.44-.06-.45-.06-.89s.07-.44.07-.88v-.89c0-.45-.05-.44-.05-.88s.05-.44.05-.89v-.88-.89-.88-.89-.88-.89-.88-1.77-.89-.88-.89-.88c0-.44-.06-.45-.06-.89V70c0-.44.07-.44.07-.88v-.89-.89-.89-.89a3 3 0 0 1 0-.89c.1-.49.28-.58-.01-.91z"/><path class="cls-2" d="M211 89.26c-.37.25 0 .44 0 .88V105.28c0 .45.07.45.07.89V109.74c0 .44.05.45.05.9v.89c0 .44-.06.44-.06.89v3.57c0 .45.07.44.07.89V123.26h2.16s.12 0 .12-.07v-.89-.88-.88-.89-.88-.88c0-.44-.05-.45-.05-.89s.05-.44.05-.89v-.88-.89-.88c0-.44-.08-.45-.08-.89v-.89-.88-1.8-.88-.89c0-.44.06-.44.06-.89v-.89-.88c0-.44.07-.45.07-.89s-.07-.45-.07-.89v-.89-.88-.89-.88-.89-.89-.89-.89-.89c0-.45.06-.44.06-.89V93v-.89-.9c0-.45.22-.49 0-.87s-.34-.24-.73-.42-.43-.08-.76-.35-.57-.57-.96-.31z"/><path class="cls-3" d="M222.51 52.92c-1.25 0-1.25.11-2.51.11s-1.26.09-2.51.09-1.26-.43-2.52-.43-1.25.25-2.51.25-1.26.06-2.46.06-1.26-.09-2.52-.09h-2.51c-1.26 0-1.26.16-2.51.16s-1.26-.14-2.52-.14-1.25-.08-2.51-.08-1.25-.15-2.51-.15-1.25.14-2.51.14h-2.51c-1.26 0-1.26.1-2.51.1s-1.26-.12-2.52-.12-1.25.28-2.51.28h-2.56c-1.26 0-1.26-.08-2.52-.08s-1.26-.21-2.51-.21h-2.52c-1.26 0-1.26.28-2.51.28s-1.26-.09-2.52-.09-1.26-.17-2.52-.17-1.26.2-2.51.2-1.26-.2-2.52-.2-1.25-.05-2.51-.05-1.26.14-2.52.14-1.26-.11-2.52-.11-1.26.25-2.52.25h-5c-.25 0-.41-.35-.41-.61V50c0-1.22-.19-1.2-.19-2.43s.14-1.24.14-2.47.07-1.23.07-2.46-.23-1.23-.23-2.46.02-1.18.02-2.47.22-1.23.22-2.46v-2.46c0-1.23-.26-1.24-.26-2.47v-2.46c0-1.23.32-1.24.32-2.47s-.09-1.23-.09-2.47-.1-1.23-.1-2.46.07-1.24.07-2.47-.23-1.23-.23-2.46-.06-1.24-.06-2.47.13-1.23.13-2.47-.13-1.23-.13-2.46.3-1.24.3-2.47V3.18c0-1.24-.23-1.18-.23-2.47 0-.26.36-.52.61-.52h2.52c1.26 0 1.25-.09 2.51-.09s1.26.07 2.51.07h2.52c1.25 0 1.25.19 2.51.19H162.15c1.25 0 1.25-.29 2.51-.29s1.26-.1 2.52-.1 1.25.16 2.51.16 1.25.25 2.5.25h2.51c1.25 0 1.3-.38 2.52-.38s1.25.09 2.51.09 1.26.21 2.51.21 1.26.06 2.52.06 1.25-.2 2.51-.2 1.26.16 2.51.16 1.26-.3 2.52-.3 1.26.3 2.51.3 1.26-.32 2.52-.32 1.26.27 2.52.27h2.51c1.25 0 1.26-.09 2.52-.09s1.26-.18 2.51-.18 1.26.42 2.52.42 1.26-.39 2.52-.39 1.26.2 2.52.2h7.52c.26 0 .68.23.68.49 0 1.23-.41 1.23-.41 2.46v2.45c0 1.23.23 1.23.23 2.46s.17 1.23.17 2.46-.09 1.24-.09 2.47.14 1.23.14 2.46-.33 1.23-.33 2.46.26 1.24.26 2.47.05 1.23.05 2.46-.44 1.24-.44 2.47.27 1.23.27 2.46-.32 1.24-.32 2.47.23 1.23.23 2.47.16 1.23.16 2.46-.25 1.23-.25 2.47-.06 1.23-.06 2.46v4.94c0 1.24.4 1.23.4 2.47s-.29 1.23-.29 2.47.26 1.24.26 2.47c.04.26-.36.44-.62.44z"/><path class="cls-4" d="M148.4 27.03h13.57l2.32-10.49 4.01 19.9 2.78-12.8 1.69 6.78 3.71-12.8 3.39 16.04 3.24-8.79 2.16 5.55 2.78-7.25 3.23 12.35 3.25-13.89 2.46 8.33 2.32-4.78 2.77 8.02 3.55-11.41 2.78 8.02 1.08-3.55h9.1"/><path class="cls-4" d="M148.14 4.86h70.38v42.53h-70.38z"/><path d="M101.15 151.4h-2.5c-1.25 0-1.25-.06-2.5-.06s-1.24-.15-2.49-.15-1.25-.21-2.5-.21-1.25.27-2.5.27-1.24-.14-2.49-.14-1.25.22-2.5.22-1.24-.32-2.49-.32-1.24.3-2.49.3H73.7c-1.25 0-1.25-.17-2.5-.17h-4.99c-1.25 0-1.25.35-2.5.35s-1.25-.16-2.5-.16S60 151 58.72 151s-1.25.38-2.5.38h-2.5c-1.25 0-1.25-.37-2.5-.37s-1.25.13-2.5.13-1.25.15-2.5.15-1.24.14-2.49.14-1.25-.44-2.5-.44-1.26.2-2.51.2-1.25-.08-2.5-.08-1.25.1-2.5.1-1.26.1-2.51.1a.56.56 0 0 1-.49-.55c0-1.24.07-1.24.07-2.49s-.24-1.24-.24-2.48.43-1.25.43-2.49-.18-1.25-.18-2.49v-2.49c0-1.24-.22-1.25-.22-2.49s-.06-1.25-.06-2.49.46-1.25.46-2.49v-2.49c0-1.24-.48-1.25-.48-2.49s.14-1.25.14-2.49.33-1.24.33-2.49-.09-1.24-.09-2.48-.38-1.25-.38-2.49.29-1.24.29-2.49.2-1.24.2-2.49-.39-1.24-.39-2.49.2-1.24.2-2.48.07-1.25.07-2.5-.18-1.24-.18-2.49.25-1.24.25-2.49-.19-1.24-.19-2.49-.09-1.25-.09-2.49.23-1.25.23-2.49-.05-1.25-.05-2.5-.2-1.24-.2-2.49-.13-1.24-.13-2.49.49-1.24.49-2.49-.17-1.25-.17-2.5v-2.49c0-1.25-.29-1.25-.29-2.5s.4-1.25.4-2.5-.1-1.25-.1-2.5c0-.25.14-.34.4-.34 1.25 0 1.25-.33 2.49-.33s1.25.1 2.5.1 1.25.24 2.5.24 1.25-.18 2.49-.18h2.5c1.25 0 1.25-.1 2.5-.1s1.24.11 2.49.11 1.22-.06 2.46-.06 1.25.19 2.49.19 1.25-.26 2.5-.26 1.25.32 2.5.32 1.24-.33 2.49-.33h2.5c1.25 0 1.25.11 2.49.11s1.25.07 2.5.07 1.25-.15 2.5-.15h2.5c1.25 0 1.25.09 2.5.09s1.25.25 2.49.25h2.5c1.25 0 1.25-.17 2.5-.17s1.25-.2 2.5-.2 1.25.29 2.5.29 1.25-.25 2.5-.25 1.25-.08 2.5-.08 1.25.12 2.5.12 1.26.13 2.51.13 1.25-.15 2.51-.15c.25 0 .41.32.41.57 0 1.25-.08 1.25-.08 2.49s.06 1.25.06 2.49.24 1.25.24 2.49-.42 1.25-.42 2.49.49 1.25.49 2.49-.47 1.24-.47 2.49.44 1.24.44 2.49v2.49c0 1.25-.11 1.24-.11 2.49s-.11 1.24-.11 2.49.16 1.24.16 2.49v2.49c0 1.25-.27 1.24-.27 2.48s.31 1.24.31 2.49-.13 1.24-.13 2.49V110.86c0 1.24.18 1.25.18 2.49s-.39 1.25-.39 2.49.29 1.25.29 2.49-.27 1.25-.27 2.5.2 1.24.2 2.49v4.98c0 1.25-.12 1.25-.12 2.49s.21 1.25.21 2.5-.35 1.24-.35 2.49.21 1.24.21 2.49-.15 1.25-.15 2.49.19 1.25.19 2.5-.18 1.25-.18 2.49.1 1.25.1 2.5.16 1.25.16 2.5a.75.75 0 0 1-.6.65z" fill="#633a7c"/><path class="cls-2" d="M218.47 80.94h-8.08c-.45 0-.45.06-.9.06s-.44-.14-.89-.14-.45.15-.9.15-.45-.14-.9-.14h-.9c-.45 0-.45.08-.9.08s-.45-.08-.89-.08h-1.8c-.45 0-.45.11-.9.11s-.45-.08-.89-.08h-.9c-.45 0-.45.07-.9.07s-.45-.08-.9-.08-.45.06-.9.06h-3.6c-.45 0-.45.13-.9.13h-.91c-.46 0-.45-.08-.9-.08s-.46.07-.91.07c-.08 0-.15-.11-.15-.18v-.9-.91-.9-.9c0-.45.07-.45.07-.91v-.9c0-.45-.07-.45-.07-.9s.11-.45.11-.9-.07-.45-.07-.9-.05-.45-.05-.9v-.91-.9c0-.45.09-.45.09-.9v-.91c0-.45-.07-.45-.07-.9s.1-.45.1-.9-.1-.46-.1-.91.08-.45.08-.91-.1-.45-.1-.91.06-.45.06-.91a.15.15 0 0 1 .13-.16h.9c.45 0 .45-.1.89-.1H195.11c.45 0 .45.07.9.07h2.69c.45 0 .45.12.9.12s.45-.14.9-.14.45.12.9.12h2.69c.45 0 .45-.09.9-.09h.9c.45 0 .45.11.9.11h.89c.45 0 .45-.08.9-.08s.45.05.9.05h.9c.45 0 .45.11.9.11s.45-.12.9-.12.45.11.9.11h3.6c.46 0 .46.06.91.06h.91a.13.13 0 0 1 .13.13V70.22c0 .45.13.45.13.9s-.12.45-.12.9v3.62c0 .46.08.45.08.9s-.11.45-.11.9.06.45.06.91v.91c0 .46-.11.45-.11.91v.91c-.01-.18-.02-.14-.09-.14z"/><path class="cls-1" d="M222.63 80.93h-1.79c-.45 0-.45-.07-.9-.07s-.45.07-.9.07-.45-.08-.89-.08-.45.1-.9.1-.45-.07-.9-.07h-.89c-.45 0-.45-.09-.9-.09s-.45.07-.9.07h-.9c-.45 0-.45.07-.9.07h-.89c-.45 0-.45-.09-.9-.09s-.45.07-.9.07-.45-.12-.9-.12-.45.08-.9.08h-.9c-.45 0-.45.05-.89.05h-1.8c-.45 0-.45-.05-.9-.05h-3.6c-.45 0-.45.07-.9.07h-.89c-.44 0-.46.08-.91.08s-.45-.06-.9-.06-.45-.06-.91-.06-.45.07-.9.07c-.08 0-.22-.06-.22-.13 0-.45.11-.45.11-.9v-1.81-.9-.91c0-.46.08-.45.08-.9s-.1-.45-.1-.9v-1.8-.9-.91c0-.46.1-.45.1-.9s-.1-.45-.1-.9v-.91-.9c0-.45.06-.45.06-.9s-.09-.46-.09-.91v-.91-.91-.91c0-.08.13-.16.21-.16h.89c.45 0 .45-.09.9-.09s.45.15.9.15h.9c.44 0 .44-.06.89-.06h4.49c.45 0 .45-.05.9-.05s.44.08.89.08h.9c.45 0 .45-.06.9-.06h1.8c.45 0 .45-.12.9-.12s.45.09.9.09h1.79c.45 0 .45-.08.89-.08s.45.08.9.08h.9c.45 0 .45-.06.9-.06s.45.07.9.07.45-.09.9-.09h.9c.45 0 .45.14.9.14s.45-.09.9-.09.46-.05.91-.05h1.81c.08 0 .19.08.19.16v3.61c0 .45.08.45.08.9s-.12.45-.12.91v3.6c0 .45.05.45.05.9v1.81c0 .45.07.45.07.91v2.71c0 .46.11.45.11.91v1.82c-.26.2-.35.23-.43.23z"/><path class="cls-6" d="M151.48 93.2h-2.47c-1.24 0-1.23-.21-2.47-.21s-1.24.24-2.47.24-1.24-.16-2.48-.16-1.23-.11-2.46-.11h-4.94c-1.23 0-1.24.15-2.47.15H116.88c-1.24 0-1.23.1-2.47.1h-2.48c-1.24 0-1.23-.1-2.47-.1s-1.24.35-2.47.35-1.24-.09-2.48-.09h-2.47c-1.23 0-1.24-.37-2.48-.37s-1.23.42-2.47.42-1.24-.35-2.48-.35-1.24.13-2.48.13-1.24.16-2.48.16-1.24-.19-2.48-.19a.43.43 0 0 1-.46-.43c0-1.27.21-1.27.21-2.54s-.15-1.27-.15-2.54-.13-1.27-.13-2.53-.16-1.27-.16-2.54v-2.54c0-1.27.23-1.27.23-2.54V75c0-1.27.21-1.27.21-2.54s-.25-1.26-.25-2.53-.2-1.27-.2-2.53v-2.54c0-1.27.32-1.27.32-2.54v-2.53c0-1.26-.12-1.27-.12-2.54s.14-1.27.14-2.54.1-1.27.1-2.54v-2.54c0-1.27-.32-1.27-.32-2.54s.05-1.27.05-2.54-.14-1.29-.14-2.55.19-1.27.19-2.54v-2.54c0-1.27.21-1.27.21-2.54s-.22-1.27-.22-2.54V29.3v-2.54c0-1.27.16-1.27.16-2.55s.07-1.27.07-2.54-.3-1.28-.3-2.55c0-.26.26-.62.52-.62 1.23 0 1.23.3 2.47.3s1.24-.39 2.47-.39 1.24.13 2.47.13h2.48c1.24 0 1.23.12 2.47.12s1.23.07 2.46.07 1.24-.05 2.47-.05 1.24-.1 2.47-.1 1.24.05 2.48.05 1.23.2 2.47.2 1.23-.26 2.47-.26 1.24.22 2.47.22h4.95c1.24 0 1.24-.22 2.47-.22s1.24.29 2.48.29 1.23-.43 2.47-.43 1.24.13 2.48.13 1.23.24 2.47.24h2.47c1.23 0 1.24-.14 2.48-.14s1.24.16 2.48.16 1.23-.36 2.47-.36 1.24.33 2.48.33h2.48c1.24 0 1.24-.31 2.48-.31.26 0 .37.4.37.66 0 1.27-.06 1.27-.06 2.54s-.09 1.26-.09 2.53v2.54c0 1.27.15 1.27.15 2.54s.18 1.27.18 2.54-.18 1.27-.18 2.53.33 1.27.33 2.54-.32 1.27-.32 2.54.13 1.27.13 2.53-.17 1.27-.17 2.54.2 1.27.2 2.54-.1 1.27-.1 2.53.08 1.27.08 2.54-.16 1.27-.16 2.54.19 1.27.19 2.54-.1 1.27-.1 2.53.15 1.27.15 2.54-.36 1.27-.36 2.54.31 1.27.31 2.54-.25 1.27-.25 2.54v2.54c0 1.27.36 1.27.36 2.55s-.25 1.26-.25 2.53.24 1.27.24 2.54-.08 1.27-.08 2.54-.1 1.28-.1 2.55-.17 1.27-.17 2.54.09 1.28.09 2.55-.1 1.27-.1 2.55c0 .22.01.42-.25.42z"/><path class="cls-4" d="M103.39 48.14h40.84v15.52h-40.84z"/><path class="cls-2" d="M113.94 106.44l.06 3.89h11.57l-1.05-10.02-10.58 6.13z"/><path class="cls-1" d="M124.17 96.95l-2.3-16.7-8.33-1.69.34 23.91.06 3.97 10.58-6.13-.35-3.36z"/><path class="cls-2" d="M114.92 112.8h17.12v24.07h-17.12z"/><path class="cls-3" d="M107.83 77.47l7.7.43.87-1.23-4.16-5.38-4.41 6.18z"/><path class="cls-2" d="M122.88 56.38l-10.64 14.91 4.16 5.38 11.7-16.45-5.22-3.84z"/><path class="cls-3" transform="rotate(16.68 100.394 94.959)" d="M96.9 88.3h6.99v13.32H96.9z"/><path class="cls-1" transform="rotate(16.68 99.416 98.273)" d="M95.9 97.47h6.99v1.63H95.9z"/><path class="cls-2" transform="rotate(.6 109.366 95.877)" d="M105.57 88.54h6.99v14.25h-6.99z"/><path class="cls-1" transform="rotate(.6 109.386 99.697)" d="M105.53 98.78h6.99v1.63h-6.99z"/><path class="cls-2" transform="rotate(163.32 117.728 94.963)" d="M114.23 88.3h6.99v13.32h-6.99z"/><path class="cls-1" transform="rotate(163.32 118.723 98.281)" d="M115.23 97.47h6.99v1.63h-6.99z"/><path class="cls-1" d="M101.07 76.55h16.05a5.3 5.3 0 0 1 5.3 5.3v7.79H95.77v-7.79a5.3 5.3 0 0 1 5.3-5.3z"/><path class="cls-2" d="M95.7 86.34h26.79v1.81H95.7z"/><path class="cls-3" d="M112.47 89.59l7.65 1.2-.35-1.16-7.3-.04z"/><path class="cls-2" d="M98.33 89.65l6.84 1.22.48-1.28-7.32.06z"/><path class="cls-3" d="M112.61 89.57l-6.96.02 6.94 1.25.02-1.27z"/><rect class="cls-1" x="91.63" y="109.87" width="33.32" height="4.17" rx=".49" ry=".49"/><circle class="cls-2" cx="109.22" cy="75.16" r="4.87"/><circle class="cls-1" cx="109.22" cy="75.16" r="2.3"/><path class="cls-1" d="M89.86 134.93h40a2.66 2.66 0 0 1 2.66 2.66v6.75H85.77V139a4.09 4.09 0 0 1 4.09-4.07zM129.47 58.29l-5.28-3.76-1.31 1.85 5.22 3.84 1.37-1.93z"/><path class="cls-3" d="M130.66 94.29l-9.85-10.92a.08.08 0 0 0-.06 0l-8.56-2.14h-.08l-7.43 3a.14.14 0 0 0 0 .24l4.54 3.53 6-.31s.77 9.1 4.94 8.33l2 .15 3.55 7.71zM167.37 64.05L142.69 82l9.31 36.2-9.26 27.61s78.68 1.24 78.68 0 6.12-61.08-54.05-81.76z"/><path class="cls-3" d="M172.62 84.42l-21 29-21-19.13-13.84 25.61 28.38 29h20.05l26.54-36.1s2.47-29.31-19.13-28.38z"/><path class="cls-7" d="M172.62 84.42l-20.98 29-8.72-7.71"/><path class="cls-1" d="M165.22 148.9l26.53-36.1-19.21 35.95-7.32.15zM137.83 77.47l4.86 4.48 5.73-4.15-10.34-.49-.25.16z"/><path class="cls-3" d="M164.21 59.66l-26.13 17.65 10.34.49 18.95-13.75-3.16-4.39z"/><path class="cls-8" d="M105.82 85.19l6.64-2.32M106.75 86.42l6.63-2.31M107.52 87.66l6.63-2.32"/><path class="cls-3" d="M163.21 61.74l-20.05-21.9-20.37 3.7 8.02 12.49-2.47 7.41 5.1-2.78 5.4 7.71 5.24-4.01 3.55 6.83 14.19-8.37 1.39-1.08z"/><path class="cls-1" d="M143.15 39.83s-30.54 5.56-30.08 5.56 3.86 5.4 13.58 4.16l12.19-1.85a4.55 4.55 0 0 0 4.62 3.24s0-3.89 2.26-3.23a2.07 2.07 0 0 1 1.09.8 4.52 4.52 0 0 1 .16 5.34.5.5 0 0 0 .44.76l8.88-.48zM133.79 55.1c.41.71.3 1.12-.09 1.34s-.9.18-1.31-.54-.43-1.48 0-1.7.99.18 1.4.9z"/><path class="cls-7" d="M136.6 61.82a4 4 0 0 0 2.93-3.55"/><path class="cls-6" d="M144 64.42l1.04 1.93 3.59-5.09-4.63 3.16zM162.42 60.87l-14.95 10.09 13.73-11.45 1.22 1.36z"/><path class="cls-7" d="M126.8 130.85c.47-.46 7.56-14.35 7.56-14.35"/><circle class="cls-7" cx="132.05" cy="103.55" r="1.54"/><path class="cls-6" d="M130.66 94.29l-5.05 9.41 3.72-10.95 1.33 1.54z"/><path class="cls-3" d="M100.58 108.33h16.66v1.42h-16.66z"/><path d="M205.84 71.77a4.3 4.3 0 0 1-.18 1.61 4.09 4.09 0 0 1-1 1.24 4 4 0 0 1-1.32.86 3.74 3.74 0 0 1-1.53.31 4 4 0 0 1-1.55-.29 4.13 4.13 0 0 1-1.42-.76 4.6 4.6 0 0 1-1.06-1.31 4.55 4.55 0 0 1-.12-1.66 3.88 3.88 0 0 1 .41-1.55 4.48 4.48 0 0 1 .69-1.5 4.49 4.49 0 0 1 1.43-.85 4.33 4.33 0 0 1 1.62-.1 4.49 4.49 0 0 1 1.64 0 3 3 0 0 1 2.05 2.44 3.91 3.91 0 0 1 .34 1.56z" stroke-miterlimit="10" stroke-width="1.04" stroke="#c9caca" fill="none"/><path class="cls-10" d="M213.42 71.77a2.62 2.62 0 0 1-.29.91 2.25 2.25 0 0 1-.58.72 2.22 2.22 0 0 1-.72.57A1.9 1.9 0 0 1 210 74a2.18 2.18 0 0 1-.76-.55 2.45 2.45 0 0 1-.63-.73 2.7 2.7 0 0 1-.09-1 2.4 2.4 0 0 1 .17-.93 2.44 2.44 0 0 1 .51-.79 2.66 2.66 0 0 1 .77-.57 2.48 2.48 0 0 1 .95-.09 1.92 1.92 0 0 1 1.73.65 2.66 2.66 0 0 1 .49.81 2.6 2.6 0 0 1 .28.97z"/><path class="cls-3" d="M219.78 71.77a2.3 2.3 0 0 1-.23.89c-.12.29-.15.66-.38.88a2.57 2.57 0 0 1-.82.51 2.49 2.49 0 0 1-.95.15 2.37 2.37 0 0 1-.93-.18 2.57 2.57 0 0 1-.82-.51 2.15 2.15 0 0 1-.66-1.74 1.59 1.59 0 0 1 .73-1.68 2.45 2.45 0 0 1 .78-.49 2.27 2.27 0 0 1 .9-.19 2.56 2.56 0 0 1 .93.11 2.87 2.87 0 0 1 .82.5 2.65 2.65 0 0 1 .55.8 2.68 2.68 0 0 1 .08.95zM66.31 102.66V85.34h-10.4v17.32a16.38 16.38 0 0 0-12.07 15.49c0 9 7.73 16.25 17.27 16.25s17.27-7.28 17.27-16.25a16.38 16.38 0 0 0-12.07-15.49z"/><path class="cls-10" d="M60.62 115.89c-5.85-2.52-10.56-1.8-13.93-.36a13.77 13.77 0 0 0-.28 2.74c0 7.76 6.59 14.06 14.73 14.06A14.5 14.5 0 0 0 75.75 120c-4.11.69-6.12-.24-15.13-4.11z"/><rect class="cls-1" x="53.33" y="91.59" width="15.55" height="4.79" rx="1.26" ry="1.26"/><path class="cls-1" d="M41.3 93.28h15v1.55h-15z"/><path class="cls-1" transform="rotate(90 60.99 138.33)" d="M53.49 137.56h15v1.55h-15z"/><path class="cls-1" d="M47.57 129.77h27.07v2.06H47.57z"/><path class="cls-1" transform="rotate(90 52.135 138.115)" d="M44.46 137.45h15.35v1.33H44.46z"/><path class="cls-1" transform="rotate(90 70.69 138.12)" d="M63.01 137.45h15.35v1.33H63.01z"/><path class="cls-1" transform="rotate(90 39.81 112.78)" d="M7.3 110.81h65.01v3.94H7.3z"/><circle class="cls-1" cx="39.82" cy="94.83" r="4.17"/><circle class="cls-2" cx="39.82" cy="94.83" r="1.85"/><path class="cls-11" d="M61 43.7a78.45 78.45 0 0 1-4.46 7.1A49 49 0 0 1 51 57.09c-3 2.87-5.75 4.24-7.28 3.36s-1.51-3.84-.51-7.9A48.71 48.71 0 0 1 46 44.72a75.35 75.35 0 0 1 3.8-7.42 80.58 80.58 0 0 1 4.32-7.2 45.63 45.63 0 0 1 5.71-6.1c3-2.88 5.58-4.17 7.11-3.29s1.52 3.67.51 7.72a46.25 46.25 0 0 1-2.55 7.92A76.84 76.84 0 0 1 61 43.7z"/><path class="cls-11" d="M49.7 43.74a75.4 75.4 0 0 0 4.67 6.94A48.91 48.91 0 0 0 59.82 57c3 2.87 5.52 4 7.06 3.16s1.7-3.58.69-7.64a46.4 46.4 0 0 0-2.51-8A81.74 81.74 0 0 0 61 37.28a77.65 77.65 0 0 0-4.65-7A51.42 51.42 0 0 0 51 23.87c-3-2.88-5.67-4.06-7.2-3.18s-1.9 3.75-.9 7.81a49.06 49.06 0 0 0 2.88 7.85 77 77 0 0 0 3.92 7.39z"/><path class="cls-11" d="M55.39 34.17a77.8 77.8 0 0 0-8.39.28 51.2 51.2 0 0 0-8.28 1.43c-4.06 1.17-6.37 2.85-6.37 4.61s2.39 3.14 6.45 4.31a49.74 49.74 0 0 0 8.2 1.54 76.59 76.59 0 0 0 8.37.64 77.12 77.12 0 0 0 8.37-.58 56.06 56.06 0 0 0 8.35-1.14c4.06-1.17 6.36-3 6.36-4.77S76.08 37.2 72 36a49.59 49.59 0 0 0-8.24-1.6 80.68 80.68 0 0 0-8.37-.23z"/><path class="cls-3" d="M59.24 40.58a3.64 3.64 0 0 1-7.28 0 3.64 3.64 0 1 1 7.28 0z"/><path class="cls-1" d="M40.15 30.24a1.79 1.79 0 0 1-1.82 1.84 1.74 1.74 0 0 1-1.74-1.84 1.7 1.7 0 0 1 1.74-1.79 1.76 1.76 0 0 1 1.82 1.79z"/><path class="cls-3" d="M69.44 52.92a2 2 0 0 1-2 2 2 2 0 0 1-1.93-2 1.9 1.9 0 0 1 1.93-1.85 1.93 1.93 0 0 1 2 1.85z"/><path class="cls-6" d="M70 28.65a2 2 0 0 1-1.85 2 2.1 2.1 0 0 1-2-2 2 2 0 0 1 2-1.9 1.88 1.88 0 0 1 1.85 1.9z"/><path class="cls-10" d="M45.34 51.56a2.6 2.6 0 0 1-2.61 2.49 2.44 2.44 0 0 1-2.43-2.49 2.37 2.37 0 0 1 2.43-2.41 2.54 2.54 0 0 1 2.61 2.41z"/><rect class="cls-3" x="94.69" y="27.41" width="3.29" height="15.44" rx=".71" ry=".71"/><circle class="cls-2" cx="96.49" cy="51.13" r="2.54"/><circle class="cls-1" cx="96.49" cy="60.42" r="2.54"/><rect class="cls-10" x="103.12" y="28.5" width="6.63" height="1.08" rx=".54" ry=".54"/><rect class="cls-3" x="114.38" y="28.5" width="6.63" height="1.08" rx=".54" ry=".54"/><rect class="cls-3" x="125.65" y="28.5" width="6.63" height="1.08" rx=".54" ry=".54"/><rect class="cls-1" x="136.91" y="28.5" width="6.63" height="1.08" rx=".54" ry=".54"/><rect class="cls-3" x="103.12" y="32.51" width="6.63" height="1.08" rx=".54" ry=".54"/><rect class="cls-1" x="114.38" y="32.51" width="6.63" height="1.08" rx=".54" ry=".54"/><rect class="cls-3" x="125.65" y="32.51" width="6.63" height="1.08" rx=".54" ry=".54"/><rect class="cls-10" x="136.91" y="32.51" width="6.63" height="1.08" rx=".54" ry=".54"/><rect class="cls-1" x="103.12" y="36.83" width="6.63" height="1.08" rx=".54" ry=".54"/><rect class="cls-2" x="114.38" y="36.83" width="6.63" height="1.08" rx=".54" ry=".54"/><rect class="cls-3" x="125.65" y="36.83" width="6.63" height="1.08" rx=".54" ry=".54"/><rect class="cls-2" x="136.91" y="36.83" width="6.63" height="1.08" rx=".54" ry=".54"/><path class="cls-3" d="M46.66 74.23h9.71v1.27h-9.71z"/><path class="cls-6" d="M59.28 74.23h9.71v1.27h-9.71z"/><path class="cls-3" d="M71.9 74.23h9.71v1.27H71.9z"/><path class="cls-6" d="M46.66 77.36h9.71v1.27h-9.71z"/><path class="cls-3" d="M59.28 77.36h9.71v1.27h-9.71z"/><path class="cls-1" d="M71.9 77.36h9.71v1.27H71.9zM227.05 210c-2.07 0-2.07.33-4.13.33s-2.06-.75-4.12-.75-2.06.18-4.11.18h-4.12c-2.06 0-2.06.38-4.12.38h-4.11c-2.06 0-2.06.13-4.12.13s-2.06-.14-4.12-.14-2.1-.13-4.1-.13-2.06.05-4.12.05-2-.06-4.11-.06-2.06-.68-4.12-.68-2.06 1-4.12 1-2.06-.8-4.12-.8-2.06.67-4.13.67h-12.41c-2.06 0-2.06.1-4.12.1s-2.06-.15-4.12-.15-2.06-.09-4.12-.09-2.06-.35-4.12-.35-2.07-.23-4.13-.23-2.06.83-4.12.83-2.06-.48-4.12-.48-2.06.07-4.13.07-2.06.32-4.12.32-2.06.07-4.12.07-2.06-.09-4.12-.09-2.07-.83-4.13-.83-2.06.09-4.12.09-2.06.19-4.13.19-2.06.51-4.12.51-2.03-.14-4.1-.14-2.06-.43-4.12-.43-2.07.21-4.13.21-2.06.41-4.12.41-2.06-.52-4.12-.52-2.07.59-4.13.59-2.06-.48-4.12-.48-2.07.54-4.13.54-2.06-.81-4.13-.81-2.06.5-4.12.5-2.07-.25-4.13-.25-2.06.38-4.12.38-2.07-.78-4.13-.78-2.07.76-4.14.76-2.06-.25-4.13-.25c-1.39 0-2.69-.63-4-.82a27.71 27.71 0 0 1-4-.65 27.84 27.84 0 0 1-3.72-1.61c-1.25-.57-2.68-.75-3.83-1.49s-1.9-2-2.93-2.87a27.8 27.8 0 0 1-3-2.71 29.78 29.78 0 0 1-2.47-3.24 29.36 29.36 0 0 1-2-3.52 28.61 28.61 0 0 1-1.68-3.75 29.8 29.8 0 0 1-.9-4 29.41 29.41 0 0 1-.19-4.11A27.51 27.51 0 0 1 1 177c.19-1.37-.08-2.83.31-4.13A27.32 27.32 0 0 1 2.84 169a28 28 0 0 1 2.41-3.34 27.76 27.76 0 0 1 2.4-3.27 28 28 0 0 1 2.8-3 29.66 29.66 0 0 1 3-2.8 30.25 30.25 0 0 1 3.71-1.8 28.71 28.71 0 0 1 3.84-1.44 27 27 0 0 1 4.05-.71 27.66 27.66 0 0 1 4.09-.44c2.06 0 2.06-.37 4.12-.37s2.06.75 4.12.75 2.06-.77 4.12-.77 2.06.66 4.12.66 2.06.33 4.11.33 2.06-.1 4.12-.1 2.06-.45 4.12-.45 2.06-.07 4.12-.07 2.06.24 4.12.24h4.12c2.06 0 2.06-.33 4.12-.33s2.06-.11 4.12-.11h4.12c2.06 0 2.06.07 4.12.07s2.06.65 4.12.65 2.06-.87 4.12-.87 2.06.58 4.12.58 2.06.25 4.12.25 2.06.08 4.13.08 2.06-.43 4.12-.43 2.06-.19 4.12-.19 2.06.43 4.12.43 2.06.13 4.12.13 2.06-.5 4.12-.5 2.07.07 4.13.07 2.06.27 4.12.27 2.06-.62 4.12-.62 2.07.81 4.13.81 2.06-.6 4.12-.6 2.06.13 4.12.13 2.07-.17 4.13-.17 2.06.58 4.12.58 2.06-.43 4.13-.43 2.06.06 4.12.06 2.06.09 4.12.09 2.06.09 4.12.09 2.06-.27 4.13-.27h8.24c2.07 0 2.07.53 4.13.53h4.13c2.06 0 2.06-.33 4.12-.33s2.07-.22 4.13-.22 2.06-.07 4.12-.07 2.07.14 4.13.14 2.07.43 4.13.43 2.07-.49 4.13-.49 2.07-.25 4.14-.25a29.36 29.36 0 0 1 4.09.7 27.54 27.54 0 0 1 3.92 1.14 29.72 29.72 0 0 1 3.93 1.16 27.54 27.54 0 0 1 3.35 2.34 29.53 29.53 0 0 1 3.45 2.17c1 .9 2.43 1.48 3.33 2.51a32.72 32.72 0 0 1 2.12 3.58A34.56 34.56 0 0 1 256 176.9c.19 1.34-.27 2.78-.27 4.17h.55a29.6 29.6 0 0 1-.57 4.12 30.2 30.2 0 0 1-.92 4 28.86 28.86 0 0 1-1.48 3.85 27.91 27.91 0 0 1-2 3.57 28.62 28.62 0 0 1-2.3 3.44 28 28 0 0 1-2.85 3c-1 .9-2.52 1.22-3.67 2a28.72 28.72 0 0 1-3.42 2.29 29.64 29.64 0 0 1-3.85 1.46 28.62 28.62 0 0 1-4.08.55 28.63 28.63 0 0 1-4.09.65z"/><path class="cls-3" d="M227.05 202.09c-2.07 0-2.07.09-4.13.09h-4.12c-2.06 0-2.06.4-4.11.4s-2.06-.26-4.12-.26-2.06.31-4.12.31-2.06-.17-4.11-.17-2.06.32-4.12.32-2.06.05-4.12.05-2.06-.75-4.13-.75-2.06.15-4.12.15-2 .32-4.11.32-2.06.36-4.12.36-2.06-.26-4.12-.26-2.06-.33-4.12-.33-2.06-.32-4.13-.32-2.06.89-4.12.89H157c-2.07 0-2.07-.57-4.13-.57h-4.12c-2.06 0-2.06.41-4.12.41s-2.06-.59-4.12-.59-2.06.47-4.12.47-2.07-.23-4.13-.23-2.06.23-4.12.23-2.06.32-4.12.32-2.06-.38-4.13-.38-2.06-.46-4.12-.46-2.06.73-4.12.73-2.06-.73-4.12-.73-2.07.06-4.13.06-2.06.8-4.12.8-2.06-.62-4.13-.62-2.06-.11-4.12-.11-2.03.78-4.1.78-2.06-.3-4.12-.3-2.07-.35-4.13-.35-2.06.56-4.12.56-2.06-.1-4.12-.1-2.07-.39-4.13-.39-2.06.33-4.12.33-2.07.23-4.13.23-2.06-.09-4.13-.09-2.06.11-4.12.11-2.07-.31-4.13-.31-2.06-.4-4.12-.4-2.07.08-4.13.08-2.07.56-4.14.56-2.06-.42-4.13-.42a30.53 30.53 0 0 1-4.15.11 29.78 29.78 0 0 1-4-1 29.84 29.84 0 0 1-3.73-1.81 28.59 28.59 0 0 1-3.71-1.81 30.46 30.46 0 0 1-3.14-2.64 30.52 30.52 0 0 1-3-2.76 27.4 27.4 0 0 1-2.2-3.46 27.94 27.94 0 0 1-2.32-3.4 29.27 29.27 0 0 1-1.71-3.84 30.26 30.26 0 0 1-1-4 30.29 30.29 0 0 1-.2-4.21h.33a27.77 27.77 0 0 1 .34-4.1 27.68 27.68 0 0 1 1.18-3.92c.39-1.32.17-2.88.73-4.12s1.77-2.18 2.51-3.33a28.93 28.93 0 0 1 2.31-3.39 29.7 29.7 0 0 1 3.19-2.58 28.33 28.33 0 0 1 3-2.81 29.49 29.49 0 0 1 3.47-2.26c1.24-.56 2.78-.36 4.11-.75s2.49-1.3 3.87-1.5 2.74.25 4.13.25c2.06 0 2.06-.77 4.12-.77s2.06.64 4.12.64 2.06-.23 4.12-.23 2.06-.33 4.12-.33 2.06.36 4.11.36 2.06-.19 4.12-.19 2.06.05 4.12.05 2.06.59 4.12.59 2.06.12 4.12.12 2.06-.52 4.12-.52 2.06-.2 4.12-.2 2.06-.17 4.12-.17h4.12c2.06 0 2.06.38 4.12.38s2.06-.38 4.12-.38 2.06.47 4.12.47 2.06-.51 4.12-.51h4.12c2.06 0 2.06.77 4.13.77s2.06-.87 4.12-.87 2.06.28 4.12.28 2.06.64 4.12.64 2.06-.54 4.12-.54 2.06.39 4.12.39 2.07-.56 4.13-.56 2.06.38 4.12.38h4.12c2.06 0 2.07-.55 4.13-.55s2.06-.08 4.12-.08 2.06.77 4.12.77 2.07.09 4.13.09 2.06-.15 4.12-.15h4.13c2.07 0 2.06-.13 4.12-.13s2.06-.06 4.12-.06 2.06-.37 4.12-.37 2.06.29 4.13.29 2.06-.31 4.12-.31 2.06-.12 4.12-.12 2.07.38 4.13.38 2.06.08 4.13.08 2.06-.46 4.12-.46 2.07.37 4.13.37 2.06.53 4.12.53 2.07-.67 4.13-.67 2.07-.1 4.13-.1 2.07.42 4.13.42 2.07.44 4.14.44a29.22 29.22 0 0 1 4.07-.06 30 30 0 0 1 4.07.58 36.47 36.47 0 0 1 7.16 3.92c1.15.75 2.57 1.09 3.61 2a28.5 28.5 0 0 1 2.81 3 28.08 28.08 0 0 1 2.49 3.26 30 30 0 0 1 1.68 3.74 29.41 29.41 0 0 1 1.55 3.76 28.08 28.08 0 0 1 .65 4 28.4 28.4 0 0 1 .21 4h.82a29.53 29.53 0 0 1-.5 4.12 28.24 28.24 0 0 1-.91 4 29 29 0 0 1-1.37 3.9 30 30 0 0 1-2.14 3.52 20.45 20.45 0 0 1-5.59 5.93c-1 .89-1.66 2.36-2.81 3.1s-2.63.95-3.88 1.53a29.87 29.87 0 0 1-3.89 1.24c-1.3.38-2.5 1.42-3.87 1.61s-2.78-.41-4.17-.41z"/><path class="cls-1" d="M67.8 166.21a4.48 4.48 0 0 1 1.44 3.42 5.48 5.48 0 0 1-1.55 3.75 22.29 22.29 0 0 1-3.29 2.56q-2.57 1.69-3.06 3h7.92v2.14H58.34a6 6 0 0 1 1.58-4.16 20 20 0 0 1 3.57-2.92 16.88 16.88 0 0 0 2.26-1.82 3.84 3.84 0 0 0 1.09-2.6 2.57 2.57 0 0 0-.73-2A3.14 3.14 0 0 0 64 167a2.64 2.64 0 0 0-2.27 1 4.8 4.8 0 0 0-.84 2.91h-2.46a6.1 6.1 0 0 1 1.57-4.3 5.21 5.21 0 0 1 4.09-1.71 5.36 5.36 0 0 1 3.71 1.31zM81.49 165.21v10.48h2.4v1.93h-2.4v3.45h-2.31v-3.45h-7.72v-2.28l7.81-10.13zm-8.06 10.48h5.75v-7.41h-.07zM91.41 168.28v1.64a30.38 30.38 0 0 1-2.41 3.44h2.7v1.4a24 24 0 0 1-1.08 4.09c.17.13.33.26.51.42a7.92 7.92 0 0 0 2 1.44 8.13 8.13 0 0 0 2.8.42c1.2 0 2.57.05 4.13.05s3.68-.07 6.24-.16l-.47 2h-5.51c-1.55 0-3.06 0-4.48-.09a10.31 10.31 0 0 1-3.42-.55 7.15 7.15 0 0 1-2.51-1.71.65.65 0 0 0-.51-.25c-.44 0-1.15 1-2.13 2.91l-1.53-1.4c1-2 2-3.08 2.93-3.44a17.06 17.06 0 0 0 1-3.35h-3.23v-1.6a29.45 29.45 0 0 0 2.62-3.35h-3v-1.91zm0-2.13L90 167.52a23.3 23.3 0 0 0-3.39-3.22L88 163a27.18 27.18 0 0 1 3.39 3.15zm3.59 5.57a21.56 21.56 0 0 1-1.51 8.37l-1.6-1.42a20.57 20.57 0 0 0 1.09-7v-8.08h12.52v14.72c0 1.24-.71 1.87-2.11 1.87h-2.49l-.51-1.87c.87.05 1.67.09 2.4.09.44 0 .67-.27.67-.8v-5.86zm0-6.28v1.62h3.24v-1.62zm0 3.26v1.4h3.24v-1.4zm7.3 4.11v4.64h-6.38v-4.64zm-1.73 1.48h-2.9V176h2.91zm2.89-7.23v-1.62h-3.36v1.62zm0 3v-1.4h-3.36v1.4zM117.69 166.66v-1h-8.64V164h8.64v-1.25h2.09V164h8.63v1.64h-8.63v1h6.77v6.61h-.45a20.53 20.53 0 0 1 2.13 2.65l-1.39 1c-.27-.4-.54-.8-.85-1.2l-1.82.09v1.53h4.49V179h-4.49v2.35c0 1.29-.71 1.94-2.13 1.94h-2.4l-.4-1.91a17.62 17.62 0 0 0 2.13.13c.49 0 .74-.22.74-.67V179h-7.53a20.67 20.67 0 0 1 2.93 2.2l-1.42 1.44a20.67 20.67 0 0 0-3.31-2.79l.87-.85h-4.84v-1.71h13.3v-1.44q-5.76.22-12 .42l-.4-1.67c2.71 0 5.35-.11 8-.19v-1.14h-6.77v-6.61zm0 2.53v-1.09H113v1.09zm0 1.44H113v1.09h4.73zm2.09-1.44h4.73v-1.09h-4.73zm4.73 1.44h-4.73v1.09h4.73zm-.2 3l.59-.38h-5.12v1.07l5-.2a6.05 6.05 0 0 1-.47-.47zM136.6 171.61l-1.51 1.51a27.32 27.32 0 0 0-3.66-3.38l1.5-1.44a25.74 25.74 0 0 1 3.67 3.31zm.6 3.71a71.86 71.86 0 0 1-3.31 7.86l-2.11-.94a73.06 73.06 0 0 0 3.53-7.7zm.13-8.95l-1.51 1.51a21.5 21.5 0 0 0-3.88-3.33l1.53-1.47a31 31 0 0 1 3.86 3.29zm6.31.06a28.25 28.25 0 0 0-1.36-3.12l1.95-.56a26.65 26.65 0 0 1 1.49 3.66h-.06 5.5v2.07h-5.5v4.75h4.9v2h-4.9v5.26h6v2.07H137.4v-2.07h6.15v-5.26h-5v-2h5v-4.73H138v-2.07zM163.45 170.7H157v12.45h-2.09v-19.73h8.59zm-2.06-5.7H157v1.33h4.44zm-4.44 4h4.44v-1.25H157zm3.93 6.83v-2.11h-2.18V172h10.82v1.77h-2v2.11h2.66v1.85h-2.66v5h-1.91v-5h-3a8.69 8.69 0 0 1-.82 2.88 5.54 5.54 0 0 1-2.7 2.47l-1-1.65a4.54 4.54 0 0 0 2.18-2 8.15 8.15 0 0 0 .46-1.66h-2.59v-1.85zm4.75-2.11h-2.86v2.11h2.86zm-.78-3.13v-7.23h8.73v17.27c0 1.58-.76 2.37-2.27 2.37-.77 0-1.55 0-2.35-.06l-.49-1.87c.76.07 1.44.11 2.09.11s.91-.4.91-1.2v-9.39zm6.62-5.57h-4.55v1.29h4.55zm-4.55 3.98h4.55v-1.2h-4.55zM181.87 167.39a10.74 10.74 0 0 0 2.31-2h-5.75v-1.82h8.15v1.53a10.26 10.26 0 0 1-3.44 3.75h2.58v5.58h-5l-.33 2h5.42a27.57 27.57 0 0 1-.33 5.37c-.27.89-1.36 1.38-3.29 1.46-.8 0-1.58 0-2.38-.08l-.51-1.85c.8 0 1.6.09 2.45.09 1.11 0 1.75-.2 1.93-.6a10.83 10.83 0 0 0 .22-2.64h-5.53l.76-5.55h4.7v-1.95h-4.26c-.53.2-1.09.4-1.67.59l-1.28-1.66c.8-.24 1.55-.49 2.24-.76.47-.17.91-.37 1.31-.55-.64-.51-1.4-1-2.24-1.58l1.55-1a23.35 23.35 0 0 1 2.39 1.67zm12-3.66a10.67 10.67 0 0 1-1.57 1.48 9.09 9.09 0 0 1-1 .67 7.63 7.63 0 0 0 1 .73 12.32 12.32 0 0 0 1.3-.77 7.64 7.64 0 0 0 1.47-1.43l1.49.91a10 10 0 0 1-1.69 1.69c-.27.2-.55.4-.87.6a24 24 0 0 0 3.31 1.42l-1.4 1.67c-.71-.29-1.37-.58-2-.89v1.58c0 .4.26.6.84.6h1.13v1.7h-1.69c-1.37 0-2.06-.64-2.06-1.88v-1.16h-2.73a4.29 4.29 0 0 1-.45 2 4.92 4.92 0 0 1-1.62 1.64l-1.46-1.29a4.91 4.91 0 0 0 1.42-1.62 7.72 7.72 0 0 0 .29-2.42h4.69a14.4 14.4 0 0 1-5.18-4.79l1.67-.94a8.46 8.46 0 0 0 1.2 1.51 7.47 7.47 0 0 0 1.08-.64 7.91 7.91 0 0 0 1.36-1.24zm1.07 10.94v1.78a9.43 9.43 0 0 1-1.87 3.22c1.34.75 2.51 1.48 3.58 2.22l-1.44 1.46a32.74 32.74 0 0 0-3.51-2.37 15.57 15.57 0 0 1-4.51 2.33l-.78-1.84a13.6 13.6 0 0 0 3.4-1.58c-.89-.49-1.84-1-2.84-1.49l1.26-1.22c1.07.49 2.07 1 3.05 1.51a9.29 9.29 0 0 0 1.55-2.15H187v-1.87z"/></g></g></svg>