<svg xmlns="http://www.w3.org/2000/svg" xmlns:xlink="http://www.w3.org/1999/xlink" viewBox="0 0 298.45 308.81"><defs><style>.cls-1,.cls-14,.cls-15,.cls-17,.cls-18,.cls-19,.cls-4,.cls-5{fill:none;}.cls-2{fill:#f5a117;}.cls-3{clip-path:url(#clip-path);}.cls-4{stroke:#633a7c;}.cls-14,.cls-16,.cls-17,.cls-18,.cls-19,.cls-4,.cls-5{stroke-linecap:round;stroke-linejoin:round;}.cls-15,.cls-16,.cls-17,.cls-4,.cls-5{stroke-width:1.04px;}.cls-5{stroke:#fff;}.cls-6{fill:#c9caca;}.cls-7{clip-path:url(#clip-path-2);}.cls-8{fill:#e9506c;}.cls-9{fill:#f2f3f2;}.cls-10{fill:#ef8575;}.cls-11,.cls-16{fill:#001d2f;}.cls-12{clip-path:url(#clip-path-3);}.cls-13{fill:#fff;}.cls-14,.cls-15,.cls-16,.cls-17,.cls-19{stroke:#001d2f;}.cls-14{stroke-width:3.12px;}.cls-15{stroke-miterlimit:10;}.cls-18{stroke:#c9caca;}.cls-18,.cls-19{stroke-width:1.56px;}</style><clipPath id="clip-path"><rect class="cls-1" x="52.89" y="104.54" width="72.75" height="48.41"/></clipPath><clipPath id="clip-path-2"><rect class="cls-1" x="174.57" y="113.72" width="69.1" height="37.38"/></clipPath><clipPath id="clip-path-3"><rect class="cls-1" x="109.11" y="89.06" width="76.63" height="56.04"/></clipPath></defs><title>CTG-3</title><g id="Layer_2" data-name="Layer 2"><g id="圖層_1" data-name="圖層 1"><path class="cls-2" d="M125.81,153.12c-1,1-1.62,0-3.07,0s-1.46-.4-2.91-.4-1.46.31-2.91.31-1.46-.18-2.91-.18-1.45.19-2.91.19-1.45,0-2.91,0-1.45-.35-2.91-.35-1.45.14-2.9.14-1.46.14-2.91.14-1.45-.13-2.9-.13-1.46-.13-2.91-.13-1.46,0-2.91,0-1.46.37-2.91.37-1.46-.31-2.91-.31-1.46.3-2.91.3-1.46-.21-2.91-.21-1.46-.14-2.91-.14-1.46.19-2.91.19-1.46.23-2.92.23-1.45-.27-2.9-.27-1.46-.12-2.92-.12-1.45,0-2.91,0-1.46-.11-2.91-.11-1.46.15-2.92.15-1.76,1-2.81,0-.06-1.3-.06-2.72-.18-1.42-.18-2.84.27-1.43.27-2.85,0-1.42,0-2.85-.29-1.42-.29-2.84,0-1.43,0-2.85S53,134.46,53,133s-.16-1.42-.16-2.84.1-1.43.1-2.85-.07-1.43-.07-2.85,0-1.42,0-2.85-.11-1.42-.11-2.85-.06-1.42-.06-2.84.34-1.43.34-2.85,0-1.43,0-2.85-.26-1.43-.26-2.86-.7-1.7.32-2.7,1.3-.4,2.75-.4,1.45.21,2.91.21,1.45.14,2.91.14h2.9c1.46,0,1.46-.27,2.91-.27s1.46.07,2.91.07,1.46.31,2.91.31,1.45-.09,2.91-.09,1.45,0,2.9,0,1.46-.19,2.91-.19,1.45-.12,2.91-.12,1.45.15,2.91.15,1.45,0,2.91,0,1.45.14,2.9.14,1.46-.19,2.92-.19,1.45,0,2.91,0,1.45-.06,2.91-.06,1.45.14,2.91.14,1.45.23,2.91.23,1.46-.22,2.91-.22,1.46.17,2.91.17,1.46-.11,2.91-.11,1.46.17,2.92.17,1.46-.2,2.92-.2,1.75-1,2.79.07.34,1.3.34,2.72-.46,1.42-.46,2.84.06,1.43.06,2.85.33,1.42.33,2.84,0,1.43,0,2.85-.29,1.42-.29,2.85.19,1.42.19,2.84v2.85c0,1.42.21,1.42.21,2.85s-.29,1.42-.29,2.85,0,1.42,0,2.85,0,1.42,0,2.84-.14,1.43-.14,2.85.11,1.43.11,2.85.11,1.43.11,2.85-.53,1.5-.19,2.88C125.91,151.7,126.83,152.12,125.81,153.12Z"/><path class="cls-2" d="M125.67,153c-1,1-1.48,0-2.93,0s-1.46-.08-2.91-.08-1.46,0-2.91,0H114c-1.45,0-1.45,0-2.91,0s-1.45,0-2.91,0-1.45,0-2.91,0-1.45-.1-2.9-.1-1.46.29-2.91.29S98,153,96.57,153s-1.46-.07-2.91-.07-1.46-.21-2.91-.21-1.46.34-2.91.34-1.46-.08-2.91-.08-1.46-.24-2.91-.24-1.46.28-2.91.28S77.65,153,76.2,153s-1.46.18-2.91.18-1.46-.26-2.92-.26-1.45-.19-2.9-.19S66,153,64.55,153s-1.45-.1-2.91-.1-1.46.21-2.91.21-1.46-.12-2.92-.12-2,1.11-3,.09,0-1.5,0-2.92.35-1.42.35-2.84-.1-1.43-.1-2.85-.2-1.42-.2-2.85.13-1.42.13-2.84-.06-1.43-.06-2.85.21-1.42.21-2.85-.07-1.42-.07-2.84-.31-1.43-.31-2.85.09-1.43.09-2.85.15-1.42.15-2.85-.17-1.42-.17-2.85.33-1.42.33-2.84-.49-1.43-.49-2.85,0-1.43,0-2.85,0-1.43,0-2.86-.86-1.88.16-2.88,1.49-.13,2.94-.13,1.45.33,2.91.33,1.45-.27,2.91-.27,1.45.21,2.9.21,1.46-.23,2.91-.23,1.46.16,2.91.16,1.46-.18,2.91-.18h2.91c1.45,0,1.45.32,2.9.32H82c1.45,0,1.45-.2,2.91-.2s1.45-.14,2.91-.14,1.45.35,2.91.35,1.45-.24,2.9-.24,1.46.15,2.92.15,1.45-.19,2.91-.19,1.45.17,2.91.17,1.45-.27,2.91-.27,1.45.31,2.91.31,1.46-.28,2.91-.28,1.46.1,2.91.1,1.46.16,2.91.16,1.46.13,2.92.13,1.46-.21,2.92-.21,1.79-1,2.84,0-.15,1.35-.15,2.77.32,1.42.32,2.84-.17,1.43-.17,2.85.21,1.42.21,2.84-.35,1.43-.35,2.85.42,1.42.42,2.85-.17,1.42-.17,2.84-.09,1.43-.09,2.85.06,1.42.06,2.85-.22,1.42-.22,2.85.16,1.42.16,2.85.2,1.42.2,2.84,0,1.43,0,2.85-.21,1.43-.21,2.85-.11,1.43-.11,2.85a8.67,8.67,0,0,0,.35,2.82C126.14,151.56,126.69,152,125.67,153Z"/><g class="cls-3"><path class="cls-4" d="M58.84,102.12c0,2.26-.1,2.26-.1,4.52s.09,2.27.09,4.53-.12,2.26-.12,4.52.14,2.26.14,4.53.08,2.26.08,4.52,0,2.26,0,4.52-.21,2.27-.21,4.53-.07,2.26-.07,4.53.37,2.26.37,4.53"/><path class="cls-5" d="M68.28,102.12c0,2.26-.13,2.26-.13,4.52s.15,2.27.15,4.53-.22,2.26-.22,4.52-.15,2.26-.15,4.53-.09,2.26-.09,4.52.29,2.26.29,4.52-.34,2.27-.34,4.53.42,2.26.42,4.53-.23,2.26-.23,4.53"/><path class="cls-4" d="M77.49,102.12c0,2.26-.36,2.26-.36,4.52s.31,2.27.31,4.53-.12,2.26-.12,4.52-.07,2.26-.07,4.53-.17,2.26-.17,4.52.41,2.26.41,4.52,0,2.27,0,4.53-.06,2.26-.06,4.53-.25,2.26-.25,4.53"/><path class="cls-5" d="M86.58,102.12c0,2.26,0,2.26,0,4.52s-.12,2.27-.12,4.53-.08,2.26-.08,4.52,0,2.26,0,4.53.16,2.26.16,4.52-.15,2.26-.15,4.52.22,2.27.22,4.53.18,2.26.18,4.53-.33,2.26-.33,4.53"/><path class="cls-4" d="M95.93,102.12c0,2.26-.33,2.26-.33,4.52s.44,2.27.44,4.53-.21,2.26-.21,4.52-.21,2.26-.21,4.53,0,2.26,0,4.52.38,2.26.38,4.52-.34,2.27-.34,4.53.09,2.26.09,4.53.16,2.26.16,4.53"/><path class="cls-5" d="M104.92,102.12c0,2.26.22,2.26.22,4.52s0,2.27,0,4.53-.25,2.26-.25,4.52,0,2.26,0,4.53.16,2.26.16,4.52.16,2.26.16,4.52-.06,2.27-.06,4.53,0,2.26,0,4.53-.23,2.26-.23,4.53"/></g><path class="cls-6" d="M243.62,151c-1,1-1.39.16-2.82.16s-1.44,0-2.88,0-1.44,0-2.88,0-1.44,0-2.88,0-1.44-.08-2.88-.08-1.44,0-2.87,0-1.44-.15-2.88-.15-1.44.31-2.87.31-1.44,0-2.88,0-1.44-.36-2.88-.36-1.44.3-2.87.3-1.44.06-2.88.06-1.44-.35-2.88-.35-1.44.07-2.88.07-1.44,0-2.88,0-1.44.25-2.88.25-1.44-.22-2.88-.22-1.44.06-2.88.06-1.44.2-2.88.2-1.44-.12-2.88-.12-1.44-.15-2.88-.15-1.45.17-2.89.17-1.44-.1-2.88-.1-1.84,1-2.86,0-.18-1.41-.18-2.84.27-1.44.27-2.87,0-1.44,0-2.88-.24-1.44-.24-2.87.33-1.44.33-2.88-.14-1.43-.14-2.87-.13-1.44-.13-2.88,0-1.43,0-2.87,0-1.44,0-2.87,0-1.44,0-2.88.24-1.44.24-2.87,0-1.45,0-2.89-1-1.75,0-2.76,1.33,0,2.77,0h2.88c1.43,0,1.43-.07,2.87-.07s1.44-.23,2.88-.23,1.44.09,2.88.09,1.44.1,2.88.1,1.43-.23,2.87-.23,1.44.41,2.88.41,1.43-.09,2.87-.09,1.44.17,2.88.17,1.44-.43,2.88-.43,1.44.3,2.88.3,1.44-.07,2.87-.07,1.44.19,2.88.19,1.44-.07,2.88-.07,1.44-.29,2.88-.29,1.44,0,2.88,0,1.45.25,2.89.25,1.44.09,2.87.09,1.44-.41,2.89-.41H235c1.44,0,1.44,0,2.88,0s1.44.11,2.89.11,1.79-.86,2.81.16-.11,1.36-.11,2.8.38,1.43.38,2.87-.22,1.44-.22,2.87,0,1.44,0,2.88-.15,1.43-.15,2.87.32,1.44.32,2.87-.23,1.44-.23,2.88,0,1.44,0,2.87.23,1.44.23,2.88.06,1.43.06,2.87-.4,1.44-.4,2.88a9.78,9.78,0,0,0,.09,2.91C243.84,149.72,244.64,150,243.62,151Z"/><g class="cls-7"><line class="cls-5" x1="174.02" y1="116.7" x2="179.81" y2="116.7"/><line class="cls-5" x1="186.94" y1="116.7" x2="192.72" y2="116.7"/><line class="cls-5" x1="199.85" y1="116.7" x2="205.63" y2="116.7"/><line class="cls-5" x1="212.76" y1="116.7" x2="218.55" y2="116.7"/><line class="cls-5" x1="225.67" y1="116.7" x2="231.46" y2="116.7"/><line class="cls-5" x1="238.58" y1="116.7" x2="244.37" y2="116.7"/><line class="cls-5" x1="180.5" y1="121.1" x2="186.29" y2="121.1"/><line class="cls-5" x1="193.42" y1="121.1" x2="199.2" y2="121.1"/><line class="cls-5" x1="206.33" y1="121.1" x2="212.11" y2="121.1"/><line class="cls-5" x1="219.24" y1="121.1" x2="225.02" y2="121.1"/><line class="cls-5" x1="232.15" y1="121.1" x2="237.94" y2="121.1"/><line class="cls-5" x1="245.06" y1="121.1" x2="250.85" y2="121.1"/><line class="cls-5" x1="174.02" y1="125.73" x2="179.81" y2="125.73"/><line class="cls-5" x1="186.94" y1="125.73" x2="192.72" y2="125.73"/><line class="cls-5" x1="199.85" y1="125.73" x2="205.63" y2="125.73"/><line class="cls-5" x1="212.76" y1="125.73" x2="218.55" y2="125.73"/><line class="cls-5" x1="225.67" y1="125.73" x2="231.46" y2="125.73"/><line class="cls-5" x1="238.58" y1="125.73" x2="244.37" y2="125.73"/><line class="cls-5" x1="180.5" y1="130.12" x2="186.29" y2="130.12"/><line class="cls-5" x1="193.42" y1="130.12" x2="199.2" y2="130.12"/><line class="cls-5" x1="206.33" y1="130.12" x2="212.11" y2="130.12"/><line class="cls-5" x1="219.24" y1="130.12" x2="225.02" y2="130.12"/><line class="cls-5" x1="232.15" y1="130.12" x2="237.94" y2="130.12"/><line class="cls-5" x1="245.06" y1="130.12" x2="250.85" y2="130.12"/><line class="cls-5" x1="174.02" y1="134.75" x2="179.81" y2="134.75"/><line class="cls-5" x1="186.94" y1="134.75" x2="192.72" y2="134.75"/><line class="cls-5" x1="199.85" y1="134.75" x2="205.63" y2="134.75"/><line class="cls-5" x1="212.76" y1="134.75" x2="218.55" y2="134.75"/><line class="cls-5" x1="225.67" y1="134.75" x2="231.46" y2="134.75"/><line class="cls-5" x1="238.58" y1="134.75" x2="244.37" y2="134.75"/><line class="cls-5" x1="180.5" y1="139.15" x2="186.29" y2="139.15"/><line class="cls-5" x1="193.42" y1="139.15" x2="199.2" y2="139.15"/><line class="cls-5" x1="206.33" y1="139.15" x2="212.11" y2="139.15"/><line class="cls-5" x1="219.24" y1="139.15" x2="225.02" y2="139.15"/><line class="cls-5" x1="232.15" y1="139.15" x2="237.94" y2="139.15"/><line class="cls-5" x1="245.06" y1="139.15" x2="250.85" y2="139.15"/><line class="cls-5" x1="174.02" y1="143.77" x2="179.81" y2="143.77"/><line class="cls-5" x1="186.94" y1="143.77" x2="192.72" y2="143.77"/><line class="cls-5" x1="199.85" y1="143.77" x2="205.63" y2="143.77"/><line class="cls-5" x1="212.76" y1="143.77" x2="218.55" y2="143.77"/><line class="cls-5" x1="225.67" y1="143.77" x2="231.46" y2="143.77"/><line class="cls-5" x1="238.58" y1="143.77" x2="244.37" y2="143.77"/><line class="cls-5" x1="180.5" y1="148.17" x2="186.29" y2="148.17"/><line class="cls-5" x1="193.42" y1="148.17" x2="199.2" y2="148.17"/><line class="cls-5" x1="206.33" y1="148.17" x2="212.11" y2="148.17"/><line class="cls-5" x1="219.24" y1="148.17" x2="225.02" y2="148.17"/><line class="cls-5" x1="232.15" y1="148.17" x2="237.94" y2="148.17"/><line class="cls-5" x1="245.06" y1="148.17" x2="250.85" y2="148.17"/></g><path class="cls-8" d="M185.71,145.08c-1,1-1.39,0-2.81,0s-1.42.15-2.84.15-1.41.07-2.83.07-1.42-.28-2.84-.28-1.42.24-2.84.24-1.41-.3-2.83-.3-1.42.39-2.84.39-1.42-.43-2.84-.43-1.41,0-2.83,0-1.42.15-2.84.15S156,145,154.54,145s-1.42-.06-2.83-.06-1.42.4-2.84.4-1.42-.37-2.84-.37-1.42.13-2.84.13-1.41-.13-2.83-.13-1.42.19-2.84.19-1.42-.18-2.84-.18-1.42,0-2.84,0-1.42.11-2.84.11-1.42-.05-2.84-.05-1.42.32-2.83.32-1.43-.4-2.85-.4-1.42.07-2.84.07-1.42-.16-2.84-.16-1.42.36-2.84.36-1.94,1-2.92,0-.17-1.55-.17-3,.28-1.48.28-2.95-.14-1.47-.14-2.94,0-1.48,0-3,.21-1.47.21-2.95.15-1.47.15-2.94,0-1.48,0-3-.23-1.48-.23-3,.05-1.48.05-3,0-1.47,0-3-.29-1.47-.29-2.95.43-1.47.43-3,0-1.48,0-3,0-1.48,0-3-.16-1.47-.16-3-.2-1.48-.2-2.95.27-1.48.27-3-.35-1.48-.35-3-.86-2,.17-3,1.48-.06,2.9-.06,1.42.08,2.84.08,1.41-.2,2.83-.2,1.42.32,2.84.32,1.42.16,2.83.16h2.84c1.42,0,1.42-.16,2.84-.16s1.42,0,2.84,0,1.41-.36,2.83-.36,1.42.13,2.84.13,1.41.2,2.83.2h2.83c1.42,0,1.42-.11,2.84-.11s1.42.23,2.84.23,1.42-.07,2.83-.07,1.42-.25,2.84-.25,1.42.23,2.84.23h2.84c1.42,0,1.42,0,2.84,0s1.42.11,2.84.11,1.42-.38,2.84-.38,1.42.28,2.83.28,1.42-.35,2.84-.35,1.42,0,2.84,0,1.43.41,2.85.41,1.42-.35,2.84-.35,2-1,3,0-.31,1.62-.31,3.09,0,1.47,0,2.95.39,1.47.39,2.94-.21,1.47-.21,2.95.21,1.47.21,2.94-.46,1.48-.46,2.95,0,1.47,0,3,.11,1.47.11,3-.12,1.47-.12,3,.29,1.47.29,3,.11,1.47.11,2.95-.18,1.47-.18,3-.23,1.47-.23,3,.12,1.47.12,3,0,1.47,0,2.95,0,1.47,0,3,.06,1.47.06,2.95-.29,1.53,0,3S186.73,144,185.71,145.08Z"/><path class="cls-9" d="M37,92.39c1.44.6,1.33.87,2.77,1.46s1.52.43,3,1,1.47.55,2.91,1.14,1.42.67,2.86,1.26c.15.07.19,0,.17-.16-.21-1.54,0-1.57-.2-3.12s-.29-1.53-.5-3.08-.29-1.54-.5-3.09,0-1.58-.18-3.13c0-.16-.39-.22-.52-.13-1.23,1-1.23,1-2.46,1.92s-1.14,1.08-2.38,2-1.32.84-2.56,1.8-1.26.92-2.5,1.88C36.71,92.28,36.81,92.33,37,92.39Z"/><path class="cls-10" d="M101.82,51.21c.19-1.55.23-1.54.43-3.09s.15-1.56.35-3.1,0-1.59.15-3.14.1-1.56.3-3.11c0-.16,0-.46-.12-.4-1.43.61-1.42.63-2.86,1.23s-1.4.71-2.84,1.32-1.5.45-3,1-1.34.85-2.78,1.45c-.15.06-.3.42-.18.51,1.24,1,1.5.61,2.74,1.55s1.12,1.11,2.36,2.06,1.13,1.1,2.37,2,1.4.75,2.64,1.7C101.56,51.38,101.8,51.37,101.82,51.21Z"/><path class="cls-8" d="M257.15,101c-1.51.41-1.61.06-3.11.46s-1.45.64-3,1-1.48.49-3,.9-1.6.08-3.11.49c-.15,0-.27.61-.16.72l2.22,2.2c1.1,1.1,1.17,1,2.28,2.14s1.12,1.09,2.22,2.19,1.15,1.07,2.26,2.17c.11.11.54.13.58,0,.4-1.51.09-1.59.49-3.1s.64-1.45,1-2.95.11-1.59.51-3.1.47-1.5.87-3C257.33,101,257.3,101,257.15,101Z"/><path class="cls-8" d="M66.48,37.12c-3.64-1.41-8.46-4.93-8.33-13.65.05-3.73-.78-6.53-2.4-8.11a5.25,5.25,0,0,0-3.38-1.49l-.16-4.16a9.27,9.27,0,0,1,6.45,2.67c2.49,2.43,3.72,6.18,3.65,11.15-.14,9.63,7.45,10.32,8.31,10.37l-.18,4.16A14,14,0,0,1,66.48,37.12Z"/><path class="cls-11" d="M199.87,42.89a10.39,10.39,0,0,1,9.25-7.33,7.54,7.54,0,0,0,5.42-2.39,5,5,0,0,0,1.08-2.7l2.76-.41a8.77,8.77,0,0,1-1.95,5.15A10.23,10.23,0,0,1,209,38.77c-6.36.54-7,6.43-7.09,7.1l-2.74.13A13.56,13.56,0,0,1,199.87,42.89Z"/><path class="cls-2" d="M228.64,56.32a7,7,0,0,1,9.48,2.61,4.93,4.93,0,0,0,2.82,2.39,2.19,2.19,0,0,0,1.53-.25l1.63,2.27a5.09,5.09,0,0,1-3.66.74,7.41,7.41,0,0,1-4.74-3.61c-2.33-3.57-5.27-2-5.59-1.76Z"/><path class="cls-2" d="M246.83,88.12s5.12-3.58,9.09.67a4.08,4.08,0,0,0,2.8,1.53,2.4,2.4,0,0,0,1.42-.44l1.68,1.62a5.8,5.8,0,0,1-3.42,1.18,6.26,6.26,0,0,1-4.68-2.24,4,4,0,0,0-5.37-.58Z"/><path class="cls-2" d="M136.42,0c.07,0,6.23-.48,7.5,5.19a4.08,4.08,0,0,0,1.64,2.74,2.55,2.55,0,0,0,1.45.34l.62,2.24a5.75,5.75,0,0,1-3.54-.71,6.26,6.26,0,0,1-2.9-4.3,4,4,0,0,0-4.34-3.23Z"/><path class="cls-2" d="M45.61,73.08c0-.07-3.7-6.7,3.53-11.07,1.68-1,2.71-2.15,3-3.27a2.49,2.49,0,0,0-.24-1.8l2.8-1.87a5.82,5.82,0,0,1,.74,4.33c-.45,2.09-2,3.93-4.54,5.48-4.38,2.66-2.57,6.15-2.35,6.54Z"/><path class="cls-8" d="M119.06,18.56c-1.44,0-1.44.17-2.87.17s-1.43.1-2.86.1-1.44-.24-2.87-.24-1.44-.07-2.87-.07c-.21,0-.27,0-.27-.21,0-1.44-.12-1.44-.12-2.87s.07-1.43.07-2.86-.08-1.44-.08-2.87.23-1.44.23-2.87c0-.21,0-.41.17-.41,1.43,0,1.43-.18,2.86-.18s1.43,0,2.87,0,1.43.27,2.87.27,1.43-.3,2.87-.3c.2,0,.37.36.37.57V9.7c0,1.43.12,1.43.12,2.87s-.09,1.43-.09,2.87,0,1.43,0,2.87C119.45,18.51,119.26,18.56,119.06,18.56Z"/><g class="cls-12"><rect class="cls-9" x="74.22" y="81.06" width="98.3" height="4.25" transform="translate(-22.69 111.6) rotate(-45)"/><rect class="cls-9" x="83.21" y="90.05" width="98.3" height="4.25" transform="translate(-26.41 120.59) rotate(-45)"/><rect class="cls-9" x="92.2" y="99.04" width="98.3" height="4.25" transform="translate(-30.13 129.58) rotate(-45)"/><rect class="cls-9" x="101.18" y="108.02" width="98.3" height="4.25" transform="translate(-33.85 138.56) rotate(-45)"/><rect class="cls-9" x="110.17" y="117.01" width="98.3" height="4.25" transform="translate(-37.57 147.55) rotate(-45)"/><rect class="cls-9" x="119.16" y="125.99" width="98.3" height="4.25" transform="translate(-41.3 156.53) rotate(-45)"/><rect class="cls-9" x="128.14" y="134.98" width="98.3" height="4.25" transform="translate(-45.02 165.52) rotate(-45)"/></g><path class="cls-11" d="M102.27,78.74a23.92,23.92,0,0,1-.06,2.94,23.61,23.61,0,0,1-.36,2.94,24.14,24.14,0,0,1-.87,2.85,23,23,0,0,1-1.32,2.68A21.9,21.9,0,0,1,98,92.62a24.68,24.68,0,0,1-2.22,2,21.59,21.59,0,0,1-2.13,2,23.74,23.74,0,0,1-2.48,1.59,23.21,23.21,0,0,1-2.61,1.38,23.63,23.63,0,0,1-2.8,1,23.2,23.2,0,0,1-2.87.73,24.6,24.6,0,0,1-3-.05,24.23,24.23,0,0,1-3,0,22.6,22.6,0,0,1-2.86-.73,22.47,22.47,0,0,1-2.88-.73,22.58,22.58,0,0,1-2.62-1.39,21.55,21.55,0,0,1-2.27-1.9,22.93,22.93,0,0,1-2.44-1.68A21.67,21.67,0,0,1,62,92.45,21.36,21.36,0,0,1,60.47,90a22.11,22.11,0,0,1-1.38-2.59,21.23,21.23,0,0,1-.9-2.8,23.08,23.08,0,0,1-.48-2.9,21.63,21.63,0,0,1-.15-2.92,23.68,23.68,0,0,1,.13-2.93A23.81,23.81,0,0,1,58,72.87a23.3,23.3,0,0,1,1.22-2.69,22.18,22.18,0,0,1,1.23-2.66,22.55,22.55,0,0,1,1.65-2.43,23.29,23.29,0,0,1,1.66-2.48,23.12,23.12,0,0,1,2.38-1.79,22.88,22.88,0,0,1,2.43-1.69,23.38,23.38,0,0,1,2.75-1.07,22,22,0,0,1,2.77-.94A22.51,22.51,0,0,1,77,56.6a22.48,22.48,0,0,1,2.92-.68,23.93,23.93,0,0,1,3,.3,23.47,23.47,0,0,1,2.91.61,22.06,22.06,0,0,1,2.81.94,22.78,22.78,0,0,1,2.67,1.31,24,24,0,0,1,2.39,1.75,22.81,22.81,0,0,1,2.25,1.92,24.08,24.08,0,0,1,1.8,2.33,22.68,22.68,0,0,1,1.6,2.47,22,22,0,0,1,1.38,2.58A20.77,20.77,0,0,1,101.5,73a22.46,22.46,0,0,1,.6,2.87A23.37,23.37,0,0,1,102.27,78.74Z"/><path class="cls-13" d="M102.32,75a24.19,24.19,0,0,1,0,2.95,21.82,21.82,0,0,1-.39,3,22.13,22.13,0,0,1-1.35,2.66,23.4,23.4,0,0,1-1,2.82A26.13,26.13,0,0,1,98,88.93a22,22,0,0,1-2.06,2.15A23,23,0,0,1,93.69,93a22.32,22.32,0,0,1-2.57,1.45,23.79,23.79,0,0,1-2.5,1.63,24.63,24.63,0,0,1-2.91.65,22.76,22.76,0,0,1-2.9.44,21.58,21.58,0,0,1-2.91.31A23.47,23.47,0,0,1,77,97.26a23.11,23.11,0,0,1-2.9-.5A25.06,25.06,0,0,1,71.21,96a23.43,23.43,0,0,1-2.52-1.56A24.62,24.62,0,0,1,66,93.13,22,22,0,0,1,63.92,91a21.8,21.8,0,0,1-2-2.16,21.7,21.7,0,0,1-1.46-2.58,22.61,22.61,0,0,1-1.56-2.53,22.41,22.41,0,0,1-.7-2.88,21.12,21.12,0,0,1-.46-2.9A21.71,21.71,0,0,1,57.42,75a21.75,21.75,0,0,1,.34-2.92,23.3,23.3,0,0,1,.37-2.92,22.34,22.34,0,0,1,1-2.78,21.81,21.81,0,0,1,1.11-2.74A22,22,0,0,1,62,61.29,20.53,20.53,0,0,1,64,59.17a23.51,23.51,0,0,1,2-2.23,23.39,23.39,0,0,1,2.57-1.51,23.5,23.5,0,0,1,2.77-1A24.62,24.62,0,0,1,74,53a24.1,24.1,0,0,1,3-.28,22,22,0,0,1,2.94-.48,22.18,22.18,0,0,1,2.93.52,23.39,23.39,0,0,1,2.94.34,21.94,21.94,0,0,1,2.77,1,22.7,22.7,0,0,1,2.7,1.22,23,23,0,0,1,2.29,1.89,22.44,22.44,0,0,1,2.19,1.95,23,23,0,0,1,2.17,2,21.79,21.79,0,0,1,1.78,2.39,23,23,0,0,1,1.2,2.73,22.19,22.19,0,0,1,.85,2.84,22.87,22.87,0,0,1,.65,2.89A22.61,22.61,0,0,1,102.32,75Z"/><circle class="cls-14" cx="79.9" cy="75.4" r="14.43"/><circle class="cls-11" cx="79.9" cy="75.4" r="3.35"/><line class="cls-15" x1="79.9" y1="60.97" x2="79.9" y2="89.01"/><line class="cls-15" x1="93.92" y1="74.99" x2="65.87" y2="74.99"/><line class="cls-15" x1="89.81" y1="84.91" x2="69.98" y2="65.07"/><line class="cls-15" x1="69.98" y1="84.91" x2="89.81" y2="65.07"/><path class="cls-11" d="M239.28,89.56a22.13,22.13,0,0,1-.11,3,22.6,22.6,0,0,1-.67,2.87,23.18,23.18,0,0,1-1.09,2.73,23.13,23.13,0,0,1-1.11,2.72,21.27,21.27,0,0,1-1.72,2.39,24.42,24.42,0,0,1-1.75,2.39,23,23,0,0,1-2.43,1.7,23.72,23.72,0,0,1-2.33,1.8,22.54,22.54,0,0,1-2.64,1.34,21.94,21.94,0,0,1-2.77,1,21.49,21.49,0,0,1-2.91.63,25.4,25.4,0,0,1-3-.23,24.33,24.33,0,0,1-2.95.06,23.64,23.64,0,0,1-2.94-.41,22.24,22.24,0,0,1-2.82-1,22.86,22.86,0,0,1-2.68-1.3,24.63,24.63,0,0,1-2.35-1.83,25,25,0,0,1-2.38-1.78,23.16,23.16,0,0,1-1.92-2.28,22.59,22.59,0,0,1-1.59-2.51,22.78,22.78,0,0,1-1.42-2.62A22.47,22.47,0,0,1,195,95.4a21.26,21.26,0,0,1-.45-2.91,21.88,21.88,0,0,1-.51-2.93,23.44,23.44,0,0,1,.51-2.92,21.17,21.17,0,0,1,.51-2.9,20.5,20.5,0,0,1,.83-2.83,22.38,22.38,0,0,1,1.4-2.6,28.82,28.82,0,0,1,3.6-4.64,22.44,22.44,0,0,1,2.31-1.81A22.32,22.32,0,0,1,205.49,70a22.63,22.63,0,0,1,2.71-1.18A23.24,23.24,0,0,1,211,67.9a22.72,22.72,0,0,1,2.83-.9,22.56,22.56,0,0,1,3,0,21.72,21.72,0,0,1,2.93.37,23.47,23.47,0,0,1,2.93.4,21.82,21.82,0,0,1,2.78,1A22.52,22.52,0,0,1,228.08,70a24.09,24.09,0,0,1,2.54,1.53,21.9,21.9,0,0,1,2.12,2.08,21.5,21.5,0,0,1,1.82,2.31,21.13,21.13,0,0,1,1.58,2.47,23.13,23.13,0,0,1,1.51,2.53,21.94,21.94,0,0,1,1,2.77,23.06,23.06,0,0,1,.59,2.91A22.51,22.51,0,0,1,239.28,89.56Z"/><path class="cls-13" d="M239.13,85.24a21.84,21.84,0,0,1-.1,2.93,22.94,22.94,0,0,1-.48,2.91,22.29,22.29,0,0,1-1,2.76,20.29,20.29,0,0,1-1.14,2.72,21.42,21.42,0,0,1-1.79,2.35,22.56,22.56,0,0,1-1.94,2.21,20.52,20.52,0,0,1-4.52,3.78,23.43,23.43,0,0,1-2.66,1.31,23.2,23.2,0,0,1-2.87.73,23.22,23.22,0,0,1-2.86.78,22.16,22.16,0,0,1-3,.35,22,22,0,0,1-2.92-.62,21.33,21.33,0,0,1-2.89-.53,30.86,30.86,0,0,1-5.48-2.13,22.65,22.65,0,0,1-2.6-1.44,23.36,23.36,0,0,1-2-2.23,22.44,22.44,0,0,1-1.86-2.27,22.35,22.35,0,0,1-1.83-2.31A22.57,22.57,0,0,1,196,93.86a24.32,24.32,0,0,1-1.21-2.71,24.46,24.46,0,0,1-.17-3,23.63,23.63,0,0,1-.23-2.93,24.8,24.8,0,0,1-.14-3,23.74,23.74,0,0,1,.5-2.94,23.86,23.86,0,0,1,1.43-2.63A22.65,22.65,0,0,1,197.24,74a24.21,24.21,0,0,1,1.49-2.57,23.48,23.48,0,0,1,2.25-2,23.1,23.1,0,0,1,2-2.19,18.72,18.72,0,0,1,5.17-2.86,22.69,22.69,0,0,1,2.75-1.13,23.28,23.28,0,0,1,2.93-.52,25,25,0,0,1,3,.17,23.53,23.53,0,0,1,3-.26,22.79,22.79,0,0,1,2.85.84,21.91,21.91,0,0,1,2.81.9A20.84,20.84,0,0,1,228,65.81a23,23,0,0,1,2.56,1.48,21.75,21.75,0,0,1,2,2.14,24.74,24.74,0,0,1,2.24,2A21.77,21.77,0,0,1,236.33,74a22.59,22.59,0,0,1,1.11,2.73,22.6,22.6,0,0,1,1.29,2.67,23.56,23.56,0,0,1,.49,2.93A22.53,22.53,0,0,1,239.13,85.24Z"/><rect class="cls-16" x="205.82" y="74.51" width="21.44" height="21.44"/><rect class="cls-6" x="209.08" y="77.86" width="6.66" height="6.64"/><rect class="cls-6" x="209.08" y="85.97" width="6.66" height="6.64"/><rect class="cls-6" x="217.33" y="77.86" width="6.66" height="6.64"/><rect class="cls-6" x="217.33" y="85.97" width="6.66" height="6.64"/><line class="cls-17" x1="227.67" y1="77.39" x2="232.5" y2="77.39"/><line class="cls-17" x1="227.67" y1="82.38" x2="232.5" y2="82.38"/><line class="cls-17" x1="227.67" y1="87.36" x2="232.5" y2="87.36"/><line class="cls-17" x1="227.67" y1="92.34" x2="232.5" y2="92.34"/><line class="cls-17" x1="200.79" y1="77.39" x2="205.62" y2="77.39"/><line class="cls-17" x1="200.79" y1="82.38" x2="205.62" y2="82.38"/><line class="cls-17" x1="200.79" y1="87.36" x2="205.62" y2="87.36"/><line class="cls-17" x1="200.79" y1="92.34" x2="205.62" y2="92.34"/><line class="cls-17" x1="223.97" y1="69.17" x2="223.97" y2="74"/><line class="cls-17" x1="218.99" y1="69.17" x2="218.99" y2="74"/><line class="cls-17" x1="214" y1="69.17" x2="214" y2="74"/><line class="cls-17" x1="209.02" y1="69.17" x2="209.02" y2="74"/><line class="cls-17" x1="223.97" y1="96.49" x2="223.97" y2="101.32"/><line class="cls-17" x1="218.99" y1="96.49" x2="218.99" y2="101.32"/><line class="cls-17" x1="214" y1="96.49" x2="214" y2="101.32"/><line class="cls-17" x1="209.02" y1="96.49" x2="209.02" y2="101.32"/><path class="cls-11" d="M178,54.84c0,.95.18,1.9.1,2.83s-.4,1.86-.56,2.79-.06,1.92-.3,2.83-.48,1.86-.8,2.74-1.05,1.62-1.45,2.47a27.61,27.61,0,0,1-1.14,2.6c-.47.83-1.11,1.53-1.65,2.31s-1,1.63-1.58,2.36-1.42,1.25-2.09,1.92-1.22,1.45-2,2.06-1.42,1.26-2.19,1.81-1.65.93-2.47,1.4-1.51,1.21-2.37,1.62-1.9.37-2.79.7-1.79.55-2.71.79-1.75.8-2.69,1-1.89.23-2.84.31-1.89,0-2.84,0-1.91.11-2.85,0-1.87-.36-2.8-.52-1.84-.46-2.74-.7-1.91-.27-2.8-.59-1.76-.73-2.62-1.13-1.62-1-2.43-1.47-1.73-.83-2.5-1.38-1.6-1-2.33-1.65-1.1-1.6-1.77-2.27-1.42-1.25-2-2-1.22-1.45-1.76-2.22-1-1.62-1.45-2.44-1-1.61-1.37-2.47-.9-1.68-1.23-2.57-.77-1.75-1-2.67-.18-1.91-.35-2.85-.25-1.86-.34-2.81.08-1.88.08-2.83-.37-1.92-.29-2.85.22-1.91.38-2.83.59-1.82.84-2.73a28.17,28.17,0,0,1,.94-2.67c.32-.89.62-1.78,1-2.63s.88-1.67,1.35-2.49.64-1.84,1.18-2.62,1.47-1.26,2.08-2,1.07-1.59,1.74-2.26,1.54-1.1,2.27-1.71,1.2-1.55,2-2.09,1.81-.69,2.63-1.17,1.46-1.29,2.32-1.69,1.87-.45,2.76-.78,1.69-.93,2.61-1.18,1.93-.05,2.86-.21,1.84-.43,2.79-.51,1.88-.17,2.84-.17,1.89.18,2.83.26,1.87.23,2.8.39,1.91.13,2.82.37,1.74.8,2.62,1.12,1.73.75,2.58,1.15,1.83.58,2.64,1.05,1.65.95,2.43,1.5,1.49,1.17,2.21,1.78,1.37,1.31,2,2,1.25,1.42,1.86,2.14,1.15,1.49,1.7,2.26,1.31,1.41,1.78,2.23.81,1.72,1.21,2.58.58,1.8.91,2.69.63,1.77.88,2.69.35,1.83.52,2.77.41,1.84.49,2.79S178,53.88,178,54.84Z"/><path class="cls-13" d="M178.33,50.83c0,1-.34,1.88-.42,2.81s0,1.9-.21,2.83-.47,1.83-.71,2.74-.36,1.87-.68,2.76-.89,1.67-1.29,2.53-.59,1.83-1.06,2.64-1.15,1.52-1.69,2.29-.86,1.74-1.47,2.46-1.39,1.32-2.05,2-1.26,1.45-2,2.06-1.7.9-2.47,1.45-1.55,1.07-2.37,1.54-1.71.78-2.57,1.19-1.67.84-2.57,1.17-1.69.93-2.61,1.17-1.91.11-2.85.28-1.85.3-2.8.38-1.87.33-2.82.33-1.9-.12-2.84-.2-1.85-.42-2.78-.58-1.86-.29-2.77-.54-1.92-.22-2.8-.54-1.82-.62-2.68-1-1.68-.92-2.49-1.4S127.79,78,127,77.5s-1.64-1-2.37-1.59-1.45-1.25-2.12-1.92-1.27-1.42-1.88-2.15-1.21-1.48-1.75-2.25-1.13-1.54-1.61-2.36-.55-1.86-1-2.72-1.12-1.58-1.45-2.47-.21-1.92-.46-2.84-.72-1.77-.88-2.7-.22-1.88-.3-2.83-.36-1.89-.36-2.84.17-1.92.25-2.85.12-1.92.28-2.85.49-1.85.74-2.76.58-1.81.9-2.7,1-1.64,1.37-2.49.51-1.87,1-2.69.93-1.67,1.48-2.44,1.22-1.46,1.82-2.19,1.47-1.21,2.14-1.88,1.14-1.55,1.87-2.16S126.17,24.59,127,24s1.7-.85,2.52-1.32,1.51-1.21,2.37-1.62,1.86-.45,2.76-.77,1.8-.51,2.72-.76,1.83-.41,2.76-.58,1.81-.72,2.76-.8,1.9.27,2.86.27,1.92-.34,2.85-.26,1.88.39,2.81.55,1.81.57,2.72.81,1.9.26,2.79.58,1.68.89,2.54,1.29,1.66.89,2.48,1.36,1.65.91,2.43,1.45,1.53,1.09,2.26,1.7,1.37,1.3,2,2S170,29.24,170.56,30s1.44,1.28,2,2.06.76,1.76,1.24,2.58,1,1.63,1.35,2.49.84,1.69,1.16,2.59.53,1.81.78,2.73.74,1.77.91,2.71-.1,1.92,0,2.87S178.33,49.87,178.33,50.83Z"/><ellipse class="cls-6" cx="145.43" cy="44.48" rx="13.32" ry="12.68"/><ellipse class="cls-18" cx="145.43" cy="44.48" rx="18.02" ry="17.15"/><path class="cls-11" d="M147.37,28.09c0,1.46-.89,11.37-2,11.37s-2-9.91-2-11.37.89-2.63,2-2.63S147.37,26.64,147.37,28.09Z"/><ellipse class="cls-11" cx="145.54" cy="43.54" rx="2.39" ry="2.49"/><path class="cls-11" d="M129.47,48c1.41-.57,11.32-3.73,11.76-2.77s-8.78,5.67-10.18,6.24-2.9.27-3.33-.69S128.07,48.58,129.47,48Z"/><path class="cls-11" d="M161.29,48c-1.4-.57-11.32-3.73-11.75-2.77s8.78,5.67,10.18,6.24,2.89.27,3.33-.69S162.7,48.58,161.29,48Z"/><path class="cls-11" d="M146.42,48.91a1,1,0,0,0-.91-.66h0a.94.94,0,0,0-.91.65l-8.78,27.78h2l7.67-24.28,7.19,24.28h2Z"/><line class="cls-19" x1="142.49" y1="58.82" x2="147.99" y2="58.82"/><line class="cls-19" x1="140.06" y1="66.97" x2="150.31" y2="66.97"/><path class="cls-10" d="M180.88,9.37c-1,1.2-1,1.2-2,2.4s-.67,1.48-1.67,2.67-1.29,1-2.29,2.16l-2,2.4c-.1.12.08.47.24.5,1.53.27,1.56.13,3.09.4s1.54.3,3.07.57,1.57.11,3.11.38,1.51.44,3.05.71c.16,0,.4-.14.35-.28-.54-1.47-.8-1.38-1.33-2.84s-.29-1.56-.83-3-.66-1.42-1.2-2.89-.54-1.47-1.07-2.94C181.33,9.44,181,9.25,180.88,9.37Z"/><circle class="cls-2" cx="196.32" cy="57.77" r="2.31"/><circle class="cls-13" cx="84.01" cy="26.92" r="2.31"/><circle class="cls-13" cx="101.29" cy="96.34" r="1.36"/><circle class="cls-2" cx="183.05" cy="78.44" r="1.36"/><circle class="cls-13" cx="48.38" cy="112.38" r="1.74"/><circle class="cls-13" cx="199.36" cy="27.54" r="1.74"/><path class="cls-2" d="M290.37,307.85c-2.14,0-2.14.31-4.28.31s-2.14.15-4.27.15-2.14.24-4.28.24-2.14-.2-4.28-.2-2.13-.53-4.27-.53-2.14.18-4.28.18h-4.27c-2.14,0-2.14.82-4.27.82s-2.14-.36-4.28-.36-2.14.24-4.28.24-2.14.1-4.27.1-2.14-1-4.28-1-2.14.2-4.27.2-2.14-.1-4.28-.1-2.14,0-4.28,0-2.13.44-4.27.44-2.14.33-4.28.33-2.13-.64-4.27-.64h-4.28c-2.14,0-2.14.27-4.28.27s-2.13-.14-4.27-.14-2.13-.1-4.27-.1-2.13-.24-4.27-.24-2.14.26-4.27.26-2.14.56-4.27.56-2.14-.13-4.28-.13-2.14-.64-4.28-.64-2.13.71-4.27.71-2.14-.59-4.27-.59-2.14.14-4.28.14-2.13.23-4.27.23-2.14-.6-4.28-.6-2.14.16-4.27.16-2.14.44-4.28.44-2.14-.5-4.27-.5-2.14-.15-4.28-.15-2.14.52-4.28.52-2.13-.21-4.27-.21-2.14.47-4.28.47-2.14-.4-4.28-.4-2.13-.36-4.27-.36-2.14.18-4.28.18-2.14-.11-4.28-.11-2.14.43-4.28.43-2.13.08-4.27.08-2.14.17-4.28.17-2.14-.19-4.28-.19-2.14.42-4.28.42-2.14-.14-4.28-.14-2.14.18-4.28.18-2.13-.87-4.27-.87-2.14.21-4.28.21-2.14.22-4.28.22-2.14-.53-4.28-.53-2.13.83-4.27.83-2.14-.65-4.28-.65-2.14-.07-4.28-.07-2.14.22-4.28.22-2.14-.18-4.28-.18-2.14.25-4.28.25-2.14-.37-4.28-.37-2.14-.05-4.28-.05H21c-2.14,0-2.14.85-4.28.85s-2.14,0-4.29,0-2.14-.78-4.29-.78a6.15,6.15,0,0,1-3.79-1.28,7.74,7.74,0,0,1-2.51-3.18,9.25,9.25,0,0,1-1.15-4c0-2.12-.64-2.12-.64-4.24s.87-2.12.87-4.24-.5-2.12-.5-4.24.58-2.12.58-4.24-.51-2.12-.51-4.24.11-2.12.11-4.24.06-2.12.06-4.24.09-2.12.09-4.24-.21-2.12-.21-4.24-.23-2.12-.23-4.24S.9,255,.9,252.83s-.21-2.12-.21-4.24-.51-2.12-.51-4.23-.09-2.12-.09-4.25.66-2.11.66-4.23.26-2.13.26-4.25S.7,229.51.7,227.39s0-2.12,0-4.24S.9,221,.9,218.91s-.08-2.13-.08-4.25S.4,212.54.4,210.42s.35-2.12.35-4.24S0,204.05,0,201.93s.87-2.12.87-4.25.1-2.12.1-4.25-.76-2.12-.76-4.25a9.85,9.85,0,0,1,1.31-4.09,8.76,8.76,0,0,1,2.38-3.56,7.56,7.56,0,0,1,4.15-1.6c2.14,0,2.14.63,4.28.63s2.14.16,4.27.16,2.14-.14,4.28-.14,2.14.28,4.28.28,2.13-.33,4.27-.33,2.14.36,4.28.36,2.13-1,4.27-1,2.14.26,4.28.26,2.13-.2,4.27-.2,2.14.69,4.28.69,2.14.08,4.27.08,2.14-.87,4.28-.87,2.14,1,4.27,1,2.14-.1,4.28-.1,2.14-.67,4.28-.67,2.13,0,4.27,0h4.28c2.13,0,2.13.77,4.27.77s2.14-.76,4.28-.76,2.14.36,4.28.36,2.13-.06,4.27-.06,2.13-.46,4.27-.46,2.13.23,4.27.23,2.14-.27,4.27-.27,2.14.61,4.27.61,2.14-.28,4.28-.28,2.14-.25,4.28-.25,2.13,0,4.27,0,2.14.44,4.27.44,2.14-.21,4.28-.21,2.13.56,4.27.56,2.14-.17,4.28-.17,2.14-.64,4.27-.64,2.14.31,4.28.31,2.14-.22,4.27-.22,2.14.22,4.28.22,2.14.18,4.28.18,2.14.14,4.27.14,2.14.23,4.28.23h4.28c2.13,0,2.13-.81,4.27-.81s2.14.47,4.28.47,2.14-.28,4.28-.28,2.14-.19,4.28-.19,2.13,0,4.27,0,2.14.53,4.28.53,2.14-.43,4.28-.43,2.14.06,4.28.06,2.14-.14,4.28-.14,2.14.3,4.28.3,2.13-.19,4.27-.19,2.14.65,4.28.65,2.14-.28,4.28-.28,2.14.3,4.28.3,2.13-.78,4.27-.78h4.28c2.14,0,2.14.53,4.28.53s2.14.32,4.28.32,2.14-.9,4.28-.9,2.14.52,4.28.52,2.14.23,4.28.23,2.14-.31,4.28-.31,2.15-.49,4.29-.49,2.14.65,4.28.65,2.14-.19,4.29-.19,2.14,0,4.29,0c1.47,0,2.57.88,3.74,1.72s2.59,1.45,3.22,2.8a10.36,10.36,0,0,1,.48,4.29c0,2.13.18,2.13.18,4.25s-.31,2.11-.31,4.23.63,2.12.63,4.24-.61,2.12-.61,4.25,0,2.11,0,4.23-.13,2.13-.13,4.25.89,2.12.89,4.24-.33,2.12-.33,4.24.05,2.12.05,4.24-.4,2.12-.4,4.24.69,2.12.69,4.24-.5,2.12-.5,4.24-.11,2.12-.11,4.24.11,2.12.11,4.24-.43,2.12-.43,4.24,0,2.12,0,4.24.41,2.12.41,4.24.54,2.12.54,4.24-.93,2.13-.93,4.25.22,2.12.22,4.24,0,2.12,0,4.25-.06,2.12-.06,4.24.27,2.12.27,4.24.33,2.13.33,4.25,0,2.13,0,4.25-.64,2.13-.64,4.25c0,1.51.22,3-.36,4.27a8.52,8.52,0,0,1-3,3.07A6.33,6.33,0,0,1,290.37,307.85Z"/><path class="cls-11" d="M61.76,246.78a2.75,2.75,0,0,1,.83,2,2.83,2.83,0,0,1-2.87,2.86,2.72,2.72,0,0,1-2-.83,2.76,2.76,0,0,1-.84-2A2.85,2.85,0,0,1,59.72,246,2.8,2.8,0,0,1,61.76,246.78Z"/><path class="cls-11" d="M72.37,256.36,72,254.83a11.07,11.07,0,0,0,1.26.08.52.52,0,0,0,.59-.58v-3.57c-.57.22-1.15.42-1.74.62l-.38-1.6a17.75,17.75,0,0,0,2.12-.63v-3.43H72V244.2h1.89v-3h1.6v3H77v1.52H75.47v2.76c.43-.2.85-.41,1.26-.65v1.62l-1.26.63v4.67a1.44,1.44,0,0,1-1.64,1.61Zm14.28-7.83V250h-4v1.53h3.28v1.4H82.65v1.77c.62.06,1.33.11,2.16.11a21.49,21.49,0,0,0,2.3-.1l-.43,1.54c-.65,0-1.23,0-1.76,0a11.77,11.77,0,0,1-4.55-.61,4.19,4.19,0,0,1-1.59-1.6,11,11,0,0,1-1.5,2.55l-1.18-1a8.81,8.81,0,0,0,2-5l1.4.17a11.74,11.74,0,0,1-.23,1.71A3.73,3.73,0,0,0,81,254.25l.15.05V250H77.07v-1.42Zm-1-6.88v6h-7.5v-6Zm-1.55,2.4v-1.12H79.68v1.12Zm0,1.2H79.68v1.13H84.1Z"/><path class="cls-11" d="M97.89,242.45A20.31,20.31,0,0,1,95,243.5v3.83h4.1v-6h1.58v6h3.71v1.54h-3.71v7.63H99.08v-7.63H94.94a9.38,9.38,0,0,1-4.11,7.68l-1.2-1.05a8,8,0,0,0,3.71-6.63H89.46v-1.54h3.92V243.9a28.33,28.33,0,0,1-3.07.42l-.5-1.44a24.13,24.13,0,0,0,7.32-1.71Z"/><path class="cls-11" d="M109.09,242.9l6.08,8.85h.07V242.9h1.81v11.9h-1.76l-6.15-9h-.07v9h-1.81V242.9Z"/><path class="cls-11" d="M125.17,242.9c2.83,0,4.24,1.2,4.24,3.62s-1.43,3.65-4.28,3.65h-3.08v4.63h-1.82V242.9Zm-3.12,5.72h3a3.13,3.13,0,0,0,2-.5,2,2,0,0,0,.62-1.6A1.81,1.81,0,0,0,127,245a3.09,3.09,0,0,0-1.94-.5h-3Z"/><path class="cls-11" d="M141.48,244.43a7.28,7.28,0,0,1,0,8.85,6.1,6.1,0,0,1-8.57,0,7.3,7.3,0,0,1,0-8.81,5.36,5.36,0,0,1,4.28-1.78A5.46,5.46,0,0,1,141.48,244.43Zm-7.23,1.12a5.08,5.08,0,0,0-1,3.32,5,5,0,0,0,1,3.29,3.61,3.61,0,0,0,2.94,1.27,3.66,3.66,0,0,0,2.94-1.23,5.11,5.11,0,0,0,1-3.33,5.21,5.21,0,0,0-1-3.37,3.6,3.6,0,0,0-2.94-1.23A3.53,3.53,0,0,0,134.25,245.55Z"/><path class="cls-11" d="M156,243.7c-.07.23-.14.45-.22.67a7.77,7.77,0,0,0,4.48,2l-.65,1.3a8.26,8.26,0,0,1-1.28-.3v6.83H155a35.45,35.45,0,0,1,5.15,1.2l-.52,1.25a33.09,33.09,0,0,0-5.56-1.45l.51-1h-3.83l.69.88a18.07,18.07,0,0,1-5.3,1.55l-.72-1.21a23,23,0,0,0,4.93-1.22h-3.06V247.3h4l-.63-1c2.23-.4,3.55-1.36,4-2.9Zm-5.72,1.3v1.35h-4.81V245Zm-.35-3v1.33h-4.13V242Zm6.85,7.28v-.78h-7.91v.78Zm0,1.78v-.73h-7.91v.73Zm0,1h-7.91v.81h7.91Zm-5.71-7-.87-1.15a6.09,6.09,0,0,0,2.4-2.94l1.45.17c-.1.27-.2.53-.32.78h5.85v1.1a9.43,9.43,0,0,1-1.43,2.19l-1.09-.85a6.84,6.84,0,0,0,.87-1.14h-5A8.76,8.76,0,0,1,151.06,245.12Zm7.11,2.18a8,8,0,0,1-3-1.87,5.63,5.63,0,0,1-3,1.87Z"/><path class="cls-11" d="M165,249.45a29.9,29.9,0,0,1-1.21,4.58l-1.17-.42a23.85,23.85,0,0,0,1.25-4.46Zm0-3.48-1.24.33a25.21,25.21,0,0,0-.9-3.37l1.3-.41A35.05,35.05,0,0,1,165,246Zm.46.91v-5.76H167v5.76h2.25v1.52H167v8.06h-1.54V248.4h-2.41v-1.52Zm3.85-4.38a14.44,14.44,0,0,1-.68,3.68l-1.17-.36a16,16,0,0,0,.54-3.5Zm.22,10.5-1.2.3c-.22-1.35-.48-2.65-.78-3.88l1-.34A37.11,37.11,0,0,1,169.55,253Zm6.81-11.83v9.34l1.44-.21.25,1.53-1.69.25v4.42h-1.51v-4.19l-4.85.74-.23-1.54,5.08-.76v-9.58Zm-2.46,7.65-1.07,1a15.78,15.78,0,0,0-2.8-2.63l1-1A22.77,22.77,0,0,1,173.9,248.82Zm.46-4-1,1a17.6,17.6,0,0,0-2.86-2.47l1-1A20.91,20.91,0,0,1,174.36,244.77Z"/><path class="cls-11" d="M195,243.67H182.93v4.06a21.86,21.86,0,0,1-1.57,8.7l-1.2-1.07a20.68,20.68,0,0,0,1.2-7.63v-5.55h6.32a7.43,7.43,0,0,0-.54-.83l1.7-.27c.17.34.34.7.5,1.1H195Zm-9.7,9.08a13.27,13.27,0,0,1-1.23,3.45l-1.25-.8a10.23,10.23,0,0,0,1.1-2.94Zm-1.8-3.75-.45-1.48a10,10,0,0,0,2.55-3.7l1.29.58a11,11,0,0,1-1,1.93v5.5h-1.5v-3.66Zm4,7.33a1.35,1.35,0,0,1-1.53-1.52v-2.55h1.5v2.25c0,.25.16.39.5.39h2.53a1,1,0,0,0,.65-.19c.17-.13.28-.56.35-1.26l1.36.45c-.13,1.16-.36,1.88-.69,2.11a2.56,2.56,0,0,1-1.4.32Zm7.38-5.77v1.2h-7.36v-3.64c-.27.33-.55.66-.84,1l-.46-1.5a10.42,10.42,0,0,0,2-3.75l1.38.27c-.1.28-.18.56-.28.83h1.53a7.39,7.39,0,0,0-.46-.85l1.48-.23c.15.33.3.68.45,1.08h2.36v1.2h-2.38v.77h2.12V248h-2.12v.72h2.12v1.08h-2.12v.78Zm-4.18,3.17-1.17.82a14.49,14.49,0,0,0-1.45-1.87l1.15-.72A15.27,15.27,0,0,1,190.76,253.73ZM189,246.15v.77h2v-.77Zm0,2.55h2V248h-2Zm0,1.86h2v-.78h-2Zm6.56,4.42-1.23.85a29.73,29.73,0,0,0-1.93-3.1l1.21-.73A26.44,26.44,0,0,1,195.54,255Z"/><path class="cls-11" d="M198.79,256.4l-1.22-1.09a9.54,9.54,0,0,0,1.55-5.45V241.7H211.9v12.55a1.68,1.68,0,0,1-1.91,1.88h-1.92l-.42-1.55c.65,0,1.25.08,1.82.08s.82-.33.82-1V251.2h-4.14V256h-1.6V251.2h-3.91A10.05,10.05,0,0,1,198.79,256.4Zm1.93-13.17v2.5h3.83v-2.5Zm0,6.5h3.83v-2.55h-3.83Zm9.57-6.5h-4.14v2.5h4.14Zm0,4h-4.14v2.55h4.14Z"/><path class="cls-11" d="M222.83,241.18v1.72l-.05,1.3h6.33c-.06,3-.16,5.38-.33,7.23a10.71,10.71,0,0,1-.87,3.82,2.25,2.25,0,0,1-1.9,1.15h-2.33l-.43-1.54c.7,0,1.36,0,2,0q1.27,0,1.68-1.68a44.77,44.77,0,0,0,.55-7.51h-4.82a19.89,19.89,0,0,1-1.5,6.06,10.44,10.44,0,0,1-4.85,4.75l-.86-1.38a9.62,9.62,0,0,0,4.48-4.57,18.66,18.66,0,0,0,1.1-4.86h-4.7V244.2h4.82l0-1.3v-1.72Z"/><path class="cls-11" d="M61.76,274.55a2.75,2.75,0,0,1,.83,2,2.83,2.83,0,0,1-2.87,2.86,2.72,2.72,0,0,1-2-.83,2.76,2.76,0,0,1-.84-2,2.68,2.68,0,0,1,.84-2,2.65,2.65,0,0,1,2-.83A2.76,2.76,0,0,1,61.76,274.55Z"/><path class="cls-11" d="M73.45,272.7v-3.57H75v3.57H76.7v1.48H75v9.9H73.45v-9.9h-1.8V272.7ZM80.83,283a1.59,1.59,0,0,1-1.56,1c-.29,0-.62,0-1-.07l-.35-1.31c.42,0,.77.07,1,.08s.65-.26.75-.76a29.81,29.81,0,0,0,.17-3.84h-1a13.76,13.76,0,0,1-.53,2.77,7.64,7.64,0,0,1-2,3.18l-1-1.23a6.57,6.57,0,0,0,1.7-2.62,11.6,11.6,0,0,0,.38-2.1H76.08v-1.36h1.47l0-1.39H79l0,1.39H81.3C81.28,280.23,81.13,282.31,80.83,283Zm4.62-8.84a2.12,2.12,0,0,1-1.93.83,7.89,7.89,0,0,1-1.1-.07L82,273.52a9.72,9.72,0,0,0,1.43.13c.5,0,.8-.23.88-.63a8.17,8.17,0,0,0,.12-1.35H81.77l-.07.28a3.83,3.83,0,0,1-1.2,1.95,6.34,6.34,0,0,1-2.62,1.27l-.8-1.27a5.63,5.63,0,0,0,2.24-.9,2.69,2.69,0,0,0,.91-1.33H77.48V270.3h3a10.86,10.86,0,0,0,0-1.17H82c0,.42,0,.8,0,1.17h4C86,272.33,85.8,273.63,85.45,274.17ZM86.53,283a1.49,1.49,0,0,1-1.43,1c-.37,0-.8,0-1.3-.06l-.37-1.32,1.34.09c.33,0,.54-.27.63-.77a36,36,0,0,0,.15-3.82H84.38a13.54,13.54,0,0,1-.5,2.74,7.59,7.59,0,0,1-2.06,3.18l-.92-1.17a6.34,6.34,0,0,0,1.67-2.65,12.29,12.29,0,0,0,.4-2.1h-1.1v-1.36h1.21l0-1.42h1.42c0,.5,0,1-.07,1.42H87C87,280.23,86.81,282.3,86.53,283Z"/><path class="cls-11" d="M96.24,279.85l1-.33V281a65.65,65.65,0,0,1-7.57,2.15l-.43-1.51,1.12-.24V269.8h5.86Zm-1.56-6.47v-2.13H92v2.13Zm0,3.64V274.8H92V277Zm0,3.31v-1.88H92v2.6C92.93,280.81,93.83,280.57,94.68,280.33ZM100.46,269v3h3.63c0,5.57-.08,9-.25,10.28s-1,1.9-2.61,1.9c-.27,0-.72,0-1.35-.07l-.37-1.4a14.18,14.18,0,0,0,1.47.09,1.24,1.24,0,0,0,1.35-1.2q.15-1.2.19-8.1h-2.06v.3Q100.39,281,97,284.4l-1.27-1.12q3-3,3.1-9.53v-.3H97V272h1.88v-3Z"/><path class="cls-11" d="M109.09,270.67l6.08,8.85h.07v-8.85h1.81v11.89h-1.76l-6.15-8.94h-.07v8.94h-1.81V270.67Z"/><path class="cls-11" d="M125.17,270.67q4.24,0,4.24,3.61c0,2.44-1.43,3.65-4.28,3.65h-3.08v4.63h-1.82V270.67Zm-3.12,5.71h3a3.07,3.07,0,0,0,2-.5,2,2,0,0,0,.62-1.6,1.8,1.8,0,0,0-.64-1.56,3,3,0,0,0-1.94-.5h-3Z"/><path class="cls-11" d="M141.48,272.2a7.28,7.28,0,0,1,0,8.85,6.1,6.1,0,0,1-8.57,0,7.3,7.3,0,0,1,0-8.81,5.37,5.37,0,0,1,4.28-1.79A5.46,5.46,0,0,1,141.48,272.2Zm-7.23,1.12a6,6,0,0,0,0,6.61,4.08,4.08,0,0,0,5.88,0,5.12,5.12,0,0,0,1-3.34,5.18,5.18,0,0,0-1-3.36,3.58,3.58,0,0,0-2.94-1.24A3.54,3.54,0,0,0,134.25,273.32Z"/><path class="cls-11" d="M154,269.55l-.67.7h4.45v1.23c-1.8,3.2-5.13,5-10,5.42l-.67-1.43a19,19,0,0,0,3.75-.57,16.8,16.8,0,0,0-1.47-1.55l1.37-.65a21.32,21.32,0,0,1,1.58,1.7,8.63,8.63,0,0,0,3.63-2.75h-4.48a15.46,15.46,0,0,1-4.56,1.72l-.94-1.45a11.74,11.74,0,0,0,6.6-3.1Zm0,11.6a10,10,0,0,0,3.91-3h-4.56a22.37,22.37,0,0,1-5.1,1.58l-.95-1.41c3.63-.35,6.31-1.42,8-3.22l1.35.74a10.13,10.13,0,0,1-1,.88H160V278q-3.57,5.85-13.31,6.1l-.63-1.52a22.25,22.25,0,0,0,6.5-.84,17,17,0,0,0-1.6-1.82l1.4-.67A22.4,22.4,0,0,1,154,281.15Z"/><path class="cls-11" d="M177.48,274.6v1.53H173v5.8c0,.43.19.67.61.67h1.83a.58.58,0,0,0,.55-.38,8.19,8.19,0,0,0,.29-2.52l1.43.47c-.12,1.86-.33,3-.63,3.33a1.72,1.72,0,0,1-1.34.51h-2.58a1.53,1.53,0,0,1-1.7-1.75v-6.13h-2.63v.3a9.84,9.84,0,0,1-1.37,5.13,8,8,0,0,1-4,2.77L162.6,283a7.16,7.16,0,0,0,3.67-2.45,8.73,8.73,0,0,0,1-4.12v-.3h-4.19V274.6ZM176,269.7v1.53H164.42V269.7Z"/><path class="cls-11" d="M180.46,277.23l-.52-1.7a18.56,18.56,0,0,0,3.82-6.76l1.48.7a18.74,18.74,0,0,1-1.63,3.66v11.18H182v-8.83A23.1,23.1,0,0,1,180.46,277.23Zm14.46,7h-1.56v-.62h-6.68v.64h-1.54v-7.47h9.78Zm-.86-14.81v6.31H186v-6.31Zm-.7,10v-1.3h-6.68v1.3Zm0,2.71v-1.35h-6.68v1.35ZM192.51,272v-1.15h-5V272Zm0,1.34h-5v1.11h5Z"/><path class="cls-11" d="M201.22,270.82h1.53v1.43h-5v-1.43h2c-.24-.55-.47-1.09-.74-1.59l1.49-.41C200.79,269.55,201,270.22,201.22,270.82Zm-1.63,13.44h-1.45v-6.09h4.36V284h-1.43v-.7h-1.48Zm2.75-10.91v1.37h-4v-1.37Zm0,2.35v1.37h-4V275.7Zm-1.27,3.87h-1.48v2.31h1.48Zm3.88-1.65v-.72c-.48,0-1,.07-1.46.07l-.37-1.09a12.9,12.9,0,0,0,4.12-.58l.56,1a6.75,6.75,0,0,1-1.46.44v.9h2c0-.69,0-1.42,0-2.19h1.34c0,.8,0,1.52.05,2.19h2.83v1.2h-2.75a9.9,9.9,0,0,0,.25,1.73,8.32,8.32,0,0,0,1.25-1.48l1,.73a8.63,8.63,0,0,1-1.75,2c.27.48.56.73.89.77s.45-.54.61-1.57l1.09.73a6,6,0,0,1-.79,1.74,1.2,1.2,0,0,1-.91.45,2.29,2.29,0,0,1-2-1.34,11.21,11.21,0,0,1-2,.95l-.55-1.23a9.42,9.42,0,0,0,2-.91,13.51,13.51,0,0,1-.43-2.6h-2.1v1.05a14.22,14.22,0,0,0,1.55-.37V281a15.35,15.35,0,0,1-1.55.38v1.25c0,1-.54,1.5-1.59,1.5h-1.31l-.29-1.27a9.49,9.49,0,0,0,1.15.09.57.57,0,0,0,.65-.64v-.7c-.56.09-1.15.17-1.78.24l-.2-1.34c.72,0,1.38-.09,2-.16v-1.23H203v-1.2Zm.35-7.65a6.58,6.58,0,0,0-.61-.94l1.36-.48a7.88,7.88,0,0,1,.79,1.42h1.88a13.55,13.55,0,0,0,.8-1.5l1.4.48a11,11,0,0,1-.62,1h2.23v1.2h-4v.7h3.31v1.18h-3.31v.75h4.15v1.2h-9.48v-1.2h3.91v-.75h-3.26v-1.18h3.26v-.7h-3.93v-1.2Zm7.32,6.36-.64.95a10.37,10.37,0,0,0-2-.95l.65-1A10.18,10.18,0,0,1,212.62,276.63Z"/><path class="cls-11" d="M216.67,273.05l-1.39-.87a9.41,9.41,0,0,0,2.07-3.36l1.51.33c-.1.28-.21.57-.31.83h4.2v1.39h-2.5a9.12,9.12,0,0,1,.76,1.2l-1.45.55a14.88,14.88,0,0,0-1-1.75h-.74A13.69,13.69,0,0,1,216.67,273.05Zm13.27,3.5H228.4V274.7H217.16v1.85h-1.54v-3.18h6.44a6.31,6.31,0,0,0-.43-.9l1.4-.24-.28-.18a9.84,9.84,0,0,0,1.66-3.21l1.52.33c-.1.28-.18.55-.28.81h4.63v1.39h-2.72a8.72,8.72,0,0,1,.67,1.06l-1.4.52a11.82,11.82,0,0,0-1-1.58H225a10.65,10.65,0,0,1-.95,1.53l-.8-.52c.13.3.25.64.38,1h6.28Zm-2.29,2.4h-8.12v.88h8.9v4.45h-1.58v-.6h-7.32v.58H218v-8.81h9.7Zm-1.55-1.27v-1h-6.57v1Zm.75,4.6v-1.2h-7.32v1.2Z"/><path class="cls-11" d="M236.84,273v1.23a22.22,22.22,0,0,1-1.83,2.58h2v1.05a19.19,19.19,0,0,1-.8,3.07c.14.1.25.2.39.32a5.43,5.43,0,0,0,1.53,1.06,6.32,6.32,0,0,0,2.13.32c.9,0,1.95,0,3.12,0s2.7-.05,4.58-.12l-.35,1.5h-4.05c-1.16,0-2.3,0-3.36-.06a8.14,8.14,0,0,1-2.59-.4,5.83,5.83,0,0,1-1.9-1.29.54.54,0,0,0-.4-.18c-.33,0-.86.72-1.59,2.18l-1.15-1.05a5.24,5.24,0,0,1,2.19-2.58,14.49,14.49,0,0,0,.77-2.51h-2.41v-1.2a22,22,0,0,0,2-2.52h-2.26V273Zm-.08-1.6-1,1a15.81,15.81,0,0,0-2.54-2.42l1-1A19.45,19.45,0,0,1,236.76,271.37Zm3.15-.7a8.4,8.4,0,0,0-.87-1.27l1.47-.55a11.8,11.8,0,0,1,1,1.82h1.88a14.07,14.07,0,0,0,1.1-1.85l1.5.51a9.65,9.65,0,0,1-.86,1.34h2.58v1.41h-4.62a10.32,10.32,0,0,1-.36,1.07h3.81v8.33h-7.95v-8.33h2.44c.13-.35.25-.7.35-1.07h-4v-1.41Zm5.2,4.88v-1h-5v1Zm0,2.25v-1h-5v1Zm0,1.22h-5v1.1h5Z"/><path class="cls-11" d="M240.37,222.68c-2.07,0-2.07-.51-4.14-.51s-2.06.12-4.13.12-2.07-.06-4.14-.06-2.07-.14-4.14-.14-2.07,0-4.13,0-2.07.69-4.14.69-2.07.14-4.14.14-2.06-.3-4.13-.3-2.07-.68-4.14-.68-2.07.43-4.14.43-2.07.15-4.14.15-2.07.3-4.13.3-2.07-.23-4.14-.23-2.07-.51-4.14-.51-2.07.43-4.14.43-2.07,0-4.14,0-2.07-.09-4.14-.09-2.07.24-4.14.24-2.07-.33-4.14-.33-2.07.34-4.14.34-2.07-.54-4.13-.54-2.08-.24-4.15-.24-2.07.82-4.14.82-2.07-.79-4.14-.79-2.07.53-4.14.53-2.07.38-4.14.38-2.07-.59-4.14-.59-2.07-.3-4.14-.3-2.07.78-4.14.78-2.07-.05-4.14-.05-2.07-.13-4.14-.13-2.07.06-4.14.06-2.07.05-4.14.05-2.07-.3-4.14-.3-2.07.34-4.14.34-2.07-.49-4.14-.49-2.08-.28-4.15-.28-2.07.05-4.14.05-2.07,0-4.15,0-2.07,0-4.14,0-2.07.79-4.14.79S68.57,222,66.5,222s-2.07.55-4.15.55-2.07.26-4.15.26a38.69,38.69,0,0,1-4.18-.66,38.17,38.17,0,0,1-4.16-.56,36.63,36.63,0,0,1-4-1.15,35.48,35.48,0,0,1-3.77-1.84A39.6,39.6,0,0,1,38.13,217c-1.19-.75-2-2-3.12-2.87a35.66,35.66,0,0,1-3.11-2.78,39.23,39.23,0,0,1-2.86-3,38.56,38.56,0,0,1-2.86-3.14,38.13,38.13,0,0,1-1.9-3.78,40.52,40.52,0,0,1-1.4-4,39.17,39.17,0,0,1-.93-4.09,39.87,39.87,0,0,1-1.11-4.06,39.36,39.36,0,0,1,0-4.21h.39a35.38,35.38,0,0,1,.3-4.14,37.1,37.1,0,0,1,.53-4.12,40.68,40.68,0,0,1,1.16-4,37,37,0,0,1,1.7-3.8c.61-1.26.75-2.77,1.49-3.95a39.72,39.72,0,0,1,2.3-3.54,38.37,38.37,0,0,1,3.06-2.92A38,38,0,0,1,35,155.92a37.4,37.4,0,0,1,3.52-2.23c1.18-.74,2-2.05,3.32-2.66a37.42,37.42,0,0,1,3.9-1.66,38.89,38.89,0,0,1,4.05-1.27c1.35-.31,2.89.37,4.29.22s2.72-1.07,4.14-1.07c2.07,0,2.07.11,4.13.11s2.07.34,4.14.34,2.07.33,4.13.33,2.07-.26,4.14-.26,2.07.25,4.14.25,2.07-.18,4.14-.18,2.07-.33,4.13-.33,2.07.22,4.14.22,2.07-.1,4.14-.1,2.07-.47,4.14-.47,2.06,1,4.13,1,2.07-.94,4.14-.94,2.07.4,4.14.4,2.07-.25,4.14-.25,2.07.61,4.14.61,2.07.11,4.14.11,2.06-.77,4.13-.77,2.07.17,4.14.17,2.07.22,4.14.22,2.07-.14,4.14-.14,2.07.47,4.14.47,2.07-.67,4.14-.67,2.07.55,4.14.55,2.07-.37,4.14-.37,2.07.23,4.14.23,2.07-.47,4.14-.47,2.08.54,4.15.54,2.07.13,4.14.13,2.07-.21,4.14-.21,2.07-.35,4.14-.35,2.07.36,4.14.36,2.07.37,4.14.37,2.07-.59,4.14-.59,2.07,0,4.14,0,2.07.54,4.14.54,2.07,0,4.14,0,2.07-.82,4.14-.82,2.08.31,4.15.31,2.07.15,4.14.15,2.07.33,4.15.33,2.07-.51,4.14-.51,2.07.05,4.15.05,2.07-.29,4.15-.29,2.07-.06,4.15-.06c1.41,0,2.78.7,4.16.85a36.88,36.88,0,0,1,4.09.77,35.06,35.06,0,0,1,3.95,1.29c1.33.47,2.84.43,4.09,1a35.71,35.71,0,0,1,3.69,2c1.19.74,2,2,3.06,2.91a31,31,0,0,1,6.41,5.41,39.71,39.71,0,0,1,2.23,3.58,40.88,40.88,0,0,1,1.91,3.73,38.21,38.21,0,0,1,1.62,3.85,38.85,38.85,0,0,1,1.07,4.05,39.05,39.05,0,0,1,.88,4.09,38.46,38.46,0,0,1,.27,4.19h-.19a36.26,36.26,0,0,1-.15,4.18,37.08,37.08,0,0,1-.19,4.24c-.32,1.38-1.31,2.56-1.77,3.87a39.07,39.07,0,0,1-1.12,4.09c-.61,1.26-1.9,2.15-2.64,3.33s-1,2.76-1.83,3.85a27.35,27.35,0,0,1-9.66,8.09,80.45,80.45,0,0,1-7.43,3.94,39.57,39.57,0,0,1-4.1,1,37.55,37.55,0,0,1-4.16.64A36.24,36.24,0,0,1,240.37,222.68Z"/><path class="cls-13" d="M240.19,212.49h-4.13c-2.07,0-2.07.08-4.14.08s-2.07-.19-4.13-.19-2.07.53-4.14.53-2.07-.51-4.14-.51-2.07.12-4.14.12-2.07.35-4.13.35H203c-2.07,0-2.07,0-4.14,0s-2.06.08-4.13.08-2.07.45-4.14.45-2.07-.65-4.14-.65h-4.14c-2.07,0-2.07,0-4.14,0s-2.07.08-4.14.08-2.06,0-4.13,0-2.07,0-4.14,0-2.07-.08-4.14-.08-2.07-.32-4.14-.32-2.07-.08-4.14-.08-2.07.5-4.14.5-2.07-.07-4.14-.07-2.07-.42-4.14-.42-2.07.54-4.14.54-2.07-.43-4.14-.43-2.07.17-4.15.17-2.07.35-4.14.35-2.07,0-4.14,0-2.07-.58-4.14-.58-2.07.76-4.14.76-2.07-.49-4.14-.49-2.07.21-4.14.21-2.07-.09-4.14-.09-2.07-.47-4.14-.47-2.07.1-4.14.1-2.07.2-4.14.2-2.08.07-4.15.07-2.07.43-4.14.43-2.07-.64-4.15-.64-2.07.65-4.14.65-2.07-.7-4.15-.7-2.07.47-4.15.47-2.07-.56-4.15-.56c-1.41,0-2.83.61-4.21.45a37.65,37.65,0,0,1-4.11-.93,38.49,38.49,0,0,1-4-1.39A37.18,37.18,0,0,1,41.89,209a37.75,37.75,0,0,1-3.58-2.11A37,37,0,0,1,35,204.39a35.43,35.43,0,0,1-3.16-2.7,37.44,37.44,0,0,1-2.95-3,37.65,37.65,0,0,1-2.44-3.41,38.44,38.44,0,0,1-1.71-3.81,37.37,37.37,0,0,1-2-3.7,36.47,36.47,0,0,1-1.06-4.05,37.44,37.44,0,0,1-.78-4.12,38.66,38.66,0,0,1-.09-4.18h-.29c0-1.42.61-2.77.77-4.15a35.35,35.35,0,0,1,.4-4.15,37.24,37.24,0,0,1,.75-4.16,36.4,36.4,0,0,1,1.5-4,39.25,39.25,0,0,1,2.1-3.68,40,40,0,0,1,2.38-3.51,40.5,40.5,0,0,1,3.06-2.94,36.48,36.48,0,0,1,3.35-2.55,37.2,37.2,0,0,1,3.24-2.66A36.87,36.87,0,0,1,41.93,142c1.26-.6,2.27-1.83,3.6-2.29s2.9,0,4.28-.29,2.59-1.34,4-1.5a39.35,39.35,0,0,1,4.22-.22c2.07,0,2.07.08,4.14.08s2.07.51,4.13.51,2.07-.56,4.14-.56,2.07-.17,4.14-.17,2.07.83,4.14.83,2.06-.26,4.13-.26,2.07-.58,4.14-.58,2.06.1,4.13.1,2.07.61,4.14.61,2.07.21,4.14.21,2.07-.74,4.14-.74,2.07-.09,4.13-.09,2.07.18,4.14.18,2.07-.12,4.14-.12,2.07.8,4.14.8,2.07-.35,4.14-.35,2.07.28,4.14.28,2.07-.09,4.14-.09,2.07-.77,4.14-.77,2.07.75,4.14.75,2.07.15,4.14.15,2.07-.54,4.14-.54,2.07-.42,4.14-.42,2.07,1,4.14,1,2.07-.72,4.14-.72,2.07.3,4.14.3,2.07.37,4.14.37,2.07-.21,4.14-.21S176,138,178,138s2.07.54,4.14.54,2.07-.59,4.14-.59,2.07.55,4.14.55,2.07-.6,4.14-.6,2.07.53,4.14.53,2.07-.64,4.14-.64,2.07.12,4.14.12,2.08.49,4.15.49,2.07-.73,4.14-.73,2.07.09,4.15.09,2.07.59,4.14.59,2.07.17,4.14.17h4.15c2.07,0,2.07-.48,4.15-.48s2.07.41,4.15.41a39.17,39.17,0,0,1,4.18-.11c1.4.16,2.9-.18,4.26.13a37.2,37.2,0,0,1,4,1.5,36.68,36.68,0,0,1,3.72,2,37.43,37.43,0,0,1,3.77,1.82,38.43,38.43,0,0,1,3.59,2.22,36.47,36.47,0,0,1,2.93,3,82.88,82.88,0,0,1,5.38,6.44,39.34,39.34,0,0,1,1.63,3.89,36.16,36.16,0,0,1,1.42,3.9,39.57,39.57,0,0,1,2.79,8,37.3,37.3,0,0,1,.27,4.25h-.85a37.57,37.57,0,0,1,.26,4.2,35.8,35.8,0,0,1-.56,4.19c-.31,1.37-1.34,2.53-1.8,3.84s-.51,2.81-1.12,4.07a39.72,39.72,0,0,1-1.72,3.88c-.75,1.19-2,2.05-2.88,3.14a38.77,38.77,0,0,1-2.43,3.49,40.52,40.52,0,0,1-3.17,2.83,38.92,38.92,0,0,1-3.62,2.22c-1.18.74-2.72.83-4,1.44a37.12,37.12,0,0,1-3.76,1.81,38.13,38.13,0,0,1-4.07.87c-1.35.3-2.59,1.27-4,1.42S241.61,212.49,240.19,212.49Z"/><path class="cls-11" d="M62.42,155.42v-1.69H70.6c-.22-.44-.44-.85-.65-1.22l2.1-.34c.22.45.43,1,.65,1.56H80v1.69H76.65l.82.56a24.86,24.86,0,0,1-3,1.39c1.52.43,2.93.87,4.21,1.3l-1,1h2.48v1.73H64.89v2.26c0,.71-.06,1.41-.11,2.08a9.27,9.27,0,0,0,2.91-3.95l1.6.65-.41,1h3.26v-1.54h2v1.54h5.44v1.8H74.13v1.58h5v1.78h-5v1.56h6.55v1.78H64.94V170.1h7.2v-1.56h-5v-1.78h5v-1.58H67.82A10,10,0,0,1,66.09,167l-1.33-1.15a15.61,15.61,0,0,1-2,6.51L61.29,171a15,15,0,0,0,1.63-7.39v-4H76.8c-1.35-.5-2.91-1-4.64-1.5A42.58,42.58,0,0,1,65,159.56l-1-1.28c2-.22,3.77-.52,5.42-.87-1.3-.34-2.69-.69-4.16-1l1-1Zm4.38,0q2.86.65,5.29,1.32a25.05,25.05,0,0,0,3.41-1.32Z"/><path class="cls-11" d="M84.73,163l-1.35-1.71a16.39,16.39,0,0,0,4-8.33l2.11.37c-.22,1-.46,1.93-.72,2.8h4v-3.65h2.06v3.65h7v2h-7v4.49h6.53v2H94.83v5h8.35v2H84v-2h8.82v-5h-6.2v-2h6.2v-4.49H88A15.58,15.58,0,0,1,84.73,163Z"/><path class="cls-11" d="M115,159h-1.43a16.46,16.46,0,0,1-2.15,2.42l1.85-.15c.3-.37.62-.76,1-1.15l1.37.54a23.05,23.05,0,0,1-3.6,3.47l2-.28c-.08-.32-.19-.63-.28-.91l1.22-.39c.28.8.54,1.74.8,2.8l-1.28.3c0-.24-.11-.45-.15-.65-1.56.22-3,.39-4.36.52l-.3-1.21a8.53,8.53,0,0,0,2.45-1.82l-2.35.19-.28-1.23a7.78,7.78,0,0,0,2.32-2.45h-3.27v13.37H106.6V153H115Zm-1.87-4.47h-4.59v.87h4.59Zm-4.59,3.06h4.59v-.94h-4.59Zm3.45,8.43v1.82h1.56a2.35,2.35,0,0,0,0-.35v-1.69h1.67v1.69a4.85,4.85,0,0,1-1.08,3,7,7,0,0,1-3.28,1.6l-.93-1.45a6.43,6.43,0,0,0,2.82-1.19c0-.07.11-.13.15-.2h-2.58V166Zm7.91-7a14.51,14.51,0,0,1-2.1,2.38l1.8-.13,1-1.15,1.37.54a23.23,23.23,0,0,1-3.6,3.45l2-.28c-.11-.3-.22-.61-.3-.89l1.21-.39a26.26,26.26,0,0,1,.91,2.89l-1.28.32c-.06-.28-.13-.54-.19-.78-1.61.22-3.08.39-4.43.52l-.3-1.21a8.41,8.41,0,0,0,2.45-1.83l-2.34.2-.28-1.24a7.79,7.79,0,0,0,2.29-2.4h-1.8v-6h8.4v17.35a1.7,1.7,0,0,1-1.93,1.89c-.83,0-1.63,0-2.41-.05l-.46-1.71c.78,0,1.5.07,2.17.07q.72,0,.72-.78V159Zm-1.8,6.76v2.06h1.54V166h1.63v3.21h-3.17v2.82h-1.78v-6.31Zm4.73-11.23h-4.62v.87h4.62Zm-4.62,3.06h4.62v-.93h-4.62Z"/><path class="cls-11" d="M133.09,160.88l-1.47,1.48a26.74,26.74,0,0,0-3.58-3.3l1.48-1.41A25.52,25.52,0,0,1,133.09,160.88Zm.59,3.62a67.82,67.82,0,0,1-3.23,7.68l-2.06-.91a72.64,72.64,0,0,0,3.45-7.52Zm.13-8.73-1.47,1.47a21,21,0,0,0-3.8-3.25l1.5-1.43A30.11,30.11,0,0,1,133.81,155.77Zm6.16.06a30,30,0,0,0-1.32-3.06l1.9-.54a28.21,28.21,0,0,1,1.46,3.58l-.07,0h5.38v2h-5.38v4.64h4.79v2h-4.79v5.14h5.83v2h-13.9v-2h6v-5.14H135v-2h4.86v-4.64h-5.46v-2Z"/><path class="cls-11" d="M150.74,166.11l-.65-2.17a19.82,19.82,0,0,0,5.77-6.79h-5.25v-2h3.06c-.33-.82-.68-1.6-1-2.38l2-.55c.43,1.07.8,2,1.06,2.93h2.3v1.74a16.76,16.76,0,0,1-2.56,4.55,20.73,20.73,0,0,1,3.4,2.38l-1.17,1.78a19.94,19.94,0,0,0-2.32-2v8.72h-2v-8.48A33.32,33.32,0,0,1,150.74,166.11Zm14-13.62v6.2h4.8v2h-4.8v8.89H170v2h-12.8v-2h5.42v-8.89H158v-2h4.66v-6.2Z"/><path class="cls-11" d="M173.33,159l-1.09-1.72a56.18,56.18,0,0,0,9.44-4.9h1.25a54.7,54.7,0,0,0,9.44,4.88L191.28,159l-1.19-.57v5.77H174.52v-5.75C174.13,158.61,173.72,158.78,173.33,159Zm13.31-2.3v.8H178v-.76c-1,.54-2.15,1.08-3.3,1.65H190C188.79,157.8,187.66,157.24,186.64,156.68Zm2.65,15.72h-2v-.7h-10v.72h-2v-7.35h13.94Zm-7.92-12.49h-5v2.75h5Zm5.94,7.69v-1h-10v1Zm0,2.48V169h-10v1.07Zm-7.22-7.92-1.36.35a12.05,12.05,0,0,0-1-2.06l1.36-.43A11.83,11.83,0,0,1,180.09,162.16Zm2.22-8.06c-.94.6-1.93,1.23-3,1.86h6C184.21,155.31,183.22,154.7,182.31,154.1Zm5.89,5.81h-5v2.75h5Zm-1.32.47a8.42,8.42,0,0,1-1,2.13l-1.34-.5a8.59,8.59,0,0,0,1-2Z"/><path class="cls-11" d="M199.23,154.83h2v1.87h-6.48v-1.87h2.56c-.31-.71-.61-1.4-1-2.06l1.93-.54C198.67,153.19,199,154.05,199.23,154.83Zm-2.12,17.5h-1.89V164.4h5.68V172H199v-.91h-1.93Zm3.58-14.2v1.78h-5.25v-1.78Zm0,3.06V163h-5.25v-1.78Zm-1.65,5h-1.93v3H199Zm5.05-2.15v-.93c-.63,0-1.26.08-1.91.08l-.47-1.4a16.52,16.52,0,0,0,5.35-.76l.74,1.28a9.77,9.77,0,0,1-1.91.56v1.17h2.63c-.05-.89-.07-1.84-.07-2.84h1.73c0,1,0,2,.07,2.84h3.69v1.56h-3.58a13.15,13.15,0,0,0,.32,2.26,11,11,0,0,0,1.63-1.93l1.26.95a11.3,11.3,0,0,1-2.28,2.65c.35.63.72.95,1.15,1s.58-.69.8-2l1.41.95a7.65,7.65,0,0,1-1,2.25,1.55,1.55,0,0,1-1.19.59,3,3,0,0,1-2.54-1.73,15.53,15.53,0,0,1-2.56,1.23l-.71-1.6a12.34,12.34,0,0,0,2.56-1.2,17.62,17.62,0,0,1-.57-3.38h-2.73V167a18.33,18.33,0,0,0,2-.48v1.56a15.65,15.65,0,0,1-2,.5v1.63c0,1.3-.69,1.95-2.06,1.95h-1.71l-.37-1.65a11.28,11.28,0,0,0,1.5.11.74.74,0,0,0,.84-.82v-.92c-.74.11-1.49.22-2.32.31l-.26-1.74c.93,0,1.8-.13,2.58-.21v-1.61h-2.51v-1.56Zm.46-9.95a8.33,8.33,0,0,0-.81-1.22l1.78-.62a10.28,10.28,0,0,1,1,1.84H209a16.59,16.59,0,0,0,1-2l1.82.63c-.26.47-.52.91-.8,1.32H214v1.56h-5.23v.91h4.32v1.54h-4.32v1h5.4v1.56H201.79v-1.56h5.1v-1h-4.25v-1.54h4.25v-.91h-5.12v-1.56Zm9.52,8.28-.83,1.24a13.73,13.73,0,0,0-2.64-1.24l.84-1.26A13.34,13.34,0,0,1,214.07,162.4Z"/><path class="cls-11" d="M236.7,170l-.35,2h-4.49c-5.14,0-8.34-.29-9.62-.83a6.71,6.71,0,0,1-2.76-2.25,16.56,16.56,0,0,1-1.47,3.42l-1.45-1.28a14,14,0,0,0,1.79-6.39l1.78.21c0,.7-.11,1.39-.19,2a8,8,0,0,0,1.45,1.63v-4.77h-4.12V162h9.06v1.82h-3.14v2H226v1.84h-2.78v1.94l.07,0a37.87,37.87,0,0,0,8.15.54C233.77,170.1,235.53,170.05,236.7,170Zm-11.08-16.91v7.85h-7.33v-7.85Zm-1.91,3.14v-1.45h-3.49v1.45Zm0,1.56h-3.49v1.45h3.49Zm6.2-1.65a12.68,12.68,0,0,0,.31-1.25h-3.5v-1.78h9.54v1.78h-4a10.43,10.43,0,0,1-.33,1.25h3.65v10.17h-2a23.7,23.7,0,0,1,2.8,2.06L235,169.62a17.37,17.37,0,0,0-3.12-2.47l.91-.87h-3.15l1.11,1a14.9,14.9,0,0,1-3.43,2.45l-1.06-1.39a12.93,12.93,0,0,0,3-2h-1.93V156.11Zm3.77,3v-1.36h-4.46v1.36Zm0,2.71V160.6h-4.46v1.19Zm0,1.52h-4.46v1.37h4.46Z"/><path class="cls-11" d="M64.72,199.22V182.7h13v16.52h3.19v2H61.51v-2Zm10.93-14.59H66.8V188h8.85Zm-8.85,9h8.85v-3.64H66.8Zm0,5.64h8.85v-3.71H66.8Z"/><path class="cls-11" d="M100.17,195.9h3v1.93h-5.4a38.92,38.92,0,0,1,5.16,2.36L101.73,202a30.23,30.23,0,0,0-6.38-3.05l.72-1.09H90.32l1.07.93A25.57,25.57,0,0,1,85.25,202L84,200.37a28.32,28.32,0,0,0,5.34-2.54h-5.6V195.9h3V182.68h13.49Zm-2.06-9.76V184.6H88.74v1.54Zm0,3.26v-1.65H88.74v1.65Zm0,3.25v-1.6H88.74v1.6Zm0,3.25v-1.6H88.74v1.6Z"/><path class="cls-11" d="M109,198a16.21,16.21,0,0,1-2,3.64l-1.47-1.06a13.71,13.71,0,0,0,1.95-3.32Zm7.44-15.36v6.07h-4.12l.26,1.09h4.85v1.58h-11.7v-1.58h4.92l-.26-1.09h-3.54v-6.07Zm-.13,9.76v4.4h-3.67V200a1.6,1.6,0,0,1-1.84,1.76h-1.52l-.41-1.8a7.63,7.63,0,0,0,1.3.13c.33,0,.5-.2.5-.54v-2.76h-3.64v-4.4Zm-1.74-7.28V184h-5.87v1.09Zm0,1.21h-5.87v1h5.87Zm-.15,7.46h-5.51v1.58h5.51Zm2.39,6.39-1.46,1a23.11,23.11,0,0,0-1.73-3l1.41-.87A22.38,22.38,0,0,1,116.84,200.19Zm8.93-5.65a15.7,15.7,0,0,1-8,7.39L117,200a14.16,14.16,0,0,0,7.2-6.7Zm-1.11-11.06a21.11,21.11,0,0,1-6.44,4.36l-.84-1.76a17.91,17.91,0,0,0,6-4Zm.59,5.7a21.74,21.74,0,0,1-6.59,5l-.85-1.74a17.69,17.69,0,0,0,6.18-4.68Z"/><path class="cls-11" d="M136.85,190.74c-.16-.3-.31-.56-.48-.82l2-.31a7.21,7.21,0,0,1,.46,1.13h7v1.54h-3.12a8.06,8.06,0,0,1-.52,1.11h5.2V195H128.35v-1.58h5.05c-.2-.39-.39-.76-.61-1.11h-2.88v-1.54Zm-2.15-5.14a5.32,5.32,0,0,1-1.58,3.3,9,9,0,0,1-4.15,1.75l-.6-1.38a8.16,8.16,0,0,0,3.53-1.33l.18-.15c-1,.15-2,.26-2.93.33l-.31-1.11a20,20,0,0,0,1.85-1.45l-1.93.13-.22-1.15a10.07,10.07,0,0,0,2.21-2.56l1.41.44a13.74,13.74,0,0,1-1.82,2.16l1.5-.13c.43-.47.86-1,1.25-1.45l1.46.54a24.79,24.79,0,0,1-3.43,3.3l1.76-.26a5.71,5.71,0,0,0,.34-1.15Zm9.8,16.48h-1.93v-.69h-9.35v.69h-1.95v-6.4H144.5Zm-1.93-4.18V197h-9.35v.91Zm0,2.1v-.87h-9.35V200Zm-7.74-10.23-.41-1.22c.43-.13.65-.32.65-.61V182.8h2.1a5.74,5.74,0,0,0-.5-.75l1.67-.29a9.21,9.21,0,0,1,.48,1h2.28V187H140a13.18,13.18,0,0,1,1.52,2.4l-1.34.61c-.16-.35-.31-.65-.44-.93C138.3,189.31,136.65,189.55,134.83,189.77Zm.54,3.62h4.9a6.16,6.16,0,0,0,.52-1.11h-6C135,192.63,135.2,193,135.37,193.39Zm4.21-9.52h-3v.56h3Zm-3,2.08h3v-.63h-3Zm0,1v1.38c.92-.13,1.76-.28,2.54-.41-.15-.24-.28-.43-.41-.6l1.17-.37Zm10.52-4.49v1.1c-.35.68-.71,1.39-1.13,2.13a4.41,4.41,0,0,1,1.24,2.25,1.49,1.49,0,0,1-.48,1.22,4.61,4.61,0,0,1-2.34.47l-.48-1.47a6.56,6.56,0,0,0,.78.07,1.9,1.9,0,0,0,.63-.09c.11,0,.18-.11.18-.2a2.94,2.94,0,0,0-1.24-2,15.47,15.47,0,0,0,1.11-2.17h-1.85v6.42h-1.6v-7.74Z"/><path class="cls-11" d="M160.15,182v2.24l-.07,1.69h8.24c-.08,3.86-.21,7-.43,9.41a13.83,13.83,0,0,1-1.13,5,2.9,2.9,0,0,1-2.47,1.5h-3l-.57-2c.91,0,1.78.06,2.6.06,1.11,0,1.85-.74,2.19-2.19a58.15,58.15,0,0,0,.72-9.78h-6.27a25.93,25.93,0,0,1-2,7.89,13.56,13.56,0,0,1-6.31,6.18l-1.13-1.8a12.48,12.48,0,0,0,5.84-5.94,24.27,24.27,0,0,0,1.43-6.33h-6.12v-2H158l.06-1.69V182Z"/><path class="cls-11" d="M180.42,200.63h-2V199.5H175v1.76h-2V185.54h2.06a19.89,19.89,0,0,0,.86-3.62l2.06.28a17.26,17.26,0,0,1-.95,3.34h3.34Zm-2-9.15v-4H175v4Zm0,6.11v-4.27H175v4.27Zm12.83,1.8c-.22,1.56-1.26,2.34-3.1,2.34-.43,0-1.21,0-2.3-.1l-.5-1.89c1,0,1.78.09,2.48.09a1.39,1.39,0,0,0,1.49-1.37c.13-1.08.2-4.73.24-10.91h-5.44a19.23,19.23,0,0,1-2.13,3.58l-1.23-1.62a19.08,19.08,0,0,0,3-7.62l2,.26a25,25,0,0,1-.86,3.41h6.7C191.61,193,191.5,197.66,191.28,199.39Zm-3.66-4L186,196.55a40.52,40.52,0,0,0-3.34-4.77l1.67-1A36.86,36.86,0,0,1,187.62,195.4Z"/><path class="cls-11" d="M203.51,185.67v-1h-8.44v-1.6h8.44v-1.22h2v1.22H214v1.6h-8.44v1h6.62v6.46h-.44a19.91,19.91,0,0,1,2.09,2.58l-1.37.93c-.26-.39-.52-.78-.82-1.17l-1.78.09v1.49h4.38v1.67h-4.38V200c0,1.26-.7,1.89-2.08,1.89h-2.35L205,200a16.75,16.75,0,0,0,2.09.13c.47,0,.71-.21.71-.65v-1.8h-7.35a20.26,20.26,0,0,1,2.86,2.15L202,201.28a20.17,20.17,0,0,0-3.24-2.73l.85-.83h-4.73v-1.67h13v-1.41c-3.75.16-7.65.29-11.71.42l-.39-1.63c2.65,0,5.23-.11,7.79-.2v-1.1h-6.62v-6.46Zm0,2.47v-1.06h-4.62v1.06Zm0,1.41h-4.62v1.06h4.62Zm2-1.41h4.62v-1.06h-4.62Zm4.62,1.41h-4.62v1.06h4.62ZM210,192.5l.58-.37h-5v1l4.86-.2C210.23,192.8,210.1,192.65,210,192.5Z"/><path class="cls-11" d="M225.75,194.73v-1.56h2.08v1.56h8.28v1.78h-8.28V202h-2.08v-5.48H217.4v-1.78Zm-1.82,3.36a20.34,20.34,0,0,1-5.27,3.51L217.4,200a20.44,20.44,0,0,0,5.16-3.08ZM227,186c-.33.39-.63.78-.91,1.12h9.32v1.65h-3.53a11.88,11.88,0,0,1-2.13,2.17q2.67.65,5.51,1.56l-1.19,1.56c-2.11-.74-4.21-1.41-6.33-2a22.7,22.7,0,0,1-8.85,1.65l-1.13-1.69a30.51,30.51,0,0,0,7.18-.68c-1.35-.32-2.71-.6-4.08-.86l1.58-1.74h-4.38v-1.65h5.77c.46-.56.89-1.12,1.33-1.69Zm8.54.76h-1.91v-1.54H219.83v1.54h-1.91v-3.26h7.79a15.56,15.56,0,0,0-.85-1.36l2.15-.35c.26.52.49,1.08.76,1.71h7.8Zm-6,2h-4.9c-.31.33-.57.63-.83.89,1.17.2,2.39.43,3.6.72A10.25,10.25,0,0,0,229.61,188.81Zm6.26,11.38-1.43,1.44a27.69,27.69,0,0,0-4.79-3.52l1.24-1.21A36.74,36.74,0,0,1,235.87,200.19Z"/></g></g></svg>