<svg xmlns="http://www.w3.org/2000/svg" viewBox="0 0 466.22 183.76"><defs><style>.cls-1{fill:#e9506c;}.cls-2{fill:#c9caca;}.cls-3{fill:#f2f3f2;}.cls-4{fill:#001d2f;}.cls-5,.cls-7{fill:#fff;}.cls-6{fill:#633a7c;}.cls-7,.cls-8{stroke:#2667b2;stroke-linecap:round;stroke-linejoin:round;stroke-width:0.98px;}.cls-8{fill:none;}</style></defs><title>people-1</title><g id="Layer_2" data-name="Layer 2"><g id="圖層_1" data-name="圖層 1"><polygon class="cls-1" points="174.22 80.24 173.92 88.27 172.11 87.42 174.22 80.24"/><path class="cls-2" d="M196.06,91.8,197.88,97s2.69,8.72,12.85,6.46l3.79-2.44-3.31-10.84Z"/><path class="cls-3" d="M189,35.18h-16.5s-9.07,1.28-11.68,6.3l-17,24.85a4.77,4.77,0,0,0,0,5.52s-35,25.19-58,23.86l86.57,30.52,19.91-36.07s8.08-6.5,10.16,1.26l8.44-21.48a16.64,16.64,0,0,0-1.35-11.85L201.2,39.36Z"/><path class="cls-4" d="M171.09,46.24c2.28-3.8,0-7.91,0-7.91l.51-.89s2.53,4.94-.51,8.8"/><polygon class="cls-4" points="155.99 68.31 174.22 79.38 157.6 67.64 155.99 68.31"/><path class="cls-4" d="M143.74,71.85s8.23,9.24,28.37,14.71c0,0-19-4.31-30.09-13.63Z"/><polygon class="cls-4" points="160.79 71 168.96 52.94 158.98 70.13 160.79 71"/><polygon class="cls-4" points="219.13 101.32 181.12 85.58 172.99 75.75 211 91.48 219.13 101.32"/><polygon class="cls-4" points="219.06 101.32 181.05 85.58 195.05 59.75 234.07 76.2 219.06 101.32"/><path class="cls-5" d="M174.22,79.38s.92-.33,5.14.6c0,0,2.78,1.32-.86,2.44l2.55,3.16,6.59,3a8.55,8.55,0,0,1-5.32,1.63c-3.2-.12-10.21-3.6-10.21-3.6Z"/><path class="cls-5" d="M216.48,99.81s-2.58,2.57-5.17.74c0,0-3.51-.21-3.75-1.51,0,0-2.24-1.33-1.46-3.09,0,0,.57-2.33,4.56,0a3.23,3.23,0,0,1,3,1,4.18,4.18,0,0,1,2.8,2.39"/><polygon class="cls-5" points="199.29 18.27 213.44 19.79 207.32 34.7 203.11 36.42 198.14 44.07 184.09 67.64 188.97 35.18 199.29 18.27"/><path class="cls-4" d="M218.41,16.73s-.51,9.58-18.32,1.63h0s4.36,15-11.12,12.9-12.62-5.35-25-4S136.35,20,143.74,10c0,0,5.28-8,17,0,0,0,8.55,6,17.86,4.4,12.27-2.1,18.54-4.59,24.46-1.34C203.11,13.1,218.41,12.53,218.41,16.73Z"/><polygon class="cls-1" points="186.94 48.67 193.9 51.19 184.09 67.64 186.94 48.67"/><polygon class="cls-4" points="184.75 35.18 182.28 46.24 183.52 47.82 181.05 54.09 184.09 67.64 191.69 61.97 196.06 52.28 198.76 52.28 203.27 44.08 203.56 44.74 199.14 53.42 196.41 52.94 191.75 63.07 183.71 68.57 180.1 54.63 182.59 48.67 181.54 46.24 184.75 35.18"/><path class="cls-4" d="M172.88,86.94c-12.82,20.21-27.49,29.19-27.49,29.19s20.9-18.57,26.72-29.57Z"/><path class="cls-4" d="M184.09,68.3a54.94,54.94,0,0,1-5.1,9.93l4.53-11.75Z"/><polygon class="cls-4" points="168.96 60.53 176.33 63.84 175.31 65.61 167.8 61.97 168.96 60.53"/><circle class="cls-4" cx="161.86" cy="92.49" r="1.23"/><circle class="cls-4" cx="150.57" cy="105.7" r="1.23"/><polygon class="cls-4" points="169.44 76.48 166.58 81.52 168.23 75.75 169.44 76.48"/><ellipse class="cls-4" cx="170.75" cy="79.78" rx="0.66" ry="0.78"/><polygon class="cls-5" points="438.35 106.23 445.35 101.57 449.05 94.95 453.31 95.86 461.73 92.3 466.22 105.35 456.62 112.01 451.53 112.46 442.09 116.54 438.35 106.23"/><polygon class="cls-5" points="397.7 43.51 402.11 35.22 378.29 25.76 354.46 59.62 365.43 67.5 379.25 66.81 380.62 58.59 388.44 60.96 393.51 51.42 399.15 54.07 397.7 43.51"/><path class="cls-4" d="M368.77,39.28l11.37-16a7.8,7.8,0,0,1,7.68-2.78l24.71,7.24s2.57,7.48-10.43,7.46c0,0-2.55,1.92-18.91-.17l-2.87,4.16s-.63-3.82-4.39-3c0,0-4.6,2.9-.81,10.87l-7.57,1.58-4.26-1.55Z"/><path class="cls-6" d="M335.51,183.76l52.3-104.94-8.56-12L333.8,53.11s-33.36,11.94-65.63,56.21c-10.47,14.38-14.6,23.66-23.26,42.51Z"/><polygon class="cls-4" points="280.93 99.03 323.11 78.73 285.15 100.67 281.4 110.76 276.95 109.59 279 99.81 280.93 99.03"/><path class="cls-6" d="M387.81,78.82l16.89,41.86,33.43-15.51L444.24,122l-43,21.2s-11.7,4.3-15.78-6.33L372.25,107Z"/><polygon class="cls-2" points="371.51 76.98 366.87 64.25 353.05 68.84 352.15 69.9 366.13 66 371.2 77.88 371.51 76.98"/><polygon class="cls-2" points="426.45 110.59 430.58 123.96 425.25 111.14 426.45 110.59"/><circle class="cls-2" cx="433.4" cy="112.69" r="1.55"/><path class="cls-2" d="M211.31,140.06a3.06,3.06,0,0,1,.23-1.15L231,92.85a3,3,0,0,1,3.86-1.57l64.47,27.2a3,3,0,0,1,1.57,3.87L283,165.25"/><polygon class="cls-4" points="290.88 146.05 220.88 116.78 289.62 149.02 290.88 146.05"/><rect class="cls-5" x="230.12" y="121.07" width="8.64" height="2.97" transform="translate(31.41 292.16) rotate(-67.47)"/><rect class="cls-5" x="271.81" y="138.75" width="8.64" height="2.97" transform="translate(40.8 341.58) rotate(-67.47)"/><polygon class="cls-4" points="252.74 98.81 257.43 100.79 258.48 98.3 253.86 96.16 252.74 98.81"/><polygon class="cls-4" points="275.29 106.09 274.48 108 279.18 109.98 279.91 108.24 275.29 106.09"/><path class="cls-2" d="M282.28,102.63a3.06,3.06,0,0,0-1.62-4l-20.81-8.79a3.06,3.06,0,0,0-4,1.62l-2,4.71,4.62,2.14.69-1.64a2,2,0,0,1,2.59-1l13.42,5.68a2,2,0,0,1,1.05,2.58l-.94,2.22,4.62,2.15Z"/><polygon class="cls-7" points="274.48 108 274.48 108 265.95 104.4 274.48 108"/><path class="cls-6" d="M341.41,55.84s-15.18-8.47-33.8,1.85L269.76,81.4s-10.12,7.27-11.5,13.11l-6.12,39.8,19.56,2.43L279,99.81l44.11-21.08Z"/><polygon class="cls-2" points="273.5 127.63 259.68 125.83 274.48 125.83 273.5 127.63"/><circle class="cls-2" cx="257.87" cy="130.28" r="1.69"/><polygon class="cls-5" points="270.29 136.56 268.77 143.15 273.21 144.54 274.17 149.15 263.58 153.19 254.04 143.41 254.03 134.55 270.29 136.56"/><path class="cls-2" d="M366.3,65.82,310.54,174S352.84,83.24,366.3,65.82Z"/><circle class="cls-2" cx="317.78" cy="143.96" r="1.74"/><circle class="cls-2" cx="307.22" cy="163.97" r="1.74"/><circle class="cls-2" cx="328.9" cy="123.27" r="1.74"/><circle class="cls-2" cx="338.8" cy="103.46" r="1.74"/><circle class="cls-2" cx="347.01" cy="85.4" r="1.74"/><polygon class="cls-2" points="352.15 69.9 351.53 60.21 353.62 69.41 352.15 69.9"/><polygon class="cls-2" points="370.78 76.39 377.89 69.14 371.2 77.88 370.78 76.39"/><polyline class="cls-5" points="11.99 28.96 11.8 33.51 9.16 33.41 5.87 34.74 1.79 30.95 3.63 26.45 5.87 24.12"/><path class="cls-4" d="M88,1.94l3.3,1S93,9.27,87.7,10.57l-.57-6.89Z"/><path class="cls-5" d="M111.48,57.09s3.68-3,4.25-2.68,1.38,2.11,1.38,2.11,4.63.17,4.71.57-1.95,5.56-1.95,6-5.44,1.16-5.44,1.16l-3-1.16Z"/><polygon class="cls-2" points="0 65.5 16.96 71.48 26.73 69.39 15.78 59.79 0 65.5"/><polygon class="cls-4" points="28.69 55.12 15.78 59.79 26.73 69.39 59.05 62.45 28.69 55.12"/><path class="cls-2" d="M59.05,62.46s15.43,9.6,14.5,16.59l-1.07,12L59.87,86.61l1.51-7.56L26.57,65.7s-12.15-3.12-6.89-12.76Z"/><path class="cls-1" d="M80.23,24a16.56,16.56,0,0,1,5.09,7.43l4.36,25.63h21.8v6L90.4,65.61s-10.17,1.58-12.11-8.52L73.55,35.18Z"/><polygon class="cls-5" points="88.71 8.53 85.08 17.98 77.73 16.52 75.39 21.13 67.88 17.98 79.5 1.26 88.71 3.69 88.71 8.53"/><path class="cls-4" d="M66.67,14.58c.82.31,13.32,8.24,13.56,9.45S59.05,62.46,59.05,62.46L19.68,52.94S40.05,26.85,45.35,21.12C52.13,13.8,59.4,11.92,66.67,14.58Z"/><path class="cls-1" d="M66.37,14.34s-3.73,9.78-14,8L27.55,15.82,12,29,5.87,24.12,22.08,9.35s5.36-4.8,12-3.42Z"/><polygon class="cls-1" points="75.76 20.39 69.16 28.96 69.72 16.41 75.76 20.39"/><polygon class="cls-4" points="73.39 23.47 72.74 18.98 69.48 21.68 71.94 20.82 73.39 23.47"/><polygon class="cls-4" points="105.71 57.09 105.71 61.84 104.67 57.09 105.71 57.09"/><path class="cls-4" d="M88.71,3.69s-1.8,4.48-6.36,4A49,49,0,0,1,72.08,5s2.8-2.8,3.12-3S77.89-.65,80.64.16L88,1.94S89.44,2.51,88.71,3.69Z"/><ellipse class="cls-7" cx="84.5" cy="9.6" rx="2.55" ry="1.82" transform="translate(50.76 87.67) rotate(-73.1)"/><ellipse class="cls-7" cx="89.32" cy="10.94" rx="2.55" ry="1.82" transform="translate(52.9 93.23) rotate(-73.1)"/><line class="cls-7" x1="86.4" y1="10.32" x2="87.43" y2="10.57"/><path class="cls-8" d="M78.64,11.19a3.19,3.19,0,0,0,1.59,2.24"/><polygon class="cls-1" points="380.62 58.59 372.25 55.41 379.94 62.68 380.62 58.59"/><polygon class="cls-4" points="354.62 59.39 366.17 63.84 379.25 66.81 355.41 58.27 354.62 59.39"/><polygon class="cls-4" points="9.63 20.69 13.96 24.03 10.57 19.83 9.63 20.69"/><polygon class="cls-1" points="203.11 36.42 194.28 35.18 202.17 37.87 203.11 36.42"/><polygon class="cls-2" points="351.74 113.81 353.58 110.27 367.4 115.96 365.56 119.8 351.74 113.81"/></g></g></svg>