<svg xmlns="http://www.w3.org/2000/svg" viewBox="0 0 362.1 186.25"><defs><style>.cls-1,.cls-10,.cls-11,.cls-13,.cls-5,.cls-8{fill:none;}.cls-1,.cls-9{stroke:#2667b2;}.cls-1,.cls-10,.cls-11,.cls-13,.cls-5,.cls-8,.cls-9{stroke-linecap:round;stroke-linejoin:round;}.cls-1,.cls-10,.cls-11,.cls-13,.cls-8,.cls-9{stroke-width:0.98px;}.cls-2{fill:#001d2f;}.cls-3{fill:#2667b2;}.cls-4,.cls-9{fill:#fff;}.cls-10,.cls-5{stroke:#001d2f;}.cls-5{stroke-width:0.49px;}.cls-6{fill:#e9506c;}.cls-7{fill:#c9caca;}.cls-8{stroke:#c9caca;}.cls-11{stroke:#fff;}.cls-12{fill:#633a7c;}.cls-13{stroke:#ef8575;}</style></defs><title>people-2</title><g id="Layer_2" data-name="Layer 2"><g id="圖層_1" data-name="圖層 1"><ellipse class="cls-1" cx="73.9" cy="159.15" rx="1.29" ry="1.25" transform="translate(-12.36 6.35) rotate(-4.54)"/><polygon class="cls-2" points="237.14 101.51 251.17 118.62 229.58 126.15 206.52 120.05 237.14 101.51"/><path class="cls-2" d="M235.52,95.66c7,17.2-10.92,24.67-10.92,24.67l-55.4,13.76,3,10.17-15.46,5.85c-10.19-13-4.39-20-4.39-20l27-26.23Z"/><path class="cls-3" d="M193.69,34.48s18,3.37,22.85,6.74,17.71,18.63,22,28.47-5.82,15.16-6.84,15.16l3.8,10.81S207,108,203,107.63c-7.78-.62-23.63-3.79-23.63-3.79L169.2,71.2l-26.53,8.14s-9.49.22-10.72-4.86,1.31-37,1.31-37l11.9-3,1.77,22.37,19.49-12.5s6-5.24,13.24-6.92Z"/><path class="cls-4" d="M174.05,12.67l-3,19.39s6.72,2.27,8.27,4.79l2.81,4.59,11.58-6.1-2.37-6.63-1.76-13.77-7.2-3.28Z"/><polygon class="cls-3" points="192.72 32.61 182.11 41.44 183.79 47.24 196.35 35.01 192.72 32.61"/><polygon class="cls-2" points="192.72 32.61 196.92 35.44 182.04 47.83 181.73 50.11 197.86 35.33 192.72 32.61"/><polygon class="cls-3" points="179.66 37.43 182.11 41.44 180.59 47.24 177.28 38.11 179.66 37.43"/><polygon class="cls-2" points="177.28 38.11 180.59 47.24 182.04 42.34 182.04 47.24 180.15 49.95 177.28 38.11"/><ellipse class="cls-2" cx="142.67" cy="37.77" rx="0.71" ry="0.77"/><polygon class="cls-2" points="136.34 42.57 145.59 39.93 145.71 41.44 136.34 42.57"/><polygon class="cls-4" points="143.08 35.01 144.76 28.71 141.97 27.49 139.12 23 131.99 27.37 131.62 30.66 135.29 37 143.08 35.01"/><path class="cls-2" d="M141,32.2c-4.64,1.22-4.35-.51-4.35-.51l3.5-3s-2.27,2.69-1.32,2.87A20.22,20.22,0,0,1,141,32.2Z"/><path class="cls-2" d="M174.05,12.67s0-4.68,6.54-5.5,11.17,3.5,16.33.52c0,0,3.05,1.25-5.82,13.56l-.24,3.91-3.31-2.7s1.9-5.44-1.93-5.22C185.62,17.24,175.27,18,174.05,12.67Z"/><line class="cls-5" x1="174.95" y1="20.31" x2="176.56" y2="20.29"/><line class="cls-5" x1="182.1" y1="20.66" x2="188.75" y2="19.19"/><path class="cls-6" d="M175.75,28.71l8.71-3s1,3-3.32,5C181.14,30.67,176.1,32,175.75,28.71Z"/><path class="cls-2" d="M196.35,106.83c-12.41-15.74-13.79-50.14-14-61.81L182,42.34s-1.66,21.91,2.42,38.25c0,0,3.9,19.1,11.51,26.17"/><path class="cls-3" d="M231.72,84.85s-22.52,5.09-51.13-10.37l3.87-8s21.7,4.72,42.72,4.09"/><path class="cls-4" d="M189.14,67.38S209.35,23.71,228,.35L239.62,9.9s-19.05,19.52-40.81,59Z"/><ellipse class="cls-7" cx="234.07" cy="4.94" rx="3.12" ry="7.72" transform="matrix(0.54, -0.84, 0.84, 0.54, 102.69, 198.73)"/><path class="cls-4" d="M192.58,67.92s25.47-36.35,46.71-55l9.06,11.22S226.43,35.8,199.43,69.05Z"/><ellipse class="cls-7" cx="244.11" cy="18.43" rx="2.96" ry="7.36" transform="translate(58.26 177.77) rotate(-44.93)"/><path class="cls-8" d="M196.8,68c3.42-4,25.89-30,48.36-45"/><path class="cls-8" d="M234.07,8.53s-24.82,28.31-42.63,58.65"/><polygon class="cls-9" points="184.54 76.51 180.03 86.33 182.54 87.57 187.55 77.91 184.54 76.51"/><path class="cls-9" d="M188,78.11a73,73,0,0,0-4,10l2.9.49s3.45-5,5.81-8.56Z"/><path class="cls-4" d="M184.46,66.48l-2.1-3.68-2.66.67L176,62.8c-.45-.07-3.81,5.74-3.81,5.74l2.61,4,5.78,1.93Z"/><line class="cls-1" x1="220.75" y1="70.61" x2="226.28" y2="67.69"/><ellipse class="cls-7" cx="172.2" cy="19.94" rx="3.84" ry="2.77" transform="translate(129.26 187.88) rotate(-82.26)"/><ellipse class="cls-7" cx="179.31" cy="20.66" rx="3.84" ry="2.77" transform="translate(134.69 195.56) rotate(-82.26)"/><path class="cls-2" d="M28.9,30s-22.53,6.66-15,16c0,0,1.86,2.82,10.14,5.94l5.54-15.93Z"/><path class="cls-4" d="M20.47,41.36s6.6,22.74,8.43,23.11,8.81-1.84,8.81-1.84l9.9,12.11,18-9.9L43,41.36,28.9,35.49Z"/><path class="cls-4" d="M58.62,64.47s23.84-13.21,32.64-6.24,58.54,61.16,58.54,61.16l45.41,19-83.43,29.41L59.3,186.25,39.91,88.48l5.86-16Z"/><path class="cls-2" d="M72.41,141.19c8-.43,38.49-13.57,38.49-13.57,12-9.82,3.77-24.39,3.77-24.39L95.43,75.63l21.67,26.46s9.86,16.26-4.1,27.44c0,0-30.07,12.25-36,12.95S64.35,141.62,72.41,141.19Z"/><path class="cls-4" d="M39.91,88.48,18.27,141.87s-7.39,17.92,8.43,17.92A63,63,0,0,0,39.37,155a30.33,30.33,0,0,0,10.41-8.77Z"/><path class="cls-2" d="M24.22,35.49s5.8,19.1,26.3,13.67c0,0,.53,20.49,21.69,9.87,0,0,14.83-4.51,25.11-.69,0,0,.6-11.28-26.59-21.55S38.13,14,24.22,35.49Z"/><line class="cls-10" x1="25.25" y1="51.61" x2="26.96" y2="50.87"/><path class="cls-10" d="M34.25,58.34s3.17.12,5.66-4.06"/><path class="cls-2" d="M32.46,64.06s-11.78,21.16,8.4,21.81l4.91-13.39-8.06-9.85Z"/><polygon class="cls-7" points="35.93 132.37 103.55 107.92 89.18 129.14 23.42 151.13 35.93 132.37"/><polygon class="cls-7" points="33.62 129.34 101.24 104.89 86.87 126.12 21.1 148.1 33.62 129.34"/><polygon class="cls-7" points="33.37 124.93 101 100.48 86.63 121.7 20.86 143.69 33.37 124.93"/><polygon class="cls-7" points="29.6 122.42 97.22 97.98 82.85 119.2 17.09 141.19 29.6 122.42"/><polygon class="cls-7" points="27.34 118.88 94.96 94.43 80.59 115.65 14.83 137.64 27.34 118.88"/><polygon class="cls-7" points="25.6 115.02 93.23 90.58 78.86 111.8 13.09 133.79 25.6 115.02"/><polygon class="cls-7" points="23.66 111.22 91.29 86.78 76.92 108 11.15 129.99 23.66 111.22"/><polygon class="cls-7" points="23.39 106.7 91.02 82.26 76.65 103.48 10.88 125.47 23.39 106.7"/><polygon class="cls-7" points="20.98 102.56 88.61 78.11 74.24 99.33 8.47 121.32 20.98 102.56"/><polygon class="cls-7" points="19.29 98 86.91 73.56 72.54 94.78 6.77 116.77 19.29 98"/><polygon class="cls-7" points="16.12 94.37 83.74 69.92 69.37 91.15 3.61 113.14 16.12 94.37"/><polygon class="cls-7" points="15.4 89.7 83.03 65.26 68.66 86.48 2.89 108.47 15.4 89.7"/><polygon class="cls-7" points="13.01 85.94 80.64 61.5 66.27 82.72 0.5 104.71 13.01 85.94"/><polygon class="cls-7" points="13 80.14 80.63 55.7 66.26 76.92 0.49 98.91 13 80.14"/><polyline class="cls-11" points="75.42 63.38 66.26 76.92 0.49 98.91"/><polyline class="cls-11" points="80.64 61.5 66.27 82.72 0.5 104.71"/><polyline class="cls-11" points="83.03 65.26 68.66 86.48 2.89 108.47"/><polyline class="cls-11" points="83.74 69.92 69.37 91.15 3.61 113.14"/><polyline class="cls-11" points="86.91 73.56 72.54 94.78 6.77 116.77"/><polyline class="cls-11" points="88.61 78.11 74.24 99.33 8.47 121.32"/><polyline class="cls-11" points="91.02 82.26 76.65 103.48 10.88 125.47"/><polyline class="cls-11" points="91.84 86.86 77.47 108.09 11.7 130.07"/><polyline class="cls-11" points="93.23 90.58 78.86 111.8 13.09 133.79"/><polyline class="cls-11" points="94.96 94.43 80.59 115.65 14.83 137.64"/><polyline class="cls-11" points="97.22 97.98 82.85 119.2 17.09 141.19"/><polyline class="cls-11" points="101.24 100.48 86.87 121.7 21.1 143.69"/><polyline class="cls-11" points="101.33 104.57 86.96 125.79 21.2 147.78"/><path class="cls-4" d="M33.24,147.56s2.71-4.08,7.06-2.48c0,0,3.41-3.35,7.29-2a9.14,9.14,0,0,1,3.8-1.31s2.52,5.15-4.79,7.66c0,0-7.76,4.22-15.06.77C31.54,150.16,28.79,147.68,33.24,147.56Z"/><path class="cls-4" d="M61.29,138.61s-.68-4,4.49-6.17a11.38,11.38,0,0,1,9.32-.52,8.12,8.12,0,0,1,6.54-.59s2.15,4-6.47,6S63.76,142,61.29,138.61Z"/><polygon class="cls-2" points="106.51 106.03 102.28 108.38 105.25 102.09 106.51 106.03"/><polygon class="cls-2" points="84.58 177.41 71.57 141.73 72.84 141.73 87.75 176.29 84.58 177.41"/><path class="cls-7" d="M145.14,129.53s-5.79,6.81-8.63,6.55S144.19,123,144.19,123s-6.14,9.45-3,8.6Z"/><polygon class="cls-10" points="106.47 146.17 126.83 144.13 128.39 147.92 108.95 150.12 106.47 146.17"/><path class="cls-7" d="M25.25,51.61A8.31,8.31,0,0,0,22.78,48a3.65,3.65,0,0,0-3.5-.87c-2.11.77-2.87,4-1.69,7.26a7.12,7.12,0,0,0,4,4.45,3,3,0,0,0,2,0C25.67,58.09,26.43,54.84,25.25,51.61Z"/><path class="cls-7" d="M34.61,48.07a8.62,8.62,0,0,0-2-3.16c-1.23-1.22-2.71-1.77-4-1.3-2.11.77-2.86,4-1.68,7.26a7.22,7.22,0,0,0,3.89,4.42,3,3,0,0,0,2.08,0C35,54.56,35.79,51.31,34.61,48.07Z"/><path class="cls-6" d="M61.29,138.61c2.47,3.42,5.27.79,13.88-1.24s6.47-6,6.47-6l1.74-.43s2.62,5.74-7.14,8.6c0,0-7.47,1.95-8.82,2.23s-5.1-.5-6.13-3.12"/><path class="cls-6" d="M51.71,144.27c-.31,4.21-4.07,3.44-12.47,6.23s-8.67-1.73-8.67-1.73l-1.7.54s.78,6.26,10.59,3.57c0,0,7.38-2.26,8.67-2.74s4.08-3.11,3.58-5.87"/><path class="cls-2" d="M286.13,6.94s-11.66,4.48-.1,10.54L291.1,11Z"/><path class="cls-4" d="M351.57,68.29s-2,4.08-.62,4.84a30.92,30.92,0,0,0,4.16,1.63l4.3-.92,2.69-4.18-2.4-2.57-2.16-2.53Z"/><path class="cls-4" d="M295.9,8.2l-9.79.6s-1.92,11-1.53,11.77,7.82,3.07,7.82,3.07L291.3,31l10.78-1.47Z"/><path class="cls-12" d="M334.35,32.21c-12.34-6.59-21.63-5.93-21.63-5.93s-32.2,5.37-32.64,6h0s-6,1.26-8.76,5.63c-2.68,4.19-14.35,26.17-15.3,28l14.8-5.65L276,53.69a18.52,18.52,0,0,0,6.5,12.65L284.19,93l50.94-7.8s-8.74-26.36-16.36-45.38a46.43,46.43,0,0,1,13.47,4.84c6.41,4.32,19.33,23.64,19.33,23.64l6-3.73S346.69,38.8,334.35,32.21Z"/><path class="cls-2" d="M295.93,30.41s5.3,37.69,12.64,58.84"/><path class="cls-2" d="M276,53.68a37,37,0,0,1,1.17-12.94,28.16,28.16,0,0,0-2.3,14.39Z"/><path class="cls-7" d="M282.53,56.39s-2.35-12.61-6.74-14.15l20.11-3.48s9.24,11.55,9.81,31.41l-21.37,3.52S283.77,61.39,282.53,56.39Z"/><path class="cls-12" d="M286.8,54.77l-16.69,6.35.71-.9L256,65.87,256,66s-3,8.92,8,8.06c0,0,11.7-2.1,24.26-11.63Z"/><path class="cls-4" d="M286.8,54.77s2.43-3.64,3.62-3.88.84.9.84.9L291,54l5.54-3.87a7.61,7.61,0,0,1,1.27,4.36c-.27,2.06-2.39,4.28-2.39,4.28l-7.21,3.67Z"/><path class="cls-4" d="M275.79,42.24s-4.64,1.56-2.94,5.59l17.89-3.65s-.92-4,5.16-5.42Z"/><path class="cls-2" d="M284.82,9s5.37,9,16.19,9.67c7.08.41,11.87,1.45,17.56,5.28s14.32,1.94,16.67-2.39S334.63,3.13,319.6,4.28s-12.42,2.31-20.68-.66S282.62,3.47,284.82,9Z"/><polygon class="cls-2" points="296.09 29.12 300.42 34.23 302.28 28.05 296.09 29.12"/><polygon class="cls-2" points="289.99 30.21 293.45 35.44 296.09 29.12 289.99 30.21"/><path class="cls-2" d="M313,41.53l1.62,8.58a4.16,4.16,0,0,1-4.16,4.33s-3,1-4.64-2.34L304,43.46Z"/><path class="cls-7" d="M284.19,93s-12.31,8.52-9.56,17.36L338.31,87.9l-3.18-2.71Z"/><circle class="cls-2" cx="69.54" cy="154.29" r="1.9"/><polygon class="cls-6" points="37.92 62.05 45.98 58.87 39.65 64.18 37.92 62.05"/><path class="cls-2" d="M184.46,66.48s21.7,5.24,42.72,4.61l-7.76-1.49S207.21,69.72,184.46,66.48Z"/><path class="cls-2" d="M231.72,84.85s-22.52,5.09-51.13-10.37c0,0,18.66,15.1,52.12,13.18Z"/><polygon class="cls-2" points="191.91 68.01 190.19 74.96 193.65 68.31 191.91 68.01"/><circle class="cls-2" cx="187.41" cy="69.6" r="0.96"/><path class="cls-13" d="M216.32,122.38s20.2-1.43,21.14-20.46"/><path class="cls-2" d="M169.2,71.2l-3-11.58s.37,4.19,1.83,11.95Z"/><polygon class="cls-2" points="270.11 61.12 263.89 63.57 271.29 59.62 270.11 61.12"/></g></g></svg>